<svg width="315" height="166" viewBox="0 0 315 166" fill="none" xmlns="http://www.w3.org/2000/svg">
<path d="M101.686 105.649C99.5931 114.871 55.8783 126.115 55.8783 126.115C55.8783 126.115 55.0076 124.592 53.5968 122.213C48.9789 112.551 38.6951 92.8444 33.6209 83.1014C31.7415 87.937 27.5568 91.8155 21.0642 92.3471C24.6649 111.084 38.2807 149.137 43.9123 150.806C51.1496 152.959 94.8039 139.731 109.562 134.289C124.32 128.822 131.235 114.185 131.235 114.185C131.235 114.185 103.778 96.4266 101.686 105.649Z" fill="#FCCDAA"/>
<path d="M208 157.005C211.867 156.838 232.813 150.324 235.154 152.11L235.154 152.115C232.509 145.034 195.701 118.12 182.455 109.635C169.208 101.125 153.35 104.4 153.35 104.4C153.35 104.4 155.713 137.027 164.326 133.158C172.963 129.264 208 157.005 208 157.005Z" fill="#FCCDAA"/>
<path d="M23.6253 96.308C23.6253 96.308 21.4397 92.8804 17.2608 85.8156L11.1954 75.8386C11.1954 75.8386 -8.81458 56.9288 13.1258 72.1831C13.1258 72.1831 14.2743 71.9826 13.7965 70.8209C13.3187 69.6592 4.24849 54.7553 5.60245 54.068C6.9564 53.3807 16.0597 67.302 16.9615 67.2128C17.8884 67.1225 9.56564 49.7211 11.5854 49.3069C13.6052 48.8928 20.5395 65.5993 21.8257 65.091C23.1109 64.5576 20.3837 49.1538 22.0401 48.4786C23.6713 47.8045 27.2897 65.2075 29.2003 68.0936C31.0575 70.9064 32.5752 70.514 32.5752 70.514C32.5752 70.514 34.8165 70.5682 34.7557 66.244C34.672 61.971 35.4269 60.2277 38.0611 60.6424C38.0611 60.6424 38.7135 64.6896 38.7173 66.5259C38.7115 67.5575 39.1364 79.7401 34.1611 83.9546L36.1165 93.1278L23.6253 96.308Z" fill="#FCCDAA"/>
<path d="M145.919 16.0433C145.919 16.0433 120.885 -10.8507 98.5619 20.4257C88.8836 34 87.9344 58.0653 89.4458 91.9361C90.2963 111.069 123.089 101.478 123.089 101.478C123.089 101.478 130.605 40.7031 145.919 16.0433Z" fill="#C1724F"/>
<path d="M146.468 29.4047C146.468 29.4047 124.283 7.89696 105.791 31.7631C97.7605 42.1218 97.4855 60.8249 99.529 87.2013C100.701 102.119 127.186 102.008 127.186 102.008C127.186 102.008 133.823 48.264 146.468 29.4047Z" fill="#935133"/>
<path d="M145.596 101.841L146.106 57.6692L124.115 76.831L123.26 100.163L103.483 104.135C103.483 104.135 97.583 132.993 131.166 132.978C164.775 132.962 174.455 108.948 174.455 108.948L145.596 101.841Z" fill="#FCCDAA"/>
<path d="M125.302 97.4096C132.08 96.4883 138.887 95.6664 145.672 94.9208L146.103 57.6708L124.113 76.8326L123.37 97.5181C124.022 97.4648 124.674 97.4367 125.302 97.4096Z" fill="#FCCDAA"/>
<path d="M148.107 25.9357C148.107 25.9357 111.139 4.05948 101.807 41.3917C92.4139 79.0787 123.173 107.487 153.076 74.6506C162.805 63.9923 170.218 27.6485 148.107 25.9357Z" fill="#FCCDAA"/>
<path d="M114.6 55.5807C114.121 57.3119 113.386 58.9285 112.444 60.4282C111.998 61.1769 111.45 61.8798 110.852 62.5849C110.539 62.9254 110.201 63.2419 109.837 63.5594C109.643 63.7188 109.448 63.878 109.202 64.0144C108.932 64.1519 108.662 64.3145 108.16 64.3362L108.941 63.1956C109.001 63.4194 109.116 63.7666 109.254 64.0374C109.392 64.3333 109.53 64.6041 109.692 64.8738C110.018 65.4132 110.441 65.8981 110.888 66.3568C111.36 66.7892 111.904 67.1682 112.52 67.4435C113.137 67.744 113.797 67.8916 114.509 68.0621C114.159 68.1024 113.785 68.1939 113.432 68.1589C113.079 68.1489 112.701 68.1401 112.32 68.0559C111.587 67.9618 110.845 67.6918 110.198 67.267C109.527 66.8682 108.951 66.3397 108.448 65.7576C108.209 65.466 107.969 65.1494 107.778 64.8054C107.587 64.4615 107.422 64.1415 107.252 63.6961L108.033 62.5555C107.957 62.5587 108.325 62.3416 108.566 62.0797C108.832 61.8418 109.095 61.5286 109.359 61.2154C109.911 60.6129 110.411 59.9624 110.987 59.3087C112.115 58.0525 113.267 56.7702 114.6 55.5807Z" fill="#CF976E"/>
<path d="M114.443 73.0221L131.73 71.9745C131.729 71.9493 118.913 82.1874 114.443 73.0221Z" fill="white"/>
<path d="M122.027 44.8714C122.027 44.8714 122.642 43.9644 123.904 42.9037C124.562 42.3974 125.369 41.8594 126.333 41.4657C127.295 41.0217 128.441 40.7709 129.596 40.7211C130.176 40.7464 130.779 40.7455 131.34 40.9226C131.922 40.9981 132.436 41.2527 132.925 41.5083C133.437 41.7126 133.831 42.0981 134.221 42.3832C134.636 42.6672 134.903 43.033 135.169 43.3737C135.75 44.0027 135.98 44.672 136.199 45.0902C136.393 45.5095 136.506 45.7813 136.506 45.7813C136.506 45.7813 136.272 45.6154 135.932 45.303C135.75 45.1599 135.565 44.9666 135.329 44.7504C135.119 44.5331 134.785 44.3713 134.473 44.1332C134.162 43.9203 133.848 43.6571 133.464 43.4976C133.079 43.3129 132.716 43.077 132.284 42.9698C131.465 42.653 130.529 42.5173 129.599 42.5322C127.712 42.5381 125.806 43.2493 124.371 43.8143C123.012 44.3761 122.027 44.8714 122.027 44.8714Z" fill="#BC6040"/>
<path d="M102.196 43.4391C102.196 43.4391 102.585 42.5418 103.595 41.4417C104.099 40.8917 104.753 40.31 105.562 39.8223C105.979 39.5779 106.397 39.3335 106.892 39.1612C107.362 38.9649 107.912 38.8908 108.435 38.7676C108.988 38.7689 109.539 38.6949 110.074 38.8479C110.629 38.8994 111.117 39.1299 111.58 39.3615C112.066 39.5418 112.409 39.9295 112.749 40.2167C113.113 40.5028 113.331 40.8708 113.546 41.1886C114.025 41.7968 114.152 42.4202 114.32 42.8155C114.463 43.2118 114.524 43.4608 114.524 43.4608C114.524 43.4608 114.317 43.3188 114.002 43.0305C113.713 42.7411 113.293 42.3315 112.724 41.9787C112.465 41.7887 112.203 41.5484 111.87 41.4118C111.536 41.2501 111.251 41.0611 110.895 40.9759L110.384 40.7967C110.207 40.7791 110.005 40.7627 109.828 40.7452C109.471 40.6348 109.074 40.7526 108.696 40.7437C108.298 40.8364 107.92 40.8275 107.525 40.9955C107.127 41.1133 106.755 41.23 106.385 41.3969C105.642 41.6805 104.928 42.0383 104.313 42.3416C103.056 42.9492 102.196 43.4391 102.196 43.4391Z" fill="#BC6040"/>
<path d="M116.649 15.2438C116.649 15.2438 113.507 35.1272 142.676 42.4221C164.495 47.8706 137.279 16.4419 116.649 15.2438Z" fill="#C1724F"/>
<path d="M111.09 102.122C111.09 102.122 108.958 120.93 127.68 120.475C146.401 119.994 155.307 99.007 155.307 99.007L170.021 103.63C170.021 103.63 166.182 109.682 165.988 116.835C165.826 122.427 166.27 128.043 169.066 135.72C168.324 157.588 168.936 154.773 168 156.977L88.4998 156.976C88.4998 156.976 88.5 147.977 101.365 104.101L111.09 102.122Z" fill="url(#paint0_linear_57_1969)"/>
<path d="M165.987 116.81C166.182 109.658 170.021 103.605 170.021 103.605L157.678 99.7354C157.343 131.044 133.038 157.842 122 156.977L168 156.977C168.961 154.772 168.35 157.588 169.067 135.721C166.269 128.018 165.827 122.427 165.987 116.81Z" fill="url(#paint1_linear_57_1969)"/>
<path d="M117.797 17.9354C117.797 17.9354 148.104 25.936 143.633 59.9139C140.073 87.0352 137.253 95.71 141.771 108.32C141.771 108.32 166.892 106.33 168.014 98.5087C170.195 83.1698 166.941 77.7254 167.959 48.8271C168.844 23.8589 161.234 11.9109 151.679 6.76347C142.098 1.59206 119.29 3.55702 117.797 17.9354Z" fill="#C1724F"/>
<path d="M125.896 55.6474C125.896 55.6474 125.803 54.6702 126.118 53.2227C126.178 52.868 126.313 52.4849 126.471 52.0755C126.655 51.6651 126.787 51.2317 127.121 50.8148C127.38 50.4011 127.763 49.9569 128.302 49.6067C128.865 49.2553 129.64 49.1464 130.326 49.293C130.632 49.4055 130.94 49.5431 131.223 49.6819L131.876 50.2323C132.343 50.5644 132.539 51.0338 132.833 51.4237C133.395 52.2045 133.656 53.0234 133.937 53.6905C134.35 55.1066 134.467 56.0575 134.467 56.0575C134.467 56.0575 133.781 55.3324 132.978 54.2098C132.503 53.702 132.071 53.0163 131.518 52.4364C131.23 52.1721 130.962 51.8063 130.677 51.6173L130.261 51.2831C130.108 51.2394 129.98 51.1946 129.877 51.1487C129.648 51.0832 129.447 51.0918 129.202 51.2282C128.956 51.3646 128.662 51.5533 128.424 51.8654C127.92 52.4155 127.496 53.0878 127.118 53.6576C126.387 54.796 125.896 55.6474 125.896 55.6474Z" fill="#1E1B1B"/>
<path d="M105.673 54.0058C105.673 54.0058 105.58 53.0286 105.895 51.5811C105.956 51.2264 106.09 50.8433 106.248 50.4339C106.433 50.0486 106.564 49.5901 106.898 49.1732C107.157 48.7595 107.541 48.3153 108.079 47.9651C108.642 47.6137 109.418 47.5048 110.103 47.6514C110.41 47.7639 110.718 47.9015 111 48.0403L111.653 48.5907C112.12 48.9228 112.317 49.3922 112.61 49.7821C113.172 50.5629 113.434 51.3818 113.714 52.0489C114.127 53.465 114.244 54.4159 114.244 54.4159C114.244 54.4159 113.559 53.6908 112.755 52.5682C112.281 52.0604 111.848 51.3747 111.295 50.7948C111.007 50.5305 110.74 50.1647 110.455 49.9757L110.038 49.6415C109.885 49.5978 109.758 49.553 109.655 49.5071C109.426 49.4415 109.225 49.4502 108.979 49.5866C108.733 49.7229 108.44 49.9117 108.202 50.2238C107.697 50.7739 107.273 51.4462 106.895 52.016C106.163 53.1293 105.673 54.0058 105.673 54.0058Z" fill="#1E1B1B"/>
<path d="M234.098 111.484L226.004 106.4L220.122 114.263C220.122 114.263 184.164 107.929 171.275 119.826C165.575 125.087 165.493 139.63 168.026 157.005C168.026 157.005 179.554 157.003 196.154 157C238.824 156.993 315 156.98 315 156.973L315 156.979L315 156.975C315 155.499 313.5 149.995 308.301 145.203C295.666 131.956 267.949 125.952 267.949 125.952L234.098 111.484Z" fill="url(#paint2_linear_57_1969)"/>
<path d="M262.903 97.162L261.335 142.448L229.162 129.102L230.471 82.4941L262.903 97.162Z" fill="#FAB887"/>
<path d="M253.959 127.275C245.116 122.529 237.713 116.159 229.696 110.439L230.5 82.4931L262.932 97.161L261.715 131.641C259.203 130.162 256.628 128.686 253.959 127.275Z" fill="#FAB887"/>
<path d="M246.198 17.4753C222.609 22.8443 223.572 37.506 223.572 37.506C223.572 37.506 224.565 48.811 225.303 62.2762C223.042 59.6191 219.307 58.556 215.552 60.0894C207.542 63.3608 213.996 86.1264 226.214 83.8728C226.873 90.2487 227.683 95.2273 228.618 96.9098C232.192 103.36 251.52 119.199 264.979 120.455C278.439 121.711 288.856 102.098 288.538 87.8287C288.219 73.5598 289.864 31.976 289.864 31.976C289.864 31.976 285.259 8.55528 246.198 17.4753Z" fill="#FCCDAA"/>
<path d="M265.882 50.3482C265.882 50.3482 265.765 48.4837 264.309 46.3098C263.581 45.2229 262.597 44.0484 261.145 43.1091C260.466 42.5906 259.6 42.2357 258.704 41.8818C257.747 41.6246 256.819 41.3032 255.745 41.366C254.699 41.333 253.658 41.4581 252.686 41.8028C251.68 42.022 250.875 42.6468 250.064 43.0819C249.32 43.61 248.77 44.2908 248.216 44.845C247.695 45.4616 247.398 46.135 247.099 46.7136C246.435 47.8409 246.342 49.015 246.205 49.7471C246.101 50.5099 246.113 50.9528 246.113 50.9528C246.113 50.9528 246.552 50.7818 247.238 50.4453C247.926 50.1405 248.733 49.5789 249.734 49.17C250.235 48.9655 250.701 48.667 251.234 48.4933C251.704 48.3214 252.237 48.1476 252.738 47.9432C253.243 47.8969 253.71 47.6301 254.186 47.6796C254.66 47.6343 255.101 47.5581 255.609 47.6067C256.082 47.5297 256.594 47.7364 257.1 47.7218C257.611 47.8653 258.182 47.912 258.725 48.0862C259.841 48.3389 260.993 48.7803 262.047 49.0981C264.126 49.8293 265.882 50.3482 265.882 50.3482Z" fill="#141B30"/>
<path d="M287.999 49.8657C287.999 49.8657 288.084 48.4386 287.213 46.7859C286.406 45.163 284.448 43.1303 281.398 42.7754C280.636 42.7025 279.908 42.6921 279.154 42.9039C278.397 42.9891 277.774 43.3554 277.15 43.6584C276.526 43.9615 276.128 44.4478 275.696 44.8402C275.264 45.2326 275.058 45.7452 274.785 46.1646C274.27 46.971 274.2 47.8279 274.121 48.3684C274.074 48.9396 274.083 49.2559 274.083 49.2559C274.083 49.2559 274.429 49.1825 274.964 49.072C275.499 48.9615 276.156 48.6893 276.881 48.5733C277.26 48.5307 277.603 48.3624 277.951 48.3523C278.299 48.3423 278.643 48.2056 278.96 48.2281C279.593 48.2098 280.131 48.1942 280.704 48.3043C281.845 48.3661 283.506 48.8562 285.067 49.1908C286.63 49.6204 287.999 49.8657 287.999 49.8657Z" fill="#141B30"/>
<path d="M251.518 98.6321L278.703 98.2876C278.703 98.2876 273.097 112.412 251.518 98.6321Z" fill="white"/>
<path d="M248.487 60.7618C248.566 63.4822 249.896 65.6598 251.445 65.6148C252.995 65.5699 254.196 63.319 254.118 60.5987C254.039 57.8783 252.709 55.7007 251.159 55.7456C249.61 55.7906 248.408 58.0415 248.487 60.7618Z" fill="#20242E"/>
<path d="M274.303 61.2159C274.382 63.9363 275.712 66.1139 277.262 66.069C278.812 66.024 280.013 63.7731 279.934 61.0528C279.855 58.3324 278.526 56.1548 276.976 56.1997C275.426 56.2447 274.225 58.4956 274.303 61.2159Z" fill="#20242E"/>
<path d="M245.239 29.4818C240.659 36.3895 242.404 47.4511 239.641 50.4438C236.879 53.4365 231.243 54.5179 233.131 70.5141C233.383 72.6596 233.639 74.9316 233.929 77.2976C232.751 77.0468 231.542 76.8602 230.212 76.8355C228.881 76.8107 227.651 76.9413 226.452 77.1027C226.152 71.0962 225.44 67.3179 225.44 67.3179C225.44 67.3179 218.282 34.4103 219.16 29.7627C220.039 25.1467 228.867 8.58662 243.197 4.91052L239.503 9.63974C240.88 7.98526 247.156 1.69326 261.751 3.89799L258.167 4.76162C258.167 4.76162 276.15 5.88677 288.761 0.772549L284.323 6.06151C284.323 6.06151 296.736 5.037 301.457 0.816207C301.457 0.816207 308.902 20.6404 292.173 30.0213C275.444 39.4022 249.818 22.5425 245.239 29.4818Z" fill="#141B30"/>
<path d="M267.69 89.7733C267.69 89.7733 249.653 85.7055 243.926 97.8385C243.926 97.8385 261.896 100.674 267.926 95.75C267.926 95.75 276.118 99.8498 283.548 97.3234C283.547 97.2918 279.203 87.2236 267.69 89.7733Z" fill="#141B30"/>
<path d="M272.259 60.4839C272.485 65.0046 273.12 69.45 273.976 73.8574C274.832 78.2648 275.844 82.6044 277.077 86.9059L277.711 85.8428C274.262 87.0191 270.849 88.321 267.471 89.7486C271.095 89.1687 274.651 88.4325 278.205 87.6014L278.959 87.4213L278.839 86.5383C278.172 82.0938 277.285 77.7188 276.241 73.3802C275.197 69.0099 273.932 64.7093 272.259 60.4839Z" fill="#7F6654"/>
<path d="M297.148 67.3295L277.849 66.6542C277.849 66.6542 276.603 79.3854 283.778 81.1719C299.181 85.0312 297.148 67.3295 297.148 67.3295Z" fill="#B9D1E7" stroke="#20242E" stroke-width="3.77" stroke-miterlimit="10"/>
<path d="M269.876 66.8843L250.576 66.2089C250.576 66.2089 249.33 78.9401 256.505 80.7267C271.908 84.586 269.876 66.8843 269.876 66.8843Z" fill="#B9D1E7" stroke="#20242E" stroke-width="3.77" stroke-miterlimit="10"/>
<path d="M277.751 70.9624C277.751 70.9624 274.44 65.9612 269.806 71.0026" stroke="#20242E" stroke-width="3.77" stroke-miterlimit="10"/>
<path d="M215.141 151.069L197.685 140.843C197.685 140.843 184.649 147.626 178.301 157.005L216.461 157.005L216.461 157.005C215.737 153.462 215.141 151.069 215.141 151.069Z" fill="#FAB989"/>
<path d="M239.08 62.7128L233.386 62.8778L233.391 63.0359C233.231 62.9772 233.04 62.9511 232.848 62.8934C232.448 61.1004 231.923 59.3745 231.053 57.7534C234.851 57.7067 242.664 58.5883 242.664 58.5883L248.548 64.9711C243.272 69.7145 239.08 62.7128 239.08 62.7128Z" fill="#A07E67"/>
<path d="M237.379 65.2629L233.076 65.3875L233.081 65.5457C232.953 65.4861 232.825 65.4581 232.698 65.4301C232.399 63.8558 231.975 62.3486 231.332 60.9109C234.181 60.8917 240.06 61.671 240.06 61.671L244.529 67.3034C240.565 71.4389 237.379 65.2629 237.379 65.2629Z" fill="#A07E67"/>
<path d="M250.09 67.9633L226.655 62.2157" stroke="#20242E" stroke-width="3.77" stroke-miterlimit="10"/>
<path d="M269.778 126.88L259.456 151.968L253.269 138.376L253.817 137.632L262.573 121.866L269.778 126.88Z" fill="#DC901D"/>
<path d="M223.809 104.944L252.734 138.424L245.133 153.619L213.776 113.783L223.809 104.944Z" fill="#DC901D"/>
<path d="M222.125 105.848L230.6 86.9552C231.978 91.8857 240.155 82.3727 244.79 84.9927C244.659 90.1898 247.084 128.976 239.033 157.005L196 157.005C202.446 136.905 222.125 105.848 222.125 105.848Z" fill="#FCCDAA"/>
<path d="M252.073 62.0504L246.19 55.6675C246.19 55.6675 236.153 54.5338 233.314 54.901C230.476 55.2682 228.631 60.4503 228.631 60.4503L226.655 61.0774L224.819 66.5443L222.591 68.3184C222.591 68.3184 226.335 89.3579 234.111 91.127C241.887 92.8962 249.458 88.6878 243.45 78.003C237.442 67.3182 237.116 65.903 237.116 65.903L236.942 59.9245L242.636 59.7595C242.573 59.7614 246.797 66.7938 252.073 62.0504Z" fill="#FCCDAA"/>
<defs>
<linearGradient id="paint0_linear_57_1969" x1="90.6886" y1="154.452" x2="75.0278" y2="128.975" gradientUnits="userSpaceOnUse">
<stop stop-color="#F98D3D"/>
<stop offset="1" stop-color="#F9AE3D"/>
</linearGradient>
<linearGradient id="paint1_linear_57_1969" x1="149.562" y1="232.216" x2="93.7168" y2="215.88" gradientUnits="userSpaceOnUse">
<stop stop-color="#F98D3D"/>
<stop offset="1" stop-color="#F9AE3D"/>
</linearGradient>
<linearGradient id="paint2_linear_57_1969" x1="212.071" y1="185.007" x2="264.044" y2="131.105" gradientUnits="userSpaceOnUse">
<stop stop-color="#F98D3D"/>
<stop offset="1" stop-color="#F9AE3D"/>
</linearGradient>
</defs>
</svg>
