<svg width="392" height="238" viewBox="0 0 392 238" fill="none" xmlns="http://www.w3.org/2000/svg">
<path d="M146.901 62.4693C146.901 62.4693 148.781 43.1598 165.985 44.8942C183.162 46.6253 180.738 85.6257 154.728 81.3707C128.672 77.0556 146.901 62.4693 146.901 62.4693Z" fill="#141B30"/>
<path d="M20.551 103.101C20.551 103.101 20.5145 98.754 20.7552 89.9359L20.9342 77.4192C20.9342 77.4192 13.5325 48.8538 24.76 75.2025C24.76 75.2025 25.9233 75.6712 26.1407 74.3409C26.3849 73.0139 26.6168 54.3157 28.2536 54.4626C29.8905 54.6095 30.2009 72.4244 31.0969 72.8602C31.993 73.296 34.3483 52.769 36.3973 53.5365C38.473 54.3073 35.2564 73.4528 36.7197 73.6869C38.1798 73.9478 44.4838 58.3842 46.3682 58.7244C48.2259 59.0613 41.6164 76.8942 41.7016 80.6228C41.7999 84.2445 43.3941 84.739 43.3941 84.739C43.3941 84.739 45.4009 86.0713 47.7866 82.1035C50.1658 78.1892 51.8298 77.0096 53.9848 78.9029C53.9848 78.9029 52.2673 82.9527 51.249 84.6188C50.6733 85.5522 44.1027 96.8764 37.1747 97.8433L33.7359 107.3L20.551 103.101Z" fill="#FCCDAA"/>
<path d="M20.7051 90.8271C20.4896 98.9968 20.5289 103.1 20.5289 103.1L33.6835 107.322L36.2658 100.203C30.9759 97.3274 25.7957 94.221 20.7051 90.8271Z" fill="#FCCDAA"/>
<path d="M98.8667 117.23L100.528 147.696L123.848 149.558L119.589 95.5948L98.8667 117.23Z" fill="#FCCDAA"/>
<path d="M128.943 49.6551C128.943 49.6551 105.289 20.8835 81.1281 54.6347C65.4467 76.5365 73.6758 115.164 73.6758 115.164L93.2929 81.9672C93.2929 81.9672 111.919 76.0872 128.943 49.6551Z" fill="#141B30"/>
<path d="M132.696 62.6562C132.696 62.6562 95.413 35.3039 81.6227 76.7341C67.7063 118.529 97.1615 152.193 133.024 117.926C165.533 86.884 156.165 66.1649 132.696 62.6562Z" fill="#FCCDAA"/>
<path d="M106.434 53.8071C106.434 53.8071 100.963 83.586 131.535 99.312C131.535 99.312 143.22 91.4119 142.445 100.599C141.671 109.785 129.915 111.407 129.915 111.407L126.994 123.723C126.994 123.723 156.155 109.584 159.601 82.3792C162.515 59.5054 126.96 19.6093 106.434 53.8071Z" fill="#141B30"/>
<path d="M103.091 140.304L77.4888 144.674L76.3074 145.018C76.3074 145.018 76.9538 177.12 111.302 173.987C145.649 170.854 153.33 145.392 153.33 145.392L120.971 140.493L103.091 140.304Z" fill="#FCCDAA"/>
<path d="M94.6431 84.2509C94.339 85.6247 93.9045 86.9555 93.3697 88.2196C92.8615 89.487 92.2732 90.7445 91.5845 91.9354C90.946 93.1596 90.1804 94.314 89.3613 95.4617C88.9384 96.034 88.4921 96.5762 87.9891 97.1385C87.7359 97.4331 87.4626 97.6709 87.1292 97.9556C86.7489 98.1802 86.5896 98.5948 85.3507 98.7411L86.603 97.1581C86.5997 97.1849 86.6335 97.3518 86.6738 97.4653L86.7915 97.8326C86.8957 98.0897 87.0031 98.32 87.1372 98.5536C87.4322 99.0241 87.7573 99.4712 88.1958 99.8779C89.046 100.688 90.193 101.29 91.4901 101.776C90.1514 102.072 88.6514 101.915 87.2671 101.256C86.5749 100.927 85.9558 100.444 85.4301 99.8636C85.1656 99.5868 84.9344 99.2599 84.7031 98.9329C84.5892 98.756 84.4752 98.5792 84.388 98.4057C84.304 98.2054 84.2135 98.0585 84.1394 97.778L85.3916 96.195C84.8139 96.2596 85.2313 96.1753 85.3377 95.9713L85.8806 95.3052C86.2637 94.8366 86.6533 94.3146 87.0194 93.7625C87.7986 92.7184 88.5342 91.5876 89.3434 90.5201C90.9651 88.3582 92.6135 86.1997 94.6431 84.2509Z" fill="#CF976E"/>
<path d="M102.02 78.3154C102.02 78.3154 103 77.1877 104.988 76.2381C105.969 75.7617 107.19 75.3149 108.549 75.0749C109.911 74.8082 111.433 74.7783 112.95 75.019C113.695 75.1377 114.43 75.3366 115.159 75.589C115.894 75.7879 116.523 76.1908 117.131 76.537C117.773 76.8329 118.282 77.3296 118.774 77.7428C119.296 78.1326 119.671 78.6129 120.026 79.0364C120.766 79.86 121.179 80.6976 121.434 81.2716C121.716 81.8489 121.837 82.1894 121.837 82.1894C121.837 82.1894 121.509 81.9863 121.007 81.6533C120.756 81.4868 120.459 81.2603 120.107 81.0272C119.786 80.7706 119.348 80.5811 118.92 80.3114C118.489 80.0685 118.064 79.772 117.549 79.5459C117.034 79.3198 116.556 79.0168 115.981 78.8376C115.436 78.635 114.865 78.4291 114.287 78.2766C113.712 78.0974 113.104 77.9684 112.489 77.8928C111.273 77.6348 110.024 77.6441 108.805 77.6299C107.609 77.6458 106.457 77.7484 105.442 77.8407C103.459 78.0853 102.02 78.3154 102.02 78.3154Z" fill="#3F1E1D"/>
<path d="M81.0621 75.7965C81.0621 75.7965 81.5041 74.8468 82.6105 73.7888C83.1637 73.2598 83.8838 72.697 84.7511 72.2609C85.1848 72.0428 85.6485 71.8013 86.1792 71.6766C86.6898 71.4951 87.2609 71.4839 87.8151 71.3892C88.3796 71.4315 88.9806 71.3968 89.5254 71.5994C90.1101 71.6984 90.5916 71.9747 91.0432 72.2744C91.528 72.5239 91.8562 72.9441 92.1708 73.2542C92.5389 73.5708 92.7068 73.9713 92.908 74.3217C93.3403 74.9989 93.422 75.6602 93.5331 76.0809C93.6143 76.525 93.6382 76.7722 93.6382 76.7722C93.6382 76.7722 93.4409 76.6123 93.1262 76.3023C92.8083 76.019 92.4332 75.5387 91.8846 75.1457C91.6103 74.9491 91.3725 74.6757 91.0382 74.5261C90.7339 74.353 90.4362 74.1264 90.0686 74.027C89.7376 73.8506 89.3934 73.7812 89.0193 73.7352C88.6817 73.6123 88.2644 73.6968 87.8902 73.6508C87.503 73.7117 87.0989 73.6891 86.705 73.8036C86.3145 73.8912 85.9005 73.9489 85.5034 74.0901C84.7158 74.3189 83.975 74.6078 83.321 74.853C81.9731 75.4472 81.0621 75.7965 81.0621 75.7965Z" fill="#3F1E1D"/>
<path d="M81.1686 144.287C81.1686 144.287 85.8446 172.734 113.17 171.343C140.522 169.955 145.567 145.417 145.567 145.417C145.567 145.417 159.683 146.446 168.456 158.082C176.997 169.39 190.213 181.947 188.979 192L63.4795 192L62.4134 186.165C62.4134 186.165 24.1074 193.697 10.9821 184.593C-2.1733 175.513 11.4482 97.642 15.7296 96.1328C19.9843 94.6203 39.1795 104.443 39.1795 104.443C39.1795 104.443 29.8436 152.906 35.1886 153.563C40.5336 154.22 62.7746 144.74 81.1686 144.287Z" fill="#C8DFF8"/>
<path d="M77.2394 187.287L141.974 185.717L141.974 192L141.99 192L77.2409 192L77.2396 192C77.2396 192 77.2396 192 77.2394 187.287Z" fill="url(#paint0_linear_57_1882)"/>
<path d="M81.8036 183.583C81.8036 183.583 83.8877 190.923 85.8682 190.922C87.8487 190.921 91.2223 186.641 91.2223 186.641L89.6546 181.726" stroke="#9FA8B7" stroke-width="0.4661" stroke-miterlimit="10"/>
<path d="M72.4095 144.73L80.9337 140.486L91.1655 181.829L80.9537 185.676L72.4095 144.73Z" fill="url(#paint1_linear_57_1882)"/>
<path d="M85.0459 186.804C84.9213 187.82 85.7518 188.791 86.9278 188.935C88.077 189.076 89.1408 188.366 89.2687 187.323C89.3965 186.28 88.5627 185.337 87.3868 185.192C86.2108 185.048 85.1738 185.761 85.0459 186.804Z" fill="#9FA8B7"/>
<path d="M133.195 180.372C133.195 180.372 131.261 187.733 132.98 188.758C134.699 189.784 139.748 187.772 139.748 187.772L140.909 182.731" stroke="#9FA8B7" stroke-width="0.4661" stroke-miterlimit="10"/>
<path d="M144.81 142.09L154.304 142.769L142.162 183.588L131.403 181.722L144.81 142.09Z" fill="url(#paint2_linear_57_1882)"/>
<path d="M134.363 184.774C133.721 185.59 133.974 186.843 134.891 187.552C135.807 188.262 137.093 188.176 137.709 187.356C138.352 186.539 138.098 185.287 137.182 184.577C136.265 183.868 134.979 183.954 134.363 184.774Z" fill="#9FA8B7"/>
<path d="M83.3708 87.94C83.3708 87.94 83.3552 86.961 83.6893 85.5638C83.858 84.8518 84.1467 84.046 84.6291 83.2097C84.8954 82.8082 85.1682 82.3533 85.6215 81.9748C86.0481 81.5931 86.772 81.2207 87.624 81.3526C88.3592 81.5515 88.9248 82.0281 89.2263 82.4452C89.6615 82.8786 89.7661 83.3528 89.9842 83.7867C90.3936 84.6512 90.5091 85.4795 90.6644 86.2042C90.8146 87.6339 90.8034 88.6094 90.8034 88.6094C90.8034 88.6094 90.2806 87.7853 89.6732 86.5437C89.3112 85.9564 88.9955 85.212 88.5631 84.5347C88.3587 84.211 88.1373 83.8039 87.8897 83.6106C87.6585 83.2836 87.4245 83.2006 87.2942 83.1575C87.1873 83.1443 86.9969 83.148 86.7536 83.3623C86.5136 83.5499 86.2337 83.8412 85.9805 84.1357C85.4977 84.7548 85.0649 85.4073 84.6956 85.9861C83.9 87.1638 83.3708 87.94 83.3708 87.94Z" fill="#3F3838"/>
<path d="M105.496 93.0454C105.496 93.0454 105.48 92.0665 105.814 90.6693C105.983 89.9573 106.272 89.1515 106.754 88.3152C107.02 87.9137 107.293 87.4588 107.747 87.0803C108.173 86.6985 108.897 86.3262 109.749 86.458C110.484 86.657 111.05 87.1336 111.351 87.5506C111.786 87.9841 111.891 88.4583 112.109 88.8921C112.519 89.7566 112.634 90.5849 112.789 91.3096C112.94 92.7393 112.928 93.7149 112.928 93.7149C112.928 93.7149 112.406 92.8908 111.798 91.6492C111.436 91.0619 111.121 90.3175 110.688 89.6401C110.484 89.3165 110.262 88.9093 110.015 88.7161C109.784 88.3891 109.55 88.306 109.419 88.2629C109.312 88.2497 109.122 88.2535 108.879 88.4678C108.639 88.6554 108.359 88.9467 108.106 89.2412C107.623 89.8603 107.19 90.5127 106.817 91.1182C106.028 92.2424 105.496 93.0454 105.496 93.0454Z" fill="#3F3838"/>
<path d="M88.0607 107.381L108.521 109.542C108.521 109.542 102.775 117.683 95.4808 116.108C85.8881 114.034 88.0607 107.381 88.0607 107.381Z" fill="#D37F7A"/>
<path d="M92.0692 114.956C95.1324 112.32 99.3068 110.798 104.438 111.429C105.159 111.517 105.784 111.73 106.443 111.892C107.739 110.613 108.495 109.539 108.495 109.539L88.0347 107.377C88.0614 107.381 86.486 112.262 92.0692 114.956Z" fill="#9B5C57"/>
<g filter="url(#filter0_d_57_1882)">
<path d="M347.85 183.198C347.85 183.198 364.474 114.994 358.644 116.269C352.813 117.543 348.989 113.367 346.901 124.269C344.813 135.198 327.077 185.91 327.077 185.91L347.85 183.198Z" fill="#FCCDAA"/>
<path d="M241.517 133.488L245.666 177.936L217.679 168.417L213.178 122.694L241.517 133.488Z" fill="#FCCDAA"/>
<path d="M221.91 54.7914C202.141 60.2152 203.253 73.9103 203.253 73.9103C203.253 73.9103 204.337 84.4866 205.259 97.0969C203.307 94.6291 200.134 93.7071 196.988 95.2257C190.317 98.4257 196.256 119.633 206.507 117.328C207.212 123.294 207.998 127.931 208.839 129.504C212.012 135.47 225.165 144.203 236.555 145.179C247.945 146.155 266.331 134.331 265.735 120.962C265.165 107.619 259.09 67.7271 259.09 67.7271C259.09 67.7271 254.67 45.8422 221.91 54.7914Z" fill="#FCCDAA"/>
<path d="M234.737 80.6075C234.737 80.6075 233.516 80.6075 231.889 80.5533C231.076 80.5533 230.127 80.499 229.177 80.5261C228.689 80.499 228.201 80.5804 227.74 80.5804C227.252 80.5533 226.791 80.6888 226.303 80.716C225.842 80.8244 225.381 80.8516 224.947 80.9872C224.54 81.1499 224.052 81.2041 223.699 81.4211C222.886 81.7194 222.154 82.1533 221.53 82.6143C220.879 83.0482 220.364 83.5092 220.011 83.8618C219.632 84.1872 219.36 84.377 219.36 84.377C219.36 84.377 219.36 84.0788 219.442 83.5635C219.523 83.0211 219.659 82.2618 220.147 81.4482C220.337 81.0143 220.635 80.5804 221.015 80.1736C221.367 79.7397 221.801 79.3329 222.316 79.0075C223.293 78.2481 224.594 77.8685 225.842 77.5973C226.466 77.5702 227.116 77.4617 227.713 77.516C228.337 77.516 228.906 77.6244 229.476 77.7329C230.588 77.9498 231.564 78.3566 232.35 78.7634C233.95 79.6583 234.737 80.6075 234.737 80.6075Z" fill="#141B30"/>
<path d="M246.588 79.5227C246.588 79.5227 246.94 78.4922 248.025 77.3803C248.568 76.8379 249.273 76.2413 250.195 75.8345C251.09 75.3735 252.202 75.1294 253.368 75.0752C253.964 75.1294 254.534 75.1566 255.103 75.3464C255.673 75.4549 256.161 75.7802 256.622 76.0514C257.11 76.2955 257.435 76.7294 257.788 77.0548C258.141 77.3802 258.33 77.7871 258.547 78.1396C258.981 78.8176 259.09 79.4955 259.171 79.9294C259.252 80.3904 259.252 80.6345 259.252 80.6345C259.252 80.6345 259.008 80.4989 258.629 80.282C258.249 80.065 257.788 79.6854 257.191 79.3871C256.893 79.2244 256.622 79.0346 256.297 78.899C255.971 78.7905 255.673 78.6006 255.347 78.5193C254.696 78.3023 254.046 78.1939 253.313 78.1939C251.903 78.1396 250.276 78.5735 248.92 78.899C247.646 79.2786 246.588 79.5227 246.588 79.5227Z" fill="#141B30"/>
<path d="M226.575 121.23L251.959 121.475C251.959 121.475 246.318 133.461 226.575 121.23Z" fill="white"/>
<path d="M286.97 192H188.999H164.499C164.499 192 161.274 181.842 171.416 169.964C173.504 167.523 190.481 155.971 212.501 155.455C214.589 155.401 216.542 154.94 218.305 154.94H236.664H238.237L263.376 154.425L286.97 187.483L286.97 192Z" fill="url(#paint3_linear_57_1882)"/>
<path d="M236.663 154.94C236.663 154.94 267.036 149.706 283.823 158.086C300.61 166.493 327.457 171.591 327.457 171.591L343.403 128.526L362.278 133.245C362.278 133.245 354.053 195.146 342.5 192H287L270.697 189.544L236.663 154.94Z" fill="url(#paint4_linear_57_1882)"/>
<path d="M211.444 160.69L210.413 141.815L245.017 143.388L244.502 158.087L211.444 160.69Z" fill="#FCCDAA"/>
<path d="M203.497 94.6819C209.625 108.757 204.066 131.862 214.48 140.296C225.11 148.893 243.524 151.876 254.046 148.323C265.762 144.391 272.704 136.011 270.887 124.187C268.745 110.275 263.022 94.4378 263.022 94.4378C263.022 94.4378 265.219 109.109 250.548 108.16C237.748 107.319 213.91 126.872 210.547 94.7904C206.913 60.4036 234.168 63.685 244.636 64.5257C255.104 65.3664 261.694 60.1324 259.145 51.4001L255.592 54.8714C255.592 54.8714 259.904 44.8103 253.124 39.4678C253.124 39.4678 252.5 45.0272 248.46 46.3289C248.46 46.3289 249.572 39.7661 243.904 37C243.904 37 245.395 42.4509 241.843 42.7492C238.29 43.0475 212.12 37.9492 207.673 55.3866C207.673 55.3866 201.11 54.2748 198.968 63.902C196.744 73.5021 197.341 80.6072 203.497 94.6819Z" fill="#141B30"/>
<path d="M243.958 82.6943C246.1 86.491 247.917 90.3961 249.572 94.3554C251.226 98.3419 252.717 102.356 254.046 106.478L254.317 107.345L253.504 107.508C250.982 108.023 248.406 108.43 245.829 108.729C248.216 107.698 250.656 106.803 253.124 105.989L252.609 107.02C250.819 103.115 249.192 99.1013 247.728 95.0606C246.236 91.047 244.961 86.952 243.958 82.6943Z" fill="#7F6654"/>
<path d="M232.459 118.058L256.107 114.776C256.107 114.776 251.415 131.834 232.459 118.058Z" fill="white"/>
<path d="M226.818 91.6714C226.818 91.6714 226.764 91.4544 226.683 91.0747C226.656 90.8849 226.601 90.6679 226.628 90.3968C226.628 90.1256 226.601 89.773 226.683 89.4476C226.791 88.7696 227.117 87.956 227.74 87.2238C228.093 86.8984 228.473 86.5459 228.961 86.3289C229.449 86.112 229.991 85.9763 230.534 85.9492C231.076 85.9492 231.618 86.0306 232.079 86.2204C232.567 86.356 232.947 86.6815 233.354 86.9255C234.059 87.5222 234.547 88.173 234.818 88.7968C235.117 89.3934 235.252 89.9629 235.334 90.3154C235.415 90.6951 235.442 90.912 235.442 90.912C235.442 90.912 235.252 90.7764 235.008 90.5053C234.764 90.207 234.357 89.8815 233.923 89.5019C233.462 89.1222 232.947 88.7154 232.378 88.39C232.079 88.2544 231.781 88.1188 231.483 88.0374C231.184 87.929 230.886 87.9018 230.615 87.9289C229.449 87.8747 228.391 88.8239 227.795 89.8273C227.496 90.2883 227.225 90.7493 227.089 91.1019C226.927 91.4815 226.818 91.6714 226.818 91.6714Z" fill="#50586F"/>
<path d="M250.413 88.5263C250.413 88.5263 250.358 88.3093 250.277 87.9568C250.223 87.6042 250.141 87.0618 250.196 86.3839C250.277 85.733 250.44 84.9466 250.928 84.1872C251.172 83.8076 251.47 83.4008 251.877 83.1296C252.257 82.8042 252.772 82.5601 253.287 82.4245C253.83 82.316 254.399 82.3432 254.914 82.4517C255.43 82.5601 255.863 82.8584 256.243 83.1025C256.948 83.672 257.409 84.35 257.68 84.9195C257.979 85.5161 258.087 86.0313 258.169 86.411C258.25 86.7635 258.25 86.9805 258.25 86.9805C258.25 86.9805 258.06 86.8449 257.816 86.6008C257.599 86.3297 257.192 86.0042 256.758 85.6245C256.324 85.2449 255.809 84.8652 255.294 84.594C254.752 84.3499 254.236 84.2415 253.748 84.3771C253.26 84.4584 252.772 84.811 252.338 85.2449C251.904 85.6788 251.579 86.2211 251.28 86.7093C251.036 87.1974 250.738 87.6313 250.657 87.9839C250.521 88.3364 250.413 88.5263 250.413 88.5263Z" fill="#50586F"/>
<path d="M361.165 107.535C357.884 107.02 361.192 103.088 361.192 103.088C367.077 95.0333 362.548 94.057 361.138 93.6231C359.728 93.1892 358.724 99.7249 354.385 103.061C350.046 106.396 347.443 118.817 346.765 124.403C346.06 129.99 354.873 128.796 354.873 128.796C357.341 129.8 359.917 129.556 362.304 128.959C362.277 128.851 362.277 128.742 362.25 128.634C354.494 122.396 356.229 113.989 361.165 107.535Z" fill="#FCCDAA"/>
<path d="M360.948 107.537C360.948 107.537 374.888 104.201 374.671 110.655C374.671 110.655 378.467 114.425 375.186 116.974C375.186 116.974 377.952 121.34 374.698 122.94C374.698 122.94 376.162 128.31 371.362 128.906C366.562 129.503 354.792 133.001 352.08 126.167C349.396 119.387 360.948 107.537 360.948 107.537Z" fill="#FCCDAA"/>
<path d="M165.233 183.252L164.5 192L197 192L165.233 183.252Z" fill="url(#paint5_linear_57_1882)"/>
</g>
<defs>
<filter id="filter0_d_57_1882" x="97.0117" y="0" width="294.51" height="237.116" filterUnits="userSpaceOnUse" color-interpolation-filters="sRGB">
<feFlood flood-opacity="0" result="BackgroundImageFix"/>
<feColorMatrix in="SourceAlpha" type="matrix" values="0 0 0 0 0 0 0 0 0 0 0 0 0 0 0 0 0 0 127 0" result="hardAlpha"/>
<feOffset dx="-26" dy="4"/>
<feGaussianBlur stdDeviation="20.5"/>
<feComposite in2="hardAlpha" operator="out"/>
<feColorMatrix type="matrix" values="0 0 0 0 0.188235 0 0 0 0 0.403922 0 0 0 0 0.960784 0 0 0 0.07 0"/>
<feBlend mode="normal" in2="BackgroundImageFix" result="effect1_dropShadow_57_1882"/>
<feBlend mode="normal" in="SourceGraphic" in2="effect1_dropShadow_57_1882" result="shape"/>
</filter>
<linearGradient id="paint0_linear_57_1882" x1="93.3045" y1="186.855" x2="130.677" y2="191.547" gradientUnits="userSpaceOnUse">
<stop stop-color="#2F66F4"/>
<stop offset="1" stop-color="#0D9AE9"/>
</linearGradient>
<linearGradient id="paint1_linear_57_1882" x1="75.9465" y1="162.467" x2="89.2833" y2="164.107" gradientUnits="userSpaceOnUse">
<stop stop-color="#2F66F4"/>
<stop offset="1" stop-color="#0D9AE9"/>
</linearGradient>
<linearGradient id="paint2_linear_57_1882" x1="138.269" y1="161.954" x2="148.641" y2="163.228" gradientUnits="userSpaceOnUse">
<stop stop-color="#2F66F4"/>
<stop offset="1" stop-color="#0D9AE9"/>
</linearGradient>
<linearGradient id="paint3_linear_57_1882" x1="198.501" y1="239.46" x2="279.075" y2="239.5" gradientUnits="userSpaceOnUse">
<stop stop-color="#2F66F4"/>
<stop offset="1" stop-color="#0D9AE9"/>
</linearGradient>
<linearGradient id="paint4_linear_57_1882" x1="267.451" y1="160.321" x2="340.418" y2="160.41" gradientUnits="userSpaceOnUse">
<stop stop-color="#2F66F4"/>
<stop offset="1" stop-color="#0D9AE9"/>
</linearGradient>
<linearGradient id="paint5_linear_57_1882" x1="172.466" y1="187.626" x2="191.344" y2="187.669" gradientUnits="userSpaceOnUse">
<stop stop-color="#2F66F4"/>
<stop offset="1" stop-color="#0D9AE9"/>
</linearGradient>
</defs>
</svg>
