<svg width="375" height="334" viewBox="0 0 375 334" fill="none" xmlns="http://www.w3.org/2000/svg">
<path d="M98.5873 67.9176C98.5873 67.9176 94.9831 30.947 62.0305 34.2656C29.1292 37.5779 33.7769 112.249 83.5965 104.105C133.506 95.8469 98.5873 67.9176 98.5873 67.9176Z" fill="#141B30"/>
<path d="M340.62 145.709C340.62 145.709 340.69 137.386 340.228 120.503L339.883 96.5384C339.883 96.5384 354.057 41.8482 332.555 92.294C332.555 92.294 330.327 93.1911 329.91 90.6441C329.442 88.1034 328.996 52.304 325.861 52.5851C322.725 52.8661 322.133 86.9744 320.417 87.8087C318.7 88.643 314.187 49.3418 310.262 50.811C306.286 52.2864 312.45 88.9428 309.647 89.3908C306.85 89.8901 294.773 60.0914 291.164 60.7425C287.606 61.3872 300.268 95.5308 300.105 102.67C299.917 109.604 296.864 110.55 296.864 110.55C296.864 110.55 293.02 113.101 288.45 105.504C283.892 98.0092 280.705 95.7505 276.577 99.3751C276.577 99.3751 279.868 107.129 281.818 110.319C282.921 112.106 295.508 133.788 308.778 135.64L315.366 153.746L340.62 145.709Z" fill="#FCCDAA"/>
<path d="M190.6 172.759L187.422 231.087L142.755 234.649L150.907 131.334L190.6 172.759Z" fill="#FCCDAA"/>
<path d="M132.991 43.3788C132.991 43.3788 178.294 -11.7041 224.578 52.9185C254.617 94.8534 238.859 168.809 238.859 168.809L201.28 105.247C201.28 105.247 165.602 93.9875 132.991 43.3788Z" fill="#141B30"/>
<path d="M125.796 68.2696C125.796 68.2696 197.206 15.9048 223.626 95.2295C250.288 175.252 193.871 239.702 125.175 174.09C62.9004 114.652 80.8414 74.9845 125.796 68.2696Z" fill="#FCCDAA"/>
<path d="M176.099 51.3342C176.099 51.3342 186.581 108.349 128.026 138.454C128.026 138.454 105.643 123.328 107.127 140.917C108.611 158.506 131.129 161.612 131.129 161.612L136.726 185.192C136.726 185.192 80.8678 158.119 74.2645 106.032C68.6794 62.2373 136.777 -14.1432 176.099 51.3342Z" fill="#141B30"/>
<path d="M182.507 216.93L231.548 225.302L233.812 225.96C233.812 225.96 232.577 287.427 166.783 281.424C100.988 275.421 86.2725 226.668 86.2725 226.668L148.256 217.29L182.507 216.93Z" fill="#FCCDAA"/>
<path d="M198.691 109.615C199.274 112.246 200.106 114.794 201.131 117.214C202.104 119.641 203.231 122.049 204.55 124.329C205.774 126.673 207.24 128.883 208.809 131.081C209.619 132.177 210.474 133.215 211.438 134.292C211.923 134.856 212.446 135.311 213.085 135.856C213.813 136.286 214.118 137.08 216.491 137.36L214.092 134.329C214.099 134.381 214.034 134.7 213.957 134.918L213.731 135.621C213.532 136.113 213.326 136.554 213.069 137.001C212.504 137.902 211.882 138.758 211.042 139.536C209.414 141.087 207.217 142.24 204.733 143.169C207.297 143.737 210.17 143.437 212.821 142.176C214.147 141.545 215.333 140.62 216.339 139.51C216.846 138.98 217.289 138.354 217.731 137.728C217.95 137.389 218.168 137.051 218.335 136.718C218.496 136.335 218.669 136.054 218.811 135.517L216.412 132.486C217.519 132.61 216.719 132.448 216.515 132.057L215.475 130.782C214.742 129.885 213.995 128.885 213.294 127.828C211.801 125.829 210.392 123.664 208.842 121.62C205.736 117.48 202.579 113.347 198.691 109.615Z" fill="#CF976E"/>
<path d="M184.557 98.2554C184.557 98.2554 182.681 96.0955 178.872 94.2768C176.994 93.3643 174.654 92.5084 172.051 92.0485C169.443 91.5374 166.526 91.4799 163.62 91.9405C162.193 92.1677 160.785 92.5484 159.389 93.0315C157.981 93.4123 156.777 94.1838 155.611 94.8465C154.382 95.4132 153.407 96.3642 152.465 97.1554C151.466 97.9017 150.747 98.8214 150.067 99.6324C148.65 101.209 147.86 102.813 147.371 103.912C146.831 105.018 146.599 105.67 146.599 105.67C146.599 105.67 147.227 105.281 148.188 104.644C148.669 104.325 149.239 103.891 149.912 103.445C150.527 102.953 151.366 102.591 152.186 102.074C153.012 101.609 153.826 101.041 154.812 100.609C155.798 100.176 156.714 99.5956 157.815 99.2526C158.858 98.8646 159.953 98.4703 161.061 98.1785C162.162 97.8354 163.327 97.5885 164.504 97.4439C166.834 96.9501 169.226 96.9681 171.561 96.9412C173.851 96.9718 176.058 97.1686 178.002 97.3455C181.801 97.8144 184.557 98.2554 184.557 98.2554Z" fill="#403939"/>
<path d="M224.709 93.4336C224.709 93.4336 223.862 91.6149 221.743 89.5888C220.683 88.5757 219.304 87.498 217.642 86.6627C216.812 86.2451 215.923 85.7826 214.907 85.5437C213.929 85.1961 212.835 85.1746 211.773 84.9931C210.692 85.0739 209.541 85.0074 208.497 85.3954C207.377 85.5848 206.455 86.1138 205.59 86.6876C204.661 87.1654 204.033 87.97 203.43 88.5636C202.725 89.1698 202.403 89.9369 202.018 90.6077C201.19 91.9046 201.034 93.1708 200.821 93.9764C200.666 94.8269 200.62 95.3002 200.62 95.3002C200.62 95.3002 200.998 94.994 201.6 94.4004C202.209 93.8579 202.928 92.9383 203.979 92.1858C204.504 91.8095 204.959 91.2859 205.6 90.9994C206.183 90.668 206.753 90.2342 207.457 90.0438C208.091 89.7061 208.75 89.5733 209.467 89.4853C210.113 89.25 210.913 89.4117 211.63 89.3237C212.371 89.4405 213.145 89.3974 213.9 89.6165C214.648 89.7845 215.441 89.895 216.202 90.1653C217.71 90.6036 219.129 91.1569 220.382 91.6266C222.964 92.7645 224.709 93.4336 224.709 93.4336Z" fill="#403939"/>
<path d="M223.989 224.557C223.989 224.557 215.036 279.022 162.694 276.355C110.3 273.695 100.634 226.712 100.634 226.712C100.634 226.712 73.5958 228.681 56.7931 250.958C40.4331 272.608 36.502 276.355 31.502 295.01L349.331 295.008C379.33 271.506 357.532 135.256 349.331 132.366C341.181 129.469 304.414 148.273 304.414 148.273C304.414 148.273 322.303 241.065 312.065 242.322C301.826 243.579 259.223 225.427 223.989 224.557Z" fill="#C8DFF8"/>
<path d="M241.276 225.408L224.949 217.28L205.5 295L226 295L241.276 225.408Z" fill="url(#paint0_linear_54_1835)"/>
<path d="M102.589 220.352L84.4054 221.65L107 295L127.5 295L102.589 220.352Z" fill="url(#paint1_linear_54_1835)"/>
<path d="M220.285 116.68C220.285 116.68 220.315 114.806 219.675 112.131C219.351 110.767 218.798 109.224 217.874 107.623C217.364 106.854 216.841 105.983 215.973 105.258C215.156 104.527 213.769 103.814 212.137 104.067C210.729 104.447 209.646 105.36 209.069 106.158C208.235 106.988 208.035 107.896 207.617 108.727C206.833 110.382 206.612 111.968 206.315 113.355C206.027 116.093 206.049 117.961 206.049 117.961C206.049 117.961 207.05 116.383 208.213 114.006C208.907 112.881 209.511 111.456 210.339 110.159C210.731 109.54 211.155 108.76 211.629 108.39C212.072 107.764 212.52 107.605 212.769 107.523C212.974 107.497 213.339 107.504 213.805 107.915C214.265 108.274 214.801 108.832 215.286 109.396C216.211 110.581 217.04 111.831 217.748 112.939C219.272 115.194 220.285 116.68 220.285 116.68Z" fill="#3F3838"/>
<path d="M177.899 126.457C177.899 126.457 177.928 124.582 177.288 121.907C176.965 120.544 176.412 119.001 175.487 117.4C174.977 116.631 174.455 115.76 173.586 115.035C172.769 114.304 171.382 113.591 169.751 113.843C168.342 114.224 167.259 115.136 166.682 115.935C165.848 116.764 165.648 117.672 165.23 118.503C164.446 120.158 164.225 121.744 163.928 123.132C163.641 125.869 163.662 127.737 163.662 127.737C163.662 127.737 164.664 126.159 165.827 123.782C166.52 122.658 167.124 121.232 167.953 119.936C168.344 119.316 168.768 118.536 169.242 118.166C169.685 117.54 170.133 117.381 170.383 117.299C170.588 117.274 170.952 117.281 171.418 117.691C171.878 118.051 172.414 118.608 172.899 119.172C173.824 120.358 174.653 121.607 175.367 122.766C176.878 124.919 177.899 126.457 177.899 126.457Z" fill="#3F3838"/>
<path d="M211.298 153.899L172.107 158.035C172.107 158.035 183.114 173.624 197.086 170.609C215.461 166.638 211.298 153.899 211.298 153.899Z" fill="#D37F7A"/>
<path d="M203.621 168.404C197.753 163.356 189.757 160.441 179.928 161.648C178.546 161.818 177.349 162.224 176.088 162.535C173.605 160.086 172.157 158.029 172.157 158.029L211.349 153.893C211.298 153.899 214.316 163.245 203.621 168.404Z" fill="#9B5C57"/>
<defs>
<linearGradient id="paint0_linear_54_1835" x1="234.057" y1="255.086" x2="208.695" y2="258.209" gradientUnits="userSpaceOnUse">
<stop stop-color="#2F66F4"/>
<stop offset="1" stop-color="#0D9AE9"/>
</linearGradient>
<linearGradient id="paint1_linear_54_1835" x1="114.513" y1="257.274" x2="95.0062" y2="259.674" gradientUnits="userSpaceOnUse">
<stop stop-color="#2F66F4"/>
<stop offset="1" stop-color="#0D9AE9"/>
</linearGradient>
</defs>
</svg>
