<svg width="624" height="561" viewBox="0 0 624 561" fill="none" xmlns="http://www.w3.org/2000/svg">
<g clip-path="url(#clip0_18_1771)">
<path d="M390.017 112.029C359.008 112.029 333.871 86.8748 333.871 55.8459C333.871 24.817 359.008 -0.336914 390.017 -0.336914C421.025 -0.336914 446.162 24.817 446.162 55.8459C446.162 86.8748 421.025 112.029 390.017 112.029Z" fill="#FCDEB7"/>
<path d="M390.016 95.3289C368.225 95.3289 350.56 77.652 350.56 55.8463C350.56 34.0407 368.225 16.3638 390.016 16.3638C411.807 16.3638 429.473 34.0407 429.473 55.8463C429.473 77.652 411.807 95.3289 390.016 95.3289Z" fill="url(#paint0_linear_18_1771)"/>
<path d="M393.017 32.3892V58.846L377.113 72.1505" stroke="white" stroke-width="4" stroke-linecap="round" stroke-linejoin="round"/>
<mask id="mask0_18_1771" style="mask-type:luminance" maskUnits="userSpaceOnUse" x="-47" y="-10" width="741" height="571">
<path d="M418.909 18.243C589.448 47.7155 710.147 204.049 691.381 376.196C686.493 419.936 673.83 458.456 648.328 483.291C546.294 582.124 121.568 602.068 16.3683 450.017C-88.8318 297.966 -58.7457 30.0523 88.8231 -2.74006C161.506 -18.9335 298.615 -2.53732 418.909 18.243Z" fill="white"/>
</mask>
<g mask="url(#mask0_18_1771)">
<path d="M50.9665 506.956C50.9665 506.956 49.7509 544.563 76.8993 553.407C104.048 562.252 196.914 577.026 243.361 548.998C289.807 520.97 261.341 484.072 221.758 487.037C182.175 490.002 50.9665 506.956 50.9665 506.956Z" fill="#FCDEB7"/>
<path d="M109.53 207.269C109.53 207.269 117.76 158.638 82.3812 147.538C47.0022 136.439 -3.85042 148.248 0.556127 201.365C4.96268 254.481 69.8453 507.469 69.8453 507.469L143.566 502.4C143.566 502.4 85.8254 317.912 109.53 207.269Z" fill="#FCDEB7"/>
<path d="M288.767 402.776H607.738C616.954 402.776 624.426 410.247 624.426 419.463C624.426 428.68 616.954 436.151 607.738 436.151H288.767C279.55 436.151 272.079 428.68 272.079 419.463C272.079 410.247 279.55 402.776 288.767 402.776Z" fill="#FCDEB7"/>
<path d="M508.231 254.436C511.666 251.008 517.471 252.085 519.447 256.518L579.623 391.519C581.981 396.81 578.109 402.776 572.316 402.776H485.735C481.727 402.776 478.478 399.527 478.478 395.519V395.519C478.478 391.785 481.311 388.661 485.027 388.297L543.135 382.598C548.418 382.079 551.74 376.654 549.8 371.712L506.677 261.868C505.67 259.302 506.28 256.384 508.231 254.436V254.436Z" fill="url(#paint1_linear_18_1771)"/>
<path d="M105.593 455.459C105.593 455.459 94.3999 499.324 123.085 514.885C151.77 530.447 224.687 530.447 224.687 530.447L214.26 613.264H319.789L322.441 455.452C322.475 453.43 320.995 451.701 318.991 451.423L206.919 435.886L105.593 455.459Z" fill="#141B30"/>
<path d="M476.073 343.846C474.509 348.781 478.213 353.807 483.39 353.774V353.774C486.696 353.754 489.612 351.604 490.611 348.452L542.013 186.18C542.871 183.47 542.149 180.508 540.14 178.497V178.497C536.102 174.457 529.219 176.135 527.493 181.58L476.073 343.846Z" fill="#141B30"/>
<path d="M309.714 436.15H590.543V604.319H309.714V436.15Z" fill="#FCDEB7"/>
</g>
<path opacity="0.08" d="M590.539 436.151V488.634L309.685 454.98V436.151H590.539Z" fill="black"/>
<path d="M282.886 341.897L285.58 372.228C285.58 372.228 298.168 400.741 297.239 409.837C296.356 418.933 304.439 468.68 305.322 475.361C306.204 482.042 306.204 489.915 306.204 489.915L317.864 513.566L316.052 525.109L309.781 528.747L307.087 534.205L289.11 539.067C289.11 539.067 281.027 537.843 299.004 528.151C299.004 528.151 299.19 510.241 295.427 510.555C288.227 511.151 293.244 523.854 289.157 527.555C286.462 529.97 281.074 511.778 281.074 511.778C281.074 511.778 279.262 496.596 288.274 490.543C288.274 490.543 272.991 459.584 260.403 426.21C247.815 392.836 246.003 331.546 246.003 331.546L282.886 341.897Z" fill="#FCCDAA"/>
<path d="M174.414 214.186L164.294 207.498L156.513 217.171C156.513 217.171 110.954 207.896 94.1015 222.386C70.7174 242.49 114.381 379.514 114.381 379.514L102.595 462.515C102.595 462.515 94.1992 447.438 175.318 455.4L197.266 460.575L218.173 468.199C218.173 468.199 244.286 476.423 271.339 451.621C271.339 451.621 249.364 380.27 252.469 345.278C252.469 345.278 282.102 345.278 282.868 343.048C283.634 340.819 283.272 276.407 267.669 259.289C252.066 242.171 216.989 233.612 216.989 233.612L174.414 214.186Z" fill="url(#paint2_linear_18_1771)"/>
<path d="M216.047 196.851L212.248 256.526L170.332 237.692L173.839 176.264L216.047 196.851Z" fill="#FAB887"/>
<path d="M203.103 236.231C191.622 229.633 182.103 220.947 171.75 213.096L173.879 176.264L216.087 196.852L213.164 242.286C209.908 240.24 206.568 238.193 203.103 236.231Z" fill="#FAB887"/>
<path d="M197.062 91.1019C165.75 97.2823 166.46 116.659 166.46 116.659C166.46 116.659 167.337 131.609 167.796 149.398C164.915 145.807 160.031 144.262 155.021 146.141C144.333 150.15 151.973 180.426 168.172 177.92C168.798 186.355 169.675 192.953 170.844 195.208C175.311 203.853 200.193 225.484 217.895 227.656C235.596 229.827 250.083 204.354 250.208 185.52C250.334 166.687 254.091 111.898 254.091 111.898C254.091 111.898 248.914 80.829 197.062 91.1019Z" fill="#FCCDAA"/>
<path d="M221.767 135.215C221.767 135.215 221.683 132.751 219.846 129.828C218.928 128.366 217.675 126.779 215.797 125.485C214.92 124.775 213.793 124.274 212.624 123.772C211.371 123.397 210.16 122.937 208.741 122.979C207.363 122.896 205.986 123.021 204.691 123.438C203.355 123.689 202.27 124.482 201.184 125.025C200.182 125.693 199.431 126.57 198.68 127.28C197.97 128.074 197.552 128.951 197.135 129.702C196.216 131.164 196.049 132.709 195.841 133.669C195.674 134.672 195.674 135.256 195.674 135.256C195.674 135.256 196.258 135.048 197.177 134.63C198.095 134.254 199.181 133.544 200.517 133.043C201.185 132.793 201.811 132.417 202.52 132.208C203.147 131.999 203.856 131.79 204.524 131.54C205.192 131.498 205.819 131.164 206.445 131.247C207.071 131.206 207.656 131.122 208.324 131.206C208.95 131.122 209.618 131.414 210.286 131.414C210.954 131.623 211.705 131.707 212.415 131.957C213.876 132.333 215.379 132.96 216.757 133.419C219.471 134.463 221.767 135.215 221.767 135.215Z" fill="#141B30"/>
<path d="M250.947 135.426C250.947 135.426 251.114 133.546 250.028 131.333C249.026 129.162 246.521 126.405 242.513 125.821C241.511 125.695 240.551 125.654 239.549 125.904C238.547 125.988 237.712 126.447 236.877 126.823C236.042 127.199 235.5 127.825 234.915 128.326C234.331 128.827 234.038 129.496 233.663 130.039C232.953 131.083 232.828 132.21 232.702 132.92C232.619 133.672 232.619 134.089 232.619 134.089C232.619 134.089 233.078 134.006 233.788 133.88C234.498 133.755 235.374 133.421 236.335 133.296C236.836 133.254 237.295 133.045 237.754 133.045C238.213 133.045 238.673 132.878 239.09 132.92C239.925 132.92 240.635 132.92 241.386 133.087C242.889 133.212 245.06 133.922 247.106 134.423C249.151 135.05 250.947 135.426 250.947 135.426Z" fill="#141B30"/>
<path d="M200.974 198.355L236.837 198.94C236.837 198.94 228.904 217.356 200.974 198.355Z" fill="white"/>
<path d="M198.428 148.285C198.428 151.877 200.098 154.8 202.144 154.8C204.19 154.8 205.859 151.877 205.859 148.285C205.859 144.694 204.19 141.771 202.144 141.771C200.098 141.771 198.428 144.694 198.428 148.285Z" fill="#20242E"/>
<path d="M232.454 149.872C232.454 153.464 234.124 156.387 236.169 156.387C238.215 156.387 239.885 153.464 239.885 149.872C239.885 146.281 238.215 143.358 236.169 143.358C234.124 143.358 232.454 146.281 232.454 149.872Z" fill="#20242E"/>
<path d="M195.338 106.902C189.034 115.838 190.913 130.496 187.156 134.338C183.398 138.18 175.925 139.391 177.804 160.563C178.054 163.402 178.305 166.409 178.597 169.541C177.052 169.165 175.466 168.873 173.713 168.789C171.959 168.706 170.331 168.831 168.744 168.998C168.577 161.064 167.784 156.053 167.784 156.053C167.784 156.053 159.601 112.372 160.937 106.275C162.273 100.22 174.547 78.7141 193.585 74.4129L188.533 80.5098C190.412 78.3801 198.929 70.3205 218.091 73.7865L213.332 74.7887C213.332 74.7887 237.004 76.9602 253.829 70.6963L247.775 77.5031C247.775 77.5031 264.182 76.6262 270.57 71.2392C270.57 71.2392 279.63 97.673 257.21 109.407C234.791 121.142 201.643 97.9235 195.338 106.902Z" fill="#141B30"/>
<path d="M222.643 187.289C222.643 187.289 199.013 181.234 190.997 197.019C190.997 197.019 214.585 201.445 222.726 195.181C222.726 195.181 233.372 200.902 243.267 197.854C243.267 197.812 237.923 184.365 222.643 187.289Z" fill="#141B30"/>
<path d="M229.781 148.829C229.906 154.801 230.574 160.689 231.534 166.535C232.494 172.381 233.663 178.144 235.125 183.865L236.001 182.487C231.409 183.907 226.858 185.494 222.349 187.248C227.151 186.621 231.868 185.786 236.586 184.826L237.588 184.617L237.463 183.448C236.753 177.56 235.751 171.755 234.54 165.992C233.329 160.188 231.827 154.467 229.781 148.829Z" fill="#7F6654"/>
<path d="M262.344 158.809L236.918 157.181C236.918 157.181 234.789 173.926 244.183 176.557C264.347 182.236 262.344 158.809 262.344 158.809Z" fill="#B9D1E7" stroke="#20242E" stroke-width="3.77" stroke-miterlimit="10"/>
<path d="M226.397 157.18L200.972 155.551C200.972 155.551 198.843 172.297 208.236 174.928C228.401 180.607 226.397 157.18 226.397 157.18Z" fill="#B9D1E7" stroke="#20242E" stroke-width="3.77" stroke-miterlimit="10"/>
<path d="M236.626 162.86C236.626 162.86 232.452 156.137 226.148 162.609" stroke="#20242E" stroke-width="3.77" stroke-miterlimit="10"/>
<path d="M151.001 266.132L128.373 251.975C128.373 251.975 91.6339 269.765 98.105 290.77C102.906 306.43 149.79 320.252 153.84 308.935C157.89 297.618 151.001 266.132 151.001 266.132Z" fill="#FAB989"/>
<path d="M185.944 150.5H178.429V150.709C178.22 150.625 177.97 150.584 177.719 150.5C177.26 148.12 176.633 145.823 175.548 143.652C180.558 143.735 190.828 145.197 190.828 145.197L198.343 153.841C191.204 159.896 185.944 150.5 185.944 150.5Z" fill="#A07E67"/>
<path d="M183.607 153.799H177.928V154.008C177.761 153.924 177.595 153.883 177.428 153.841C177.094 151.753 176.593 149.749 175.799 147.828C179.557 147.911 187.28 149.164 187.28 149.164L192.958 156.764C187.573 162.068 183.607 153.799 183.607 153.799Z" fill="#A07E67"/>
<path d="M200.264 157.848L169.578 149.371" stroke="#20242E" stroke-width="3.77" stroke-miterlimit="10"/>
<path d="M223.977 236.314L209.406 269.012L201.766 250.846L202.518 249.886L214.667 229.424L223.977 236.314Z" fill="url(#paint3_linear_18_1771)"/>
<path d="M164.194 205.623L201.059 250.89L190.454 270.642L150.626 216.898L164.194 205.623Z" fill="url(#paint4_linear_18_1771)"/>
<path d="M161.94 206.751L173.838 182.154C175.466 188.711 186.613 176.475 192.625 180.108C192.083 190.13 196.007 295.197 155.886 310.565C131.672 319.835 116.726 298.622 125.201 274.61C134.469 248.343 161.94 206.751 161.94 206.751Z" fill="#FCCDAA"/>
<path d="M203.103 150.124L195.588 141.479C195.588 141.479 182.395 139.6 178.638 139.976C174.881 140.352 172.25 147.117 172.25 147.117L169.62 147.868L166.99 155.009L163.984 157.264C163.984 157.264 168.117 185.16 178.304 187.791C188.491 190.421 198.636 185.16 191.121 170.836C183.606 156.513 183.23 154.633 183.23 154.633V146.741H190.745C190.662 146.741 195.964 156.179 203.103 150.124Z" fill="#FCCDAA"/>
</g>
<defs>
<linearGradient id="paint0_linear_18_1771" x1="374.179" y1="132.534" x2="423.912" y2="115.069" gradientUnits="userSpaceOnUse">
<stop stop-color="#F98D3D"/>
<stop offset="1" stop-color="#F9AE3D"/>
</linearGradient>
<linearGradient id="paint1_linear_18_1771" x1="510.253" y1="476.015" x2="581.317" y2="458.961" gradientUnits="userSpaceOnUse">
<stop stop-color="#F98D3D"/>
<stop offset="1" stop-color="#F9AE3D"/>
</linearGradient>
<linearGradient id="paint2_linear_18_1771" x1="80.4987" y1="455.49" x2="161.191" y2="484.815" gradientUnits="userSpaceOnUse">
<stop stop-color="#F98D3D"/>
<stop offset="1" stop-color="#F9AE3D"/>
</linearGradient>
<linearGradient id="paint3_linear_18_1771" x1="208.414" y1="287.664" x2="223.549" y2="284.68" gradientUnits="userSpaceOnUse">
<stop stop-color="#F98D3D"/>
<stop offset="1" stop-color="#F9AE3D"/>
</linearGradient>
<linearGradient id="paint4_linear_18_1771" x1="165.721" y1="301.276" x2="198.955" y2="292.218" gradientUnits="userSpaceOnUse">
<stop stop-color="#F98D3D"/>
<stop offset="1" stop-color="#F9AE3D"/>
</linearGradient>
<clipPath id="clip0_18_1771">
<rect width="624" height="561" fill="white" transform="matrix(-1 0 0 1 624 0)"/>
</clipPath>
</defs>
</svg>
