<svg width="595" height="615" viewBox="0 0 595 615" fill="none" xmlns="http://www.w3.org/2000/svg">
<g clip-path="url(#clip0_18_1819)">
<path d="M570.774 14.1406H410.291C397.036 14.1406 386.291 24.8858 386.291 38.1406V217.274C386.291 230.529 397.036 241.274 410.291 241.274H570.774C584.029 241.274 594.774 230.529 594.774 217.274V38.1406C594.774 24.8858 584.029 14.1406 570.774 14.1406Z" fill="#FCDEB7"/>
<path d="M446.312 42.4512H426.051C421.633 42.4512 418.051 46.0329 418.051 50.4512V70.732C418.051 75.1503 421.632 78.732 426.051 78.732H446.312C450.73 78.732 454.312 75.1503 454.312 70.732V50.4512C454.312 46.0329 450.73 42.4512 446.312 42.4512Z" fill="url(#paint0_linear_18_1819)"/>
<path d="M429.604 59.9491L434.764 67.7491L444.179 53.7421" stroke="white" stroke-width="4" stroke-linecap="round" stroke-linejoin="round"/>
<path d="M550.809 54.3438H481.231C477.249 54.3438 474.021 57.5716 474.021 61.5532C474.021 65.5349 477.249 68.7627 481.231 68.7627H550.809C554.791 68.7627 558.018 65.5349 558.018 61.5532C558.018 57.5716 554.791 54.3438 550.809 54.3438Z" fill="white"/>
<path d="M446.312 108.422H426.051C421.633 108.422 418.051 112.004 418.051 116.422V136.703C418.051 141.121 421.632 144.703 426.051 144.703H446.312C450.73 144.703 454.312 141.121 454.312 136.703V116.422C454.312 112.004 450.73 108.422 446.312 108.422Z" fill="url(#paint1_linear_18_1819)"/>
<path d="M429.604 125.92L434.764 133.72L444.179 119.713" stroke="white" stroke-width="4" stroke-linecap="round" stroke-linejoin="round"/>
<path d="M550.809 120.314H481.231C477.249 120.314 474.021 123.542 474.021 127.524C474.021 131.506 477.249 134.733 481.231 134.733H550.809C554.791 134.733 558.018 131.506 558.018 127.524C558.018 123.542 554.791 120.314 550.809 120.314Z" fill="white"/>
<path d="M446.312 170.053H426.051C421.633 170.053 418.051 173.634 418.051 178.053V198.334C418.051 202.752 421.632 206.334 426.051 206.334H446.312C450.73 206.334 454.312 202.752 454.312 198.334V178.053C454.312 173.634 450.73 170.053 446.312 170.053Z" fill="url(#paint2_linear_18_1819)"/>
<path d="M429.604 187.522L434.764 195.35L444.179 181.315" stroke="white" stroke-width="4" stroke-linecap="round" stroke-linejoin="round"/>
<path d="M550.809 181.918H481.231C477.249 181.918 474.021 185.146 474.021 189.127C474.021 193.109 477.249 196.337 481.231 196.337H550.809C554.791 196.337 558.018 193.109 558.018 189.127C558.018 185.146 554.791 181.918 550.809 181.918Z" fill="white"/>
<path d="M570.444 367.387H409.961C396.706 367.387 385.961 378.132 385.961 391.387V485.187C385.961 498.442 396.706 509.187 409.961 509.187H570.444C583.699 509.187 594.444 498.442 594.444 485.187V391.387C594.444 378.132 583.699 367.387 570.444 367.387Z" fill="#FCDEB7"/>
<path opacity="0.08" d="M385.961 126.549C385.961 126.549 460.872 178.732 462.492 241.296H418.05L385.961 126.549Z" fill="black"/>
<path d="M443.166 579.709C443.251 559.565 350.483 542.847 235.964 542.367C121.444 541.887 28.5398 557.827 28.4554 577.971C28.3711 598.114 121.139 614.832 235.658 615.312C350.177 615.792 443.082 599.852 443.166 579.709Z" fill="url(#paint3_linear_18_1819)"/>
<path opacity="0.58" d="M154.119 549.587C154.119 549.587 177.863 543.188 183.106 521.134C183.106 521.134 146.405 513.554 145.197 551.345L154.119 549.587Z" fill="#F98D3D"/>
<path opacity="0.73" d="M151.236 547.225C151.236 547.225 167.898 521.079 153.432 496.525C153.432 496.525 125.406 514.158 137.676 547.225H151.236Z" fill="#F98D3D"/>
<path d="M146.955 547.226C146.955 547.226 138.308 519.514 111.874 514.269C111.874 514.269 106.851 532.203 128.866 547.226H146.955Z" fill="#F98D3D"/>
<path d="M164.137 546.677L159.224 579.552H128.946L124.609 546.677H164.137Z" fill="#24285B"/>
<path d="M118.006 110.195C148.433 110.195 173.098 85.5167 173.098 55.0738C173.098 24.631 148.433 -0.0478516 118.006 -0.0478516C87.5797 -0.0478516 62.9141 24.631 62.9141 55.0738C62.9141 85.5167 87.5797 110.195 118.006 110.195Z" fill="#FCDEB7"/>
<path d="M118.002 94.0464C139.515 94.0464 156.954 76.5979 156.954 55.074C156.954 33.5501 139.515 16.1016 118.002 16.1016C96.49 16.1016 79.0508 33.5501 79.0508 55.074C79.0508 76.5979 96.49 94.0464 118.002 94.0464Z" fill="url(#paint4_linear_18_1819)"/>
<path d="M111.93 37.7568V63.9307L133.396 60.8546" stroke="white" stroke-width="4" stroke-linecap="round" stroke-linejoin="round"/>
<path d="M118.006 435.518C148.433 435.518 173.098 410.839 173.098 380.396C173.098 349.953 148.433 325.274 118.006 325.274C87.5797 325.274 62.9141 349.953 62.9141 380.396C62.9141 410.839 87.5797 435.518 118.006 435.518Z" fill="#FCDEB7"/>
<path d="M118.006 419.368C139.519 419.368 156.958 401.919 156.958 380.395C156.958 358.871 139.519 341.423 118.006 341.423C96.4939 341.423 79.0547 358.871 79.0547 380.395C79.0547 401.919 96.4939 419.368 118.006 419.368Z" fill="url(#paint5_linear_18_1819)"/>
<path d="M111.93 363.079V389.253L133.396 386.149" stroke="white" stroke-width="4" stroke-linecap="round" stroke-linejoin="round"/>
<path d="M413.711 407.953C418.517 407.953 422.413 404.055 422.413 399.246C422.413 394.438 418.517 390.54 413.711 390.54C408.906 390.54 405.01 394.438 405.01 399.246C405.01 404.055 408.906 407.953 413.711 407.953Z" fill="url(#paint6_linear_18_1819)"/>
<path d="M413.711 445.414C418.517 445.414 422.413 441.516 422.413 436.707C422.413 431.899 418.517 428.001 413.711 428.001C408.906 428.001 405.01 431.899 405.01 436.707C405.01 441.516 408.906 445.414 413.711 445.414Z" fill="url(#paint7_linear_18_1819)"/>
<path d="M413.711 482.876C418.517 482.876 422.413 478.978 422.413 474.169C422.413 469.361 418.517 465.463 413.711 465.463C408.906 465.463 405.01 469.361 405.01 474.169C405.01 478.978 408.906 482.876 413.711 482.876Z" fill="url(#paint8_linear_18_1819)"/>
<path d="M445.885 399.246H548.713" stroke="white" stroke-width="8" stroke-linecap="round" stroke-linejoin="bevel"/>
<path d="M445.885 436.708H548.713" stroke="white" stroke-width="8" stroke-linecap="round" stroke-linejoin="bevel"/>
<path d="M445.885 474.169H548.713" stroke="white" stroke-width="8" stroke-linecap="round" stroke-linejoin="bevel"/>
<path d="M98.2471 185.218H0.113281V262.915H98.2471V185.218Z" fill="#FCDEB7"/>
<path d="M98.2471 170.607H0.113281V196.287H98.2471V170.607Z" fill="url(#paint9_linear_18_1819)"/>
<path d="M22.8723 157.259H14.5V178.544H22.8723V157.259Z" fill="#FCDEB7"/>
<path d="M83.5871 157.039H75.2148V178.324H83.5871V157.039Z" fill="#FCDEB7"/>
<path d="M389.948 65.8365C389.948 65.8365 391.828 46.527 409.032 48.2614C426.209 49.9925 423.785 88.9929 397.775 84.7379C371.719 80.4228 389.948 65.8365 389.948 65.8365Z" fill="#141B30"/>
<path d="M263.598 106.468C263.598 106.468 263.561 102.121 263.802 93.3031L263.981 80.7864C263.981 80.7864 256.579 52.2209 267.807 78.5697C267.807 78.5697 268.97 79.0383 269.188 77.7081C269.432 76.3811 269.664 57.6829 271.301 57.8298C272.937 57.9767 273.248 75.7916 274.144 76.2274C275.04 76.6632 277.395 56.1362 279.444 56.9037C281.52 57.6745 278.303 76.82 279.767 77.0541C281.227 77.315 287.531 61.7514 289.415 62.0916C291.273 62.4285 284.663 80.2614 284.748 83.99C284.847 87.6117 286.441 88.1062 286.441 88.1062C286.441 88.1062 288.448 89.4385 290.834 85.4707C293.213 81.5564 294.877 80.3768 297.032 82.27C297.032 82.27 295.314 86.3199 294.296 87.986C293.72 88.9194 287.15 100.244 280.222 101.21L276.783 110.667L263.598 106.468Z" fill="#FCCDAA"/>
<path d="M263.752 94.1943C263.537 102.364 263.576 106.467 263.576 106.467L276.73 110.689L279.313 103.57C274.023 100.695 268.843 97.5882 263.752 94.1943Z" fill="#FCCDAA"/>
<path d="M325.483 449.023L322.59 561.518L310.326 560.418L299.111 450.586L325.483 449.023Z" fill="#FCCDAA"/>
<path d="M323.929 561.417L322.14 584.4L270.154 579.178L310.208 559.161L323.929 561.417Z" fill="#141B30"/>
<path d="M270.315 579.389L322.135 584.399" stroke="url(#paint10_linear_18_1819)" stroke-width="1.0692" stroke-miterlimit="10"/>
<path d="M341.914 120.597L343.575 151.063L366.895 152.925L362.636 98.962L341.914 120.597Z" fill="#FCCDAA"/>
<path d="M371.99 53.0223C371.99 53.0223 348.336 24.2507 324.175 58.0019C308.494 79.9037 316.723 118.531 316.723 118.531L336.34 85.3343C336.34 85.3343 354.966 79.4544 371.99 53.0223Z" fill="#141B30"/>
<path d="M375.743 66.0234C375.743 66.0234 338.46 38.6711 324.67 80.1013C310.753 121.896 340.208 155.56 376.07 121.293C408.58 90.2512 399.212 69.5321 375.743 66.0234Z" fill="#FCCDAA"/>
<path d="M349.481 57.1743C349.481 57.1743 344.01 86.9531 374.581 102.679C374.581 102.679 386.266 94.7791 385.492 103.966C384.718 113.153 372.962 114.775 372.962 114.775L370.041 127.09C370.041 127.09 399.202 112.952 402.648 85.7464C405.562 62.8726 370.007 22.9764 349.481 57.1743Z" fill="#141B30"/>
<path d="M346.138 143.671L320.536 148.042L319.354 148.385C319.354 148.385 320.001 180.487 354.348 177.354C388.696 174.221 396.377 148.76 396.377 148.76L364.018 143.86L346.138 143.671Z" fill="#FCCDAA"/>
<path d="M337.69 87.618C337.386 88.9919 336.951 90.3227 336.417 91.5868C335.908 92.8542 335.32 94.1117 334.631 95.3026C333.993 96.5268 333.227 97.6812 332.408 98.8289C331.985 99.4011 331.539 99.9433 331.036 100.506C330.783 100.8 330.509 101.038 330.176 101.323C329.796 101.547 329.636 101.962 328.398 102.108L329.65 100.525C329.647 100.552 329.68 100.719 329.721 100.833L329.838 101.2C329.943 101.457 330.05 101.687 330.184 101.921C330.479 102.391 330.804 102.838 331.243 103.245C332.093 104.055 333.24 104.658 334.537 105.143C333.198 105.44 331.698 105.282 330.314 104.624C329.622 104.294 329.003 103.811 328.477 103.231C328.212 102.954 327.981 102.627 327.75 102.3C327.636 102.123 327.522 101.946 327.435 101.773C327.351 101.573 327.26 101.426 327.186 101.145L328.438 99.5622C327.861 99.6268 328.278 99.5425 328.385 99.3384L328.927 98.6724C329.311 98.2038 329.7 97.6818 330.066 97.1297C330.845 96.0856 331.581 94.9548 332.39 93.8872C334.012 91.7254 335.66 89.5669 337.69 87.618Z" fill="#CF976E"/>
<path d="M345.067 81.6826C345.067 81.6826 346.047 80.5548 348.035 79.6053C349.016 79.1289 350.237 78.6821 351.596 78.4421C352.957 78.1754 354.48 78.1455 355.997 78.3862C356.742 78.5049 357.477 78.7038 358.206 78.9562C358.941 79.1551 359.57 79.558 360.178 79.9041C360.82 80.2001 361.329 80.6968 361.821 81.11C362.343 81.4998 362.718 81.9801 363.073 82.4036C363.813 83.2272 364.225 84.0647 364.481 84.6388C364.762 85.2161 364.883 85.5566 364.883 85.5566C364.883 85.5566 364.556 85.3535 364.054 85.0205C363.803 84.854 363.505 84.6275 363.154 84.3943C362.833 84.1378 362.395 83.9483 361.967 83.6786C361.536 83.4356 361.111 83.1392 360.596 82.9131C360.081 82.687 359.603 82.384 359.028 82.2048C358.483 82.0022 357.912 81.7962 357.334 81.6438C356.759 81.4646 356.151 81.3356 355.536 81.26C354.32 81.002 353.071 81.0113 351.852 80.9971C350.656 81.0129 349.504 81.1156 348.489 81.2079C346.506 81.4525 345.067 81.6826 345.067 81.6826Z" fill="#3F1E1D"/>
<path d="M324.109 79.1636C324.109 79.1636 324.551 78.214 325.657 77.156C326.211 76.627 326.931 76.0642 327.798 75.6281C328.232 75.41 328.695 75.1685 329.226 75.0438C329.737 74.8623 330.308 74.8511 330.862 74.7564C331.426 74.7987 332.027 74.764 332.572 74.9666C333.157 75.0656 333.638 75.3419 334.09 75.6416C334.575 75.8911 334.903 76.3113 335.218 76.6213C335.586 76.9379 335.754 77.3385 335.955 77.6889C336.387 78.3661 336.469 79.0274 336.58 79.4481C336.661 79.8922 336.685 80.1394 336.685 80.1394C336.685 80.1394 336.488 79.9795 336.173 79.6695C335.855 79.3862 335.48 78.9059 334.931 78.5129C334.657 78.3163 334.419 78.0429 334.085 77.8933C333.781 77.7202 333.483 77.4936 333.115 77.3942C332.784 77.2178 332.44 77.1484 332.066 77.1024C331.729 76.9795 331.311 77.0639 330.937 77.018C330.55 77.0789 330.146 77.0563 329.752 77.1707C329.361 77.2584 328.947 77.3161 328.55 77.4573C327.763 77.6861 327.022 77.975 326.368 78.2202C325.02 78.8143 324.109 79.1636 324.109 79.1636Z" fill="#3F1E1D"/>
<path d="M291.277 568.178C295.455 571.052 296.917 576.389 296.51 581.251" stroke="url(#paint11_linear_18_1819)" stroke-width="0.5397" stroke-miterlimit="10" stroke-linecap="round"/>
<path d="M295.396 565.563C295.396 565.563 302.916 567.953 302.731 573.44" stroke="url(#paint12_linear_18_1819)" stroke-width="0.5397" stroke-miterlimit="10" stroke-linecap="round"/>
<path d="M300.094 562.856C300.094 562.856 307.613 565.246 307.429 570.733" stroke="url(#paint13_linear_18_1819)" stroke-width="0.5397" stroke-miterlimit="10" stroke-linecap="round"/>
<path d="M324.215 147.654C324.215 147.654 328.891 176.101 356.217 174.71C383.569 173.322 388.614 148.784 388.614 148.784C388.614 148.784 402.73 149.813 411.502 161.449C420.044 172.757 442.295 209.416 441.062 219.469C439.829 229.522 402.202 270.437 402.202 270.437L390.386 261.494L411.201 219.191L394.068 203.842C394.068 203.842 381.318 258.019 366.781 265.731C352.241 273.47 323.273 260.384 323.273 260.384L305.46 189.532C305.46 189.532 267.154 197.064 254.029 187.96C240.874 178.88 254.495 101.009 258.776 99.5C263.031 97.9874 282.226 107.81 282.226 107.81C282.226 107.81 272.89 156.273 278.235 156.93C283.58 157.587 305.822 148.108 324.215 147.654Z" fill="#C8DFF8"/>
<path d="M373.865 201.337C358.485 201.102 343.203 200.065 327.981 198.547C324.344 204.532 318.487 209.159 310.735 210.431L323.301 260.365C323.301 260.365 352.268 273.452 366.809 265.713C376.706 260.443 385.803 233.607 390.575 217.041C381.466 214.782 376.062 208.636 373.865 201.337Z" fill="#315775"/>
<path d="M320.286 190.654L385.021 189.084C385.021 189.084 372.753 233.797 389.211 265.728C389.211 265.728 420.165 378.963 376.039 449.181C357.735 478.305 340.102 494.214 340.102 494.214L317.297 475.1L341.804 419.298L336.001 350.272L329.822 461.685L296.627 466.453C296.627 466.453 279.616 341.063 278.741 318.782C277.42 285.318 315.964 242.477 315.964 242.477C315.964 242.477 319.496 213.681 320.286 190.654Z" fill="url(#paint14_linear_18_1819)"/>
<path d="M291.507 452.91L329.007 449.078L322.482 463.121L294.295 468.884L291.507 452.91Z" fill="#304B91"/>
<path d="M322.66 471.368L274.111 548.233L285.752 555.065L338.497 493.534L322.66 471.368Z" fill="#FCCDAA"/>
<path d="M278.192 541.274L265.5 558.495L306.611 584.716L292.227 547.83L278.192 541.274Z" fill="#141B30"/>
<path d="M265.502 558.498L305.826 584.269" stroke="url(#paint15_linear_18_1819)" stroke-width="1.0692" stroke-miterlimit="10"/>
<path d="M297.788 562.218C297.788 562.218 290.391 560.82 284.467 570.188" stroke="url(#paint16_linear_18_1819)" stroke-width="0.5397" stroke-miterlimit="10" stroke-linecap="round" stroke-linejoin="round"/>
<path d="M296.324 557.561C296.324 557.561 289.047 554.523 285.641 558.853" stroke="url(#paint17_linear_18_1819)" stroke-width="0.5397" stroke-miterlimit="10" stroke-linecap="round" stroke-linejoin="round"/>
<path d="M294.457 552.445C294.457 552.445 287.18 549.407 283.773 553.737" stroke="url(#paint18_linear_18_1819)" stroke-width="0.5397" stroke-miterlimit="10" stroke-linecap="round" stroke-linejoin="round"/>
<path d="M320.638 464.658L347.213 491.726L337.719 502.772L313.814 476.059L320.638 464.658Z" fill="#304B91"/>
<path d="M324.85 186.95C324.85 186.95 326.935 194.29 328.915 194.289C330.896 194.288 334.269 190.008 334.269 190.008L332.701 185.093" stroke="#9FA8B7" stroke-width="0.4661" stroke-miterlimit="10"/>
<path d="M315.456 148.097L323.981 143.853L334.212 185.196L324.001 189.043L315.456 148.097Z" fill="url(#paint19_linear_18_1819)"/>
<path d="M328.093 190.171C327.968 191.187 328.799 192.158 329.975 192.302C331.124 192.444 332.188 191.733 332.316 190.69C332.443 189.648 331.61 188.704 330.434 188.559C329.258 188.415 328.221 189.129 328.093 190.171Z" fill="#9FA8B7"/>
<path d="M376.242 183.739C376.242 183.739 374.308 191.1 376.027 192.126C377.746 193.151 382.795 191.139 382.795 191.139L383.956 186.098" stroke="#9FA8B7" stroke-width="0.4661" stroke-miterlimit="10"/>
<path d="M387.857 145.458L397.351 146.136L385.209 186.955L374.45 185.089L387.857 145.458Z" fill="url(#paint20_linear_18_1819)"/>
<path d="M377.41 188.141C376.768 188.958 377.021 190.21 377.938 190.92C378.855 191.63 380.14 191.543 380.756 190.723C381.399 189.907 381.145 188.654 380.229 187.945C379.312 187.235 378.026 187.321 377.41 188.141Z" fill="#9FA8B7"/>
<path opacity="0.4" d="M372.079 203.529L330.622 203.129C330.622 203.129 327.585 227.67 338.82 232.497C350.132 237.362 377.057 243.439 372.079 203.529Z" fill="#ACC9F9"/>
<path d="M390.992 261.79L390.359 262.744C390.359 262.744 383.686 254.786 380.025 257.647C378.045 259.195 361.722 271.953 381.926 260.947C381.926 260.947 360.364 283.021 385.648 265.991C385.648 265.991 368.786 287.123 387.427 270.281C387.427 270.281 380.926 291.655 390.081 274.081C390.081 274.081 392.49 280.538 395.221 278.838C397.98 277.141 401.701 270.244 401.701 270.244C401.701 270.244 397.799 266.453 390.992 261.79Z" fill="#FCCDAA"/>
<path d="M337.124 335.809L302.605 317.97L315.615 450.332L329.009 449.074L330.897 445.398L337.124 335.809Z" fill="#304B91"/>
<path d="M326.418 91.3072C326.418 91.3072 326.402 90.3282 326.736 88.931C326.905 88.219 327.194 87.4132 327.676 86.5769C327.942 86.1754 328.215 85.7205 328.668 85.342C329.095 84.9602 329.819 84.5879 330.671 84.7197C331.406 84.9187 331.972 85.3953 332.273 85.8123C332.708 86.2458 332.813 86.72 333.031 87.1539C333.44 88.0183 333.556 88.8467 333.711 89.5714C333.861 91.0011 333.85 91.9766 333.85 91.9766C333.85 91.9766 333.327 91.1525 332.72 89.9109C332.358 89.3236 332.042 88.5792 331.61 87.9018C331.406 87.5782 331.184 87.171 330.937 86.9778C330.705 86.6508 330.471 86.5678 330.341 86.5247C330.234 86.5115 330.044 86.5152 329.8 86.7295C329.56 86.9171 329.281 87.2084 329.027 87.5029C328.545 88.122 328.112 88.7745 327.742 89.3532C326.947 90.5309 326.418 91.3072 326.418 91.3072Z" fill="#3F3838"/>
<path d="M348.543 96.4126C348.543 96.4126 348.527 95.4337 348.861 94.0364C349.03 93.3245 349.319 92.5187 349.801 91.6824C350.067 91.2809 350.34 90.826 350.793 90.4475C351.22 90.0657 351.944 89.6933 352.796 89.8252C353.531 90.0242 354.097 90.5008 354.398 90.9178C354.833 91.3512 354.938 91.8254 355.156 92.2593C355.566 93.1238 355.681 93.9521 355.836 94.6768C355.986 96.1065 355.975 97.0821 355.975 97.0821C355.975 97.0821 355.452 96.258 354.845 95.0163C354.483 94.4291 354.167 93.6847 353.735 93.0073C353.531 92.6837 353.309 92.2765 353.062 92.0832C352.83 91.7563 352.596 91.6732 352.466 91.6301C352.359 91.6169 352.169 91.6207 351.925 91.835C351.685 92.0226 351.406 92.3139 351.152 92.6084C350.67 93.2275 350.237 93.8799 349.864 94.4854C349.075 95.6096 348.543 96.4126 348.543 96.4126Z" fill="#3F3838"/>
<path d="M331.108 110.748L351.568 112.909C351.568 112.909 345.822 121.05 338.528 119.475C328.935 117.401 331.108 110.748 331.108 110.748Z" fill="#D37F7A"/>
<path d="M335.116 118.323C338.179 115.688 342.354 114.165 347.485 114.796C348.206 114.884 348.831 115.097 349.49 115.259C350.786 113.98 351.541 112.906 351.541 112.906L331.082 110.745C331.108 110.748 329.533 115.629 335.116 118.323Z" fill="#9B5C57"/>
<path d="M340.47 336.218L365.858 312.144L344.232 338.716L340.47 336.218Z" fill="#304B91"/>
</g>
<defs>
<linearGradient id="paint0_linear_18_1819" x1="443.459" y1="95.8259" x2="420.607" y2="87.8001" gradientUnits="userSpaceOnUse">
<stop stop-color="#F98D3D"/>
<stop offset="1" stop-color="#F9AE3D"/>
</linearGradient>
<linearGradient id="paint1_linear_18_1819" x1="443.459" y1="161.797" x2="420.607" y2="153.771" gradientUnits="userSpaceOnUse">
<stop stop-color="#F98D3D"/>
<stop offset="1" stop-color="#F9AE3D"/>
</linearGradient>
<linearGradient id="paint2_linear_18_1819" x1="443.459" y1="223.427" x2="420.607" y2="215.402" gradientUnits="userSpaceOnUse">
<stop stop-color="#F98D3D"/>
<stop offset="1" stop-color="#F9AE3D"/>
</linearGradient>
<linearGradient id="paint3_linear_18_1819" x1="638.62" y1="565.888" x2="635.225" y2="617.319" gradientUnits="userSpaceOnUse">
<stop stop-color="#F98D3D"/>
<stop offset="1" stop-color="#F9AE3D"/>
</linearGradient>
<linearGradient id="paint4_linear_18_1819" x1="133.637" y1="130.77" x2="84.5419" y2="113.528" gradientUnits="userSpaceOnUse">
<stop stop-color="#F98D3D"/>
<stop offset="1" stop-color="#F9AE3D"/>
</linearGradient>
<linearGradient id="paint5_linear_18_1819" x1="133.641" y1="456.092" x2="84.5458" y2="438.849" gradientUnits="userSpaceOnUse">
<stop stop-color="#F98D3D"/>
<stop offset="1" stop-color="#F9AE3D"/>
</linearGradient>
<linearGradient id="paint6_linear_18_1819" x1="417.204" y1="416.157" x2="406.236" y2="412.305" gradientUnits="userSpaceOnUse">
<stop stop-color="#F98D3D"/>
<stop offset="1" stop-color="#F9AE3D"/>
</linearGradient>
<linearGradient id="paint7_linear_18_1819" x1="417.204" y1="453.618" x2="406.236" y2="449.766" gradientUnits="userSpaceOnUse">
<stop stop-color="#F98D3D"/>
<stop offset="1" stop-color="#F9AE3D"/>
</linearGradient>
<linearGradient id="paint8_linear_18_1819" x1="417.204" y1="491.08" x2="406.236" y2="487.228" gradientUnits="userSpaceOnUse">
<stop stop-color="#F98D3D"/>
<stop offset="1" stop-color="#F9AE3D"/>
</linearGradient>
<linearGradient id="paint9_linear_18_1819" x1="68.8748" y1="208.386" x2="44.0918" y2="175.106" gradientUnits="userSpaceOnUse">
<stop stop-color="#F98D3D"/>
<stop offset="1" stop-color="#F9AE3D"/>
</linearGradient>
<linearGradient id="paint10_linear_18_1819" x1="283.058" y1="580.276" x2="312.96" y2="584.672" gradientUnits="userSpaceOnUse">
<stop stop-color="#2F66F4"/>
<stop offset="1" stop-color="#0D9AE9"/>
</linearGradient>
<linearGradient id="paint11_linear_18_1819" x1="292.177" y1="574.503" x2="296.089" y2="574.985" gradientUnits="userSpaceOnUse">
<stop stop-color="#2F66F4"/>
<stop offset="1" stop-color="#0D9AE9"/>
</linearGradient>
<linearGradient id="paint12_linear_18_1819" x1="296.979" y1="569.245" x2="301.729" y2="569.832" gradientUnits="userSpaceOnUse">
<stop stop-color="#2F66F4"/>
<stop offset="1" stop-color="#0D9AE9"/>
</linearGradient>
<linearGradient id="paint13_linear_18_1819" x1="301.677" y1="566.538" x2="306.427" y2="567.125" gradientUnits="userSpaceOnUse">
<stop stop-color="#2F66F4"/>
<stop offset="1" stop-color="#0D9AE9"/>
</linearGradient>
<linearGradient id="paint14_linear_18_1819" x1="307.437" y1="334.874" x2="380.441" y2="343.849" gradientUnits="userSpaceOnUse">
<stop stop-color="#2F66F4"/>
<stop offset="1" stop-color="#0D9AE9"/>
</linearGradient>
<linearGradient id="paint15_linear_18_1819" x1="274.744" y1="570.041" x2="299.625" y2="573.126" gradientUnits="userSpaceOnUse">
<stop stop-color="#2F66F4"/>
<stop offset="1" stop-color="#0D9AE9"/>
</linearGradient>
<linearGradient id="paint16_linear_18_1819" x1="288.029" y1="565.82" x2="295.091" y2="566.692" gradientUnits="userSpaceOnUse">
<stop stop-color="#2F66F4"/>
<stop offset="1" stop-color="#0D9AE9"/>
</linearGradient>
<linearGradient id="paint17_linear_18_1819" x1="288.369" y1="557.645" x2="294.39" y2="558.396" gradientUnits="userSpaceOnUse">
<stop stop-color="#2F66F4"/>
<stop offset="1" stop-color="#0D9AE9"/>
</linearGradient>
<linearGradient id="paint18_linear_18_1819" x1="286.501" y1="552.529" x2="292.523" y2="553.28" gradientUnits="userSpaceOnUse">
<stop stop-color="#2F66F4"/>
<stop offset="1" stop-color="#0D9AE9"/>
</linearGradient>
<linearGradient id="paint19_linear_18_1819" x1="318.993" y1="165.834" x2="332.33" y2="167.474" gradientUnits="userSpaceOnUse">
<stop stop-color="#2F66F4"/>
<stop offset="1" stop-color="#0D9AE9"/>
</linearGradient>
<linearGradient id="paint20_linear_18_1819" x1="381.316" y1="165.321" x2="391.688" y2="166.596" gradientUnits="userSpaceOnUse">
<stop stop-color="#2F66F4"/>
<stop offset="1" stop-color="#0D9AE9"/>
</linearGradient>
<clipPath id="clip0_18_1819">
<rect width="595" height="615" fill="white"/>
</clipPath>
</defs>
</svg>
