<svg xmlns="http://www.w3.org/2000/svg" width="40" height="34" fill="none" viewBox="0 0 40 34"><g clip-path="url(#clip0_2202_7537)"><path fill="#0D1233" d="M35.5104 6.75942L34.2383 5.4873L32.3627 7.36289L33.6348 8.635L35.5104 6.75942Z"/><path fill="#24285B" d="M36.6022 6.1901L34.8081 4.39598C34.4459 4.03382 33.8588 4.03382 33.4966 4.39598L33.4959 4.39666C33.1338 4.75881 33.1338 5.34598 33.4959 5.70814L35.29 7.50227C35.6522 7.86442 36.2394 7.86442 36.6015 7.50227L36.6022 7.50159C36.9644 7.13943 36.9644 6.55226 36.6022 6.1901Z"/><path fill="#0D1233" d="M26.4923 2.11328H23.8965V5.9408H26.4923V2.11328Z"/><path fill="#24285B" d="M27.0251 0.418945H23.3656C22.6265 0.418945 22.0273 1.0181 22.0273 1.75719C22.0273 2.49627 22.6265 3.09543 23.3656 3.09543H27.0251C27.7642 3.09543 28.3633 2.49627 28.3633 1.75719C28.3633 1.0181 27.7642 0.418945 27.0251 0.418945Z"/><path fill="url(#paint0_linear_2202_7537)" d="M25.1937 4.59572C21.619 4.59096 18.1697 5.91236 15.5131 8.3042H4.77739C4.28268 8.3047 3.80838 8.50152 3.45866 8.85142C3.10893 9.20133 2.91236 9.67572 2.91211 10.1704C2.91236 10.6652 3.1091 11.1397 3.45906 11.4894C3.80902 11.8392 4.28356 12.0357 4.77835 12.0357H11.0184C11.1747 12.0352 11.3286 12.0738 11.4663 12.1478C11.604 12.2219 11.721 12.3291 11.8068 12.4598C11.8926 12.5905 11.9444 12.7405 11.9576 12.8963C11.9708 13.052 11.9449 13.2086 11.8823 13.3519C11.8708 13.3788 11.8584 13.4066 11.8468 13.4344C11.7756 13.6053 11.6557 13.7516 11.5022 13.855C11.3486 13.9584 11.168 14.0145 10.9828 14.0162H8.08075C7.06891 14.0162 6.20779 14.8024 6.17227 15.8143C6.16311 16.0648 6.20455 16.3146 6.29412 16.5488C6.38369 16.783 6.51954 16.9967 6.69357 17.1772C6.86759 17.3576 7.07622 17.5012 7.30697 17.5992C7.53773 17.6972 7.78588 17.7478 8.03659 17.7477H9.38731C9.56081 17.7482 9.7325 17.783 9.89254 17.85C10.0526 17.917 10.1978 18.0149 10.3199 18.1382C10.442 18.2614 10.5386 18.4076 10.6041 18.5683C10.6696 18.7289 10.7027 18.9009 10.7016 19.0744V19.0879C10.7016 19.4079 10.7118 19.7234 10.7323 20.0344C10.7449 20.2144 10.7204 20.395 10.6603 20.5651C10.6002 20.7352 10.5058 20.8911 10.3829 21.0232C10.26 21.1552 10.1113 21.2606 9.94598 21.3328C9.78066 21.405 9.60226 21.4424 9.42187 21.4428H8.03659C7.79156 21.4426 7.5489 21.4908 7.32248 21.5845C7.09607 21.6781 6.89033 21.8155 6.71702 21.9887C6.54371 22.162 6.40623 22.3676 6.31243 22.594C6.21863 22.8204 6.17035 23.063 6.17035 23.308C6.17035 23.5531 6.21863 23.7957 6.31243 24.0221C6.40623 24.2484 6.54371 24.4541 6.71702 24.6273C6.89033 24.8005 7.09607 24.9379 7.32248 25.0316C7.5489 25.1253 7.79156 25.1734 8.03659 25.1733H12.0388C13.1299 27.534 14.8359 29.5576 16.978 31.0322C19.1201 32.5068 21.6195 33.3779 24.2141 33.5543C26.8087 33.7307 29.403 33.2059 31.725 32.0348C34.047 30.8638 36.0112 29.0897 37.4117 26.8984C38.8123 24.7071 39.5975 22.1795 39.6852 19.5804C39.7728 16.9812 39.1597 14.4064 37.91 12.1258C36.6603 9.84513 34.8201 7.94267 32.5823 6.61782C30.3444 5.29298 27.7914 4.59454 25.1908 4.59572H25.1937Z"/><path fill="url(#paint1_linear_2202_7537)" d="M25.1044 4.596C27.8176 6.22074 29.9245 8.68869 31.1037 11.6231C32.2828 14.5575 32.4693 17.7972 31.6347 20.8475C30.8001 23.8978 28.9902 26.5913 26.4814 28.5166C23.9726 30.442 20.9026 31.4934 17.7402 31.5106C19.6582 32.6616 21.8166 33.3529 24.0465 33.5305C26.2763 33.708 28.5169 33.3669 30.5928 32.5339C32.6688 31.7008 34.5237 30.3985 36.0123 28.7289C37.5009 27.0592 38.5827 25.0676 39.173 22.9101C39.7634 20.7525 39.8462 18.4876 39.415 16.2927C38.9838 14.0978 38.0503 12.0325 36.6876 10.2586C35.325 8.48475 33.5701 7.05043 31.5605 6.06802C29.5509 5.0856 27.3412 4.58178 25.1044 4.596Z"/><path fill="#fff" d="M22.2914 11.1948H29.093C29.1505 11.195 29.2072 11.209 29.2583 11.2355C29.3094 11.262 29.3535 11.3003 29.3868 11.3472C29.4201 11.3942 29.4417 11.4484 29.4499 11.5053C29.4581 11.5623 29.4526 11.6204 29.4338 11.6748L27.5695 16.9375C27.5507 16.992 27.5452 17.0501 27.5533 17.107C27.5615 17.164 27.5832 17.2182 27.6165 17.2652C27.6498 17.3121 27.6938 17.3504 27.7449 17.3769C27.796 17.4034 27.8527 17.4173 27.9103 17.4175H30.9247C30.9981 17.4178 31.0698 17.4403 31.1301 17.4822C31.1904 17.5241 31.2366 17.5834 31.2624 17.6522C31.2883 17.7209 31.2926 17.7959 31.2748 17.8672C31.257 17.9385 31.2179 18.0026 31.1627 18.0511L21.0626 26.8879C21.0026 26.9371 20.9285 26.9656 20.851 26.9695C20.7736 26.9733 20.697 26.9521 20.6325 26.9091C20.568 26.8661 20.519 26.8035 20.4927 26.7306C20.4665 26.6576 20.4643 26.5782 20.4866 26.5039L22.5275 20.4108C22.5464 20.3563 22.5519 20.298 22.5436 20.2409C22.5353 20.1837 22.5135 20.1294 22.48 20.0824C22.4464 20.0355 22.4021 19.9972 22.3508 19.9708C22.2995 19.9444 22.2425 19.9307 22.1848 19.9308H19.468C19.4105 19.9306 19.3538 19.9167 19.3027 19.8902C19.2516 19.8637 19.2076 19.8254 19.1742 19.7784C19.1409 19.7315 19.1193 19.6773 19.1111 19.6203C19.1029 19.5633 19.1084 19.5052 19.1272 19.4508L21.9554 11.4358C21.98 11.366 22.0254 11.3055 22.0855 11.2624C22.1456 11.2193 22.2174 11.1957 22.2914 11.1948Z"/><path fill="#F2F2F2" d="M30.9249 17.4234H27.9105C27.853 17.4232 27.7963 17.4093 27.7452 17.3828C27.6941 17.3563 27.65 17.3179 27.6167 17.271C27.5834 17.2241 27.5618 17.1699 27.5536 17.1129C27.5454 17.0559 27.5509 16.9978 27.5697 16.9434L29.434 11.6807C29.4528 11.6263 29.4583 11.5682 29.4502 11.5112C29.442 11.4542 29.4203 11.4 29.387 11.3531C29.3537 11.3061 29.3097 11.2678 29.2586 11.2413C29.2075 11.2148 29.1508 11.2009 29.0932 11.2007H27.3499L24.8731 17.6557C24.8541 17.7101 24.8484 17.7683 24.8564 17.8254C24.8645 17.8824 24.8862 17.9367 24.9195 17.9837C24.9529 18.0307 24.997 18.069 25.0482 18.0955C25.0994 18.1219 25.1562 18.1357 25.2139 18.1357H28.2273C28.301 18.1357 28.3729 18.1582 28.4335 18.2001C28.494 18.2421 28.5404 18.3015 28.5662 18.3705C28.5921 18.4395 28.5963 18.5147 28.5783 18.5862C28.5603 18.6576 28.5209 18.7218 28.4654 18.7703L20.8392 25.4394L20.4801 26.504C20.4578 26.5783 20.46 26.6577 20.4862 26.7307C20.5125 26.8036 20.5615 26.8662 20.626 26.9092C20.6905 26.9522 20.7671 26.9734 20.8446 26.9696C20.922 26.9657 20.9961 26.9372 21.0561 26.888L31.1563 18.056C31.2107 18.0078 31.2493 17.9443 31.2671 17.8739C31.2849 17.8034 31.2811 17.7292 31.2561 17.6609C31.2311 17.5926 31.1862 17.5335 31.1271 17.4911C31.068 17.4488 30.9976 17.4252 30.9249 17.4234Z"/><path fill="url(#paint2_linear_2202_7537)" d="M2.36624 14.0161H2.36528C1.33511 14.0161 0.5 14.8512 0.5 15.8814V15.8824C0.5 16.9125 1.33511 17.7476 2.36528 17.7476H2.36624C3.39641 17.7476 4.23152 16.9125 4.23152 15.8824V15.8814C4.23152 14.8512 3.39641 14.0161 2.36624 14.0161Z"/></g><defs><linearGradient id="paint0_linear_2202_7537" x1="28.684" x2="6.963" y1="47.247" y2="37.564" gradientUnits="userSpaceOnUse"><stop stop-color="#F98D3D"/><stop offset="1" stop-color="#F9AE3D"/></linearGradient><linearGradient id="paint1_linear_2202_7537" x1="7.999" x2="4.102" y1="17" y2="11.388" gradientUnits="userSpaceOnUse"><stop stop-color="#F98D3D"/><stop offset="1" stop-color="#F9AE3D"/></linearGradient><linearGradient id="paint2_linear_2202_7537" x1="3.115" x2=".763" y1="19.506" y2="18.68" gradientUnits="userSpaceOnUse"><stop stop-color="#F98D3D"/><stop offset="1" stop-color="#F9AE3D"/></linearGradient><clipPath id="clip0_2202_7537"><rect width="40" height="34" fill="#fff"/></clipPath></defs></svg>