<svg xmlns="http://www.w3.org/2000/svg" width="153" height="146" fill="none" viewBox="0 0 153 146"><g clip-path="url(#clip0_201_1639)"><path fill="#FCDEB7" d="M97.2023 23.5624C97.2023 23.5624 98.0528 14.7911 109.352 14.6576C120.652 14.524 142.686 17.4741 142.504 33.1228C142.321 48.7715 140.803 72.0261 120.634 94.358L85.7812 85.3317C85.7812 85.3317 102.178 42.9746 97.2023 23.5624Z"/><path fill="#000" d="M102.387 22.2149C102.387 22.2149 105.424 18.7793 119.038 22.7309C132.652 26.6825 136.279 33.4628 132.829 53.9797C129.378 74.4967 118.218 90.1393 118.218 90.1393L104.361 87.5656L102.387 22.2149Z" opacity=".09"/><g filter="url(#filter0_f_201_1639)"><ellipse cx="40.182" cy="5.824" fill="#4775EB" rx="40.182" ry="5.824" transform="matrix(0.999255 -0.0385822 0.0385731 0.999256 57.4492 186.331)"/></g><path stroke="#141B30" stroke-miterlimit="10" stroke-width="1.548" d="M135.733 109.911C135.733 109.911 127.819 97.1746 121.619 103.883C118.111 107.673 118.138 114.736 118.138 114.736"/><path fill="#FCCDAA" d="M58.9723 51.2531C58.9723 51.2531 54.4928 25.7206 56.5466 26.0851C58.5909 26.45 59.8643 24.9465 60.7367 28.7092C61.6094 32.4813 66.2404 51.9074 66.2404 51.9074L58.9723 51.2531Z"/><path fill="url(#paint0_linear_201_1639)" d="M97.5467 41.6786C97.5467 41.6786 86.916 40.2665 81.192 43.4055C75.4679 46.5446 66.202 48.6872 66.202 48.6872L62.296 31.8962L55.7968 33.7904C55.7968 33.7904 58.3707 62.5506 62.3358 61.3021C66.3103 60.0531 86.1684 54.168 86.1684 54.168L97.5467 41.6786Z"/><path fill="#FCCDAA" d="M56.2234 30.7251C56.2234 30.7251 59.6487 31.1501 61.0401 29.7648C62.4314 28.3795 63.4086 27.2747 63.401 25.3673C63.3939 23.4695 64.9817 21.7933 64.5548 21.4981C64.1279 21.203 62.898 20.1645 61.9407 23.4972C61.9407 23.4972 61.801 25.0136 61.1869 24.5179C60.6897 24.1122 60.8301 22.1236 60.5976 19.5261C60.2812 15.9781 59.8632 16.6459 59.4767 17.1518C59.0902 17.6578 59.0795 21.5396 58.7634 22.6472C58.5133 23.5068 58.0717 16.715 57.2213 16.7006C55.804 16.6798 57.1751 23.8229 56.6329 23.23C56.091 22.6465 55.2689 18.2303 54.7133 18.0251C52.9986 17.3925 55.2637 24.4539 54.8227 24.5276C54.4851 24.5878 53.3868 21.3344 52.6329 21.373C51.8691 21.4024 52.4808 23.0598 52.8592 24.0556C53.3011 25.2285 53.6033 25.7173 53.9679 26.8459C54.3238 27.9937 54.7458 29.8756 56.2234 30.7251Z"/><path fill="#9B7C67" d="M95.5693 34.0042L94.7232 49.5149L104.317 45.8298L105.277 29.8613L95.5693 34.0042Z"/><path fill="#FCCDAA" d="M101.331 6.37625C108.277 7.99676 108.074 12.7736 108.074 12.7736C108.074 12.7736 107.839 16.4657 107.688 20.8628C108.334 19.9785 109.425 19.6153 110.539 20.1011C112.901 21.1243 111.121 28.5779 107.526 27.914C107.361 29.998 107.149 31.621 106.878 32.1792C105.855 34.2963 101.399 37.5092 97.4523 38.0015C93.5052 38.4939 86.9631 34.6291 86.9817 29.9727C87.0006 25.3257 88.5773 11.3733 88.5773 11.3733C88.5773 11.3733 89.8201 3.69486 101.331 6.37625Z"/><path fill="#272930" d="M97.2189 15.5249C97.2189 15.5249 97.6432 15.5085 98.2082 15.4678C98.4911 15.4569 98.8204 15.4253 99.1508 15.422C99.3201 15.406 99.4909 15.4277 99.6512 15.4215C99.8206 15.4055 99.9827 15.4465 100.153 15.4494C100.315 15.4809 100.485 15.4838 100.628 15.5255C100.771 15.5766 100.942 15.5889 101.067 15.6596C101.354 15.7524 101.615 15.8934 101.838 16.0454C102.07 16.1875 102.255 16.3409 102.383 16.4587C102.519 16.5668 102.616 16.6291 102.616 16.6291C102.616 16.6291 102.612 16.5254 102.577 16.3474C102.541 16.1599 102.484 15.8977 102.303 15.6213C102.231 15.473 102.122 15.3261 101.984 15.1898C101.856 15.0436 101.699 14.908 101.516 14.8018C101.166 14.5509 100.709 14.4363 100.271 14.3588C100.054 14.3577 99.8262 14.3288 99.6195 14.3556C99.4027 14.364 99.2061 14.4094 99.0095 14.4547C98.6259 14.5451 98.2919 14.6996 98.0239 14.8516C97.4792 15.1749 97.2189 15.5249 97.2189 15.5249Z"/><path fill="#272930" d="M93.0831 15.2984C93.0831 15.2984 92.9467 14.9448 92.5546 14.5728C92.3588 14.3914 92.1056 14.1935 91.7796 14.0644C91.4622 13.9161 91.0724 13.8462 90.6662 13.843C90.4595 13.8698 90.2618 13.8869 90.0664 13.9606C89.8698 14.0059 89.7045 14.1256 89.5478 14.2261C89.3814 14.3175 89.2741 14.4728 89.1558 14.5907C89.0376 14.7085 88.9771 14.8525 88.9064 14.978C88.7646 15.2196 88.736 15.4568 88.7136 15.6088C88.6915 15.7701 88.6947 15.855 88.6947 15.855C88.6947 15.855 88.7778 15.8046 88.9069 15.7241C89.036 15.6435 89.1912 15.5053 89.3946 15.3936C89.4961 15.333 89.5879 15.2634 89.6992 15.2118C89.8109 15.1698 89.9121 15.0997 90.0241 15.0671C90.2475 14.9829 90.4723 14.9365 90.7269 14.9266C91.2169 14.8983 91.7881 15.0179 92.2639 15.1128C92.7125 15.2371 93.0831 15.2984 93.0831 15.2984Z"/><path fill="#fff" d="M100.602 29.542L91.7793 29.9676C91.7793 29.9676 93.9014 34.0597 100.602 29.542Z"/><path fill="#51576A" d="M99.6618 18.5095C99.6176 19.3233 99.1981 19.9534 98.7347 19.9335C98.2708 19.9042 97.9331 19.2278 97.9772 18.414C98.0214 17.6001 98.4409 16.9701 98.9043 16.99C99.3682 17.0193 99.7059 17.6956 99.6618 18.5095Z"/><path fill="#51576A" d="M91.6969 18.7604C91.6528 19.5743 91.2337 20.2138 90.7698 20.1845C90.306 20.1551 89.9683 19.4788 90.0124 18.6649C90.0565 17.8511 90.476 17.2211 90.9395 17.2409C91.4033 17.2702 91.7411 17.9466 91.6969 18.7604Z"/><path fill="url(#paint1_linear_201_1639)" d="M76.5338 97.3693C76.5338 97.3693 97.2362 104.059 115.614 97.5035L114.421 57.5465L122.948 55.5741C122.948 55.5741 124.12 49.7399 120.434 45.7459C119.675 44.9253 113.618 41.1362 105.955 41.2527C105.228 41.2618 104.543 41.1278 103.93 41.1514L97.5464 41.3979L96.9995 41.419L88.252 41.5773L80.4925 53.3887L76.5338 97.3693Z"/><path fill="url(#paint2_linear_201_1639)" d="M94.4323 72.5686C98.4688 70.9679 102.498 68.933 105.835 66.1033C108.542 63.8079 111.106 60.2714 114.465 58.9707L115.612 97.5035C97.2343 104.059 76.5319 97.3693 76.5319 97.3693L78.6505 73.7257C84.0019 74.6334 89.7079 74.4509 94.4323 72.5686Z"/><path fill="#141B30" d="M106.391 43.0582L106.496 36.4814L94.4859 37.4929L94.8619 42.5874L106.391 43.0582Z"/><path fill="#1C2643" d="M108.269 20.0002C106.327 24.9764 108.57 32.9357 105.063 36.0081C101.482 39.14 95.1198 40.4245 91.4136 39.3305C87.2875 38.1204 84.7613 35.2999 85.2343 31.1642C85.7925 26.2981 87.5694 20.7144 87.5694 20.7144C87.5694 20.7144 87.0026 25.8453 92.0909 25.3183C96.5301 24.8542 105.081 31.3329 105.819 20.1326C106.621 8.1271 97.1891 9.63396 93.5608 10.0668C89.9325 10.4997 87.571 8.76821 88.3401 5.69768L89.6219 6.85697C89.6219 6.85697 87.9876 3.41649 90.2728 1.45842C90.2728 1.45842 90.5643 3.38311 91.9867 3.78148C91.9867 3.78148 91.512 1.51446 93.4455 0.476552C93.4455 0.476552 93.0001 2.39192 94.2393 2.44795C95.4785 2.50398 104.509 0.379901 106.289 6.3834C106.289 6.3834 108.556 5.90868 109.43 9.22741C110.333 12.5451 110.221 15.0236 108.269 20.0002Z"/><path fill="#CA8F64" d="M94.0312 16.377C93.3373 17.7259 92.7579 19.1082 92.2358 20.5071C91.7141 21.9155 91.2493 23.3311 90.8425 24.7823L90.7599 25.0877L91.0449 25.1333C91.9287 25.2786 92.8299 25.3854 93.7297 25.4545C92.8861 25.1282 92.0255 24.8499 91.1566 24.6001L91.3495 24.9515C91.9195 23.5696 92.4314 22.1522 92.8864 20.7275C93.3512 19.3119 93.7485 17.8611 94.0312 16.377Z"/><path fill="#fff" d="M98.5089 28.5082L90.2428 27.6847C90.2428 27.6847 92.103 33.5528 98.5089 28.5082Z"/><path fill="url(#paint3_linear_201_1639)" d="M112.552 115.027L106.931 113.733L109.863 142.489L115.643 145.675L112.552 115.027Z"/><path fill="url(#paint4_linear_201_1639)" d="M146.565 107.452L141.349 106.378L106.929 113.732L112.551 115.026L146.565 107.452Z"/><path stroke="#26304D" stroke-miterlimit="10" stroke-width="1.548" d="M138.502 109.955C138.502 109.955 130.589 97.2185 124.389 103.927C120.88 107.717 120.907 114.78 120.907 114.78"/><path fill="#FCCDAA" d="M128.393 93.9404L129.797 97.7958C129.797 97.7958 132.59 99.2084 132.265 103.263C131.94 107.317 124.519 108.085 124.358 105.863C124.358 105.863 120.551 102.157 124.534 99.4155L124.543 94.9956L128.393 93.9404Z"/><path fill="url(#paint5_linear_201_1639)" d="M122.763 50.2837C122.763 50.2837 130.003 86.9003 129.99 95.8534L123.505 98.1153L111.575 54.002L122.763 50.2837Z"/><path fill="url(#paint6_linear_201_1639)" d="M146.566 107.452L112.552 115.026L115.642 145.674L150.823 137.252L146.566 107.452Z"/><path fill="#F98D3D" d="M53.0694 85.623L153.185 103.906L113.352 134.099L-0.117188 107.566L53.0694 85.623Z"/><path fill="#F98D3D" d="M-0.117188 100.124V107.566L153.185 103.906V96.4639L-0.117188 100.124Z"/><path fill="#FCDEB7" d="M53.0694 78.1807L153.185 96.4638L113.352 126.65L-0.117188 100.124L53.0694 78.1807Z"/><path fill="#fff" d="M42.4688 99.1704L58.9867 89.1426L90.6313 97.1672L74.7452 108.081L42.4688 99.1704Z"/><path fill="url(#paint7_linear_201_1639)" d="M107.954 94.376L87.4688 108.24L106.696 113.746L125.923 99.141L107.954 94.376Z"/><path fill="#F98D3D" d="M42.4729 99.171L34.1562 76.2686L69.1665 84.0443L74.7494 108.082L42.4729 99.171Z"/><path fill="#fff" d="M110.882 99.0557L90.3906 112.92L109.624 118.425L128.851 103.821L110.882 99.0557Z"/><path fill="#fff" d="M54.2166 94.7299C55.4834 94.2206 55.9733 92.4739 55.3107 90.8287C54.6481 89.1835 53.084 88.2627 51.8172 88.7721C50.5504 89.2814 50.0606 91.0281 50.7231 92.6733C51.3857 94.3185 52.9498 95.2393 54.2166 94.7299Z"/><path fill="#000" d="M113.352 126.65V134.098L153.185 103.906V96.4639L113.352 126.65Z" opacity=".09"/></g><defs><filter id="filter0_f_201_1639" width="428.306" height="360.048" x="-116.327" y="10.576" color-interpolation-filters="sRGB" filterUnits="userSpaceOnUse"><feFlood flood-opacity="0" result="BackgroundImageFix"/><feBlend in="SourceGraphic" in2="BackgroundImageFix" mode="normal" result="shape"/><feGaussianBlur result="effect1_foregroundBlur_201_1639" stdDeviation="87"/></filter><linearGradient id="paint0_linear_201_1639" x1="87.541" x2="63.503" y1="45.64" y2="46.589" gradientUnits="userSpaceOnUse"><stop stop-color="#2F66F4"/><stop offset="1" stop-color="#0D9AE9"/></linearGradient><linearGradient id="paint1_linear_201_1639" x1="111.507" x2="88.712" y1="50.485" y2="71.192" gradientUnits="userSpaceOnUse"><stop stop-color="#2F66F4"/><stop offset="1" stop-color="#0D9AE9"/></linearGradient><linearGradient id="paint2_linear_201_1639" x1="105.605" x2="82.744" y1="79.717" y2="80.613" gradientUnits="userSpaceOnUse"><stop stop-color="#2F66F4"/><stop offset="1" stop-color="#0D9AE9"/></linearGradient><linearGradient id="paint3_linear_201_1639" x1="116.927" x2="120.444" y1="145.568" y2="144.677" gradientUnits="userSpaceOnUse"><stop stop-color="#F98D3D"/><stop offset=".985" stop-color="#F9AE3D"/></linearGradient><linearGradient id="paint4_linear_201_1639" x1="133.494" x2="107.751" y1="110.541" y2="104.984" gradientUnits="userSpaceOnUse"><stop stop-color="#F98D3D"/><stop offset="1" stop-color="#F9AE3D"/></linearGradient><linearGradient id="paint5_linear_201_1639" x1="112.885" x2="140.872" y1="55.969" y2="93.785" gradientUnits="userSpaceOnUse"><stop stop-color="#2F66F4"/><stop offset="1" stop-color="#0D9AE9"/></linearGradient><linearGradient id="paint6_linear_201_1639" x1="131.139" x2="115.41" y1="109.904" y2="111.55" gradientUnits="userSpaceOnUse"><stop stop-color="#F98D3D"/><stop offset="1" stop-color="#F9AE3D"/></linearGradient><linearGradient id="paint7_linear_201_1639" x1="114.414" x2="96.102" y1="122.872" y2="110.097" gradientUnits="userSpaceOnUse"><stop stop-color="#F98D3D"/><stop offset="1" stop-color="#F9AE3D"/></linearGradient><clipPath id="clip0_201_1639"><rect width="153" height="146" fill="#fff"/></clipPath></defs></svg>