<svg xmlns="http://www.w3.org/2000/svg" width="20" height="17" fill="none" viewBox="0 0 20 17"><path fill="#2F66F4" d="M14.1247 0.4375C13.2802 0.450636 12.4541 0.68639 11.7298 1.12095C11.0055 1.55552 10.4087 2.1735 9.99972 2.9125C9.5907 2.1735 8.99392 1.55552 8.26965 1.12095C7.54538 0.68639 6.71926 0.450636 5.87472 0.4375C4.52843 0.495993 3.26 1.08494 2.34656 2.07567C1.43312 3.06641 0.948912 4.37839 0.999725 5.725C0.999725 9.13525 4.58922 12.8598 7.59972 15.385C8.27189 15.9498 9.12174 16.2595 9.99972 16.2595C10.8777 16.2595 11.7276 15.9498 12.3997 15.385C15.4102 12.8598 18.9997 9.13525 18.9997 5.725C19.0505 4.37839 18.5663 3.06641 17.6529 2.07567C16.7394 1.08494 15.471 0.495993 14.1247 0.4375ZM11.436 14.2375C11.034 14.576 10.5253 14.7617 9.99972 14.7617C9.47416 14.7617 8.96549 14.576 8.56347 14.2375C4.70997 11.0042 2.49972 7.90225 2.49972 5.725C2.44846 4.77604 2.7745 3.8453 3.40675 3.13577C4.03899 2.42625 4.92615 1.99551 5.87472 1.9375C6.8233 1.99551 7.71045 2.42625 8.3427 3.13577C8.97495 3.8453 9.30099 4.77604 9.24972 5.725C9.24972 5.92391 9.32874 6.11468 9.46939 6.25533C9.61005 6.39598 9.80081 6.475 9.99972 6.475C10.1986 6.475 10.3894 6.39598 10.5301 6.25533C10.6707 6.11468 10.7497 5.92391 10.7497 5.725C10.6985 4.77604 11.0245 3.8453 11.6567 3.13577C12.289 2.42625 13.1761 1.99551 14.1247 1.9375C15.0733 1.99551 15.9605 2.42625 16.5927 3.13577C17.2249 3.8453 17.551 4.77604 17.4997 5.725C17.4997 7.90225 15.2895 11.0042 11.436 14.2345V14.2375Z"/></svg>