<svg width="524" height="772" viewBox="0 0 524 772" fill="none" xmlns="http://www.w3.org/2000/svg">
<path opacity="0.5" d="M401.633 496.333C395.975 478.303 392.594 466.804 392.594 466.804L454.4 474.977L457.611 484.717C438.998 488.2 420.269 492.091 401.633 496.333Z" fill="#897160"/>
<path d="M216.492 292.442L195.729 285.375L186.758 306.047C186.758 306.047 103.119 310.942 80.6403 344.33C49.449 390.653 190.104 611.728 190.104 611.728L196.501 701.5C196.501 701.5 186.616 696.786 331.501 673L367.501 677.326L381.063 633.623C381.063 633.623 444.765 733.635 480.121 677.326C480.121 677.326 425.297 550.136 414.178 487.034C414.178 487.034 465.733 473.22 466.013 468.935C466.293 464.65 435.252 351.329 400.025 328.441C364.798 305.553 299.734 306.824 299.734 306.824L216.492 292.442Z" fill="url(#paint0_linear_908_3244)"/>
<path d="M273.227 245.211L293.701 347.155L214.802 334.39L193.047 229.632L273.227 245.211Z" fill="#FAB887"/>
<path d="M269.206 317.183C246.947 311.269 227.046 300.964 206.117 292.438L193.117 229.615L273.297 245.193L288.835 322.824C282.443 320.853 275.911 318.919 269.206 317.183Z" fill="#FAB887"/>
<path d="M193.736 76.1325C143.911 100.61 153.824 132.836 153.824 132.836C153.824 132.836 162.026 157.552 170.804 187.226C164.348 182.491 155.446 182.094 147.874 187.506C131.722 199.051 158.184 246.465 184.272 234.964C189.12 248.851 193.563 259.539 196.542 262.8C207.937 275.309 259.478 300.441 290.196 296.119C320.913 291.798 333.788 242.489 325.522 210.799C317.256 179.108 298.91 85.3901 298.91 85.3901C298.91 85.3901 276.23 35.5347 193.736 76.1325Z" fill="#FCCDAA"/>
<path d="M255.092 139.108C255.092 139.108 253.843 135.007 249.441 130.924C247.24 128.883 244.422 126.782 240.683 125.453C238.89 124.655 236.771 124.321 234.581 124.005C232.308 123.938 230.067 123.711 227.701 124.421C225.349 124.9 223.09 125.731 221.104 127.015C218.972 128.037 217.505 129.859 215.926 131.259C214.543 132.833 213.676 134.644 212.733 136.175C211.897 137.827 211.591 139.488 211.227 140.938C210.342 143.807 210.757 146.477 210.839 148.184C211.009 149.943 211.272 150.925 211.272 150.925C211.272 150.925 212.16 150.311 213.515 149.196C214.889 148.152 216.394 146.47 218.413 145.027C219.422 144.306 220.305 143.393 221.403 142.722C222.361 142.09 223.46 141.419 224.469 140.698C225.573 140.327 226.475 139.484 227.564 139.342C228.598 138.99 229.542 138.587 230.702 138.426C231.717 138.004 232.97 138.195 234.093 137.894C235.309 137.944 236.609 137.746 237.914 137.847C240.538 137.821 243.346 138.196 245.867 138.347C250.896 138.879 255.092 139.108 255.092 139.108Z" fill="#141B30"/>
<path d="M304.215 126.324C304.215 126.324 303.65 123.092 300.83 119.863C298.169 116.667 292.721 113.165 285.724 113.987C283.984 114.228 282.352 114.59 280.781 115.462C279.135 116.054 277.939 117.201 276.705 118.208C275.472 119.216 274.842 120.512 274.085 121.617C273.329 122.722 273.139 123.975 272.752 125.056C272.029 127.129 272.326 129.08 272.435 130.329C272.633 131.629 272.821 132.33 272.821 132.33C272.821 132.33 273.555 131.983 274.691 131.453C275.827 130.923 277.15 129.967 278.707 129.325C279.53 129.029 280.207 128.472 280.979 128.265C281.75 128.058 282.447 127.571 283.167 127.453C284.57 127.077 285.762 126.758 287.1 126.7C289.682 126.234 293.648 126.449 297.311 126.369C301.03 126.501 304.215 126.324 304.215 126.324Z" fill="#141B30"/>
<path d="M248.58 254.522L309.095 239.359C309.095 239.359 304.056 273.863 248.58 254.522Z" fill="white"/>
<path d="M221.767 171.569C223.383 177.601 227.505 181.759 230.942 180.838C234.379 179.917 235.869 174.256 234.252 168.223C232.636 162.191 228.515 158.033 225.078 158.954C221.641 159.875 220.151 165.537 221.767 171.569Z" fill="#20242E"/>
<path d="M279.646 158.915C281.262 164.947 285.383 169.105 288.82 168.184C292.257 167.263 293.747 161.601 292.131 155.569C290.515 149.537 286.393 145.379 282.956 146.3C279.519 147.221 278.029 152.882 279.646 158.915Z" fill="#20242E"/>
<path d="M197.952 103.449C191.382 121.297 201.135 145.072 196.552 153.216C191.968 161.361 179.958 166.759 192.643 201.476C194.342 206.133 196.116 211.07 198.016 216.199C195.252 216.263 192.455 216.486 189.472 217.135C186.488 217.785 183.809 218.728 181.219 219.723C177.367 206.471 173.779 198.411 173.779 198.411C173.779 198.411 140.372 128.726 139.872 117.884C139.391 107.112 150.334 65.4628 180.383 49.6678L174.64 62.1827C176.838 57.7597 187.52 40.3882 221.275 37.5833L213.73 41.4091C213.73 41.4091 254.478 34.4001 279.926 16.3046L272.819 30.4629C272.819 30.4629 299.99 21.6037 308.297 9.67981C308.297 9.67981 335.415 50.0014 303.03 79.804C270.645 109.607 204.502 85.5304 197.952 103.449Z" fill="#141B30"/>
<path d="M280.004 226.18C280.004 226.18 237.578 226.647 231.215 256.769C231.215 256.769 272.838 253.586 283.697 239.399C283.697 239.399 304.158 244.216 319.409 234.641C319.39 234.571 304.36 214.391 280.004 226.18Z" fill="#141B30"/>
<path d="M274.688 158.366C277.586 168.34 281.358 177.929 285.603 187.317C289.847 196.705 294.405 205.858 299.435 214.81L300.288 212.1C293.211 216.553 286.28 221.267 279.494 226.242C287.278 223.029 294.828 219.502 302.322 215.765L303.912 214.964L303.175 213.056C299.332 203.485 295.036 194.187 290.409 185.052C285.762 175.847 280.662 166.914 274.688 158.366Z" fill="#7F6654"/>
<path d="M333.89 160.471L290.441 169.182C290.441 169.182 294.4 198.267 311.366 198.457C347.801 198.919 333.89 160.471 333.89 160.471Z" fill="#B9D1E7" stroke="#20242E" stroke-width="3.77" stroke-miterlimit="10"/>
<path d="M272.765 173.917L229.316 182.627C229.316 182.627 233.275 211.713 250.241 211.903C286.676 212.364 272.765 173.917 272.765 173.917Z" fill="#B9D1E7" stroke="#20242E" stroke-width="3.77" stroke-miterlimit="10"/>
<path d="M292.508 178.853C292.508 178.853 282.468 169.44 274.79 183.15" stroke="#20242E" stroke-width="3.77" stroke-miterlimit="10"/>
<path d="M195.127 390.863L150.738 377.271C150.738 377.271 97.0194 423.691 117.345 456.06C132.459 480.202 217.45 482.312 219.161 461.481C220.871 440.649 195.127 390.863 195.127 390.863Z" fill="#FAB989"/>
<path d="M201.789 180.907L189.163 184.291L189.257 184.641C188.869 184.595 188.429 184.638 187.971 184.61C186.128 180.819 184.042 177.243 181.241 174.084C189.696 171.969 207.609 169.8 207.609 169.8L224.125 180.937C214.856 194.321 201.789 180.907 201.789 180.907Z" fill="#A07E67"/>
<path d="M199.347 187.502L189.807 190.058L189.901 190.409C189.583 190.344 189.284 190.349 188.984 190.354C187.483 186.997 185.74 183.856 183.543 180.986C189.893 179.435 203.433 178.062 203.433 178.062L216.393 188.272C209.732 199.605 199.347 187.502 199.347 187.502Z" fill="#A07E67"/>
<path d="M229.155 186.803L173.785 186.379" stroke="#20242E" stroke-width="3.77" stroke-miterlimit="10"/>
<path d="M304.316 307.925L294.553 369.406L273.541 342.333L274.371 340.382L285.573 300.543L304.316 307.925Z" fill="url(#paint1_linear_908_3244)"/>
<path d="M190.056 283.287L272.365 342.726L263.439 380.677L172.335 308.334L190.056 283.287Z" fill="url(#paint2_linear_908_3244)"/>
<path d="M186.778 286.197L195.698 239.527C201.385 249.806 214.606 224.236 226.341 227.632C229.94 244.711 283.821 419.422 223.331 463.296C186.82 489.768 152.162 460.864 155.594 416.717C159.343 368.425 186.778 286.197 186.778 286.197Z" fill="#FCCDAA"/>
<path d="M230.453 172.55L213.937 161.413C213.937 161.413 190.926 164.196 184.782 166.519C178.639 168.842 177.264 181.389 177.264 181.389L173.184 183.835L171.978 197.014L167.943 202.155C167.943 202.155 187.442 247.149 205.741 246.982C224.04 246.815 238.716 233.41 219.644 212.734C200.572 192.059 199.095 189.071 199.095 189.071L195.543 175.815L208.168 172.432C208.028 172.469 221.184 185.934 230.453 172.55Z" fill="#FCCDAA"/>
<defs>
<linearGradient id="paint0_linear_908_3244" x1="428.502" y1="336" x2="264.079" y2="500.077" gradientUnits="userSpaceOnUse">
<stop stop-color="#2F66F4"/>
<stop offset="1" stop-color="#0D9AE9"/>
</linearGradient>
<linearGradient id="paint1_linear_908_3244" x1="300.977" y1="332.05" x2="279.303" y2="337.865" gradientUnits="userSpaceOnUse">
<stop stop-color="#2F66F4"/>
<stop offset="1" stop-color="#0D9AE9"/>
</linearGradient>
<linearGradient id="paint2_linear_908_3244" x1="245.856" y1="326.862" x2="196.643" y2="340.074" gradientUnits="userSpaceOnUse">
<stop stop-color="#2F66F4"/>
<stop offset="1" stop-color="#0D9AE9"/>
</linearGradient>
</defs>
</svg>
