<svg width="605" height="650" viewBox="0 0 605 650" fill="none" xmlns="http://www.w3.org/2000/svg">
<path d="M288.531 254.941C288.531 254.941 322.449 534.721 398.189 591.028C458.782 636.061 493.815 562.734 404.844 369.152" stroke="#FDE3D0" stroke-width="1.5028" stroke-miterlimit="10"/>
<path d="M265.562 261.442C257.662 283.001 148.903 296.518 148.903 296.518C148.903 296.518 147.278 292.582 144.619 286.415C136.495 261.714 117.843 211.068 108.646 186.031C102.62 197.093 91.3396 205.135 75.5396 204.401C78.3983 250.64 99.3836 346.501 112.428 352.267C129.188 359.697 238.418 341.381 275.646 332.855C312.88 324.269 334.074 291.165 334.074 291.165C334.074 291.165 273.462 239.883 265.562 261.442Z" fill="#FCCDAA"/>
<path d="M500.574 428.698C482.856 454.075 436.817 537.978 427.587 552.136C432.873 549.769 447.14 523.914 454.255 524.52C463.618 525.318 470.661 528.919 475.745 533.946C510.788 504.349 575.836 428.802 572.563 414.743C568.389 396.871 488.1 320.64 458.833 296.098C429.572 271.495 390.367 274.463 390.367 274.463C390.367 274.463 385.938 353.766 407.879 347.122C429.885 340.423 506.101 419.186 506.101 419.186C506.101 419.186 503.894 422.795 500.574 428.698Z" fill="#FCCDAA"/>
<path d="M80.4783 214.743C80.4783 214.743 76.2783 205.811 68.4064 187.501L56.8948 161.594C56.8948 161.594 14.5734 109.849 62.6773 153.39C62.6773 153.39 65.5052 153.263 64.715 150.317C63.9248 147.371 46.7054 108.667 50.1791 107.432C53.6528 106.197 71.2568 142.545 73.4561 142.61C75.7162 142.68 61.0715 98.1934 66.0639 97.8226C71.0564 97.4518 82.573 139.835 85.828 139.01C89.0882 138.124 87.299 100.183 91.4972 99.0708C95.6345 97.9534 98.95 140.985 102.656 148.528C106.255 155.878 110.032 155.403 110.032 155.403C110.032 155.403 115.413 156.229 116.608 145.797C117.732 135.481 120.09 131.517 126.305 133.333C126.305 133.333 126.621 143.281 126.06 147.705C125.726 150.187 122.971 179.656 109.682 188.262L111.546 210.959L80.4783 214.743Z" fill="#FCCDAA"/>
<path d="M399.879 59.3832C399.879 59.3832 347.936 -13.1471 284.478 55.2469C256.96 84.9337 247.209 142.592 240.343 224.627C236.456 270.965 318.401 258.042 318.401 258.042C318.401 258.042 355.353 114.018 399.879 59.3832Z" fill="#C1724F"/>
<path d="M397.056 91.7269C397.056 91.7269 350.303 33.0515 298.369 84.7887C275.816 107.243 269.352 152.198 266.091 216.35C264.286 252.637 328.1 260.585 328.1 260.585C328.1 260.585 360.755 133.221 397.056 91.7269Z" fill="#935133"/>
<path d="M372.491 265.898L387.42 159.684L328.52 199.008L319.224 254.929L270.364 258.36C270.364 258.36 247.206 326.023 328.083 336.405C409.022 346.792 439.784 291.965 439.784 291.965L372.491 265.898Z" fill="#FCCDAA"/>
<path d="M324.988 248.929C341.595 248.812 358.243 248.945 374.814 249.254L387.406 159.684L328.506 199.007L320.301 248.59C321.887 248.664 323.468 248.799 324.988 248.929Z" fill="#FCCDAA"/>
<path d="M402.079 83.8843C402.079 83.8843 319.84 19.7359 285.786 106.743C251.476 194.585 316.737 272.537 398.934 202.739C425.668 180.089 454.794 94.8676 402.079 83.8843Z" fill="#FCCDAA"/>
<path d="M312.18 144.882C310.49 148.903 308.218 152.568 305.486 155.887C304.18 157.552 302.642 159.075 300.982 160.587C300.124 161.31 299.21 161.967 298.236 162.619C297.719 162.942 297.201 163.265 296.567 163.518C295.872 163.765 295.172 164.073 293.956 163.969L296.191 161.465C296.266 162.022 296.437 162.894 296.684 163.589C296.925 164.344 297.173 165.039 297.481 165.739C298.096 167.139 298.965 168.438 299.9 169.681C300.902 170.869 302.096 171.951 303.493 172.805C304.885 173.719 306.43 174.28 308.091 174.911C307.234 174.9 306.307 175.004 305.466 174.81C304.62 174.677 303.713 174.538 302.821 174.217C301.084 173.763 299.383 172.883 297.956 171.659C296.463 170.491 295.239 169.039 294.209 167.481C293.723 166.705 293.244 165.868 292.89 164.981C292.537 164.093 292.24 163.271 291.968 162.146L294.203 159.641C294.02 159.626 294.974 159.217 295.634 158.661C296.349 158.171 297.08 157.498 297.811 156.826C299.329 155.546 300.735 154.135 302.324 152.739C305.43 150.064 308.603 147.333 312.18 144.882Z" fill="#CF976E"/>
<path d="M306.399 186.833L348.355 189.673C348.36 189.612 314.322 210.292 306.399 186.833Z" fill="white"/>
<path d="M333.404 121.397C333.404 121.397 335.166 119.403 338.535 117.24C340.275 116.225 342.385 115.18 344.829 114.531C347.283 113.76 350.122 113.512 352.919 113.75C354.307 113.991 355.761 114.176 357.057 114.776C358.435 115.139 359.594 115.911 360.692 116.678C361.862 117.329 362.691 118.38 363.541 119.187C364.452 120 364.982 120.964 365.518 121.867C366.721 123.561 367.067 125.245 367.465 126.32C367.803 127.39 367.989 128.079 367.989 128.079C367.989 128.079 367.478 127.607 366.755 126.749C366.361 126.348 365.976 125.825 365.476 125.231C365.036 124.643 364.282 124.15 363.604 123.48C362.921 122.87 362.248 122.139 361.372 121.636C360.502 121.072 359.703 120.391 358.695 119.999C356.822 118.982 354.608 118.365 352.364 118.112C347.819 117.541 343.007 118.663 339.377 119.578C335.929 120.509 333.404 121.397 333.404 121.397Z" fill="#BC6040"/>
<path d="M286.086 111.799C286.086 111.799 287.301 109.759 290.072 107.423C291.458 106.254 293.213 105.057 295.313 104.133C296.394 103.674 297.474 103.215 298.721 102.954C299.912 102.626 301.26 102.619 302.558 102.484C303.89 102.659 305.239 102.652 306.479 103.186C307.801 103.482 308.905 104.189 309.948 104.89C311.062 105.475 311.769 106.515 312.497 107.312C313.286 108.114 313.695 109.068 314.114 109.9C315.079 111.513 315.193 113.054 315.475 114.058C315.696 115.057 315.766 115.675 315.766 115.675C315.766 115.675 315.31 115.269 314.643 114.477C314.036 113.69 313.151 112.574 311.891 111.548C311.325 111.01 310.768 110.35 310.009 109.917C309.255 109.424 308.628 108.881 307.797 108.565L306.623 107.975C306.202 107.878 305.721 107.776 305.3 107.679C304.475 107.302 303.481 107.463 302.574 107.324C301.586 107.424 300.679 107.285 299.675 107.567C298.682 107.727 297.749 107.893 296.806 108.18C294.93 108.633 293.099 109.273 291.522 109.812C288.307 110.886 286.086 111.799 286.086 111.799Z" fill="#BC6040"/>
<path d="M329.643 48.3787C329.643 48.3787 315.909 95.2861 383.889 121.901C434.743 141.79 378.951 57.663 329.643 48.3787Z" fill="#C1724F"/>
<path d="M289.303 255.869C289.303 255.869 278.335 300.501 323.561 305.212C368.793 309.862 396.749 262.084 396.749 262.084L430.75 277.781C430.75 277.781 419.627 291.165 416.94 308.329C414.817 321.745 414.143 335.406 418.496 354.763C409.925 407.194 399.535 468.044 396.597 473.061C391.299 482.041 284.332 488.178 206.223 430.2C206.223 430.2 215.133 358.689 265.269 257.619L289.303 255.869Z" fill="url(#paint0_linear_908_3186)"/>
<path d="M416.944 308.274C419.632 291.109 430.755 277.725 430.755 277.725L402.232 264.577C391.714 339.87 284.802 420.118 213.638 394.212C207.894 417.057 206.222 430.205 206.222 430.205C284.326 488.244 391.298 482.046 396.596 473.066C399.595 468.054 409.985 407.204 418.495 354.768C414.147 335.351 414.816 321.75 416.944 308.274Z" fill="url(#paint1_linear_908_3186)"/>
<path d="M331.568 55.2189C331.568 55.2189 402.068 83.8864 380.761 164.323C363.777 228.531 354.293 248.547 361.263 280.314C361.263 280.314 422.376 283.316 427.503 264.828C437.513 228.566 431.367 214.446 442.781 145.171C452.658 85.3179 438.039 54.1847 416.626 38.8251C395.157 23.3995 339.623 21.0567 331.568 55.2189Z" fill="#C1724F"/>
<path d="M339.369 148.547C339.369 148.547 339.45 146.165 340.657 142.777C340.912 141.941 341.355 141.06 341.863 140.124C342.432 139.192 342.886 138.189 343.82 137.289C344.571 136.373 345.632 135.423 347.037 134.746C348.503 134.075 350.404 134.053 352.009 134.618C352.713 134.985 353.411 135.411 354.049 135.833L355.45 137.361C356.472 138.306 356.799 139.497 357.385 140.527C358.496 142.582 358.872 144.635 359.341 146.328C359.897 149.867 359.882 152.193 359.882 152.193C359.882 152.193 358.457 150.234 356.871 147.282C355.885 145.912 355.057 144.126 353.905 142.558C353.293 141.832 352.763 140.868 352.135 140.325L351.235 139.391C350.88 139.238 350.587 139.091 350.354 138.948C349.822 138.719 349.336 138.678 348.702 138.93C348.068 139.182 347.302 139.546 346.632 140.224C345.246 141.392 344.017 142.879 342.93 144.134C340.817 146.649 339.369 148.547 339.369 148.547Z" fill="#1E1B1B"/>
<path d="M291.19 138.314C291.19 138.314 291.27 135.932 292.478 132.544C292.733 131.709 293.175 130.828 293.683 129.891C294.248 129.021 294.706 127.957 295.64 127.057C296.392 126.141 297.453 125.19 298.858 124.514C300.323 123.842 302.224 123.821 303.829 124.386C304.533 124.752 305.232 125.179 305.87 125.601L307.271 127.129C308.292 128.073 308.62 129.265 309.206 130.295C310.317 132.349 310.693 134.403 311.161 136.096C311.717 139.634 311.703 141.961 311.703 141.961C311.703 141.961 310.277 140.002 308.691 137.049C307.706 135.679 306.878 133.894 305.725 132.326C305.113 131.6 304.583 130.636 303.956 130.093L303.055 129.158C302.701 129.006 302.407 128.858 302.174 128.716C301.643 128.487 301.156 128.445 300.522 128.698C299.888 128.95 299.122 129.313 298.452 129.991C297.067 131.159 295.837 132.647 294.751 133.902C292.643 136.356 291.19 138.314 291.19 138.314Z" fill="#1E1B1B"/>
<path d="M288.531 254.941C299.616 339.057 316.214 423.152 347.472 502.678C358.443 530.622 371.342 562.527 396.692 581.285C422.158 600.113 451.638 596.99 457.625 563.387" stroke="#FDE3D0" stroke-width="1.482" stroke-miterlimit="10"/>
<path d="M369.642 547.138C369.642 547.138 437.335 526.815 453.797 531.28C470.32 535.75 477.476 631.474 414.124 636.794C350.771 642.115 369.642 547.138 369.642 547.138Z" fill="url(#paint2_linear_908_3186)"/>
<path d="M458.366 504.967C451.588 514.802 448.462 519.864 445.064 526.679C428.839 514.395 409.259 540.777 408.027 546.613C406.774 552.692 426.253 539.714 426.253 539.714C419.802 547.861 414.949 557.369 414.949 557.369C437.575 585.816 448.651 565.079 454.791 558.436C455.603 557.525 478.411 528.479 494.86 512.976C485.418 505.19 467.666 512.987 458.366 504.967Z" fill="#FCCDAA"/>
<path d="M429.228 532.314C429.228 532.314 376.739 599.193 418.568 558.231C418.568 558.231 383.092 605.858 423.401 564.767C423.401 564.767 399.021 607.951 433.115 567.922C433.115 567.922 407.685 614.078 454.331 558.277L429.228 532.314Z" fill="#FCCDAA"/>
<defs>
<linearGradient id="paint0_linear_908_3186" x1="223.94" y1="375.56" x2="194.129" y2="309.349" gradientUnits="userSpaceOnUse">
<stop stop-color="#F98D3D"/>
<stop offset="1" stop-color="#F9AE3D"/>
</linearGradient>
<linearGradient id="paint1_linear_908_3186" x1="341.592" y1="581.094" x2="212.176" y2="524.431" gradientUnits="userSpaceOnUse">
<stop stop-color="#F98D3D"/>
<stop offset="1" stop-color="#F9AE3D"/>
</linearGradient>
<linearGradient id="paint2_linear_908_3186" x1="425.664" y1="690.423" x2="364.424" y2="665.282" gradientUnits="userSpaceOnUse">
<stop stop-color="#F98D3D"/>
<stop offset="1" stop-color="#F9AE3D"/>
</linearGradient>
</defs>
</svg>
