<svg width="81" height="92" viewBox="0 0 81 92" fill="none" xmlns="http://www.w3.org/2000/svg">
<g clip-path="url(#clip0_2202_6883)">
<path d="M0.201275 68.3645C0.201275 68.3645 -1.03127 47.1866 9.69043 44.2558C20.4121 41.325 34.7424 71.2261 9.60627 81.7779L0.201275 68.3645Z" fill="#F4A28C"/>
<path opacity="0.1" d="M0.201275 68.3645C0.201275 68.3645 -1.03127 47.1866 9.69043 44.2558C20.4121 41.325 34.7424 71.2261 9.60627 81.7779L0.201275 68.3645Z" fill="#FCCDAA"/>
<path d="M72.0217 7.07615L7.45508 14.501L16.3691 91.7773L80.9358 84.3525L72.0217 7.07615Z" fill="#BABABA"/>
<path d="M69.7413 5.13206L6.99414 12.3477L15.9081 89.624L78.6553 82.4084L69.7413 5.13206Z" fill="#CCCCCC"/>
<path d="M67.216 3.3264L4.46875 10.542L13.3828 87.8183L76.13 80.6027L67.216 3.3264Z" fill="#E6E6E6"/>
<path d="M33.1632 13.7201L12.1016 16.1421L14.9096 40.4852L35.9712 38.0632L33.1632 13.7201Z" fill="white"/>
<path d="M14.4238 36.2348C14.4238 36.2348 15.0723 30.9119 19.9876 28.8806C24.903 26.8493 31.9023 26.4589 35.4811 33.8229L35.9761 38.0684L14.9188 40.4901L14.4238 36.2348Z" fill="#2F66F4"/>
<path d="M22.605 21.2793L22.1348 28.1145L26.4017 30.0865L24.7484 23.1327L22.605 21.2793Z" fill="#FCCDAA"/>
<path opacity="0.31" d="M25.0496 24.2101C24.5709 24.1339 24.1251 23.9191 23.7676 23.5923C23.9988 24.5566 24.5879 25.3974 25.4159 25.9448L25.0496 24.2101Z" fill="#F2AE7B"/>
<path d="M25.6049 20.4782C25.9613 21.5841 26.1677 22.7327 26.2188 23.8933C26.2131 24.0323 26.1797 24.1687 26.1207 24.2947C26.0617 24.4206 25.9781 24.5336 25.8749 24.627C25.7717 24.7204 25.6509 24.7923 25.5196 24.8386C25.3882 24.8849 25.249 24.9046 25.1099 24.8966C24.663 24.9106 24.2214 24.796 23.8379 24.5664C23.4543 24.3369 23.145 24.002 22.9468 23.6017L21.9469 21.9609C21.7766 21.6113 21.7194 21.2176 21.7832 20.8341C21.8471 20.4507 22.0288 20.0966 22.3033 19.8209C23.2636 18.7286 25.2634 19.2179 25.6049 20.4782Z" fill="#FCCDAA"/>
<path d="M25.9368 21.7241L26.6842 22.3815C26.7299 22.4179 26.7652 22.4658 26.7864 22.5202C26.8076 22.5747 26.814 22.6338 26.805 22.6915C26.7959 22.7492 26.7718 22.8035 26.7349 22.8489C26.698 22.8942 26.6498 22.9291 26.5951 22.9498L25.8477 23.276L25.9368 21.7241Z" fill="#FCCDAA"/>
<path d="M22.2582 24.107L21.2336 21.4678C21.2336 21.4678 19.6248 21.3739 19.9812 20.2915C20.3376 19.2091 21.0504 19.7973 20.9415 18.6358C20.8326 17.4744 21.7682 17.1037 22.5255 17.6918C23.2829 18.28 22.8621 17.3904 23.6987 17.168C24.5352 16.9456 24.8025 17.3014 24.8916 17.9439C24.9807 18.5864 26.1341 17.766 26.54 18.5469C26.9459 19.3278 27.0894 20.0988 24.9807 20.4793C22.872 20.8599 24.6144 22.4019 22.2582 24.107Z" fill="#F98D3D"/>
<path d="M23.8276 22.6929C23.8276 22.6929 23.6345 21.912 23.0554 22.1097C22.4762 22.3074 22.7584 23.4342 23.585 23.3601L23.8276 22.6929Z" fill="#FCCDAA"/>
<path opacity="0.08" d="M14.4238 36.2351C14.4238 36.2351 16.8196 40.0555 21.8488 37.3224C26.878 34.5893 32.5062 33.1462 35.7633 36.334L35.9613 38.044L14.904 40.4658L14.4238 36.2351Z" fill="black"/>
<path d="M53.5785 12.1078L38.0195 13.897L38.4364 17.5106L53.9953 15.7214L53.5785 12.1078Z" fill="#BABABA"/>
<path opacity="0.5" d="M54.3871 19.1307L38.8281 20.9199L39.245 24.5336L54.8039 22.7444L54.3871 19.1307Z" fill="#BABABA"/>
<path opacity="0.11" d="M36.4951 42.5761L22.6523 44.168L23.0692 47.7816L36.9119 46.1898L36.4951 42.5761Z" fill="#BABABA"/>
<path opacity="0.11" d="M37.7177 53.2441L23.875 54.8359L24.2918 58.4496L38.1346 56.8578L37.7177 53.2441Z" fill="#BABABA"/>
<path opacity="0.11" d="M63.1533 39.5058L49.3105 41.0977L49.7274 44.7113L63.5701 43.1195L63.1533 39.5058Z" fill="#BABABA"/>
<path opacity="0.11" d="M64.3818 50.1787L50.5391 51.7705L50.9559 55.3842L64.7987 53.7923L64.3818 50.1787Z" fill="#BABABA"/>
<path opacity="0.36" d="M63.3951 25.212L39.6387 27.9438L40.7425 37.5132L64.4989 34.7813L63.3951 25.212Z" fill="white"/>
<path opacity="0.36" d="M67.401 59.9502L17.8867 65.644L19.4759 79.4211L68.9902 73.7272L67.401 59.9502Z" fill="white"/>
<path d="M20.3369 43.7445L15.3555 44.3174L15.9292 49.2911L20.9106 48.7182L20.3369 43.7445Z" fill="#2F66F4"/>
<path d="M46.6396 40.7192L41.6582 41.292L42.2319 46.2657L47.2134 45.6928L46.6396 40.7192Z" fill="#F98D3D"/>
<path d="M21.5634 54.4125L16.582 54.9854L17.1558 59.959L22.1372 59.3862L21.5634 54.4125Z" fill="#24285B"/>
<path d="M47.874 51.3866L42.8926 51.9595L43.4663 56.9332L48.4477 56.3603L47.874 51.3866Z" fill="white"/>
<path d="M68.446 68.7585L53.5312 70.4736L54.105 75.4473L69.0197 73.7322L68.446 68.7585Z" fill="#2F66F4"/>
<path opacity="0.1" d="M19.1694 51.0815C19.1694 51.0815 23.8224 54.131 20.392 60.6993C16.9617 67.2676 20.8177 72.3187 21.6543 74.3203C22.4908 76.322 23.5848 90.9414 23.5848 90.9414L16.0014 91.8409L12.0859 76.5691L13.7244 61.1787L19.1694 51.0815Z" fill="black"/>
<path d="M55.4538 4.66289L55.3053 3.56075C55.2106 2.72283 55.4522 1.88155 55.9773 1.2211C56.5024 0.56065 57.2682 0.134834 58.107 0.0368767C58.5224 -0.0113321 58.9433 0.0226697 59.3455 0.136938C59.7478 0.251206 60.1235 0.4435 60.4513 0.70283C60.779 0.96216 61.0524 1.28344 61.2558 1.64831C61.4591 2.01318 61.5884 2.41449 61.6364 2.82929L62.8838 13.6629C62.9196 13.9689 62.8946 14.2791 62.8103 14.5755C62.7259 14.8719 62.5837 15.1488 62.392 15.3903C62.2002 15.6318 61.9626 15.8332 61.6928 15.9828C61.423 16.1325 61.1263 16.2275 60.8196 16.2625C60.2007 16.3335 59.5789 16.1563 59.0907 15.7699C58.6026 15.3835 58.2879 14.8194 58.2159 14.2016L57.5427 8.36963" stroke="#24285B" stroke-width="2.03" stroke-miterlimit="10"/>
<path d="M6.56329 58.6389C6.56329 58.6389 12.5033 47.9239 16.2999 47.6966C19.4184 47.5137 21.0272 53.3703 15.9386 60.0079C14.9035 61.3443 14.1676 62.887 13.7808 64.5317C13.3939 66.1764 13.3651 67.8848 13.6962 69.5416C14.2655 72.3192 14.2506 75.8134 12.1518 79.021C7.73645 85.7672 2.1776 82.4806 0.836149 75.3538C-0.505301 68.2269 -0.698355 66.0721 6.56329 58.6389Z" fill="#FCCDAA"/>
<path d="M-0.550781 83.6169V78.0815H18.1305V82.7026L-0.550781 83.6169Z" fill="#2F66F4"/>
<path d="M-0.550781 83.6169V78.0815H18.1305V82.7026L-0.550781 83.6169Z" fill="#2F66F4"/>
</g>
<defs>
<clipPath id="clip0_2202_6883">
<rect width="81" height="92" fill="white"/>
</clipPath>
</defs>
</svg>
