<svg width="643" height="627" viewBox="0 0 643 627" fill="none" xmlns="http://www.w3.org/2000/svg">
<path d="M558.464 430.698C558.464 430.698 607.448 229.77 590.268 233.525C573.088 237.28 561.82 224.976 555.667 257.093C549.514 289.289 497.254 438.687 497.254 438.687L558.464 430.698Z" fill="#FCCDAA"/>
<path d="M597.7 207.795C588.031 206.277 597.78 194.693 597.78 194.693C615.121 170.965 601.776 168.089 597.62 166.811C593.465 165.532 590.509 184.786 577.723 194.613C564.938 204.44 557.266 241.03 555.269 257.488C553.191 273.946 579.161 270.43 579.161 270.43C586.433 273.386 594.025 272.667 601.057 270.91C600.977 270.59 600.977 270.271 600.897 269.951C578.043 251.576 583.157 226.809 597.7 207.795Z" fill="#FCCDAA"/>
<path d="M245.14 284.25L257.366 415.193L174.9 387.151L161.635 252.453L245.14 284.25Z" fill="#FCCDAA"/>
<path d="M187.365 52.4134C129.111 68.3917 132.388 108.737 132.388 108.737C132.388 108.737 135.584 139.895 138.301 177.045C132.548 169.774 123.198 167.058 113.929 171.532C94.2711 180.959 111.771 243.435 141.977 236.644C144.054 254.22 146.372 267.882 148.849 272.515C158.198 290.092 196.954 315.817 230.516 318.693C264.078 321.569 318.256 286.736 316.498 247.349C314.82 208.042 296.92 90.5216 296.92 90.5216C296.92 90.5216 283.895 26.0491 187.365 52.4134Z" fill="#FCCDAA"/>
<path d="M225.164 128.47C225.164 128.47 221.568 128.47 216.774 128.31C214.376 128.31 211.58 128.15 208.783 128.23C207.344 128.15 205.906 128.39 204.548 128.39C203.109 128.31 201.751 128.71 200.312 128.79C198.954 129.109 197.595 129.189 196.317 129.589C195.118 130.068 193.68 130.228 192.641 130.867C190.244 131.746 188.086 133.024 186.248 134.382C184.331 135.66 182.812 137.019 181.773 138.057C180.655 139.016 179.855 139.575 179.855 139.575C179.855 139.575 179.855 138.696 180.095 137.178C180.335 135.581 180.735 133.344 182.173 130.947C182.732 129.669 183.611 128.39 184.73 127.192C185.769 125.914 187.047 124.715 188.566 123.756C191.442 121.519 195.278 120.401 198.954 119.602C200.792 119.522 202.71 119.203 204.468 119.362C206.305 119.362 207.983 119.682 209.662 120.002C212.938 120.641 215.815 121.839 218.132 123.037C222.847 125.674 225.164 128.47 225.164 128.47Z" fill="#141B30"/>
<path d="M260.087 125.272C260.087 125.272 261.126 122.236 264.322 118.961C265.92 117.363 267.998 115.605 270.715 114.407C273.352 113.049 276.628 112.33 280.064 112.17C281.822 112.33 283.5 112.41 285.178 112.969C286.857 113.288 288.295 114.247 289.653 115.046C291.092 115.765 292.051 117.043 293.089 118.002C294.128 118.961 294.687 120.159 295.327 121.198C296.605 123.195 296.925 125.192 297.165 126.47C297.404 127.829 297.404 128.548 297.404 128.548C297.404 128.548 296.685 128.148 295.566 127.509C294.448 126.87 293.089 125.751 291.331 124.873C290.452 124.393 289.653 123.834 288.694 123.435C287.736 123.115 286.856 122.556 285.898 122.316C283.98 121.677 282.062 121.357 279.904 121.357C275.749 121.198 270.955 122.476 266.959 123.435C263.203 124.553 260.087 125.272 260.087 125.272Z" fill="#141B30"/>
<path d="M201.111 248.141L275.906 248.86C275.906 248.86 259.285 284.172 201.111 248.141Z" fill="white"/>
<path d="M396.997 627H246.497H95.9971L93.3152 489.573L20.5183 475.672C20.5183 475.672 8.69164 426.698 38.5776 391.706C44.7305 384.516 94.7535 350.482 159.639 348.964C165.792 348.804 171.546 347.446 176.74 347.446H230.838H235.473L309.549 345.928L379.069 443.316L396.997 627Z" fill="url(#paint0_linear_33_1627)"/>
<path d="M230.837 347.447C230.837 347.447 320.335 332.028 369.799 356.715C419.262 381.481 498.372 396.501 498.372 396.501L545.358 269.633L600.975 283.534C600.975 283.534 569.171 511.225 535.13 501.958C501.089 492.691 331.123 449.389 331.123 449.389L230.837 347.447Z" fill="url(#paint1_linear_33_1627)"/>
<path d="M269.198 626.91H166.698C143.045 608.376 124.045 583.317 95.1982 573.41L95.9961 626.91H403.198H269.198Z" fill="url(#paint2_linear_33_1627)"/>
<path d="M156.521 364.388L153.484 308.783L255.448 313.417L253.93 356.718L156.521 364.388Z" fill="#FCCDAA"/>
<path d="M133.109 169.93C151.168 211.394 134.786 279.461 165.472 304.308C196.796 329.634 251.054 338.422 282.059 327.956C316.579 316.371 337.036 291.685 331.682 256.852C325.369 215.868 308.508 169.211 308.508 169.211C308.508 169.211 314.981 212.432 271.75 209.636C234.033 207.159 163.793 264.761 153.885 170.249C143.177 68.9466 223.485 78.6135 254.33 81.0901C285.175 83.5668 304.593 68.1477 297.081 42.4225L286.613 52.6487C286.613 52.6487 299.319 23.0089 279.342 7.27018C279.342 7.27018 277.504 23.648 265.597 27.4828C265.597 27.4828 268.874 8.14896 252.173 0C252.173 0 256.568 16.0582 246.1 16.937C235.631 17.8158 158.519 2.7962 145.414 54.1666C145.414 54.1666 126.076 50.8912 119.764 79.2528C113.211 107.534 114.969 128.466 133.109 169.93Z" fill="#141B30"/>
<path d="M252.333 134.613C258.646 145.798 264 157.302 268.874 168.967C273.749 180.711 278.144 192.535 282.059 204.678L282.858 207.235L280.461 207.714C273.03 209.232 265.438 210.431 257.847 211.309C264.879 208.274 272.071 205.637 279.342 203.24L277.824 206.276C272.55 194.772 267.756 182.948 263.44 171.044C259.045 159.22 255.29 147.156 252.333 134.613Z" fill="#7F6654"/>
<path d="M218.453 238.796L288.134 229.129C288.134 229.129 274.309 279.381 218.453 238.796Z" fill="white"/>
<path d="M201.83 161.062C201.83 161.062 201.67 160.423 201.431 159.305C201.351 158.746 201.191 158.106 201.271 157.307C201.271 156.509 201.191 155.47 201.431 154.511C201.75 152.514 202.709 150.117 204.547 147.96C205.586 147.001 206.704 145.963 208.143 145.324C209.581 144.685 211.18 144.285 212.778 144.205C214.376 144.205 215.974 144.445 217.332 145.004C218.771 145.404 219.889 146.362 221.088 147.081C223.166 148.839 224.604 150.756 225.403 152.594C226.282 154.351 226.682 156.029 226.921 157.068C227.161 158.186 227.241 158.825 227.241 158.825C227.241 158.825 226.682 158.426 225.963 157.627C225.243 156.748 224.045 155.79 222.766 154.671C221.408 153.553 219.89 152.354 218.211 151.396C217.332 150.996 216.453 150.597 215.574 150.357C214.695 150.037 213.817 149.957 213.017 150.037C209.581 149.877 206.465 152.674 204.707 155.63C203.828 156.988 203.029 158.346 202.629 159.385C202.15 160.503 201.83 161.062 201.83 161.062Z" fill="#50586F"/>
<path d="M271.352 151.802C271.352 151.802 271.192 151.163 270.953 150.124C270.793 149.086 270.553 147.488 270.713 145.491C270.953 143.573 271.432 141.256 272.87 139.019C273.589 137.901 274.469 136.703 275.667 135.904C276.786 134.945 278.304 134.226 279.822 133.826C281.421 133.507 283.099 133.587 284.617 133.906C286.135 134.226 287.414 135.105 288.532 135.824C290.61 137.501 291.968 139.499 292.768 141.177C293.647 142.934 293.966 144.452 294.206 145.571C294.446 146.609 294.446 147.248 294.446 147.248C294.446 147.248 293.886 146.849 293.167 146.13C292.528 145.331 291.329 144.372 290.051 143.254C288.772 142.135 287.254 141.017 285.736 140.218C284.137 139.499 282.619 139.179 281.181 139.579C279.743 139.818 278.304 140.857 277.025 142.135C275.747 143.414 274.788 145.011 273.909 146.449C273.19 147.887 272.311 149.166 272.071 150.204C271.672 151.243 271.352 151.802 271.352 151.802Z" fill="#50586F"/>
<path d="M597.059 207.8C597.059 207.8 638.132 197.974 637.493 216.988C637.493 216.988 648.68 228.093 639.011 235.602C639.011 235.602 647.162 248.465 637.573 253.179C637.573 253.179 641.888 268.997 627.744 270.755C613.6 272.513 578.92 282.819 570.929 262.686C563.018 242.713 597.059 207.8 597.059 207.8Z" fill="#FCCDAA"/>
<path d="M20.3579 430.855C20.3579 430.855 -2.61683 551.263 0.499612 627H76L116.329 458.818L20.3579 430.855Z" fill="url(#paint3_linear_33_1627)"/>
<defs>
<linearGradient id="paint0_linear_33_1627" x1="118.388" y1="596.439" x2="355.808" y2="596.558" gradientUnits="userSpaceOnUse">
<stop stop-color="#2F66F4"/>
<stop offset="1" stop-color="#0D9AE9"/>
</linearGradient>
<linearGradient id="paint1_linear_33_1627" x1="321.557" y1="385.933" x2="536.563" y2="386.144" gradientUnits="userSpaceOnUse">
<stop stop-color="#2F66F4"/>
<stop offset="1" stop-color="#0D9AE9"/>
</linearGradient>
<linearGradient id="paint2_linear_33_1627" x1="170.688" y1="600.16" x2="349.598" y2="600.796" gradientUnits="userSpaceOnUse">
<stop stop-color="#2F66F4"/>
<stop offset="1" stop-color="#0D9AE9"/>
</linearGradient>
<linearGradient id="paint3_linear_33_1627" x1="28.6697" y1="528.928" x2="96.1214" y2="528.952" gradientUnits="userSpaceOnUse">
<stop stop-color="#2F66F4"/>
<stop offset="1" stop-color="#0D9AE9"/>
</linearGradient>
</defs>
</svg>
