<svg xmlns="http://www.w3.org/2000/svg" width="808" height="604" fill="none" viewBox="0 0 808 604"><path fill="#FCCDAA" d="M342.369 352.762C333.594 384.934 177.875 417.903 177.875 417.903C177.875 417.903 175.038 412.408 170.43 403.811C155.629 369.069 122.393 298.078 105.997 262.981C98.6406 279.732 83.3082 292.76 60.3535 293.647C70.1912 360.206 112.378 496.339 131.965 503.075C157.135 511.761 312.944 471.789 365.766 454.861C418.588 437.845 445.177 387.327 445.177 387.327C445.177 387.327 351.143 320.59 342.369 352.762Z"/><path fill="#FCCDAA" d="M703.08 565.823C680.568 604.731 692.61 582.375 681 604C694.649 604 756 604 756 604C803.062 556.85 812.004 556.694 805.534 536.752C797.291 511.405 671.706 410.989 626.328 379.083C580.95 347.088 524.583 356.217 524.583 356.217C524.583 356.217 527.951 471.522 558.882 459.203C589.902 446.795 709.904 551.376 709.904 551.376C709.904 551.376 707.157 556.871 703.08 565.823Z"/><path fill="#FCCDAA" d="M68.7781 308.003C68.7781 308.003 61.5989 295.595 47.9502 270.07L28.0975 233.998C28.0975 233.998 -39.5256 164.337 35.4538 221.413C35.4538 221.413 39.5305 220.881 38.0239 216.716C36.5172 212.55 6.82699 158.665 11.7015 156.449C16.5761 154.233 46.5322 204.662 49.7228 204.485C53.0021 204.308 26.3248 141.736 33.5037 140.584C40.6826 139.432 62.5737 199.345 67.1823 197.749C71.791 196.065 64.524 141.382 70.4621 139.255C76.3115 137.128 86.4147 198.99 92.7073 209.448C98.8226 219.641 104.229 218.489 104.229 218.489C104.229 218.489 112.117 219.02 112.56 203.776C112.915 188.709 115.839 182.683 125.057 184.544C125.057 184.544 126.741 198.902 126.475 205.371C126.297 209.005 125.943 251.99 107.774 266.082L113.269 298.697L68.7781 308.003Z"/><path fill="#C1724F" d="M511.831 43.8012C511.831 43.8012 427.723 -54.7535 344.324 52.0435C308.163 98.3961 301.162 183.036 301.339 302.595C301.428 370.13 418.417 341.326 418.417 341.326C418.417 341.326 454.134 128.352 511.831 43.8012Z"/><path fill="#935133" d="M511.732 90.9555C511.732 90.9555 436.841 11.8105 368.065 93.0825C338.197 128.357 334.386 194.208 337.577 287.444C339.438 340.178 432.764 343.812 432.764 343.812C432.764 343.812 464.315 155.477 511.732 90.9555Z"/><path fill="#FCCDAA" d="M497.659 346.028L506.168 190.485L425.782 254.652L419.224 336.722L348.942 347.712C348.942 347.712 323.771 448.482 442.09 453.534C560.497 458.586 598.253 375.452 598.253 375.452L497.659 346.028Z"/><path fill="#FCCDAA" d="M426.825 327.327C450.843 325.112 474.95 323.25 498.968 321.655L506.147 190.486L425.761 254.652L420 327.416C422.304 327.327 424.609 327.327 426.825 327.327Z"/><path fill="#FCCDAA" d="M518.031 78.989C518.031 78.989 391.115 -3.70105 352.562 126.405C313.743 257.752 417.793 362.511 528.135 251.371C564.029 215.299 595.67 88.3836 518.031 78.989Z"/><path fill="#CF976E" d="M395.461 178.341C393.511 184.367 390.675 189.951 387.13 195.091C385.446 197.662 383.408 200.055 381.192 202.448C380.04 203.6 378.799 204.663 377.469 205.727C376.76 206.259 376.051 206.79 375.165 207.233C374.19 207.677 373.215 208.208 371.443 208.208L374.367 204.309C374.545 205.106 374.899 206.347 375.342 207.322C375.785 208.386 376.229 209.36 376.761 210.335C377.824 212.285 379.242 214.058 380.748 215.742C382.344 217.337 384.205 218.755 386.332 219.819C388.459 220.971 390.764 221.591 393.245 222.3C392.005 222.389 390.675 222.655 389.434 222.477C388.194 222.389 386.864 222.3 385.535 221.946C382.964 221.503 380.394 220.439 378.178 218.844C375.874 217.337 373.924 215.387 372.24 213.26C371.443 212.196 370.645 211.044 370.025 209.804C369.404 208.563 368.873 207.411 368.341 205.815L371.265 201.916C370.999 201.916 372.329 201.207 373.215 200.32C374.19 199.523 375.165 198.459 376.14 197.396C378.179 195.357 380.04 193.142 382.167 190.926C386.332 186.672 390.586 182.329 395.461 178.341Z"/><path fill="#fff" d="M392.269 239.763L453.333 238.7C453.333 238.611 406.626 272.733 392.269 239.763Z"/><path fill="#BC6040" d="M423.28 141.741C423.28 141.741 425.584 138.639 430.193 135.094C432.586 133.41 435.511 131.638 438.967 130.397C442.424 128.979 446.5 128.27 450.577 128.27C452.616 128.447 454.743 128.536 456.693 129.245C458.731 129.599 460.504 130.574 462.188 131.549C463.96 132.347 465.29 133.765 466.619 134.828C468.037 135.892 468.924 137.221 469.81 138.462C471.76 140.766 472.468 143.159 473.177 144.666C473.798 146.173 474.153 147.148 474.153 147.148C474.153 147.148 473.355 146.527 472.203 145.375C471.582 144.843 470.962 144.134 470.164 143.337C469.455 142.539 468.303 141.918 467.24 141.032C466.176 140.234 465.112 139.26 463.783 138.639C462.453 137.93 461.213 137.044 459.706 136.601C456.87 135.36 453.591 134.74 450.312 134.651C443.665 134.385 436.84 136.601 431.7 138.373C426.825 140.146 423.28 141.741 423.28 141.741Z"/><path fill="#BC6040" d="M353.623 133.68C353.623 133.68 355.13 130.578 358.852 126.855C360.714 124.994 363.106 123.044 366.031 121.449C367.538 120.651 369.044 119.854 370.817 119.322C372.501 118.702 374.451 118.524 376.312 118.17C378.262 118.258 380.212 118.081 382.073 118.702C384.023 118.967 385.707 119.854 387.302 120.74C388.986 121.449 390.138 122.867 391.29 123.931C392.531 124.994 393.24 126.324 393.949 127.476C395.545 129.691 395.899 131.907 396.431 133.325C396.874 134.743 397.051 135.63 397.051 135.63C397.051 135.63 396.342 135.098 395.278 134.034C394.303 132.971 392.886 131.464 390.936 130.135C390.049 129.426 389.163 128.539 388.011 128.007C386.859 127.387 385.884 126.678 384.643 126.324L382.871 125.615C382.25 125.526 381.541 125.437 380.921 125.349C379.68 124.906 378.262 125.26 376.932 125.172C375.514 125.437 374.185 125.349 372.767 125.88C371.349 126.235 370.019 126.59 368.69 127.121C366.031 128.008 363.461 129.16 361.245 130.135C356.725 132.085 353.623 133.68 353.623 133.68Z"/><path fill="#C1724F" d="M408.836 36.5355C408.836 36.5355 394.744 106.109 496.401 136.242C572.444 158.754 481.334 43.8917 408.836 36.5355Z"/><path fill="url(#paint0_linear_31_1599)" d="M376.039 341.769C376.039 341.769 365.669 407.708 431.697 408.949C497.725 410.101 532.29 337.515 532.29 337.515L583.428 356.038C583.428 356.038 568.982 376.777 567.21 401.947C565.792 421.623 566.5 441.475 575.186 468.95C569.248 545.879 563.5 604 563.5 604H277.5C277.5 604 281.383 499.704 341.473 347.264L376.039 341.769Z"/><path fill="url(#paint1_linear_31_1599)" d="M567.241 401.573C569.014 376.403 583.46 355.664 583.46 355.664L540.564 340.154C534.626 450.407 389.807 579.716 283.631 551C278.136 584.768 277.338 604 277.338 604C303.029 604 563.5 604 563.5 604C563.5 604 569.368 545.594 575.217 468.665C566.532 441.101 565.823 421.337 567.241 401.573Z"/><path fill="#C1724F" d="M412.462 46.1973C412.462 46.1973 518.018 78.9899 497.102 198.018C480.44 293.027 469.184 323.161 483.187 368.272C483.187 368.272 571.993 365.082 577.133 337.695C587.148 283.987 576.513 264.311 584.49 162.655C591.403 74.8242 566.409 31.5737 533.528 11.9868C500.559 -7.68862 419.907 -4.23212 412.462 46.1973Z"/><path fill="#1E1B1B" d="M435.262 180.294C435.262 180.294 435.085 176.837 436.414 171.785C436.68 170.544 437.211 169.215 437.832 167.797C438.541 166.379 439.073 164.872 440.314 163.454C441.289 162.036 442.707 160.529 444.656 159.377C446.695 158.225 449.442 157.959 451.835 158.58C452.899 159.023 453.962 159.554 454.937 160.086L457.153 162.125C458.748 163.366 459.369 165.049 460.344 166.467C462.205 169.304 463.002 172.228 463.888 174.621C465.129 179.673 465.396 183.041 465.396 183.041C465.396 183.041 463.091 180.382 460.432 176.305C458.837 174.444 457.419 171.962 455.557 169.835C454.583 168.86 453.696 167.531 452.721 166.822L451.303 165.581C450.772 165.404 450.328 165.227 449.974 165.05C449.176 164.784 448.467 164.784 447.581 165.227C446.695 165.67 445.631 166.29 444.745 167.354C442.884 169.215 441.289 171.519 439.871 173.469C437.123 177.369 435.262 180.294 435.262 180.294Z"/><path fill="#1E1B1B" d="M364.275 171.423C364.275 171.423 364.098 167.966 365.428 162.914C365.694 161.673 366.225 160.344 366.845 158.926C367.554 157.597 368.087 156.001 369.327 154.583C370.302 153.165 371.72 151.658 373.67 150.506C375.708 149.354 378.456 149.088 380.849 149.709C381.912 150.152 382.976 150.683 383.951 151.215L386.167 153.254C387.762 154.494 388.382 156.178 389.357 157.596C391.219 160.432 392.016 163.357 392.902 165.75C394.143 170.802 394.409 174.17 394.409 174.17C394.409 174.17 392.105 171.511 389.446 167.434C387.851 165.573 386.432 163.091 384.571 160.964C383.596 159.989 382.71 158.66 381.735 157.951L380.317 156.71C379.785 156.533 379.343 156.356 378.988 156.178C378.19 155.913 377.481 155.913 376.595 156.356C375.709 156.799 374.645 157.419 373.759 158.483C371.898 160.344 370.302 162.648 368.884 164.598C366.137 168.409 364.275 171.423 364.275 171.423Z"/><defs><linearGradient id="paint0_linear_31_1599" x1="296.208" x2="244.906" y1="523.032" y2="430.893" gradientUnits="userSpaceOnUse"><stop stop-color="#F98D3D"/><stop offset="1" stop-color="#F9AE3D"/></linearGradient><linearGradient id="paint1_linear_31_1599" x1="491.806" x2="297.541" y1="805.957" y2="739.916" gradientUnits="userSpaceOnUse"><stop stop-color="#F98D3D"/><stop offset="1" stop-color="#F9AE3D"/></linearGradient></defs></svg>