<svg width="80" height="80" viewBox="0 0 80 80" fill="none" xmlns="http://www.w3.org/2000/svg">
<g filter="url(#filter0_d_908_3352)">
<path d="M47.2168 37.2188C53.2068 37.2188 58.0626 32.363 58.0626 26.3731C58.0626 20.3832 53.2068 15.5273 47.2168 15.5273C41.2269 15.5273 36.3711 20.3832 36.3711 26.3731C36.3711 32.363 41.2269 37.2188 47.2168 37.2188Z" fill="url(#paint0_linear_908_3352)"/>
<path d="M47.2171 34.9811C51.9711 34.9811 55.8249 31.1273 55.8249 26.3734C55.8249 21.6194 51.9711 17.7656 47.2171 17.7656C42.4632 17.7656 38.6094 21.6194 38.6094 26.3734C38.6094 31.1273 42.4632 34.9811 47.2171 34.9811Z" fill="#FFC91D"/>
<path d="M52.2919 19.4219C53.3331 20.8452 53.949 22.5991 53.949 24.4975C53.949 29.2514 50.0951 33.1053 45.3413 33.1053C43.4428 33.1053 41.6889 32.4893 40.2656 31.4481C41.8314 33.5888 44.3608 34.9803 47.2163 34.9803C51.9701 34.9803 55.824 31.1264 55.824 26.3725C55.8238 23.5171 54.4326 20.9877 52.2919 19.4219Z" fill="#FFA91A"/>
<path d="M47.9546 25.2975H47.5911V22.4328H47.9546C48.684 22.4328 49.2774 23.0753 49.2774 23.8651C49.2774 24.03 49.401 24.1639 49.5534 24.1639C49.7057 24.1639 49.8294 24.03 49.8294 23.8651C49.8294 22.7458 48.9883 21.8351 47.9546 21.8351H47.5911V21.4414C47.5911 21.2765 47.4675 21.1426 47.3151 21.1426C47.1628 21.1426 47.0392 21.2765 47.0392 21.4414V21.8351H46.6755C45.6418 21.8351 44.8008 22.7458 44.8008 23.8651C44.8008 24.9845 45.6418 25.8952 46.6755 25.8952H47.0392V29.4524H46.6755C45.9461 29.4524 45.3527 28.8099 45.3527 28.0201C45.3527 27.8551 45.2291 27.7212 45.0768 27.7212C44.9244 27.7212 44.8008 27.8551 44.8008 28.0201C44.8008 29.1393 45.6418 30.05 46.6755 30.05H47.0392V30.4437C47.0392 30.6087 47.1628 30.7426 47.3151 30.7426C47.4675 30.7426 47.5911 30.6087 47.5911 30.4437V30.05H47.9546C48.9884 30.05 49.8294 29.1393 49.8294 28.0201V27.3275C49.8294 26.2082 48.9883 25.2975 47.9546 25.2975ZM46.6755 25.2975C45.9461 25.2975 45.3527 24.6549 45.3527 23.8651C45.3527 23.0753 45.9461 22.4328 46.6755 22.4328H47.0392V25.2975H46.6755ZM49.2774 28.0201C49.2774 28.8099 48.684 29.4524 47.9546 29.4524H47.5911V25.8952H47.9546C48.684 25.8952 49.2774 26.5377 49.2774 27.3275V28.0201Z" fill="#141B30"/>
<path d="M31.459 37.2188C37.449 37.2188 42.3048 32.363 42.3048 26.3731C42.3048 20.3832 37.449 15.5273 31.459 15.5273C25.4691 15.5273 20.6133 20.3832 20.6133 26.3731C20.6133 32.363 25.4691 37.2188 31.459 37.2188Z" fill="url(#paint1_linear_908_3352)"/>
<path d="M31.459 15.5273C25.4692 15.5273 20.6133 20.3832 20.6133 26.3731C20.6133 32.363 25.4692 37.2188 31.459 37.2188C37.4489 37.2188 42.3048 32.363 42.3048 26.3731C42.3048 20.3832 37.4489 15.5273 31.459 15.5273ZM31.459 36.3884C25.9276 36.3884 21.4435 31.9043 21.4435 26.3729C21.4435 20.8415 25.9276 16.3574 31.459 16.3574C36.9905 16.3574 41.4745 20.8415 41.4745 26.3729C41.4743 31.9043 36.9903 36.3884 31.459 36.3884Z" fill="#2266D3"/>
<path d="M31.4589 34.9764C36.2105 34.9764 40.0623 31.1245 40.0623 26.373C40.0623 21.6214 36.2105 17.7695 31.4589 17.7695C26.7074 17.7695 22.8555 21.6214 22.8555 26.373C22.8555 31.1245 26.7074 34.9764 31.4589 34.9764Z" fill="#E7F6FF"/>
<path d="M36.532 19.4258C37.5724 20.8483 38.1878 22.6011 38.1878 24.4984C38.1878 29.25 34.3358 33.1018 29.5843 33.1018C27.687 33.1018 25.9343 32.4863 24.5117 31.446C26.0768 33.586 28.605 34.9768 31.4593 34.9768C36.211 34.9768 40.0628 31.1248 40.0628 26.3734C40.0628 23.5191 38.6717 20.9908 36.532 19.4258Z" fill="#B5E3FF"/>
<path d="M35.2683 26.0006H32.4665C32.3583 25.707 32.1264 25.4741 31.8333 25.365V20.9395C31.8333 20.7325 31.6653 20.5645 31.4583 20.5645C31.2513 20.5645 31.0833 20.7325 31.0833 20.9395V25.365C30.6746 25.5175 30.3828 25.9101 30.3828 26.3719C30.3828 26.9659 30.8643 27.4474 31.4583 27.4474C31.9188 27.4474 32.3105 27.1575 32.4639 26.7506H35.2685C35.4755 26.7506 35.6435 26.5826 35.6435 26.3756C35.6435 26.1686 35.4753 26.0006 35.2683 26.0006Z" fill="#141B30"/>
<path d="M31.4609 19.4429C31.2539 19.4429 31.0859 19.2749 31.0859 19.0679V18.6211C31.0859 18.4141 31.2539 18.2461 31.4609 18.2461C31.6679 18.2461 31.8359 18.4141 31.8359 18.6211V19.0679C31.8359 19.2751 31.6679 19.4429 31.4609 19.4429Z" fill="#141B30"/>
<path d="M31.4609 34.4995C31.2539 34.4995 31.0859 34.3315 31.0859 34.1245V33.6777C31.0859 33.4707 31.2539 33.3027 31.4609 33.3027C31.6679 33.3027 31.8359 33.4707 31.8359 33.6777V34.1245C31.8359 34.3317 31.6679 34.4995 31.4609 34.4995Z" fill="#141B30"/>
<path d="M24.154 26.748H23.707C23.5 26.748 23.332 26.58 23.332 26.373C23.332 26.166 23.5 25.998 23.707 25.998H24.154C24.361 25.998 24.529 26.166 24.529 26.373C24.529 26.58 24.361 26.748 24.154 26.748Z" fill="#141B30"/>
<path d="M39.2124 26.748H38.7656C38.5586 26.748 38.3906 26.58 38.3906 26.373C38.3906 26.166 38.5586 25.998 38.7656 25.998H39.2124C39.4194 25.998 39.5874 26.166 39.5874 26.373C39.5874 26.58 39.4196 26.748 39.2124 26.748Z" fill="#141B30"/>
<path d="M59.5111 37.2125C59.4942 37.1955 59.4771 37.1786 59.4603 37.1617C58.5237 36.2252 57.0059 36.2244 56.0695 37.1614C54.0779 39.1537 50.8711 42.3605 49.5053 43.7267C49.0876 44.1444 48.5236 44.3765 47.9328 44.3765H43.276C44.8139 44.3687 46.0585 43.1203 46.0585 41.5805C46.0585 40.0359 44.8064 38.7838 43.2618 38.7838H37.2138C35.7083 38.7838 34.267 39.3932 33.2183 40.4732L29.4274 44.3767H28V53.6893H32.6309H43.5546C45.3273 53.6893 47.0271 52.9852 48.2808 51.732L59.5107 40.5039C60.4197 39.5947 60.4199 38.1215 59.5111 37.2125Z" fill="#FCCDAA"/>
<path d="M59.6432 37.3594C59.6824 38.0016 59.4589 38.6569 58.9683 39.1476L47.7383 50.3756C46.4849 51.6289 44.7848 52.3329 43.0122 52.3329H32.0884H28V53.6897H32.6309H43.5546C45.3272 53.6897 47.0271 52.9856 48.2808 51.7324L59.5107 40.5043C60.373 39.6426 60.4161 38.2736 59.6432 37.3594Z" fill="#F2AD97"/>
<path d="M43.2596 44.3767H38.2734V43.5626H42.717C44.2616 43.5626 45.5138 42.3105 45.5138 40.7658C45.5138 40.3691 45.4299 39.9924 45.2811 39.6504C45.7603 40.1523 46.0564 40.8309 46.0564 41.58C46.0564 43.1244 44.8043 44.3767 43.2596 44.3767Z" fill="#F2AD97"/>
<path d="M42.3164 43.3441H42.8836C43.712 43.3441 44.3836 42.6725 44.3836 41.8441V41.3145C44.3836 40.4861 43.712 39.8145 42.8836 39.8145H42.3164C42.1092 39.8145 41.9414 39.9823 41.9414 40.1895V42.9691C41.9414 43.1763 42.1094 43.3441 42.3164 43.3441Z" fill="#FFD2C0"/>
<path d="M27.0617 56.474H20.7461C20.2284 56.474 19.8086 56.0542 19.8086 55.5365V42.5293C19.8086 42.0116 20.2284 41.5918 20.7461 41.5918H27.0617C27.5793 41.5918 27.9992 42.0116 27.9992 42.5293V55.5365C27.9992 56.0544 27.5795 56.474 27.0617 56.474Z" fill="#478CF7"/>
<path d="M20.9336 51.974C20.7266 51.974 20.5586 51.806 20.5586 51.599V44.2865C20.5586 44.0795 20.7266 43.9115 20.9336 43.9115C21.1406 43.9115 21.3086 44.0795 21.3086 44.2865V51.599C21.3086 51.8062 21.1408 51.974 20.9336 51.974ZM20.9336 43.1615C20.7266 43.1615 20.5586 42.9935 20.5586 42.7865V42.7168C20.5586 42.5098 20.7266 42.3418 20.9336 42.3418C21.1406 42.3418 21.3086 42.5098 21.3086 42.7168V42.7865C21.3086 42.9937 21.1408 43.1615 20.9336 43.1615Z" fill="#5E9CF7"/>
<path d="M27.9992 42.5293C27.9992 42.0116 27.5793 41.5918 27.0617 41.5918H24.2492V51.7865C24.2492 52.3042 23.8293 52.724 23.3117 52.724H19.8086V55.5365C19.8086 56.0542 20.2284 56.474 20.7461 56.474H27.0617C27.5793 56.474 27.9992 56.0542 27.9992 55.5365V42.5293Z" fill="#377DE2"/>
<path d="M27.9992 42.5293C27.9992 42.0116 27.5793 41.5918 27.0617 41.5918H26.1242V53.6615C26.1242 54.1792 25.7043 54.599 25.1867 54.599H19.8086V55.5365C19.8086 56.0542 20.2284 56.474 20.7461 56.474H27.0617C27.5793 56.474 27.9992 56.0542 27.9992 55.5365V42.5293Z" fill="url(#paint2_linear_908_3352)"/>
</g>
<defs>
<filter id="filter0_d_908_3352" x="0.808594" y="0.527344" width="78.3828" height="78.9468" filterUnits="userSpaceOnUse" color-interpolation-filters="sRGB">
<feFlood flood-opacity="0" result="BackgroundImageFix"/>
<feColorMatrix in="SourceAlpha" type="matrix" values="0 0 0 0 0 0 0 0 0 0 0 0 0 0 0 0 0 0 127 0" result="hardAlpha"/>
<feOffset dy="4"/>
<feGaussianBlur stdDeviation="9.5"/>
<feColorMatrix type="matrix" values="0 0 0 0 0.2204 0 0 0 0 0.371488 0 0 0 0 0.76 0 0 0 0.15 0"/>
<feBlend mode="normal" in2="BackgroundImageFix" result="effect1_dropShadow_908_3352"/>
<feBlend mode="normal" in="SourceGraphic" in2="effect1_dropShadow_908_3352" result="shape"/>
</filter>
<linearGradient id="paint0_linear_908_3352" x1="51.5702" y1="47.4389" x2="37.9017" y2="42.6359" gradientUnits="userSpaceOnUse">
<stop stop-color="#F98D3D"/>
<stop offset="1" stop-color="#F9AE3D"/>
</linearGradient>
<linearGradient id="paint1_linear_908_3352" x1="25.9298" y1="26.3731" x2="38.53" y2="26.3809" gradientUnits="userSpaceOnUse">
<stop stop-color="#2F66F4"/>
<stop offset="1" stop-color="#0D9AE9"/>
</linearGradient>
<linearGradient id="paint2_linear_908_3352" x1="21.8161" y1="49.0329" x2="26.5738" y2="49.0345" gradientUnits="userSpaceOnUse">
<stop stop-color="#2F66F4"/>
<stop offset="1" stop-color="#0D9AE9"/>
</linearGradient>
</defs>
</svg>
