<svg width="18" height="18" viewBox="0 0 18 18" fill="none" xmlns="http://www.w3.org/2000/svg">
<g clip-path="url(#clip0_2055_3063)">
<path d="M17.3601 7.10325L16.7698 6.3C16.3608 5.74345 15.8269 5.29065 15.211 4.97802C14.5952 4.66539 13.9145 4.50166 13.2238 4.5H4.7871C4.11061 4.50177 3.44357 4.65882 2.83736 4.95906C2.23115 5.25931 1.70197 5.69472 1.2906 6.23175L0.674845 7.03725C0.174957 7.69673 -0.0600736 8.51939 0.0159858 9.34341C0.0920451 10.1674 0.473688 10.9332 1.08585 11.49L7.07835 17.2703C7.60467 17.7396 8.28563 17.9984 8.99085 17.997C9.71101 17.9956 10.4053 17.7285 10.9408 17.247L16.8928 11.5223C17.5085 10.9771 17.8979 10.2213 17.9844 9.40346C18.0708 8.58567 17.8481 7.76512 17.3601 7.10325V7.10325ZM15.5601 7.1835L16.1503 7.989C16.2097 8.07142 16.2618 8.15874 16.3063 8.25H12.7131C12.6588 7.89084 12.5652 7.53873 12.4341 7.2L11.9541 6H13.2238C13.6787 6.00086 14.127 6.10838 14.5327 6.31392C14.9385 6.51946 15.2903 6.8173 15.5601 7.1835ZM8.99235 15.066L6.9156 10.3635C6.84048 10.1646 6.78374 9.95925 6.7461 9.75H11.2101C11.1786 9.9149 11.1345 10.0771 11.0781 10.2353L8.99235 15.066ZM6.82485 8.25C6.85621 8.11554 6.89553 7.98305 6.9426 7.85325L7.6806 6H10.3386L11.0413 7.75725C11.103 7.91771 11.1532 8.08238 11.1913 8.25H6.82485ZM2.4831 7.14075C2.75427 6.78701 3.103 6.50021 3.50244 6.30244C3.90188 6.10467 4.34138 6.0012 4.7871 6H6.0621L5.54985 7.29675C5.42626 7.60443 5.33404 7.9238 5.2746 8.25H1.6836C1.73504 8.14399 1.79711 8.04348 1.86885 7.95L2.4831 7.14075ZM2.1081 10.3905C1.91244 10.213 1.75873 9.99424 1.6581 9.75H5.2371C5.28683 10.1541 5.38426 10.5508 5.52735 10.932L7.6476 15.732L2.1081 10.3905ZM10.3281 15.7605L12.4686 10.8C12.5928 10.4605 12.6794 10.1084 12.7266 9.75H16.3498C16.2437 10.0075 16.0815 10.238 15.8751 10.425L10.3281 15.7605Z" fill="white"/>
<path d="M9 3C9.19892 3 9.38968 2.92098 9.53034 2.78033C9.67099 2.63968 9.75001 2.44891 9.75001 2.25V0.75C9.75001 0.551088 9.67099 0.360322 9.53034 0.21967C9.38968 0.0790176 9.19892 0 9 0C8.80109 0 8.61032 0.0790176 8.46967 0.21967C8.32902 0.360322 8.25 0.551088 8.25 0.75V2.25C8.25 2.44891 8.32902 2.63968 8.46967 2.78033C8.61032 2.92098 8.80109 3 9 3Z" fill="white"/>
<path d="M12.4147 2.92489C12.5032 2.96941 12.5997 2.99594 12.6986 3.00294C12.7974 3.00995 12.8967 2.99729 12.9906 2.96569C13.0846 2.9341 13.1713 2.8842 13.2459 2.81888C13.3204 2.75356 13.3813 2.67412 13.4249 2.58514L14.1749 1.08514C14.2638 0.90711 14.2784 0.701054 14.2154 0.512298C14.1524 0.323543 14.0169 0.16755 13.8389 0.0786361C13.6609 -0.0102777 13.4548 -0.0248291 13.2661 0.0381831C13.0773 0.101195 12.9213 0.236609 12.8324 0.414636L12.0824 1.91464C12.0376 2.00273 12.0107 2.09881 12.0032 2.19735C11.9956 2.29589 12.0076 2.39495 12.0385 2.48883C12.0694 2.58271 12.1185 2.66957 12.1831 2.7444C12.2476 2.81923 12.3263 2.88057 12.4147 2.92489V2.92489Z" fill="white"/>
<path d="M4.57873 2.58514C4.66765 2.76366 4.82384 2.89955 5.01294 2.96291C5.20205 3.02628 5.40858 3.01192 5.58711 2.92301C5.76563 2.8341 5.90152 2.67791 5.96489 2.4888C6.02825 2.29969 6.0139 2.09316 5.92498 1.91464L5.17498 0.414636C5.13096 0.326486 5.07 0.247871 4.99559 0.183279C4.92118 0.118687 4.83478 0.0693836 4.74132 0.0381831C4.55256 -0.0248291 4.34651 -0.0102777 4.16848 0.0786361C3.99045 0.16755 3.85504 0.323543 3.79203 0.512298C3.72902 0.701054 3.74357 0.90711 3.83248 1.08514L4.57873 2.58514Z" fill="white"/>
</g>
<defs>
<clipPath id="clip0_2055_3063">
<rect width="18" height="18" fill="white"/>
</clipPath>
</defs>
</svg>
