<svg xmlns="http://www.w3.org/2000/svg" width="11" height="10" fill="none" viewBox="0 0 11 10"><path fill="#F98D3D" d="M9.37368 3.34998L6.98301 0.959316C6.79541 0.771808 6.54101 0.666502 6.27577 0.666565C6.01053 0.666627 5.75618 0.772053 5.56868 0.959649C5.38117 1.14725 5.27586 1.40165 5.27592 1.66689C5.27599 1.93212 5.38141 2.18647 5.56901 2.37398L7.19501 3.99998H1.33301C1.06779 3.99998 0.813437 4.10534 0.625901 4.29288C0.438365 4.48041 0.333008 4.73477 0.333008 4.99998C0.333008 5.2652 0.438365 5.51955 0.625901 5.70709C0.813437 5.89463 1.06779 5.99998 1.33301 5.99998H7.19501L5.56901 7.62598C5.38141 7.81349 5.27599 8.06784 5.27592 8.33308C5.27586 8.59832 5.38117 8.85272 5.56868 9.04031C5.75618 9.22791 6.01053 9.33334 6.27577 9.3334C6.54101 9.33346 6.79541 9.22816 6.98301 9.04065L9.37368 6.64998C9.8105 6.21196 10.0558 5.61859 10.0558 4.99998C10.0558 4.38137 9.8105 3.78801 9.37368 3.34998Z"/></svg>