<svg xmlns="http://www.w3.org/2000/svg" width="1409" height="826" fill="none" viewBox="0 0 1409 826"><path fill="#E2E8F0" stroke="#CBD5E0" stroke-width="2" d="M164.93 1H1249.06C1263.97 1 1276.06 13.0883 1276.06 28V770.059C1276.06 771.716 1274.72 773.059 1273.06 773.059H140.93C139.273 773.059 137.93 771.716 137.93 770.059V28C137.93 13.0884 150.018 1 164.93 1Z"/><path fill="#E1E8FC" d="M143.918 28.9843C143.918 16.8341 153.768 6.98438 165.918 6.98438H1248.08C1260.23 6.98438 1270.08 16.8341 1270.08 28.9844V744.716H143.918V28.9843Z"/><path fill="#E2E8F0" d="M0 770.469C0 769.364 0.895431 768.469 2 768.469H1406.4C1407.5 768.469 1408.4 769.364 1408.4 770.469V793.619H0V770.469Z"/><path fill="url(#paint0_linear_301_1619)" d="M0 770.469C0 769.364 0.895431 768.469 2 768.469H1406.4C1407.5 768.469 1408.4 769.364 1408.4 770.469V793.619H0V770.469Z"/><path fill="#E1E8FC" d="M0 793.617H1408.4L1394.86 798.849C1348.86 816.632 1299.96 825.753 1250.64 825.753H157.087C103.217 825.753 49.5611 814.727 0 793.617V793.617Z"/><path fill="url(#paint1_linear_301_1619)" d="M0 793.617H1408.4L1394.86 798.849C1348.86 816.632 1299.96 825.753 1250.64 825.753H157.087C103.217 825.753 49.5611 814.727 0 793.617V793.617Z"/><path fill="#E2E8F0" fill-rule="evenodd" d="M588.273 768.469C588.992 779.392 598.08 788.03 609.186 788.03H800.605C811.71 788.03 820.798 779.392 821.517 768.469H588.273Z" clip-rule="evenodd"/><path fill="url(#paint2_linear_301_1619)" fill-rule="evenodd" d="M588.273 768.469C588.992 779.392 598.08 788.03 609.186 788.03H800.605C811.71 788.03 820.798 779.392 821.517 768.469H588.273Z" clip-rule="evenodd"/><defs><linearGradient id="paint0_linear_301_1619" x1="0" x2="1408.4" y1="781.044" y2="781.044" gradientUnits="userSpaceOnUse"><stop stop-color="#B7C2D0"/><stop offset=".03" stop-color="#CAD4DB"/><stop offset=".063" stop-color="#BECCDE"/><stop offset=".134" stop-color="#B7C2D0" stop-opacity=".3"/><stop offset=".866" stop-color="#B7C2D0" stop-opacity=".3"/><stop offset=".942" stop-color="#BECCDE"/><stop offset=".971" stop-color="#CAD4DB"/><stop offset=".996" stop-color="#B7C2D0"/></linearGradient><linearGradient id="paint1_linear_301_1619" x1="704.198" x2="704.198" y1="793.617" y2="825.753" gradientUnits="userSpaceOnUse"><stop stop-color="#D1DBE9" stop-opacity=".6"/><stop offset="1" stop-color="#AAB5C6" stop-opacity=".6"/></linearGradient><linearGradient id="paint2_linear_301_1619" x1="611.282" x2="802.701" y1="780.345" y2="780.345" gradientUnits="userSpaceOnUse"><stop stop-color="#CFD9E7"/><stop offset=".318" stop-color="#CFD9E7" stop-opacity="0"/><stop offset=".661" stop-color="#CFD9E7" stop-opacity="0"/><stop offset="1" stop-color="#CFD9E7"/></linearGradient></defs></svg>