<svg width="2220" height="465" viewBox="0 0 2220 465" fill="none" xmlns="http://www.w3.org/2000/svg">
<path d="M138.23 78L2063.77 78C2063.77 78 2374.79 188.253 2063.77 309.511C1897.89 374.181 1835 375.933 1625.5 338.108C1416 300.283 1329.11 406.887 1101 406.887C872.892 406.887 777.521 351.156 569.471 365.819C361.42 380.481 304.106 480.043 138.23 415.372C-172.787 294.115 138.23 78 138.23 78Z" fill="url(#paint0_linear_16_1617)"/>
<rect opacity="0.06" width="145.995" height="145.995" rx="22.7893" transform="matrix(-0.556978 0.754537 -0.964714 -0.435632 638.143 190.125)" fill="white"/>
<rect opacity="0.06" width="145.995" height="145.995" rx="22.7893" transform="matrix(-0.556978 0.754537 -0.964714 -0.435632 478.022 291.402)" fill="white"/>
<rect opacity="0.06" width="145.995" height="145.995" rx="22.7893" transform="matrix(-0.556978 0.754537 -0.964714 -0.435632 311.571 216.238)" fill="white"/>
<rect opacity="0.06" width="145.995" height="145.995" rx="22.7893" transform="matrix(-0.556978 0.754537 -0.964714 -0.435632 471.691 114.961)" fill="white"/>
<rect opacity="0.06" width="145.995" height="145.995" rx="22.7893" transform="matrix(-0.556978 0.754537 -0.964714 -0.435632 2168.14 202.639)" fill="white"/>
<rect opacity="0.06" width="145.995" height="145.995" rx="22.7893" transform="matrix(-0.556978 0.754537 -0.964714 -0.435632 2008.02 303.916)" fill="white"/>
<rect opacity="0.06" width="145.995" height="145.995" rx="22.7893" transform="matrix(-0.556978 0.754537 -0.964714 -0.435632 1841.57 228.752)" fill="white"/>
<rect opacity="0.06" width="145.995" height="145.995" rx="22.7893" transform="matrix(-0.556978 0.754537 -0.964714 -0.435632 2001.69 127.475)" fill="white"/>
<defs>
<linearGradient id="paint0_linear_16_1617" x1="2369.5" y1="105" x2="274.273" y2="429.066" gradientUnits="userSpaceOnUse">
<stop stop-color="#2F66F4"/>
<stop offset="1" stop-color="#0D9AE9"/>
</linearGradient>
</defs>
</svg>
