<svg width="50" height="50" viewBox="0 0 50 50" fill="none" xmlns="http://www.w3.org/2000/svg">
<path fill-rule="evenodd" clip-rule="evenodd" d="M27.5 40C28.8261 40 30.0979 40.5268 31.0355 41.4645C31.9732 42.4021 32.5 43.6739 32.5 45C32.5 46.3261 31.9732 47.5979 31.0355 48.5355C30.0979 49.4732 28.8261 50 27.5 50C26.1739 50 24.9021 49.4732 23.9645 48.5355C23.0268 47.5979 22.5 46.3261 22.5 45C22.5 43.6739 23.0268 42.4021 23.9645 41.4645C24.9021 40.5268 26.1739 40 27.5 40ZM11.8525 32.5C13.5101 32.5 15.0998 33.1585 16.2719 34.3306C17.444 35.5027 18.1025 37.0924 18.1025 38.75C18.1025 40.4076 17.444 41.9973 16.2719 43.1694C15.0998 44.3415 13.5101 45 11.8525 45C10.1949 45 8.60519 44.3415 7.43308 43.1694C6.26098 41.9973 5.6025 40.4076 5.6025 38.75C5.6025 37.0924 6.26098 35.5027 7.43308 34.3306C8.60519 33.1585 10.1949 32.5 11.8525 32.5ZM40.7975 33.75C42.1236 33.75 43.3954 34.2768 44.333 35.2145C45.2707 36.1521 45.7975 37.4239 45.7975 38.75C45.7975 40.0761 45.2707 41.3479 44.333 42.2855C43.3954 43.2232 42.1236 43.75 40.7975 43.75C39.4714 43.75 38.1996 43.2232 37.262 42.2855C36.3243 41.3479 35.7975 40.0761 35.7975 38.75C35.7975 37.4239 36.3243 36.1521 37.262 35.2145C38.1996 34.2768 39.4714 33.75 40.7975 33.75ZM46.25 23.2975C47.2446 23.2975 48.1984 23.6926 48.9016 24.3958C49.6049 25.0991 50 26.0529 50 27.0475C50 28.0421 49.6049 28.9959 48.9016 29.6992C48.1984 30.4024 47.2446 30.7975 46.25 30.7975C45.2554 30.7975 44.3016 30.4024 43.5984 29.6992C42.8951 28.9959 42.5 28.0421 42.5 27.0475C42.5 26.0529 42.8951 25.0991 43.5984 24.3958C44.3016 23.6926 45.2554 23.2975 46.25 23.2975ZM6.25 15C7.9076 15 9.49731 15.6585 10.6694 16.8306C11.8415 18.0027 12.5 19.5924 12.5 21.25C12.5 22.9076 11.8415 24.4973 10.6694 25.6694C9.49731 26.8415 7.9076 27.5 6.25 27.5C4.5924 27.5 3.00269 26.8415 1.83058 25.6694C0.65848 24.4973 0 22.9076 0 21.25C0 19.5924 0.65848 18.0027 1.83058 16.8306C3.00269 15.6585 4.5924 15 6.25 15ZM44.465 13.0175C45.128 13.0175 45.7639 13.2809 46.2328 13.7497C46.7016 14.2186 46.965 14.8545 46.965 15.5175C46.965 16.1805 46.7016 16.8164 46.2328 17.2853C45.7639 17.7541 45.128 18.0175 44.465 18.0175C43.802 18.0175 43.1661 17.7541 42.6972 17.2853C42.2284 16.8164 41.965 16.1805 41.965 15.5175C41.965 14.8545 42.2284 14.2186 42.6972 13.7497C43.1661 13.2809 43.802 13.0175 44.465 13.0175ZM20 0C21.9891 0 23.8968 0.790176 25.3033 2.1967C26.7098 3.60322 27.5 5.51088 27.5 7.5C27.5 9.48912 26.7098 11.3968 25.3033 12.8033C23.8968 14.2098 21.9891 15 20 15C18.0109 15 16.1032 14.2098 14.6967 12.8033C13.2902 11.3968 12.5 9.48912 12.5 7.5C12.5 5.51088 13.2902 3.60322 14.6967 2.1967C16.1032 0.790176 18.0109 0 20 0ZM38.75 7.5C39.0815 7.5 39.3995 7.6317 39.6339 7.86612C39.8683 8.10054 40 8.41848 40 8.75C40 9.08152 39.8683 9.39946 39.6339 9.63388C39.3995 9.8683 39.0815 10 38.75 10C38.4185 10 38.1005 9.8683 37.8661 9.63388C37.6317 9.39946 37.5 9.08152 37.5 8.75C37.5 8.41848 37.6317 8.10054 37.8661 7.86612C38.1005 7.6317 38.4185 7.5 38.75 7.5Z" fill="#0F32EB"/>
</svg>
