<svg width="101" height="25" viewBox="0 0 101 25" fill="none" xmlns="http://www.w3.org/2000/svg">
<path fill-rule="evenodd" clip-rule="evenodd" d="M20.6502 23.8407L25.4416 16.468H43.3109C43.4945 16.468 43.6556 16.3757 43.7402 16.222L52.53 0.246032C52.6146 0.0923251 52.7757 0 52.9593 0H61.4055C61.8509 0 62.1679 0.505364 61.9521 0.871325L48.0169 24.4958C47.9304 24.6423 47.773 24.7295 47.5946 24.7295H21.186C20.7307 24.7295 20.414 24.2042 20.6502 23.8407ZM40.3731 0.958355L36.6643 8.09487L19.1341 7.98748C18.9585 7.98641 18.8024 8.06977 18.7141 8.2118L8.59107 24.5017C8.50216 24.6448 8.34449 24.7283 8.16746 24.726L0.609833 24.6291C0.166252 24.6234 -0.144775 24.1197 0.0710487 23.7565L13.9854 0.341714C14.072 0.195943 14.2291 0.109361 14.4069 0.109361L39.8141 0.109361C40.2475 0.109361 40.5643 0.590534 40.3731 0.958355Z" fill="url(#paint0_linear_2743_5156)"/>
<path fill-rule="evenodd" clip-rule="evenodd" d="M80.3463 0.888752L75.5548 8.2615H57.9656C57.7843 8.2615 57.6247 8.35152 57.5393 8.50207L48.4675 24.4889C48.3821 24.6395 48.2226 24.7295 48.0413 24.7295H39.5749C39.1326 24.7295 38.8156 24.2304 39.0251 23.8638L52.5248 0.239347C52.6104 0.0895176 52.7696 1.52588e-05 52.9503 1.52588e-05H79.8105C80.2658 1.52588e-05 80.5825 0.525307 80.3463 0.888752ZM60.6268 23.7709L64.3356 16.6344L81.8658 16.7418C82.0414 16.7428 82.1975 16.6595 82.2858 16.5174L92.4088 0.227499C92.4978 0.0844193 92.6554 0.00094223 92.8325 0.00321198L100.39 0.100103C100.834 0.105791 101.145 0.609526 100.929 0.972708L87.0145 24.3875C86.9279 24.5333 86.7709 24.6199 86.5931 24.6199L61.1858 24.6199C60.7525 24.6199 60.4357 24.1387 60.6268 23.7709Z" fill="url(#paint1_linear_2743_5156)"/>
<defs>
<linearGradient id="paint0_linear_2743_5156" x1="46.8204" y1="12.3647" x2="10.7938" y2="12.4205" gradientUnits="userSpaceOnUse">
<stop stop-color="#2F66F4"/>
<stop offset="1" stop-color="#0D9AE9"/>
</linearGradient>
<linearGradient id="paint1_linear_2743_5156" x1="82.43" y1="-11.6514" x2="57.7159" y2="10.1355" gradientUnits="userSpaceOnUse">
<stop stop-color="#F98D3D"/>
<stop offset="1" stop-color="#F9AE3D"/>
</linearGradient>
</defs>
</svg>
