<svg width="173" height="25" viewBox="0 0 173 25" fill="none" xmlns="http://www.w3.org/2000/svg">
<path fill-rule="evenodd" clip-rule="evenodd" d="M20.6502 23.8407L25.4416 16.468H43.3109C43.4945 16.468 43.6556 16.3757 43.7402 16.222L52.53 0.246032C52.6146 0.0923251 52.7757 0 52.9593 0H61.4055C61.8509 0 62.1679 0.505364 61.9521 0.871325L48.0169 24.4958C47.9304 24.6423 47.773 24.7295 47.5946 24.7295H21.186C20.7307 24.7295 20.414 24.2042 20.6502 23.8407ZM40.3731 0.958355L36.6643 8.09487L19.1341 7.98748C18.9585 7.98641 18.8024 8.06977 18.7141 8.2118L8.59107 24.5017C8.50216 24.6448 8.34449 24.7283 8.16746 24.726L0.609833 24.6291C0.166252 24.6234 -0.144775 24.1197 0.0710487 23.7565L13.9854 0.341714C14.072 0.195943 14.2291 0.109361 14.4069 0.109361L39.8141 0.109361C40.2475 0.109361 40.5643 0.590534 40.3731 0.958355Z" fill="url(#paint0_linear_2743_5155)"/>
<path fill-rule="evenodd" clip-rule="evenodd" d="M80.3463 0.888752L75.5548 8.2615H57.9656C57.7843 8.2615 57.6247 8.35152 57.5393 8.50207L48.4675 24.4889C48.3821 24.6395 48.2226 24.7295 48.0413 24.7295H39.5749C39.1326 24.7295 38.8156 24.2304 39.0251 23.8638L52.5248 0.239347C52.6104 0.0895176 52.7696 1.52588e-05 52.9503 1.52588e-05H79.8105C80.2658 1.52588e-05 80.5825 0.525307 80.3463 0.888752ZM60.6268 23.7709L64.3356 16.6344L81.8658 16.7418C82.0414 16.7428 82.1975 16.6595 82.2858 16.5174L92.4088 0.227499C92.4978 0.0844193 92.6554 0.00094223 92.8325 0.00321198L100.39 0.100103C100.834 0.105791 101.145 0.609526 100.929 0.972708L87.0145 24.3875C86.9279 24.5333 86.7709 24.6199 86.5931 24.6199L61.1858 24.6199C60.7525 24.6199 60.4357 24.1387 60.6268 23.7709Z" fill="url(#paint1_linear_2743_5155)"/>
<path d="M120.065 20.1879C119.626 20.1879 119.2 20.1253 118.787 20C118.374 19.8747 117.998 19.7056 117.66 19.4927C117.321 19.2672 117.04 19.0167 116.814 18.7411C116.589 18.453 116.445 18.1587 116.382 17.8581L116.983 17.6326L116.852 19.9624H114.334V6.09621H117.002V12.3905L116.495 12.1838C116.57 11.8832 116.714 11.5951 116.927 11.3195C117.14 11.0314 117.409 10.7809 117.735 10.568C118.06 10.3425 118.417 10.1671 118.806 10.0419C119.194 9.91662 119.595 9.85399 120.008 9.85399C120.873 9.85399 121.643 10.0795 122.319 10.5304C122.996 10.9688 123.528 11.5763 123.916 12.3529C124.317 13.1295 124.518 14.0189 124.518 15.0209C124.518 16.023 124.323 16.9124 123.935 17.689C123.547 18.4656 123.014 19.0793 122.338 19.5303C121.674 19.9687 120.916 20.1879 120.065 20.1879ZM119.426 17.9144C119.927 17.9144 120.359 17.7954 120.722 17.5574C121.098 17.3069 121.392 16.9687 121.605 16.5428C121.818 16.1044 121.925 15.5971 121.925 15.0209C121.925 14.4573 121.818 13.9562 121.605 13.5178C121.405 13.0794 121.117 12.7412 120.741 12.5032C120.365 12.2652 119.927 12.1462 119.426 12.1462C118.925 12.1462 118.486 12.2652 118.111 12.5032C117.735 12.7412 117.44 13.0794 117.228 13.5178C117.015 13.9562 116.908 14.4573 116.908 15.0209C116.908 15.5971 117.015 16.1044 117.228 16.5428C117.44 16.9687 117.735 17.3069 118.111 17.5574C118.486 17.7954 118.925 17.9144 119.426 17.9144ZM131.252 20.1879C130.175 20.1879 129.235 19.9687 128.433 19.5303C127.632 19.0919 127.006 18.4906 126.555 17.7265C126.104 16.9625 125.878 16.0856 125.878 15.0961C125.878 14.332 126.003 13.6306 126.254 12.9917C126.504 12.3529 126.855 11.8018 127.306 11.3383C127.757 10.8623 128.289 10.4991 128.903 10.2486C129.529 9.98551 130.206 9.85399 130.932 9.85399C131.609 9.85399 132.235 9.97925 132.811 10.2298C133.387 10.4678 133.882 10.8122 134.296 11.2632C134.721 11.7016 135.047 12.2214 135.273 12.8226C135.498 13.4239 135.598 14.0815 135.573 14.7955L135.554 15.6222H127.569L127.137 13.9875H133.356L133.056 14.3257V13.9124C133.03 13.5742 132.918 13.2673 132.717 12.9917C132.529 12.7162 132.285 12.5032 131.985 12.3529C131.684 12.2026 131.346 12.1274 130.97 12.1274C130.419 12.1274 129.949 12.2339 129.561 12.4469C129.185 12.6598 128.897 12.9729 128.697 13.3863C128.496 13.7997 128.396 14.3007 128.396 14.8894C128.396 15.4907 128.521 16.0105 128.772 16.4489C129.035 16.8873 129.398 17.2318 129.861 17.4823C130.337 17.7203 130.895 17.8393 131.534 17.8393C131.972 17.8393 132.373 17.7704 132.736 17.6326C133.099 17.4948 133.488 17.2568 133.901 16.9186L135.179 18.7036C134.815 19.0292 134.415 19.3048 133.976 19.5303C133.538 19.7432 133.087 19.9061 132.623 20.0188C132.16 20.1315 131.703 20.1879 131.252 20.1879ZM137.15 20V18.309L142.392 11.5074V12.259H137.15V10.0607H145.079V11.7892L140.063 18.4217L139.987 17.8017H145.211V20H137.15ZM153.634 20.1879C152.669 20.1879 151.78 20.0251 150.966 19.6994C150.164 19.3612 149.463 18.8915 148.861 18.2902C148.273 17.6764 147.816 16.9562 147.49 16.1295C147.164 15.2902 147.001 14.3759 147.001 13.3863C147.001 12.4218 147.17 11.5325 147.509 10.7183C147.847 9.89157 148.323 9.17759 148.937 8.57634C149.55 7.96257 150.271 7.48658 151.097 7.14838C151.924 6.81018 152.82 6.64108 153.784 6.64108C154.41 6.64108 155.024 6.72876 155.625 6.90413C156.239 7.06697 156.797 7.31122 157.298 7.6369C157.811 7.96257 158.25 8.35087 158.613 8.80181L156.847 10.7559C156.546 10.4552 156.233 10.1985 155.907 9.98551C155.594 9.76004 155.256 9.59094 154.893 9.47821C154.542 9.35295 154.166 9.29032 153.765 9.29032C153.227 9.29032 152.719 9.39053 152.243 9.59094C151.78 9.79136 151.373 10.0732 151.022 10.4364C150.671 10.7872 150.39 11.2193 150.177 11.7329C149.976 12.2339 149.876 12.7913 149.876 13.4051C149.876 14.0314 149.976 14.6013 150.177 15.1149C150.377 15.6159 150.659 16.0481 151.022 16.4113C151.385 16.762 151.818 17.0376 152.319 17.238C152.832 17.4259 153.396 17.5199 154.01 17.5199C154.41 17.5199 154.799 17.4635 155.175 17.3508C155.55 17.238 155.895 17.0815 156.208 16.881C156.534 16.6806 156.822 16.4489 157.072 16.1859L158.444 18.3842C158.143 18.7224 157.736 19.0292 157.222 19.3048C156.721 19.5804 156.158 19.7996 155.531 19.9624C154.905 20.1127 154.273 20.1879 153.634 20.1879ZM164.559 20L159.317 6.84776H162.304L165.047 13.9688C165.198 14.3571 165.323 14.7015 165.423 15.0021C165.536 15.2902 165.63 15.5658 165.705 15.8289C165.792 16.0794 165.874 16.3299 165.949 16.5804C166.024 16.8184 166.099 17.0815 166.175 17.3696L165.63 17.3883C165.73 17 165.83 16.643 165.93 16.3174C166.03 15.9792 166.143 15.6284 166.268 15.2652C166.394 14.9019 166.55 14.4698 166.738 13.9688L169.331 6.84776H172.3L167.02 20H164.559Z" fill="#141B30"/>
<defs>
<linearGradient id="paint0_linear_2743_5155" x1="46.8204" y1="12.3647" x2="10.7938" y2="12.4205" gradientUnits="userSpaceOnUse">
<stop stop-color="#2F66F4"/>
<stop offset="1" stop-color="#0D9AE9"/>
</linearGradient>
<linearGradient id="paint1_linear_2743_5155" x1="82.43" y1="-11.6514" x2="57.7159" y2="10.1355" gradientUnits="userSpaceOnUse">
<stop stop-color="#F98D3D"/>
<stop offset="1" stop-color="#F9AE3D"/>
</linearGradient>
</defs>
</svg>
