<svg xmlns="http://www.w3.org/2000/svg" width="22" height="18" fill="none" viewBox="0 0 22 18"><path fill="#3C4663" d="M11.0072 3.49977C12.6927 3.49417 14.3455 3.96432 15.7758 4.85619C17.206 5.74805 18.3555 7.02542 19.0922 8.54144C18.5605 9.63668 17.8084 10.6103 16.883 11.4014L18.1755 12.6939C19.4497 11.5664 20.458 10.1548 21.0905 8.54144C19.5047 4.51727 15.5905 1.66644 11.0072 1.66644C9.843 1.66644 8.72466 1.84977 7.6705 2.18894L9.183 3.70144C9.77883 3.58227 10.3838 3.49977 11.0072 3.49977ZM10.0263 4.54477L11.9238 6.44227C12.4463 6.67144 12.868 7.09311 13.0972 7.61561L14.9947 9.51311C15.068 9.20144 15.123 8.87144 15.123 8.53227C15.1322 6.25894 13.2805 4.41644 11.0072 4.41644C10.668 4.41644 10.3472 4.46227 10.0263 4.54477ZM1.84966 1.54727L4.30633 4.00394C2.79413 5.1875 1.62622 6.7542 0.923828 8.54144C2.50966 12.5656 6.42383 15.4164 11.0072 15.4164C12.4005 15.4164 13.7388 15.1506 14.9672 14.6648L18.1022 17.7998L19.3947 16.5073L3.14216 0.245605L1.84966 1.54727ZM8.72466 8.42227L11.1172 10.8148C11.0805 10.8239 11.0438 10.8331 11.0072 10.8331C10.3994 10.8331 9.81648 10.5917 9.38671 10.1619C8.95694 9.73212 8.7155 9.14923 8.7155 8.54144C8.7155 8.49561 8.72466 8.46811 8.72466 8.42227ZM5.608 5.30561L7.21216 6.90977C6.99483 7.42633 6.88264 7.98102 6.88216 8.54144C6.88335 9.22346 7.05337 9.89458 7.37704 10.4949C7.70072 11.0952 8.16798 11.6061 8.73712 11.9819C9.30627 12.3577 9.9596 12.5867 10.6388 12.6486C11.318 12.7105 12.002 12.6032 12.6297 12.3364L13.528 13.2348C12.7213 13.4548 11.878 13.5831 11.0072 13.5831C9.32165 13.5887 7.66878 13.1186 6.23855 12.2267C4.80833 11.3348 3.65881 10.0575 2.92216 8.54144C3.56383 7.23061 4.49883 6.14894 5.608 5.30561Z"/></svg>