<svg width="22" height="15" viewBox="0 0 22 15" fill="none" xmlns="http://www.w3.org/2000/svg">
<path d="M11.0072 2.49984C12.6927 2.49423 14.3455 2.96439 15.7758 3.85625C17.206 4.74812 18.3555 6.02548 19.0922 7.5415C17.5797 10.6307 14.4813 12.5832 11.0072 12.5832C7.533 12.5832 4.43466 10.6307 2.92216 7.5415C3.65881 6.02548 4.80833 4.74812 6.23855 3.85625C7.66878 2.96439 9.32165 2.49423 11.0072 2.49984ZM11.0072 0.666504C6.42383 0.666504 2.50966 3.51734 0.923828 7.5415C2.50966 11.5657 6.42383 14.4165 11.0072 14.4165C15.5905 14.4165 19.5047 11.5657 21.0905 7.5415C19.5047 3.51734 15.5905 0.666504 11.0072 0.666504ZM11.0072 5.24984C11.615 5.24984 12.1978 5.49128 12.6276 5.92105C13.0574 6.35082 13.2988 6.93372 13.2988 7.5415C13.2988 8.14929 13.0574 8.73219 12.6276 9.16196C12.1978 9.59173 11.615 9.83317 11.0072 9.83317C10.3994 9.83317 9.81648 9.59173 9.38671 9.16196C8.95694 8.73219 8.7155 8.14929 8.7155 7.5415C8.7155 6.93372 8.95694 6.35082 9.38671 5.92105C9.81648 5.49128 10.3994 5.24984 11.0072 5.24984ZM11.0072 3.4165C8.73383 3.4165 6.88216 5.26817 6.88216 7.5415C6.88216 9.81484 8.73383 11.6665 11.0072 11.6665C13.2805 11.6665 15.1322 9.81484 15.1322 7.5415C15.1322 5.26817 13.2805 3.4165 11.0072 3.4165Z" fill="#3C4663"/>
</svg>
