<svg width="18" height="18" viewBox="0 0 18 18" fill="none" xmlns="http://www.w3.org/2000/svg">
<path d="M17.7798 16.7203L13.3031 12.2435C14.5231 10.7515 15.1229 8.84761 14.9785 6.92571C14.8341 5.00381 13.9565 3.21094 12.5273 1.91793C11.0981 0.624921 9.22654 -0.0692924 7.29982 -0.0211186C5.37311 0.0270553 3.53862 0.813931 2.1758 2.17675C0.812985 3.53957 0.0261092 5.37406 -0.0220646 7.30077C-0.0702385 9.22748 0.623975 11.099 1.91698 12.5282C3.20999 13.9574 5.00287 14.835 6.92476 14.9794C8.84666 15.1238 10.7505 14.524 12.2426 13.304L16.7193 17.7808C16.8608 17.9174 17.0502 17.993 17.2469 17.9913C17.4435 17.9896 17.6317 17.9107 17.7707 17.7717C17.9098 17.6326 17.9886 17.4445 17.9904 17.2478C17.9921 17.0512 17.9165 16.8617 17.7798 16.7203ZM7.49959 13.5005C6.3129 13.5005 5.15287 13.1486 4.16617 12.4894C3.17948 11.8301 2.41044 10.893 1.95632 9.79664C1.50219 8.70028 1.38337 7.49388 1.61488 6.33C1.84639 5.16611 2.41784 4.09701 3.25695 3.2579C4.09607 2.41878 5.16516 1.84734 6.32905 1.61583C7.49294 1.38432 8.69934 1.50314 9.79569 1.95726C10.892 2.41139 11.8291 3.18042 12.4884 4.16712C13.1477 5.15381 13.4996 6.31385 13.4996 7.50054C13.4978 9.09129 12.8651 10.6164 11.7403 11.7412C10.6154 12.866 9.09034 13.4988 7.49959 13.5005Z" fill="#2F66F4"/>
</svg>
