<svg width="83" height="78" viewBox="0 0 83 78" fill="none" xmlns="http://www.w3.org/2000/svg">
<g clip-path="url(#clip0_1541_3002)">
<path opacity="0.1" d="M49.3596 2.11963L48.9047 16.0927L59.86 15.3352L49.3596 2.11963Z" fill="#0F32EB"/>
<path opacity="0.1" d="M41.589 45.1063L41.8722 34.7705L0.833801 35.3271L41.589 45.1063Z" fill="#0F32EB"/>
<path d="M0.15863 3.36621H49.7686V34.5842C49.7686 34.7857 49.6886 34.979 49.5461 35.1215C49.4036 35.264 49.2103 35.3441 49.0088 35.3441H0.91851C0.818721 35.3441 0.719909 35.3244 0.627716 35.2862C0.535523 35.2481 0.451756 35.1921 0.381194 35.1215C0.310633 35.051 0.254659 34.9672 0.216472 34.875C0.178284 34.7828 0.15863 34.684 0.15863 34.5842V3.36621Z" fill="#0F32EB"/>
<path opacity="0.7" d="M0.15863 3.36621H49.7686V34.5842C49.7686 34.7857 49.6886 34.979 49.5461 35.1215C49.4036 35.264 49.2103 35.3441 49.0088 35.3441H0.91851C0.818721 35.3441 0.719909 35.3244 0.627716 35.2862C0.535523 35.2481 0.451756 35.1921 0.381194 35.1215C0.310633 35.051 0.254659 34.9672 0.216472 34.875C0.178284 34.7828 0.15863 34.684 0.15863 34.5842V3.36621Z" fill="white"/>
<path opacity="0.9" d="M44.7761 5.45215H5.14378C4.76555 5.45215 4.45892 5.75877 4.45892 6.13701V17.2763C4.45892 17.6545 4.76555 17.9611 5.14378 17.9611H44.7761C45.1544 17.9611 45.461 17.6545 45.461 17.2763V6.13701C45.461 5.75877 45.1544 5.45215 44.7761 5.45215Z" fill="white"/>
<path opacity="0.7" d="M16.1911 19.8779H5.14378C4.76555 19.8779 4.45892 20.1846 4.45892 20.5628V22.8424C4.45892 23.2207 4.76555 23.5273 5.14378 23.5273H16.1911C16.5693 23.5273 16.8759 23.2207 16.8759 22.8424V20.5628C16.8759 20.1846 16.5693 19.8779 16.1911 19.8779Z" fill="#0F32EB"/>
<path opacity="0.7" d="M30.4836 19.8779H19.4363C19.0581 19.8779 18.7515 20.1846 18.7515 20.5628V22.8424C18.7515 23.2207 19.0581 23.5273 19.4363 23.5273H30.4836C30.8619 23.5273 31.1685 23.2207 31.1685 22.8424V20.5628C31.1685 20.1846 30.8619 19.8779 30.4836 19.8779Z" fill="#0F32EB"/>
<path opacity="0.7" d="M44.7737 19.8779H33.7264C33.3482 19.8779 33.0416 20.1846 33.0416 20.5628V22.8424C33.0416 23.2207 33.3482 23.5273 33.7264 23.5273H44.7737C45.152 23.5273 45.4586 23.2207 45.4586 22.8424V20.5628C45.4586 20.1846 45.152 19.8779 44.7737 19.8779Z" fill="#0F32EB"/>
<path opacity="0.3" d="M5.14378 25.0034H16.1911C16.281 25.0034 16.3701 25.0211 16.4532 25.0556C16.5363 25.09 16.6118 25.1404 16.6754 25.204C16.7389 25.2676 16.7894 25.3431 16.8238 25.4262C16.8582 25.5093 16.8759 25.5983 16.8759 25.6883V35.3223H4.45892V25.6883C4.45892 25.5066 4.53108 25.3324 4.65951 25.204C4.78795 25.0756 4.96215 25.0034 5.14378 25.0034Z" fill="#0F32EB"/>
<path opacity="0.3" d="M19.446 25.0035H30.4933C30.6749 25.0035 30.8491 25.0756 30.9776 25.2041C31.106 25.3325 31.1782 25.5067 31.1782 25.6883V35.3224H18.7515V25.6883C18.7515 25.5976 18.7695 25.5077 18.8045 25.424C18.8395 25.3403 18.8908 25.2643 18.9555 25.2006C19.0201 25.1369 19.0967 25.0867 19.1809 25.0528C19.2652 25.019 19.3553 25.0022 19.446 25.0035Z" fill="#0F32EB"/>
<path opacity="0.3" d="M33.724 25.0034H44.7713C44.9529 25.0034 45.1271 25.0756 45.2556 25.204C45.384 25.3324 45.4562 25.5066 45.4562 25.6883V35.3223H33.0416V25.6883C33.0416 25.5071 33.1134 25.3332 33.2413 25.2049C33.3692 25.0765 33.5428 25.0041 33.724 25.0034Z" fill="#0F32EB"/>
<path d="M15.2788 0.367676H14.0688V0.609676H15.2788V0.367676Z" fill="#0F32EB"/>
<path d="M12.9991 0.367676H10.0346V0.609676H12.9991V0.367676Z" fill="#0F32EB"/>
<path d="M47.61 1.21486H2.30998C2.02644 1.21485 1.74569 1.2709 1.48388 1.37977C1.22207 1.48864 0.984367 1.6482 0.784433 1.84925C0.5845 2.05031 0.426283 2.28891 0.31888 2.55132C0.211477 2.81374 0.157009 3.0948 0.158603 3.37834H49.7686C49.7702 3.09419 49.7155 2.81253 49.6076 2.54964C49.4998 2.28675 49.3409 2.04783 49.1402 1.84667C48.9395 1.64552 48.7009 1.48612 48.4383 1.37768C48.1756 1.26923 47.8941 1.21389 47.61 1.21486Z" fill="#0F32EB"/>
<path d="M3.20539 2.28919C3.20586 2.37459 3.18095 2.4582 3.1338 2.52941C3.08665 2.60062 3.0194 2.6562 2.94059 2.68911C2.86178 2.72201 2.77497 2.73074 2.69119 2.7142C2.6074 2.69766 2.53043 2.65658 2.47004 2.59619C2.40965 2.5358 2.36858 2.45883 2.35203 2.37504C2.33549 2.29126 2.34422 2.20445 2.37713 2.12564C2.41003 2.04683 2.46561 1.97958 2.53682 1.93243C2.60803 1.88529 2.69165 1.86037 2.77705 1.86085C2.89045 1.86148 2.99903 1.90681 3.07922 1.98701C3.15942 2.0672 3.20475 2.17578 3.20539 2.28919Z" fill="white"/>
<path d="M4.58965 2.26721C4.58965 2.35193 4.56453 2.43474 4.51746 2.50518C4.4704 2.57562 4.4035 2.63052 4.32523 2.66294C4.24696 2.69536 4.16084 2.70384 4.07775 2.68732C3.99466 2.67079 3.91833 2.62999 3.85843 2.57009C3.79853 2.51018 3.75773 2.43386 3.7412 2.35077C3.72467 2.26768 3.73316 2.18156 3.76558 2.10329C3.798 2.02502 3.8529 1.95812 3.92334 1.91106C3.99378 1.86399 4.07659 1.83887 4.16131 1.83887C4.27472 1.8395 4.3833 1.88484 4.46349 1.96503C4.54368 2.04522 4.58902 2.1538 4.58965 2.26721Z" fill="white"/>
<path d="M5.97387 2.26721C5.97387 2.35193 5.94875 2.43474 5.90168 2.50518C5.85461 2.57562 5.78771 2.63052 5.70945 2.66294C5.63118 2.69536 5.54505 2.70384 5.46196 2.68732C5.37887 2.67079 5.30255 2.62999 5.24264 2.57009C5.18274 2.51018 5.14195 2.43386 5.12542 2.35077C5.10889 2.26768 5.11737 2.18156 5.14979 2.10329C5.18221 2.02502 5.23711 1.95812 5.30755 1.91106C5.37799 1.86399 5.46081 1.83887 5.54553 1.83887C5.65893 1.8395 5.76752 1.88484 5.84771 1.96503C5.9279 2.04522 5.97323 2.1538 5.97387 2.26721Z" fill="white"/>
<path d="M41.1994 17.748H60.3174V44.3366C60.3174 44.5933 60.2154 44.8395 60.0338 45.0211C59.8523 45.2026 59.6061 45.3046 59.3494 45.3046H42.1553C41.8985 45.3046 41.6523 45.2026 41.4708 45.0211C41.2892 44.8395 41.1873 44.5933 41.1873 44.3366V17.748H41.1994Z" fill="#0F32EB"/>
<path opacity="0.8" d="M41.1994 17.748H60.3174V44.3366C60.3174 44.5933 60.2154 44.8395 60.0338 45.0211C59.8523 45.2026 59.6061 45.3046 59.3494 45.3046H42.1553C41.8985 45.3046 41.6523 45.2026 41.4708 45.0211C41.2892 44.8395 41.1873 44.5933 41.1873 44.3366V17.748H41.1994Z" fill="white"/>
<path opacity="0.9" d="M58.0934 19.1855H43.4161C43.1541 19.1855 42.9418 19.3979 42.9418 19.6599V24.7031C42.9418 24.9651 43.1541 25.1775 43.4161 25.1775H58.0934C58.3554 25.1775 58.5677 24.9651 58.5677 24.7031V19.6599C58.5677 19.3979 58.3554 19.1855 58.0934 19.1855Z" fill="white"/>
<path opacity="0.7" d="M57.7062 26.3633H43.8033C43.3275 26.3633 42.9418 26.749 42.9418 27.2248V30.0925C42.9418 30.5683 43.3275 30.954 43.8033 30.954H57.7062C58.182 30.954 58.5677 30.5683 58.5677 30.0925V27.2248C58.5677 26.749 58.182 26.3633 57.7062 26.3633Z" fill="#0F32EB"/>
<path opacity="0.7" d="M57.7062 32.4736H43.8033C43.3275 32.4736 42.9418 32.8593 42.9418 33.3352V36.2029C42.9418 36.6787 43.3275 37.0644 43.8033 37.0644H57.7062C58.182 37.0644 58.5677 36.6787 58.5677 36.2029V33.3352C58.5677 32.8593 58.182 32.4736 57.7062 32.4736Z" fill="#0F32EB"/>
<path opacity="0.7" d="M57.7062 38.5845H43.8033C43.3275 38.5845 42.9418 38.9702 42.9418 39.446V42.3137C42.9418 42.7895 43.3275 43.1752 43.8033 43.1752H57.7062C58.182 43.1752 58.5677 42.7895 58.5677 42.3137V39.446C58.5677 38.9702 58.182 38.5845 57.7062 38.5845Z" fill="#0F32EB"/>
<path d="M42.4554 15.0425H59.0517C59.3855 15.0425 59.7056 15.1751 59.9416 15.4111C60.1776 15.6471 60.3101 15.9671 60.3101 16.3009V17.7529H41.1921V16.3009C41.1921 16.1352 41.2248 15.9712 41.2884 15.8182C41.3519 15.6652 41.4451 15.5263 41.5624 15.4094C41.6798 15.2924 41.8191 15.1998 41.9723 15.1369C42.1256 15.0739 42.2897 15.0419 42.4554 15.0425Z" fill="#0F32EB"/>
<path d="M67.8751 76.2757H66.1036L66.1061 72.1689H67.8799L67.8751 76.2757Z" fill="#FFB573"/>
<path d="M82.1192 72.8855L80.4227 73.3986L78.5545 69.6742L80.2509 69.1611L82.1192 72.8855Z" fill="#FFB573"/>
<path d="M79.767 73.7057C79.6547 73.7491 79.5311 73.7534 79.4161 73.7178C79.3787 73.7003 79.3464 73.6736 79.3222 73.6402C79.2981 73.6067 79.2829 73.5676 79.2781 73.5266C79.2723 73.5024 79.2731 73.4771 79.2803 73.4533C79.2876 73.4295 79.301 73.408 79.3193 73.3911C79.479 73.2386 80.1154 73.4129 80.188 73.4323C80.1957 73.4352 80.2024 73.4401 80.2075 73.4465C80.2126 73.4528 80.2159 73.4605 80.2171 73.4686C80.2174 73.4767 80.2156 73.4848 80.2118 73.4921C80.208 73.4993 80.2023 73.5054 80.1953 73.5097C80.0604 73.5911 79.9167 73.6569 79.767 73.7057ZM79.4233 73.4274C79.4042 73.4312 79.3865 73.4405 79.3725 73.454C79.3656 73.4608 79.3608 73.4695 79.3587 73.4789C79.3566 73.4883 79.3571 73.4982 79.3604 73.5073C79.363 73.5355 79.3728 73.5626 79.3889 73.5859C79.405 73.6092 79.4269 73.628 79.4524 73.6404C79.6677 73.6704 79.8863 73.6158 80.0622 73.4879C79.8553 73.426 79.6382 73.4055 79.4233 73.4274Z" fill="#0F32EB"/>
<path d="M80.188 73.5145H80.1662C79.9678 73.4709 79.5322 73.1975 79.5177 72.9942C79.5162 72.9622 79.5254 72.9306 79.5438 72.9043C79.5621 72.878 79.5887 72.8586 79.6193 72.849C79.648 72.8353 79.6794 72.8281 79.7113 72.8281C79.7431 72.8281 79.7745 72.8353 79.8032 72.849C80.0452 72.9506 80.2098 73.4346 80.217 73.4564C80.2204 73.4632 80.2222 73.4706 80.2222 73.4782C80.2222 73.4858 80.2204 73.4932 80.217 73.5L80.188 73.5145ZM79.6677 72.9216C79.6614 72.9196 79.6546 72.9196 79.6483 72.9216C79.5999 72.9434 79.5999 72.9676 79.5999 72.9797C79.5999 73.0983 79.8976 73.3185 80.1057 73.4008C80.0501 73.2604 79.9218 72.9869 79.7693 72.9168C79.7352 72.9057 79.6982 72.9074 79.6653 72.9216H79.6677Z" fill="#0F32EB"/>
<path d="M80.251 73.2363L82.1579 72.6604C82.1909 72.6502 82.2263 72.6519 82.2582 72.6652C82.29 72.6784 82.3162 72.7024 82.3322 72.733L83.0582 74.1607C83.0752 74.1966 83.0843 74.2357 83.0848 74.2754C83.0853 74.3151 83.0772 74.3545 83.0612 74.3908C83.0451 74.4271 83.0214 74.4595 82.9916 74.4858C82.9618 74.5121 82.9268 74.5316 82.8888 74.5431C82.2208 74.7319 81.8869 74.7851 81.0471 75.0441C80.5317 75.1989 78.8691 76.0363 78.1673 76.2541C77.4655 76.4719 77.18 75.7846 77.4559 75.6297C78.6876 74.9448 79.6823 73.9357 80.0041 73.4275C80.061 73.3364 80.1485 73.2686 80.251 73.2363Z" fill="#263238"/>
<path d="M65.3728 76.3797C65.2224 76.3945 65.0717 76.356 64.9469 76.2708C64.9188 76.2458 64.8976 76.2139 64.8853 76.1783C64.873 76.1427 64.87 76.1046 64.8767 76.0675C64.8782 76.044 64.886 76.0213 64.8991 76.0017C64.9123 75.9822 64.9305 75.9665 64.9517 75.9562C65.1719 75.8352 65.8689 76.1982 65.9463 76.2394C65.9544 76.243 65.961 76.2494 65.9649 76.2573C65.9689 76.2652 65.97 76.2743 65.9681 76.2829C65.9662 76.2916 65.9617 76.2995 65.9553 76.3055C65.9488 76.3116 65.9406 76.3155 65.9318 76.3168C65.7479 76.3558 65.5607 76.3769 65.3728 76.3797ZM65.0679 76.0143C65.0405 76.013 65.0132 76.018 64.988 76.0288C64.98 76.0338 64.9733 76.0405 64.9683 76.0485C64.9632 76.0565 64.9601 76.0654 64.959 76.0748C64.9556 76.0994 64.958 76.1245 64.9659 76.148C64.9739 76.1715 64.9873 76.1929 65.005 76.2103C65.109 76.3071 65.4018 76.3216 65.7939 76.2563C65.5676 76.1344 65.322 76.0525 65.0679 76.0143Z" fill="#0F32EB"/>
<path d="M65.9245 76.3194H65.9076C65.6971 76.2226 65.2905 75.8354 65.3316 75.6394C65.3316 75.5934 65.3776 75.5329 65.4938 75.5232C65.5368 75.5158 65.5809 75.5183 65.6229 75.5304C65.6648 75.5426 65.7034 75.5641 65.7358 75.5934C65.9512 75.7797 65.9778 76.2565 65.9778 76.2783C65.9778 76.2854 65.976 76.2925 65.9727 76.2988C65.9693 76.3052 65.9644 76.3106 65.9584 76.3146C65.948 76.32 65.9361 76.3218 65.9245 76.3194ZM65.5228 75.5934H65.4986C65.4212 75.5934 65.4163 75.6321 65.4139 75.6418C65.3897 75.7604 65.6559 76.0629 65.8761 76.1936C65.8658 75.9935 65.792 75.802 65.6656 75.6466C65.6253 75.6143 65.5744 75.5979 65.5228 75.6007V75.5934Z" fill="#0F32EB"/>
<path d="M66.123 76.0698H68.059C68.0936 76.0694 68.1273 76.0813 68.154 76.1035C68.1806 76.1257 68.1984 76.1567 68.2042 76.1908L68.4849 77.7687C68.4917 77.8076 68.4898 77.8475 68.4793 77.8856C68.4689 77.9237 68.4502 77.9591 68.4245 77.9891C68.3989 78.0192 68.3669 78.0432 68.3309 78.0594C68.2949 78.0757 68.2558 78.0839 68.2163 78.0833C67.5193 78.0712 66.5223 78.03 65.6341 78.03C64.608 78.03 63.7175 78.0857 62.5148 78.0857C61.7888 78.0857 61.6169 77.3597 61.9243 77.2847C63.3255 76.9798 64.458 76.9483 65.6898 76.2078C65.8191 76.1236 65.9688 76.076 66.123 76.0698Z" fill="#263238"/>
<path d="M72.4295 11.5869C72.1173 12.884 71.9213 14.4909 72.7901 15.3573C72.7901 15.3573 72.2117 16.6738 69.8014 16.6738C67.5992 16.6738 68.7584 15.3573 68.7584 15.3573C70.2104 15.0136 70.2225 13.2228 70.0168 12.2113L72.4295 11.5869Z" fill="#FFB573"/>
<path opacity="0.2" d="M66.1061 72.1714L66.1036 74.2865H67.8775L67.8799 72.1714H66.1061Z" fill="black"/>
<path opacity="0.2" d="M80.2509 69.1611L78.5545 69.6766L79.5177 71.5957L81.2165 71.0826L80.2509 69.1611Z" fill="black"/>
<path d="M76.3353 16.9785L74.0605 18.2853C74.0605 18.2853 76.4467 23.8513 76.2119 24.7516C75.8901 25.9616 75.7279 28.4324 75.2318 30.0368C75.4278 30.2571 76.0909 30.6515 76.3571 30.6418C77.3251 28.7058 78.903 25.4025 78.811 24.2821C78.6029 21.7217 76.3353 16.9785 76.3353 16.9785Z" fill="#FFB573"/>
<path d="M75.2319 30.0366L73.6734 30.6803L75.2367 31.9799C75.2367 31.9799 76.5822 31.3725 76.3354 30.2302L75.2319 30.0366Z" fill="#FFB573"/>
<path d="M72.8022 32.0746L74.276 33.1805L75.2367 31.9802L73.6734 30.6807L72.8022 32.0746Z" fill="#FFB573"/>
<path d="M75.9482 15.7587C77.5986 16.0951 78.9393 21.9902 78.9393 21.9902L75.2222 23.7786C75.2222 23.7786 73.9493 20.9375 73.3878 18.8515C72.8022 16.6638 74.1767 15.3981 75.9482 15.7587Z" fill="#0F32EB"/>
<path opacity="0.2" d="M74.622 17.7868C73.9299 17.0608 74.2445 19.9503 74.4188 21.8718C74.5664 22.2542 74.7092 22.5978 74.8326 22.8906C75.832 21.4435 75.59 18.8032 74.622 17.7868Z" fill="black"/>
<path d="M68.814 15.8941C68.814 15.2649 68.722 14.9672 68.8939 14.7349C69.0657 14.5026 72.473 14.2267 73.0611 14.4929C73.262 14.5824 73.3781 15.4875 73.1265 15.8917C72.7586 16.4773 68.814 15.8941 68.814 15.8941Z" fill="#0F32EB"/>
<path opacity="0.2" d="M68.814 15.8941C68.814 15.2649 68.722 14.9672 68.8939 14.7349C69.0657 14.5026 72.473 14.2267 73.0611 14.4929C73.262 14.5824 73.3781 15.4875 73.1265 15.8917C72.7586 16.4773 68.814 15.8941 68.814 15.8941Z" fill="black"/>
<path d="M66.0092 15.8506C66.0092 15.8506 63.6812 21.2037 65.23 31.1741H74.714C74.8422 29.7221 74.23 22.6169 75.9482 15.7587C74.9054 15.5559 73.8504 15.4217 72.7901 15.3569C71.4473 15.2795 70.1012 15.2795 68.7584 15.3569C67.8307 15.4505 66.9116 15.6156 66.0092 15.8506Z" fill="#0F32EB"/>
<path d="M67.362 18.3383L65.0122 17.3921C65.0122 17.3921 61.8371 22.7838 61.1741 23.2364C59.6374 22.3942 59.1219 22.7354 57.9264 21.8521C57.6239 21.8836 57.152 22.3047 56.9923 22.5201C57.9603 24.3835 61.1765 26.6897 62.7664 25.2837C64.7339 23.5437 67.362 18.3383 67.362 18.3383Z" fill="#FFB573"/>
<path opacity="0.2" d="M67.6573 17.6997C67.3039 16.7898 66.5634 16.4099 65.7624 16.543C65.4091 17.6586 64.7944 20.11 64.7073 23.803L65.6269 24.0111C65.6269 24.0111 68.2647 19.2558 67.6573 17.6997Z" fill="black"/>
<path d="M68.0614 17.0631C68.589 18.6506 65.3559 23.3212 65.3559 23.3212L61.8953 21.3852C62.4937 19.9284 63.2414 18.5376 64.1265 17.2349C65.4648 15.3739 67.483 15.3231 68.0614 17.0631Z" fill="#0F32EB"/>
<path d="M57.9845 21.9031L56.4042 20.9907L55.4798 22.8299C56.1184 23.0403 56.787 23.1457 57.4594 23.1421L57.9845 21.9031Z" fill="#FFB573"/>
<path d="M55.625 20.9907L54.4949 22.0652L55.4798 22.8299L56.4043 20.9907H55.625Z" fill="#FFB573"/>
<path d="M68.4994 9.72077C68.4849 9.86355 68.3978 9.96277 68.3058 9.96277C68.2139 9.96277 68.1485 9.83693 68.163 9.69415C68.1776 9.55137 68.2647 9.45215 68.3591 9.45215C68.4534 9.45215 68.5139 9.57799 68.4994 9.72077Z" fill="#263238"/>
<path d="M68.6253 9.73291C68.4112 10.1606 68.141 10.5577 67.8218 10.9139C67.9137 10.9898 68.0213 11.0441 68.1369 11.073C68.2524 11.1019 68.373 11.1046 68.4898 11.0809L68.6253 9.73291Z" fill="#ED893E"/>
<path d="M68.33 9.22729L68.2937 9.21277C68.2847 9.2065 68.277 9.19849 68.2712 9.18922C68.2653 9.17994 68.2613 9.16959 68.2595 9.15877C68.2577 9.14794 68.2581 9.13687 68.2607 9.12619C68.2632 9.11552 68.2678 9.10546 68.2743 9.09661C68.3503 8.98245 68.4516 8.88744 68.5705 8.819C68.6893 8.75057 68.8223 8.71057 68.9592 8.70215C68.97 8.70246 68.9806 8.7049 68.9905 8.70933C69.0004 8.71375 69.0093 8.72008 69.0167 8.72795C69.0241 8.73581 69.0299 8.74506 69.0337 8.75517C69.0376 8.76528 69.0394 8.77604 69.039 8.78685C69.0378 8.80934 69.0282 8.83054 69.0121 8.84624C68.9959 8.86194 68.9744 8.87097 68.9519 8.87155C68.845 8.88039 68.7415 8.91382 68.6495 8.96923C68.5576 9.02463 68.4797 9.10053 68.422 9.19099C68.4119 9.2054 68.3978 9.21653 68.3814 9.22298C68.3651 9.22944 68.3472 9.23093 68.33 9.22729Z" fill="#263238"/>
<path d="M73.3176 9.59724C73.0296 11.3445 72.9522 12.3778 71.977 13.2272C71.6673 13.5076 71.2863 13.6971 70.8759 13.775C70.4655 13.8529 70.0416 13.8162 69.6507 13.6689C69.2598 13.5216 68.9171 13.2694 68.6602 12.94C68.4033 12.6107 68.2422 12.2168 68.1945 11.8019C67.9791 10.2047 68.4825 7.61768 70.266 7.01752C70.6471 6.87775 71.0585 6.84139 71.4582 6.91213C71.8579 6.98286 72.2318 7.15818 72.5418 7.42024C72.8518 7.68231 73.0869 8.02178 73.2231 8.40416C73.3594 8.78653 73.392 9.19818 73.3176 9.59724Z" fill="#FFB573"/>
<path d="M69.6756 10.3503C69.3126 9.20083 68.8407 7.42455 70.1305 6.76631C71.4204 6.10807 72.4368 7.02283 73.8428 7.86983C75.4279 8.82331 74.4599 11.8483 72.5481 12.5598C70.9436 13.1575 69.3779 11.9572 69.6756 10.3503Z" fill="#263238"/>
<path d="M69.8159 8.21818C68.6785 8.52552 67.8944 7.79468 68.4558 6.95252C69.1673 5.88046 71.9648 6.16118 73.0127 7.32036C74.0606 8.47954 70.6048 9.03372 69.8159 8.21818Z" fill="#263238"/>
<path d="M70.2491 7.37108C68.86 7.11456 68.2913 5.982 69.4553 5.2802C70.554 4.61954 73.6419 5.7642 74.1574 7.58888C74.6729 9.41356 70.6702 8.66578 70.2491 7.37108Z" fill="#263238"/>
<path d="M73.9517 8.23989C74.1622 8.07049 74.9995 7.82849 75.0939 8.76503C74.7885 8.4586 74.3831 8.27222 73.9517 8.23989Z" fill="#263238"/>
<path d="M74.5518 7.07324C74.7188 7.2862 74.956 8.12352 74.017 8.21306C74.3256 7.90911 74.5153 7.50483 74.5518 7.07324Z" fill="#263238"/>
<path d="M70.675 10.2702C70.5485 10.6477 70.2828 10.9627 69.932 11.151C69.4674 11.393 69.1455 11.0107 69.206 10.517C69.2569 10.0741 69.5594 9.41106 70.0603 9.37234C70.5612 9.33362 70.8274 9.80794 70.675 10.2702Z" fill="#FFB573"/>
<path d="M68.5938 31.1743C68.5938 31.1743 70.0095 44.7263 70.8904 49.8083C71.8584 55.3743 78.6344 71.4431 78.6344 71.4431L81.7441 70.5042C81.7441 70.5042 76.9041 55.7301 76.4467 50.227C75.9627 44.252 74.7237 31.1816 74.7237 31.1816L68.5938 31.1743Z" fill="#263238"/>
<path opacity="0.2" d="M70.7742 35.9128C70.6338 35.6998 70.5007 35.6272 70.3725 35.6708H70.3483C70.3186 35.6827 70.2908 35.699 70.266 35.7192C70.24 35.7407 70.2157 35.7641 70.1934 35.7894C70.1789 35.8039 70.1668 35.8208 70.1522 35.8378C70.1377 35.8547 70.1159 35.8886 70.0966 35.9176C70.0526 35.9886 70.013 36.0621 69.978 36.1378C69.9586 36.1838 69.9369 36.2322 69.9175 36.2806C69.8981 36.329 69.8691 36.404 69.8449 36.4718C69.8207 36.5396 69.782 36.6557 69.753 36.7549C69.753 36.7816 69.736 36.8058 69.7287 36.8324C69.7215 36.859 69.6973 36.9437 69.6803 36.9994L69.644 37.1446C69.6174 37.2414 69.5932 37.3382 69.569 37.4398C69.5448 37.5414 69.5206 37.66 69.4964 37.7738C69.4964 37.8125 69.4795 37.8536 69.4698 37.8923C69.4408 38.0375 69.4117 38.1876 69.3827 38.3376C69.7723 41.7111 70.2394 45.5783 70.6459 48.2766C70.675 48.1894 70.704 48.0975 70.733 47.9983C70.8578 47.549 70.9588 47.0934 71.0355 46.6334C71.6381 43.1558 71.6841 37.2994 70.7742 35.9128Z" fill="black"/>
<path d="M65.23 31.1743C65.23 31.1743 64.4024 44.4311 64.3564 49.8398C64.308 55.4639 65.4623 73.8776 65.4623 73.8776H68.4656C68.4656 73.8776 69.3731 55.793 69.7506 50.2681C70.1596 44.2472 71.4639 31.1743 71.4639 31.1743H65.23Z" fill="#263238"/>
<path d="M68.7051 72.9579C68.7172 72.9579 68.6616 73.938 68.6616 73.938H65.1985L65.1017 72.8369L68.7051 72.9579Z" fill="#0F32EB"/>
<path d="M81.4972 69.4004C81.5747 69.5529 81.9038 70.5087 81.9038 70.5087L78.494 71.5421L77.935 70.6225L81.4972 69.4004Z" fill="#0F32EB"/>
</g>
<defs>
<clipPath id="clip0_1541_3002">
<rect width="83" height="78" fill="white"/>
</clipPath>
</defs>
</svg>
