<svg width="84" height="76" viewBox="0 0 84 76" fill="none" xmlns="http://www.w3.org/2000/svg">
<g clip-path="url(#clip0_1541_3071)">
<path d="M41.5 76.208C64.844 76.208 83.7681 75.1031 83.7681 73.7402C83.7681 72.3773 64.844 71.2725 41.5 71.2725C18.156 71.2725 -0.768005 72.3773 -0.768005 73.7402C-0.768005 75.1031 18.156 76.208 41.5 76.208Z" fill="#F5F5F5"/>
<path d="M55.997 4.64746H5.74365L9.05071 73.0864H59.3041L55.997 4.64746Z" fill="#0F32EB"/>
<path opacity="0.2" d="M55.997 4.64746H5.74365L9.05071 73.0864H59.3041L55.997 4.64746Z" fill="black"/>
<path d="M56.4614 4.64746H6.20801L9.51725 73.0864H59.7706L56.4614 4.64746Z" fill="#0F32EB"/>
<path opacity="0.2" d="M53.8083 6.94922H8.50574L11.6711 69.9926L51.0637 69.9403L57.6102 64.1372L53.8083 6.94922Z" fill="black"/>
<path d="M54.1549 6.94727C54.638 25.8275 56.1627 44.6666 58.722 63.3787C55.1323 65.8494 51.5607 68.3201 48.0073 70.7907H14.1258C10.9278 49.647 9.05082 28.3245 8.50574 6.94727H54.1549Z" fill="white"/>
<path d="M58.722 63.379C55.1323 65.8496 51.5607 68.3203 48.0073 70.791C48.7834 67.521 49.5922 64.251 50.4337 60.981L58.722 63.379Z" fill="#EBEBEB"/>
<path d="M20.79 12.7156C20.8757 15.0235 20.976 17.3329 21.0908 19.6437H14.165C14.0487 17.3329 13.9484 15.0235 13.8641 12.7156H20.79ZM21.4963 11.9854H13.1077C13.205 14.7801 13.3264 17.5763 13.4717 20.374H21.8625C21.7172 17.5778 21.5959 14.7816 21.4985 11.9854H21.4963Z" fill="#0F32EB"/>
<path d="M49.0907 15.3162H25.368C25.3462 14.7952 25.3266 14.272 25.3069 13.751H49.0275C49.0471 14.272 49.0689 14.7952 49.0907 15.3162Z" fill="#E0E0E0"/>
<path d="M44.079 18.6082H25.5141C25.4901 18.085 25.4639 17.564 25.4421 17.043H44.0048C44.0295 17.5647 44.0542 18.0865 44.079 18.6082Z" fill="#E0E0E0"/>
<path d="M21.4702 26.284C21.6155 28.5948 21.7776 30.9056 21.9563 33.2164H15.0283C14.8495 30.9056 14.6875 28.5948 14.5421 26.284H21.4702ZM22.1547 25.5537H13.7661C13.9375 28.3514 14.133 31.149 14.3525 33.9467H22.752C22.534 31.1505 22.3378 28.3528 22.1634 25.5537H22.1547Z" fill="#0F32EB"/>
<path d="M34.8292 28.8868H26.1092C26.0743 28.3636 26.0373 27.8425 26.0046 27.3193H34.7246C34.7573 27.8425 34.7922 28.3636 34.8292 28.8868Z" fill="#E0E0E0"/>
<path d="M43.0849 28.8868H36.6735C36.6386 28.3636 36.6015 27.8425 36.5688 27.3193H42.9802C43.0129 27.8425 43.0478 28.3636 43.0849 28.8868Z" fill="#E0E0E0"/>
<path d="M47.1091 32.1807H26.349C26.3098 31.6575 26.2727 31.1365 26.2335 30.6133H46.9936C47.0328 31.1365 47.0699 31.6575 47.1091 32.1807Z" fill="#E0E0E0"/>
<path d="M22.5101 39.8587C22.7179 42.1695 22.9417 44.4803 23.1815 46.7911H16.2535C16.0137 44.4803 15.7898 42.1695 15.582 39.8587H22.5101ZM23.1771 39.1284H14.7863C15.0334 41.9275 15.3037 44.7259 15.5973 47.5236H23.9881C23.6974 44.7245 23.4271 41.9261 23.1771 39.1284Z" fill="#0F32EB"/>
<path d="M51.1138 44.1904H27.3889L27.5458 45.7557H51.2708L51.1138 44.1904Z" fill="#E0E0E0"/>
<path d="M45.642 40.8965H27.0771C27.1251 41.4175 27.1731 41.9407 27.2232 42.4617H45.7859C45.7379 41.9407 45.6878 41.424 45.642 40.8965Z" fill="#E0E0E0"/>
<path d="M23.9118 53.4334C24.1821 55.7442 24.4677 58.0543 24.7685 60.3636H17.8405C17.5396 58.0558 17.254 55.7457 16.9837 53.4334H23.9118ZM24.5658 52.7031H16.1684C16.4881 55.5022 16.8333 58.2992 17.2039 61.0939H25.586C25.2183 58.2992 24.8731 55.5022 24.5505 52.7031H24.5658Z" fill="#0F32EB"/>
<path d="M52.4196 56.0298H28.6947C28.6315 55.5066 28.5682 54.9856 28.5072 54.4624H52.23C52.2932 54.9921 52.3542 55.5132 52.4196 56.0298Z" fill="#E0E0E0"/>
<path d="M39.9064 59.3284H29.1067C29.0391 58.8074 28.9737 58.2842 28.9083 57.7632H39.708C39.7734 58.2842 39.8388 58.8074 39.9064 59.3284Z" fill="#E0E0E0"/>
<path d="M46.3549 59.3284H41.6919C41.6243 58.8074 41.5589 58.2842 41.4935 57.7632H46.1565C46.2219 58.2842 46.296 58.8074 46.3549 59.3284Z" fill="#E0E0E0"/>
<path d="M17.738 18.6538L17.4307 18.1655C16.7592 17.0973 15.3902 16.1447 14.9171 15.8656L15.2703 15.24C16.1984 15.8036 17.0276 16.5157 17.725 17.348C18.7801 15.9114 20.341 14.4268 22.4774 12.8311L22.9286 13.4197C20.6483 15.1266 19.0526 16.6897 18.0454 18.1939L17.738 18.6538Z" fill="#0F32EB"/>
<path d="M18.5664 32.2266L18.2459 31.7382C17.5483 30.67 16.1531 29.7152 15.6735 29.4362L16.0071 28.8105C16.9529 29.3743 17.8016 30.0868 18.5206 30.9207C19.5365 29.4819 21.0559 27.9974 23.1509 26.3994C23.3057 26.5956 23.4627 26.7918 23.6174 26.9902C21.3829 28.6993 19.8286 30.2602 18.8629 31.7666C18.7626 31.9192 18.6645 32.074 18.5664 32.2266Z" fill="#0F32EB"/>
<path d="M19.7698 45.8364L19.4362 45.3481C18.7081 44.2799 17.2867 43.3251 16.8006 43.0482C16.9052 42.8302 17.0186 42.6296 17.1189 42.4225C18.0794 42.9872 18.9459 43.6985 19.6869 44.5306C20.6657 43.0918 22.146 41.6094 24.1952 40.0093L24.6791 40.6001C22.4991 42.3092 20.9731 43.8701 20.051 45.3764L19.7698 45.8364Z" fill="#0F32EB"/>
<path d="M41.7464 67.0301C40.4602 67.0301 39.719 66.5549 39.065 66.1363C38.411 65.7177 37.8485 65.3559 36.7629 65.3559C35.6772 65.3559 35.1933 65.7352 34.681 66.1363C34.1687 66.5374 33.5408 67.0301 32.2546 67.0301C30.9684 67.0301 30.2272 66.5549 29.5754 66.1363C28.9236 65.7177 28.3612 65.3559 27.2733 65.3559C26.1855 65.3559 25.7037 65.7352 25.1914 66.1363C24.6791 66.5374 24.0513 67.0301 22.7673 67.0301C21.4833 67.0301 20.7399 66.5549 20.0859 66.1363C19.4319 65.7177 18.8716 65.3559 17.7838 65.3559C17.7555 65.1379 17.7249 64.9373 17.6966 64.728C18.9828 64.728 19.7218 65.2033 20.3758 65.6218C21.0298 66.0404 21.5901 66.4023 22.6757 66.4023C23.7614 66.4023 24.2453 66.0229 24.7576 65.6218C25.2699 65.2207 25.8999 64.728 27.1861 64.728C28.4723 64.728 29.2092 65.2033 29.8632 65.6218C30.5172 66.0404 31.0796 66.4023 32.1653 66.4023C33.2509 66.4023 33.7349 66.0229 34.2472 65.6218C34.7595 65.2207 35.3895 64.728 36.6757 64.728C37.9619 64.728 38.7009 65.2033 39.3549 65.6218C40.0089 66.0404 40.5692 66.4023 41.657 66.4023C41.6853 66.6115 41.718 66.8208 41.7464 67.0301Z" fill="#EBEBEB"/>
<path d="M43.5906 6.34123C42.8538 4.37923 41.1512 3.09085 39.32 3.09085H35.5878C35.31 3.08843 35.039 3.00451 34.8084 2.8495C34.5778 2.69449 34.3978 2.47521 34.2907 2.21885C34.0269 1.59227 33.5857 1.05645 33.0214 0.677279C32.4571 0.298108 31.7943 0.092115 31.1145 0.0846316C30.4568 0.0779623 29.8142 0.281361 29.2802 0.665223C28.7461 1.04908 28.3486 1.59337 28.1453 2.21885C28.0625 2.47477 27.8999 2.69747 27.6815 2.85438C27.463 3.01128 27.2 3.09415 26.931 3.09085H23.2011C21.3677 3.09085 19.7894 4.38577 19.2444 6.34123L19.0264 7.11949H43.8784L43.5906 6.34123Z" fill="#263238"/>
<path d="M43.7236 7.88705H19.264C19.0577 7.88465 18.86 7.80414 18.7108 7.66174C18.5615 7.51934 18.4717 7.32564 18.4596 7.11969C18.4543 7.02074 18.4692 6.92175 18.5036 6.82879C18.5379 6.73584 18.5909 6.65091 18.6594 6.57923C18.7278 6.50754 18.8101 6.45062 18.9014 6.41197C18.9926 6.37333 19.0908 6.35377 19.1899 6.35451H43.6495C43.8555 6.35688 44.0529 6.43709 44.2021 6.57903C44.3513 6.72098 44.4413 6.91413 44.4539 7.11969C44.4596 7.21882 44.4449 7.31806 44.4107 7.41126C44.3765 7.50447 44.3235 7.58967 44.255 7.6616C44.1866 7.73352 44.1041 7.79064 44.0127 7.82942C43.9213 7.86819 43.8229 7.88781 43.7236 7.88705Z" fill="#0F32EB"/>
<path opacity="0.2" d="M43.7236 7.88705H19.264C19.0577 7.88465 18.86 7.80414 18.7108 7.66174C18.5615 7.51934 18.4717 7.32564 18.4596 7.11969C18.4543 7.02074 18.4692 6.92175 18.5036 6.82879C18.5379 6.73584 18.5909 6.65091 18.6594 6.57923C18.7278 6.50754 18.8101 6.45062 18.9014 6.41197C18.9926 6.37333 19.0908 6.35377 19.1899 6.35451H43.6495C43.8555 6.35688 44.0529 6.43709 44.2021 6.57903C44.3513 6.72098 44.4413 6.91413 44.4539 7.11969C44.4596 7.21882 44.4449 7.31806 44.4107 7.41126C44.3765 7.50447 44.3235 7.58967 44.255 7.6616C44.1866 7.73352 44.1041 7.79064 44.0127 7.82942C43.9213 7.86819 43.8229 7.88781 43.7236 7.88705Z" fill="black"/>
<path d="M65.6805 72.4299H64.0826L63.9235 68.7305H65.5214L65.6805 72.4299Z" fill="#FFC3BD"/>
<path d="M75.2704 72.4299H73.6724L72.8702 68.7305H74.4659L75.2704 72.4299Z" fill="#FFC3BD"/>
<path d="M73.5591 72.2446H75.3532C75.3849 72.2445 75.4156 72.2552 75.4402 72.2751C75.4649 72.2949 75.4819 72.3227 75.4884 72.3536L75.8045 73.775C75.8117 73.8095 75.811 73.8451 75.8026 73.8793C75.7942 73.9135 75.7782 73.9454 75.7558 73.9726C75.7334 73.9998 75.7052 74.0216 75.6733 74.0365C75.6413 74.0513 75.6065 74.0588 75.5712 74.0584C74.9456 74.0475 74.6404 74.0104 73.8512 74.0104C73.3651 74.0104 72.3645 74.0606 71.6952 74.0606C71.0259 74.0606 70.9366 73.4066 71.2112 73.339C72.4429 73.0687 72.9051 72.6981 73.2997 72.3427C73.3713 72.2795 73.4636 72.2447 73.5591 72.2446Z" fill="#263238"/>
<path d="M64.0935 72.2446H65.8375C65.8692 72.2445 65.8999 72.2552 65.9245 72.2751C65.9491 72.2949 65.9662 72.3227 65.9727 72.3536L66.2888 73.775C66.2965 73.8083 66.2968 73.8429 66.2896 73.8764C66.2823 73.9098 66.2677 73.9412 66.2469 73.9683C66.226 73.9954 66.1994 74.0176 66.169 74.0331C66.1385 74.0487 66.105 74.0573 66.0708 74.0584C65.4408 74.0475 64.5317 74.0104 63.7404 74.0104C62.816 74.0104 62.0182 74.0606 60.9325 74.0606C60.2785 74.0606 60.0954 73.4066 60.3701 73.339C61.6192 73.0643 62.6395 73.036 63.7186 72.3689C63.8302 72.2947 63.9597 72.2518 64.0935 72.2446Z" fill="#263238"/>
<path d="M67.224 14.1567C67.006 15.3252 66.8796 16.7727 67.6971 17.5532C67.6971 17.5532 67.2284 18.7391 65.0571 18.7391C63.0733 18.7391 64.0674 17.5532 64.0674 17.5532C65.3754 17.2414 65.3012 15.6304 65.0745 14.7192L67.224 14.1567Z" fill="#FFC3BD"/>
<path d="M63.4438 17.7163C63.4874 17.4264 63.9976 17.0885 64.5774 16.962C65.1573 16.8356 67.3853 16.5544 68.0654 16.8356C68.7456 17.1168 67.9477 17.9496 67.9477 17.9496L63.4438 17.7163Z" fill="#0F32EB"/>
<path opacity="0.4" d="M63.4438 17.7163C63.4874 17.4264 63.9976 17.0885 64.5774 16.962C65.1573 16.8356 67.3853 16.5544 68.0654 16.8356C68.7456 17.1168 67.9477 17.9496 67.9477 17.9496L63.4438 17.7163Z" fill="white"/>
<path opacity="0.2" d="M63.9235 68.7329L64.0063 70.6382H65.6042L65.5214 68.7329H63.9235Z" fill="black"/>
<path opacity="0.2" d="M74.4681 68.7329H72.8702L73.2844 70.6382H74.8823L74.4681 68.7329Z" fill="black"/>
<path d="M71.0063 18.9917L69.0814 20.2779C69.0814 20.2779 71.8456 25.1938 71.6145 25.9808C71.2984 27.0533 70.8581 29.3968 70.2586 30.5871C70.337 30.8444 70.736 31.4308 70.9583 31.5311C72.4843 30.3713 74.0256 26.7351 73.9689 25.717C73.8359 23.4084 71.0063 18.9917 71.0063 18.9917Z" fill="#FFC3BD"/>
<path d="M70.2585 30.5914L68.7325 30.4736L69.5326 32.1544C69.5326 32.1544 70.8646 32.2133 71.0869 31.1952L70.2585 30.5914Z" fill="#B55B52"/>
<path d="M77.8014 38.7884L77.6727 39.0304L76.8095 40.6632L46.163 24.4593L47.1527 22.5845L77.8014 38.7884Z" fill="#0F32EB"/>
<path d="M79.783 35.0452L79.1508 36.2399L78.7933 36.9157L48.1447 20.7117L49.1344 18.8369L79.783 35.0452Z" fill="#0F32EB"/>
<path d="M48.1548 20.7061L47.1629 22.5786L77.7989 38.8064L78.7908 36.9339L48.1548 20.7061Z" fill="#0F32EB"/>
<path opacity="0.2" d="M48.1548 20.7061L47.1629 22.5786L77.7989 38.8064L78.7908 36.9339L48.1548 20.7061Z" fill="black"/>
<path d="M44.8419 19.0857L43.9503 20.773L46.163 24.4594L49.1344 18.8394L44.8419 19.0857Z" fill="#0F32EB"/>
<path opacity="0.8" d="M44.8419 19.0857L43.9503 20.773L46.163 24.4594L49.1344 18.8394L44.8419 19.0857Z" fill="white"/>
<path d="M43.002 19.1923L43.9503 20.7728L44.8419 19.0854L43.002 19.1923Z" fill="#0F32EB"/>
<path d="M67.5052 31.2388L68.3031 32.7256L69.5391 32.1544L68.7391 30.4736L67.5052 31.2388Z" fill="#B55B52"/>
<path d="M70.5485 17.915C72.0593 18.133 73.7902 23.365 73.7902 23.365L70.6161 25.157C70.6161 25.157 69.2187 22.6761 68.532 20.8231C67.8083 18.8851 68.9288 17.6796 70.5485 17.915Z" fill="#263238"/>
<path opacity="0.2" d="M69.6699 19.7089C68.9832 19.0811 69.404 21.769 69.731 23.489C69.8988 23.8247 70.058 24.1299 70.1931 24.385C70.9583 23.0334 70.6161 20.5744 69.6699 19.7089Z" fill="black"/>
<path d="M61.6017 17.9976C61.6017 17.9976 59.716 22.8197 61.5058 31.8013H70.058C70.1168 30.4933 69.2928 24.0928 70.5572 17.9147C69.6126 17.7324 68.6572 17.6115 67.697 17.5528C66.4881 17.483 65.2762 17.483 64.0673 17.5528C63.2351 17.6361 62.4106 17.7848 61.6017 17.9976Z" fill="#263238"/>
<path d="M62.9163 20.2386L60.7624 19.3862C60.7624 19.3862 58.2816 24.4504 57.4924 24.7054C56.4308 25.0542 54.2508 26.0134 52.9297 26.2009C52.764 26.4189 52.5068 27.0729 52.5482 27.3127C54.3685 27.9079 58.2424 27.1187 59.0446 26.4952C60.8845 25.0739 62.9163 20.2386 62.9163 20.2386Z" fill="#FFC3BD"/>
<path opacity="0.2" d="M63.1583 19.663C62.803 18.8433 62.1228 18.5011 61.4143 18.621C61.1396 19.6259 60.6753 21.8343 60.7603 25.161L61.2682 25.4051C61.2682 25.4051 63.7665 21.0647 63.1583 19.663Z" fill="black"/>
<path d="M63.4984 19.0899C64.0347 20.52 61.3184 24.7274 61.3184 24.7274L58.1225 22.9834C58.6026 21.6748 59.2217 20.4214 59.969 19.2447C61.0917 17.5683 62.9076 17.5225 63.4984 19.0899Z" fill="#263238"/>
<path d="M53.0082 26.1968L51.1072 26.6001L52.0708 28.3593C52.6021 28.095 53.0849 27.7427 53.4987 27.3173L53.0082 26.1968Z" fill="#FFC3BD"/>
<path d="M50.2091 26.9991L50.9677 28.0499L52.0708 28.3681L51.1073 26.6089L50.2091 26.9991Z" fill="#FFC3BD"/>
<path d="M63.6008 12.4759C63.6008 12.6045 63.5202 12.6939 63.4352 12.6939C63.3501 12.6939 63.2891 12.5805 63.2978 12.4519C63.3065 12.3233 63.3785 12.2339 63.4635 12.2339C63.5485 12.2339 63.6096 12.3472 63.6008 12.4759Z" fill="#263238"/>
<path d="M63.7142 12.4868C63.5382 12.8709 63.31 13.2289 63.0362 13.5507C63.1204 13.6188 63.2185 13.6675 63.3236 13.6935C63.4287 13.7195 63.5382 13.7221 63.6444 13.7011L63.7142 12.4868Z" fill="#ED847E"/>
<path d="M63.4373 12.0309C63.4257 12.0285 63.4147 12.024 63.4046 12.0178C63.3962 12.0125 63.3889 12.0056 63.3832 11.9974C63.3775 11.9892 63.3735 11.9799 63.3714 11.9701C63.3694 11.9604 63.3694 11.9503 63.3713 11.9405C63.3733 11.9307 63.3772 11.9214 63.3828 11.9132C63.446 11.8111 63.5325 11.7255 63.6352 11.6633C63.7379 11.6012 63.8539 11.5643 63.9736 11.5557C63.9935 11.5567 64.0123 11.5651 64.0264 11.5792C64.0405 11.5933 64.0488 11.6121 64.0499 11.632C64.0499 11.6522 64.0419 11.6716 64.0275 11.6859C64.0132 11.7002 63.9938 11.7083 63.9736 11.7083C63.8806 11.7169 63.791 11.7473 63.7118 11.7969C63.6327 11.8465 63.5663 11.9139 63.518 11.9938C63.5101 12.0077 63.498 12.0187 63.4836 12.0253C63.4691 12.032 63.4529 12.0339 63.4373 12.0309Z" fill="#263238"/>
<path d="M67.9347 12.3646C67.7472 13.9386 67.7167 14.8673 66.873 15.6346C65.6021 16.7857 63.6946 15.9507 63.4068 14.3506C63.1496 12.9118 63.5006 10.5814 65.0832 10.0407C65.4315 9.92025 65.8048 9.89075 66.1676 9.95504C66.5305 10.0193 66.8709 10.1753 67.1565 10.4081C67.4422 10.6409 67.6636 10.9428 67.7998 11.2853C67.936 11.6277 67.9824 11.9992 67.9347 12.3646Z" fill="#FFC3BD"/>
<path d="M64.7628 12.6719C64.2112 12.7809 63.3305 11.5558 64.0499 10.5159C63.6859 10.335 62.4978 11.05 62.0509 10.3829C61.604 9.71586 62.8444 9.36052 62.6068 8.7959C63.4482 8.96812 62.0618 10.0189 62.8618 9.91642C63.6619 9.81396 64.584 8.33592 65.4778 8.94196C67.0583 10.0036 69.2122 8.23346 68.3336 10.4505C69.4105 10.2325 70.1474 11.5056 69.1206 12.3885C67.0736 14.1434 68.3336 14.3745 67.0365 14.4639C66.3869 14.5119 64.8761 13.738 64.7628 12.6719Z" fill="#263238"/>
<path d="M65.5803 13.0838C65.5048 13.2412 65.3986 13.3819 65.268 13.4975C65.1373 13.6132 64.9848 13.7016 64.8195 13.7574C64.3835 13.9079 64.1328 13.5176 64.2352 13.0882C64.3268 12.7001 64.6712 12.1551 65.1225 12.1944C65.2215 12.2041 65.3166 12.2384 65.3989 12.2943C65.4812 12.3502 65.5483 12.4259 65.5938 12.5143C65.6393 12.6028 65.662 12.7013 65.6596 12.8008C65.6572 12.9003 65.63 12.9976 65.5803 13.0838Z" fill="#FFC3BD"/>
<path d="M64.5361 31.8013C64.5361 31.8013 66.3498 44.0093 67.3439 48.5873C68.4339 53.6013 72.5388 70.2761 72.5388 70.2761H75.4644C75.4644 70.2761 72.759 54.0002 72.1355 49.0407C71.4619 43.6605 70.0493 31.8078 70.0493 31.8078L64.5361 31.8013Z" fill="#0F32EB"/>
<path opacity="0.2" d="M64.5361 31.8013C64.5361 31.8013 66.3498 44.0093 67.3439 48.5873C68.4339 53.6013 72.5388 70.2761 72.5388 70.2761H75.4644C75.4644 70.2761 72.759 54.0002 72.1355 49.0407C71.4619 43.6605 70.0493 31.8078 70.0493 31.8078L64.5361 31.8013Z" fill="white"/>
<path opacity="0.2" d="M66.6899 36.0697C66.5547 35.8779 66.4326 35.8125 66.3193 35.8517H66.2953C66.2695 35.863 66.2453 35.8777 66.2234 35.8953C66.2002 35.9142 66.179 35.9354 66.1601 35.9585L66.1252 36.0021L66.0795 36.0741C66.0416 36.1375 66.0088 36.2038 65.9814 36.2725C65.9639 36.3139 65.9465 36.3575 65.9312 36.4011C65.916 36.4447 65.892 36.5123 65.8745 36.5733C65.8571 36.6343 65.8244 36.739 65.8004 36.8284C65.8004 36.8523 65.7895 36.8741 65.783 36.8981C65.7765 36.9221 65.759 36.9984 65.7481 37.0485C65.7372 37.0987 65.7285 37.1357 65.7198 37.1793C65.7002 37.2644 65.6827 37.3537 65.6653 37.4453C65.6478 37.5369 65.6282 37.6437 65.6108 37.7461C65.6108 37.781 65.5999 37.8159 65.5933 37.853C65.5715 37.9838 65.5519 38.1167 65.5323 38.2541C66.0162 41.293 66.5918 44.7766 67.0583 47.2073C67.0801 47.1289 67.1041 47.046 67.1237 46.9566C67.2189 46.5511 67.2917 46.1406 67.3417 45.7271C67.7537 42.5945 67.564 37.3189 66.6899 36.0697Z" fill="black"/>
<path d="M61.5058 31.8013C61.5058 31.8013 61.2878 43.7433 61.46 48.6156C61.641 53.6819 63.4111 70.2696 63.4111 70.2696H66.1165C66.1165 70.2696 66.2146 53.9762 66.3345 49.0015C66.4653 43.5776 67.1193 31.8013 67.1193 31.8013H61.5058Z" fill="#0F32EB"/>
<path opacity="0.2" d="M61.5058 31.8013C61.5058 31.8013 61.2878 43.7433 61.46 48.6156C61.641 53.6819 63.4111 70.2696 63.4111 70.2696H66.1165C66.1165 70.2696 66.2146 53.9762 66.3345 49.0015C66.4653 43.5776 67.1193 31.8013 67.1193 31.8013H61.5058Z" fill="white"/>
<path d="M66.2953 69.4415C66.3062 69.4415 66.2953 70.3244 66.2953 70.3244H63.1757L63.0449 69.3325L66.2953 69.4415Z" fill="#263238"/>
<path d="M75.4644 69.5066C75.4775 69.5066 75.6105 70.3241 75.6105 70.3241H72.395L72.1116 69.3867L75.4644 69.5066Z" fill="#263238"/>
<path d="M73.0315 72.5239C72.9229 72.5327 72.8145 72.5043 72.7242 72.4432C72.6948 72.4194 72.6722 72.3885 72.6584 72.3533C72.6447 72.3181 72.6403 72.28 72.6457 72.2427C72.6459 72.2209 72.6519 72.1995 72.663 72.1808C72.6741 72.162 72.6899 72.1465 72.7089 72.1358C72.8855 72.0465 73.4021 72.3538 73.461 72.3974C73.467 72.4019 73.4716 72.4079 73.4743 72.4148C73.477 72.4218 73.4777 72.4294 73.4763 72.4367C73.4751 72.444 73.4718 72.4509 73.4668 72.4563C73.4617 72.4617 73.4552 72.4655 73.4479 72.4672C73.3116 72.5012 73.172 72.5203 73.0315 72.5239ZM72.7939 72.1947C72.7774 72.191 72.7603 72.191 72.7438 72.1947C72.7362 72.1991 72.7299 72.2055 72.7257 72.2131C72.7215 72.2208 72.7194 72.2295 72.7198 72.2383C72.7165 72.2637 72.7195 72.2896 72.7286 72.3136C72.7378 72.3375 72.7527 72.3589 72.7721 72.3756C72.9501 72.4583 73.1531 72.4693 73.3389 72.4062C73.1726 72.3012 72.9875 72.2294 72.7939 72.1947Z" fill="#0F32EB"/>
<path d="M73.4392 72.4692C73.4335 72.471 73.4274 72.471 73.4217 72.4692C73.2561 72.3798 72.9378 72.0332 72.9705 71.8523C72.976 71.8246 72.991 71.7996 73.0129 71.7818C73.0347 71.7639 73.0621 71.7541 73.0904 71.7542C73.1191 71.7498 73.1485 71.7519 73.1764 71.7602C73.2043 71.7685 73.23 71.7828 73.2517 71.8021C73.437 71.9525 73.4697 72.4147 73.4697 72.4343C73.4695 72.4411 73.4679 72.4477 73.4649 72.4537C73.4619 72.4597 73.4576 72.465 73.4523 72.4692C73.4479 72.47 73.4435 72.47 73.4392 72.4692ZM73.1165 71.8152H73.11C73.0599 71.8152 73.0555 71.8435 73.0533 71.8544C73.0337 71.9591 73.2364 72.2229 73.4021 72.3471C73.3907 72.1654 73.3246 71.9914 73.2125 71.8479C73.1985 71.8359 73.1821 71.8271 73.1644 71.8222C73.1467 71.8173 73.1281 71.8164 73.11 71.8196L73.1165 71.8152Z" fill="#0F32EB"/>
<path d="M63.4286 72.5238C63.2918 72.5365 63.1549 72.5018 63.0406 72.4257C63.0155 72.4027 62.9961 72.3742 62.9839 72.3424C62.9718 72.3106 62.9673 72.2764 62.9708 72.2425C62.9709 72.2218 62.9766 72.2016 62.9873 72.1839C62.9981 72.1662 63.0135 72.1518 63.0318 72.1423C63.2259 72.0333 63.869 72.3603 63.9409 72.3973C63.9482 72.4006 63.9541 72.4063 63.9577 72.4135C63.9612 72.4206 63.9622 72.4288 63.9605 72.4366C63.9596 72.4443 63.9561 72.4516 63.9506 72.4571C63.945 72.4626 63.9378 72.4661 63.93 72.4671C63.7651 72.5023 63.5972 72.5213 63.4286 72.5238ZM63.1387 72.1946C63.1147 72.1936 63.0909 72.1981 63.0689 72.2077C63.0616 72.2119 63.0556 72.2179 63.0514 72.2252C63.0472 72.2324 63.0449 72.2407 63.0449 72.2491C63.0418 72.2713 63.0444 72.294 63.0524 72.3149C63.0604 72.3359 63.0736 72.3545 63.0907 72.369C63.1888 72.4562 63.4526 72.4714 63.8057 72.4126C63.5972 72.303 63.3717 72.2293 63.1387 72.1946Z" fill="#0F32EB"/>
<path d="M63.9234 72.4692H63.9082C63.7142 72.382 63.3327 72.0332 63.3632 71.8566C63.3632 71.8152 63.4002 71.7607 63.5027 71.752C63.5414 71.7462 63.581 71.7489 63.6186 71.7598C63.6562 71.7707 63.691 71.7896 63.7207 71.8152C63.9234 71.9831 63.9649 72.4125 63.967 72.4321C63.968 72.4385 63.967 72.445 63.9643 72.4508C63.9616 72.4566 63.9572 72.4615 63.9518 72.4648C63.9432 72.4698 63.9331 72.4714 63.9234 72.4692ZM63.5332 71.8152H63.518C63.4504 71.8152 63.446 71.8479 63.4438 71.8588C63.4264 71.9656 63.6858 72.2381 63.8798 72.3558C63.861 72.1727 63.7847 72.0003 63.6618 71.8632C63.6247 71.8353 63.5796 71.82 63.5332 71.8196V71.8152Z" fill="#0F32EB"/>
</g>
<defs>
<clipPath id="clip0_1541_3071">
<rect width="84" height="76" fill="white"/>
</clipPath>
</defs>
</svg>
