<svg width="81" height="87" viewBox="0 0 81 87" fill="none" xmlns="http://www.w3.org/2000/svg">
<g clip-path="url(#clip0_1541_3401)">
<path d="M45.6724 5.94265V1.70489L47.7559 1.41113V5.64889L45.6724 5.94265Z" fill="#263238"/>
<path d="M38.7445 8.3038L37.1832 5.81772L38.5133 4.86572L40.0719 7.34908L38.7445 8.3038Z" fill="#263238"/>
<path d="M53.3536 5.48036L54.9149 2.55908L56.2423 3.13844L54.6837 6.06244L53.3536 5.48036Z" fill="#263238"/>
<g opacity="0.5">
<path d="M45.6724 5.94265V1.70489L47.7559 1.41113V5.64889L45.6724 5.94265Z" fill="white"/>
<path d="M38.7445 8.3038L37.1832 5.81772L38.5133 4.86572L40.0719 7.34908L38.7445 8.3038Z" fill="white"/>
<path d="M53.3536 5.48036L54.9149 2.55908L56.2423 3.13844L54.6837 6.06244L53.3536 5.48036Z" fill="white"/>
</g>
<path d="M48.0523 2.09395L45.3758 2.47203C45.2787 2.48998 45.1787 2.48591 45.0833 2.46012C44.9879 2.43434 44.8995 2.3875 44.8247 2.32304C44.7498 2.25858 44.6903 2.17815 44.6506 2.08767C44.6109 1.99718 44.5919 1.89895 44.5952 1.80019C44.6014 1.58422 44.6827 1.37718 44.8253 1.2148C44.9678 1.05241 45.1625 0.944878 45.3758 0.910752L48.0523 0.535391C48.1493 0.5175 48.249 0.521519 48.3442 0.547153C48.4393 0.572786 48.5276 0.619385 48.6024 0.683537C48.6773 0.747688 48.7368 0.827768 48.7767 0.917911C48.8166 1.00805 48.8358 1.10598 48.833 1.20451C48.8263 1.42032 48.7447 1.62709 48.6023 1.78937C48.4599 1.95165 48.2655 2.05933 48.0523 2.09395Z" fill="#263238"/>
<path d="M38.9457 4.79741L36.9628 6.22269C36.9216 6.25716 36.8738 6.28278 36.8222 6.29796C36.7707 6.31313 36.7166 6.31754 36.6632 6.31091C36.6099 6.30427 36.5585 6.28674 36.5123 6.2594C36.466 6.23206 36.4259 6.19549 36.3944 6.15197C36.3421 6.05221 36.3287 5.93658 36.3568 5.82751C36.385 5.71844 36.4526 5.62372 36.5467 5.56173L38.5323 4.13917C38.5731 4.10438 38.6207 4.07847 38.6721 4.06309C38.7235 4.04771 38.7775 4.0432 38.8307 4.04986C38.884 4.05651 38.9352 4.07418 38.9813 4.10173C39.0273 4.12928 39.0671 4.16612 39.0981 4.20989C39.1502 4.30924 39.1635 4.42445 39.1353 4.53306C39.1072 4.64168 39.0396 4.73592 38.9457 4.79741Z" fill="#263238"/>
<path d="M56.4652 3.48115L54.4796 2.61619C54.4323 2.59214 54.3904 2.55852 54.3568 2.51746C54.3231 2.4764 54.2983 2.42879 54.284 2.37765C54.2697 2.32651 54.2661 2.27295 54.2736 2.22037C54.281 2.16779 54.2993 2.11733 54.3273 2.07219C54.377 1.97039 54.4624 1.8905 54.5673 1.84783C54.6722 1.80517 54.7892 1.80273 54.8958 1.84099L56.8787 2.70867C56.9266 2.73208 56.9691 2.76537 57.0032 2.80636C57.0374 2.84735 57.0625 2.89511 57.0769 2.94649C57.0913 2.99788 57.0946 3.05173 57.0867 3.1045C57.0788 3.15727 57.0598 3.20777 57.031 3.25267C56.9814 3.35377 56.8962 3.433 56.7918 3.47517C56.6874 3.51734 56.5711 3.51947 56.4652 3.48115Z" fill="#263238"/>
<path opacity="0.7" d="M48.0523 2.09395L45.3758 2.47203C45.2787 2.48998 45.1787 2.48591 45.0833 2.46012C44.9879 2.43434 44.8995 2.3875 44.8247 2.32304C44.7498 2.25858 44.6903 2.17815 44.6506 2.08767C44.6109 1.99718 44.5919 1.89895 44.5952 1.80019C44.6014 1.58422 44.6827 1.37718 44.8253 1.2148C44.9678 1.05241 45.1625 0.944878 45.3758 0.910752L48.0523 0.535391C48.1493 0.5175 48.249 0.521519 48.3442 0.547153C48.4393 0.572786 48.5276 0.619385 48.6024 0.683537C48.6773 0.747688 48.7368 0.827768 48.7767 0.917911C48.8166 1.00805 48.8358 1.10598 48.833 1.20451C48.8263 1.42032 48.7447 1.62709 48.6023 1.78937C48.4599 1.95165 48.2655 2.05933 48.0523 2.09395Z" fill="white"/>
<path opacity="0.7" d="M38.9457 4.79741L36.9628 6.22269C36.9216 6.25716 36.8738 6.28278 36.8222 6.29796C36.7707 6.31313 36.7166 6.31754 36.6632 6.31091C36.6099 6.30427 36.5585 6.28674 36.5123 6.2594C36.466 6.23206 36.4259 6.19549 36.3944 6.15197C36.3421 6.05221 36.3287 5.93658 36.3568 5.82751C36.385 5.71844 36.4526 5.62372 36.5467 5.56173L38.5323 4.13917C38.5731 4.10438 38.6207 4.07847 38.6721 4.06309C38.7235 4.04771 38.7775 4.0432 38.8307 4.04986C38.884 4.05651 38.9352 4.07418 38.9813 4.10173C39.0273 4.12928 39.0671 4.16612 39.0981 4.20989C39.1502 4.30924 39.1635 4.42445 39.1353 4.53306C39.1072 4.64168 39.0396 4.73592 38.9457 4.79741Z" fill="white"/>
<path opacity="0.7" d="M56.4652 3.48115L54.4796 2.61619C54.4323 2.59214 54.3904 2.55852 54.3568 2.51746C54.3231 2.4764 54.2983 2.42879 54.284 2.37765C54.2697 2.32651 54.2661 2.27295 54.2736 2.22037C54.281 2.16779 54.2993 2.11733 54.3273 2.07219C54.377 1.97039 54.4624 1.8905 54.5673 1.84783C54.6722 1.80517 54.7892 1.80273 54.8958 1.84099L56.8787 2.70867C56.9266 2.73208 56.9691 2.76537 57.0032 2.80636C57.0374 2.84735 57.0625 2.89511 57.0769 2.94649C57.0913 2.99788 57.0946 3.05173 57.0867 3.1045C57.0788 3.15727 57.0598 3.20777 57.031 3.25267C56.9814 3.35377 56.8962 3.433 56.7918 3.47517C56.6874 3.51734 56.5711 3.51947 56.4652 3.48115Z" fill="white"/>
<path d="M46.7141 32.4738C39.4707 33.4911 33.5982 28.4455 33.5982 21.2021C33.5982 13.9588 39.4707 7.25941 46.7141 6.24213C53.9574 5.22485 59.8299 10.2705 59.8299 17.5138L61.6197 17.2636C61.6197 9.03013 54.9448 3.29637 46.7141 4.45237C38.4834 5.60837 31.8085 13.2217 31.8085 21.4524C31.8085 29.6831 38.4806 35.4196 46.7141 34.2636V32.4738Z" fill="#0F32EB"/>
<path d="M41.5026 28.6483L40.5238 30.4814L40.9077 30.6864L41.8865 28.8533L41.5026 28.6483Z" fill="#263238"/>
<path d="M52.5152 8.02673L51.5364 9.85986L51.9203 10.0648L52.8991 8.23171L52.5152 8.02673Z" fill="#263238"/>
<path d="M36.4124 14.6173L36.2383 15.0161L37.9333 15.7563L38.1075 15.3575L36.4124 14.6173Z" fill="#263238"/>
<path d="M41.071 9.9627L40.701 10.1934L41.677 11.7586L42.0469 11.5279L41.071 9.9627Z" fill="#263238"/>
<path d="M37.8983 25.4248L36.201 26.6426L36.4548 26.9962L38.152 25.7784L37.8983 25.4248Z" fill="#263238"/>
<path d="M56.9723 11.727L55.275 12.9448L55.5287 13.2984L57.226 12.0806L56.9723 11.727Z" fill="#263238"/>
<path d="M37.2731 20.245L34.6631 20.6118L34.7842 21.4737L37.3943 21.1069L37.2731 20.245Z" fill="#263238"/>
<path d="M47.1493 7.36816H46.2789V9.97937H47.1493V7.36816Z" fill="#263238"/>
<path d="M47.1493 28.7363H46.2789V31.3475H47.1493V28.7363Z" fill="#263238"/>
<path d="M43.344 16.5288C43.2427 16.6307 43.1858 16.7686 43.1858 16.9123C43.1858 17.0561 43.2427 17.1939 43.344 17.2959L46.2653 19.8037L47.0296 18.9306L44.111 16.42C44.0537 16.3763 43.9883 16.3444 43.9185 16.3262C43.8488 16.308 43.7761 16.3039 43.7047 16.314C43.6334 16.3241 43.5647 16.3483 43.5028 16.3852C43.4409 16.4221 43.3869 16.4709 43.344 16.5288Z" fill="#0F32EB"/>
<path opacity="0.4" d="M43.344 16.5288C43.2427 16.6307 43.1858 16.7686 43.1858 16.9123C43.1858 17.0561 43.2427 17.1939 43.344 17.2959L46.2653 19.8037L47.0296 18.9306L44.111 16.42C44.0537 16.3763 43.9883 16.3444 43.9185 16.3262C43.8488 16.308 43.7761 16.3039 43.7047 16.314C43.6334 16.3241 43.5647 16.3483 43.5028 16.3852C43.4409 16.4221 43.3869 16.4709 43.344 16.5288Z" fill="white"/>
<path d="M62.8954 16.8662L60.7166 19.7848L58.5406 17.4782L62.8954 16.8662Z" fill="#0F32EB"/>
<path d="M51.6835 13.6075C51.6262 13.5638 51.5607 13.5319 51.491 13.5137C51.4212 13.4955 51.3486 13.4914 51.2772 13.5015C51.2058 13.5116 51.1372 13.5358 51.0752 13.5727C51.0133 13.6096 50.9593 13.6584 50.9164 13.7163L46.9615 18.2261C46.7497 18.1994 46.5345 18.2259 46.3355 18.3034C46.1365 18.3808 45.96 18.5066 45.8219 18.6694C45.3758 19.1808 45.3758 19.907 45.8219 20.3014C46.2679 20.6958 46.9969 20.5734 47.4539 20.073C47.5948 19.916 47.6936 19.7259 47.7412 19.5205C47.7887 19.315 47.7835 19.1008 47.7259 18.8979L51.6807 14.3854C51.7327 14.335 51.7741 14.2746 51.8025 14.2079C51.8308 14.1412 51.8455 14.0695 51.8458 13.9971C51.846 13.9246 51.8318 13.8528 51.8039 13.7859C51.7761 13.719 51.7351 13.6584 51.6835 13.6075Z" fill="#0F32EB"/>
<path d="M52.3989 30.0148L55.7989 29.5361L55.4969 31.1056L49.3688 31.9678L49.6136 30.7193L53.3019 27.3112C53.6487 26.9975 53.9606 26.6473 54.2321 26.2667C54.401 26.0273 54.4956 25.7435 54.5041 25.4507C54.5113 25.3321 54.4869 25.2137 54.4333 25.1076C54.3798 25.0016 54.2991 24.9116 54.1995 24.8468C53.9283 24.7035 53.6147 24.662 53.3155 24.7299C52.981 24.7774 52.6608 24.8972 52.3771 25.0808C52.0712 25.2739 51.8045 25.523 51.591 25.8152L50.3317 25.078C50.6838 24.5571 51.1486 24.1221 51.6917 23.8051C52.2744 23.4563 52.9224 23.2304 53.5957 23.1414C54.0899 23.0586 54.5961 23.0818 55.0808 23.2094C55.4704 23.3104 55.8179 23.5323 56.0736 23.8432C56.3124 24.1495 56.4374 24.5293 56.4272 24.9176C56.4223 25.4356 56.2786 25.9428 56.011 26.3864C55.6118 27.0059 55.1253 27.5647 54.5667 28.0456L52.3989 30.0148Z" fill="#263238"/>
<path d="M63.9018 28.2249L62.5744 28.4126L62.2371 30.1589L60.412 30.4145L60.752 28.6656L56.4 29.2803L56.6421 27.9856L61.4048 22.1811L63.453 21.8955L59.0112 27.3872L61.141 27.088L61.4402 25.5294L63.1864 25.2846L62.8845 26.8405L64.2146 26.6555L63.9018 28.2249Z" fill="#263238"/>
<path d="M69.2438 19.4396L70.9329 19.2002L64.9897 30.9288L63.3142 31.1628L69.2438 19.4396Z" fill="#263238"/>
<path d="M76.955 19.9971L76.7129 21.2456L72.3881 28.731L70.3073 29.0248L74.4581 21.8739L71.8332 22.2438L71.5612 23.6038L69.8966 23.8377L70.4624 20.9137L76.955 19.9971Z" fill="#263238"/>
<path d="M50.299 40.0081C50.0411 39.9795 49.7915 39.9 49.5646 39.7742L49.9617 38.9582C50.163 39.0758 50.3843 39.1551 50.6145 39.1921C50.8604 39.2316 51.1111 39.2316 51.3571 39.1921C51.5847 39.1692 51.8038 39.0928 51.9963 38.9691C52.0651 38.9281 52.1226 38.8706 52.1635 38.8017C52.2044 38.7328 52.2273 38.6547 52.2302 38.5747C52.2331 38.515 52.2163 38.456 52.1824 38.4069C52.1485 38.3577 52.0993 38.3211 52.0425 38.3027C51.8492 38.2378 51.6495 38.194 51.4468 38.1721C51.2213 38.1389 50.9978 38.0926 50.7777 38.0334C50.6062 37.9834 50.4506 37.8896 50.3262 37.7614C50.1915 37.6049 50.1241 37.4016 50.1385 37.1956C50.1373 36.9159 50.2197 36.6421 50.3751 36.4095C50.548 36.1579 50.7808 35.9532 51.0524 35.8139C51.3689 35.6481 51.7125 35.5403 52.067 35.4956C52.3371 35.455 52.6113 35.4486 52.883 35.4766C53.1095 35.4952 53.3308 35.5551 53.5358 35.6534L53.1686 36.4531C53.0038 36.3637 52.824 36.3056 52.6382 36.2817C52.4333 36.2546 52.2257 36.2546 52.0207 36.2817C51.7858 36.3062 51.5606 36.3884 51.3652 36.5211C51.2943 36.5631 51.235 36.6222 51.1928 36.693C51.1505 36.7638 51.1266 36.844 51.1231 36.9263C51.1209 36.9683 51.1292 37.0102 51.1473 37.0482C51.1653 37.0862 51.1925 37.1191 51.2265 37.1439C51.3026 37.202 51.391 37.242 51.4849 37.2609C51.5883 37.2827 51.7351 37.3071 51.9255 37.3343C52.1496 37.3593 52.3715 37.4011 52.5892 37.4595C52.758 37.5104 52.9107 37.6041 53.0326 37.7315C53.0978 37.8053 53.1475 37.8916 53.1788 37.985C53.2101 38.0784 53.2223 38.1772 53.2148 38.2755C53.2175 38.5575 53.134 38.8337 52.9755 39.067C52.7991 39.3176 52.5649 39.5219 52.2927 39.6627C51.9717 39.8389 51.6216 39.956 51.2591 40.0081C50.9408 40.0544 50.6174 40.0544 50.299 40.0081Z" fill="#263238"/>
<path d="M55.2956 35.9282L55.1134 36.872L57.0745 36.6L56.9249 37.3834L54.9583 37.6554L54.7652 38.6618L57.069 38.3381L56.9058 39.1541L53.6418 39.6138L54.485 35.2618L57.6783 34.813L57.5151 35.629L55.2956 35.9282Z" fill="#263238"/>
<path d="M61.5816 36.5944C61.3597 36.9133 61.0524 37.1631 60.6949 37.3152L61.4293 38.5147L60.3984 38.6616L59.7347 37.5736L58.9024 37.6905L58.6658 38.9064L57.6838 39.0451L58.527 34.6931L60.2488 34.451C60.6618 34.3594 61.094 34.4213 61.4646 34.6251C61.6106 34.7237 61.7277 34.8592 61.8042 35.0178C61.8807 35.1765 61.9137 35.3526 61.8998 35.5281C61.907 35.9079 61.7957 36.2806 61.5816 36.5944ZM60.6432 36.442C60.7329 36.3541 60.8034 36.2485 60.8502 36.1319C60.897 36.0153 60.9192 35.8903 60.9152 35.7648C60.9233 35.6825 60.9086 35.5996 60.8726 35.5252C60.8366 35.4508 60.7807 35.3878 60.7112 35.3432C60.5298 35.2545 60.3237 35.2296 60.1264 35.2724L59.3539 35.3812L59.0574 36.8908L59.8898 36.7739C60.1698 36.7461 60.4337 36.6299 60.6432 36.442Z" fill="#263238"/>
<path d="M67.0216 33.5073L64.3506 38.1041L63.3904 38.2374L62.4058 34.1574L63.4149 34.016L64.0949 36.9291L65.9989 33.6488L67.0216 33.5073Z" fill="#263238"/>
<path d="M67.3697 33.4585L68.3543 33.3198L67.5111 37.6718L66.5265 37.8105L67.3697 33.4585Z" fill="#263238"/>
<path d="M69.6192 37.2093C69.3226 37.1139 69.0661 36.9225 68.8902 36.6653C68.7152 36.3893 68.6271 36.0671 68.6373 35.7405C68.6351 35.2741 68.7481 34.8144 68.9664 34.4022C69.1866 33.9857 69.5049 33.629 69.8939 33.3632C70.2995 33.0834 70.7655 32.9035 71.2539 32.8382C71.5875 32.783 71.9292 32.8015 72.2549 32.8926C72.5222 32.9639 72.7554 33.1278 72.9131 33.355L72.2059 34.0323C72.088 33.8822 71.9293 33.7693 71.7489 33.7071C71.5685 33.6449 71.374 33.636 71.1886 33.6814C70.8929 33.7211 70.6121 33.8353 70.3726 34.0133C70.1412 34.1905 69.9549 34.4197 69.8286 34.6824C69.698 34.95 69.631 35.2442 69.6328 35.5419C69.6227 35.6797 69.6455 35.818 69.6995 35.9452C69.7534 36.0724 69.8368 36.185 69.9429 36.2736C70.0693 36.3595 70.2121 36.4183 70.3624 36.4464C70.5126 36.4744 70.6671 36.4712 70.816 36.4368C71.2591 36.3756 71.661 36.1444 71.9366 35.7922L72.516 36.3008C72.2998 36.576 72.0304 36.8048 71.7238 36.9735C71.4173 37.1422 71.0798 37.2474 70.7317 37.2827C70.3603 37.3474 69.9788 37.3222 69.6192 37.2093Z" fill="#263238"/>
<path d="M74.5859 33.2299L74.4036 34.171L76.3648 33.899L76.2152 34.6796L74.2486 34.9516L74.0555 35.9553L76.3593 35.6316L76.1961 36.4476L72.9321 36.9073L73.7781 32.5553L76.9632 32.1201L76.8 32.9361L74.5859 33.2299Z" fill="#263238"/>
<path d="M21.4398 14.2959C18.5322 14.2959 16.1766 16.0122 16.1766 18.1284C16.1766 19.6652 17.4251 20.9898 19.223 21.5991C19.0303 22.4817 18.6989 23.3281 18.2411 24.1069C18.8936 24.0099 19.5155 23.7657 20.0597 23.393C20.604 23.0203 21.0564 22.5287 21.3827 21.9554H21.4398C24.3475 21.9554 26.703 20.2418 26.703 18.1257C26.703 16.0095 24.3475 14.2959 21.4398 14.2959Z" fill="#0F32EB"/>
<path opacity="0.7" d="M21.4398 14.2959C18.5322 14.2959 16.1766 16.0122 16.1766 18.1284C16.1766 19.6652 17.4251 20.9898 19.223 21.5991C19.0303 22.4817 18.6989 23.3281 18.2411 24.1069C18.8936 24.0099 19.5155 23.7657 20.0597 23.393C20.604 23.0203 21.0564 22.5287 21.3827 21.9554H21.4398C24.3475 21.9554 26.703 20.2418 26.703 18.1257C26.703 16.0095 24.3475 14.2959 21.4398 14.2959Z" fill="white"/>
<path d="M19.1197 18.8656C19.4156 18.8656 19.6555 18.6257 19.6555 18.3298C19.6555 18.0338 19.4156 17.7939 19.1197 17.7939C18.8238 17.7939 18.5839 18.0338 18.5839 18.3298C18.5839 18.6257 18.8238 18.8656 19.1197 18.8656Z" fill="#263238"/>
<path d="M21.9403 18.3296C21.9403 18.4372 21.9084 18.5424 21.8486 18.6319C21.7888 18.7213 21.7039 18.7911 21.6045 18.8322C21.5051 18.8734 21.3957 18.8842 21.2902 18.8632C21.1846 18.8422 21.0877 18.7904 21.0116 18.7143C20.9355 18.6382 20.8837 18.5413 20.8627 18.4358C20.8418 18.3302 20.8525 18.2209 20.8937 18.1215C20.9349 18.0221 21.0046 17.9371 21.0941 17.8773C21.1835 17.8175 21.2887 17.7856 21.3963 17.7856C21.5406 17.7856 21.6789 17.843 21.781 17.945C21.883 18.047 21.9403 18.1854 21.9403 18.3296Z" fill="#263238"/>
<path d="M23.6893 18.8656C23.9852 18.8656 24.2251 18.6257 24.2251 18.3298C24.2251 18.0338 23.9852 17.7939 23.6893 17.7939C23.3933 17.7939 23.1534 18.0338 23.1534 18.3298C23.1534 18.6257 23.3933 18.8656 23.6893 18.8656Z" fill="#263238"/>
<path d="M69.184 72.9333C69.184 72.9333 69.2193 69.3021 67.8974 69.7808C66.5755 70.2595 69.184 72.9333 69.184 72.9333Z" fill="#0F32EB"/>
<path d="M70.6038 69.5717C70.6038 69.5717 72.3555 66.6668 70.7725 66.2506C69.1894 65.8344 70.6038 69.5717 70.6038 69.5717Z" fill="#0F32EB"/>
<path d="M77.5262 67.5208C77.5262 67.5208 81.1629 67.3331 80.3414 65.9704C79.52 64.6077 77.5262 67.5208 77.5262 67.5208Z" fill="#0F32EB"/>
<path d="M71.7734 68.4862C71.7734 68.4862 75.5814 67.6266 74.8688 69.7646C74.1562 71.9025 71.7734 68.4862 71.7734 68.4862Z" fill="#0F32EB"/>
<path d="M69.0072 76.2163C69.0072 76.2163 67.552 72.9196 66.736 74.092C65.92 75.2643 69.0072 76.2163 69.0072 76.2163Z" fill="#0F32EB"/>
<path d="M73.1578 67.801C73.1578 67.801 77.0366 66.7837 75.8289 65.353C74.6212 63.9222 73.1578 67.801 73.1578 67.801Z" fill="#0F32EB"/>
<path d="M76.0901 67.4009C76.0901 67.4009 79.1582 68.9078 77.7438 69.8924C76.3294 70.877 76.0901 67.4009 76.0901 67.4009Z" fill="#0F32EB"/>
<path d="M69.5675 71.4728C69.5675 71.4728 71.6918 68.916 72.3473 70.7738C73.0029 72.6316 69.5675 71.4728 69.5675 71.4728Z" fill="#0F32EB"/>
<g opacity="0.4">
<path d="M69.0072 76.2168C69.0072 76.2168 67.552 72.9201 66.736 74.0924C65.92 75.2648 69.0072 76.2168 69.0072 76.2168Z" fill="white"/>
<path d="M73.1578 67.801C73.1578 67.801 77.0366 66.7837 75.8289 65.353C74.6212 63.9222 73.1578 67.801 73.1578 67.801Z" fill="white"/>
<path d="M76.0901 67.4014C76.0901 67.4014 79.1582 68.9082 77.7438 69.8929C76.3294 70.8775 76.0901 67.4014 76.0901 67.4014Z" fill="white"/>
<path d="M69.5675 71.4728C69.5675 71.4728 71.6918 68.916 72.3473 70.7738C73.0029 72.6316 69.5675 71.4728 69.5675 71.4728Z" fill="white"/>
</g>
<path d="M68.9854 74.791C68.9854 74.791 70.5086 71.527 71.7353 73.1726C72.962 74.8182 68.9854 74.791 68.9854 74.791Z" fill="#0F32EB"/>
<path d="M69.0099 78.2241C68.5483 76.0971 68.6146 73.8894 69.203 71.794C70.4488 67.714 74.2704 66.7538 78.1328 67.3713C78.4401 67.4202 78.3041 67.8826 77.9995 67.8337C75.9486 67.5073 73.6475 67.4746 71.8604 68.715C70.582 69.6098 69.8585 71.0324 69.5104 72.523C69.102 74.3609 69.0918 76.2649 69.4804 78.1071C69.543 78.4118 69.0752 78.5314 69.0099 78.2268V78.2241Z" fill="#0F32EB"/>
<g opacity="0.3">
<path d="M69.0099 78.2241C68.5483 76.0971 68.6146 73.8894 69.203 71.794C70.4488 67.714 74.2704 66.7538 78.1328 67.3713C78.4401 67.4202 78.3041 67.8826 77.9995 67.8337C75.9486 67.5073 73.6475 67.4746 71.8604 68.715C70.582 69.6098 69.8585 71.0324 69.5104 72.523C69.102 74.3609 69.0918 76.2649 69.4804 78.1071C69.543 78.4118 69.0752 78.5314 69.0099 78.2268V78.2241Z" fill="black"/>
</g>
<path d="M65.9825 71.8317C65.9825 71.8317 64.0785 67.3926 62.8436 68.5513C61.6087 69.7101 65.9825 71.8317 65.9825 71.8317Z" fill="#0F32EB"/>
<path d="M65.8194 67.1099C65.8194 67.1099 66.2709 62.8096 64.2472 62.9946C62.2235 63.1795 65.8194 67.1099 65.8194 67.1099Z" fill="#0F32EB"/>
<path d="M72.6166 61.5938C72.6166 61.5938 76.6558 59.7795 74.9966 58.4794C73.3374 57.1792 72.6166 61.5938 72.6166 61.5938Z" fill="#0F32EB"/>
<path d="M66.5754 65.2793C66.5754 65.2793 70.4623 62.5593 70.7806 65.486C71.0988 68.4127 66.5754 65.2793 66.5754 65.2793Z" fill="#0F32EB"/>
<path d="M67.533 75.8958C67.533 75.8958 64.1085 72.5284 63.8011 74.3073C63.4938 76.0862 67.533 75.8958 67.533 75.8958Z" fill="#0F32EB"/>
<path d="M67.7859 63.8405C67.7859 63.8405 71.6646 60.9084 69.5267 59.6925C67.3887 58.4767 67.7859 63.8405 67.7859 63.8405Z" fill="#0F32EB"/>
<path d="M70.9166 62.0752C70.9166 62.0752 75.2115 62.573 74.1208 64.3872C73.0301 66.2014 70.9166 62.0752 70.9166 62.0752Z" fill="#0F32EB"/>
<path d="M65.6479 69.8763C65.6479 69.8763 66.7087 65.8371 68.4441 67.8146C70.1795 69.792 65.6479 69.8763 65.6479 69.8763Z" fill="#0F32EB"/>
<g opacity="0.4">
<path d="M67.533 75.8958C67.533 75.8958 64.1085 72.5284 63.8011 74.3073C63.4938 76.0862 67.533 75.8958 67.533 75.8958Z" fill="white"/>
<path d="M67.786 63.8405C67.786 63.8405 71.6647 60.9084 69.5268 59.6925C67.3889 58.4767 67.786 63.8405 67.786 63.8405Z" fill="white"/>
<path d="M70.9166 62.0752C70.9166 62.0752 75.2115 62.573 74.1208 64.3872C73.0301 66.2014 70.9166 62.0752 70.9166 62.0752Z" fill="white"/>
<path d="M65.6479 69.8763C65.6479 69.8763 66.7087 65.8371 68.4441 67.8146C70.1795 69.792 65.6479 69.8763 65.6479 69.8763Z" fill="white"/>
</g>
<path d="M66.7523 74.1711C66.7523 74.1711 66.7523 69.5281 69.0208 70.9996C71.2893 72.4711 66.7523 74.1711 66.7523 74.1711Z" fill="#0F32EB"/>
<path d="M68.5992 78.3379C67.0053 76.0068 65.7758 73.1698 65.4059 70.4281C64.6606 64.9228 68.4958 62.0804 73.2259 61.1447C73.6013 61.0713 73.691 61.6887 73.3211 61.7703C70.8105 62.2654 68.1531 63.2364 66.7931 65.5212C65.8112 67.1668 65.7405 69.215 66.1349 71.1788C66.6596 73.615 67.6557 75.925 69.067 77.9788C69.0899 78.0099 69.1064 78.0452 69.1156 78.0826C69.1249 78.1201 69.1266 78.159 69.1208 78.1971C69.115 78.2353 69.1017 78.2719 69.0818 78.3049C69.0618 78.3379 69.0355 78.3667 69.0045 78.3895C68.9734 78.4124 68.9381 78.4289 68.9007 78.4381C68.8632 78.4474 68.8243 78.4491 68.7861 78.4433C68.748 78.4375 68.7114 78.4242 68.6784 78.4043C68.6454 78.3843 68.6166 78.358 68.5937 78.327L68.5992 78.3379Z" fill="#0F32EB"/>
<g opacity="0.3">
<path d="M68.5992 78.3379C67.0053 76.0068 65.7758 73.1698 65.4059 70.4281C64.6606 64.9228 68.4958 62.0804 73.2259 61.1447C73.6013 61.0713 73.691 61.6887 73.3211 61.7703C70.8105 62.2654 68.1531 63.2364 66.7931 65.5212C65.8112 67.1668 65.7405 69.215 66.1349 71.1788C66.6596 73.615 67.6557 75.925 69.067 77.9788C69.0899 78.0099 69.1064 78.0452 69.1156 78.0826C69.1249 78.1201 69.1266 78.159 69.1208 78.1971C69.115 78.2353 69.1017 78.2719 69.0818 78.3049C69.0618 78.3379 69.0355 78.3667 69.0045 78.3895C68.9734 78.4124 68.9381 78.4289 68.9007 78.4381C68.8632 78.4474 68.8243 78.4491 68.7861 78.4433C68.748 78.4375 68.7114 78.4242 68.6784 78.4043C68.6454 78.3843 68.6166 78.358 68.5937 78.327L68.5992 78.3379Z" fill="black"/>
</g>
<path d="M65.531 72.999C65.531 72.999 66.434 69.9879 67.4024 70.7223C68.3707 71.4567 65.531 72.999 65.531 72.999Z" fill="#0F32EB"/>
<path d="M65.2155 69.8545C65.2155 69.8545 64.5164 67.0013 65.9308 67.0665C67.3452 67.1318 65.2155 69.8545 65.2155 69.8545Z" fill="#0F32EB"/>
<path d="M60.023 66.3917C60.023 66.3917 57.0663 65.3037 58.0972 64.387C59.1281 63.4704 60.023 66.3917 60.023 66.3917Z" fill="#0F32EB"/>
<path d="M64.53 68.6547C64.53 68.6547 61.5979 66.9656 61.6441 68.9267C61.6903 70.8878 64.53 68.6547 64.53 68.6547Z" fill="#0F32EB"/>
<path d="M64.8319 75.7541C64.8319 75.7541 66.8937 73.4121 67.2663 74.5872C67.639 75.7622 64.8319 75.7541 64.8319 75.7541Z" fill="#0F32EB"/>
<path d="M63.5617 67.7329C63.5617 67.7329 60.6187 65.8942 61.9841 65.0129C63.3496 64.1316 63.5617 67.7329 63.5617 67.7329Z" fill="#0F32EB"/>
<path d="M61.2388 66.6641C61.2388 66.6641 58.3175 67.121 59.2342 68.2961C60.1508 69.4711 61.2388 66.6641 61.2388 66.6641Z" fill="#0F32EB"/>
<path d="M65.5854 71.6905C65.5854 71.6905 64.4974 69.0303 63.4665 70.3985C62.4357 71.7667 65.5854 71.6905 65.5854 71.6905Z" fill="#0F32EB"/>
<g opacity="0.4">
<path d="M64.8319 75.7541C64.8319 75.7541 66.8937 73.4121 67.2663 74.5872C67.639 75.7622 64.8319 75.7541 64.8319 75.7541Z" fill="white"/>
<path d="M63.5617 67.7329C63.5617 67.7329 60.6187 65.8942 61.9841 65.0129C63.3496 64.1316 63.5617 67.7329 63.5617 67.7329Z" fill="white"/>
<path d="M61.2388 66.6641C61.2388 66.6641 58.3175 67.121 59.2342 68.2961C60.1508 69.4711 61.2388 66.6641 61.2388 66.6641Z" fill="white"/>
<path d="M65.5854 71.6905C65.5854 71.6905 64.4974 69.0303 63.4665 70.3985C62.4357 71.7667 65.5854 71.6905 65.5854 71.6905Z" fill="white"/>
</g>
<path d="M65.21 74.5817C65.21 74.5817 64.7939 71.4891 63.355 72.5363C61.9161 73.5835 65.21 74.5817 65.21 74.5817Z" fill="#0F32EB"/>
<path d="M64.3097 77.4106C65.2382 75.7727 65.7501 73.9317 65.8002 72.0495C65.8193 68.3612 62.9116 66.5823 59.5606 66.0981C59.2886 66.0601 59.2886 66.4789 59.5606 66.517C61.3394 66.7727 63.257 67.333 64.4049 68.8236C65.2209 69.8898 65.4657 71.2525 65.3705 72.5717C65.2352 74.1961 64.7539 75.7728 63.9588 77.1957C63.8283 77.4297 64.1846 77.65 64.3178 77.4133L64.3097 77.4106Z" fill="#0F32EB"/>
<g opacity="0.3">
<path d="M64.3097 77.4106C65.2382 75.7727 65.7501 73.9317 65.8002 72.0495C65.8193 68.3612 62.9116 66.5823 59.5606 66.0981C59.2886 66.0601 59.2886 66.4789 59.5606 66.517C61.3394 66.7727 63.257 67.333 64.4049 68.8236C65.2209 69.8898 65.4657 71.2525 65.3705 72.5717C65.2352 74.1961 64.7539 75.7728 63.9588 77.1957C63.8283 77.4297 64.1846 77.65 64.3178 77.4133L64.3097 77.4106Z" fill="black"/>
</g>
<path d="M72.7744 76.6465L71.7217 84.5862C71.6558 85.0799 71.413 85.5329 71.0383 85.8611C70.6636 86.1892 70.1825 86.3702 69.6844 86.3705H63.1374C62.6393 86.3702 62.1582 86.1892 61.7836 85.8611C61.4089 85.5329 61.166 85.0799 61.1001 84.5862L60.0475 76.6465H72.7744Z" fill="#0F32EB"/>
<path opacity="0.3" d="M72.7744 76.6465L71.7217 84.5862C71.6558 85.0799 71.413 85.5329 71.0383 85.8611C70.6636 86.1892 70.1825 86.3702 69.6844 86.3705H63.1374C62.6393 86.3702 62.1582 86.1892 61.7836 85.8611C61.4089 85.5329 61.166 85.0799 61.1001 84.5862L60.0475 76.6465H72.7744Z" fill="white"/>
<path d="M13.6607 61.3955H11.8737V73.1405H13.6607V61.3955Z" fill="#263238"/>
<path opacity="0.5" d="M13.6607 61.3955H11.8737V73.1405H13.6607V61.3955Z" fill="white"/>
<path d="M18.1976 81.9367L14.0115 81.1805V72.7757C14.0119 72.7139 13.9999 72.6525 13.9764 72.5952C13.9529 72.538 13.9183 72.486 13.8745 72.4422C13.8307 72.3984 13.7787 72.3638 13.7215 72.3403C13.6642 72.3168 13.6028 72.3048 13.5409 72.3052H11.9933C11.9312 72.3048 11.8698 72.3167 11.8124 72.3402C11.755 72.3637 11.7028 72.3983 11.6588 72.442C11.6148 72.4858 11.5799 72.5378 11.5561 72.595C11.5322 72.6523 11.52 72.7137 11.52 72.7757V81.1805L7.33663 81.9367C7.04294 81.9891 6.77705 82.1432 6.58558 82.3719C6.39411 82.6007 6.28927 82.8896 6.28943 83.1879L12.7657 82.6031L19.2448 83.1879C19.2444 82.8897 19.1394 82.6011 18.948 82.3725C18.7566 82.1438 18.491 81.9896 18.1976 81.9367Z" fill="#263238"/>
<path d="M7.64945 84.4581C7.64945 84.7271 7.56968 84.9901 7.42024 85.2137C7.27081 85.4374 7.0584 85.6117 6.80989 85.7146C6.56138 85.8176 6.28794 85.8445 6.02412 85.792C5.76031 85.7395 5.51798 85.61 5.32778 85.4198C5.13758 85.2296 5.00805 84.9873 4.95558 84.7235C4.9031 84.4596 4.93003 84.1862 5.03297 83.9377C5.1359 83.6892 5.31022 83.4768 5.53387 83.3273C5.75752 83.1779 6.02046 83.0981 6.28945 83.0981C6.65014 83.0981 6.99606 83.2414 7.25111 83.4965C7.50616 83.7515 7.64945 84.0975 7.64945 84.4581Z" fill="#0F32EB"/>
<path d="M20.6048 84.4581C20.6048 84.7271 20.525 84.9901 20.3756 85.2137C20.2261 85.4374 20.0137 85.6117 19.7652 85.7146C19.5167 85.8176 19.2433 85.8445 18.9794 85.792C18.7156 85.7395 18.4733 85.61 18.2831 85.4198C18.0929 85.2296 17.9634 84.9873 17.9109 84.7235C17.8584 84.4596 17.8854 84.1862 17.9883 83.9377C18.0912 83.6892 18.2655 83.4768 18.4892 83.3273C18.7128 83.1779 18.9758 83.0981 19.2448 83.0981C19.4234 83.0981 19.6002 83.1333 19.7652 83.2017C19.9302 83.27 20.0801 83.3702 20.2064 83.4965C20.3327 83.6228 20.4329 83.7727 20.5012 83.9377C20.5696 84.1027 20.6048 84.2795 20.6048 84.4581Z" fill="#0F32EB"/>
<path d="M13.8293 84.4581C13.8293 85.2089 13.5192 85.8181 12.7658 85.8181C12.0123 85.8181 11.705 85.2089 11.705 84.4581C11.705 83.7074 12.015 83.0981 12.7658 83.0981C13.5165 83.0981 13.8293 83.7074 13.8293 84.4581Z" fill="#0F32EB"/>
<g opacity="0.5">
<path d="M14.0524 81.186V82.7201L14.5583 82.7664V81.2785L14.0524 81.186Z" fill="black"/>
<path d="M10.9869 81.2758V82.7636L11.4929 82.7201V81.186L10.9869 81.2758Z" fill="black"/>
</g>
<path d="M1.0997 50.6978C0.986944 50.6979 0.875599 50.7228 0.773537 50.7707C0.671475 50.8187 0.581187 50.8884 0.509056 50.9751C0.436925 51.0617 0.384712 51.1632 0.35611 51.2723C0.327508 51.3813 0.323217 51.4953 0.343536 51.6062L2.00274 60.5469C2.07774 60.9531 2.29264 61.3203 2.61014 61.5847C2.92764 61.849 3.32768 61.9938 3.74081 61.9939H29.8882C30.0424 61.9939 30.195 61.9635 30.3374 61.9044C30.4798 61.8453 30.6092 61.7587 30.7181 61.6496C30.827 61.5404 30.9133 61.4109 30.972 61.2683C31.0308 61.1258 31.0609 60.9731 31.0605 60.8189C31.0605 60.3767 30.8848 59.9526 30.5721 59.6399C30.2594 59.3272 29.8353 59.1515 29.3931 59.1515H14.4739C14.0785 59.1516 13.6944 59.0194 13.3829 58.7759C13.0713 58.5324 12.8503 58.1916 12.7549 57.8078L11.4194 52.4168C11.2979 51.9263 11.0158 51.4906 10.618 51.1791C10.2202 50.8676 9.7296 50.6981 9.22433 50.6978H1.0997Z" fill="#263238"/>
<path d="M4.63025 57.8078L3.29473 52.4168C3.17327 51.9263 2.89118 51.4906 2.49338 51.1791C2.09558 50.8676 1.60497 50.6981 1.0997 50.6978C0.986944 50.6979 0.875599 50.7228 0.773537 50.7707C0.671475 50.8187 0.581187 50.8884 0.509056 50.9751C0.436925 51.0617 0.384712 51.1632 0.35611 51.2723C0.327508 51.3813 0.323217 51.4953 0.343536 51.6062L2.00274 60.5469C2.07774 60.9531 2.29264 61.3203 2.61014 61.5847C2.92764 61.849 3.32768 61.9938 3.74081 61.9939H21.7608C21.9152 61.9943 22.0682 61.9641 22.2109 61.9052C22.3536 61.8463 22.4833 61.7597 22.5925 61.6506C22.7017 61.5414 22.7882 61.4117 22.8471 61.269C22.9061 61.1262 22.9362 60.9733 22.9359 60.8189C22.9351 60.3769 22.7592 59.9532 22.4467 59.6407C22.1342 59.3281 21.7105 59.1522 21.2685 59.1515H6.35202C5.956 59.1527 5.57105 59.021 5.25885 58.7773C4.94666 58.5337 4.7253 58.1923 4.63025 57.8078Z" fill="#263238"/>
<path opacity="0.2" d="M4.63025 57.8078L3.29473 52.4168C3.17327 51.9263 2.89118 51.4906 2.49338 51.1791C2.09558 50.8676 1.60497 50.6981 1.0997 50.6978C0.986944 50.6979 0.875599 50.7228 0.773537 50.7707C0.671475 50.8187 0.581187 50.8884 0.509056 50.9751C0.436925 51.0617 0.384712 51.1632 0.35611 51.2723C0.327508 51.3813 0.323217 51.4953 0.343536 51.6062L2.00274 60.5469C2.07774 60.9531 2.29264 61.3203 2.61014 61.5847C2.92764 61.849 3.32768 61.9938 3.74081 61.9939H21.7608C21.9152 61.9943 22.0682 61.9641 22.2109 61.9052C22.3536 61.8463 22.4833 61.7597 22.5925 61.6506C22.7017 61.5414 22.7882 61.4117 22.8471 61.269C22.9061 61.1262 22.9362 60.9733 22.9359 60.8189C22.9351 60.3769 22.7592 59.9532 22.4467 59.6407C22.1342 59.3281 21.7105 59.1522 21.2685 59.1515H6.35202C5.956 59.1527 5.57105 59.021 5.25885 58.7773C4.94666 58.5337 4.7253 58.1923 4.63025 57.8078Z" fill="white"/>
<path d="M15.6761 25.1162C15.6761 25.1162 18.6518 26.0029 17.2619 28.2034L15.9699 26.3212L15.6761 25.1162Z" fill="#263238"/>
<path d="M26.3958 36.4582L27.6932 34.5542L28.977 34.9622L29.2109 35.479L27.6116 37.7665L26.3958 36.4582Z" fill="#DBB178"/>
<path d="M28.3187 36.9563C27.0186 38.9963 24.9677 41.972 24.1843 41.7952C21.8832 41.2811 18.7198 39.1024 17.096 36.7088C16.8509 36.3477 16.7504 35.9076 16.8143 35.4759C16.8783 35.0442 17.1021 34.6522 17.4415 34.3777V34.3614C17.6185 34.2169 17.8224 34.1087 18.0413 34.043C18.2602 33.9773 18.49 33.9555 18.7174 33.9787C18.9447 34.002 19.1653 34.0698 19.3664 34.1785C19.5676 34.2871 19.7453 34.4343 19.8895 34.6117C19.9194 34.647 19.9466 34.6851 19.9738 34.7232C21.4127 36.7877 23.2378 38.7461 23.537 38.912C23.8878 39.1133 24.7991 38.251 26.7275 35.8139L28.3187 36.9563Z" fill="#0F32EB"/>
<path opacity="0.6" d="M28.3187 36.9563C27.0186 38.9963 24.9677 41.972 24.1843 41.7952C21.8832 41.2811 18.7198 39.1024 17.096 36.7088C16.8509 36.3477 16.7504 35.9076 16.8143 35.4759C16.8783 35.0442 17.1021 34.6522 17.4415 34.3777V34.3614C17.6185 34.2169 17.8224 34.1087 18.0413 34.043C18.2602 33.9773 18.49 33.9555 18.7174 33.9787C18.9447 34.002 19.1653 34.0698 19.3664 34.1785C19.5676 34.2871 19.7453 34.4343 19.8895 34.6117C19.9194 34.647 19.9466 34.6851 19.9738 34.7232C21.4127 36.7877 23.2378 38.7461 23.537 38.912C23.8878 39.1133 24.7991 38.251 26.7275 35.8139L28.3187 36.9563Z" fill="white"/>
<path d="M28.3486 35.3107L30.919 35.8139L29.7222 33.6597C29.7222 33.6597 28.1664 33.6597 27.6931 34.5545L28.3486 35.3107Z" fill="#DBB178"/>
<path opacity="0.2" d="M20.9041 40.3074C19.0409 39.0344 18.7933 36.0478 18.7933 36.0478L17.738 35.5664L17.2321 36.9101C18.243 38.253 19.4867 39.4037 20.9041 40.3074Z" fill="black"/>
<path d="M32.736 34.8918L31.6371 33.1401L29.725 33.6597L30.9191 35.8139L32.736 34.8918Z" fill="#DBB178"/>
<path d="M18.4614 46.8459L9.34399 47.4443C9.34399 47.4443 9.27871 44.9963 8.96047 42.7414C8.86174 41.9567 8.70537 41.1803 8.49263 40.4185C8.25599 39.6406 7.94864 38.7675 7.59504 37.7529C7.5488 37.6278 7.50255 37.5027 7.45087 37.3721C7.33119 37.0566 7.20879 36.7275 7.07007 36.3848V36.3685C6.94687 36.0336 6.96024 35.6636 7.10729 35.3385C7.25434 35.0134 7.5233 34.759 7.85615 34.6304C7.91882 34.606 7.98342 34.5869 8.04928 34.5733C8.62864 34.4509 9.21343 34.3393 9.80639 34.2469L10.3178 34.1707C11.683 33.9673 13.0589 33.8438 14.4386 33.8008C15.1539 33.8008 15.9182 33.8225 16.571 33.8525L17.115 33.8797C17.8059 33.9205 18.2846 33.964 18.2846 33.964C18.2846 33.964 18.5838 34.0238 18.7606 35.6259C18.7646 35.717 18.7737 35.8078 18.7878 35.8979C18.8096 36.2297 18.8286 36.6486 18.8368 37.1518C18.864 39.2081 18.7416 42.6598 18.4614 46.8459Z" fill="#0F32EB"/>
<path opacity="0.6" d="M18.4614 46.8459L9.34399 47.4443C9.34399 47.4443 9.27871 44.9963 8.96047 42.7414C8.86174 41.9567 8.70537 41.1803 8.49263 40.4185C8.25599 39.6406 7.94864 38.7675 7.59504 37.7529C7.5488 37.6278 7.50255 37.5027 7.45087 37.3721C7.33119 37.0566 7.20879 36.7275 7.07007 36.3848V36.3685C6.94687 36.0336 6.96024 35.6636 7.10729 35.3385C7.25434 35.0134 7.5233 34.759 7.85615 34.6304C7.91882 34.606 7.98342 34.5869 8.04928 34.5733C8.62864 34.4509 9.21343 34.3393 9.80639 34.2469L10.3178 34.1707C11.683 33.9673 13.0589 33.8438 14.4386 33.8008C15.1539 33.8008 15.9182 33.8225 16.571 33.8525L17.115 33.8797C17.8059 33.9205 18.2846 33.964 18.2846 33.964C18.2846 33.964 18.5838 34.0238 18.7606 35.6259C18.7646 35.717 18.7737 35.8078 18.7878 35.8979C18.8096 36.2297 18.8286 36.6486 18.8368 37.1518C18.864 39.2081 18.7416 42.6598 18.4614 46.8459Z" fill="white"/>
<path d="M10.636 34.1273L12.9099 37.1573L14.5419 35.7593L16.6635 36.782L15.5157 33.8145C15.1621 33.8145 14.7976 33.8145 14.4467 33.8145C13.1717 33.8489 11.8995 33.9534 10.636 34.1273Z" fill="#0F32EB"/>
<path opacity="0.9" d="M10.636 34.1273L12.9099 37.1573L14.5419 35.7593L16.6635 36.782L15.5157 33.8145C15.1621 33.8145 14.7976 33.8145 14.4467 33.8145C13.1717 33.8489 11.8995 33.9534 10.636 34.1273Z" fill="white"/>
<path d="M30.7613 83.411H28.8219L29.7059 68.772H33.3344L30.7613 83.411Z" fill="#DBB178"/>
<path d="M28.6071 83.2262C28.5853 83.0413 30.9 82.8672 30.9 82.8672C30.9 82.8672 32.5103 84.1075 33.9247 84.2272C35.3391 84.3469 34.689 85.2853 33.1576 85.4974L29.3687 86.0414C28.2807 86.2019 28.8301 85.1601 28.6071 83.2262Z" fill="#263238"/>
<path d="M32.0614 83.3048C31.7662 83.2875 31.4745 83.2317 31.1937 83.1389C31.1825 83.1362 31.1722 83.1306 31.1638 83.1226C31.1583 83.1039 31.1583 83.0841 31.1638 83.0655C31.1638 83.041 31.2916 82.4671 31.5881 82.2984C31.6325 82.2714 31.6822 82.2542 31.7339 82.2481C31.7855 82.242 31.8378 82.2471 31.8873 82.2631C32.0315 82.3066 32.0696 82.3882 32.0723 82.4453C32.0723 82.5623 31.9608 82.6928 31.8003 82.8125C31.955 82.7689 32.1188 82.7689 32.2736 82.8125C32.3072 82.8252 32.338 82.8446 32.3642 82.8693C32.3903 82.894 32.4113 82.9237 32.4259 82.9567C32.4486 82.9995 32.4584 83.048 32.454 83.0963C32.4497 83.1446 32.4314 83.1906 32.4014 83.2287C32.3025 83.2977 32.1803 83.325 32.0614 83.3048ZM31.4385 83.06C31.7867 83.1498 32.1947 83.2096 32.2844 83.1117C32.3062 83.0927 32.3008 83.0519 32.2844 83.0029C32.2778 82.9869 32.2679 82.9726 32.2552 82.9608C32.2425 82.9491 32.2274 82.9403 32.211 82.9349C31.9469 82.9036 31.6793 82.9469 31.4385 83.06ZM31.754 82.38C31.7137 82.3799 31.6741 82.3913 31.6398 82.4127C31.4849 82.5475 31.3756 82.7271 31.327 82.9267C31.6262 82.7554 31.9254 82.5405 31.9254 82.448C31.9254 82.4317 31.8928 82.4099 31.8411 82.3909C31.8128 82.3831 31.7834 82.3794 31.754 82.38Z" fill="#0F32EB"/>
<path opacity="0.2" d="M29.5509 71.3315L32.8666 71.4321L33.3344 68.772H29.7059L29.5509 71.3315Z" fill="black"/>
<path d="M21.4535 83.6586L19.5957 83.4111L22.536 67.2026L26.2026 68.2498L21.4535 83.6586Z" fill="#DBB178"/>
<path d="M19.3537 83.1525C19.3537 82.9621 21.6711 83.1525 21.6711 83.1525C21.6711 83.1525 23.0774 84.6186 24.4564 84.9477C25.8354 85.2768 25.0548 86.1119 23.5098 86.0901L19.6801 86.0439C18.573 86.033 19.2802 85.1055 19.3537 83.1525Z" fill="#263238"/>
<path d="M22.8896 83.7563C22.5508 83.7145 22.2221 83.6132 21.9186 83.4571L21.8995 83.4408C21.8983 83.4378 21.8976 83.4346 21.8976 83.4313C21.8976 83.428 21.8983 83.4248 21.8995 83.4218C21.8954 83.4133 21.8933 83.404 21.8933 83.3946C21.8933 83.3851 21.8954 83.3758 21.8995 83.3674C21.8995 83.3456 22.1117 82.8016 22.4435 82.6738C22.4905 82.6522 22.5415 82.6411 22.5931 82.6411C22.6448 82.6411 22.6958 82.6522 22.7427 82.6738C22.8787 82.7418 22.9032 82.8234 22.8978 82.8805C22.8978 82.9974 22.7509 83.109 22.5795 83.2014C22.7393 83.1819 22.9013 83.2074 23.0474 83.2749C23.0787 83.2915 23.1061 83.3147 23.1277 83.3429C23.1493 83.371 23.1646 83.4035 23.1725 83.4381C23.1899 83.4824 23.1933 83.5309 23.1821 83.5772C23.1709 83.6234 23.1457 83.6651 23.1099 83.6965C23.0461 83.7423 22.9679 83.7635 22.8896 83.7563ZM22.1634 83.4082C22.4952 83.5496 22.8896 83.6802 22.9794 83.5877C23.0011 83.5714 23.0066 83.5333 22.9794 83.4789C22.9753 83.4627 22.9678 83.4476 22.9575 83.4345C22.9472 83.4214 22.9343 83.4106 22.9195 83.4027C22.6713 83.3384 22.4106 83.3403 22.1634 83.4082ZM22.5442 82.7826C22.5143 82.7837 22.4848 82.7901 22.4571 82.8016C22.2858 82.9102 22.1519 83.0687 22.0736 83.2558C22.4055 83.1334 22.7183 82.9566 22.7237 82.8696C22.7237 82.8533 22.6965 82.8261 22.6503 82.8043C22.6213 82.7898 22.59 82.7806 22.5578 82.7771L22.5442 82.7826Z" fill="#0F32EB"/>
<path opacity="0.2" d="M26.2026 68.2498L22.536 67.2026L21.9567 70.3986L25.3512 71.0106L26.2026 68.2498Z" fill="black"/>
<path d="M28.7458 70.0286L33.4106 70.2734C34.6047 64.7736 35.7961 58.7107 35.5594 57.3806C35.1106 54.832 31.6481 52.2371 18.2058 50.0366L11.9498 59.4369C11.9498 59.4369 21.0999 59.0099 29.4394 59.0099C29.4367 59.0153 28.9716 64.2486 28.7458 70.0286Z" fill="#0F32EB"/>
<path opacity="0.1" d="M28.7458 70.0286L33.4106 70.2734C34.6047 64.7736 35.7961 58.7107 35.5594 57.3806C35.1106 54.832 31.6481 52.2371 18.2058 50.0366L11.9498 59.4369C11.9498 59.4369 21.0999 59.0099 29.4394 59.0099C29.4367 59.0153 28.9716 64.2486 28.7458 70.0286Z" fill="black"/>
<path d="M28.433 69.2969L28.5717 70.5182L33.6826 70.6922L33.9328 69.5689L28.433 69.2969Z" fill="#0F32EB"/>
<path d="M15.2274 33.8091H14.4386C13.3071 33.8444 12.1783 33.9369 11.0549 34.0811C11.5445 34.6659 13.0705 35.5771 14.0932 35.5771C15.5212 35.5662 15.2029 34.5054 15.2274 33.8091Z" fill="#DBB178"/>
<path d="M21.4942 69.0821L26.2624 69.8573C28.199 64.4363 30.1357 58.6672 30.103 57.367C30.0377 54.7776 29.4693 53.4339 20.1043 51.3449C20.1043 51.3449 19.6065 50.6187 18.4723 46.8569L9.34398 47.4553C9.34398 47.4553 5.17966 55.1257 8.40286 58.4006C9.1155 59.1296 10.5163 59.456 11.9389 59.4424C11.9389 59.4424 15.2301 59.4587 23.3629 59.0779C23.3656 59.0779 22.4 63.7182 21.4942 69.0821Z" fill="#0F32EB"/>
<path d="M21.3039 68.25L26.8282 69.183L26.3033 70.3444L21.2794 69.5202L21.3039 68.25Z" fill="#0F32EB"/>
<path opacity="0.1" d="M28.433 69.2969L28.5717 70.5182L33.6826 70.6922L33.9328 69.5689L28.433 69.2969Z" fill="black"/>
<path d="M14.5365 33.0233C14.4315 33.6949 14.4592 34.3805 14.6181 35.0415L12.1184 34.6743C12.0645 34.6664 12.0133 34.6461 11.9685 34.6151C11.9238 34.584 11.8868 34.5431 11.8605 34.4955C11.8342 34.4478 11.8192 34.3948 11.8168 34.3404C11.8143 34.286 11.8245 34.2318 11.8464 34.182C12.1891 33.4041 12.3251 31.8373 12.4094 31.1165C12.4557 30.6813 12.4747 30.2842 12.4774 30.0068C12.4802 29.7293 12.4774 29.626 12.4774 29.626L13.5954 30.1373L15.4205 30.9724C14.9997 31.5945 14.6998 32.2902 14.5365 33.0233Z" fill="#DBB178"/>
<path opacity="0.2" d="M15.426 30.9722C15.0012 31.5936 14.6967 32.2893 14.5284 33.023C13.6163 32.6613 12.8631 31.9862 12.4041 31.119C12.453 30.6838 12.4721 30.2867 12.4748 30.0093C12.8719 30.0501 13.2418 30.0909 13.5954 30.1398L15.426 30.9722Z" fill="black"/>
<path d="M15.5592 29.1876C15.4858 30.0227 15.9128 30.6972 16.5112 30.6972C17.1096 30.6972 17.6564 30.0227 17.7298 29.1876C17.8032 28.3526 17.3762 27.6753 16.7778 27.6753C16.1794 27.6753 15.6327 28.3526 15.5592 29.1876Z" fill="#0F32EB"/>
<path opacity="0.5" d="M15.4532 29.1876C15.3797 30.0227 15.8068 30.6972 16.4052 30.6972C17.0036 30.6972 17.5476 30.0227 17.621 29.1876C17.6944 28.3526 17.2674 27.6753 16.669 27.6753C16.0706 27.6753 15.5239 28.3526 15.4532 29.1876Z" fill="black"/>
<path d="M11.267 27.719C11.7131 29.7645 11.8682 30.983 13.0758 31.916C13.4652 32.2252 13.9318 32.4218 14.425 32.4844C14.9183 32.547 15.4192 32.4732 15.8735 32.271C16.3277 32.0688 16.7178 31.7461 17.0015 31.3377C17.2851 30.9294 17.4514 30.4511 17.4822 29.9548C17.6427 28.0508 16.8866 25.0235 14.7323 24.4441C14.2693 24.3059 13.778 24.292 13.3079 24.4038C12.8378 24.5156 12.4054 24.7492 12.0542 25.0811C11.703 25.4131 11.4454 25.8316 11.3072 26.2946C11.169 26.7577 11.1552 27.2489 11.267 27.719Z" fill="#DBB178"/>
<path d="M10.7938 29.8541C11.1251 30.2539 11.5844 30.5269 12.094 30.6266C12.7386 30.7354 12.8855 30.1397 12.5564 29.5604C12.2626 29.0408 11.569 28.3581 10.9924 28.5104C10.4157 28.6628 10.3777 29.3509 10.7938 29.8541Z" fill="#DBB178"/>
<path d="M14.4957 27.9201C14.5229 28.0888 14.6317 28.2139 14.7432 28.1921C14.8548 28.1704 14.92 28.0316 14.8956 27.8657C14.8711 27.6998 14.7596 27.572 14.648 27.5937C14.5365 27.6155 14.4712 27.7515 14.4957 27.9201Z" fill="#263238"/>
<path d="M16.416 27.6944C16.4405 27.863 16.552 27.9881 16.6608 27.9664C16.7696 27.9446 16.8403 27.8059 16.8158 27.6372C16.7913 27.4686 16.6771 27.3462 16.5683 27.3652C16.4595 27.3843 16.3752 27.5257 16.416 27.6944Z" fill="#263238"/>
<path d="M15.8094 27.8496C16.0909 28.3397 16.4357 28.7905 16.8349 29.1906C16.7308 29.2863 16.6069 29.358 16.4719 29.4003C16.337 29.4426 16.1944 29.4546 16.0542 29.4354L15.8094 27.8496Z" fill="#C0854B"/>
<path d="M13.813 27.3793C13.7969 27.3829 13.7802 27.3829 13.764 27.3793C13.7524 27.3731 13.7422 27.3645 13.7339 27.3543C13.7257 27.344 13.7196 27.3321 13.716 27.3194C13.7125 27.3067 13.7115 27.2934 13.7132 27.2803C13.7149 27.2673 13.7193 27.2547 13.726 27.2433C13.7991 27.1045 13.9054 26.9859 14.0354 26.8982C14.1655 26.8104 14.3152 26.7561 14.4712 26.7401C14.4842 26.739 14.4972 26.7405 14.5095 26.7446C14.5219 26.7487 14.5332 26.7553 14.5429 26.764C14.5526 26.7727 14.5604 26.7832 14.5658 26.795C14.5713 26.8068 14.5743 26.8196 14.5746 26.8326C14.5757 26.8457 14.5742 26.8588 14.5701 26.8713C14.566 26.8838 14.5595 26.8953 14.5508 26.9052C14.5422 26.9151 14.5317 26.9232 14.5199 26.9289C14.5081 26.9347 14.4952 26.938 14.4821 26.9387C14.3594 26.9525 14.242 26.9965 14.1405 27.0667C14.0389 27.137 13.9563 27.2313 13.9 27.3412C13.8898 27.3542 13.8765 27.3645 13.8613 27.3712C13.8461 27.3778 13.8295 27.3806 13.813 27.3793Z" fill="#263238"/>
<path d="M17.1205 26.952C17.1043 26.9525 17.0882 26.9488 17.0739 26.9412C17.0596 26.9335 17.0475 26.9222 17.0389 26.9085C16.9699 26.8009 16.8771 26.7107 16.7677 26.6447C16.6583 26.5787 16.5352 26.5386 16.4079 26.5277C16.3844 26.5238 16.363 26.5116 16.3476 26.4935C16.3322 26.4753 16.3237 26.4522 16.3237 26.4284C16.3237 26.4045 16.3322 26.3815 16.3476 26.3633C16.363 26.3451 16.3844 26.333 16.4079 26.3291C16.5676 26.3397 16.7226 26.3875 16.8605 26.4687C16.9984 26.55 17.1154 26.6624 17.2021 26.7969C17.217 26.8187 17.2228 26.8454 17.2182 26.8713C17.2136 26.8972 17.1991 26.9203 17.1776 26.9357C17.1604 26.946 17.1407 26.9517 17.1205 26.952Z" fill="#263238"/>
<path d="M11.6669 30.4091C11.6669 30.4091 12.9671 29.0791 12.3306 25.8151C12.3306 25.8151 13.3778 26.7045 15.8095 26.0463C15.8095 26.0463 14.3706 26.1877 13.7123 25.5023C13.7123 25.5023 15.0533 26.1251 17.2211 25.5023C17.2211 25.5023 16.8349 23.3072 14.5011 23.1957C14.5011 23.1957 15.2546 22.5619 15.9808 22.6843C15.9808 22.6843 15.2383 22.0451 13.3533 23.2882L12.608 23.5928C12.608 23.5928 10.5082 22.8367 9.34402 24.6155C8.4165 26.0218 8.88162 30.4499 11.6669 30.4091Z" fill="#263238"/>
<path d="M16.435 29.8078C16.435 29.8078 15.7768 29.6419 13.9218 29.6011C14.1285 30.1641 14.5229 30.6292 15.4749 30.6401C15.5935 30.6533 15.7136 30.6418 15.8275 30.6063C15.9415 30.5709 16.0469 30.5122 16.1371 30.434C16.2273 30.3559 16.3003 30.2599 16.3516 30.1521C16.4028 30.0443 16.4313 29.9271 16.435 29.8078Z" fill="#263238"/>
<path d="M15.056 30.1916C15.4216 30.1782 15.7822 30.28 16.0868 30.4826C15.9089 30.5965 15.6993 30.6508 15.4884 30.6376C15.1243 30.6529 14.7649 30.5509 14.463 30.3466C14.6394 30.2339 14.8469 30.1796 15.056 30.1916Z" fill="#A02724"/>
<path d="M16.3507 29.7918C16.3313 29.8602 16.2934 29.9218 16.241 29.9698C16.1887 30.0179 16.124 30.0504 16.0542 30.0638C15.5063 30.0512 14.9605 29.9929 14.4222 29.8898C14.3362 29.8821 14.2534 29.8533 14.1812 29.8058C14.1091 29.7584 14.0498 29.6937 14.0088 29.6178C14.7928 29.6152 15.5757 29.6734 16.3507 29.7918Z" fill="white"/>
<path d="M10.6577 28.4235V26.2285C10.6576 25.5788 10.8671 24.9465 11.2553 24.4255C11.6434 23.9045 12.1894 23.5228 12.812 23.3371L13.5464 23.2065C12.908 23.397 12.3482 23.7884 11.9503 24.3226C11.5523 24.8568 11.3375 25.5052 11.3377 26.1713V28.4235H10.6577Z" fill="#0F32EB"/>
<path d="M12.3632 29.4869C12.4366 30.322 12.0096 30.9965 11.4112 30.9965C10.8128 30.9965 10.266 30.322 10.1953 29.4869C10.1246 28.6519 10.5489 27.9746 11.1473 27.9746C11.7457 27.9746 12.2897 28.6519 12.3632 29.4869Z" fill="#0F32EB"/>
<path opacity="0.5" d="M12.3632 29.4869C12.4366 30.322 12.0096 30.9965 11.4112 30.9965C10.8128 30.9965 10.266 30.322 10.1953 29.4869C10.1246 28.6519 10.5489 27.9746 11.1473 27.9746C11.7457 27.9746 12.2897 28.6519 12.3632 29.4869Z" fill="black"/>
<path d="M12.0014 29.4869C12.0721 30.322 11.6478 30.9965 11.0467 30.9965C10.4456 30.9965 9.90429 30.322 9.83085 29.4869C9.75741 28.6519 10.1844 27.9746 10.7828 27.9746C11.3812 27.9746 11.928 28.6519 12.0014 29.4869Z" fill="#0F32EB"/>
<path opacity="0.3" d="M11.248 29.7075L11.1991 29.2669H11.2834C11.1746 28.8344 10.8699 28.5107 10.5354 28.5107C10.2008 28.5107 9.95601 28.8344 9.92065 29.2669H9.97778L10.0267 29.7075H9.96146C10.0703 30.14 10.3749 30.461 10.7067 30.461C11.0386 30.461 11.2888 30.14 11.3215 29.7075H11.248Z" fill="white"/>
<path d="M7.33936 29.6722L8.52799 27.333L9.48815 29.6015C9.48815 29.6015 8.52527 30.8255 7.53247 30.6487L7.33936 29.6722Z" fill="#DBB178"/>
<path d="M10.375 26.4707L11.074 28.4155L9.48552 29.6014L8.52808 27.3329L10.375 26.4707Z" fill="#DBB178"/>
<path d="M7.65223 32.1906L8.79462 30.2676L8.67494 29.4842L7.66854 29.1279L6.23511 31.3583L7.65223 32.1906Z" fill="#DBB178"/>
<path d="M8.47638 30.9938L6.39014 35.5852C6.39014 35.5852 7.40469 34.674 7.96501 34.5434C8.85717 34.334 11.55 35.1473 8.82182 38.1093C8.82182 38.1093 3.4199 41.4849 2.3183 40.1765C1.4615 39.1593 5.10086 32.9767 6.76822 30.2676L8.47638 30.9938Z" fill="#0F32EB"/>
<path opacity="0.6" d="M8.47638 30.9938L6.39014 35.5852C6.39014 35.5852 7.40469 34.674 7.96501 34.5434C8.85717 34.334 11.55 35.1473 8.82182 38.1093C8.82182 38.1093 3.4199 41.4849 2.3183 40.1765C1.4615 39.1593 5.10086 32.9767 6.76822 30.2676L8.47638 30.9938Z" fill="white"/>
<path opacity="0.2" d="M6.39006 35.5855L5.80798 37.378L7.51614 34.7505C7.11776 34.9964 6.74103 35.2757 6.39006 35.5855Z" fill="black"/>
<path d="M14.2047 31.5133C13.9762 31.5191 13.7478 31.5045 13.5219 31.4698C12.9398 31.2605 12.3766 31.002 11.8383 30.6973L11.9471 30.5015C12.4698 30.7948 13.0156 31.0449 13.5791 31.2495C14.1583 31.2974 14.7406 31.2974 15.3199 31.2495L15.3362 31.4752C15.2927 31.4752 14.7215 31.5133 14.2047 31.5133Z" fill="#0F32EB"/>
<path d="M14.4495 31.5595L15.5375 31.4779C15.5375 31.4779 15.5075 31.1406 14.9935 31.1542C14.4794 31.1678 14.4495 31.5595 14.4495 31.5595Z" fill="#0F32EB"/>
<g opacity="0.5">
<path d="M14.2047 31.5133C13.9762 31.5191 13.7478 31.5045 13.5219 31.4698C12.9398 31.2605 12.3766 31.002 11.8383 30.6973L11.9471 30.5015C12.4698 30.7948 13.0156 31.0449 13.5791 31.2495C14.1583 31.2974 14.7406 31.2974 15.3199 31.2495L15.3362 31.4752C15.2927 31.4752 14.7215 31.5133 14.2047 31.5133Z" fill="black"/>
<path d="M14.4495 31.5595L15.5375 31.4779C15.5375 31.4779 15.5075 31.1406 14.9935 31.1542C14.4794 31.1678 14.4495 31.5595 14.4495 31.5595Z" fill="black"/>
</g>
<path d="M57.7763 86.1228C57.7191 86.125 57.6621 86.1158 57.6085 86.096C57.5548 86.0761 57.5056 86.0458 57.4637 86.0069C57.4218 85.968 57.3879 85.9212 57.3641 85.8692C57.3402 85.8172 57.3269 85.7611 57.3248 85.7039L54.6048 54.2117C54.6 53.9401 54.4939 53.6801 54.3071 53.4828C54.1204 53.2855 53.8666 53.1651 53.5957 53.1455H40.7464C40.4754 53.1651 40.2216 53.2855 40.0349 53.4828C39.8481 53.6801 39.742 53.9401 39.7372 54.2117L37.0173 85.7039C37.0169 85.7622 37.0049 85.8199 36.9818 85.8735C36.9588 85.927 36.9252 85.9754 36.8831 86.0158C36.841 86.0561 36.7912 86.0876 36.7367 86.1083C36.6821 86.129 36.624 86.1386 36.5657 86.1364C36.4482 86.1126 36.3443 86.0446 36.2754 85.9464C36.2066 85.8482 36.1781 85.7273 36.1958 85.6087L38.9158 54.1138C39.011 53.0122 39.7971 52.1826 40.7464 52.1826H53.5957C54.5449 52.1826 55.331 53.0122 55.4262 54.1138L58.1462 85.6087C58.1639 85.7273 58.1354 85.8482 58.0666 85.9464C57.9978 86.0446 57.8938 86.1126 57.7763 86.1364V86.1228Z" fill="#0F32EB"/>
<g opacity="0.4">
<path d="M57.7763 86.1228C57.7191 86.125 57.6621 86.1158 57.6085 86.096C57.5548 86.0761 57.5056 86.0458 57.4637 86.0069C57.4218 85.968 57.3879 85.9212 57.3641 85.8692C57.3402 85.8172 57.3269 85.7611 57.3248 85.7039L54.6048 54.2117C54.6 53.9401 54.4939 53.6801 54.3071 53.4828C54.1204 53.2855 53.8666 53.1651 53.5957 53.1455H40.7464C40.4754 53.1651 40.2216 53.2855 40.0349 53.4828C39.8481 53.6801 39.742 53.9401 39.7372 54.2117L37.0173 85.7039C37.0169 85.7622 37.0049 85.8199 36.9818 85.8735C36.9588 85.927 36.9252 85.9754 36.8831 86.0158C36.841 86.0561 36.7912 86.0876 36.7367 86.1083C36.6821 86.129 36.624 86.1386 36.5657 86.1364C36.4482 86.1126 36.3443 86.0446 36.2754 85.9464C36.2066 85.8482 36.1781 85.7273 36.1958 85.6087L38.9158 54.1138C39.011 53.0122 39.7971 52.1826 40.7464 52.1826H53.5957C54.5449 52.1826 55.331 53.0122 55.4262 54.1138L58.1462 85.6087C58.1639 85.7273 58.1354 85.8482 58.0666 85.9464C57.9978 86.0446 57.8938 86.1126 57.7763 86.1364V86.1228Z" fill="black"/>
</g>
<path d="M57.5967 50.8198H22.6692C22.3643 50.8198 22.1171 51.067 22.1171 51.372V53.1617C22.1171 53.4667 22.3643 53.7139 22.6692 53.7139H57.5967C57.9017 53.7139 58.1489 53.4667 58.1489 53.1617V51.372C58.1489 51.067 57.9017 50.8198 57.5967 50.8198Z" fill="#263238"/>
<path opacity="0.2" d="M42.3375 50.8198H57.5967C57.741 50.8198 57.8794 50.8771 57.9814 50.9792C58.0834 51.0812 58.1407 51.2195 58.1407 51.3638V53.1536C58.1407 53.2979 58.0834 53.4362 57.9814 53.5382C57.8794 53.6403 57.741 53.6976 57.5967 53.6976H42.3375V50.8198Z" fill="white"/>
<path d="M43.703 86.1227C43.6445 86.1253 43.5861 86.116 43.5312 86.0954C43.4764 86.0749 43.4263 86.0435 43.3839 86.0031C43.3415 85.9627 43.3076 85.9142 43.2844 85.8604C43.2612 85.8067 43.2491 85.7488 43.2488 85.6902L40.5288 54.1981C40.5241 53.9264 40.4179 53.6664 40.2311 53.4691C40.0444 53.2718 39.7906 53.1515 39.5197 53.1318H26.6704C26.3999 53.1521 26.1468 53.2727 25.9606 53.47C25.7744 53.6672 25.6686 53.9269 25.664 54.1981L22.944 85.7038C22.9436 85.7621 22.9316 85.8198 22.9086 85.8734C22.8855 85.927 22.8519 85.9754 22.8098 86.0157C22.7677 86.056 22.7179 86.0875 22.6634 86.1082C22.6089 86.1289 22.5507 86.1385 22.4925 86.1363C22.3732 86.1113 22.2683 86.0408 22.2003 85.9397C22.1322 85.8386 22.1063 85.715 22.128 85.595L24.848 54.1001C24.9432 52.9985 25.732 52.1689 26.6785 52.1689H39.5278C40.4771 52.1689 41.2632 52.9985 41.3584 54.1001L44.0784 85.595C44.0962 85.7132 44.068 85.8338 43.9998 85.9319C43.9315 86.0301 43.8282 86.0983 43.7112 86.1227H43.703Z" fill="#0F32EB"/>
<g opacity="0.4">
<path d="M43.703 86.1227C43.6445 86.1253 43.5861 86.116 43.5312 86.0954C43.4764 86.0749 43.4263 86.0435 43.3839 86.0031C43.3415 85.9627 43.3076 85.9142 43.2844 85.8604C43.2612 85.8067 43.2491 85.7488 43.2488 85.6902L40.5288 54.1981C40.5241 53.9264 40.4179 53.6664 40.2311 53.4691C40.0444 53.2718 39.7906 53.1515 39.5197 53.1318H26.6704C26.3999 53.1521 26.1468 53.2727 25.9606 53.47C25.7744 53.6672 25.6686 53.9269 25.664 54.1981L22.944 85.7038C22.9436 85.7621 22.9316 85.8198 22.9086 85.8734C22.8855 85.927 22.8519 85.9754 22.8098 86.0157C22.7677 86.056 22.7179 86.0875 22.6634 86.1082C22.6089 86.1289 22.5507 86.1385 22.4925 86.1363C22.3732 86.1113 22.2683 86.0408 22.2003 85.9397C22.1322 85.8386 22.1063 85.715 22.128 85.595L24.848 54.1001C24.9432 52.9985 25.732 52.1689 26.6785 52.1689H39.5278C40.4771 52.1689 41.2632 52.9985 41.3584 54.1001L44.0784 85.595C44.0962 85.7132 44.068 85.8338 43.9998 85.9319C43.9315 86.0301 43.8282 86.0983 43.7112 86.1227H43.703Z" fill="black"/>
</g>
<path d="M33.6417 49.3945H43.722V50.3438C43.722 50.4701 43.6719 50.5911 43.5826 50.6804C43.4934 50.7697 43.3723 50.8198 43.246 50.8198H34.1177C33.9915 50.8198 33.8704 50.7697 33.7811 50.6804C33.6919 50.5911 33.6417 50.4701 33.6417 50.3438V49.4V49.3945Z" fill="#263238"/>
<path opacity="0.2" d="M33.6417 49.3945H43.722V50.3438C43.722 50.4701 43.6719 50.5911 43.5826 50.6804C43.4934 50.7697 43.3723 50.8198 43.246 50.8198H34.1177C33.9915 50.8198 33.8704 50.7697 33.7811 50.6804C33.6919 50.5911 33.6417 50.4701 33.6417 50.3438V49.4V49.3945Z" fill="white"/>
<path d="M26.5126 49.3945H36.5929V50.3438C36.5929 50.4701 36.5427 50.5911 36.4535 50.6804C36.3642 50.7697 36.2431 50.8198 36.1169 50.8198H26.9886C26.8623 50.8198 26.7413 50.7697 26.652 50.6804C26.5627 50.5911 26.5126 50.4701 26.5126 50.3438V49.4V49.3945Z" fill="#263238"/>
<path opacity="0.6" d="M26.5126 49.3945H36.5929V50.3438C36.5929 50.4701 36.5427 50.5911 36.4535 50.6804C36.3642 50.7697 36.2431 50.8198 36.1169 50.8198H26.9886C26.8623 50.8198 26.7413 50.7697 26.652 50.6804C26.5627 50.5911 26.5126 50.4701 26.5126 50.3438V49.4V49.3945Z" fill="white"/>
<path d="M35.426 49.936H34.4904V50.2733H35.426V49.936Z" fill="#263238"/>
<path d="M33.9273 49.936H32.9916V50.2733H33.9273V49.936Z" fill="#263238"/>
<path d="M44.4319 50.82H44.9134C45.0451 50.8173 45.1717 50.7684 45.2711 50.6819C45.3705 50.5954 45.4364 50.4768 45.4574 50.3468L47.0894 40.3127C47.1022 40.233 47.0978 40.1516 47.0766 40.0737C47.0553 39.9959 47.0177 39.9235 46.9662 39.8614C46.9146 39.7993 46.8504 39.749 46.7779 39.7138C46.7053 39.6785 46.626 39.6592 46.5454 39.6572L38.7199 39.6436L36.6038 50.7956H37.0852L44.4319 50.82Z" fill="#263238"/>
<path opacity="0.6" d="M44.4319 50.82H44.9134C45.0451 50.8173 45.1717 50.7684 45.2711 50.6819C45.3705 50.5954 45.4364 50.4768 45.4574 50.3468L47.0894 40.3127C47.1022 40.233 47.0978 40.1516 47.0766 40.0737C47.0553 39.9959 47.0177 39.9235 46.9662 39.8614C46.9146 39.7993 46.8504 39.749 46.7779 39.7138C46.7053 39.6785 46.626 39.6592 46.5454 39.6572L38.7199 39.6436L36.6038 50.7956H37.0852L44.4319 50.82Z" fill="white"/>
<path opacity="0.2" d="M36.7262 50.0938L36.5902 50.8064H37.0717L44.4157 50.82H44.8971C45.0288 50.8172 45.1554 50.7683 45.2548 50.6819C45.3542 50.5954 45.4201 50.4768 45.4411 50.3467L45.4792 50.1101L36.7262 50.0938Z" fill="black"/>
<path d="M36.6011 50.8145H37.088C37.2197 50.8118 37.3463 50.7629 37.4457 50.6764C37.5451 50.5899 37.611 50.4713 37.632 50.3412L39.264 40.3017C39.2768 40.2222 39.2725 40.1409 39.2512 40.0632C39.2299 39.9855 39.1922 39.9133 39.1407 39.8514C39.0891 39.7895 39.0249 39.7394 38.9523 39.7045C38.8797 39.6696 38.8005 39.6506 38.72 39.6489L36.6011 50.8145Z" fill="#263238"/>
<path opacity="0.3" d="M36.6011 50.8145H37.088C37.2197 50.8118 37.3463 50.7629 37.4457 50.6764C37.5451 50.5899 37.611 50.4713 37.632 50.3412L39.264 40.3017C39.2768 40.2222 39.2725 40.1409 39.2512 40.0632C39.2299 39.9855 39.1922 39.9133 39.1407 39.8514C39.0891 39.7895 39.0249 39.7394 38.9523 39.7045C38.8797 39.6696 38.8005 39.6506 38.72 39.6489L36.6011 50.8145Z" fill="white"/>
</g>
<defs>
<clipPath id="clip0_1541_3401">
<rect width="81" height="87" fill="white"/>
</clipPath>
</defs>
</svg>
