<svg width="98" height="76" viewBox="0 0 98 76" fill="none" xmlns="http://www.w3.org/2000/svg">
<g clip-path="url(#clip0_1541_3152)">
<path d="M50 76.4555C77.4131 76.4555 99.6358 75.1581 99.6358 73.5576C99.6358 71.9571 77.4131 70.6597 50 70.6597C22.5869 70.6597 0.364136 71.9571 0.364136 73.5576C0.364136 75.1581 22.5869 76.4555 50 76.4555Z" fill="#F5F5F5"/>
<path d="M95.3887 66.246C95.3887 66.246 96.0723 63.9573 94.6899 63.4991C93.3075 63.0409 92.4883 61.9631 92.5343 60.7625C92.5804 59.5618 91.1263 58.374 90.0332 59.508C88.9401 60.6421 89.0886 58.6479 87.6319 58.1359C86.1753 57.6239 84.9439 58.8322 85.3407 59.9151C85.7375 60.998 84.3039 61.6712 82.5836 60.7522C80.8633 59.8332 78.9715 61.5048 79.3375 62.8156C79.7036 64.1263 79.4015 64.2722 78.3135 63.8396C77.2255 63.4069 75.2799 64.6409 75.9609 66.2409C76.6419 67.8408 95.3887 66.246 95.3887 66.246Z" fill="#263238"/>
<path opacity="0.3" d="M95.3887 66.246C95.3887 66.246 96.0723 63.9573 94.6899 63.4991C93.3075 63.0409 92.4883 61.9631 92.5343 60.7625C92.5804 59.5618 91.1263 58.374 90.0332 59.508C88.9401 60.6421 89.0886 58.6479 87.6319 58.1359C86.1753 57.6239 84.9439 58.8322 85.3407 59.9151C85.7375 60.998 84.3039 61.6712 82.5836 60.7522C80.8633 59.8332 78.9715 61.5048 79.3375 62.8156C79.7036 64.1263 79.4015 64.2722 78.3135 63.8396C77.2255 63.4069 75.2799 64.6409 75.9609 66.2409C76.6419 67.8408 95.3887 66.246 95.3887 66.246Z" fill="white"/>
<path d="M29.2819 66.6708C30.5081 65.8388 29.4048 64.4231 28.176 64.2567C26.9472 64.0903 25.7158 62.626 25.6569 61.6967C25.5981 60.7674 23.3888 57.8951 19.9507 59.6667C16.5126 61.4382 17.5597 59.9226 15.0713 59.4286C12.583 58.9345 11.0163 60.363 12.1094 61.4382C12.1094 61.4382 9.61085 61.0132 8.58173 62.5953C7.55261 64.1774 8.58173 65.1553 8.58173 65.1553C8.58173 65.1553 3.88413 65.0606 4.30653 67.0292C4.72893 68.9978 29.2819 66.6708 29.2819 66.6708Z" fill="#263238"/>
<path opacity="0.3" d="M29.2819 66.6708C30.5081 65.8388 29.4048 64.4231 28.176 64.2567C26.9472 64.0903 25.7158 62.626 25.6569 61.6967C25.5981 60.7674 23.3888 57.8951 19.9507 59.6667C16.5126 61.4382 17.5597 59.9226 15.0713 59.4286C12.583 58.9345 11.0163 60.363 12.1094 61.4382C12.1094 61.4382 9.61085 61.0132 8.58173 62.5953C7.55261 64.1774 8.58173 65.1553 8.58173 65.1553C8.58173 65.1553 3.88413 65.0606 4.30653 67.0292C4.72893 68.9978 29.2819 66.6708 29.2819 66.6708Z" fill="white"/>
<path d="M97.2857 65.9543V69.3181H2.51451V65.9543C2.50725 65.8191 2.5274 65.6838 2.57377 65.5567C2.62014 65.4295 2.69176 65.313 2.78431 65.2143C2.87687 65.1155 2.98845 65.0365 3.11234 64.9819C3.23623 64.9274 3.36987 64.8985 3.50522 64.897H96.295C96.4303 64.8985 96.564 64.9274 96.6879 64.9819C96.8118 65.0365 96.9233 65.1155 97.0159 65.2143C97.1085 65.313 97.1801 65.4295 97.2264 65.5567C97.2728 65.6838 97.293 65.8191 97.2857 65.9543Z" fill="#263238"/>
<path d="M13.8093 64.897H7.91614V69.3155H13.8093V64.897Z" fill="#0F32EB"/>
<path d="M24.8582 64.897H19.2108V69.3155H24.8582V64.897Z" fill="#0F32EB"/>
<path d="M36.1529 64.897H30.2598V69.3155H36.1529V64.897Z" fill="#0F32EB"/>
<path d="M47.1994 64.897H41.552V69.3155H47.1994V64.897Z" fill="#0F32EB"/>
<path d="M58.2483 64.897H52.601V69.3155H58.2483V64.897Z" fill="#0F32EB"/>
<path d="M69.543 64.897H63.6499V69.3155H69.543V64.897Z" fill="#0F32EB"/>
<path d="M80.5919 64.897H74.9446V69.3155H80.5919V64.897Z" fill="#0F32EB"/>
<path d="M91.8866 64.897H85.9935V69.3155H91.8866V64.897Z" fill="#0F32EB"/>
<g opacity="0.6">
<path d="M13.8093 64.897H7.91614V69.3155H13.8093V64.897Z" fill="white"/>
<path d="M24.8582 64.897H19.2108V69.3155H24.8582V64.897Z" fill="white"/>
<path d="M36.1529 64.897H30.2598V69.3155H36.1529V64.897Z" fill="white"/>
<path d="M47.1994 64.897H41.552V69.3155H47.1994V64.897Z" fill="white"/>
<path d="M58.2483 64.897H52.601V69.3155H58.2483V64.897Z" fill="white"/>
<path d="M69.543 64.897H63.6499V69.3155H69.543V64.897Z" fill="white"/>
<path d="M80.5919 64.897H74.9446V69.3155H80.5919V64.897Z" fill="white"/>
<path d="M91.8866 64.897H85.9935V69.3155H91.8866V64.897Z" fill="white"/>
</g>
<path opacity="0.2" d="M97.2857 65.9543V69.3181H2.51451V65.9543C2.50725 65.8191 2.5274 65.6838 2.57377 65.5567C2.62014 65.4295 2.69176 65.313 2.78431 65.2143C2.87687 65.1155 2.98845 65.0365 3.11234 64.9819C3.23623 64.9274 3.36987 64.8985 3.50522 64.897H96.295C96.4303 64.8985 96.564 64.9274 96.6879 64.9819C96.8118 65.0365 96.9233 65.1155 97.0159 65.2143C97.1085 65.313 97.1801 65.4295 97.2264 65.5567C97.2728 65.6838 97.293 65.8191 97.2857 65.9543Z" fill="white"/>
<path d="M95.2403 38.0039H84.7443C84.0158 38.006 83.3178 38.2968 82.8033 38.8127C82.2889 39.3286 82 40.0274 82 40.7559V44.8238L75.9661 46.0014L82 47.1815V51.2494C82 51.9792 82.2899 52.6792 82.806 53.1953C83.3221 53.7114 84.0221 54.0014 84.752 54.0014H95.248C95.9779 54.0014 96.6778 53.7114 97.1939 53.1953C97.71 52.6792 98 51.9792 98 51.2494V40.7534C97.9997 40.3915 97.928 40.0333 97.789 39.6992C97.6501 39.3651 97.4467 39.0617 97.1903 38.8063C96.934 38.551 96.6298 38.3486 96.2952 38.2109C95.9606 38.0733 95.6021 38.0029 95.2403 38.0039Z" fill="#0F32EB"/>
<path opacity="0.7" d="M95.2403 38.0039H84.7443C84.0158 38.006 83.3178 38.2968 82.8033 38.8127C82.2889 39.3286 82 40.0274 82 40.7559V44.8238L75.9661 46.0014L82 47.1815V51.2494C82 51.9792 82.2899 52.6792 82.806 53.1953C83.3221 53.7114 84.0221 54.0014 84.752 54.0014H95.248C95.9779 54.0014 96.6778 53.7114 97.1939 53.1953C97.71 52.6792 98 51.9792 98 51.2494V40.7534C97.9997 40.3915 97.928 40.0333 97.789 39.6992C97.6501 39.3651 97.4467 39.0617 97.1903 38.8063C96.934 38.551 96.6298 38.3486 96.2952 38.2109C95.9606 38.0733 95.6021 38.0029 95.2403 38.0039Z" fill="white"/>
<path d="M92.3958 38.2963L93.6972 39.1407C93.7885 39.2 93.9106 39.174 93.9698 39.0827L94.2653 38.6274C94.3245 38.5361 94.2985 38.414 94.2072 38.3548L92.9059 37.5103C92.8145 37.451 92.6925 37.477 92.6332 37.5683L92.3378 38.0236C92.2785 38.1149 92.3045 38.237 92.3958 38.2963Z" fill="#0F32EB"/>
<path opacity="0.2" d="M92.4012 38.2934L93.7043 39.1382C93.7478 39.1664 93.8007 39.1763 93.8515 39.1658C93.9023 39.1552 93.9469 39.1251 93.9756 39.0819L94.2726 38.6236C94.3006 38.5798 94.3101 38.5266 94.299 38.4758C94.288 38.425 94.2573 38.3806 94.2137 38.3523L94.1395 38.3036C94.1359 38.3146 94.1307 38.3249 94.1241 38.3343L93.8297 38.79C93.8005 38.8333 93.7557 38.8636 93.7046 38.8746C93.6536 38.8856 93.6002 38.8763 93.5558 38.8489L92.3296 38.0527C92.3106 38.0948 92.3074 38.1422 92.3206 38.1864C92.3338 38.2306 92.3624 38.2686 92.4012 38.2934Z" fill="black"/>
<path d="M84.7161 37.1079C84.6154 37.1279 84.5197 37.1679 84.4347 37.2256C84.3497 37.2832 84.2772 37.3573 84.2213 37.4435C84.1655 37.5296 84.1275 37.6261 84.1096 37.7272C84.0916 37.8283 84.0942 37.932 84.117 38.0321L86.7564 50.425C86.7728 50.5046 86.8048 50.5801 86.8506 50.6472C86.8964 50.7142 86.955 50.7716 87.0231 50.8159C87.0912 50.8601 87.1674 50.8905 87.2473 50.9051C87.3272 50.9198 87.4092 50.9184 87.4886 50.9012L95.6524 49.1758C95.8124 49.1413 95.9522 49.045 96.0414 48.9079C96.1306 48.7707 96.162 48.6038 96.1286 48.4436L94.3007 39.8625C94.2753 39.7409 94.2259 39.6256 94.1556 39.5232C94.0853 39.4208 93.9954 39.3334 93.8911 39.266L92.2681 38.2113C92.1639 38.1437 92.0474 38.0973 91.9253 38.0749C91.8031 38.0525 91.6778 38.0545 91.5564 38.0807L91.2492 36.6369C91.2263 36.5213 91.1807 36.4114 91.115 36.3136C91.0493 36.2159 90.9647 36.1321 90.8664 36.0673C90.768 36.0025 90.6577 35.958 90.5419 35.9362C90.4261 35.9144 90.3071 35.9159 90.1919 35.9406L85.6735 36.9031L84.7161 37.1079ZM90.6425 38.2625L88.1158 38.8001C87.9306 38.8376 87.7389 38.8265 87.5594 38.7677C87.3799 38.7089 87.2188 38.6045 87.0918 38.4647L86.4646 37.7684C86.4377 37.7384 86.4191 37.7018 86.4108 37.6623C86.4024 37.6229 86.4046 37.582 86.417 37.5436C86.4295 37.5053 86.4518 37.4709 86.4817 37.4438C86.5116 37.4168 86.548 37.398 86.5874 37.3895L90.3609 36.5857C90.4244 36.5747 90.4898 36.5881 90.5439 36.6232C90.598 36.6583 90.6369 36.7126 90.6527 36.7751L90.8908 37.8938C90.899 37.9344 90.899 37.9761 90.8909 38.0167C90.8828 38.0572 90.8668 38.0958 90.8437 38.13C90.8206 38.1643 90.7909 38.1937 90.7564 38.2164C90.7218 38.2392 90.6831 38.2548 90.6425 38.2625Z" fill="#263238"/>
<path opacity="0.2" d="M84.7161 37.1079C84.6154 37.1279 84.5197 37.1679 84.4347 37.2256C84.3497 37.2832 84.2772 37.3573 84.2213 37.4435C84.1655 37.5296 84.1275 37.6261 84.1096 37.7272C84.0916 37.8283 84.0942 37.932 84.117 38.0321L86.7564 50.425C86.7728 50.5046 86.8048 50.5801 86.8506 50.6472C86.8964 50.7142 86.955 50.7716 87.0231 50.8159C87.0912 50.8601 87.1674 50.8905 87.2473 50.9051C87.3272 50.9198 87.4092 50.9184 87.4886 50.9012L95.6524 49.1758C95.8124 49.1413 95.9522 49.045 96.0414 48.9079C96.1306 48.7707 96.162 48.6038 96.1286 48.4436L94.3007 39.8625C94.2753 39.7409 94.2259 39.6256 94.1556 39.5232C94.0853 39.4208 93.9954 39.3334 93.8911 39.266L92.2681 38.2113C92.1639 38.1437 92.0474 38.0973 91.9253 38.0749C91.8031 38.0525 91.6778 38.0545 91.5564 38.0807L91.2492 36.6369C91.2263 36.5213 91.1807 36.4114 91.115 36.3136C91.0493 36.2159 90.9647 36.1321 90.8664 36.0673C90.768 36.0025 90.6577 35.958 90.5419 35.9362C90.4261 35.9144 90.3071 35.9159 90.1919 35.9406L85.6735 36.9031L84.7161 37.1079ZM90.6425 38.2625L88.1158 38.8001C87.9306 38.8376 87.7389 38.8265 87.5594 38.7677C87.3799 38.7089 87.2188 38.6045 87.0918 38.4647L86.4646 37.7684C86.4377 37.7384 86.4191 37.7018 86.4108 37.6623C86.4024 37.6229 86.4046 37.582 86.417 37.5436C86.4295 37.5053 86.4518 37.4709 86.4817 37.4438C86.5116 37.4168 86.548 37.398 86.5874 37.3895L90.3609 36.5857C90.4244 36.5747 90.4898 36.5881 90.5439 36.6232C90.598 36.6583 90.6369 36.7126 90.6527 36.7751L90.8908 37.8938C90.899 37.9344 90.899 37.9761 90.8909 38.0167C90.8828 38.0572 90.8668 38.0958 90.8437 38.13C90.8206 38.1643 90.7909 38.1937 90.7564 38.2164C90.7218 38.2392 90.6831 38.2548 90.6425 38.2625Z" fill="white"/>
<path opacity="0.2" d="M95.4707 48.5227L93.6531 39.9877C93.6457 39.9511 93.6309 39.9164 93.6098 39.8856C93.5887 39.8549 93.5617 39.8286 93.5302 39.8085L91.9072 38.7563C91.8762 38.7358 91.8415 38.7217 91.8051 38.7146C91.7686 38.7076 91.7311 38.7079 91.6947 38.7154L91.047 38.8536V38.8152C90.9669 38.8592 90.8806 38.8912 90.791 38.9099L88.2643 39.4475C87.964 39.5118 87.6519 39.4957 87.3598 39.4009C87.0676 39.3061 86.8057 39.1358 86.6003 38.9074L85.9757 38.2111C85.8805 38.107 85.812 37.9813 85.776 37.845C85.7523 37.7713 85.7017 37.7094 85.6343 37.6714C85.567 37.6334 85.4877 37.6223 85.4125 37.6402L84.8646 37.7554C84.8346 37.7621 84.8084 37.7804 84.7916 37.8062C84.7749 37.8321 84.7689 37.8634 84.775 37.8936L87.4042 50.2431L95.4707 48.5227Z" fill="white"/>
<path opacity="0.2" d="M87.6908 48.8481C87.6675 48.8849 87.6595 48.9293 87.6686 48.9719C87.6777 49.0145 87.7031 49.0518 87.7395 49.0759C87.7578 49.0878 87.7783 49.0961 87.7998 49.1001C87.8213 49.1041 87.8433 49.1039 87.8647 49.0993C87.8861 49.0948 87.9064 49.0861 87.9245 49.0738C87.9425 49.0614 87.9579 49.0456 87.9699 49.0273L89.4111 46.8052L92.2271 46.2061L94.4467 47.6474C94.4647 47.66 94.4852 47.6686 94.5069 47.6726C94.5285 47.6766 94.5508 47.6758 94.5721 47.6705C94.5931 47.6661 94.613 47.6574 94.6306 47.6451C94.6482 47.6328 94.6632 47.617 94.6745 47.5988C94.6864 47.5807 94.6945 47.5604 94.6985 47.5391C94.7025 47.5178 94.7023 47.4959 94.6977 47.4747C94.6932 47.4535 94.6845 47.4334 94.6722 47.4156C94.6598 47.3978 94.6441 47.3826 94.6259 47.3709L92.4038 45.9297L91.8047 43.1137L93.246 40.8916C93.2583 40.8734 93.2668 40.8529 93.271 40.8313C93.2752 40.8098 93.2751 40.7876 93.2705 40.7661C93.266 40.7446 93.2572 40.7242 93.2446 40.7062C93.232 40.6882 93.216 40.6729 93.1974 40.6612C93.1604 40.6385 93.1161 40.6309 93.0737 40.64C93.0313 40.649 92.994 40.674 92.9695 40.7098L91.5283 42.9319L88.7123 43.5309L86.4902 42.0897C86.4532 42.0656 86.4081 42.0571 86.3649 42.0663C86.3217 42.0754 86.2839 42.1013 86.2598 42.1383C86.2357 42.1753 86.2273 42.2204 86.2364 42.2636C86.2455 42.3068 86.2714 42.3446 86.3084 42.3687L88.5305 43.81L89.1295 46.626L87.6908 48.8481ZM89.6799 46.4109L89.4495 46.4621L89.4009 46.2343L88.9401 44.066L88.8915 43.8356L89.1219 43.7869L91.2902 43.3261L91.5155 43.2775L91.5641 43.5079L92.0275 45.6762L92.0761 45.9015L91.8483 45.9501L89.6799 46.4109Z" fill="black"/>
<path d="M81.977 10.2642H71.481C70.7511 10.2642 70.0511 10.5541 69.535 11.0702C69.0189 11.5863 68.729 12.2863 68.729 13.0162V23.5122C68.729 24.242 69.0189 24.942 69.535 25.4581C70.0511 25.9742 70.7511 26.2642 71.481 26.2642H73.0605L70.905 29.4642L75.6666 26.259H81.977C82.3383 26.259 82.696 26.1878 83.0298 26.0495C83.3635 25.9112 83.6667 25.7084 83.9221 25.4528C84.1774 25.1973 84.3799 24.8939 84.5179 24.56C84.6559 24.2261 84.7268 23.8683 84.7264 23.507V13.011C84.7258 12.2823 84.4358 11.5836 83.9202 11.0685C83.4047 10.5535 82.7058 10.2642 81.977 10.2642Z" fill="#0F32EB"/>
<path opacity="0.7" d="M81.977 10.2642H71.481C70.7511 10.2642 70.0511 10.5541 69.535 11.0702C69.0189 11.5863 68.729 12.2863 68.729 13.0162V23.5122C68.729 24.242 69.0189 24.942 69.535 25.4581C70.0511 25.9742 70.7511 26.2642 71.481 26.2642H73.0605L70.905 29.4642L75.6666 26.259H81.977C82.3383 26.259 82.696 26.1878 83.0298 26.0495C83.3635 25.9112 83.6667 25.7084 83.9221 25.4528C84.1774 25.1973 84.3799 24.8939 84.5179 24.56C84.6559 24.2261 84.7268 23.8683 84.7264 23.507V13.011C84.7258 12.2823 84.4358 11.5836 83.9202 11.0685C83.4047 10.5535 82.7058 10.2642 81.977 10.2642Z" fill="white"/>
<path d="M84.3809 16.1906L86.1114 15.4072L86.1473 15.8091C86.1586 15.9405 86.1353 16.0726 86.0796 16.1921C86.0239 16.3116 85.9377 16.4144 85.8298 16.4901L85.4714 16.7461L84.3809 16.1906Z" fill="#0F32EB"/>
<path opacity="0.2" d="M84.3809 16.1906L86.1114 15.4072L86.1473 15.8091C86.1586 15.9405 86.1353 16.0726 86.0796 16.1921C86.0239 16.3116 85.9377 16.4144 85.8298 16.4901L85.4714 16.7461L84.3809 16.1906Z" fill="black"/>
<path opacity="0.2" d="M85.6403 16.1341C85.6343 16.1642 85.6195 16.1919 85.5978 16.2137C85.5761 16.2355 85.5484 16.2504 85.5182 16.2565C85.4881 16.2626 85.4568 16.2597 85.4283 16.2481C85.3998 16.2365 85.3754 16.2167 85.3581 16.1913C85.3408 16.1659 85.3314 16.1359 85.3311 16.1051C85.3307 16.0744 85.3395 16.0442 85.3562 16.0184C85.373 15.9926 85.397 15.9723 85.4252 15.9601C85.4534 15.9479 85.4846 15.9443 85.5149 15.9497C85.5353 15.9534 85.5548 15.9611 85.5722 15.9724C85.5896 15.9837 85.6046 15.9984 85.6163 16.0156C85.628 16.0327 85.6361 16.052 85.6403 16.0724C85.6444 16.0927 85.6444 16.1137 85.6403 16.1341Z" fill="white"/>
<path d="M80.1567 15.8005L74.2528 14.2847L73.7613 16.1989L79.6652 17.7148L80.1567 15.8005Z" fill="#0F32EB"/>
<path opacity="0.2" d="M80.1567 15.8005L74.2528 14.2847L73.7613 16.1989L79.6652 17.7148L80.1567 15.8005Z" fill="black"/>
<path d="M73.552 15.5734L74.064 14.9104C74.1066 14.8556 74.1292 14.7878 74.128 14.7184V13.336C74.128 13.2518 74.1615 13.1711 74.221 13.1115C74.2805 13.052 74.3613 13.0186 74.4455 13.0186H75.4823C75.5631 13.0232 75.639 13.0587 75.6943 13.1178C75.7496 13.1769 75.78 13.2551 75.7792 13.336V15.3046C75.7791 15.3605 75.764 15.4153 75.7357 15.4634C75.7073 15.5116 75.6667 15.5513 75.6179 15.5786L74.3047 16.3158C74.2504 16.3457 74.1886 16.3592 74.1268 16.3547C74.065 16.3502 74.0058 16.3278 73.9565 16.2902L73.5981 16.0112C73.5348 15.9587 73.4945 15.8835 73.4859 15.8017C73.4773 15.7199 73.501 15.638 73.552 15.5734Z" fill="#263238"/>
<path opacity="0.2" d="M73.552 15.5734L74.064 14.9104C74.1066 14.8556 74.1292 14.7878 74.128 14.7184V13.336C74.128 13.2518 74.1615 13.1711 74.221 13.1115C74.2805 13.052 74.3613 13.0186 74.4455 13.0186H75.4823C75.5631 13.0232 75.639 13.0587 75.6943 13.1178C75.7496 13.1769 75.78 13.2551 75.7792 13.336V15.3046C75.7791 15.3605 75.764 15.4153 75.7357 15.4634C75.7073 15.5116 75.6667 15.5513 75.6179 15.5786L74.3047 16.3158C74.2504 16.3457 74.1886 16.3592 74.1268 16.3547C74.065 16.3502 74.0058 16.3278 73.9565 16.2902L73.5981 16.0112C73.5348 15.9587 73.4945 15.8835 73.4859 15.8017C73.4773 15.7199 73.501 15.638 73.552 15.5734Z" fill="black"/>
<path d="M79.5271 18.236L73.4548 16.677C73.3959 16.6621 73.3404 16.6356 73.2918 16.5992C73.2431 16.5627 73.2021 16.517 73.1711 16.4647C73.1402 16.4123 73.1199 16.3544 73.1115 16.2941C73.1031 16.2339 73.1066 16.1726 73.122 16.1138C73.137 16.0548 73.1634 15.9993 73.1998 15.9505C73.2362 15.9017 73.2818 15.8605 73.3341 15.8294C73.3864 15.7983 73.4444 15.7777 73.5046 15.769C73.5648 15.7602 73.6262 15.7634 73.6852 15.7784L79.7575 17.3374L79.5271 18.236Z" fill="#263238"/>
<path opacity="0.2" d="M73.7389 16.2724C73.7257 16.3234 73.6927 16.3669 73.6474 16.3936C73.602 16.4202 73.5479 16.4277 73.497 16.4145C73.4461 16.4013 73.4025 16.3683 73.3758 16.323C73.3492 16.2776 73.3417 16.2235 73.3549 16.1726C73.3687 16.1217 73.4019 16.0782 73.4473 16.0515C73.4928 16.0247 73.5469 16.0167 73.5981 16.0292C73.6489 16.043 73.6921 16.0763 73.7185 16.1219C73.7449 16.1674 73.7522 16.2215 73.7389 16.2724Z" fill="white"/>
<path opacity="0.2" d="M75.1111 15.1281C75.0965 15.1861 75.065 15.2385 75.0206 15.2786C74.9763 15.3187 74.921 15.3448 74.8618 15.3534C74.8026 15.3621 74.7421 15.353 74.6881 15.3272C74.6341 15.3015 74.589 15.2603 74.5584 15.2089C74.5278 15.1574 74.5132 15.0981 74.5164 15.0384C74.5196 14.9786 74.5405 14.9212 74.5764 14.8733C74.6123 14.8254 74.6616 14.7893 74.718 14.7695C74.7745 14.7497 74.8355 14.7471 74.8935 14.762C74.9707 14.7819 75.037 14.8316 75.0777 14.9002C75.1185 14.9688 75.1305 15.0507 75.1111 15.1281Z" fill="white"/>
<path d="M76.0763 13.0852H73.8439L73.6238 12.4785H76.2964L76.0763 13.0852Z" fill="#263238"/>
<path d="M76.3808 12.4785H73.5469V12.7832H76.3808V12.4785Z" fill="#263238"/>
<path d="M73.0145 18.2001L80.3873 15.5992C80.4604 15.5738 80.5384 15.5659 80.6151 15.5761L86.0244 16.3697C86.1379 16.3868 86.2416 16.444 86.3167 16.5308C86.3918 16.6177 86.4334 16.7285 86.434 16.8433V19.1653C86.434 19.2922 86.3835 19.414 86.2938 19.5038C86.204 19.5935 86.0822 19.644 85.9553 19.644H73.1732C73.0462 19.644 72.9245 19.5935 72.8347 19.5038C72.7449 19.414 72.6945 19.2922 72.6945 19.1653V18.6533C72.6949 18.554 72.7258 18.4573 72.7831 18.3763C72.8403 18.2952 72.9211 18.2337 73.0145 18.2001Z" fill="#0F32EB"/>
<path opacity="0.2" d="M85.6148 16.8845L84.1684 16.672C84.1646 16.7258 84.1499 16.7783 84.1253 16.8262C84.1006 16.8742 84.0665 16.9166 84.025 16.9511C83.8842 17.056 81.5649 16.6311 81.5649 16.6311C81.5 16.8101 81.3742 16.9606 81.2095 17.0562C81.0448 17.1518 80.8518 17.1865 80.6641 17.1541C80.4765 17.1218 80.3062 17.0245 80.1831 16.8793C80.0599 16.734 79.9917 16.5501 79.9905 16.3597V16.3418L73.7057 18.5613L73.7748 18.5792C73.8984 18.6138 74.0136 18.6735 74.1131 18.7545C74.2127 18.8355 74.2945 18.9362 74.3534 19.0503H81.2321C81.2563 19.0503 81.2803 19.0455 81.3026 19.0362C81.325 19.027 81.3453 19.0134 81.3624 18.9963C81.3795 18.9792 81.3931 18.9589 81.4024 18.9365C81.4116 18.9141 81.4164 18.8902 81.4164 18.866V18.7994C81.4164 18.7206 81.4477 18.6451 81.5034 18.5894C81.5591 18.5337 81.6346 18.5024 81.7134 18.5024H83.9585C84.0372 18.5024 84.1128 18.5337 84.1685 18.5894C84.2242 18.6451 84.2554 18.7206 84.2554 18.7994V18.866C84.2554 18.9148 84.2749 18.9617 84.3094 18.9963C84.344 19.0309 84.3909 19.0503 84.4398 19.0503H85.6327C85.6884 19.0503 85.7418 19.0282 85.7812 18.9888C85.8205 18.9494 85.8426 18.896 85.8426 18.8404V17.161C85.8432 17.0955 85.8206 17.0319 85.779 16.9814C85.7373 16.9308 85.6792 16.8965 85.6148 16.8845Z" fill="black"/>
<path d="M74.169 19.6801C74.169 19.8902 74.1067 20.0956 73.9899 20.2703C73.8732 20.445 73.7073 20.5812 73.5132 20.6616C73.319 20.742 73.1054 20.7631 72.8993 20.7221C72.6932 20.6811 72.5039 20.5799 72.3554 20.4313C72.2068 20.2827 72.1056 20.0934 72.0646 19.8873C72.0236 19.6813 72.0447 19.4676 72.1251 19.2735C72.2055 19.0794 72.3416 18.9135 72.5164 18.7967C72.6911 18.68 72.8965 18.6177 73.1066 18.6177C73.2462 18.6173 73.3845 18.6446 73.5136 18.6979C73.6426 18.7511 73.7599 18.8294 73.8586 18.9281C73.9573 19.0268 74.0355 19.1441 74.0888 19.2731C74.1421 19.4022 74.1693 19.5405 74.169 19.6801Z" fill="#263238"/>
<path opacity="0.6" d="M73.1067 20.1533C73.3682 20.1533 73.5803 19.9412 73.5803 19.6797C73.5803 19.4181 73.3682 19.2061 73.1067 19.2061C72.8451 19.2061 72.6331 19.4181 72.6331 19.6797C72.6331 19.9412 72.8451 20.1533 73.1067 20.1533Z" fill="white"/>
<path opacity="0.2" d="M83.8458 19.2063H81.8209C81.7657 19.2057 81.7129 19.1833 81.6741 19.144C81.6353 19.1047 81.6135 19.0517 81.6135 18.9964C81.6135 18.9414 81.6354 18.8887 81.6743 18.8498C81.7131 18.8109 81.7659 18.7891 81.8209 18.7891H83.8458C83.9006 18.7897 83.953 18.8118 83.9917 18.8505C84.0305 18.8893 84.0525 18.9416 84.0532 18.9964C84.0532 19.0517 84.0315 19.1047 83.9926 19.144C83.9538 19.1833 83.9011 19.2057 83.8458 19.2063Z" fill="white"/>
<path d="M83.4643 20.11C83.4648 19.9848 83.4282 19.8623 83.359 19.758C83.2899 19.6537 83.1913 19.5722 83.0758 19.524C82.9603 19.4757 82.8331 19.4628 82.7102 19.4869C82.5874 19.511 82.4745 19.5711 82.3858 19.6594C82.2971 19.7477 82.2367 19.8604 82.212 19.9831C82.1874 20.1058 82.1998 20.2331 82.2476 20.3488C82.2954 20.4645 82.3764 20.5634 82.4805 20.633C82.5845 20.7026 82.7069 20.7397 82.832 20.7397C82.9991 20.7391 83.1591 20.6726 83.2775 20.5547C83.3959 20.4368 83.463 20.277 83.4643 20.11Z" fill="#263238"/>
<path d="M82.832 20.4809C82.737 20.4809 82.6458 20.4432 82.5786 20.376C82.5114 20.3088 82.4736 20.2176 82.4736 20.1225V19.2061H83.193V20.1225C83.193 20.1698 83.1836 20.2166 83.1655 20.2603C83.1473 20.3039 83.1207 20.3436 83.0871 20.3769C83.0536 20.4102 83.0137 20.4365 82.97 20.4544C82.9262 20.4723 82.8793 20.4813 82.832 20.4809Z" fill="#263238"/>
<path opacity="0.6" d="M82.832 20.4809C82.737 20.4809 82.6458 20.4432 82.5786 20.376C82.5114 20.3088 82.4736 20.2176 82.4736 20.1225V19.2061H83.193V20.1225C83.193 20.1698 83.1836 20.2166 83.1655 20.2603C83.1473 20.3039 83.1207 20.3436 83.0871 20.3769C83.0536 20.4102 83.0137 20.4365 82.97 20.4544C82.9262 20.4723 82.8793 20.4813 82.832 20.4809Z" fill="white"/>
<path d="M81.1885 15.8119V13.7127C81.1885 13.6217 81.1524 13.5344 81.088 13.4701C81.0237 13.4058 80.9364 13.3696 80.8455 13.3696C80.7543 13.3696 80.6667 13.4057 80.602 13.4699C80.5373 13.5342 80.5005 13.6215 80.4999 13.7127V15.8119C80.4325 15.8698 80.3808 15.9437 80.3495 16.0268C80.3182 16.11 80.3083 16.1996 80.3207 16.2876C80.3331 16.3755 80.3674 16.4589 80.4205 16.5301C80.4736 16.6014 80.5437 16.6581 80.6244 16.6952C80.7051 16.7322 80.7938 16.7484 80.8824 16.7422C80.971 16.736 81.0567 16.7076 81.1314 16.6597C81.2062 16.6118 81.2677 16.5458 81.3104 16.4679C81.353 16.39 81.3754 16.3026 81.3754 16.2138C81.3763 16.1371 81.36 16.0611 81.3277 15.9916C81.2953 15.922 81.2478 15.8606 81.1885 15.8119Z" fill="#263238"/>
<path d="M81.744 15.7324L81.6902 16.0499C81.6829 16.0951 81.6846 16.1413 81.6952 16.1859C81.7058 16.2304 81.7251 16.2725 81.752 16.3096C81.7789 16.3467 81.8128 16.3781 81.8518 16.4021C81.8909 16.426 81.9343 16.4421 81.9795 16.4492L83.5718 16.6873C83.6703 16.702 83.7705 16.6771 83.8506 16.6181C83.9307 16.5591 83.9842 16.4708 83.9994 16.3724L84.0429 16.0678L81.744 15.7324Z" fill="#263238"/>
<path opacity="0.6" d="M81.1885 15.8119V13.7127C81.1885 13.6217 81.1524 13.5344 81.088 13.4701C81.0237 13.4058 80.9364 13.3696 80.8455 13.3696C80.7543 13.3696 80.6667 13.4057 80.602 13.4699C80.5373 13.5342 80.5005 13.6215 80.4999 13.7127V15.8119C80.4325 15.8698 80.3808 15.9437 80.3495 16.0268C80.3182 16.11 80.3083 16.1996 80.3207 16.2876C80.3331 16.3755 80.3674 16.4589 80.4205 16.5301C80.4736 16.6014 80.5437 16.6581 80.6244 16.6952C80.7051 16.7322 80.7938 16.7484 80.8824 16.7422C80.971 16.736 81.0567 16.7076 81.1314 16.6597C81.2062 16.6118 81.2677 16.5458 81.3104 16.4679C81.353 16.39 81.3754 16.3026 81.3754 16.2138C81.3763 16.1371 81.36 16.0611 81.3277 15.9916C81.2953 15.922 81.2478 15.8606 81.1885 15.8119Z" fill="white"/>
<path opacity="0.2" d="M80.8326 16.4131C80.9288 16.4131 81.0067 16.3352 81.0067 16.239C81.0067 16.1429 80.9288 16.0649 80.8326 16.0649C80.7365 16.0649 80.6586 16.1429 80.6586 16.239C80.6586 16.3352 80.7365 16.4131 80.8326 16.4131Z" fill="white"/>
<path opacity="0.2" d="M85.4868 18.894C85.5914 18.894 85.6762 18.8092 85.6762 18.7046C85.6762 18.6 85.5914 18.5151 85.4868 18.5151C85.3822 18.5151 85.2974 18.6 85.2974 18.7046C85.2974 18.8092 85.3822 18.894 85.4868 18.894Z" fill="white"/>
<path d="M86.3035 22.0786H71.9137V23.0361H86.3035V22.0786Z" fill="#0F32EB"/>
<path opacity="0.2" d="M86.3035 22.0786H71.9137V23.0361H86.3035V22.0786Z" fill="black"/>
<path opacity="0.2" d="M86.3035 22.5571H71.9137V23.0358H86.3035V22.5571Z" fill="black"/>
<path d="M86.3931 22.002H82.1537C82.059 22.002 81.9822 22.0787 81.9822 22.1735V22.9389C81.9822 23.0336 82.059 23.1104 82.1537 23.1104H86.3931C86.4878 23.1104 86.5646 23.0336 86.5646 22.9389V22.1735C86.5646 22.0787 86.4878 22.002 86.3931 22.002Z" fill="#263238"/>
<path d="M55.0789 -0.126923H44.5829C43.8531 -0.126923 43.1531 0.16302 42.637 0.67912C42.1209 1.19522 41.8309 1.8952 41.8309 2.62508V13.1211C41.8309 13.851 42.1209 14.5509 42.637 15.067C43.1531 15.5831 43.8531 15.8731 44.5829 15.8731H48.6508L49.8309 21.9096L51.0239 15.8705H55.0917C55.8216 15.8705 56.5216 15.5806 57.0377 15.0645C57.5538 14.5484 57.8437 13.8484 57.8437 13.1185V2.62251C57.8434 2.26025 57.7716 1.90162 57.6323 1.56719C57.493 1.23276 57.2891 0.929118 57.0323 0.673674C56.7754 0.418231 56.4706 0.216018 56.1354 0.0786314C55.8002 -0.0587548 55.4412 -0.128608 55.0789 -0.126923Z" fill="#0F32EB"/>
<path opacity="0.7" d="M55.0789 -0.126923H44.5829C43.8531 -0.126923 43.1531 0.16302 42.637 0.67912C42.1209 1.19522 41.8309 1.8952 41.8309 2.62508V13.1211C41.8309 13.851 42.1209 14.5509 42.637 15.067C43.1531 15.5831 43.8531 15.8731 44.5829 15.8731H48.6508L49.8309 21.9096L51.0239 15.8705H55.0917C55.8216 15.8705 56.5216 15.5806 57.0377 15.0645C57.5538 14.5484 57.8437 13.8484 57.8437 13.1185V2.62251C57.8434 2.26025 57.7716 1.90162 57.6323 1.56719C57.493 1.23276 57.2891 0.929118 57.0323 0.673674C56.7754 0.418231 56.4706 0.216018 56.1354 0.0786314C55.8002 -0.0587548 55.4412 -0.128608 55.0789 -0.126923Z" fill="white"/>
<path d="M54.2934 0.959614L42.3887 4.15616C41.807 4.31235 41.4621 4.91052 41.6183 5.49222L43.6504 13.0603C43.8066 13.642 44.4047 13.9869 44.9864 13.8307L56.8911 10.6342C57.4728 10.478 57.8178 9.87984 57.6616 9.29814L55.6295 1.73006C55.4733 1.14836 54.8751 0.803423 54.2934 0.959614Z" fill="#263238"/>
<path opacity="0.2" d="M54.2934 0.959614L42.3887 4.15616C41.807 4.31235 41.4621 4.91052 41.6183 5.49222L43.6504 13.0603C43.8066 13.642 44.4047 13.9869 44.9864 13.8307L56.8911 10.6342C57.4728 10.478 57.8178 9.87984 57.6616 9.29814L55.6295 1.73006C55.4733 1.14836 54.8751 0.803423 54.2934 0.959614Z" fill="white"/>
<path d="M54.5667 1.81884L42.5829 5.03662L44.7132 12.9706L56.6971 9.75284L54.5667 1.81884Z" fill="#263238"/>
<path d="M54.333 2.32339L43.0389 5.35596L44.8128 11.9623L56.1068 8.9297L54.333 2.32339Z" fill="#0F32EB"/>
<path opacity="0.2" d="M54.3312 2.3265L43.0397 5.3584L44.8129 11.9622L56.1044 8.93034L54.3312 2.3265Z" fill="white"/>
<path opacity="0.4" d="M55.1148 5.24664L49.9257 6.80312L51.1186 10.2719L49.1756 10.7916L48.5484 7.2204L44.4396 8.45432L44.1298 9.42456L43.7305 7.94232L43.9174 7.886L45.0309 4.82424L45.6454 4.6604L44.6956 7.65048L48.4281 6.52664L47.9929 4.03064L48.8914 3.79L49.2396 4.80632L51.7228 4.0332L51.2594 3.15256L51.6742 3.04248L52.4959 4.06648L49.3369 5.08792L49.7004 6.1452L54.933 4.57336L55.1148 5.24664Z" fill="white"/>
<path d="M55.6319 7.94458C55.6668 8.07465 55.6623 8.21213 55.619 8.33965C55.5758 8.46717 55.4957 8.57901 55.3889 8.66102C55.2821 8.74303 55.1533 8.79152 55.019 8.80039C54.8846 8.80925 54.7506 8.77807 54.634 8.7108C54.5173 8.64353 54.4232 8.54318 54.3636 8.42244C54.304 8.30171 54.2815 8.166 54.299 8.03248C54.3165 7.89896 54.3731 7.77363 54.4618 7.67232C54.5506 7.571 54.6673 7.49827 54.7973 7.4633C54.8837 7.44007 54.9739 7.43409 55.0626 7.44571C55.1513 7.45732 55.2369 7.48631 55.3144 7.531C55.3919 7.5757 55.4598 7.63523 55.5143 7.70619C55.5688 7.77716 55.6087 7.85816 55.6319 7.94458Z" fill="white"/>
<path opacity="0.4" d="M50.7168 10.3793L49.5161 6.41895L43.7587 8.15719L43.8022 8.33639L48.7225 6.96679L49.4879 10.7095L50.7168 10.3793Z" fill="white"/>
<path d="M49.6518 5.09053L48.5766 5.37725L48.4921 5.06749L47.8674 5.88157L48.8172 6.27581L48.7353 5.96606L49.8105 5.67677C49.8226 5.67328 49.8353 5.67224 49.8478 5.67371C49.8603 5.67518 49.8724 5.67913 49.8833 5.68532C49.8943 5.69152 49.9039 5.69984 49.9116 5.70981C49.9193 5.71977 49.925 5.73116 49.9282 5.74333L50.3225 7.21277L50.9087 7.05661L50.5119 5.58717C50.4881 5.49802 50.447 5.41444 50.3909 5.3412C50.3348 5.26797 50.2648 5.20652 50.1849 5.16039C50.105 5.11426 50.0168 5.08434 49.9253 5.07235C49.8338 5.06036 49.7408 5.06654 49.6518 5.09053Z" fill="white"/>
<path d="M49.7059 3.89815L47.8318 4.40137L47.9666 4.90327L49.8406 4.40005L49.7059 3.89815Z" fill="#263238"/>
<path d="M49.8233 9.2915L50.7423 9.84191L49.2191 10.2515L49.8233 9.2915Z" fill="#263238"/>
<path d="M28.1837 10.2642H17.6877C17.3264 10.2628 16.9684 10.3327 16.6341 10.4698C16.2999 10.6069 15.9959 10.8085 15.7396 11.0631C15.4833 11.3178 15.2797 11.6204 15.1404 11.9538C15.0012 12.2871 14.929 12.6447 14.928 13.0059V23.5019C14.9276 23.8632 14.9985 24.221 15.1365 24.5549C15.2746 24.8888 15.477 25.1922 15.7324 25.4477C15.9877 25.7033 16.2909 25.9061 16.6247 26.0444C16.9584 26.1827 17.3161 26.2539 17.6774 26.2539H23.9878L28.752 29.4642L26.5939 26.2591H28.176C28.5373 26.2591 28.895 26.1879 29.2287 26.0495C29.5625 25.9112 29.8657 25.7084 30.121 25.4529C30.3764 25.1973 30.5788 24.8939 30.7169 24.56C30.8549 24.2261 30.9258 23.8683 30.9254 23.5071V13.0111C30.9247 12.2836 30.6358 11.5861 30.1219 11.0713C29.6081 10.5564 28.9111 10.2662 28.1837 10.2642Z" fill="#0F32EB"/>
<path opacity="0.7" d="M28.1837 10.2642H17.6877C17.3264 10.2628 16.9684 10.3327 16.6341 10.4698C16.2999 10.6069 15.9959 10.8085 15.7396 11.0631C15.4833 11.3178 15.2797 11.6204 15.1404 11.9538C15.0012 12.2871 14.929 12.6447 14.928 13.0059V23.5019C14.9276 23.8632 14.9985 24.221 15.1365 24.5549C15.2746 24.8888 15.477 25.1922 15.7324 25.4477C15.9877 25.7033 16.2909 25.9061 16.6247 26.0444C16.9584 26.1827 17.3161 26.2539 17.6774 26.2539H23.9878L28.752 29.4642L26.5939 26.2591H28.176C28.5373 26.2591 28.895 26.1879 29.2287 26.0495C29.5625 25.9112 29.8657 25.7084 30.121 25.4529C30.3764 25.1973 30.5788 24.8939 30.7169 24.56C30.8549 24.2261 30.9258 23.8683 30.9254 23.5071V13.0111C30.9247 12.2836 30.6358 11.5861 30.1219 11.0713C29.6081 10.5564 28.9111 10.2662 28.1837 10.2642Z" fill="white"/>
<path d="M28.9184 13.6152H19.9584C18.128 13.6152 16.6432 15.5327 16.6432 17.9007C16.6432 20.2687 18.128 22.1887 19.9584 22.1887H28.9184C30.7513 22.1887 32.2464 20.2687 32.2464 17.9007C32.2464 15.5327 30.7513 13.6152 28.9184 13.6152Z" fill="#263238"/>
<path opacity="0.2" d="M32.2362 17.9008C32.2367 18.3126 32.1903 18.7232 32.098 19.1245C31.691 20.896 30.4212 22.1965 28.9185 22.1965H19.9585C18.1255 22.1965 16.6305 20.2765 16.6305 17.9085C16.6138 16.8188 16.9556 15.7539 17.6033 14.8774C17.8709 14.5016 18.2218 14.1928 18.6286 13.9752C19.0354 13.7576 19.4871 13.6371 19.9482 13.623H28.9082C30.4135 13.623 31.6833 14.903 32.0877 16.695C32.1824 17.0901 32.2322 17.4946 32.2362 17.9008Z" fill="white"/>
<path opacity="0.2" d="M19.9533 22.1861C21.7842 22.1861 23.2685 20.2675 23.2685 17.9007C23.2685 15.5339 21.7842 13.6152 19.9533 13.6152C18.1223 13.6152 16.6381 15.5339 16.6381 17.9007C16.6381 20.2675 18.1223 22.1861 19.9533 22.1861Z" fill="white"/>
<path d="M19.7511 21.6769C18.2151 21.6769 16.9351 19.9822 16.9351 17.9009C16.9351 15.8196 18.1946 14.1274 19.7511 14.1274C21.3075 14.1274 22.5543 15.8196 22.5543 17.9009C22.5543 19.9822 21.2973 21.6769 19.7511 21.6769Z" fill="#263238"/>
<g opacity="0.2">
<path d="M20.3424 19.9179C19.4976 19.9179 18.8064 19.0142 18.8064 17.9006C18.8064 16.787 19.495 15.8833 20.3424 15.8833C21.1898 15.8833 21.8784 16.787 21.8784 17.9006C21.8784 19.0142 21.1872 19.9179 20.3424 19.9179ZM20.3424 16.1393C19.6384 16.1393 19.0624 16.9303 19.0624 17.9006C19.0624 18.8708 19.6358 19.6619 20.3424 19.6619C21.049 19.6619 21.6224 18.8734 21.6224 17.9006C21.6224 16.9278 21.0464 16.1521 20.3424 16.1521V16.1393Z" fill="black"/>
</g>
<path d="M20.4345 16.9458H17.9155C17.8553 16.9469 17.7965 16.9267 17.7497 16.8888C17.7029 16.8509 17.6709 16.7976 17.6595 16.7385L17.4035 15.4738C17.3899 15.4059 17.4039 15.3354 17.4423 15.2778C17.4807 15.2202 17.5404 15.1802 17.6083 15.1666C17.6762 15.153 17.7467 15.167 17.8043 15.2054C17.8619 15.2438 17.9019 15.3035 17.9155 15.3714L18.128 16.4338H20.3321L21.6608 15.0898C21.7087 15.0416 21.7737 15.0144 21.8416 15.0142C21.9096 15.0139 21.9748 15.0407 22.023 15.0885C22.0712 15.1364 22.0985 15.2015 22.0987 15.2694C22.0989 15.3373 22.0722 15.4026 22.0243 15.4508L20.6189 16.869C20.5949 16.8935 20.5662 16.9129 20.5345 16.9261C20.5028 16.9393 20.4688 16.946 20.4345 16.9458Z" fill="#263238"/>
<path d="M21.84 20.7856C21.8063 20.7858 21.7729 20.7794 21.7417 20.7666C21.7105 20.7539 21.6821 20.7351 21.6582 20.7114L20.3296 19.37H18.1254L17.9129 20.4298C17.8994 20.4977 17.8594 20.5574 17.8018 20.5958C17.7441 20.6342 17.6736 20.6482 17.6057 20.6346C17.5378 20.621 17.4781 20.581 17.4397 20.5234C17.4013 20.4658 17.3874 20.3953 17.4009 20.3274L17.6569 19.0628C17.6689 19.0041 17.7011 18.9514 17.7479 18.914C17.7946 18.8766 17.8531 18.8568 17.9129 18.858H20.432C20.4657 18.8578 20.4991 18.8642 20.5303 18.877C20.5615 18.8897 20.5898 18.9085 20.6137 18.9322L22.0192 20.3504C22.0432 20.3742 22.0622 20.4026 22.0752 20.4337C22.0882 20.4649 22.0949 20.4984 22.0949 20.5322C22.0949 20.566 22.0882 20.5995 22.0752 20.6307C22.0622 20.6618 22.0432 20.6902 22.0192 20.714C21.9711 20.7603 21.9068 20.786 21.84 20.7856Z" fill="#263238"/>
<g opacity="0.4">
<path d="M20.4341 16.9458H17.915C17.8548 16.9469 17.7961 16.9267 17.7492 16.8888C17.7024 16.8509 17.6705 16.7976 17.659 16.7385L17.403 15.4738C17.3894 15.4059 17.4034 15.3354 17.4418 15.2778C17.4802 15.2202 17.5399 15.1802 17.6078 15.1666C17.6757 15.153 17.7462 15.167 17.8038 15.2054C17.8614 15.2438 17.9014 15.3035 17.915 15.3714L18.1275 16.4338H20.3317L21.6603 15.0898C21.7082 15.0416 21.7732 15.0144 21.8412 15.0142C21.9091 15.0139 21.9743 15.0407 22.0225 15.0885C22.0707 15.1364 22.098 15.2015 22.0982 15.2694C22.0984 15.3373 22.0717 15.4026 22.0238 15.4508L20.6184 16.869C20.5944 16.8935 20.5657 16.9129 20.534 16.9261C20.5024 16.9393 20.4684 16.946 20.4341 16.9458Z" fill="white"/>
<path d="M21.84 20.7856C21.8063 20.7858 21.7729 20.7794 21.7417 20.7666C21.7105 20.7539 21.6821 20.7351 21.6582 20.7114L20.3296 19.37H18.1254L17.9129 20.4298C17.8994 20.4977 17.8594 20.5574 17.8018 20.5958C17.7441 20.6342 17.6736 20.6482 17.6057 20.6346C17.5378 20.621 17.4781 20.581 17.4397 20.5234C17.4013 20.4658 17.3874 20.3953 17.4009 20.3274L17.6569 19.0628C17.6689 19.0041 17.7011 18.9514 17.7479 18.914C17.7946 18.8766 17.8531 18.8568 17.9129 18.858H20.432C20.4657 18.8578 20.4991 18.8642 20.5303 18.877C20.5615 18.8897 20.5898 18.9085 20.6137 18.9322L22.0192 20.3504C22.0432 20.3742 22.0622 20.4026 22.0752 20.4337C22.0882 20.4649 22.0949 20.4984 22.0949 20.5322C22.0949 20.566 22.0882 20.5995 22.0752 20.6307C22.0622 20.6618 22.0432 20.6902 22.0192 20.714C21.9711 20.7603 21.9068 20.786 21.84 20.7856Z" fill="white"/>
</g>
<path opacity="0.2" d="M32.2362 17.9008C32.2367 18.3126 32.1903 18.7232 32.098 19.1245H24.7431C24.4185 19.1245 24.1073 18.9956 23.8778 18.7661C23.6483 18.5366 23.5194 18.2253 23.5194 17.9008C23.5201 17.5767 23.6493 17.2661 23.8787 17.0372C24.1081 16.8083 24.419 16.6797 24.7431 16.6797H32.098C32.1903 17.0802 32.2367 17.4898 32.2362 17.9008Z" fill="black"/>
<g opacity="0.2">
<path d="M25.2935 18.3921L25.3575 18.2129C25.4497 18.298 25.5699 18.3463 25.6954 18.3486C25.8541 18.3486 25.9207 18.2795 25.9207 18.1873C25.9207 17.9313 25.3139 18.0952 25.3139 17.6318C25.3123 17.5791 25.3223 17.5266 25.343 17.478C25.3637 17.4295 25.3948 17.3861 25.434 17.3507C25.4732 17.3154 25.5197 17.289 25.5701 17.2735C25.6206 17.2579 25.6738 17.2535 25.7261 17.2606C25.8478 17.2589 25.9666 17.2976 26.064 17.3707L26.0051 17.5499C25.9238 17.4888 25.8253 17.4548 25.7235 17.4526C25.5674 17.4526 25.5034 17.5269 25.5034 17.6216C25.5034 17.8776 26.1075 17.7137 26.1075 18.172C26.1087 18.2246 26.0985 18.2769 26.0776 18.3252C26.0567 18.3735 26.0257 18.4168 25.9865 18.452C25.9474 18.4873 25.9011 18.5137 25.8509 18.5294C25.8007 18.5451 25.7476 18.5498 25.6954 18.5432C25.5469 18.5465 25.403 18.4924 25.2935 18.3921Z" fill="white"/>
<path d="M26.4889 17.4729H26.151V17.2783H27.0163V17.4729H26.6784V18.525H26.4889V17.4729Z" fill="white"/>
<path d="M27.9251 18.3305V18.525H27.1571V17.2783H27.9021V17.4703H27.3465V17.7954H27.8381V17.9849H27.3465V18.3305H27.9251Z" fill="white"/>
<path d="M28.8032 18.525L28.5958 18.159H28.3398V18.5225H28.1504V17.2783H28.5702C28.6674 17.2818 28.7609 17.3166 28.8367 17.3775C28.9125 17.4385 28.9665 17.5223 28.9907 17.6165C29.0149 17.7107 29.0079 17.8102 28.9709 17.9001C28.9339 17.99 28.8688 18.0656 28.7853 18.1154L29.0208 18.525H28.8032ZM28.5472 17.4729H28.327V17.9695H28.5472C28.5849 17.979 28.6243 17.9797 28.6624 17.9717C28.7005 17.9636 28.7362 17.947 28.7669 17.923C28.7976 17.8991 28.8224 17.8685 28.8395 17.8335C28.8566 17.7985 28.8654 17.7601 28.8654 17.7212C28.8654 17.6823 28.8566 17.6439 28.8395 17.6089C28.8224 17.5739 28.7976 17.5433 28.7669 17.5194C28.7362 17.4954 28.7005 17.4788 28.6624 17.4707C28.6243 17.4627 28.5849 17.4634 28.5472 17.4729Z" fill="white"/>
<path d="M29.9681 18.3305V18.525H29.2001V17.2783H29.945V17.4703H29.3921V17.7954H29.8862V17.9849H29.3921V18.3305H29.9681Z" fill="white"/>
<path d="M30.1037 17.9006C30.1203 17.7957 30.1667 17.6978 30.2372 17.6185C30.3078 17.5391 30.3996 17.4817 30.5018 17.4529C30.6041 17.4241 30.7124 17.4253 30.814 17.4562C30.9156 17.4871 31.0062 17.5464 31.0751 17.6272C31.144 17.708 31.1883 17.8069 31.2027 17.9121C31.2171 18.0173 31.2011 18.1244 31.1566 18.2208C31.112 18.3172 31.0407 18.3988 30.9512 18.4559C30.8617 18.513 30.7577 18.5433 30.6515 18.5432C30.5726 18.5391 30.4953 18.519 30.4244 18.484C30.3535 18.449 30.2905 18.4 30.2392 18.3398C30.188 18.2797 30.1495 18.2097 30.1262 18.1342C30.1029 18.0587 30.0952 17.9792 30.1037 17.9006ZM31.0099 17.9006C30.9963 17.8326 30.9637 17.7698 30.9158 17.7196C30.868 17.6694 30.8068 17.6339 30.7395 17.6171C30.6722 17.6003 30.6016 17.603 30.5357 17.6248C30.4699 17.6466 30.4116 17.6867 30.3677 17.7404C30.3237 17.794 30.2959 17.8591 30.2875 17.9279C30.2791 17.9968 30.2905 18.0666 30.3202 18.1293C30.35 18.1919 30.3969 18.2448 30.4555 18.2819C30.5142 18.3189 30.5822 18.3385 30.6515 18.3384C30.7042 18.3343 30.7555 18.3195 30.8024 18.2951C30.8493 18.2706 30.8907 18.2369 30.9242 18.196C30.9577 18.1551 30.9825 18.1078 30.9973 18.0571C31.012 18.0063 31.0163 17.9531 31.0099 17.9006Z" fill="white"/>
</g>
<path d="M14.5927 23.3201C14.5755 23.3201 14.5586 23.3159 14.5434 23.3079C14.5282 23.2998 14.5153 23.2882 14.5056 23.274C12.3552 20.3121 12.3552 15.4942 14.5056 12.522C14.5138 12.5103 14.5242 12.5004 14.5362 12.4927C14.5483 12.4851 14.5617 12.48 14.5758 12.4776C14.5898 12.4752 14.6042 12.4756 14.6181 12.4789C14.632 12.4821 14.6451 12.4881 14.6567 12.4964C14.6799 12.5138 14.6955 12.5395 14.7003 12.5681C14.705 12.5967 14.6986 12.626 14.6823 12.65C12.5831 15.5402 12.5831 20.2455 14.6823 23.146C14.694 23.1625 14.701 23.1818 14.7025 23.202C14.704 23.2222 14.6998 23.2424 14.6906 23.2604C14.6813 23.2784 14.6673 23.2935 14.65 23.304C14.6327 23.3145 14.6129 23.3201 14.5927 23.3201Z" fill="#0F32EB"/>
<path d="M15.5066 22.4164C15.4894 22.4161 15.4724 22.4121 15.457 22.4046C15.4415 22.3971 15.4278 22.3863 15.417 22.3729C13.625 19.9102 13.625 15.9012 15.417 13.4385C15.4344 13.4151 15.4603 13.3996 15.489 13.3953C15.5178 13.3909 15.5472 13.3982 15.5706 13.4154C15.5821 13.4238 15.5918 13.4344 15.5992 13.4465C15.6066 13.4586 15.6115 13.4721 15.6136 13.4862C15.6158 13.5002 15.6151 13.5145 15.6117 13.5283C15.6082 13.5421 15.6021 13.5551 15.5936 13.5665C13.858 15.9601 13.858 19.8513 15.5936 22.2449C15.6021 22.2563 15.6082 22.2693 15.6117 22.2831C15.6151 22.2968 15.6158 22.3112 15.6136 22.3252C15.6115 22.3393 15.6066 22.3527 15.5992 22.3649C15.5918 22.377 15.5821 22.3876 15.5706 22.3959C15.5523 22.4099 15.5297 22.4172 15.5066 22.4164Z" fill="#0F32EB"/>
<path d="M16.4205 21.513C16.403 21.5128 16.3858 21.5085 16.3703 21.5005C16.3547 21.4925 16.3412 21.481 16.3309 21.4669C14.905 19.5034 14.905 16.3085 16.3309 14.345C16.3483 14.3217 16.374 14.3061 16.4026 14.3013C16.4312 14.2966 16.4605 14.303 16.4845 14.3194C16.5079 14.3367 16.5234 14.3626 16.5277 14.3914C16.5321 14.4202 16.5248 14.4495 16.5076 14.473C15.1328 16.3648 15.1328 19.447 16.5076 21.3389C16.5248 21.3623 16.5321 21.3916 16.5277 21.4204C16.5234 21.4492 16.5079 21.4751 16.4845 21.4925C16.4654 21.505 16.4433 21.5121 16.4205 21.513Z" fill="#0F32EB"/>
<g opacity="0.4">
<path d="M14.5927 23.3201C14.5755 23.3201 14.5586 23.3159 14.5434 23.3079C14.5282 23.2998 14.5153 23.2882 14.5056 23.274C12.3552 20.3121 12.3552 15.4942 14.5056 12.522C14.5138 12.5103 14.5242 12.5004 14.5362 12.4927C14.5483 12.4851 14.5617 12.48 14.5758 12.4776C14.5898 12.4752 14.6042 12.4756 14.6181 12.4789C14.632 12.4821 14.6451 12.4881 14.6567 12.4964C14.6799 12.5138 14.6955 12.5395 14.7003 12.5681C14.705 12.5967 14.6986 12.626 14.6823 12.65C12.5831 15.5402 12.5831 20.2455 14.6823 23.146C14.694 23.1625 14.701 23.1818 14.7025 23.202C14.704 23.2222 14.6998 23.2424 14.6906 23.2604C14.6813 23.2784 14.6673 23.2935 14.65 23.304C14.6327 23.3145 14.6129 23.3201 14.5927 23.3201Z" fill="white"/>
</g>
<g opacity="0.4">
<path d="M15.5066 22.4164C15.4894 22.4161 15.4724 22.4121 15.457 22.4046C15.4415 22.3971 15.4278 22.3863 15.417 22.3729C13.625 19.9102 13.625 15.9012 15.417 13.4385C15.4344 13.4151 15.4603 13.3996 15.489 13.3953C15.5178 13.3909 15.5472 13.3982 15.5706 13.4154C15.5821 13.4238 15.5918 13.4344 15.5992 13.4465C15.6066 13.4586 15.6115 13.4721 15.6136 13.4862C15.6158 13.5002 15.6151 13.5145 15.6117 13.5283C15.6082 13.5421 15.6021 13.5551 15.5936 13.5665C13.858 15.9601 13.858 19.8513 15.5936 22.2449C15.6021 22.2563 15.6082 22.2693 15.6117 22.2831C15.6151 22.2968 15.6158 22.3112 15.6136 22.3252C15.6115 22.3393 15.6066 22.3527 15.5992 22.3649C15.5918 22.377 15.5821 22.3876 15.5706 22.3959C15.5523 22.4099 15.5297 22.4172 15.5066 22.4164Z" fill="white"/>
</g>
<g opacity="0.4">
<path d="M16.4205 21.513C16.403 21.5128 16.3858 21.5085 16.3703 21.5005C16.3547 21.4925 16.3412 21.481 16.3309 21.4669C14.905 19.5034 14.905 16.3085 16.3309 14.345C16.3483 14.3217 16.374 14.3061 16.4026 14.3013C16.4312 14.2966 16.4605 14.303 16.4845 14.3194C16.5079 14.3367 16.5234 14.3626 16.5277 14.3914C16.5321 14.4202 16.5248 14.4495 16.5076 14.473C15.1328 16.3648 15.1328 19.447 16.5076 21.3389C16.5248 21.3623 16.5321 21.3916 16.5277 21.4204C16.5234 21.4492 16.5079 21.4751 16.4845 21.4925C16.4654 21.505 16.4433 21.5121 16.4205 21.513Z" fill="white"/>
</g>
<path d="M23.7037 46.0018L17.6698 44.8242V40.7564C17.6698 40.0283 17.3813 39.3299 16.8674 38.8141C16.3535 38.2982 15.6562 38.0071 14.9281 38.0044H4.43205C3.70218 38.0044 3.0022 38.2943 2.4861 38.8104C1.97 39.3265 1.68005 40.0265 1.68005 40.7564V51.2524C1.68141 51.9816 1.97187 52.6806 2.48775 53.196C3.00363 53.7114 3.70283 54.0012 4.43205 54.0018H14.9281C15.6579 54.0018 16.3579 53.7119 16.874 53.1958C17.3901 52.6797 17.6801 51.9797 17.6801 51.2498V47.182L23.7037 46.0018Z" fill="#0F32EB"/>
<path opacity="0.7" d="M23.7037 46.0018L17.6698 44.8242V40.7564C17.6698 40.0283 17.3813 39.3299 16.8674 38.8141C16.3535 38.2982 15.6562 38.0071 14.9281 38.0044H4.43205C3.70218 38.0044 3.0022 38.2943 2.4861 38.8104C1.97 39.3265 1.68005 40.0265 1.68005 40.7564V51.2524C1.68141 51.9816 1.97187 52.6806 2.48775 53.196C3.00363 53.7114 3.70283 54.0012 4.43205 54.0018H14.9281C15.6579 54.0018 16.3579 53.7119 16.874 53.1958C17.3901 52.6797 17.6801 51.9797 17.6801 51.2498V47.182L23.7037 46.0018Z" fill="white"/>
<path d="M8.58185 49.852C8.59882 49.8798 8.6078 49.9117 8.6078 49.9442C8.6078 49.9767 8.59882 50.0086 8.58185 50.0363L7.79849 51.1909C7.77013 51.2301 7.728 51.2572 7.68053 51.2667C7.63306 51.2762 7.58375 51.2674 7.54249 51.2421L3.58217 48.5592C3.54335 48.5305 3.51678 48.4882 3.50777 48.4407C3.49875 48.3933 3.50795 48.3442 3.53353 48.3032L4.31689 47.1512C4.3363 47.1251 4.36189 47.1041 4.39138 47.0903C4.42086 47.0764 4.45332 47.0701 4.48585 47.0719C4.47526 47.0358 4.47275 46.9978 4.4785 46.9606C4.48425 46.9235 4.49812 46.888 4.51913 46.8568L9.78249 39.1154C9.96668 38.8445 10.2353 38.6422 10.5464 38.5399C10.8576 38.4375 11.1938 38.441 11.5028 38.5496L12.0609 38.7442C12.1073 38.7589 12.1571 38.7584 12.2032 38.7427C12.2493 38.7271 12.2891 38.6971 12.3169 38.6571L13.1002 37.5103L14.2727 38.309L13.5047 39.4559C13.4761 39.4981 13.4623 39.5487 13.4655 39.5997C13.4688 39.6507 13.4889 39.6991 13.5226 39.7375L13.9092 40.1829C14.1245 40.4303 14.2519 40.7421 14.2713 41.0695C14.2908 41.397 14.2012 41.7216 14.0167 41.9928L8.78409 49.7419C8.76132 49.7748 8.73116 49.8019 8.69604 49.821C8.66092 49.8401 8.62181 49.8507 8.58185 49.852Z" fill="#0F32EB"/>
<path opacity="0.4" d="M10.6656 42.6966L8.31554 46.1474C8.29419 46.1792 8.26673 46.2065 8.23477 46.2276C8.20281 46.2487 8.16698 46.2632 8.12935 46.2704C8.09172 46.2775 8.05305 46.2771 8.01558 46.2692C7.97811 46.2613 7.94258 46.246 7.91106 46.2242L5.88098 44.8444L8.55874 40.9097L10.576 42.2895C10.6087 42.3103 10.6369 42.3374 10.6591 42.3691C10.6812 42.4008 10.6969 42.4366 10.7052 42.4744C10.7136 42.5123 10.7144 42.5513 10.7076 42.5894C10.7008 42.6276 10.6865 42.664 10.6656 42.6966Z" fill="white"/>
<path d="M13.9195 40.1878C13.2743 39.7423 11.6692 38.6364 11.5156 38.5545L12.0737 38.7491C12.1201 38.7638 12.1699 38.7633 12.216 38.7476C12.2621 38.732 12.3019 38.702 12.3297 38.662L13.1131 37.5151L14.2855 38.3139L13.5175 39.4607C13.4889 39.503 13.4751 39.5536 13.4784 39.6046C13.4816 39.6556 13.5017 39.704 13.5355 39.7423L13.9195 40.1878Z" fill="#0F32EB"/>
<path opacity="0.4" d="M13.9195 40.1878C13.2743 39.7423 11.6692 38.6364 11.5156 38.5545L12.0737 38.7491C12.1201 38.7638 12.1699 38.7633 12.216 38.7476C12.2621 38.732 12.3019 38.702 12.3297 38.662L13.1131 37.5151L14.2855 38.3139L13.5175 39.4607C13.4889 39.503 13.4751 39.5536 13.4784 39.6046C13.4816 39.6556 13.5017 39.704 13.5355 39.7423L13.9195 40.1878Z" fill="black"/>
<path d="M13.0208 38.46L11.193 37.6254L11.9687 36.4888L13.4125 37.884L13.0208 38.46Z" fill="#0F32EB"/>
<path opacity="0.4" d="M13.0208 38.46L11.193 37.6254L11.9687 36.4888L13.4125 37.884L13.0208 38.46Z" fill="white"/>
<path d="M14.2778 38.8928C14.1629 39.0587 14.0014 39.187 13.8138 39.2614C13.6262 39.3359 13.4207 39.3532 13.2232 39.3113C13.0258 39.2693 12.8451 39.1699 12.704 39.0256C12.5629 38.8813 12.4675 38.6984 12.43 38.5001C12.3924 38.3017 12.4144 38.0967 12.493 37.9108C12.5716 37.7249 12.7034 37.5663 12.8719 37.4551C13.0404 37.3439 13.2379 37.2849 13.4398 37.2857C13.6417 37.2864 13.8388 37.3468 14.0065 37.4592C14.1192 37.5348 14.2158 37.6321 14.2906 37.7454C14.3655 37.8587 14.417 37.9858 14.4422 38.1192C14.4675 38.2526 14.466 38.3897 14.4377 38.5225C14.4095 38.6553 14.3552 38.7812 14.2778 38.8928Z" fill="#0F32EB"/>
<path d="M13.2717 36.7038L13.5866 36.2405C13.6101 36.2062 13.6426 36.1792 13.6806 36.1625C13.7186 36.1457 13.7606 36.1399 13.8017 36.1458L16.0698 36.453C16.3993 36.4984 16.7138 36.6193 16.9889 36.8062L17.3805 37.0622C17.2751 37.1029 17.1615 37.1177 17.0492 37.1052C16.9369 37.0927 16.8293 37.0534 16.7354 36.9906L16.6177 36.9086C16.4959 36.8251 16.3505 36.7829 16.2029 36.7883L13.3869 36.8856C13.365 36.8869 13.3431 36.8824 13.3235 36.8724C13.304 36.8624 13.2874 36.8473 13.2757 36.8287C13.2639 36.8102 13.2573 36.7888 13.2567 36.7668C13.256 36.7449 13.2612 36.7231 13.2717 36.7038Z" fill="#0F32EB"/>
<path d="M14.498 36.7344L15.9547 39.0384C16.0946 39.2626 16.1616 39.5246 16.1467 39.7884V39.9062L16.0135 40.1008L15.9828 39.8217C15.9551 39.5721 15.8421 39.3397 15.6628 39.1638L14.4161 37.9452L14.0526 38.4803L12.9543 37.7328L13.643 36.7241L14.498 36.7344Z" fill="#0F32EB"/>
<path d="M12.0876 36.4588L11.9479 36.3638L11.0738 37.6485L11.2135 37.7436L12.0876 36.4588Z" fill="#0F32EB"/>
<path opacity="0.2" d="M14.2778 38.8928C14.1629 39.0587 14.0014 39.187 13.8138 39.2614C13.6262 39.3359 13.4207 39.3532 13.2232 39.3113C13.0258 39.2693 12.8451 39.1699 12.704 39.0256C12.5629 38.8813 12.4675 38.6984 12.43 38.5001C12.3924 38.3017 12.4144 38.0967 12.493 37.9108C12.5716 37.7249 12.7034 37.5663 12.8719 37.4551C13.0404 37.3439 13.2379 37.2849 13.4398 37.2857C13.6417 37.2864 13.8388 37.3468 14.0065 37.4592C14.1192 37.5348 14.2158 37.6321 14.2906 37.7454C14.3655 37.8587 14.417 37.9858 14.4422 38.1192C14.4675 38.2526 14.466 38.3897 14.4377 38.5225C14.4095 38.6553 14.3552 38.7812 14.2778 38.8928Z" fill="black"/>
<path opacity="0.2" d="M13.8502 38.6036C13.8124 38.6596 13.7639 38.7076 13.7075 38.7448C13.651 38.7819 13.5878 38.8076 13.5214 38.8202C13.455 38.8328 13.3867 38.8321 13.3206 38.8182C13.2544 38.8044 13.1917 38.7775 13.136 38.7392C13.0527 38.682 12.9881 38.6014 12.9505 38.5076C12.9129 38.4137 12.904 38.3109 12.9247 38.2119C12.9455 38.113 12.9951 38.0225 13.0673 37.9517C13.1395 37.8809 13.231 37.833 13.3303 37.8142C13.4296 37.7953 13.5322 37.8063 13.6253 37.8457C13.7184 37.885 13.7978 37.9511 13.8534 38.0355C13.909 38.12 13.9384 38.2189 13.9378 38.32C13.9372 38.4211 13.9068 38.5198 13.8502 38.6036Z" fill="black"/>
<path opacity="0.4" d="M13.2717 36.7038L13.5866 36.2405C13.6101 36.2062 13.6426 36.1792 13.6806 36.1625C13.7186 36.1457 13.7606 36.1399 13.8017 36.1458L16.0698 36.453C16.3993 36.4984 16.7138 36.6193 16.9889 36.8062L17.3805 37.0622C17.2751 37.1029 17.1615 37.1177 17.0492 37.1052C16.9369 37.0927 16.8293 37.0534 16.7354 36.9906L16.6177 36.9086C16.4959 36.8251 16.3505 36.7829 16.2029 36.7883L13.3869 36.8856C13.365 36.8869 13.3431 36.8824 13.3235 36.8724C13.304 36.8624 13.2874 36.8473 13.2757 36.8287C13.2639 36.8102 13.2573 36.7888 13.2567 36.7668C13.256 36.7449 13.2612 36.7231 13.2717 36.7038Z" fill="white"/>
<path opacity="0.2" d="M7.87273 51.063L7.78569 51.191C7.75733 51.2302 7.7152 51.2573 7.66773 51.2668C7.62026 51.2763 7.57095 51.2675 7.52969 51.2422L3.58217 48.5593C3.54335 48.5306 3.51678 48.4883 3.50777 48.4408C3.49875 48.3934 3.50795 48.3443 3.53353 48.3033L3.62057 48.1753C3.61047 48.1999 3.60902 48.2273 3.61646 48.2528C3.6239 48.2784 3.63978 48.3007 3.66153 48.3161L7.72169 51.0783C7.74372 51.0935 7.77032 51.1004 7.79694 51.0981C7.82356 51.0958 7.84854 51.0843 7.86761 51.0655L7.87273 51.063Z" fill="black"/>
<path opacity="0.2" d="M8.78408 49.724V49.7419C8.76262 49.7731 8.73449 49.7992 8.70173 49.8182C8.66897 49.8373 8.63239 49.8488 8.59464 49.852L4.49864 47.0641C4.48805 47.028 4.48554 46.9901 4.49129 46.9529C4.49704 46.9157 4.51092 46.8803 4.53192 46.8491V46.8286C4.51657 46.8538 4.51122 46.8838 4.5169 46.9127C4.52259 46.9416 4.53891 46.9673 4.56264 46.9848L8.6228 49.747C8.64728 49.7639 8.67743 49.7704 8.70668 49.7651C8.73593 49.7598 8.76191 49.7432 8.77896 49.7189L8.78408 49.724Z" fill="black"/>
<path opacity="0.4" d="M5.29224 46.7392C5.84349 45.8125 6.41181 44.8986 6.9972 43.9974C7.58088 43.0938 8.17992 42.2054 8.7892 41.3094L9.70568 39.9808L9.93864 39.6506L10.0538 39.4842C10.0984 39.4221 10.1481 39.3639 10.2023 39.3101C10.4222 39.0938 10.7182 38.9725 11.0266 38.9722C11.1783 38.972 11.3286 39.0007 11.4695 39.0566C11.5967 39.114 11.7199 39.1798 11.8382 39.2538C12.0755 39.3861 12.3054 39.5314 12.5268 39.689C12.9627 40.0112 13.3704 40.3701 13.7454 40.7616L13.1028 40.2701C12.8878 40.1114 12.665 39.9629 12.4372 39.8272C12.2092 39.6889 11.9742 39.5624 11.7332 39.4483C11.6129 39.392 11.49 39.3229 11.3825 39.2845C11.2706 39.2463 11.1523 39.2306 11.0343 39.2384C10.8883 39.2449 10.7459 39.2862 10.619 39.3588C10.4921 39.4313 10.3844 39.5331 10.3047 39.6557L10.1921 39.8246L9.97192 40.16L9.06312 41.4963C8.45384 42.3846 7.84456 43.2704 7.21736 44.1434C6.59016 45.0163 5.95016 45.8867 5.29224 46.7392Z" fill="white"/>
<path d="M27.9994 60.3379H24.0545C23.0177 60.3379 22.178 63.3152 22.178 66.9939C22.178 70.6726 23.0177 73.6499 24.0545 73.6499H27.9994C29.0362 73.6499 29.8759 70.6726 29.8759 66.9939C29.8759 63.3152 29.0362 60.3379 27.9994 60.3379Z" fill="#263238"/>
<path opacity="0.2" d="M28.2938 60.8086C27.4285 60.8086 26.7271 63.5759 26.7271 66.9884C26.7271 70.4009 27.4285 73.1683 28.2938 73.1683C29.1591 73.1683 29.8605 70.4009 29.8605 66.9884C29.8605 63.5759 29.1591 60.8086 28.2938 60.8086Z" fill="white"/>
<path opacity="0.6" d="M28.4295 63.6479C27.961 63.6479 27.5822 65.143 27.5822 66.9887C27.5822 68.8345 27.961 70.3167 28.4295 70.3167C28.898 70.3167 29.2769 68.8217 29.2769 66.9887C29.2769 65.1558 28.898 63.6479 28.4295 63.6479Z" fill="white"/>
<path opacity="0.6" d="M28.2938 64.1084C27.8919 64.1084 27.5642 65.3884 27.5642 66.9884C27.5642 68.5884 27.8919 69.8684 28.2938 69.8684C28.6957 69.8684 29.026 68.5884 29.026 66.9884C29.026 65.3884 28.6983 64.1084 28.2938 64.1084Z" fill="white"/>
<path d="M27.9482 65.5601C27.746 65.5601 27.5822 66.2052 27.5822 67.0013C27.5822 67.7975 27.746 68.4426 27.9482 68.4426C28.1505 68.4426 28.3143 67.7975 28.3143 67.0013C28.3143 66.2052 28.1505 65.5601 27.9482 65.5601Z" fill="#263238"/>
<path opacity="0.2" d="M28.1274 66.269C28.0276 66.269 27.9457 66.5916 27.9457 66.9884C27.9457 67.3852 28.0276 67.7078 28.1274 67.7078C28.2273 67.7078 28.3092 67.3852 28.3092 66.9884C28.3092 66.5916 28.2401 66.269 28.1274 66.269Z" fill="white"/>
<path d="M39.6347 60.3379H35.6871C34.6503 60.3379 33.8107 63.3152 33.8107 66.9939C33.8107 70.6726 34.6503 73.6499 35.6871 73.6499H39.6347C40.6715 73.6499 41.5111 70.6726 41.5111 66.9939C41.5111 63.3152 40.6715 60.3379 39.6347 60.3379Z" fill="#263238"/>
<path opacity="0.2" d="M39.929 60.8086C39.0637 60.8086 38.3597 63.5759 38.3597 66.9884C38.3597 70.4009 39.0637 73.1683 39.929 73.1683C40.7943 73.1683 41.4957 70.4009 41.4957 66.9884C41.4957 63.5759 40.7841 60.8086 39.929 60.8086Z" fill="white"/>
<path opacity="0.6" d="M40.0646 63.6479C39.5962 63.6479 39.2173 65.143 39.2173 66.9887C39.2173 68.8345 39.5962 70.3167 40.0646 70.3167C40.5331 70.3167 40.912 68.8217 40.912 66.9887C40.912 65.1558 40.528 63.6479 40.0646 63.6479Z" fill="white"/>
<path opacity="0.6" d="M39.9291 64.1084C39.5246 64.1084 39.1969 65.3884 39.1969 66.9884C39.1969 68.5884 39.5246 69.8684 39.9291 69.8684C40.3335 69.8684 40.6587 68.5884 40.6587 66.9884C40.6587 65.3884 40.331 64.1084 39.9291 64.1084Z" fill="white"/>
<path d="M39.5834 65.5601C39.3811 65.5601 39.2173 66.2052 39.2173 67.0013C39.2173 67.7975 39.3811 68.4426 39.5834 68.4426C39.7856 68.4426 39.9469 67.7975 39.9469 67.0013C39.9469 66.2052 39.783 65.5601 39.5834 65.5601Z" fill="#263238"/>
<path opacity="0.2" d="M39.76 66.269C39.6576 66.269 39.5757 66.5916 39.5757 66.9884C39.5757 67.3852 39.6576 67.7078 39.76 67.7078C39.8624 67.7078 39.9418 67.3852 39.9418 66.9884C39.9418 66.5916 39.8624 66.269 39.76 66.269Z" fill="white"/>
<path d="M72.3258 69.0137L71.4656 70.6573H27.9456L26.0256 68.2355L56.6816 54.1401C56.6816 54.1401 72.6919 55.6249 72.6919 55.9321C72.6919 56.2393 72.3258 69.0137 72.3258 69.0137Z" fill="#263238"/>
<path d="M57.954 60.3379H54.0065C52.9825 60.3379 52.13 63.3152 52.13 66.9939C52.13 70.6726 52.9722 73.6499 54.0065 73.6499H57.954C58.9908 73.6499 59.8305 70.6726 59.8305 66.9939C59.8305 63.3152 58.9908 60.3379 57.954 60.3379Z" fill="#263238"/>
<path opacity="0.2" d="M58.2484 60.8086C57.3831 60.8086 56.6816 63.5759 56.6816 66.9884C56.6816 70.4009 57.3831 73.1683 58.2484 73.1683C59.1136 73.1683 59.8151 70.4009 59.8151 66.9884C59.8151 63.5759 59.1136 60.8086 58.2484 60.8086Z" fill="white"/>
<path opacity="0.6" d="M58.3841 63.6479C57.9156 63.6479 57.5367 65.143 57.5367 66.9887C57.5367 68.8345 57.9156 70.3167 58.3841 70.3167C58.8526 70.3167 59.2315 68.8217 59.2315 66.9887C59.2315 65.1558 58.8526 63.6479 58.3841 63.6479Z" fill="white"/>
<path opacity="0.6" d="M58.2484 64.1084C57.8439 64.1084 57.5162 65.3884 57.5162 66.9884C57.5162 68.5884 57.8439 69.8684 58.2484 69.8684C58.6529 69.8684 58.978 68.5884 58.978 66.9884C58.978 65.3884 58.6529 64.1084 58.2484 64.1084Z" fill="white"/>
<path d="M57.9028 65.5601C57.7006 65.5601 57.5367 66.2052 57.5367 67.0013C57.5367 67.7975 57.7006 68.4426 57.9028 68.4426C58.1051 68.4426 58.2663 67.7975 58.2663 67.0013C58.2663 66.2052 58.1051 65.5601 57.9028 65.5601Z" fill="#263238"/>
<path opacity="0.2" d="M58.082 66.269C57.9796 66.269 57.8977 66.5916 57.8977 66.9884C57.8977 67.3852 57.9796 67.7078 58.082 67.7078C58.1844 67.7078 58.2638 67.3852 58.2638 66.9884C58.2638 66.5916 58.1921 66.269 58.082 66.269Z" fill="white"/>
<path d="M69.5891 60.3379H65.6416C64.6048 60.3379 63.7651 63.3152 63.7651 66.9939C63.7651 70.6726 64.6048 73.6499 65.6416 73.6499H69.5891C70.6131 73.6499 71.4656 70.6726 71.4656 66.9939C71.4656 63.3152 70.6234 60.3379 69.5891 60.3379Z" fill="#263238"/>
<path opacity="0.2" d="M69.881 60.8086C69.0158 60.8086 68.3143 63.5759 68.3143 66.9884C68.3143 70.4009 69.0158 73.1683 69.881 73.1683C70.7463 73.1683 71.4503 70.4009 71.4503 66.9884C71.4503 63.5759 70.7489 60.8086 69.881 60.8086Z" fill="white"/>
<path opacity="0.6" d="M70.0167 63.6479C69.5508 63.6479 69.1719 65.143 69.1719 66.9887C69.1719 68.8345 69.5508 70.3167 70.0167 70.3167C70.4826 70.3167 70.864 68.8217 70.864 66.9887C70.864 65.1558 70.48 63.6479 70.0167 63.6479Z" fill="white"/>
<path opacity="0.6" d="M69.881 64.1084C69.479 64.1084 69.1514 65.3884 69.1514 66.9884C69.1514 68.5884 69.479 69.8684 69.881 69.8684C70.2829 69.8684 70.6131 68.5884 70.6131 66.9884C70.6131 65.3884 70.2854 64.1084 69.881 64.1084Z" fill="white"/>
<path d="M69.5354 65.5601C69.3332 65.5601 69.1719 66.2052 69.1719 67.0013C69.1719 67.7975 69.3332 68.4426 69.5354 68.4426C69.7376 68.4426 69.9015 67.7975 69.9015 67.0013C69.9015 66.2052 69.7376 65.5601 69.5354 65.5601Z" fill="#263238"/>
<path opacity="0.2" d="M69.712 66.269C69.6122 66.269 69.5303 66.5916 69.5303 66.9884C69.5303 67.3852 69.6122 67.7078 69.712 67.7078C69.8119 67.7078 69.8964 67.3852 69.8964 66.9884C69.8964 66.5916 69.817 66.269 69.712 66.269Z" fill="white"/>
<path d="M41.7876 63.6504H26.7988V69.8686H41.7876V63.6504Z" fill="#263238"/>
<path d="M41.7876 69.2954H26.7988V70.1223H41.7876V69.2954Z" fill="#0F32EB"/>
<path opacity="0.2" d="M41.7876 69.2954H26.7988V70.1223H41.7876V69.2954Z" fill="black"/>
<path opacity="0.2" d="M41.7876 68.4297H26.7988V68.8111H41.7876V68.4297Z" fill="black"/>
<path opacity="0.2" d="M41.7876 67.4033H26.7988V67.7848H41.7876V67.4033Z" fill="black"/>
<path opacity="0.2" d="M41.7876 66.377H26.7988V66.7584H41.7876V66.377Z" fill="black"/>
<path opacity="0.2" d="M41.7876 65.3501H26.7988V65.7315H41.7876V65.3501Z" fill="black"/>
<path opacity="0.2" d="M41.7876 64.3237H26.7988V64.7052H41.7876V64.3237Z" fill="black"/>
<path opacity="0.2" d="M41.7876 63.2969H26.7988V63.6783H41.7876V63.2969Z" fill="black"/>
<path d="M18.3124 62.7057C18.3124 63.3278 18.3917 64.316 18.489 65.3016C18.5607 66.0209 18.6401 66.7352 18.7066 67.3061C18.7399 67.5902 19.682 68.9368 20.281 69.7713C20.4308 69.9805 20.6283 70.1509 20.8572 70.2684C21.086 70.386 21.3396 70.4473 21.5969 70.4472H26.361C26.5717 70.4473 26.7742 70.3658 26.9261 70.2197C27.0779 70.0736 27.1671 69.8744 27.1751 69.6638L27.2903 66.6968C27.3008 66.4502 27.4059 66.2172 27.5837 66.0461C27.7615 65.8749 27.9984 65.7788 28.2452 65.7777H36.8519C37.0475 65.7761 37.241 65.8182 37.4182 65.901C37.5953 65.9839 37.7517 66.1053 37.8759 66.2565L40.825 69.8686C40.9731 70.051 41.1601 70.198 41.3722 70.299C41.5843 70.4 41.8163 70.4523 42.0513 70.4523H54.7745C54.917 70.4523 55.0581 70.4242 55.1898 70.3697C55.3215 70.3151 55.4412 70.2352 55.542 70.1344C55.6428 70.0336 55.7227 69.9139 55.7773 69.7822C55.8318 69.6506 55.8599 69.5094 55.8599 69.3669V67.2446C56.1031 63.9294 56.9965 60.3326 58.297 60.3326C59.7921 60.3326 60.089 66.684 60.089 70.2731H66.5274C66.8067 70.2733 67.0752 70.165 67.2762 69.9711C67.4773 69.7772 67.5952 69.5129 67.6052 69.2337C67.7767 64.0881 69.0695 59.731 70.2394 60.4606C71.6551 61.3464 71.481 67.9461 71.6551 69.7457C71.6624 69.8182 71.6887 69.8874 71.7313 69.9465C71.7739 70.0056 71.8313 70.0524 71.8978 70.0822C71.9642 70.112 72.0373 70.1239 72.1097 70.1165C72.1822 70.1091 72.2514 70.0828 72.3105 70.0401C72.5094 69.8935 72.6961 69.7308 72.8685 69.5537C73.2525 69.1467 73.9924 64.2136 74.4045 62.4933C74.5377 61.948 74.6401 61.5461 74.6887 61.4181C74.7885 61.1467 73.6647 49.7957 70.6132 47.9525C70.6132 47.9525 68.7521 40.4875 65.9309 38.1656C65.9002 38.1374 65.8669 38.1118 65.8337 38.0862C65.7132 37.9925 65.5866 37.907 65.4548 37.8302C65.2829 37.7235 65.099 37.6376 64.9069 37.5742C58.2509 35.4904 39.4426 35.5851 35.1393 38.3166C35.0471 38.3764 34.9618 38.4352 34.8833 38.4933C34.4378 38.8363 34.0001 39.2075 33.5751 39.5966C30.8077 42.1387 28.5114 45.4846 27.3415 47.3509L27.321 47.3816C26.9114 48.0318 26.6426 48.4952 26.553 48.6616L26.5197 48.7179V48.7358C19.2391 54.9464 19.4516 56.9509 18.7783 61.6101C18.4887 61.9024 18.322 62.2944 18.3124 62.7057Z" fill="#0F32EB"/>
<path opacity="0.2" d="M42.699 70.4473H54.7617C54.9042 70.4473 55.0454 70.4192 55.1771 70.3646C55.3088 70.3101 55.4284 70.2301 55.5292 70.1294C55.63 70.0286 55.71 69.9089 55.7645 69.7772C55.8191 69.6455 55.8471 69.5044 55.8471 69.3618V67.2396C56.0903 63.9244 56.9838 60.3276 58.2843 60.3276C59.7793 60.3276 60.0763 66.679 60.0763 70.2681H66.5147C66.794 70.2682 67.0624 70.16 67.2635 69.9661C67.4645 69.7722 67.5825 69.5078 67.5924 69.2287C67.7639 64.0831 69.0567 59.726 70.2267 60.4556C71.6423 61.3413 71.4683 67.941 71.6423 69.7407C71.6497 69.8132 71.676 69.8824 71.7186 69.9415C71.7612 70.0005 71.8186 70.0473 71.885 70.0772C71.9514 70.107 72.0245 70.1188 72.097 70.1114C72.1694 70.1041 72.2387 70.0777 72.2977 70.0351C72.4967 69.8884 72.6833 69.7258 72.8558 69.5487C73.2398 69.1417 73.9796 64.2085 74.3918 62.4882C74.5249 61.9429 74.6273 61.541 74.6759 61.413C74.7758 61.1417 73.6519 49.7906 70.6004 47.9474C70.6004 47.9474 68.7393 40.4825 65.9182 38.1605C63.5681 37.9839 58.1435 37.6921 55.714 38.5266L55.3761 50.2335C55.3761 50.2335 52.3604 54.5087 51.5847 56.4799C50.8091 58.4511 51.0241 60.8626 51.0241 60.8626L52.1351 61.7279C52.1351 61.7279 52.0993 66.2463 51.595 67.7849C51.0907 69.3234 42.699 70.4473 42.699 70.4473Z" fill="black"/>
<path opacity="0.2" d="M53.84 51.0268C53.84 51.0268 53.0285 53.5075 47.1558 56.5462C41.2832 59.5849 34.7347 61.3385 27.943 59.5849C22.6464 58.2179 23.2557 52.3452 23.2557 52.3452C23.2557 52.3452 23.3632 51.544 26.4992 48.7612C26.4992 48.7612 46.7232 50.9193 54.3853 49.862L53.84 51.0268Z" fill="white"/>
<path opacity="0.2" d="M35.1367 38.3266C36.2375 38.7311 38.4494 38.8386 42.8551 38.8386C48.3745 38.8386 55.5655 37.9605 58.2484 37.7071C60.0071 37.5407 63.3556 37.7071 65.4522 37.83C65.2804 37.7233 65.0965 37.6374 64.9044 37.574C58.2586 35.5004 39.4401 35.6079 35.1367 38.3266Z" fill="white"/>
<path opacity="0.2" d="M51.5898 61.7202C51.5898 61.7202 26.5786 63.374 19.6769 61.7202C19.6769 61.7202 25.7262 65.0021 51.5898 61.7202Z" fill="white"/>
<path opacity="0.2" d="M63.0407 38.2656C63.0407 38.2656 64.9581 41.8112 65.6724 48.393C65.6724 48.393 66.4814 49.5527 66.635 50.2618C66.7886 50.9709 67.4567 59.3651 66.699 61.7971L66.3994 64.4979L62.0961 65.0099L65.9361 64.1165C65.9361 64.1165 66.4481 61.6563 66.489 61.3645C67.0957 57.9725 66.233 50.6816 66.233 50.6816L65.2654 48.6541C65.2654 48.6541 64.9581 44.2202 63.0407 38.2656Z" fill="black"/>
<path d="M63.9546 38.9824C65.3191 41.9187 66.1255 46.3911 66.3943 48.0781C67.9712 47.6762 70.3546 47.9578 70.3546 47.9578C69.5456 43.8771 66.8448 39.3818 66.8448 39.3818C65.8901 39.1917 64.925 39.0584 63.9546 38.9824Z" fill="#263238"/>
<path d="M55.7242 49.5985L64.7354 48.6999C64.3025 45.395 63.6482 42.1227 62.777 38.9054C60.7546 38.8004 58.7911 38.8465 57.5009 38.9054C57.0879 38.9241 56.6975 39.0989 56.4086 39.3945C56.1196 39.6901 55.9537 40.0844 55.9444 40.4977L55.7242 49.5985Z" fill="#263238"/>
<path d="M26.5018 48.7539C26.5018 48.7539 28.4705 51.296 35.3569 51.296C42.2433 51.296 54.3879 49.8547 54.3879 49.8547L55.3761 38.9619C55.3761 38.9619 41.0682 39.8323 33.57 39.607C30.8026 42.1491 28.5063 45.495 27.3364 47.3613L27.3159 47.392L26.5479 48.672L26.5146 48.7283L26.5018 48.7539Z" fill="#263238"/>
<path opacity="0.2" d="M58.2484 56.8561C58.2484 56.8561 58.2484 51.7924 57.8977 50.881C57.6985 50.3543 57.3906 49.8754 56.994 49.4756H55.97C55.97 49.4756 57.3345 50.305 57.506 51.3009C57.6775 52.2967 58.2484 56.8561 58.2484 56.8561Z" fill="black"/>
<path opacity="0.2" d="M60.8289 58.7734C60.8289 58.7734 60.1812 57.1529 57.5162 57.3577C54.8513 57.5625 53.387 61.3053 53.387 61.3053C53.387 61.3053 54.2804 62.4035 54.6439 61.7277C55.0074 61.0518 57.337 56.6973 60.8289 58.7734Z" fill="white"/>
<path opacity="0.2" d="M68.0199 60.5963C68.0199 60.5963 68.9927 58.4101 70.3546 58.4664C71.7165 58.5227 72.3258 60.2456 72.3258 60.2456C72.3258 60.2456 72.1722 58.6225 71.2096 57.9646C70.2471 57.3067 69.4611 57.2965 68.5088 58.0158C67.6154 58.6891 67.193 60.8088 67.193 60.8088C67.3354 60.8663 67.4926 60.8767 67.6414 60.8385C67.7902 60.8002 67.9228 60.7154 68.0199 60.5963Z" fill="white"/>
<path opacity="0.2" d="M65.675 51.8716C65.675 51.8716 64.2234 52.1404 64.1543 52.5449C64.0852 52.9493 65.8439 52.7829 65.8439 52.7829C65.858 52.4702 65.8002 52.1585 65.675 51.8716Z" fill="black"/>
<path opacity="0.2" d="M52.578 39.6172C52.578 39.6172 40.9095 45.6255 36.5985 50.6252C36.5985 50.6252 40.8609 45.6946 44.1019 43.7388C44.1019 43.7388 38.027 46.1017 33.6366 50.6252C33.6366 50.6252 28.7572 50.062 26.9806 48.7564C26.9806 48.7564 30.155 42.8172 33.6366 40.1599C33.6366 40.1573 42.6862 40.3442 52.578 39.6172Z" fill="white"/>
<path d="M47.1098 65.6601L42.6144 66.5356C42.4814 66.5617 42.3563 66.6186 42.2492 66.7018C42.1421 66.7849 42.0559 66.892 41.9977 67.0145C41.9395 67.1369 41.9107 67.2713 41.9138 67.4069C41.9169 67.5425 41.9517 67.6754 42.0154 67.7951L42.6375 68.9574C42.723 69.1164 42.8561 69.2448 43.0181 69.3246C43.1801 69.4045 43.3629 69.4318 43.5412 69.4028L48.2208 68.6348C48.3622 68.6118 48.4957 68.5541 48.6092 68.4669C48.7228 68.3796 48.8129 68.2655 48.8716 68.1349C48.9302 68.0042 48.9554 67.861 48.9451 67.7181C48.9347 67.5753 48.8891 67.4373 48.8122 67.3164L48.0058 66.0364C47.9113 65.8912 47.7754 65.7777 47.6156 65.7106C47.4559 65.6435 47.2797 65.6259 47.1098 65.6601Z" fill="#263238"/>
<path d="M25.5956 66.9964L25.8004 67.744C25.839 67.8855 25.841 68.0346 25.8061 68.1771C25.7713 68.3197 25.7007 68.451 25.6011 68.5588C25.5016 68.6666 25.3762 68.7472 25.2369 68.7932C25.0975 68.8392 24.9488 68.849 24.8046 68.8217L20.9646 68.0972C20.7763 68.0623 20.6051 67.9655 20.478 67.8222C20.3509 67.6789 20.2753 67.4973 20.2632 67.3062L20.2171 66.6483C20.2073 66.516 20.2281 66.3832 20.2778 66.2602C20.3275 66.1372 20.4049 66.0273 20.5038 65.939C20.6028 65.8506 20.7208 65.7862 20.8486 65.7508C20.9764 65.7153 21.1107 65.7097 21.2411 65.7344L24.9275 66.3718C25.0863 66.4025 25.2333 66.4775 25.3515 66.5879C25.4697 66.6984 25.5543 66.84 25.5956 66.9964Z" fill="#263238"/>
<path d="M20.176 56.6972C20.1284 56.7755 20.1007 56.8643 20.0953 56.9558C20.09 57.0473 20.1071 57.1387 20.1453 57.222C20.5216 58.0668 21.8477 60.5833 24.5536 61.4972C24.839 61.5968 25.1317 61.6739 25.4291 61.7276C28.7571 62.3446 37.3741 62.3036 41.5085 61.7276C42.1002 61.658 42.6845 61.5355 43.2544 61.3615C44.7059 60.8495 48.4896 58.6454 50.023 57.7366C50.1062 57.6872 50.1781 57.6209 50.234 57.542C50.29 57.4631 50.3287 57.3733 50.3478 57.2785C50.3668 57.1836 50.3658 57.0859 50.3447 56.9915C50.3236 56.8971 50.2829 56.8082 50.2253 56.7305L49.488 55.7398C49.4073 55.6337 49.2977 55.5532 49.1724 55.5078C49.0471 55.4624 48.9114 55.4541 48.7814 55.4838L40.4128 57.3474L39.7549 58.1154C39.7549 58.1154 31.6141 58.9935 26.0205 58.1154V57.3474L21.4125 55.5554C21.2886 55.5077 21.1518 55.5049 21.026 55.5474C20.9002 55.59 20.7933 55.6752 20.7238 55.7884L20.176 56.6972Z" fill="#263238"/>
<path opacity="0.7" d="M39.76 58.1154C39.76 58.1154 40.8659 60.7215 41.5085 61.7225C42.1002 61.6529 42.6846 61.5304 43.2544 61.3564C44.7059 60.8444 48.4896 58.6402 50.023 57.7314C50.1062 57.6821 50.1781 57.6158 50.234 57.5369C50.29 57.4579 50.3287 57.3682 50.3478 57.2733C50.3668 57.1785 50.3658 57.0807 50.3447 56.9864C50.3236 56.892 50.2829 56.803 50.2253 56.7254L49.488 55.7398C49.4073 55.6337 49.2977 55.5532 49.1724 55.5078C49.0471 55.4624 48.9114 55.4541 48.7815 55.4838L40.4128 57.3474L39.76 58.1154Z" fill="white"/>
<path opacity="0.7" d="M20.1453 57.2221C20.5216 58.0669 21.8477 60.5834 24.5536 61.4973L26.0256 58.1156V57.3476L21.4176 55.5556C21.2937 55.5078 21.157 55.505 21.0312 55.5475C20.9054 55.5901 20.7985 55.6754 20.729 55.7885L20.176 56.7025C20.1293 56.7801 20.102 56.868 20.0967 56.9585C20.0913 57.049 20.108 57.1395 20.1453 57.2221Z" fill="white"/>
<path d="M41.2679 59.1602C41.2679 59.4438 41.3521 59.7211 41.5097 59.9569C41.6674 60.1927 41.8914 60.3765 42.1535 60.4849C42.4156 60.5933 42.704 60.6216 42.9822 60.566C43.2603 60.5105 43.5158 60.3737 43.7162 60.173C43.9166 59.9722 44.0529 59.7165 44.1079 59.4383C44.1629 59.16 44.1342 58.8717 44.0253 58.6098C43.9164 58.3479 43.7322 58.1241 43.4961 57.9669C43.2601 57.8097 42.9826 57.7261 42.699 57.7266C42.5108 57.7266 42.3245 57.7637 42.1508 57.8357C41.977 57.9078 41.8191 58.0135 41.6862 58.1466C41.5533 58.2798 41.4479 58.4378 41.3761 58.6117C41.3044 58.7857 41.2676 58.972 41.2679 59.1602Z" fill="white"/>
<path d="M23.0663 58.9756C22.9844 59.7641 23.3633 60.445 23.906 60.5116C24.4487 60.5782 24.9582 59.9714 25.0375 59.1855C25.1169 58.3996 24.7406 57.7161 24.1953 57.6495C23.65 57.583 23.1457 58.1897 23.0663 58.9756Z" fill="white"/>
<path d="M23.1075 57.9232C23.1783 57.2241 22.8434 56.6177 22.3595 56.5687C21.8756 56.5197 21.426 57.0468 21.3552 57.7459C21.2844 58.445 21.6193 59.0514 22.1032 59.1004C22.5871 59.1494 23.0367 58.6224 23.1075 57.9232Z" fill="white"/>
<path d="M20.6675 56.3696C20.5805 56.6768 20.6803 56.9764 20.8928 57.0378C21.1053 57.0992 21.351 56.8996 21.4381 56.5924C21.5251 56.2852 21.4253 55.9856 21.2128 55.9242C21.0003 55.8628 20.7571 56.0624 20.6675 56.3696Z" fill="white"/>
<path d="M44.5882 58.1667C44.5866 58.4279 44.6627 58.6836 44.8068 58.9015C44.9508 59.1194 45.1564 59.2895 45.3973 59.3904C45.6382 59.4913 45.9036 59.5184 46.16 59.4682C46.4163 59.418 46.6519 59.2927 46.837 59.1084C47.022 58.9241 47.1481 58.689 47.1993 58.4328C47.2506 58.1767 47.2245 57.9112 47.1246 57.6698C47.0246 57.4285 46.8553 57.2223 46.638 57.0774C46.4206 56.9325 46.1652 56.8555 45.904 56.856C45.5561 56.8566 45.2226 56.9948 44.9761 57.2403C44.7296 57.4858 44.5902 57.8188 44.5882 58.1667Z" fill="white"/>
<path d="M48.0007 56.682C48.0012 56.812 48.0403 56.9389 48.1129 57.0468C48.1855 57.1546 48.2884 57.2386 48.4087 57.288C48.5289 57.3374 48.6611 57.35 48.7886 57.3244C48.916 57.2987 49.033 57.2358 49.1248 57.1437C49.2165 57.0516 49.2789 56.9344 49.3041 56.8068C49.3293 56.6793 49.3161 56.5471 49.2662 56.427C49.2164 56.307 49.132 56.2044 49.0239 56.1322C48.9158 56.06 48.7887 56.0215 48.6587 56.0215C48.572 56.0215 48.4863 56.0386 48.4063 56.0718C48.3263 56.105 48.2537 56.1537 48.1925 56.2151C48.1314 56.2765 48.083 56.3493 48.0501 56.4294C48.0172 56.5095 48.0004 56.5954 48.0007 56.682Z" fill="white"/>
<path opacity="0.2" d="M39.5834 59.1678L35.2289 59.4827L34.0897 60.2098H29.8759L29.2769 59.4827L26.0257 59.0757L25.6826 59.644L28.7725 60.2098L29.4817 61.4974H34.6298L35.9252 60.2866L39.9469 59.8539L39.5834 59.1678Z" fill="white"/>
<path opacity="0.2" d="M45.5457 68.5501C46.0745 68.5501 46.5031 68.1215 46.5031 67.5927C46.5031 67.0639 46.0745 66.6353 45.5457 66.6353C45.0169 66.6353 44.5883 67.0639 44.5883 67.5927C44.5883 68.1215 45.0169 68.5501 45.5457 68.5501Z" fill="white"/>
<path opacity="0.2" d="M22.0628 67.2804C22.0617 67.4701 22.1171 67.6558 22.2218 67.814C22.3265 67.9722 22.4758 68.0957 22.6508 68.1689C22.8258 68.2421 23.0186 68.2616 23.2048 68.225C23.3909 68.1885 23.562 68.0974 23.6963 67.9635C23.8306 67.8295 23.9221 67.6587 23.9592 67.4727C23.9962 67.2866 23.9772 67.0938 23.9045 66.9186C23.8318 66.7434 23.7087 66.5937 23.5508 66.4886C23.3929 66.3835 23.2073 66.3276 23.0176 66.3281C22.7648 66.3281 22.5223 66.4284 22.3433 66.6069C22.1643 66.7854 22.0634 67.0276 22.0628 67.2804Z" fill="white"/>
<path d="M44.1326 50.8606L41.5111 50.2334H33.081L30.8999 50.8606C30.8999 50.8606 30.6977 53.6254 31.3044 53.9326C31.9111 54.2398 39.3351 54.1886 39.929 53.9326C40.523 53.6766 43.0343 52.604 44.1326 50.8606Z" fill="#0F32EB"/>
<path opacity="0.2" d="M44.1326 50.8606L41.5111 50.2334H33.081L30.8999 50.8606C30.8999 50.8606 30.6977 53.6254 31.3044 53.9326C31.9111 54.2398 39.3351 54.1886 39.929 53.9326C40.523 53.6766 43.0343 52.604 44.1326 50.8606Z" fill="white"/>
<path d="M73.7389 38.8772L75.0906 38.6212L74.32 37.144C74.32 37.144 73.127 37.5332 73.232 38.2013L73.7389 38.8772Z" fill="#FF8B7B"/>
<path d="M75.8943 37.431L75.5411 36.9625C75.4732 36.8722 75.3754 36.809 75.2652 36.7841C75.155 36.7593 75.0395 36.7744 74.9395 36.8268L74.3199 37.1443L75.0879 38.6086L75.7894 38.0966C75.84 38.0598 75.8829 38.0134 75.9156 37.96C75.9483 37.9067 75.9701 37.8474 75.9798 37.7856C75.9896 37.7237 75.9871 37.6606 75.9724 37.5998C75.9577 37.5389 75.9312 37.4816 75.8943 37.431Z" fill="#FF8B7B"/>
<path d="M74.4839 38.5213C74.23 38.2469 73.8988 38.0558 73.5341 37.9735L73.2423 37.9069C73.0861 37.8711 73.0503 37.9069 73.0323 37.9453L72.9581 38.0605L72.8071 38.2909C72.7047 38.4445 72.5997 38.5956 72.4922 38.744C72.2874 39.0461 72.0723 39.338 71.8547 39.617C71.655 39.8835 71.4341 40.1335 71.1943 40.3645L71.1763 40.3799C71.1021 40.3005 71.0304 40.216 70.9562 40.1239C70.7258 39.8423 70.5056 39.5402 70.2906 39.2253C70.0756 38.9104 69.881 38.5776 69.6864 38.2423C69.5917 38.0759 69.497 37.9044 69.4074 37.7303C69.3178 37.5562 69.2231 37.377 69.1514 37.2336V37.2157L69.1335 37.1824C69.0638 37.0326 68.9646 36.8983 68.8418 36.7877C68.719 36.677 68.5752 36.5923 68.4189 36.5385C68.2626 36.4847 68.0971 36.4631 67.9322 36.4748C67.7674 36.4865 67.6066 36.5313 67.4594 36.6066C67.3123 36.6819 67.1819 36.7861 67.076 36.9129C66.97 37.0398 66.8908 37.1867 66.843 37.3449C66.7951 37.5031 66.7797 37.6694 66.7976 37.8337C66.8156 37.998 66.8664 38.157 66.9472 38.3012C67.0624 38.529 67.1648 38.7082 67.2775 38.9079C67.3901 39.1076 67.5002 39.2919 67.618 39.4788C67.856 39.8576 68.1069 40.2237 68.386 40.5872C68.9418 41.3523 69.6058 42.0327 70.3571 42.6071L70.4007 42.6404C70.5272 42.7341 70.6736 42.7975 70.8285 42.8254C70.9835 42.8534 71.1428 42.8453 71.2941 42.8016C71.6165 42.7078 71.9168 42.5502 72.1773 42.3383C72.3745 42.1839 72.5578 42.0126 72.7251 41.8263C73.0159 41.498 73.2813 41.148 73.5187 40.7792C73.7466 40.426 73.9463 40.0676 74.1331 39.7066C74.2227 39.5248 74.3098 39.3405 74.3891 39.1562L74.5146 38.8772L74.5735 38.7364C74.5888 38.6928 74.5991 38.6416 74.4839 38.5213ZM70.736 40.682C70.736 40.6871 70.736 40.6871 70.736 40.682V40.682Z" fill="#0F32EB"/>
<path opacity="0.6" d="M74.4838 38.5213C74.2299 38.2468 73.8987 38.0558 73.534 37.9734L73.2396 37.9069C73.0835 37.871 73.0502 37.9069 73.0297 37.9453L72.9555 38.0605L72.8044 38.2909C72.702 38.4445 72.5996 38.5955 72.4921 38.744C72.2848 39.0461 72.0697 39.3379 71.8547 39.617C71.6534 39.8822 71.4327 40.1321 71.1942 40.3645L71.1763 40.3798C71.102 40.3005 71.0278 40.216 70.9561 40.1238C70.7257 39.8422 70.5056 39.5402 70.2905 39.2253C70.0755 38.9104 69.8784 38.5776 69.6864 38.2422C69.5891 38.0758 69.4944 37.9043 69.4048 37.7302C69.3152 37.5562 69.223 37.377 69.1488 37.2336V37.2157L69.1334 37.1824C68.985 36.8921 68.7275 36.6727 68.4173 36.5724C68.1072 36.472 67.7699 36.499 67.4796 36.6474C67.1894 36.7957 66.97 37.0533 66.8696 37.3634C66.7693 37.6736 66.7962 38.0109 66.9446 38.3011C67.0624 38.529 67.1622 38.7082 67.2748 38.9078C67.3875 39.1075 67.5001 39.2918 67.6179 39.4787C67.7689 39.7219 67.9276 39.9574 68.0915 40.193C68.1836 40.3261 68.2784 40.449 68.3756 40.5872C68.7835 41.1414 69.243 41.6557 69.7478 42.1232C69.9347 42.2896 70.1344 42.4534 70.3468 42.6122L70.3904 42.6454C70.5169 42.7392 70.6633 42.8025 70.8182 42.8305C70.9732 42.8585 71.1325 42.8503 71.2838 42.8067C71.6057 42.7117 71.9058 42.5542 72.167 42.3434C72.3642 42.1889 72.5475 42.0176 72.7148 41.8314C73.0048 41.5024 73.2701 41.1524 73.5084 40.7843C73.7363 40.431 73.9334 40.0726 74.1203 39.7117C74.2124 39.5299 74.2969 39.3456 74.3763 39.1613L74.4992 38.8822L74.5606 38.7414C74.5888 38.6928 74.5964 38.6416 74.4838 38.5213ZM70.736 40.6819C70.736 40.6819 70.736 40.687 70.736 40.6819V40.6819Z" fill="white"/>
<path opacity="0.2" d="M69.7453 42.1287C69.2405 41.6612 68.781 41.1469 68.3731 40.5927C68.2759 40.4621 68.1811 40.3367 68.089 40.1985C68.1978 39.5969 68.399 39.0157 68.6855 38.4756C68.6855 38.4756 70.1933 39.4714 69.7453 42.1287Z" fill="black"/>
<path d="M62.3571 35.8874C63.9503 35.7136 65.5572 35.7058 67.152 35.8644C67.8067 35.9346 68.4122 36.2447 68.8518 36.7349C69.2915 37.2251 69.534 37.8607 69.5328 38.5191C69.5328 40.9665 68.8826 41.7524 68.4755 45.5105C68.8135 45.9482 68.5651 46.5805 68.281 46.6471C65.9002 47.2129 62.3597 46.537 61.1872 46.2605C60.6752 46.1377 60.9696 45.449 60.9696 45.449C60.9696 44.169 61.2256 44.2817 61.1539 42.7124C60.9415 41.1636 61.1079 39.9962 60.8032 37.9405C60.7665 37.7032 60.7778 37.4608 60.8365 37.2279C60.8953 36.995 61.0003 36.7763 61.1452 36.5848C61.2902 36.3933 61.4722 36.2328 61.6804 36.113C61.8886 35.9932 62.1187 35.9165 62.3571 35.8874Z" fill="#0F32EB"/>
<path opacity="0.6" d="M68.4653 45.5026C68.8032 45.9403 68.5523 46.5726 68.2707 46.6392C66.5709 47.0437 64.2797 46.8133 62.6823 46.5496C62.0423 46.4446 61.5124 46.332 61.177 46.2526C60.665 46.1298 60.9594 45.4411 60.9594 45.4411C60.9594 44.1611 61.2154 44.2738 61.1411 42.7045C61.1207 42.5483 61.1028 42.3973 61.0874 42.2462C60.9594 40.9099 61.0644 39.781 60.793 37.9326C60.757 37.6949 60.7693 37.4523 60.829 37.2194C60.8887 36.9865 60.9947 36.768 61.1407 36.5769C61.2866 36.3858 61.4695 36.226 61.6785 36.1071C61.8875 35.9882 62.1183 35.9125 62.3571 35.8846C63.9504 35.7116 65.5573 35.7047 67.152 35.8642C67.8067 35.9339 68.4123 36.2439 68.8516 36.7342C69.2909 37.2246 69.5327 37.8605 69.5303 38.5189C69.5124 40.9586 68.8724 41.7522 68.4653 45.5026Z" fill="white"/>
<path d="M63.4093 35.8641C64.1927 36.8037 66.3507 37.7227 66.6349 38.4241C67.0701 36.8472 67.0368 36.051 66.3968 35.9589C65.408 35.8119 64.4055 35.7801 63.4093 35.8641Z" fill="#0F32EB"/>
<path opacity="0.2" d="M61.3459 42.4945C61.8579 41.2426 62.5363 39.2433 62.3929 37.9863L60.9824 39.9447C61.0182 40.7614 61.0156 41.4679 61.0899 42.2487C61.1052 42.3998 61.1232 42.5508 61.1436 42.707C61.2128 44.2762 60.9568 44.1738 60.9619 45.4436C60.9619 45.4436 60.6624 46.1322 61.1795 46.2551C61.5148 46.3345 62.0448 46.4471 62.6848 46.5521C62.0985 45.354 61.5404 43.2548 61.3459 42.4945Z" fill="black"/>
<path d="M64.185 33.0483C64.2084 33.9867 64.0267 34.919 63.6525 35.7799C63.6389 35.8122 63.6355 35.848 63.6428 35.8823C63.6501 35.9166 63.6678 35.9479 63.6935 35.9719C64.3236 36.5157 65.132 36.8082 65.9642 36.7936C66.9728 36.809 66.9165 36.4915 66.6759 36.1357C66.6412 36.0853 66.5957 36.0433 66.5428 36.0128C65.8516 35.6032 65.8285 35.0554 66.0308 34.7328L64.185 33.0483Z" fill="#FF8B7B"/>
<path opacity="0.2" d="M64.1849 33.0483L66.0204 34.7226C65.9597 34.8284 65.9246 34.9469 65.9179 35.0687C65.9112 35.1906 65.9332 35.3122 65.982 35.424C65.5944 35.4357 65.2167 35.3004 64.9248 35.0451C64.4537 34.6432 64.2899 34.1671 64.1747 33.4963C64.1824 33.3632 64.1849 33.2147 64.1849 33.0483Z" fill="black"/>
<path d="M67.0163 30.7956C67.3107 31.1898 66.9139 31.6455 66.9037 32.0141C66.8935 32.3828 66.9293 32.8615 66.4915 32.329C66.0538 31.7965 66.5555 30.2452 67.0163 30.7956Z" fill="#263238"/>
<path d="M63.6371 32.1904C63.719 33.4243 63.5424 33.6215 64.1696 34.2384C65.1142 35.1779 66.6477 35.3571 66.8653 34.1053C67.0598 32.9815 67.1699 30.9411 65.9565 30.4675C65.6874 30.3618 65.3959 30.3264 65.1094 30.3645C64.8229 30.4026 64.5508 30.513 64.3187 30.6854C64.0867 30.8578 63.9023 31.0864 63.7831 31.3497C63.6638 31.613 63.6136 31.9023 63.6371 32.1904Z" fill="#FF8B7B"/>
<path d="M63.7652 33.0252C64.2976 33.3939 64.5332 32.6284 64.4897 32.567C64.3412 32.293 64.3617 32.055 64.5946 31.5788C64.8276 31.1026 63.8522 30.4422 63.1073 30.6137C62.4186 30.7724 63.0689 31.3407 62.9537 31.7759C62.7489 32.549 63.3376 32.7308 63.7652 33.0252Z" fill="#263238"/>
<path d="M63.0764 33.0177C63.1827 33.2833 63.3871 33.4978 63.6473 33.6167C63.9775 33.7601 64.1593 33.4375 64.0799 33.0663C64.0006 32.6951 63.7523 32.2599 63.4143 32.2753C63.0764 32.2907 62.9356 32.6798 63.0764 33.0177Z" fill="#FF8B7B"/>
<path d="M65.1296 32.3109C65.1296 32.4159 65.1834 32.4261 65.2499 32.421C65.3165 32.4159 65.383 32.4031 65.3779 32.2981C65.3728 32.1932 65.3139 32.1113 65.2474 32.1138C65.1808 32.1164 65.1245 32.206 65.1296 32.3109Z" fill="#263238"/>
<path d="M66.4172 32.3878C66.4172 32.4927 66.4684 32.5004 66.5375 32.4979C66.6067 32.4953 66.6707 32.4799 66.6655 32.375C66.6604 32.27 66.6015 32.1855 66.5324 32.1907C66.4633 32.1958 66.4121 32.2803 66.4172 32.3878Z" fill="#263238"/>
<path d="M66.2176 32.3389C66.3089 32.5874 66.4347 32.8218 66.5914 33.0352C66.5355 33.0744 66.4717 33.1009 66.4045 33.1128C66.3373 33.1247 66.2682 33.1218 66.2023 33.1043L66.2176 32.3389Z" fill="#FF5652"/>
<path d="M64.9325 31.8401C64.9221 31.837 64.9125 31.8318 64.9043 31.8247C64.8986 31.819 64.894 31.8122 64.8909 31.8047C64.8878 31.7973 64.8862 31.7893 64.8862 31.7812C64.8862 31.7731 64.8878 31.7651 64.8909 31.7576C64.894 31.7502 64.8986 31.7434 64.9043 31.7377C64.9686 31.663 65.0497 31.6045 65.1409 31.5672C65.2321 31.5298 65.3309 31.5145 65.4291 31.5226C65.4372 31.524 65.4449 31.5269 65.4518 31.5312C65.4588 31.5356 65.4648 31.5412 65.4695 31.5479C65.4743 31.5545 65.4777 31.562 65.4795 31.57C65.4814 31.578 65.4816 31.5862 65.4803 31.5943C65.479 31.6024 65.476 31.6101 65.4717 31.617C65.4674 31.624 65.4617 31.63 65.4551 31.6348C65.4484 31.6395 65.4409 31.6429 65.4329 31.6447C65.4249 31.6466 65.4167 31.6469 65.4086 31.6455C65.3312 31.6414 65.2539 31.655 65.1825 31.6851C65.1111 31.7153 65.0475 31.7613 64.9965 31.8196C64.9889 31.8288 64.9789 31.8357 64.9675 31.8394C64.9561 31.843 64.944 31.8432 64.9325 31.8401Z" fill="#263238"/>
<path d="M66.9113 31.8347C66.9012 31.8362 66.8909 31.8354 66.8811 31.8323C66.8713 31.8292 66.8624 31.8239 66.855 31.8168C66.8042 31.758 66.74 31.7125 66.6678 31.6839C66.5956 31.6554 66.5175 31.6448 66.4403 31.6529C66.4244 31.6551 66.4082 31.651 66.3953 31.6415C66.3824 31.6319 66.3737 31.6176 66.3712 31.6017C66.3693 31.5938 66.3691 31.5856 66.3706 31.5776C66.3721 31.5696 66.3752 31.562 66.3798 31.5552C66.3844 31.5485 66.3903 31.5428 66.3972 31.5385C66.4041 31.5341 66.4118 31.5313 66.4198 31.5301C66.5173 31.5186 66.6161 31.5308 66.7079 31.5655C66.7997 31.6003 66.8817 31.6566 66.9472 31.7297C66.9589 31.7417 66.9655 31.7578 66.9655 31.7745C66.9655 31.7913 66.9589 31.8074 66.9472 31.8193C66.937 31.8278 66.9245 31.8331 66.9113 31.8347Z" fill="#263238"/>
<path d="M63.1558 30.6777C63.1558 30.6777 62.8332 30.2962 63.5602 29.7842C64.2873 29.2722 66.0179 29.9122 66.6655 29.8201C67.3132 29.7279 67.3516 29.4565 67.3516 29.4565C67.3516 29.4565 67.6588 30.757 66.517 31.0258C65.3753 31.2946 63.6831 31.0617 63.1558 30.6777Z" fill="#263238"/>
<path d="M66.2151 33.6269C66.037 33.6376 65.8594 33.6005 65.7005 33.5194C65.5417 33.4384 65.4073 33.3164 65.3114 33.1661C65.3067 33.1569 65.3056 33.1462 65.3085 33.1362C65.3113 33.1262 65.3178 33.1177 65.3267 33.1123C65.3363 33.1078 65.3472 33.1072 65.3572 33.1105C65.3672 33.1138 65.3756 33.1209 65.3805 33.1303C65.4696 33.2683 65.5939 33.3799 65.7406 33.4538C65.8874 33.5276 66.0512 33.5608 66.2151 33.5501C66.2252 33.5501 66.235 33.5541 66.2422 33.5613C66.2494 33.5685 66.2535 33.5783 66.2535 33.5885C66.2535 33.5987 66.2494 33.6084 66.2422 33.6156C66.235 33.6229 66.2252 33.6269 66.2151 33.6269Z" fill="#263238"/>
<path d="M70.0498 67.3214C69.9756 67.5441 69.8527 67.8795 69.7068 68.2609C69.6684 68.3659 69.6274 68.476 69.5839 68.5886L69.2895 69.4001C69.1188 69.846 68.9718 70.3006 68.8492 70.762C68.8492 70.8081 68.8338 70.8465 68.8287 70.8824C68.2706 71.315 67.8047 71.2484 67.6716 70.7953C67.6487 70.5642 67.6625 70.3309 67.7126 70.1041C67.7561 69.7944 67.8278 69.418 67.9046 69.0417C67.9814 68.6654 68.0556 68.3224 68.1247 68.0177C68.1503 67.9025 68.1759 67.795 68.199 67.7003C68.2655 67.411 68.3116 67.2241 68.3116 67.2241L70.0498 67.3214Z" fill="#FF8B7B"/>
<path d="M74.5759 58.9297C73.7081 60.8625 72.4537 63.4379 71.4502 65.4603C70.7897 66.7915 70.2393 67.882 69.9833 68.3864L69.8297 68.691L69.5737 68.5886L68.1145 68.0049L68.0403 67.9768C68.0403 67.9768 68.0607 67.8718 68.1017 67.6772C68.5997 65.4089 69.2471 63.176 70.0396 60.9931C70.334 60.1918 70.6617 59.3777 71.0227 58.5867C70.7283 58.3 70.4467 58.0209 70.1753 57.7444C66.0947 53.5947 64.6124 50.6225 64.6124 50.6225L66.3507 48.9892L68.1759 47.2715C70.9587 50.5329 75.2415 57.4731 74.5759 58.9297Z" fill="#263238"/>
<path opacity="0.1" d="M74.5759 58.9297C73.7081 60.8625 72.4537 63.4379 71.4502 65.4603C70.7897 66.7915 70.2393 67.882 69.9833 68.3864L69.8297 68.691L69.5737 68.5886L68.1145 68.0049L68.0403 67.9768C68.0403 67.9768 68.0607 67.8718 68.1017 67.6772C68.5997 65.4089 69.2471 63.176 70.0396 60.9931C70.334 60.1918 70.6617 59.3777 71.0227 58.5867C70.7283 58.3 70.4467 58.0209 70.1753 57.7444C66.0947 53.5947 64.6124 50.6225 64.6124 50.6225L66.3507 48.9892L68.1759 47.2715C70.9587 50.5329 75.2415 57.4731 74.5759 58.9297Z" fill="white"/>
<path d="M69.6377 73.6215C69.2204 73.4346 68.4959 72.8253 66.8524 71.3713V71.1025L66.6092 71.1588L66.3071 70.9028L67.5308 70.1117C67.5579 70.0955 67.5888 70.0869 67.6204 70.0869C67.652 70.0869 67.6829 70.0955 67.71 70.1117H67.7228L68.8466 70.7645L68.9746 70.8388C68.9908 70.8476 69.0049 70.8595 69.0163 70.8739C69.0276 70.8883 69.036 70.9048 69.0408 70.9226C69.0455 70.9403 69.0467 70.9588 69.0441 70.9769C69.0416 70.9951 69.0353 71.0125 69.0258 71.0282C68.6418 71.7169 69.7938 73.4193 69.7938 73.4193C69.7938 73.4193 69.8118 73.5165 69.6377 73.6215Z" fill="#263238"/>
<path d="M70.119 68.4455C70.119 68.4455 69.863 69.3722 69.5917 69.408C69.4905 69.4132 69.3891 69.4063 69.2896 69.3876C68.8177 69.3119 68.354 69.1919 67.9046 69.0292C67.8631 69.0146 67.8228 68.9967 67.7843 68.9754C67.7843 68.9754 67.8253 67.7799 68.0403 67.6954C68.0636 67.6881 68.0886 67.6881 68.112 67.6954C68.141 67.6933 68.17 67.6933 68.199 67.6954C68.7151 67.8492 69.219 68.0408 69.7069 68.2688L69.9936 68.3943L70.119 68.4455Z" fill="#0F32EB"/>
<path opacity="0.3" d="M70.119 68.4455C70.119 68.4455 69.863 69.3722 69.5917 69.408C69.4905 69.4132 69.3891 69.4063 69.2896 69.3876C68.8177 69.3119 68.354 69.1919 67.9046 69.0292C67.8631 69.0146 67.8228 68.9967 67.7843 68.9754C67.7843 68.9754 67.8253 67.7799 68.0403 67.6954C68.0636 67.6881 68.0886 67.6881 68.112 67.6954C68.141 67.6933 68.17 67.6933 68.199 67.6954C68.7151 67.8492 69.219 68.0408 69.7069 68.2688L69.9936 68.3943L70.119 68.4455Z" fill="white"/>
<path opacity="0.2" d="M70.1856 57.7445C66.1049 53.5947 64.6227 50.6225 64.6227 50.6225L66.3609 48.9893C67.5078 50.3256 69.8067 53.4897 70.1856 57.7445Z" fill="black"/>
<path opacity="0.4" d="M69.6377 73.6215C69.2204 73.4346 68.4959 72.8253 66.8524 71.3713V71.1025L66.6092 71.1588L66.3071 70.9028L67.5308 70.1117C67.5579 70.0955 67.5888 70.0869 67.6204 70.0869C67.652 70.0869 67.6829 70.0955 67.71 70.1117H67.7228L68.8466 70.7645L68.9746 70.8388C68.9908 70.8476 69.0049 70.8595 69.0163 70.8739C69.0276 70.8883 69.036 70.9048 69.0408 70.9226C69.0455 70.9403 69.0467 70.9588 69.0441 70.9769C69.0416 70.9951 69.0353 71.0125 69.0258 71.0282C68.6418 71.7169 69.7938 73.4193 69.7938 73.4193C69.7938 73.4193 69.8118 73.5165 69.6377 73.6215Z" fill="white"/>
<path opacity="0.2" d="M69.2895 69.4003C69.1188 69.8462 68.9718 70.3008 68.8492 70.7622L68.9772 70.8364C68.9933 70.8452 69.0075 70.8572 69.0189 70.8716C69.0302 70.8859 69.0385 70.9025 69.0433 70.9202C69.0481 70.9379 69.0493 70.9564 69.0467 70.9746C69.0441 70.9927 69.0379 71.0102 69.0284 71.0259C68.6444 71.7145 69.7964 73.4169 69.7964 73.4169C69.7964 73.4169 69.8195 73.5296 69.6454 73.6345C69.2281 73.4476 68.5036 72.8384 66.8601 71.3843V71.1155L66.6169 71.1718L66.3148 70.9158L67.5385 70.1248C67.5656 70.1085 67.5965 70.0999 67.6281 70.0999C67.6597 70.0999 67.6906 70.1085 67.7177 70.1248C67.7612 69.815 67.8329 69.4387 67.9097 69.0624C67.8682 69.0478 67.8279 69.0299 67.7894 69.0086C67.7894 69.0086 67.8303 67.8131 68.0454 67.7286C68.0687 67.7213 68.0937 67.7213 68.1171 67.7286C68.6151 65.4603 69.2625 63.2274 70.055 61.0444C70.3494 62.0172 70.9254 63.822 71.4655 65.5116C70.8051 66.8428 70.2547 67.9334 69.9987 68.4377L70.1241 68.4966C70.1241 68.4966 69.8681 69.4233 69.5967 69.4592C69.4923 69.4522 69.3891 69.4324 69.2895 69.4003Z" fill="black"/>
<path d="M71.0201 68.4019C71.3357 69.5961 71.7116 70.7735 72.1466 71.9295C72.1167 72.0546 72.0544 72.1696 71.9659 72.2629C71.8775 72.3562 71.7661 72.4246 71.6428 72.4612C71.5195 72.4978 71.3888 72.5013 71.2638 72.4713C71.1388 72.4413 71.0238 72.379 70.9306 72.2905C70.5798 71.9756 69.4995 69.2492 69.4995 69.2492L71.0201 68.4019Z" fill="#FF8B7B"/>
<path d="M65.7261 59.1806C63.9034 53.5768 61.0413 51.1422 61.1181 48.0344L66.4941 47.9883C66.4941 47.9883 68.5856 55.8884 69.2435 59.5902C69.9015 63.292 71.3299 69.331 71.3299 69.331L69.817 70.0657C69.817 70.0657 66.32 63.5121 65.7261 59.1806Z" fill="#263238"/>
<path opacity="0.1" d="M65.7261 59.1806C63.9034 53.5768 61.0413 51.1422 61.1181 48.0344L66.4941 47.9883C66.4941 47.9883 68.5856 55.8884 69.2435 59.5902C69.9015 63.292 71.3299 69.331 71.3299 69.331L69.817 70.0657C69.817 70.0657 66.32 63.5121 65.7261 59.1806Z" fill="white"/>
<path d="M69.8375 70.9361C70.4631 70.7051 71.0514 70.3833 71.5834 69.9812C71.7626 69.7713 71.3274 68.9111 71.3274 68.9111C71.3274 68.9111 69.5559 69.4974 69.4176 69.6791C69.2794 69.8609 69.8375 70.9361 69.8375 70.9361Z" fill="#0F32EB"/>
<path opacity="0.3" d="M69.8375 70.9361C70.4631 70.7051 71.0514 70.3833 71.5834 69.9812C71.7626 69.7713 71.3274 68.9111 71.3274 68.9111C71.3274 68.9111 69.5559 69.4974 69.4176 69.6791C69.2794 69.8609 69.8375 70.9361 69.8375 70.9361Z" fill="white"/>
<path d="M74.5094 73.2787C74.5094 73.2787 72.5408 72.6976 72.3974 71.9245C72.3954 71.9062 72.3895 71.8886 72.3802 71.8728C72.3708 71.857 72.3583 71.8433 72.3433 71.8327C72.3283 71.822 72.3112 71.8147 72.2932 71.8111C72.2752 71.8075 72.2566 71.8078 72.2387 71.8119L70.8103 72.0499C70.7765 72.0559 70.7451 72.0709 70.7194 72.0935C70.6936 72.1161 70.6746 72.1453 70.6643 72.1779L70.2291 73.568L70.6336 73.5808L70.7821 73.3811L70.951 73.591C73.145 73.6576 74.0922 73.6653 74.535 73.5424C74.6016 73.3504 74.5094 73.2787 74.5094 73.2787Z" fill="#263238"/>
<path opacity="0.4" d="M74.5094 73.2787C74.5094 73.2787 72.5408 72.6976 72.3974 71.9245C72.3954 71.9062 72.3895 71.8886 72.3802 71.8728C72.3708 71.857 72.3583 71.8433 72.3433 71.8327C72.3283 71.822 72.3112 71.8147 72.2932 71.8111C72.2752 71.8075 72.2566 71.8078 72.2387 71.8119L70.8103 72.0499C70.7765 72.0559 70.7451 72.0709 70.7194 72.0935C70.6936 72.1161 70.6746 72.1453 70.6643 72.1779L70.2291 73.568L70.6336 73.5808L70.7821 73.3811L70.951 73.591C73.145 73.6576 74.0922 73.6653 74.535 73.5424C74.6016 73.3504 74.5094 73.2787 74.5094 73.2787Z" fill="white"/>
<path d="M68.2707 47.9885C68.3178 47.5401 68.3178 47.0879 68.2707 46.6394C68.2707 46.4986 61.7222 46.2298 61.177 46.2529C60.496 46.2785 61.0771 49.394 61.6122 50.4538C66.3584 50.7661 68.1222 48.8077 68.2707 47.9885Z" fill="#263238"/>
<path opacity="0.1" d="M68.2707 47.9885C68.3178 47.5401 68.3178 47.0879 68.2707 46.6394C68.2707 46.4986 61.7222 46.2298 61.177 46.2529C60.496 46.2785 61.0771 49.394 61.6122 50.4538C66.3584 50.7661 68.1222 48.8077 68.2707 47.9885Z" fill="white"/>
<path d="M63.6806 46.4756C62.6259 46.4321 61.671 46.4141 61.1923 46.4474C61.1741 46.4484 61.1566 46.4548 61.142 46.4657C61.1274 46.4766 61.1164 46.4916 61.1104 46.5088C61.068 46.6454 61.0524 46.7888 61.0643 46.9312C61.0646 46.9427 61.0672 46.9539 61.0719 46.9644C61.0766 46.9748 61.0833 46.9842 61.0916 46.9921C61.0999 46.9999 61.1097 47.006 61.1204 47.0101C61.1311 47.0142 61.1425 47.0161 61.1539 47.0157C61.4099 47.0157 62.27 47.0413 63.6806 47.1053C63.664 46.8957 63.664 46.6852 63.6806 46.4756Z" fill="#263238"/>
<path d="M64.0391 47.1283C64.8608 47.1693 65.8515 47.223 66.9959 47.2947C67.0236 47.0885 67.0279 46.8798 67.0087 46.6726C66.2099 46.6112 65.1168 46.5446 64.0749 46.4985C64.0521 46.7077 64.0401 46.9179 64.0391 47.1283Z" fill="#263238"/>
<path d="M68.1759 46.8723C68.1749 46.8509 68.1665 46.8304 68.152 46.8145C68.1375 46.7986 68.1179 46.7883 68.0966 46.7853C67.9635 46.7648 67.6998 46.7367 67.3465 46.7085C67.3494 46.9142 67.3348 47.1197 67.303 47.3229L68.071 47.3741C68.0959 47.3748 68.1202 47.3659 68.1388 47.3493C68.1574 47.3326 68.1689 47.3094 68.1708 47.2845C68.1913 47.1411 68.1759 46.9619 68.1759 46.8723Z" fill="#263238"/>
<path d="M62.9997 38.1476C62.7872 38.5367 62.567 38.9591 62.3622 39.3713C62.1574 39.7835 61.9526 40.1982 61.7657 40.6155C61.5789 41.0327 61.4048 41.4449 61.2537 41.8494C61.1795 42.0516 61.1155 42.2487 61.0669 42.4331C61.0272 42.5748 60.999 42.7195 60.9824 42.8657L60.9542 42.6481C61.0419 43.0315 61.16 43.4073 61.3075 43.7719C61.4585 44.1687 61.6275 44.5732 61.8195 44.9751C62.0115 45.3771 62.1779 45.7867 62.3673 46.1911L62.6413 46.803L62.7821 47.1076L62.8537 47.2587C62.8819 47.3047 62.8947 47.3636 62.7872 47.4839L62.7104 47.571C62.4164 47.8979 62.0167 48.1109 61.5814 48.1726C61.4176 48.1956 61.3766 48.1547 61.3485 48.1035L61.2537 47.9575L61.0643 47.6631L60.6957 47.0743C60.4576 46.6775 60.2246 46.2731 60.0045 45.8609C59.7843 45.4487 59.5744 45.0263 59.3721 44.5809C59.1497 44.1148 58.9664 43.631 58.8243 43.1345C58.8097 43.0749 58.8011 43.014 58.7987 42.9527V42.9143C58.792 42.5831 58.8247 42.2523 58.896 41.9287C58.9501 41.661 59.0176 41.3961 59.0982 41.1351C59.2467 40.6231 59.4208 40.1547 59.6102 39.6887C59.7997 39.2228 59.9891 38.7697 60.1939 38.3217C60.3987 37.8737 60.6112 37.4359 60.8441 36.9802C60.9925 36.69 61.2501 36.4706 61.5602 36.3702C61.8703 36.2699 62.2077 36.2969 62.4979 36.4452C62.7882 36.5936 63.0076 36.8511 63.1079 37.1613C63.2083 37.4714 63.1813 37.8087 63.0329 38.099L63.0176 38.1246L62.9997 38.1476Z" fill="#0F32EB"/>
<path opacity="0.6" d="M62.9997 38.1476C62.7872 38.5367 62.567 38.9591 62.3622 39.3713C62.1574 39.7835 61.9526 40.1982 61.7657 40.6155C61.5789 41.0327 61.4048 41.4449 61.2537 41.8494C61.1795 42.0516 61.1155 42.2487 61.0669 42.4331C61.0272 42.5748 60.999 42.7195 60.9824 42.8657L60.9542 42.6481C61.0419 43.0315 61.16 43.4073 61.3075 43.7719C61.4585 44.1687 61.6275 44.5732 61.8195 44.9751C62.0115 45.3771 62.1779 45.7867 62.3673 46.1911L62.6413 46.803L62.7821 47.1076L62.8537 47.2587C62.8819 47.3047 62.8947 47.3636 62.7872 47.4839L62.7104 47.571C62.4164 47.8979 62.0167 48.1109 61.5814 48.1726C61.4176 48.1956 61.3766 48.1547 61.3485 48.1035L61.2537 47.9575L61.0643 47.6631L60.6957 47.0743C60.4576 46.6775 60.2246 46.2731 60.0045 45.8609C59.7843 45.4487 59.5744 45.0263 59.3721 44.5809C59.1497 44.1148 58.9664 43.631 58.8243 43.1345C58.8097 43.0749 58.8011 43.014 58.7987 42.9527V42.9143C58.792 42.5831 58.8247 42.2523 58.896 41.9287C58.9501 41.661 59.0176 41.3961 59.0982 41.1351C59.2467 40.6231 59.4208 40.1547 59.6102 39.6887C59.7997 39.2228 59.9891 38.7697 60.1939 38.3217C60.3987 37.8737 60.6112 37.4359 60.8441 36.9802C60.9925 36.69 61.2501 36.4706 61.5602 36.3702C61.8703 36.2699 62.2077 36.2969 62.4979 36.4452C62.7882 36.5936 63.0076 36.8511 63.1079 37.1613C63.2083 37.4714 63.1813 37.8087 63.0329 38.099L63.0176 38.1246L62.9997 38.1476Z" fill="white"/>
<path d="M66.0896 38.9847C66.0896 38.8834 66.1196 38.7844 66.1759 38.7002C66.2321 38.616 66.3121 38.5504 66.4057 38.5116C66.4992 38.4729 66.6022 38.4627 66.7015 38.4825C66.8008 38.5022 66.892 38.551 66.9636 38.6226C67.0352 38.6942 67.084 38.7854 67.1038 38.8848C67.1235 38.9841 67.1134 39.087 67.0746 39.1806C67.0359 39.2741 66.9703 39.3541 66.8861 39.4104C66.8019 39.4666 66.7029 39.4967 66.6016 39.4967C66.4658 39.4967 66.3356 39.4427 66.2396 39.3467C66.1435 39.2507 66.0896 39.1204 66.0896 38.9847Z" fill="#263238"/>
<path d="M66.0896 40.1907C66.0896 40.0894 66.1196 39.9905 66.1759 39.9063C66.2321 39.8221 66.3121 39.7564 66.4057 39.7177C66.4992 39.6789 66.6022 39.6688 66.7015 39.6885C66.8008 39.7083 66.892 39.7571 66.9636 39.8287C67.0352 39.9003 67.084 39.9915 67.1038 40.0908C67.1235 40.1901 67.1134 40.2931 67.0746 40.3866C67.0359 40.4802 66.9703 40.5602 66.8861 40.6164C66.8019 40.6727 66.7029 40.7027 66.6016 40.7027C66.4658 40.7027 66.3356 40.6488 66.2396 40.5528C66.1435 40.4567 66.0896 40.3265 66.0896 40.1907Z" fill="#263238"/>
<path d="M66.64 40.9535C66.6174 40.9535 66.5956 40.9447 66.5794 40.9289C66.5631 40.9132 66.5536 40.8917 66.553 40.869V39.7375C66.5531 39.7177 66.5604 39.6986 66.5735 39.6838C66.5917 39.6453 66.6001 39.603 66.5978 39.5605C66.5956 39.5181 66.5828 39.4768 66.5607 39.4406C66.558 39.4288 66.558 39.4165 66.5607 39.4047V38.286C66.5585 38.2735 66.5591 38.2607 66.5624 38.2484C66.5657 38.2362 66.5717 38.2248 66.5798 38.2151C66.588 38.2054 66.5982 38.1976 66.6097 38.1922C66.6212 38.1869 66.6337 38.1841 66.6464 38.1841C66.6591 38.1841 66.6716 38.1869 66.6832 38.1922C66.6947 38.1976 66.7048 38.2054 66.713 38.2151C66.7212 38.2248 66.7271 38.2362 66.7304 38.2484C66.7338 38.2607 66.7343 38.2735 66.7322 38.286V39.3868C66.7613 39.4453 66.7764 39.5097 66.7764 39.5749C66.7764 39.6402 66.7613 39.7047 66.7322 39.7631V40.869C66.7322 40.8808 66.7298 40.8925 66.7251 40.9032C66.7204 40.914 66.7135 40.9237 66.7048 40.9317C66.6961 40.9396 66.6859 40.9457 66.6747 40.9494C66.6636 40.9532 66.6517 40.9546 66.64 40.9535Z" fill="#263238"/>
</g>
<defs>
<clipPath id="clip0_1541_3152">
<rect width="98" height="76" fill="white"/>
</clipPath>
</defs>
</svg>
