<svg xmlns="http://www.w3.org/2000/svg" width="11" height="10" fill="none" viewBox="0 0 11 10"><path fill="url(#paint0_linear_840_898)" d="M1.62535 3.34992L4.01602 0.959255C4.20361 0.771747 4.45801 0.666441 4.72325 0.666504C4.98849 0.666566 5.24284 0.771992 5.43035 0.959588C5.61786 1.14718 5.72316 1.40159 5.7231 1.66682C5.72304 1.93206 5.61761 2.18641 5.43002 2.37392L3.80402 3.99992H9.66602C9.93123 3.99992 10.1856 4.10528 10.3731 4.29281C10.5607 4.48035 10.666 4.7347 10.666 4.99992C10.666 5.26514 10.5607 5.51949 10.3731 5.70703C10.1856 5.89456 9.93123 5.99992 9.66602 5.99992H3.80402L5.43002 7.62592C5.61761 7.81343 5.72304 8.06778 5.7231 8.33302C5.72316 8.59826 5.61786 8.85266 5.43035 9.04025C5.24284 9.22785 4.98849 9.33328 4.72325 9.33334C4.45801 9.3334 4.20361 9.2281 4.01602 9.04059L1.62535 6.64992C1.18853 6.2119 0.943224 5.61853 0.943224 4.99992C0.943224 4.38131 1.18853 3.78795 1.62535 3.34992Z"/><defs><linearGradient id="paint0_linear_840_898" x1="3.853" x2="9.811" y1="13.417" y2="11.068" gradientUnits="userSpaceOnUse"><stop stop-color="#F98D3D"/><stop offset="1" stop-color="#F9AE3D"/></linearGradient></defs></svg>