<svg xmlns="http://www.w3.org/2000/svg" width="58" height="62" fill="none" viewBox="0 0 58 62"><g clip-path="url(#clip0_2250_5022)" filter="url(#filter0_d_2250_5022)"><path fill="#141B30" d="M27.0002 15C26.7774 15 26.5637 15.0885 26.4062 15.246C26.2487 15.4036 26.1602 15.6172 26.1602 15.84V35.04C26.1602 35.2628 26.2487 35.4764 26.4062 35.634C26.5637 35.7915 26.7774 35.88 27.0002 35.88C27.2229 35.88 27.4366 35.7915 27.5941 35.634C27.7517 35.4764 27.8402 35.2628 27.8402 35.04V26.28H38.1602C38.3829 26.28 38.5966 26.1915 38.7541 26.034C38.9117 25.8764 39.0002 25.6628 39.0002 25.44V15.84C39.0002 15.6172 38.9117 15.4036 38.7541 15.246C38.5966 15.0885 38.3829 15 38.1602 15H27.1202C27.0998 15.0001 27.0795 15.0009 27.0592 15.0024C27.0396 15.0009 27.0199 15.0001 27.0002 15ZM30.3122 16.68H32.6642V18.4632H35.0162V16.68H37.3202V18.4632H35.0162V20.815H37.3202V23.167H35.0162V24.6H32.6642V23.1672H30.3122V24.6H27.9602V23.1672H30.3122V20.815H27.9602V18.463H30.3122V16.68ZM30.3122 18.4632V20.815H32.6642V18.463H30.3122V18.4632ZM32.6642 20.815V23.1672L35.0162 23.167V20.815H32.6642Z"/><path fill="#141B30" d="M24.1217 33.4302C21.5792 33.7897 19.8008 34.6494 19.8008 35.9144C19.8008 37.6184 22.7722 39.0001 27.0008 39.0001C31.2293 39.0001 34.2008 37.6187 34.2008 35.9144C34.2008 34.6491 32.4224 33.7897 29.8801 33.4304L29.5277 34.0302C31.4441 34.2959 32.7608 34.8548 32.7608 35.5031C32.7608 36.4119 30.182 37.1487 27.0008 37.1487C23.8196 37.1487 21.2408 36.4119 21.2408 35.5031C21.2405 34.857 22.5488 34.2987 24.4709 34.0319C24.3548 33.8312 24.2381 33.6311 24.1217 33.4302Z"/></g><defs><filter id="filter0_d_2250_5022" width="62" height="62" x="-4" y="0" color-interpolation-filters="sRGB" filterUnits="userSpaceOnUse"><feFlood flood-opacity="0" result="BackgroundImageFix"/><feColorMatrix in="SourceAlpha" result="hardAlpha" type="matrix" values="0 0 0 0 0 0 0 0 0 0 0 0 0 0 0 0 0 0 127 0"/><feOffset dy="4"/><feGaussianBlur stdDeviation="9.5"/><feColorMatrix type="matrix" values="0 0 0 0 0.7585 0 0 0 0 0.480441 0 0 0 0 0.0615 0 0 0 0.27 0"/><feBlend in2="BackgroundImageFix" mode="normal" result="effect1_dropShadow_2250_5022"/><feBlend in="SourceGraphic" in2="effect1_dropShadow_2250_5022" mode="normal" result="shape"/></filter><clipPath id="clip0_2250_5022"><rect width="24" height="24" fill="#fff" transform="translate(15 15)"/></clipPath></defs></svg>