<svg width="18" height="18" viewBox="0 0 18 18" fill="none" xmlns="http://www.w3.org/2000/svg">
<path d="M14.25 0.749878H3.75C2.7558 0.751069 1.80267 1.14654 1.09966 1.84954C0.396661 2.55255 0.00119089 3.50568 0 4.49988L0 10.4999C0.00119089 11.4941 0.396661 12.4472 1.09966 13.1502C1.80267 13.8532 2.7558 14.2487 3.75 14.2499H8.25V15.7499H5.25C5.05109 15.7499 4.86032 15.8289 4.71967 15.9695C4.57902 16.1102 4.5 16.301 4.5 16.4999C4.5 16.6988 4.57902 16.8896 4.71967 17.0302C4.86032 17.1709 5.05109 17.2499 5.25 17.2499H12.75C12.9489 17.2499 13.1397 17.1709 13.2803 17.0302C13.421 16.8896 13.5 16.6988 13.5 16.4999C13.5 16.301 13.421 16.1102 13.2803 15.9695C13.1397 15.8289 12.9489 15.7499 12.75 15.7499H9.75V14.2499H14.25C15.2442 14.2487 16.1973 13.8532 16.9003 13.1502C17.6033 12.4472 17.9988 11.4941 18 10.4999V4.49988C17.9988 3.50568 17.6033 2.55255 16.9003 1.84954C16.1973 1.14654 15.2442 0.751069 14.25 0.749878V0.749878ZM3.75 2.24988H14.25C14.8467 2.24988 15.419 2.48693 15.841 2.90889C16.2629 3.33084 16.5 3.90314 16.5 4.49988V9.74988H1.5V4.49988C1.5 3.90314 1.73705 3.33084 2.15901 2.90889C2.58097 2.48693 3.15326 2.24988 3.75 2.24988V2.24988ZM14.25 12.7499H3.75C3.2863 12.748 2.83453 12.6028 2.45648 12.3343C2.07842 12.0658 1.79256 11.6871 1.638 11.2499H16.362C16.2074 11.6871 15.9216 12.0658 15.5435 12.3343C15.1655 12.6028 14.7137 12.748 14.25 12.7499Z" fill="#2F66F4"/>
</svg>
