<svg width="30" height="34" viewBox="0 0 30 34" fill="none" xmlns="http://www.w3.org/2000/svg">
<g clip-path="url(#clip0_2202_7547)">
<path d="M28.8352 34.1842H18.5517C18.3308 34.1891 18.1169 34.1062 17.9571 33.9535C17.7972 33.8009 17.7045 33.5911 17.6992 33.3702V14.4082C17.6992 13.8102 18.3511 13.4166 18.9175 13.6719L29.1271 18.2914C29.2701 18.3539 29.3921 18.4561 29.4785 18.586C29.565 18.7159 29.6123 18.8679 29.6147 19.0239L29.6877 33.3644C29.6858 33.4743 29.6623 33.5827 29.6184 33.6835C29.5744 33.7842 29.5111 33.8753 29.4319 33.9515C29.3526 34.0277 29.2591 34.0875 29.1568 34.1274C29.0544 34.1673 28.9451 34.1867 28.8352 34.1842Z" fill="url(#paint0_linear_2202_7547)"/>
<path d="M17.4679 34.1841H1.62792C1.45213 34.1812 1.27864 34.1437 1.11736 34.0737C0.95609 34.0037 0.8102 33.9026 0.688043 33.7762C0.565886 33.6497 0.469858 33.5004 0.405456 33.3368C0.341053 33.1733 0.30954 32.9986 0.312719 32.8228V1.17832C0.312719 0.180879 1.31784 -0.471921 2.18952 -0.0485613L17.9201 7.6612C18.1464 7.77482 18.3367 7.94925 18.4694 8.16494C18.6022 8.38063 18.6723 8.62904 18.6718 8.88232L18.7822 32.817C18.786 32.9932 18.755 33.1684 18.6909 33.3325C18.6269 33.4966 18.5311 33.6465 18.409 33.7735C18.2869 33.9005 18.1409 34.0022 17.9794 34.0726C17.8179 34.1431 17.6441 34.181 17.4679 34.1841Z" fill="url(#paint1_linear_2202_7547)"/>
<path d="M6.19712 28.1943H12.895C13.1527 28.1943 13.3998 28.2967 13.582 28.4789C13.7642 28.6611 13.8666 28.9082 13.8666 29.1659V34.1838H5.22656V29.1659C5.22656 28.9084 5.32879 28.6614 5.51077 28.4792C5.69276 28.2971 5.93963 28.1946 6.19712 28.1943Z" fill="#24285B"/>
<path d="M8.87236 29.3828H6.57796C6.41625 29.3828 6.28516 29.5139 6.28516 29.6756V33.1921C6.28516 33.3538 6.41625 33.4849 6.57796 33.4849H8.87236C9.03406 33.4849 9.16516 33.3538 9.16516 33.1921V29.6756C9.16516 29.5139 9.03406 29.3828 8.87236 29.3828Z" fill="#0099F5"/>
<path d="M12.513 29.3828H10.2186C10.0569 29.3828 9.92578 29.5139 9.92578 29.6756V33.1921C9.92578 33.3538 10.0569 33.4849 10.2186 33.4849H12.513C12.6747 33.4849 12.8058 33.3538 12.8058 33.1921V29.6756C12.8058 29.5139 12.6747 29.3828 12.513 29.3828Z" fill="#0099F5"/>
<path d="M7.15893 20.2393H5.04597C4.70453 20.2393 4.42773 20.5161 4.42773 20.8575V21.1762C4.42773 21.5177 4.70453 21.7945 5.04597 21.7945H7.15893C7.50038 21.7945 7.77717 21.5177 7.77717 21.1762V20.8575C7.77717 20.5161 7.50038 20.2393 7.15893 20.2393Z" fill="#24285B"/>
<path d="M7.15893 15.439H5.04597C4.70453 15.439 4.42773 15.7158 4.42773 16.0572V16.3759C4.42773 16.7174 4.70453 16.9942 5.04597 16.9942H7.15893C7.50038 16.9942 7.77717 16.7174 7.77717 16.3759V16.0572C7.77717 15.7158 7.50038 15.439 7.15893 15.439Z" fill="#24285B"/>
<path d="M7.15893 10.6392H5.04597C4.70453 10.6392 4.42773 10.916 4.42773 11.2574V11.5761C4.42773 11.9176 4.70453 12.1944 5.04597 12.1944H7.15893C7.50038 12.1944 7.77717 11.9176 7.77717 11.5761V11.2574C7.77717 10.916 7.50038 10.6392 7.15893 10.6392Z" fill="#24285B"/>
<path d="M13.2859 22.6475H11.1729C10.8315 22.6475 10.5547 22.9243 10.5547 23.2657V23.5844C10.5547 23.9259 10.8315 24.2027 11.1729 24.2027H13.2859C13.6273 24.2027 13.9041 23.9259 13.9041 23.5844V23.2657C13.9041 22.9243 13.6273 22.6475 13.2859 22.6475Z" fill="#24285B"/>
<path d="M13.2859 17.8477H11.1729C10.8315 17.8477 10.5547 18.1245 10.5547 18.4659V18.7846C10.5547 19.1261 10.8315 19.4029 11.1729 19.4029H13.2859C13.6273 19.4029 13.9041 19.1261 13.9041 18.7846V18.4659C13.9041 18.1245 13.6273 17.8477 13.2859 17.8477Z" fill="#24285B"/>
<path d="M13.2859 13.0479H11.1729C10.8315 13.0479 10.5547 13.3246 10.5547 13.6661V13.9848C10.5547 14.3263 10.8315 14.6031 11.1729 14.6031H13.2859C13.6273 14.6031 13.9041 14.3263 13.9041 13.9848V13.6661C13.9041 13.3246 13.6273 13.0479 13.2859 13.0479Z" fill="#24285B"/>
<path d="M25.8779 29.6338H21.5128C21.1713 29.6338 20.8945 29.9106 20.8945 30.252V30.5707C20.8945 30.9122 21.1713 31.189 21.5128 31.189H25.8779C26.2193 31.189 26.4961 30.9122 26.4961 30.5707V30.252C26.4961 29.9106 26.2193 29.6338 25.8779 29.6338Z" fill="#24285B"/>
<path d="M25.8779 24.8335H21.5128C21.1713 24.8335 20.8945 25.1103 20.8945 25.4517V25.7705C20.8945 26.1119 21.1713 26.3887 21.5128 26.3887H25.8779C26.2193 26.3887 26.4961 26.1119 26.4961 25.7705V25.4517C26.4961 25.1103 26.2193 24.8335 25.8779 24.8335Z" fill="#24285B"/>
<path d="M25.8779 20.0337H21.5128C21.1713 20.0337 20.8945 20.3105 20.8945 20.6519V20.9706C20.8945 21.3121 21.1713 21.5889 21.5128 21.5889H25.8779C26.2193 21.5889 26.4961 21.3121 26.4961 20.9706V20.6519C26.4961 20.3105 26.2193 20.0337 25.8779 20.0337Z" fill="#24285B"/>
</g>
<defs>
<linearGradient id="paint0_linear_2202_7547" x1="26.0995" y1="43.8863" x2="17.9533" y2="42.2197" gradientUnits="userSpaceOnUse">
<stop stop-color="#F98D3D"/>
<stop offset="1" stop-color="#F9AE3D"/>
</linearGradient>
<linearGradient id="paint1_linear_2202_7547" x1="13.2543" y1="50.3747" x2="0.629025" y2="47.9902" gradientUnits="userSpaceOnUse">
<stop stop-color="#F98D3D"/>
<stop offset="1" stop-color="#F9AE3D"/>
</linearGradient>
<clipPath id="clip0_2202_7547">
<rect width="30" height="34" fill="white"/>
</clipPath>
</defs>
</svg>
