<svg xmlns="http://www.w3.org/2000/svg" width="221" height="61" fill="none" viewBox="0 0 221 61"><path fill="#fff" d="M221 30.9999L203.716 46.3159L199.094 23.6891L221 30.9999ZM3.9351 0.494755C4.46906 2.5394 5.05568 4.51403 5.69255 6.42074L1.8986 7.68799C1.23264 5.6942 0.620746 3.63392 0.0648981 1.50546L3.9351 0.494755ZM10.3498 17.5579C12.2664 21.2894 14.4218 24.6921 16.7894 27.7907L13.6111 30.2193C11.0959 26.9276 8.81416 23.3232 6.79166 19.3854L10.3498 17.5579ZM24.9684 36.6183C27.9886 39.3106 31.2332 41.6835 34.6727 43.7639L32.6025 47.1865C28.9628 44.985 25.5187 42.4675 22.3067 39.6041L24.9684 36.6183ZM45.5204 49.1447C49.2291 50.6322 53.0965 51.867 57.0947 52.873L56.1187 56.7521C51.9618 55.7062 47.9216 54.4175 44.0313 52.8572L45.5204 49.1447ZM69.1012 55.18C73.0949 55.7314 77.1774 56.0986 81.3237 56.3027L81.1271 60.2979C76.8748 60.0886 72.6747 59.7114 68.5541 59.1424L69.1012 55.18ZM93.6203 56.4534C97.701 56.3627 101.815 56.1405 105.941 55.8058L106.264 59.7927C102.068 60.1331 97.8749 60.3599 93.7092 60.4524L93.6203 56.4534ZM118.224 54.4977C122.321 53.9628 126.405 53.3362 130.454 52.637L131.135 56.5787C127.037 57.2864 122.898 57.9214 118.742 58.464L118.224 54.4977ZM142.605 50.3133C146.712 49.4552 150.755 48.54 154.709 47.5895L155.644 51.4787C151.655 52.4376 147.573 53.3617 143.423 54.2287L142.605 50.3133ZM166.725 44.5342C170.865 43.4269 174.864 42.3042 178.686 41.1954L179.801 45.037C175.955 46.1525 171.93 47.2829 167.759 48.3984L166.725 44.5342ZM190.543 37.6491C194.874 36.3192 198.856 35.0655 202.426 33.9463L203.622 37.7631C200.058 38.8805 196.063 40.1387 191.717 41.4729L190.543 37.6491Z"/></svg>