<svg width="10" height="8" viewBox="0 0 10 8" fill="none" xmlns="http://www.w3.org/2000/svg">
<path d="M1.33333 3.33337H8L5.80667 1.14004C5.74418 1.07806 5.69459 1.00433 5.66074 0.92309C5.62689 0.841851 5.60947 0.754714 5.60947 0.666706C5.60947 0.578698 5.62689 0.491561 5.66074 0.410322C5.69459 0.329082 5.74418 0.255348 5.80667 0.193373C5.93158 0.069206 6.10054 -0.000488281 6.27667 -0.000488281C6.45279 -0.000488281 6.62176 0.069206 6.74667 0.193373L9.60667 3.06004C9.85706 3.30894 9.99851 3.64698 10 4.00004V4.00004C9.99676 4.35077 9.85544 4.6861 9.60667 4.93337L6.74667 7.80003C6.68451 7.86175 6.6108 7.91063 6.52975 7.94386C6.44871 7.9771 6.36191 7.99404 6.27431 7.99373C6.18671 7.99343 6.10004 7.97586 6.01923 7.94206C5.93841 7.90825 5.86505 7.85886 5.80333 7.7967C5.74161 7.73454 5.69274 7.66083 5.6595 7.57978C5.62627 7.49874 5.60932 7.41194 5.60963 7.32434C5.60994 7.23674 5.6275 7.15007 5.66131 7.06926C5.69511 6.98845 5.74451 6.91509 5.80667 6.85337L8 4.6667H1.33333C1.15652 4.6667 0.986953 4.59646 0.861929 4.47144C0.736905 4.34641 0.666667 4.17685 0.666667 4.00004C0.666667 3.82322 0.736905 3.65366 0.861929 3.52863C0.986953 3.40361 1.15652 3.33337 1.33333 3.33337Z" fill="white"/>
</svg>
