<svg xmlns="http://www.w3.org/2000/svg" width="330" height="69" fill="none" viewBox="0 0 330 69"><path fill="#fff" d="M330 48.889L292.236 22.2959L288.088 68.2972L330 48.889ZM16.2863 20.1922C18.4241 19.6354 19.7058 17.4509 19.149 15.3131C18.5922 13.1753 16.4077 11.8936 14.2699 12.4505L16.2863 20.1922ZM41.6676 6.52803C39.4924 6.91351 38.0415 8.9894 38.427 11.1646C38.8125 13.3399 40.8883 14.7908 43.0636 14.4053L41.6676 6.52803ZM70.2449 10.519C72.4409 10.2778 74.0255 8.30206 73.7842 6.10614C73.543 3.91021 71.5673 2.3256 69.3714 2.56682L70.2449 10.519ZM97.2635 0.41225C95.0565 0.510468 93.347 2.37918 93.4453 4.58613C93.5435 6.79309 95.4122 8.50256 97.6191 8.40434L97.2635 0.41225ZM125.065 8.11293C127.273 8.16624 129.107 6.41911 129.16 4.21061C129.214 2.00212 127.467 0.168565 125.258 0.115262L125.065 8.11293ZM153.217 1.82528C151.019 1.60617 149.059 3.21059 148.84 5.40884C148.621 7.60708 150.226 9.56673 152.424 9.78583L153.217 1.82528ZM179.533 13.6237C181.705 14.0271 183.793 12.5934 184.196 10.4214C184.6 8.24942 183.166 6.16163 180.994 5.7582L179.533 13.6237ZM208.339 12.1717C206.215 11.5631 204 12.7914 203.392 14.915C202.783 17.0387 204.011 19.2536 206.135 19.8622L208.339 12.1717ZM232.67 28.5466C234.766 29.2465 237.032 28.1153 237.732 26.0199C238.431 23.9246 237.3 21.6586 235.205 20.9587L232.67 28.5466ZM262.136 29.6213C260.024 28.9716 257.786 30.1567 257.137 32.2681C256.487 34.3796 257.672 36.6179 259.783 37.2675L262.136 29.6213ZM287.206 45.1843C289.341 45.7522 291.532 44.4818 292.1 42.3469C292.668 40.2119 291.397 38.0209 289.262 37.4531L287.206 45.1843ZM316.6 43.6773C314.423 43.3029 312.354 44.7642 311.979 46.9414C311.605 49.1185 313.066 51.1871 315.244 51.5616L316.6 43.6773ZM3.24291 23.9818C6.98902 22.7571 11.361 21.475 16.2863 20.1922L14.2699 12.4505C9.20803 13.7689 4.67782 15.0961 0.757089 16.3778L3.24291 23.9818ZM43.0636 14.4053C51.46 12.9173 60.5759 11.5811 70.2449 10.519L69.3714 2.56682C59.5222 3.64875 50.2321 5.01028 41.6676 6.52803L43.0636 14.4053ZM97.6191 8.40434C106.517 8.00835 115.699 7.88688 125.065 8.11293L125.258 0.115262C115.698 -0.115487 106.332 0.00865197 97.2635 0.41225L97.6191 8.40434ZM152.424 9.78583C161.414 10.6819 170.477 11.9416 179.533 13.6237L180.994 5.7582C171.701 4.03218 162.415 2.74199 153.217 1.82528L152.424 9.78583ZM206.135 19.8622C210.499 21.1129 214.843 22.4773 219.156 23.962L221.76 16.3976C217.31 14.8659 212.833 13.4597 208.339 12.1717L206.135 19.8622ZM219.156 23.962C223.849 25.5774 228.352 27.104 232.67 28.5466L235.205 20.9587C230.91 19.5241 226.431 18.0054 221.76 16.3976L219.156 23.962ZM259.783 37.2675C270.372 40.5255 279.447 43.1206 287.206 45.1843L289.262 37.4531C281.614 35.419 272.639 32.853 262.136 29.6213L259.783 37.2675Z"/></svg>