<svg width="491" height="541" viewBox="0 0 491 541" fill="none" xmlns="http://www.w3.org/2000/svg">
<path d="M64.4043 328.601C64.4043 328.601 27.0609 175.389 40.1585 178.253C53.2561 181.116 61.8458 171.734 66.5365 196.224C71.2273 220.774 111.068 334.693 111.068 334.693L64.4043 328.601Z" fill="#FCCDAA"/>
<path d="M34.4954 158.633C41.8666 157.475 34.4344 148.642 34.4344 148.642C21.215 130.549 31.3886 128.356 34.5564 127.381C37.7242 126.406 39.9781 141.088 49.7251 148.581C59.4722 156.074 65.3204 183.975 66.8434 196.524C68.4273 209.074 48.6286 206.393 48.6286 206.393C43.085 208.647 37.2976 208.099 31.9367 206.759C31.9976 206.515 31.9977 206.271 32.0587 206.028C49.4815 192.016 45.5827 173.131 34.4954 158.633Z" fill="#FCCDAA"/>
<path d="M303.269 216.931L293.949 316.778L356.817 295.395L366.93 192.686L303.269 216.931Z" fill="#FCCDAA"/>
<path d="M347.316 40.1505C391.726 52.3343 389.228 83.0986 389.228 83.0986C389.228 83.0986 386.791 106.857 384.72 135.184C389.106 129.641 396.234 127.569 403.3 130.981C418.287 138.169 404.945 185.808 381.918 180.63C380.334 194.032 378.567 204.449 376.679 207.983C369.551 221.385 340.005 241.001 314.419 243.194C288.833 245.387 247.53 218.826 248.871 188.793C250.15 158.821 263.796 69.2089 263.796 69.2089C263.796 69.2089 273.726 20.0472 347.316 40.1505Z" fill="#FCCDAA"/>
<path d="M318.498 98.1434C318.498 98.1434 321.239 98.1434 324.894 98.0216C326.722 98.0216 328.854 97.8997 330.986 97.9606C332.083 97.8997 333.179 98.0826 334.215 98.0826C335.311 98.0216 336.347 98.3262 337.444 98.3871C338.479 98.6308 339.515 98.6917 340.49 98.9963C341.403 99.3618 342.5 99.4837 343.292 99.971C345.12 100.641 346.764 101.616 348.165 102.651C349.627 103.626 350.785 104.662 351.577 105.454C352.43 106.185 353.039 106.611 353.039 106.611C353.039 106.611 353.039 105.941 352.856 104.784C352.674 103.565 352.369 101.86 351.272 100.032C350.846 99.0573 350.176 98.0826 349.323 97.1688C348.531 96.1941 347.556 95.2802 346.399 94.5492C344.206 92.8434 341.282 91.9906 338.479 91.3814C337.078 91.3205 335.616 91.0768 334.276 91.1987C332.875 91.1987 331.595 91.4423 330.316 91.686C327.819 92.1733 325.625 93.0871 323.859 94.0009C320.265 96.0112 318.498 98.1434 318.498 98.1434Z" fill="#141B30"/>
<path d="M291.881 95.7055C291.881 95.7055 291.089 93.3907 288.652 90.893C287.434 89.6746 285.85 88.3344 283.779 87.4206C281.768 86.3849 279.271 85.8367 276.651 85.7148C275.311 85.8367 274.031 85.8976 272.752 86.3241C271.473 86.5677 270.376 87.2986 269.341 87.9078C268.244 88.4561 267.513 89.4308 266.721 90.1618C265.929 90.8928 265.503 91.8068 265.016 92.5987C264.041 94.1217 263.797 95.6445 263.614 96.6192C263.432 97.6548 263.432 98.2032 263.432 98.2032C263.432 98.2032 263.98 97.8986 264.833 97.4112C265.686 96.9238 266.721 96.0711 268.061 95.401C268.732 95.0354 269.341 94.609 270.072 94.3045C270.803 94.0608 271.473 93.6343 272.204 93.4515C273.666 92.9641 275.128 92.7205 276.773 92.7205C279.941 92.5987 283.596 93.5734 286.642 94.3045C289.505 95.1573 291.881 95.7055 291.881 95.7055Z" fill="#141B30"/>
<path d="M336.834 189.396L279.814 189.945C279.814 189.945 292.485 216.871 336.834 189.396Z" fill="white"/>
<path d="M175.5 539C175.5 539 299.5 539 419.015 539V373.495L474.512 362.896C474.512 362.896 483.528 325.552 460.744 298.87C456.053 293.387 417.918 267.435 368.452 266.278C363.761 266.156 359.375 265.12 355.415 265.12H314.173H310.639L254.168 263.963L201.168 338.223L175.5 539Z" fill="url(#paint0_linear_2202_7884)"/>
<path d="M314.172 265.121C314.172 265.121 245.942 253.364 208.234 272.188C170.525 291.073 110.215 302.526 110.215 302.526L74.3944 205.786L31.9947 216.386C31.9947 216.386 56.2405 390.005 82.192 382.939C108.144 375.872 237.718 342.854 237.718 342.854L314.172 265.121Z" fill="url(#paint1_linear_2202_7884)"/>
<path d="M286.334 465.484C312.773 456.163 339.273 444.041 361.508 426.618C379.54 412.484 396.963 390.31 418.955 382.756V540C299 540 174.5 540 174.5 540L184.234 469.017C218.531 476.145 255.387 476.389 286.334 465.484Z" fill="url(#paint2_linear_2202_7884)"/>
<path d="M370.828 278.039L373.143 235.64L295.41 239.173L296.567 272.191L370.828 278.039Z" fill="#FCCDAA"/>
<path d="M388.678 129.759C374.91 161.376 387.399 213.279 364.006 232.225C340.126 251.537 298.762 258.238 275.125 250.257C248.808 241.424 233.213 222.6 237.294 196.039C242.107 164.788 254.961 129.211 254.961 129.211C254.961 129.211 250.026 162.168 282.984 160.036C311.737 158.148 365.285 202.07 372.839 130.003C381.002 52.7577 319.779 60.1289 296.264 62.0174C272.749 63.9059 257.946 52.1485 263.672 32.5326L271.652 40.3302C271.652 40.3302 261.966 17.7293 277.196 5.72823C277.196 5.72823 278.597 18.2166 287.674 21.1407C287.674 21.1407 285.177 6.39831 297.909 0.18457C297.909 0.18457 294.558 12.4293 302.538 13.0994C310.519 13.7695 369.306 2.31673 379.297 41.4877C379.297 41.4877 394.039 38.9901 398.852 60.6164C403.847 82.1817 402.507 98.1424 388.678 129.759Z" fill="#141B30"/>
<path d="M297.785 102.831C292.973 111.36 288.891 120.132 285.175 129.026C281.459 137.981 278.108 146.997 275.123 156.257L274.514 158.206L276.342 158.572C282.007 159.729 287.794 160.643 293.582 161.313C288.221 158.998 282.738 156.988 277.194 155.161L278.352 157.475C282.373 148.703 286.028 139.687 289.317 130.61C292.668 121.594 295.531 112.395 297.785 102.831Z" fill="#7F6654"/>
<path d="M323.617 182.27L270.496 174.898C270.496 174.898 281.035 213.217 323.617 182.27Z" fill="white"/>
<path d="M336.288 122.997C336.288 122.997 336.409 122.509 336.592 121.656C336.653 121.23 336.775 120.743 336.714 120.133C336.714 119.524 336.775 118.732 336.592 118.001C336.348 116.478 335.617 114.651 334.216 113.006C333.424 112.275 332.571 111.483 331.475 110.996C330.378 110.508 329.16 110.203 327.942 110.143C326.723 110.143 325.505 110.325 324.469 110.752C323.373 111.056 322.52 111.787 321.606 112.336C320.022 113.676 318.926 115.138 318.316 116.539C317.646 117.879 317.342 119.159 317.159 119.951C316.976 120.804 316.915 121.291 316.915 121.291C316.915 121.291 317.342 120.986 317.89 120.377C318.438 119.707 319.352 118.976 320.327 118.123C321.362 117.27 322.52 116.356 323.799 115.625C324.469 115.321 325.139 115.016 325.809 114.833C326.48 114.59 327.15 114.529 327.759 114.59C330.378 114.468 332.754 116.6 334.094 118.854C334.764 119.89 335.374 120.925 335.678 121.717C336.044 122.57 336.288 122.997 336.288 122.997Z" fill="#50586F"/>
<path d="M283.289 115.931C283.289 115.931 283.411 115.444 283.593 114.652C283.715 113.86 283.898 112.642 283.776 111.119C283.593 109.657 283.228 107.89 282.131 106.184C281.583 105.331 280.913 104.418 279.999 103.808C279.146 103.077 277.989 102.529 276.832 102.224C275.613 101.981 274.334 102.042 273.176 102.285C272.019 102.529 271.044 103.199 270.191 103.747C268.607 105.027 267.572 106.55 266.963 107.829C266.293 109.169 266.049 110.327 265.866 111.18C265.683 111.971 265.683 112.459 265.683 112.459C265.683 112.459 266.11 112.154 266.658 111.606C267.145 110.997 268.059 110.266 269.034 109.413C270.009 108.56 271.166 107.707 272.324 107.098C273.542 106.55 274.699 106.306 275.796 106.611C276.892 106.793 277.989 107.585 278.964 108.56C279.938 109.535 280.669 110.753 281.34 111.85C281.888 112.946 282.558 113.921 282.741 114.713C283.045 115.505 283.289 115.931 283.289 115.931Z" fill="#50586F"/>
<path d="M34.9828 158.637C34.9828 158.637 3.6704 151.144 4.15775 165.643C4.15775 165.643 -4.37093 174.11 3.00028 179.837C3.00028 179.837 -3.21333 189.645 4.09696 193.239C4.09696 193.239 0.807211 205.301 11.5899 206.641C22.3726 207.981 48.8115 215.84 54.9034 200.488C60.9344 185.258 34.9828 158.637 34.9828 158.637Z" fill="#FCCDAA"/>
<path d="M328.5 540C319.5 540 271 540 271 540C268 540 275 540.022 260 540C245 539.978 248.017 499.25 262.272 501.189C262.272 501.189 290.781 482.167 302.782 510.821L330.682 516.757L332 539.853C332 539.853 329.92 540 328.5 540Z" fill="#FFBFA1"/>
<path d="M474.634 328.719C474.634 328.719 493.092 474.864 490.717 532.615L329.5 540L323.372 505.567L432.173 478.336L401.47 350.04L474.634 328.719Z" fill="url(#paint3_linear_2202_7884)"/>
<defs>
<linearGradient id="paint0_linear_2202_7884" x1="399.9" y1="454.983" x2="218.901" y2="455.074" gradientUnits="userSpaceOnUse">
<stop stop-color="#2F66F4"/>
<stop offset="1" stop-color="#0D9AE9"/>
</linearGradient>
<linearGradient id="paint1_linear_2202_7884" x1="245.011" y1="294.467" x2="81.0993" y2="294.628" gradientUnits="userSpaceOnUse">
<stop stop-color="#2F66F4"/>
<stop offset="1" stop-color="#0D9AE9"/>
</linearGradient>
<linearGradient id="paint2_linear_2202_7884" x1="359.04" y1="461.378" x2="217.04" y2="461.514" gradientUnits="userSpaceOnUse">
<stop stop-color="#2F66F4"/>
<stop offset="1" stop-color="#0D9AE9"/>
</linearGradient>
<linearGradient id="paint3_linear_2202_7884" x1="449.86" y1="434.359" x2="352.53" y2="434.407" gradientUnits="userSpaceOnUse">
<stop stop-color="#2F66F4"/>
<stop offset="1" stop-color="#0D9AE9"/>
</linearGradient>
</defs>
</svg>
