<svg width="40" height="28" viewBox="0 0 40 28" fill="none" xmlns="http://www.w3.org/2000/svg">
<rect y="0.792725" width="39.8135" height="26.4146" rx="13.2073" fill="#0E9AE9"/>
<path d="M9.77265 15.4403C9.77265 13.9927 10.5261 13.3279 11.7375 13.3279C13.1999 13.3279 13.7614 14.2733 13.7614 15.4403C13.7614 16.6074 13.1999 17.5528 11.7375 17.5528C10.5261 17.5528 9.77265 16.888 9.77265 15.4403ZM8 8.79272V15.4403C8 17.5233 9.32958 19.2073 11.7523 19.2073C14.2489 19.2073 15.5341 17.42 15.5341 15.4551C15.5341 13.3426 14.042 11.6734 11.9443 11.6734C10.984 11.6734 10.275 12.0278 9.77265 12.5893V8.79272H8Z" fill="white"/>
<path d="M22.6518 17.0654C22.0903 17.3313 21.0858 17.4938 20.1699 17.4938C17.9984 17.4938 17.3041 16.2233 17.3041 14.5835C17.3041 12.9586 17.9984 11.7028 20.1699 11.7028C21.0858 11.7028 22.0903 11.8654 22.6518 12.1314V10.3143C21.9279 10.0926 20.9971 9.98926 20.0813 9.98926C17.171 9.98926 15.5312 12.0279 15.5312 14.5984C15.5312 17.1687 17.171 19.2073 20.0813 19.2073C20.9971 19.2073 21.9279 19.0893 22.6518 18.8824V17.0654Z" fill="white"/>
<path d="M31.8152 10.1665H29.8948L27.2356 17.2424L24.5767 10.1665H22.6562L26.3493 19.2073H28.1221L31.8152 10.1665Z" fill="white"/>
</svg>
