<svg xmlns="http://www.w3.org/2000/svg" width="41" height="28" fill="none" viewBox="0 0 41 28"><rect width="38.813" height="25.415" x="1.094" y="1.293" fill="#0E9AE9" rx="12.707"/><path fill="#fff" d="M10.3664 15.4403C10.3664 13.9927 11.1198 13.3279 12.3312 13.3279C13.7937 13.3279 14.3551 14.2733 14.3551 15.4403C14.3551 16.6074 13.7937 17.5528 12.3312 17.5528C11.1198 17.5528 10.3664 16.888 10.3664 15.4403ZM8.59375 8.79272V15.4403C8.59375 17.5233 9.92333 19.2073 12.3461 19.2073C14.8426 19.2073 16.1278 17.42 16.1278 15.4551C16.1278 13.3426 14.6358 11.6734 12.5381 11.6734C11.5778 11.6734 10.8688 12.0278 10.3664 12.5893V8.79272H8.59375Z"/><path fill="#fff" d="M23.2455 17.0654C22.6841 17.3313 21.6795 17.4938 20.7637 17.4938C18.5922 17.4938 17.8978 16.2233 17.8978 14.5835C17.8978 12.9586 18.5922 11.7028 20.7637 11.7028C21.6795 11.7028 22.6841 11.8654 23.2455 12.1314V10.3143C22.5216 10.0926 21.5909 9.98926 20.675 9.98926C17.7648 9.98926 16.125 12.0279 16.125 14.5984C16.125 17.1687 17.7648 19.2073 20.675 19.2073C21.5909 19.2073 22.5216 19.0893 23.2455 18.8824V17.0654Z"/><path fill="#fff" d="M32.409 10.1665H30.4885L27.8294 17.2424L25.1704 10.1665H23.25L26.9431 19.2073H28.7159L32.409 10.1665Z"/><rect width="38.813" height="25.415" x="1.094" y="1.293" stroke="#fff" rx="12.707"/></svg>