<svg width="2202" height="359" viewBox="0 0 2202 359" fill="none" xmlns="http://www.w3.org/2000/svg">
<path d="M138.23 2.86708e-05L2063.77 2.94558e-06C2063.77 2.94558e-06 2374.79 110.253 2063.77 231.511C1897.89 296.181 1835 297.933 1625.5 260.108C1416 222.283 1329.11 328.887 1101 328.887C872.892 328.887 777.521 273.156 569.471 287.819C361.42 302.481 304.106 402.043 138.23 337.372C-172.787 216.115 138.23 2.86708e-05 138.23 2.86708e-05Z" fill="url(#paint0_linear_52_1648)"/>
<mask id="mask0_52_1648" style="mask-type:alpha" maskUnits="userSpaceOnUse" x="0" y="0" width="2202" height="359">
<path d="M138.23 2.86708e-05L2063.77 2.94557e-06C2063.77 2.94557e-06 2374.79 110.253 2063.77 231.511C1897.89 296.181 1835 297.933 1625.5 260.108C1416 222.283 1329.11 328.887 1101 328.887C872.892 328.887 777.521 273.156 569.471 287.819C361.42 302.481 304.106 402.043 138.23 337.372C-172.787 216.115 138.23 2.86708e-05 138.23 2.86708e-05Z" fill="url(#paint1_linear_52_1648)"/>
</mask>
<g mask="url(#mask0_52_1648)">
<rect opacity="0.06" width="145.995" height="145.995" rx="22.7893" transform="matrix(-0.556978 0.754537 -0.964714 -0.435632 622.141 112.125)" fill="white"/>
<rect opacity="0.06" width="145.995" height="145.995" rx="22.7893" transform="matrix(-0.556978 0.754537 -0.964714 -0.435632 462.023 213.402)" fill="white"/>
<rect opacity="0.06" width="145.995" height="145.995" rx="22.7893" transform="matrix(-0.556978 0.754537 -0.964714 -0.435632 295.57 138.238)" fill="white"/>
<rect opacity="0.06" width="145.995" height="145.995" rx="22.7893" transform="matrix(-0.556978 0.754537 -0.964714 -0.435632 455.691 36.961)" fill="white"/>
<rect opacity="0.06" width="145.995" height="145.995" rx="22.7893" transform="matrix(-0.556978 0.754537 -0.964714 -0.435632 2152.14 124.639)" fill="white"/>
<rect opacity="0.06" width="145.995" height="145.995" rx="22.7893" transform="matrix(-0.556978 0.754537 -0.964714 -0.435632 1992.02 225.916)" fill="white"/>
<rect opacity="0.06" width="145.995" height="145.995" rx="22.7893" transform="matrix(-0.556978 0.754537 -0.964714 -0.435632 1825.57 150.752)" fill="white"/>
<rect opacity="0.06" width="145.995" height="145.995" rx="22.7893" transform="matrix(-0.556978 0.754537 -0.964714 -0.435632 1985.69 49.4746)" fill="white"/>
<rect opacity="0.06" width="145.995" height="145.995" rx="22.7893" transform="matrix(-0.556978 0.754537 -0.964714 -0.435632 1373.14 162.963)" fill="white"/>
<rect opacity="0.06" width="145.995" height="145.995" rx="22.7893" transform="matrix(-0.556978 0.754537 -0.964714 -0.435632 1213.02 264.24)" fill="white"/>
<rect opacity="0.06" width="145.995" height="145.995" rx="22.7893" transform="matrix(-0.556978 0.754537 -0.964714 -0.435632 1046.57 189.076)" fill="white"/>
<rect opacity="0.06" width="145.995" height="145.995" rx="22.7893" transform="matrix(-0.556978 0.754537 -0.964714 -0.435632 1206.69 87.7988)" fill="white"/>
</g>
<defs>
<linearGradient id="paint0_linear_52_1648" x1="2369.5" y1="27" x2="274.273" y2="351.067" gradientUnits="userSpaceOnUse">
<stop stop-color="#2F66F4"/>
<stop offset="1" stop-color="#0D9AE9"/>
</linearGradient>
<linearGradient id="paint1_linear_52_1648" x1="1542.92" y1="528.144" x2="1266.8" y2="-67.0046" gradientUnits="userSpaceOnUse">
<stop stop-color="#F98D3D"/>
<stop offset="1" stop-color="#F9AE3D"/>
</linearGradient>
</defs>
</svg>
