<svg width="606" height="812" viewBox="0 0 606 812" fill="none" xmlns="http://www.w3.org/2000/svg">
<path d="M117.65 461.667L113.826 501.715C113.826 501.715 95.9581 539.361 97.2767 551.371C98.5295 563.381 87.057 629.065 85.8043 637.887C84.5515 646.708 84.5515 657.103 84.5515 657.103L68.0019 688.33L70.5735 703.57L79.4744 708.375L83.2987 715.581L108.749 718L94.7712 707.588C94.7712 707.588 94.5076 683.94 99.8483 684.354C110.068 685.141 102.947 701.914 108.749 706.801C112.573 709.99 120.222 685.969 120.222 685.969C120.222 685.969 122.793 665.924 110.002 657.931C110.002 657.931 131.694 617.055 149.563 572.99C167.431 528.924 170.002 448 170.002 448L117.65 461.667Z" fill="#FCCDAA"/>
<path opacity="0.5" d="M156.84 565.231C163.168 545.069 166.949 532.21 166.949 532.21L97.8336 541.349L94.243 552.241C115.057 556.137 136.001 560.488 156.84 565.231Z" fill="#897160"/>
<path d="M363.877 337.229L387.096 329.327L397.127 352.443C397.127 352.443 490.658 357.917 515.795 395.253C550.675 447.054 393.386 694.274 393.386 694.274L388 718L179.5 718L89 718C89 718 130.379 625.398 142.813 554.834C142.813 554.834 85.1613 539.386 84.8479 534.594C84.5346 529.802 119.247 403.08 158.639 377.486C198.032 351.891 270.791 353.312 270.791 353.312L363.877 337.229Z" fill="url(#paint0_linear_53_1730)"/>
<path d="M300.431 284.412L277.535 398.412L365.766 384.138L390.093 266.991L300.431 284.412Z" fill="#FAB887"/>
<path d="M304.932 364.895C329.823 358.281 352.078 346.758 375.482 337.224L390.019 266.971L300.357 284.392L282.981 371.203C290.129 368.999 297.434 366.837 304.932 364.895Z" fill="#FAB887"/>
<path d="M389.316 95.338C445.033 122.71 433.948 158.747 433.948 158.747C433.948 158.747 424.776 186.386 414.96 219.569C422.18 214.274 432.135 213.831 440.601 219.883C458.664 232.793 429.072 285.814 399.9 272.953C394.478 288.482 389.51 300.434 386.179 304.081C373.435 318.069 315.8 346.173 281.449 341.341C247.099 336.508 232.702 281.368 241.945 245.93C251.189 210.492 271.704 105.69 271.704 105.69C271.704 105.69 297.067 49.939 389.316 95.338Z" fill="#FCCDAA"/>
<path d="M320.712 165.762C320.712 165.762 322.109 161.176 327.032 156.611C329.493 154.328 332.645 151.978 336.826 150.492C338.83 149.6 341.201 149.226 343.649 148.873C346.191 148.798 348.697 148.545 351.343 149.338C353.973 149.874 356.499 150.803 358.72 152.239C361.104 153.382 362.744 155.419 364.51 156.985C366.056 158.744 367.027 160.77 368.081 162.482C369.015 164.329 369.358 166.187 369.765 167.809C370.755 171.016 370.291 174.003 370.199 175.912C370.009 177.878 369.715 178.977 369.715 178.977C369.715 178.977 368.721 178.29 367.206 177.043C365.669 175.875 363.987 173.995 361.73 172.381C360.601 171.574 359.614 170.553 358.385 169.804C357.314 169.096 356.086 168.347 354.957 167.54C353.723 167.125 352.714 166.183 351.495 166.024C350.34 165.631 349.284 165.179 347.987 165C346.852 164.528 345.45 164.741 344.195 164.404C342.835 164.46 341.381 164.239 339.922 164.352C336.987 164.322 333.848 164.742 331.028 164.912C325.404 165.506 320.712 165.762 320.712 165.762Z" fill="#141B30"/>
<path d="M265.778 151.466C265.778 151.466 266.41 147.852 269.563 144.241C272.539 140.667 278.632 136.751 286.456 137.671C288.402 137.94 290.227 138.345 291.983 139.32C293.824 139.981 295.162 141.264 296.541 142.391C297.921 143.517 298.625 144.967 299.471 146.202C300.317 147.438 300.529 148.84 300.962 150.048C301.77 152.367 301.438 154.548 301.316 155.944C301.095 157.398 300.884 158.182 300.884 158.182C300.884 158.182 300.064 157.794 298.794 157.202C297.523 156.609 296.044 155.54 294.303 154.821C293.382 154.491 292.625 153.868 291.762 153.636C290.899 153.405 290.121 152.86 289.315 152.728C287.746 152.308 286.413 151.951 284.917 151.886C282.03 151.365 277.594 151.605 273.499 151.517C269.34 151.664 265.778 151.466 265.778 151.466Z" fill="#141B30"/>
<path d="M327.991 294.825L260.319 277.869C260.319 277.869 265.954 316.453 327.991 294.825Z" fill="white"/>
<path d="M357.976 202.062C356.168 208.807 351.56 213.457 347.716 212.427C343.873 211.397 342.207 205.066 344.014 198.321C345.822 191.575 350.43 186.925 354.274 187.955C358.117 188.985 359.783 195.316 357.976 202.062Z" fill="#20242E"/>
<path d="M293.254 187.911C291.446 194.657 286.837 199.307 282.994 198.277C279.151 197.247 277.484 190.916 279.292 184.17C281.099 177.425 285.708 172.775 289.551 173.805C293.395 174.834 295.061 181.166 293.254 187.911Z" fill="#20242E"/>
<path d="M384.608 125.885C391.955 145.845 381.048 172.43 386.174 181.538C391.3 190.646 404.73 196.683 390.545 235.505C388.645 240.712 386.661 246.234 384.536 251.969C387.627 252.041 390.755 252.291 394.091 253.016C397.428 253.742 400.424 254.797 403.32 255.91C407.627 241.091 411.64 232.078 411.64 232.078C411.64 232.078 448.998 154.152 449.556 142.027C450.094 129.981 437.857 83.4069 404.254 65.744L410.676 79.7389C408.219 74.7928 396.274 55.367 358.527 52.2304L366.964 56.5087C366.964 56.5087 321.398 48.6708 292.94 28.4353L300.887 44.268C300.887 44.268 270.503 34.3611 261.213 21.0271C261.213 21.0271 230.888 66.1171 267.103 99.4442C303.318 132.771 377.283 105.848 384.608 125.885Z" fill="#141B30"/>
<path d="M292.853 263.13C292.853 263.13 340.297 263.653 347.412 297.337C347.412 297.337 300.867 293.777 288.724 277.913C288.724 277.913 265.843 283.299 248.788 272.592C248.809 272.514 265.617 249.947 292.853 263.13Z" fill="#141B30"/>
<path d="M298.797 187.298C295.556 198.451 291.338 209.174 286.591 219.672C281.845 230.17 276.748 240.406 271.124 250.416L270.17 247.387C278.083 252.365 285.834 257.637 293.423 263.201C284.718 259.607 276.275 255.664 267.894 251.485L266.117 250.588L266.941 248.455C271.238 237.753 276.042 227.354 281.217 217.139C286.413 206.846 292.116 196.857 298.797 187.298Z" fill="#7F6654"/>
<path d="M232.592 189.65L281.181 199.391C281.181 199.391 276.753 231.916 257.781 232.129C217.037 232.645 232.592 189.65 232.592 189.65Z" fill="#B9D1E7" stroke="#20242E" stroke-width="3.77" stroke-miterlimit="10"/>
<path d="M300.948 204.687L349.536 214.427C349.536 214.427 345.109 246.952 326.136 247.165C285.392 247.681 300.948 204.687 300.948 204.687Z" fill="#B9D1E7" stroke="#20242E" stroke-width="3.77" stroke-miterlimit="10"/>
<path d="M278.868 210.206C278.868 210.206 290.095 199.679 298.682 215.01" stroke="#20242E" stroke-width="3.77" stroke-miterlimit="10"/>
<path d="M387.769 447.288L437.407 432.089C437.407 432.089 497.479 483.998 474.749 520.195C457.848 547.192 362.806 549.552 360.893 526.257C358.98 502.962 387.769 447.288 387.769 447.288Z" fill="#FAB989"/>
<path d="M380.318 212.504L394.437 216.287L394.332 216.679C394.766 216.627 395.257 216.675 395.77 216.644C397.831 212.405 400.163 208.406 403.296 204.874C393.841 202.508 373.81 200.083 373.81 200.083L355.341 212.537C365.706 227.504 380.318 212.504 380.318 212.504Z" fill="#A07E67"/>
<path d="M383.049 219.878L393.717 222.736L393.612 223.128C393.967 223.056 394.302 223.061 394.637 223.067C396.315 219.313 398.265 215.8 400.722 212.592C393.621 210.857 378.479 209.322 378.479 209.322L363.987 220.739C371.436 233.412 383.049 219.878 383.049 219.878Z" fill="#A07E67"/>
<path d="M349.714 219.098L411.632 218.623" stroke="#20242E" stroke-width="3.77" stroke-miterlimit="10"/>
<path d="M265.665 354.543L276.583 423.295L300.08 393.021L299.151 390.838L286.624 346.288L265.665 354.543Z" fill="#DC901D"/>
<path d="M393.436 326.991L301.393 393.459L311.375 435.898L413.254 355L393.436 326.991Z" fill="#DC901D"/>
<path d="M397.102 330.244L387.127 278.055C380.768 289.55 365.984 260.956 352.86 264.754C348.836 283.852 288.583 479.225 356.227 528.287C397.055 557.89 435.813 525.568 431.975 476.2C427.781 422.197 397.102 330.244 397.102 330.244Z" fill="#FCCDAA"/>
<path d="M348.262 203.158L366.732 190.704C366.732 190.704 392.463 193.816 399.334 196.414C406.204 199.011 407.741 213.042 407.741 213.042L412.304 215.778L413.652 230.515L418.164 236.264C418.164 236.264 396.359 286.579 375.897 286.393C355.434 286.206 339.022 271.216 360.349 248.095C381.677 224.974 383.329 221.633 383.329 221.633L387.301 206.809L373.182 203.026C373.339 203.068 358.628 218.125 348.262 203.158Z" fill="#FCCDAA"/>
<defs>
<linearGradient id="paint0_linear_53_1730" x1="250.668" y1="982.077" x2="24.2734" y2="840.442" gradientUnits="userSpaceOnUse">
<stop stop-color="#F98D3D"/>
<stop offset="1" stop-color="#F9AE3D"/>
</linearGradient>
</defs>
</svg>
