<svg width="581" height="817" viewBox="0 0 581 817" fill="none" xmlns="http://www.w3.org/2000/svg">
<path d="M406.843 523.642L429.499 575.282C429.499 575.282 433.323 633.568 443.136 647.371C452.868 661.22 455.498 665.845 459.986 677.5L459.986 683L527.493 683C527.503 683 527.484 683 527.493 683L527.484 683C527.484 683 527.484 683 521.904 638.146C513.699 572.001 461.605 471.173 461.605 471.173L406.843 523.642Z" fill="#FCCDAA"/>
<path opacity="0.5" d="M421.068 528.001C415.15 509.143 411.613 497.116 411.613 497.116L476.258 505.664L479.616 515.851C460.148 519.495 440.559 523.565 421.068 528.001Z" fill="#897160"/>
<path d="M227.423 314.746L205.706 307.355L196.324 328.976C196.324 328.976 108.843 334.095 85.3329 369.017C52.7093 417.466 199.823 648.694 199.823 648.694L208.99 683.002L401.49 683.002L507.99 683.002C507.99 683.002 445.817 584.274 434.187 518.274C434.187 518.274 488.109 503.826 488.402 499.344C488.696 494.862 456.229 376.337 419.385 352.398C382.54 328.459 314.488 329.788 314.488 329.788L227.423 314.746Z" fill="url(#paint0_linear_52_1665)"/>
<path d="M286.765 265.346L308.18 371.971L225.658 358.621L202.904 249.052L286.765 265.346Z" fill="#FAB887"/>
<path d="M282.559 340.623C259.278 334.437 238.462 323.659 216.573 314.742L202.976 249.033L286.838 265.327L303.09 346.523C296.404 344.461 289.572 342.439 282.559 340.623Z" fill="#FAB887"/>
<path d="M203.624 88.5031C151.511 114.104 161.879 147.811 161.879 147.811C161.879 147.811 170.457 173.662 179.638 204.698C172.885 199.745 163.575 199.331 155.656 204.991C138.762 217.066 166.439 266.658 193.724 254.629C198.796 269.153 203.442 280.332 206.558 283.743C218.477 296.826 272.384 323.112 304.512 318.592C336.641 314.072 350.107 262.499 341.461 229.354C332.816 196.208 313.627 98.1859 313.627 98.1859C313.627 98.1859 289.905 46.041 203.624 88.5031Z" fill="#FCCDAA"/>
<path d="M267.799 154.371C267.799 154.371 266.492 150.082 261.888 145.811C259.586 143.676 256.638 141.478 252.727 140.088C250.853 139.254 248.636 138.904 246.346 138.574C243.968 138.504 241.624 138.267 239.15 139.009C236.689 139.511 234.327 140.379 232.25 141.722C230.02 142.791 228.486 144.697 226.834 146.161C225.388 147.807 224.48 149.701 223.494 151.302C222.62 153.031 222.299 154.768 221.92 156.285C220.994 159.285 221.428 162.078 221.513 163.864C221.691 165.703 221.966 166.73 221.966 166.73C221.966 166.73 222.895 166.088 224.313 164.922C225.75 163.829 227.323 162.071 229.435 160.562C230.491 159.807 231.414 158.852 232.563 158.151C233.565 157.489 234.714 156.788 235.77 156.033C236.924 155.646 237.867 154.764 239.007 154.616C240.088 154.248 241.075 153.826 242.289 153.658C243.35 153.216 244.661 153.415 245.835 153.101C247.107 153.153 248.467 152.946 249.832 153.052C252.577 153.024 255.513 153.417 258.15 153.575C263.41 154.131 267.799 154.371 267.799 154.371Z" fill="#141B30"/>
<path d="M319.179 140.999C319.179 140.999 318.588 137.619 315.638 134.242C312.855 130.899 307.156 127.236 299.838 128.096C298.018 128.348 296.311 128.727 294.668 129.639C292.947 130.258 291.696 131.458 290.406 132.511C289.115 133.565 288.457 134.92 287.665 136.076C286.874 137.232 286.675 138.543 286.271 139.674C285.515 141.842 285.825 143.882 285.939 145.188C286.146 146.548 286.343 147.281 286.343 147.281C286.343 147.281 287.111 146.918 288.299 146.364C289.487 145.81 290.871 144.81 292.499 144.138C293.36 143.829 294.068 143.246 294.875 143.029C295.682 142.813 296.411 142.303 297.164 142.18C298.631 141.787 299.878 141.453 301.278 141.393C303.978 140.905 308.127 141.13 311.957 141.047C315.847 141.184 319.179 140.999 319.179 140.999Z" fill="#141B30"/>
<path d="M260.987 275.084L324.281 259.225C324.281 259.225 319.011 295.314 260.987 275.084Z" fill="white"/>
<path d="M232.942 188.322C234.632 194.631 238.943 198.98 242.538 198.017C246.133 197.054 247.691 191.132 246 184.823C244.31 178.514 239.999 174.165 236.405 175.128C232.81 176.091 231.251 182.013 232.942 188.322Z" fill="#20242E"/>
<path d="M293.478 175.087C295.169 181.396 299.48 185.745 303.074 184.782C306.669 183.819 308.228 177.897 306.537 171.588C304.847 165.278 300.536 160.929 296.941 161.893C293.346 162.856 291.788 168.778 293.478 175.087Z" fill="#20242E"/>
<path d="M208.033 117.074C201.162 135.742 211.363 160.608 206.569 169.127C201.775 177.645 189.213 183.292 202.481 219.602C204.258 224.473 206.113 229.637 208.101 235.002C205.21 235.069 202.284 235.302 199.164 235.981C196.043 236.66 193.241 237.647 190.532 238.687C186.503 224.827 182.75 216.397 182.75 216.397C182.75 216.397 147.809 143.512 147.287 132.172C146.784 120.905 158.229 77.3434 189.658 60.8231L183.651 73.9127C185.95 69.2866 197.122 51.1174 232.427 48.1837L224.536 52.1852C224.536 52.1852 267.155 44.8544 293.772 25.9278L286.339 40.7364C286.339 40.7364 314.757 31.4703 323.446 18.9989C323.446 18.9989 351.81 61.172 317.937 92.3433C284.065 123.515 214.885 98.3327 208.033 117.074Z" fill="#141B30"/>
<path d="M293.854 245.441C293.854 245.441 249.48 245.93 242.825 277.435C242.825 277.435 286.359 274.105 297.716 259.267C297.716 259.267 319.117 264.305 335.069 254.291C335.05 254.217 319.329 233.111 293.854 245.441Z" fill="#141B30"/>
<path d="M288.293 174.513C291.324 184.945 295.269 194.975 299.709 204.793C304.148 214.612 308.915 224.186 314.176 233.548L315.068 230.715C307.666 235.371 300.417 240.302 293.319 245.506C301.461 242.145 309.358 238.457 317.196 234.548L318.858 233.709L318.088 231.714C314.069 221.704 309.575 211.978 304.735 202.424C299.875 192.797 294.541 183.454 288.293 174.513Z" fill="#7F6654"/>
<path d="M350.213 176.715L304.768 185.825C304.768 185.825 308.909 216.247 326.654 216.445C364.762 216.928 350.213 176.715 350.213 176.715Z" fill="#B9D1E7" stroke="#20242E" stroke-width="3.77" stroke-miterlimit="10"/>
<path d="M286.281 190.778L240.836 199.888C240.836 199.888 244.977 230.309 262.722 230.508C300.83 230.991 286.281 190.778 286.281 190.778Z" fill="#B9D1E7" stroke="#20242E" stroke-width="3.77" stroke-miterlimit="10"/>
<path d="M306.931 195.941C306.931 195.941 296.43 186.095 288.399 200.435" stroke="#20242E" stroke-width="3.77" stroke-miterlimit="10"/>
<path d="M205.077 417.687L158.649 403.471C158.649 403.471 102.464 452.022 123.723 485.877C139.531 511.128 228.425 513.336 230.214 491.547C232.003 469.759 205.077 417.687 205.077 417.687Z" fill="#FAB989"/>
<path d="M212.046 198.089L198.841 201.628L198.939 201.995C198.533 201.946 198.073 201.991 197.594 201.962C195.666 197.997 193.484 194.257 190.555 190.953C199.398 188.741 218.133 186.472 218.133 186.472L235.408 198.12C225.713 212.119 212.046 198.089 212.046 198.089Z" fill="#A07E67"/>
<path d="M209.491 204.987L199.513 207.661L199.612 208.027C199.279 207.959 198.966 207.964 198.653 207.97C197.083 204.459 195.259 201.173 192.961 198.172C199.603 196.55 213.765 195.114 213.765 195.114L227.32 205.792C220.353 217.645 209.491 204.987 209.491 204.987Z" fill="#A07E67"/>
<path d="M240.668 204.256L182.755 203.812" stroke="#20242E" stroke-width="3.77" stroke-miterlimit="10"/>
<path d="M319.281 330.94L309.069 395.244L287.092 366.928L287.96 364.887L299.677 323.219L319.281 330.94Z" fill="url(#paint1_linear_52_1665)"/>
<path d="M199.775 305.171L285.864 367.339L276.527 407.033L181.239 331.367L199.775 305.171Z" fill="url(#paint2_linear_52_1665)"/>
<path d="M196.341 308.214L205.671 259.401C211.618 270.152 225.446 243.408 237.721 246.96C241.485 264.823 297.84 447.557 234.572 493.446C196.385 521.134 160.135 490.903 163.724 444.728C167.646 394.219 196.341 308.214 196.341 308.214Z" fill="#FCCDAA"/>
<path d="M242.027 189.348L224.752 177.7C224.752 177.7 200.685 180.611 194.259 183.04C187.833 185.47 186.396 198.593 186.396 198.593L182.128 201.152L180.867 214.936L176.647 220.312C176.647 220.312 197.041 267.373 216.18 267.198C235.319 267.024 250.67 253.003 230.722 231.378C210.774 209.753 209.229 206.628 209.229 206.628L205.513 192.763L218.719 189.224C218.572 189.264 232.332 203.347 242.027 189.348Z" fill="#FCCDAA"/>
<defs>
<linearGradient id="paint0_linear_52_1665" x1="449.169" y1="360.304" x2="277.195" y2="531.916" gradientUnits="userSpaceOnUse">
<stop stop-color="#2F66F4"/>
<stop offset="1" stop-color="#0D9AE9"/>
</linearGradient>
<linearGradient id="paint1_linear_52_1665" x1="315.789" y1="356.172" x2="293.119" y2="362.255" gradientUnits="userSpaceOnUse">
<stop stop-color="#2F66F4"/>
<stop offset="1" stop-color="#0D9AE9"/>
</linearGradient>
<linearGradient id="paint2_linear_52_1665" x1="258.137" y1="350.746" x2="206.664" y2="364.565" gradientUnits="userSpaceOnUse">
<stop stop-color="#2F66F4"/>
<stop offset="1" stop-color="#0D9AE9"/>
</linearGradient>
</defs>
</svg>
