<svg width="572" height="785" viewBox="0 0 572 785" fill="none" xmlns="http://www.w3.org/2000/svg">
<path d="M118.648 438.667L114.824 478.715C114.824 478.715 96.956 516.361 98.2747 528.371C99.5274 540.381 88.0549 606.065 86.8022 614.887C85.5494 623.708 85.5494 634.103 85.5494 634.103L68.9999 665.33L71.5714 680.57L80.4724 685.375L84.2967 692.581L109.813 699C109.813 699 121.286 697.385 95.7691 684.588C95.7691 684.588 95.5055 660.94 100.846 661.354C111.066 662.141 103.945 678.914 109.747 683.801C113.571 686.99 121.22 662.969 121.22 662.969C121.22 662.969 123.791 642.924 111 634.931C111 634.931 132.692 594.055 150.56 549.99C168.429 505.924 171 425 171 425L118.648 438.667Z" fill="#FCCDAA"/>
<path d="M354.619 305.443L375.383 298.377L384.353 319.049C384.353 319.049 467.993 323.943 490.471 357.331C521.662 403.654 381.008 624.729 381.008 624.729L362.325 776.469C362.325 776.469 384.051 753.817 239.166 730.03L198.539 728.918L190.048 646.625C190.048 646.625 126.347 746.637 90.9903 690.327C90.9903 690.327 145.814 563.138 156.934 500.036C156.934 500.036 105.379 486.221 105.099 481.936C104.818 477.651 135.859 364.33 171.086 341.443C206.313 318.555 271.378 319.825 271.378 319.825L354.619 305.443Z" fill="url(#paint0_linear_18_1946)"/>
<path d="M297.883 258.212L277.408 360.156L356.308 347.391L378.062 242.633L297.883 258.212Z" fill="#FAB887"/>
<path d="M301.905 330.183C324.164 324.269 344.066 313.965 364.994 305.439L377.994 242.615L297.814 258.194L282.276 335.824C288.668 333.853 295.2 331.92 301.905 330.183Z" fill="#FAB887"/>
<path d="M377.371 89.133C427.196 113.61 417.283 145.837 417.283 145.837C417.283 145.837 409.082 170.553 400.304 200.227C406.76 195.491 415.662 195.095 423.233 200.507C439.385 212.052 412.923 259.466 386.836 247.965C381.987 261.852 377.545 272.539 374.566 275.801C363.17 288.309 311.629 313.441 280.912 309.12C250.194 304.798 237.319 255.49 245.585 223.799C253.851 192.109 272.197 98.3906 272.197 98.3906C272.197 98.3906 294.878 48.5352 377.371 89.133Z" fill="#FCCDAA"/>
<path d="M316.017 152.11C316.017 152.11 317.266 148.009 321.668 143.926C323.869 141.884 326.688 139.783 330.427 138.454C332.219 137.657 334.339 137.322 336.528 137.007C338.802 136.939 341.042 136.713 343.409 137.422C345.761 137.902 348.019 138.732 350.005 140.017C352.137 141.039 353.604 142.86 355.183 144.261C356.566 145.834 357.434 147.645 358.377 149.176C359.212 150.828 359.519 152.489 359.882 153.94C360.767 156.808 360.352 159.479 360.271 161.186C360.1 162.944 359.837 163.927 359.837 163.927C359.837 163.927 358.949 163.313 357.594 162.198C356.22 161.153 354.716 159.472 352.697 158.029C351.687 157.307 350.805 156.394 349.706 155.724C348.748 155.091 347.65 154.421 346.64 153.699C345.537 153.329 344.635 152.486 343.545 152.344C342.512 151.992 341.567 151.588 340.407 151.428C339.393 151.006 338.139 151.196 337.017 150.895C335.801 150.945 334.5 150.747 333.195 150.849C330.571 150.822 327.764 151.198 325.242 151.349C320.213 151.881 316.017 152.11 316.017 152.11Z" fill="#141B30"/>
<path d="M266.892 139.325C266.892 139.325 267.457 136.094 270.277 132.865C272.938 129.668 278.387 126.167 285.384 126.989C287.124 127.23 288.756 127.592 290.326 128.464C291.972 129.055 293.168 130.203 294.402 131.21C295.636 132.217 296.266 133.513 297.022 134.618C297.778 135.723 297.969 136.977 298.356 138.058C299.078 140.131 298.781 142.081 298.672 143.33C298.474 144.63 298.286 145.332 298.286 145.332C298.286 145.332 297.552 144.984 296.416 144.454C295.28 143.925 293.957 142.969 292.4 142.326C291.577 142.03 290.9 141.473 290.129 141.266C289.357 141.06 288.661 140.572 287.94 140.454C286.537 140.079 285.345 139.759 284.007 139.701C281.426 139.235 277.459 139.45 273.797 139.371C270.078 139.502 266.892 139.325 266.892 139.325Z" fill="#141B30"/>
<path d="M322.53 267.523L262.014 252.361C262.014 252.361 267.053 286.865 322.53 267.523Z" fill="white"/>
<path d="M349.342 184.57C347.726 190.603 343.604 194.761 340.168 193.84C336.731 192.919 335.241 187.257 336.857 181.225C338.473 175.193 342.594 171.034 346.031 171.955C349.468 172.876 350.959 178.538 349.342 184.57Z" fill="#20242E"/>
<path d="M291.462 171.917C289.845 177.949 285.724 182.107 282.287 181.186C278.85 180.265 277.36 174.603 278.976 168.571C280.593 162.539 284.714 158.381 288.151 159.302C291.588 160.223 293.078 165.884 291.462 171.917Z" fill="#20242E"/>
<path d="M373.158 116.45C379.727 134.298 369.974 158.073 374.558 166.217C379.141 174.362 391.152 179.76 378.467 214.477C376.768 219.134 374.994 224.071 373.093 229.2C375.857 229.264 378.654 229.487 381.638 230.136C384.621 230.786 387.301 231.729 389.891 232.724C393.742 219.472 397.331 211.412 397.331 211.412C397.331 211.412 430.738 141.727 431.237 130.885C431.718 120.113 420.775 78.4637 390.726 62.6688L396.469 75.1836C394.271 70.7606 383.59 53.3892 349.835 50.5843L357.379 54.4101C357.379 54.4101 316.632 47.4011 291.184 29.3055L298.29 43.4639C298.29 43.4639 271.119 34.6047 262.812 22.6808C262.812 22.6808 235.694 63.0023 268.079 92.805C300.464 122.608 366.607 98.5314 373.158 116.45Z" fill="#141B30"/>
<path d="M291.105 239.18C291.105 239.18 333.531 239.648 339.894 269.77C339.894 269.77 298.271 266.586 287.413 252.4C287.413 252.4 266.952 257.217 251.7 247.642C251.719 247.572 266.749 227.392 291.105 239.18Z" fill="#141B30"/>
<path d="M296.421 171.368C293.523 181.342 289.751 190.931 285.507 200.319C281.262 209.706 276.704 218.86 271.675 227.811L270.822 225.102C277.898 229.554 284.83 234.268 291.616 239.244C283.831 236.03 276.281 232.504 268.787 228.767L267.198 227.965L267.935 226.057C271.777 216.487 276.073 207.188 280.701 198.053C285.347 188.849 290.447 179.916 296.421 171.368Z" fill="#7F6654"/>
<path d="M237.219 173.472L280.669 182.182C280.669 182.182 276.709 211.268 259.743 211.458C223.309 211.919 237.219 173.472 237.219 173.472Z" fill="#B9D1E7" stroke="#20242E" stroke-width="3.77" stroke-miterlimit="10"/>
<path d="M298.344 186.918L341.794 195.628C341.794 195.628 337.834 224.714 320.868 224.904C284.434 225.365 298.344 186.918 298.344 186.918Z" fill="#B9D1E7" stroke="#20242E" stroke-width="3.77" stroke-miterlimit="10"/>
<path d="M278.604 191.853C278.604 191.853 288.643 182.44 296.322 196.15" stroke="#20242E" stroke-width="3.77" stroke-miterlimit="10"/>
<path d="M375.984 403.863L420.373 390.271C420.373 390.271 474.092 436.691 453.766 469.06C438.652 493.202 353.661 495.312 351.95 474.481C350.24 453.649 375.984 403.863 375.984 403.863Z" fill="#FAB989"/>
<path d="M369.32 193.908L381.946 197.292L381.852 197.642C382.24 197.596 382.68 197.639 383.138 197.611C384.981 193.82 387.067 190.244 389.868 187.085C381.413 184.97 363.5 182.801 363.5 182.801L346.984 193.938C356.254 207.322 369.32 193.908 369.32 193.908Z" fill="#A07E67"/>
<path d="M371.762 200.502L381.302 203.059L381.208 203.409C381.526 203.344 381.826 203.349 382.125 203.354C383.626 199.997 385.369 196.856 387.567 193.987C381.216 192.436 367.676 191.063 367.676 191.063L354.716 201.273C361.378 212.605 371.762 200.502 371.762 200.502Z" fill="#A07E67"/>
<path d="M341.954 199.805L397.324 199.38" stroke="#20242E" stroke-width="3.77" stroke-miterlimit="10"/>
<path d="M266.795 320.926L276.559 382.407L297.571 355.335L296.74 353.383L285.538 313.544L266.795 320.926Z" fill="#DC901D"/>
<path d="M381.055 296.288L298.746 355.727L307.672 393.678L398.777 321.335L381.055 296.288Z" fill="#DC901D"/>
<path d="M384.331 299.197L375.411 252.527C369.725 262.807 356.504 237.237 344.768 240.633C341.169 257.711 287.289 432.422 347.779 476.296C384.289 502.769 418.948 473.865 415.516 429.718C411.766 381.426 384.331 299.197 384.331 299.197Z" fill="#FCCDAA"/>
<path d="M340.659 185.551L357.175 174.414C357.175 174.414 380.185 177.197 386.329 179.52C392.473 181.843 393.847 194.39 393.847 194.39L397.928 196.836L399.133 210.015L403.168 215.156C403.168 215.156 383.669 260.15 365.37 259.983C347.072 259.816 332.395 246.411 351.467 225.735C370.539 205.06 372.017 202.072 372.017 202.072L375.569 188.816L362.943 185.433C363.084 185.47 349.928 198.935 340.659 185.551Z" fill="#FCCDAA"/>
<defs>
<linearGradient id="paint0_linear_18_1946" x1="230.361" y1="968.013" x2="21.195" y2="847.627" gradientUnits="userSpaceOnUse">
<stop stop-color="#F98D3D"/>
<stop offset="1" stop-color="#F9AE3D"/>
</linearGradient>
</defs>
</svg>
