<svg xmlns="http://www.w3.org/2000/svg" width="673" height="794" fill="none" viewBox="0 0 673 794"><path fill="#141B30" d="M185.801 135.851C185.801 135.851 174.092 87.334 130.867 97.9116C87.7101 108.471 107.857 206.955 172.622 186.804C237.484 166.483 185.801 135.851 185.801 135.851Z"/><path fill="#FCCDAA" d="M522.384 194.097C522.384 194.097 520.92 183.01 517.148 160.633L512.209 128.812C512.209 128.812 520.841 53.3932 501.665 124.534C501.665 124.534 498.868 126.145 497.837 122.834C496.74 119.541 489.451 71.9915 485.332 72.9517C481.213 73.9119 486.803 119.405 484.675 120.836C482.548 122.267 469.193 70.8194 464.246 73.5081C459.231 76.2147 474.287 123.835 470.641 124.955C467.014 126.143 445.373 88.7525 440.692 90.2937C436.078 91.8169 459.311 134.879 460.429 144.408C461.476 153.669 457.59 155.499 457.59 155.499C457.59 155.499 452.952 159.612 445.451 150.358C437.985 141.239 433.322 138.829 428.508 144.424C428.508 144.424 434.336 154.126 437.528 158.005C439.329 160.177 460.131 186.672 478.134 186.655L490.285 209.513L522.384 194.097Z"/><path fill="#FCCDAA" d="M517.598 162.883C521.073 183.618 522.443 194.084 522.443 194.084L490.428 209.549L481.297 192.338C493.749 183.119 505.839 173.351 517.598 162.883Z"/><path fill="#FCCDAA" d="M327.828 258.141L334.506 336.344L275.742 349.436L267.268 210.446L327.828 258.141Z"/><path fill="#141B30" d="M226.988 96.7657C226.988 96.7657 276.966 15.0039 350.632 92.3325C398.442 142.512 391.305 243.859 391.305 243.859L329.419 166.315C329.419 166.315 279.842 158.005 226.988 96.7657Z"/><path fill="#FCCDAA" d="M222.072 131.228C222.072 131.228 307.295 48.2012 357.282 148.806C407.72 250.294 344.707 346.597 241.034 272.143C147.06 204.704 163.514 148.569 222.072 131.228Z"/><path fill="#141B30" d="M285.833 99.2906C285.833 99.2906 310.441 173.192 238.161 224.197C238.161 224.197 205.551 208.256 210.815 231.381C216.078 254.507 246.62 254.43 246.62 254.43L258.477 284.757C258.477 284.757 179.092 259.18 160.566 191.111C144.945 133.885 221.27 19.5228 285.833 99.2906Z"/><path fill="#FCCDAA" d="M325.335 318.424L392.152 320.393L395.286 320.845C395.286 320.845 405.138 402.861 316.473 407.176C227.808 411.492 199.111 349.376 199.111 349.376L279.829 325.308L325.335 318.424Z"/><path fill="#CF976E" d="M326.804 172.61C328.071 176.001 329.655 179.236 331.471 182.265C333.22 185.311 335.17 188.304 337.352 191.091C339.418 193.981 341.782 196.648 344.281 199.279C345.563 200.585 346.895 201.807 348.378 203.059C349.129 203.719 349.911 204.227 350.862 204.833C351.912 205.269 352.467 206.268 355.676 206.197L351.918 202.613C351.936 202.68 351.909 203.117 351.847 203.421L351.679 204.399C351.506 205.091 351.314 205.716 351.056 206.359C350.473 207.663 349.805 208.919 348.833 210.112C346.957 212.48 344.25 214.425 341.118 216.125C344.636 216.402 348.402 215.464 351.694 213.291C353.34 212.204 354.744 210.752 355.876 209.085C356.451 208.286 356.923 207.37 357.395 206.454C357.622 205.963 357.849 205.472 358.009 204.998C358.151 204.458 358.329 204.052 358.418 203.311L354.66 199.726C356.155 199.684 355.061 199.619 354.717 199.137L353.095 197.634C351.951 196.578 350.771 195.387 349.64 194.112C347.28 191.731 345 189.114 342.556 186.684C337.649 181.757 332.674 176.848 326.804 172.61Z"/><path fill="#3F1E1D" d="M305.861 160.141C305.861 160.141 302.961 157.618 297.554 155.91C294.883 155.047 291.61 154.346 288.061 154.221C284.494 154.029 280.603 154.498 276.823 155.654C274.967 156.223 273.164 156.993 271.398 157.897C269.595 158.667 268.137 159.918 266.71 161.018C265.18 162.002 264.061 163.449 262.956 164.678C261.765 165.858 260.981 167.216 260.228 168.422C258.638 170.786 257.886 173.068 257.441 174.622C256.93 176.193 256.743 177.104 256.743 177.104C256.743 177.104 257.506 176.469 258.666 175.441C259.245 174.927 259.923 174.244 260.734 173.524C261.461 172.755 262.509 172.116 263.504 171.275C264.516 170.502 265.493 169.595 266.724 168.834C267.955 168.074 269.065 167.131 270.466 166.468C271.782 165.757 273.165 165.028 274.584 164.432C275.985 163.77 277.488 163.224 279.028 162.811C282.035 161.718 285.222 161.295 288.324 160.823C291.377 160.435 294.349 160.284 296.97 160.156C302.112 160.07 305.861 160.141 305.861 160.141Z"/><path fill="#3F1E1D" d="M358.385 146.213C358.385 146.213 356.918 143.951 353.719 141.652C352.12 140.502 350.083 139.326 347.716 138.525C346.532 138.125 345.264 137.676 343.867 137.548C342.501 137.268 341.041 137.444 339.595 137.401C338.171 137.711 336.627 137.838 335.311 138.549C333.856 139.011 332.728 139.887 331.684 140.812C330.538 141.621 329.852 142.81 329.161 143.712C328.337 144.65 328.052 145.731 327.665 146.696C326.806 148.576 326.835 150.29 326.702 151.402C326.654 152.563 326.682 153.201 326.682 153.201C326.682 153.201 327.128 152.723 327.818 151.82C328.527 150.985 329.311 149.627 330.569 148.429C331.197 147.83 331.705 147.048 332.504 146.547C333.217 145.997 333.895 145.313 334.796 144.928C335.577 144.361 336.429 144.061 337.366 143.809C338.182 143.375 339.276 143.441 340.213 143.19C341.222 143.207 342.244 143.005 343.289 143.155C344.315 143.239 345.391 143.237 346.454 143.455C348.543 143.756 350.535 144.227 352.29 144.618C355.938 145.649 358.385 146.213 358.385 146.213Z"/><path fill="#C8DFF8" d="M382.62 320.723C382.62 320.723 380.891 394.866 310.749 401.105C240.54 407.363 218.894 346.658 218.894 346.658C218.894 346.658 183.286 354.334 165.095 387.116C147.375 418.982 103.796 520.337 110.539 545.506C117.283 570.674 227.837 661.434 227.837 661.434L254.748 634.423L186.545 534.108L224.715 488.87C224.715 488.87 276.616 622.322 316.428 636.764C356.259 651.273 425.401 607.565 425.401 607.565L445.421 420.692C445.421 420.692 545.748 426.165 575.94 398.275C606.216 370.433 543.606 176.933 532.154 174.621C520.768 172.291 475.364 204.186 475.364 204.186C475.364 204.186 516.517 324.304 503.13 327.891C489.743 331.478 429.662 315.293 382.62 320.723Z"/><path fill="#315775" d="M275.3 475.247C314.414 469.143 352.99 461.03 391.243 451.713C402.656 465.658 419.241 475.347 439.454 475.814L425.314 607.519C425.314 607.519 356.172 651.227 316.342 636.718C289.23 626.837 256.432 561.73 238.336 521.238C260.743 512.221 272.314 494.628 275.3 475.247Z"/><path fill="url(#paint0_linear_53_1763)" d="M408.011 428.854L242.473 448.028C242.473 448.028 289.751 557.537 259.247 644.771C260.402 673.927 262 687.5 264.5 698L534.5 698C517 639 437.588 559.32 437.588 559.32C437.588 559.32 418.272 487.229 408.011 428.854Z"/><path stroke="#9FA8B7" stroke-miterlimit="10" stroke-width=".466" d="M395.076 421.051C395.076 421.051 392.394 440.494 387.347 441.201C382.299 441.908 372.168 432.211 372.168 432.211L374.402 419.129"/><path fill="url(#paint1_linear_53_1763)" d="M405.111 318.715L381.867 310.954L370.606 419.934L398.008 426.08L405.111 318.715Z"/><path fill="#9FA8B7" d="M387.974 430.418C388.656 432.962 386.887 435.731 383.942 436.521C381.063 437.292 378.098 435.862 377.398 433.252C376.699 430.641 378.486 427.939 381.431 427.15C384.376 426.36 387.275 427.808 387.974 430.418Z"/><path stroke="#9FA8B7" stroke-miterlimit="10" stroke-width=".466" d="M262.94 431.277C262.94 431.277 270.505 449.338 266.492 452.566C262.478 455.794 248.891 452.475 248.891 452.475L244.126 440.049"/><path fill="url(#paint2_linear_53_1763)" d="M219.632 337.921L195.681 343.048L241.247 442.685L267.997 434.082L219.632 337.921Z"/><path fill="#9FA8B7" d="M261.545 442.913C263.476 444.763 263.279 448.044 261.197 450.181C259.115 452.317 255.807 452.557 253.944 450.689C252.013 448.839 252.21 445.558 254.292 443.421C256.374 441.285 259.682 441.045 261.545 442.913Z"/><path fill="#ACC9F9" d="M280.646 480.197L386.161 464.336C386.161 464.336 402.693 525.766 375.787 542.086C348.698 558.528 282.252 583.65 280.646 480.197Z" opacity=".4"/><path fill="#FCCDAA" d="M253.291 635.388L255.245 637.591C255.245 637.591 269.404 614.929 279.758 620.907C285.359 624.141 331.53 650.797 276.095 629.995C276.095 629.995 338.955 678.509 268.416 644.177C268.416 644.177 318.96 691.974 265.417 655.742C265.417 655.742 289.642 707.864 260.015 666.373C260.015 666.373 256.188 683.684 248.618 680.331C240.981 676.997 229.025 660.758 229.025 660.758C229.025 660.758 237.613 649.705 253.291 635.388Z"/><path fill="#3F3838" d="M356.847 177.976C356.847 177.976 356.535 175.477 355.183 172.037C354.498 170.283 353.474 168.334 351.945 166.376C351.122 165.448 350.264 164.387 348.973 163.585C347.749 162.765 345.771 162.075 343.647 162.716C341.844 163.486 340.573 164.903 339.954 166.073C339.001 167.333 338.904 168.579 338.504 169.762C337.77 172.111 337.772 174.263 337.636 176.164C337.766 179.86 338.144 182.342 338.144 182.342C338.144 182.342 339.181 180.055 340.284 176.674C340.996 175.049 341.534 173.039 342.393 171.159C342.798 170.261 343.217 169.145 343.778 168.564C344.251 167.648 344.817 167.353 345.134 167.196C345.402 167.125 345.888 167.066 346.585 167.525C347.264 167.917 348.082 168.559 348.832 169.218C350.285 170.623 351.621 172.13 352.77 173.472C355.22 176.188 356.847 177.976 356.847 177.976Z"/><path fill="#3F3838" d="M302.28 198.909C302.28 198.909 301.969 196.41 300.617 192.97C299.932 191.216 298.907 189.267 297.378 187.309C296.556 186.381 295.697 185.32 294.406 184.518C293.182 183.698 291.204 183.009 289.08 183.649C287.278 184.419 286.007 185.836 285.388 187.006C284.434 188.266 284.337 189.512 283.937 190.695C283.203 193.044 283.206 195.195 283.07 197.097C283.199 200.793 283.577 203.275 283.577 203.275C283.577 203.275 284.615 200.988 285.718 197.608C286.43 195.982 286.968 193.972 287.827 192.092C288.232 191.194 288.65 190.078 289.212 189.497C289.684 188.581 290.251 188.286 290.567 188.129C290.835 188.058 291.322 187.999 292.019 188.458C292.698 188.85 293.515 189.492 294.266 190.152C295.718 191.556 297.055 193.063 298.222 194.472C300.635 197.054 302.28 198.909 302.28 198.909Z"/><path fill="#D37F7A" d="M351.85 229.174L300.478 242.007C300.478 242.007 318.039 260.689 336.065 254.066C359.771 245.346 351.85 229.174 351.85 229.174Z"/><path fill="#9B5C57" d="M344.351 249.909C335.6 244.291 324.415 241.907 311.563 245.35C309.756 245.835 308.239 246.6 306.62 247.249C302.858 244.455 300.547 241.989 300.547 241.989L351.92 229.156C351.853 229.174 357.616 241.046 344.351 249.909Z"/><defs><linearGradient id="paint0_linear_53_1763" x1="431.729" x2="285.417" y1="561.427" y2="600.711" gradientUnits="userSpaceOnUse"><stop stop-color="#2F66F4"/><stop offset="1" stop-color="#0D9AE9"/></linearGradient><linearGradient id="paint1_linear_53_1763" x1="402.452" x2="369.055" y1="365.163" y2="374.123" gradientUnits="userSpaceOnUse"><stop stop-color="#2F66F4"/><stop offset="1" stop-color="#0D9AE9"/></linearGradient><linearGradient id="paint2_linear_53_1763" x1="243.416" x2="217.445" y1="386.18" y2="393.147" gradientUnits="userSpaceOnUse"><stop stop-color="#2F66F4"/><stop offset="1" stop-color="#0D9AE9"/></linearGradient></defs></svg>