<svg width="741" height="733" viewBox="0 0 741 733" fill="none" xmlns="http://www.w3.org/2000/svg">
<path d="M380.945 295.602C380.945 295.602 417.801 613.537 503.481 677.932C572.027 729.434 612.248 646.368 512.357 425.997" stroke="#FFE8CD" stroke-width="1.5028" stroke-miterlimit="10"/>
<path d="M349.582 313.646C355.998 338.921 262.71 421.317 262.71 421.317C262.71 421.317 258.664 418.669 252.217 414.592C228.767 396.646 178.813 361.127 154.141 343.553C155.584 357.786 150.165 372.556 134.883 381.998C167.206 423.51 248.334 499.918 264.258 496.961C284.733 493.181 375.385 405.985 404.818 374.126C434.216 342.206 432.861 297.586 432.861 297.586C432.861 297.586 343.166 288.372 349.582 313.646Z" fill="#FCCDAA"/>
<path d="M620.728 494.186C600.455 522.901 547.672 617.912 537.107 633.935C543.123 631.279 559.48 602.001 567.555 602.732C578.185 603.694 586.161 607.825 591.905 613.564C631.878 580.16 706.199 494.752 702.565 478.766C697.932 458.445 607.204 371.395 574.113 343.35C541.028 315.236 496.487 318.374 496.487 318.374C496.487 318.374 490.986 408.408 515.943 400.994C540.974 393.516 627.061 483.417 627.061 483.417C627.061 483.417 624.534 487.503 620.728 494.186Z" fill="#FCCDAA"/>
<path d="M146.136 388.529C146.136 388.529 136.472 382.849 117.355 370.732L89.9547 353.826C89.9547 353.826 17.1088 332.451 90.1156 342.428C90.1156 342.428 92.6855 340.496 90.0562 338.241C87.4269 335.986 46.4722 310.744 48.9366 307.359C51.4011 303.974 91.2059 326.762 93.3092 325.413C95.4728 324.029 53.2244 291.715 57.6667 288.167C62.109 284.619 100.076 316.966 102.598 314.106C105.087 311.185 79.086 276.766 82.3085 273.032C85.4706 269.332 116.166 307.545 124.475 312.24C132.562 316.822 135.798 313.957 135.798 313.957C135.798 313.957 141.371 311.281 135.803 300.736C130.243 290.345 129.913 285.117 136.903 282.835C136.903 282.835 143.577 291.958 145.887 296.464C147.166 299.005 163.475 328.397 156.535 344.983L172.833 365.065L146.136 388.529Z" fill="#FCCDAA"/>
<path d="M397.984 396.515C398.277 436.345 235.009 543.079 269 695C269 695 387.836 694.992 440.999 695L505 695C509.212 655.369 484.181 567.493 479.247 548.955C391.065 546.056 486.327 394.556 397.984 396.515Z" fill="#141B30"/>
<path d="M508.572 74.1722C508.572 74.1722 450.014 -8.50587 377.54 68.789C346.114 102.339 334.698 167.762 326.412 260.884C321.723 313.485 414.86 299.296 414.86 299.296C414.86 299.296 457.682 135.954 508.572 74.1722Z" fill="#C1724F"/>
<path d="M505.18 110.886C505.18 110.886 452.433 43.9727 393.146 102.42C367.401 127.786 359.793 178.801 355.708 251.636C353.442 292.835 425.866 302.24 425.866 302.24C425.866 302.24 463.707 157.793 505.18 110.886Z" fill="#935133"/>
<path d="M476.232 308.539L493.817 188.006L426.694 232.314L415.804 295.766L360.295 299.372C360.295 299.372 333.593 376.076 425.381 388.347C517.238 400.624 552.498 338.542 552.498 338.542L476.232 308.539Z" fill="#FCCDAA"/>
<path d="M422.384 288.986C441.245 288.952 460.15 289.201 478.967 289.651L493.8 188.005L426.676 232.313L417.063 288.574C418.864 288.667 420.659 288.83 422.384 288.986Z" fill="#FCCDAA"/>
<path d="M510.918 102.01C510.918 102.01 417.905 28.6709 378.713 127.278C339.228 226.833 412.878 315.748 506.64 236.969C537.135 211.406 570.719 114.797 510.918 102.01Z" fill="#FCCDAA"/>
<path d="M408.466 170.748C406.523 175.304 403.921 179.452 400.798 183.206C399.306 185.089 397.55 186.809 395.655 188.516C394.677 189.332 393.635 190.073 392.525 190.808C391.936 191.172 391.346 191.536 390.624 191.819C389.834 192.095 389.037 192.441 387.657 192.316L390.209 189.485C390.291 190.118 390.48 191.11 390.756 191.9C391.026 192.76 391.303 193.55 391.649 194.347C392.339 195.94 393.319 197.421 394.373 198.838C395.503 200.193 396.853 201.428 398.434 202.407C400.01 203.454 401.761 204.099 403.643 204.826C402.671 204.808 401.617 204.921 400.663 204.696C399.703 204.539 398.674 204.377 397.664 204.007C395.693 203.481 393.766 202.471 392.153 201.073C390.465 199.737 389.084 198.081 387.922 196.306C387.376 195.422 386.836 194.468 386.44 193.458C386.045 192.448 385.712 191.513 385.41 190.233L387.962 187.402C387.755 187.384 388.841 186.925 389.593 186.298C390.409 185.745 391.243 184.986 392.077 184.226C393.808 182.782 395.414 181.188 397.226 179.612C400.77 176.592 404.389 173.51 408.466 170.748Z" fill="#CF976E"/>
<path d="M401.65 218.355L449.28 221.829C449.286 221.76 410.508 245.043 401.65 218.355Z" fill="white"/>
<path d="M432.709 144.205C432.709 144.205 434.722 141.952 438.561 139.516C440.543 138.373 442.946 137.199 445.725 136.476C448.517 135.615 451.742 135.35 454.917 135.637C456.492 135.919 458.142 136.138 459.61 136.827C461.173 137.247 462.485 138.131 463.727 139.009C465.052 139.755 465.987 140.953 466.947 141.875C467.977 142.803 468.574 143.901 469.176 144.93C470.532 146.862 470.916 148.775 471.362 149.999C471.739 151.216 471.946 152 471.946 152C471.946 152 471.369 151.461 470.553 150.482C470.107 150.024 469.674 149.428 469.109 148.751C468.613 148.08 467.759 147.515 466.993 146.75C466.221 146.054 465.462 145.22 464.47 144.643C463.485 143.997 462.581 143.22 461.439 142.768C459.318 141.602 456.808 140.888 454.26 140.588C449.102 139.913 443.631 141.157 439.503 142.176C435.582 143.213 432.709 144.205 432.709 144.205Z" fill="#BC6040"/>
<path d="M379.04 133.016C379.04 133.016 380.432 130.706 383.593 128.069C385.174 126.751 387.175 125.401 389.565 124.365C390.795 123.85 392.024 123.335 393.442 123.046C394.797 122.681 396.328 122.681 397.802 122.536C399.315 122.742 400.846 122.741 402.251 123.356C403.751 123.7 405 124.509 406.18 125.312C407.442 125.982 408.239 127.168 409.061 128.077C409.952 128.993 410.411 130.078 410.882 131.025C411.969 132.863 412.088 134.614 412.403 135.756C412.648 136.891 412.723 137.594 412.723 137.594C412.723 137.594 412.209 137.13 411.455 136.227C410.771 135.33 409.773 134.057 408.348 132.884C407.708 132.269 407.08 131.516 406.22 131.021C405.366 130.457 404.657 129.836 403.716 129.472L402.386 128.796C401.909 128.683 401.363 128.564 400.886 128.451C399.951 128.019 398.821 128.195 397.792 128.032C396.669 128.139 395.64 127.976 394.498 128.291C393.369 128.467 392.309 128.649 391.236 128.97C389.103 129.473 387.02 130.189 385.226 130.792C381.568 131.992 379.04 133.016 379.04 133.016Z" fill="#BC6040"/>
<path d="M428.871 61.257C428.871 61.257 412.994 114.446 490.039 145.076C547.673 167.965 484.812 72.0938 428.871 61.257Z" fill="#C1724F"/>
<path d="M381.825 296.657C381.825 296.657 369.103 347.279 420.437 352.897C471.777 358.446 503.809 304.353 503.809 304.353L542.329 322.382C542.329 322.382 529.618 337.515 526.464 356.992C523.974 372.215 523.127 387.726 527.955 409.734C517.91 469.227 505.749 538.27 502.382 543.949C496.313 554.117 374.799 560.45 286.438 494.143C286.438 494.143 296.982 412.984 354.519 298.501L381.825 296.657Z" fill="url(#paint0_linear_50_1614)"/>
<path d="M526.468 356.923C529.621 337.446 542.333 322.313 542.333 322.313L510.019 307.212C497.627 392.656 375.735 483.155 295.07 453.311C288.412 479.221 286.435 494.143 286.435 494.143C374.789 560.519 496.31 554.117 502.379 543.95C505.815 538.276 517.976 469.233 527.952 409.735C523.13 387.657 523.971 372.215 526.468 356.923Z" fill="url(#paint1_linear_50_1614)"/>
<path d="M431.025 69.0367C431.025 69.0367 510.919 102.012 486.244 193.234C466.574 266.051 455.685 288.726 463.412 324.844C463.412 324.844 532.796 328.616 538.729 307.651C550.313 266.529 543.416 250.457 556.791 171.852C568.363 103.938 551.946 68.495 527.719 50.9245C503.429 33.2787 440.376 30.288 431.025 69.0367Z" fill="#C1724F"/>
<path d="M439.309 175.073C439.309 175.073 439.414 172.368 440.806 168.527C441.1 167.58 441.608 166.582 442.191 165.522C442.843 164.467 443.363 163.331 444.429 162.314C445.289 161.279 446.499 160.205 448.099 159.445C449.767 158.692 451.926 158.678 453.746 159.33C454.543 159.75 455.333 160.239 456.055 160.722L457.637 162.465C458.792 163.544 459.157 164.899 459.816 166.072C461.066 168.412 461.481 170.746 462.002 172.672C462.613 176.694 462.583 179.335 462.583 179.335C462.583 179.335 460.975 177.102 459.192 173.74C458.081 172.178 457.151 170.145 455.851 168.358C455.161 167.53 454.564 166.432 453.855 165.811L452.838 164.745C452.437 164.57 452.104 164.4 451.84 164.237C451.238 163.974 450.686 163.924 449.964 164.207C449.243 164.489 448.371 164.898 447.606 165.663C446.025 166.982 444.621 168.664 443.379 170.082C440.964 172.926 439.309 175.073 439.309 175.073Z" fill="#1E1B1B"/>
<path d="M384.654 163.164C384.654 163.164 384.76 160.459 386.151 156.619C386.446 155.671 386.953 154.673 387.536 153.613C388.182 152.627 388.709 151.422 389.775 150.406C390.634 149.37 391.845 148.296 393.444 147.537C395.113 146.783 397.271 146.769 399.091 147.421C399.888 147.841 400.679 148.33 401.401 148.813L402.983 150.557C404.138 151.635 404.502 152.99 405.162 154.164C406.411 156.503 406.826 158.837 407.348 160.763C407.958 164.785 407.928 167.427 407.928 167.427C407.928 167.427 406.321 165.194 404.538 161.831C403.426 160.269 402.497 158.237 401.197 156.449C400.507 155.621 399.91 154.523 399.201 153.903L398.184 152.837C397.782 152.661 397.45 152.492 397.186 152.329C396.584 152.065 396.032 152.015 395.31 152.298C394.589 152.581 393.717 152.989 392.951 153.755C391.371 155.073 389.966 156.755 388.725 158.174C386.316 160.948 384.654 163.164 384.654 163.164Z" fill="#1E1B1B"/>
<path d="M380.945 295.602C393.034 391.194 411.384 486.796 446.409 577.296C458.702 609.096 473.162 645.406 501.839 666.858C530.648 688.392 564.146 685.021 571.144 646.894" stroke="#FFE8CD" stroke-width="1.482" stroke-miterlimit="10"/>
<path d="M471.326 627.915C471.326 627.915 548.323 605.237 566.991 610.405C579.168 613.768 586.623 660.871 570.599 695L472.17 695C463.672 665.41 471.326 627.915 471.326 627.915Z" fill="url(#paint2_linear_50_1614)"/>
<path d="M572.343 580.547C564.586 591.675 561.006 597.405 557.106 605.125C538.754 591.078 516.361 620.922 514.927 627.543C513.468 634.439 535.667 619.816 535.667 619.816C528.292 629.03 522.725 639.799 522.725 639.799C548.251 672.24 560.953 648.755 567.964 641.248C568.892 640.219 594.967 607.367 613.739 589.859C603.063 580.961 582.856 589.71 572.343 580.547Z" fill="#FCCDAA"/>
<path d="M539.075 611.426C539.075 611.426 479.068 687.065 526.815 640.796C526.815 640.796 486.243 694.673 532.264 648.247C532.264 648.247 504.32 697.144 543.278 651.888C543.278 651.888 514.124 704.154 567.429 641.06L539.075 611.426Z" fill="#FCCDAA"/>
<defs>
<linearGradient id="paint0_linear_50_1614" x1="439.181" y1="667.344" x2="292.229" y2="602.571" gradientUnits="userSpaceOnUse">
<stop stop-color="#F98D3D"/>
<stop offset="1" stop-color="#F9AE3D"/>
</linearGradient>
<linearGradient id="paint1_linear_50_1614" x1="439.272" y1="666.305" x2="292.637" y2="601.187" gradientUnits="userSpaceOnUse">
<stop stop-color="#F98D3D"/>
<stop offset="1" stop-color="#F9AE3D"/>
</linearGradient>
<linearGradient id="paint2_linear_50_1614" x1="538.254" y1="745.011" x2="474.085" y2="710.942" gradientUnits="userSpaceOnUse">
<stop stop-color="#F98D3D"/>
<stop offset="1" stop-color="#F9AE3D"/>
</linearGradient>
</defs>
</svg>
