<svg width="674" height="946" viewBox="0 0 674 946" fill="none" xmlns="http://www.w3.org/2000/svg">
<path d="M169.949 123.595C169.949 123.595 159.283 79.3989 119.908 89.0343C80.5945 98.6534 98.9472 188.366 157.943 170.009C217.029 151.498 169.949 123.595 169.949 123.595Z" fill="#141B30"/>
<path d="M476.554 176.653C476.554 176.653 475.221 166.554 471.785 146.169L467.285 117.182C467.285 117.182 475.148 48.481 457.68 113.286C457.68 113.286 455.132 114.753 454.193 111.737C453.193 108.737 446.554 65.4228 442.802 66.2975C439.05 67.1722 444.142 108.614 442.204 109.917C440.266 111.221 428.1 64.3551 423.594 66.8043C419.026 69.2699 432.741 112.649 429.42 113.669C426.115 114.751 406.402 80.691 402.138 82.0949C397.935 83.4825 419.098 122.709 420.117 131.389C421.07 139.826 417.531 141.493 417.531 141.493C417.531 141.493 413.306 145.239 406.473 136.81C399.672 128.502 395.424 126.308 391.039 131.404C391.039 131.404 396.348 140.242 399.255 143.776C400.896 145.754 419.846 169.889 436.245 169.874L447.314 190.696L476.554 176.653Z" fill="#FCCDAA"/>
<path d="M472.195 148.219C475.361 167.107 476.609 176.641 476.609 176.641L447.446 190.729L439.128 175.051C450.471 166.653 461.484 157.755 472.195 148.219Z" fill="#FCCDAA"/>
<path d="M299.326 234.993L305.409 306.231L251.878 318.156L244.159 191.545L299.326 234.993Z" fill="#FCCDAA"/>
<path d="M207.465 87.9903C207.465 87.9903 252.992 13.5106 320.097 83.9519C363.648 129.662 357.147 221.982 357.147 221.982L300.773 151.345C300.773 151.345 255.612 143.775 207.465 87.9903Z" fill="#141B30"/>
<path d="M202.987 119.384C202.987 119.384 280.62 43.7515 326.154 135.396C372.1 227.845 314.699 315.57 220.26 247.748C134.656 186.315 149.644 135.18 202.987 119.384Z" fill="#FCCDAA"/>
<path d="M261.071 90.2905C261.071 90.2905 283.488 157.609 217.645 204.072C217.645 204.072 187.94 189.551 192.735 210.616C197.53 231.682 225.351 231.612 225.351 231.612L236.152 259.238C236.152 259.238 163.838 235.939 146.962 173.932C132.732 121.803 202.259 17.6272 261.071 90.2905Z" fill="#141B30"/>
<path d="M297.054 289.907L357.92 291.7L360.775 292.112C360.775 292.112 369.749 366.823 288.981 370.754C208.213 374.685 182.072 318.102 182.072 318.102L255.601 296.178L297.054 289.907Z" fill="#FCCDAA"/>
<path d="M298.391 157.08C299.545 160.169 300.988 163.115 302.642 165.874C304.236 168.649 306.012 171.376 307.999 173.915C309.881 176.547 312.035 178.977 314.311 181.373C315.48 182.563 316.693 183.676 318.044 184.817C318.728 185.418 319.44 185.88 320.307 186.432C321.263 186.83 321.768 187.74 324.692 187.675L321.268 184.41C321.284 184.471 321.26 184.87 321.204 185.146L321.05 186.037C320.893 186.668 320.718 187.237 320.483 187.823C319.952 189.011 319.343 190.154 318.458 191.241C316.749 193.398 314.283 195.17 311.43 196.718C314.635 196.971 318.066 196.117 321.064 194.137C322.563 193.147 323.843 191.824 324.874 190.306C325.397 189.578 325.827 188.744 326.258 187.909C326.464 187.462 326.671 187.014 326.817 186.583C326.947 186.091 327.109 185.721 327.189 185.046L323.766 181.78C325.128 181.742 324.131 181.683 323.818 181.244L322.34 179.875C321.298 178.913 320.223 177.828 319.193 176.666C317.043 174.498 314.967 172.113 312.74 169.9C308.27 165.412 303.739 160.94 298.391 157.08Z" fill="#CF976E"/>
<path d="M279.319 145.721C279.319 145.721 276.677 143.423 271.751 141.867C269.319 141.081 266.337 140.442 263.105 140.328C259.855 140.153 256.31 140.58 252.867 141.633C251.176 142.152 249.534 142.853 247.925 143.677C246.283 144.378 244.955 145.518 243.655 146.52C242.261 147.416 241.242 148.735 240.235 149.854C239.151 150.929 238.436 152.166 237.75 153.265C236.301 155.418 235.617 157.496 235.212 158.912C234.746 160.344 234.576 161.174 234.576 161.174C234.576 161.174 235.271 160.595 236.327 159.659C236.855 159.19 237.472 158.568 238.211 157.912C238.873 157.212 239.828 156.629 240.734 155.864C241.656 155.159 242.546 154.333 243.667 153.64C244.789 152.947 245.8 152.088 247.076 151.485C248.275 150.837 249.535 150.172 250.827 149.63C252.104 149.027 253.473 148.529 254.876 148.153C257.615 147.158 260.518 146.772 263.344 146.342C266.124 145.989 268.833 145.851 271.219 145.735C275.904 145.656 279.319 145.721 279.319 145.721Z" fill="#3F1E1D"/>
<path d="M327.157 133.033C327.157 133.033 325.821 130.973 322.907 128.879C321.45 127.831 319.595 126.76 317.439 126.031C316.361 125.666 315.205 125.257 313.933 125.14C312.688 124.886 311.358 125.046 310.041 125.007C308.744 125.289 307.337 125.404 306.139 126.052C304.813 126.473 303.786 127.271 302.835 128.114C301.791 128.851 301.166 129.933 300.537 130.756C299.786 131.61 299.526 132.595 299.174 133.474C298.391 135.186 298.417 136.748 298.297 137.76C298.253 138.818 298.278 139.399 298.278 139.399C298.278 139.399 298.684 138.964 299.313 138.142C299.959 137.38 300.673 136.143 301.819 135.052C302.391 134.507 302.854 133.795 303.581 133.338C304.231 132.837 304.849 132.214 305.67 131.864C306.381 131.346 307.157 131.073 308.011 130.844C308.754 130.449 309.751 130.509 310.604 130.28C311.523 130.295 312.454 130.111 313.406 130.248C314.341 130.324 315.321 130.323 316.289 130.521C318.193 130.796 320.007 131.224 321.605 131.58C324.928 132.52 327.157 133.033 327.157 133.033Z" fill="#3F1E1D"/>
<path d="M349.237 292.001C349.237 292.001 347.663 359.54 283.768 365.224C219.812 370.924 200.094 315.626 200.094 315.626C200.094 315.626 167.657 322.618 151.086 352.481C134.946 381.509 95.2472 473.837 101.39 496.763C107.533 519.69 208.24 602.367 208.24 602.367L232.755 577.761L170.627 486.38L205.397 445.172C205.397 445.172 252.675 566.737 288.942 579.893C325.225 593.11 388.208 553.295 388.208 553.295L406.445 383.066C406.445 383.066 497.837 388.052 525.339 362.645C552.919 337.284 495.886 161.017 485.453 158.911C475.082 156.789 433.722 185.843 433.722 185.843C433.722 185.843 471.21 295.263 459.015 298.53C446.82 301.798 392.09 287.054 349.237 292.001Z" fill="#C8DFF8"/>
<path d="M251.477 432.762C287.107 427.201 322.248 419.811 357.094 411.324C367.49 424.027 382.599 432.853 401.011 433.278L388.131 553.253C388.131 553.253 325.147 593.069 288.864 579.852C264.167 570.85 234.29 511.542 217.806 474.657C238.217 466.443 248.758 450.417 251.477 432.762Z" fill="#315775"/>
<path d="M370.756 384.485L221.575 407.967C221.575 407.967 256.821 478.534 223.973 539.11C223.973 539.11 170.54 742.86 283.09 843.642C329.778 885.444 372.844 905.195 372.844 905.195L422.308 863.704L357.161 779.35L359.67 660.423L391.385 846.103L468.506 840.755C468.506 840.755 487.95 622.104 486.463 584.118C484.246 527.065 388.84 470.268 388.84 470.268C388.84 470.268 376.19 423.058 370.756 384.485Z" fill="url(#paint0_linear_18_1903)"/>
<path d="M360.587 383.393C360.587 383.393 358.144 401.104 353.546 401.748C348.948 402.392 339.719 393.559 339.719 393.559L341.754 381.642" stroke="#9FA8B7" stroke-width="0.4661" stroke-miterlimit="10"/>
<path d="M369.724 290.172L348.55 283.102L338.292 382.376L363.254 387.974L369.724 290.172Z" fill="url(#paint1_linear_18_1903)"/>
<path d="M354.115 391.926C354.736 394.243 353.125 396.766 350.442 397.485C347.82 398.187 345.118 396.885 344.481 394.507C343.844 392.129 345.472 389.667 348.155 388.948C350.838 388.23 353.478 389.548 354.115 391.926Z" fill="#9FA8B7"/>
<path d="M240.218 392.709C240.218 392.709 247.11 409.161 243.453 412.101C239.797 415.041 227.42 412.018 227.42 412.018L223.08 400.699" stroke="#9FA8B7" stroke-width="0.4661" stroke-miterlimit="10"/>
<path d="M200.768 307.667L178.95 312.337L220.457 403.1L244.825 395.263L200.768 307.667Z" fill="url(#paint2_linear_18_1903)"/>
<path d="M238.946 403.308C240.704 404.993 240.525 407.982 238.628 409.928C236.732 411.874 233.719 412.093 232.021 410.391C230.262 408.706 230.442 405.717 232.338 403.771C234.235 401.825 237.248 401.606 238.946 403.308Z" fill="#9FA8B7"/>
<path opacity="0.4" d="M256.344 437.272L352.462 422.823C352.462 422.823 367.522 478.781 343.011 493.649C318.335 508.626 257.807 531.51 256.344 437.272Z" fill="#ACC9F9"/>
<path d="M231.43 578.64L233.21 580.646C233.21 580.646 246.108 560.003 255.54 565.448C260.642 568.394 302.701 592.677 252.203 573.727C252.203 573.727 309.465 617.92 245.208 586.646C245.208 586.646 291.25 630.186 242.476 597.181C242.476 597.181 264.544 644.661 237.556 606.865C237.556 606.865 234.069 622.634 227.173 619.58C220.216 616.543 209.325 601.751 209.325 601.751C209.325 601.751 217.149 591.681 231.43 578.64Z" fill="#FCCDAA"/>
<path d="M325.759 161.968C325.759 161.968 325.476 159.691 324.244 156.557C323.62 154.96 322.686 153.184 321.294 151.401C320.544 150.556 319.763 149.589 318.587 148.858C317.472 148.112 315.669 147.483 313.735 148.067C312.093 148.769 310.935 150.059 310.371 151.125C309.502 152.273 309.414 153.407 309.05 154.485C308.381 156.625 308.384 158.585 308.26 160.317C308.378 163.684 308.722 165.944 308.722 165.944C308.722 165.944 309.667 163.861 310.672 160.782C311.32 159.301 311.81 157.471 312.593 155.758C312.962 154.94 313.343 153.923 313.855 153.394C314.285 152.56 314.801 152.291 315.089 152.148C315.333 152.083 315.776 152.029 316.411 152.447C317.03 152.805 317.775 153.389 318.458 153.99C319.782 155.27 320.999 156.643 322.046 157.865C324.277 160.339 325.759 161.968 325.759 161.968Z" fill="#3F3838"/>
<path d="M276.053 181.036C276.053 181.036 275.77 178.759 274.538 175.626C273.914 174.029 272.98 172.253 271.588 170.469C270.838 169.624 270.056 168.658 268.88 167.927C267.765 167.18 265.963 166.552 264.028 167.136C262.386 167.837 261.229 169.128 260.665 170.194C259.797 171.341 259.708 172.476 259.344 173.554C258.675 175.694 258.678 177.654 258.554 179.386C258.671 182.753 259.016 185.013 259.016 185.013C259.016 185.013 259.961 182.93 260.966 179.851C261.614 178.37 262.104 176.539 262.887 174.827C263.256 174.009 263.637 172.992 264.149 172.463C264.579 171.628 265.095 171.359 265.383 171.217C265.627 171.151 266.07 171.098 266.705 171.516C267.324 171.873 268.069 172.458 268.752 173.059C270.076 174.338 271.293 175.711 272.356 176.995C274.554 179.346 276.053 181.036 276.053 181.036Z" fill="#3F3838"/>
<path d="M321.21 208.606L274.413 220.295C274.413 220.295 290.41 237.314 306.83 231.28C328.425 223.337 321.21 208.606 321.21 208.606Z" fill="#D37F7A"/>
<path d="M314.378 227.494C306.406 222.376 296.217 220.205 284.51 223.341C282.864 223.783 281.482 224.48 280.006 225.071C276.58 222.526 274.475 220.279 274.475 220.279L321.272 208.59C321.211 208.606 326.461 219.42 314.378 227.494Z" fill="#9B5C57"/>
<defs>
<linearGradient id="paint0_linear_18_1903" x1="422.97" y1="622.883" x2="256.434" y2="667.57" gradientUnits="userSpaceOnUse">
<stop stop-color="#2F66F4"/>
<stop offset="1" stop-color="#0D9AE9"/>
</linearGradient>
<linearGradient id="paint1_linear_18_1903" x1="367.302" y1="332.483" x2="336.88" y2="340.645" gradientUnits="userSpaceOnUse">
<stop stop-color="#2F66F4"/>
<stop offset="1" stop-color="#0D9AE9"/>
</linearGradient>
<linearGradient id="paint2_linear_18_1903" x1="222.433" y1="351.628" x2="198.775" y2="357.974" gradientUnits="userSpaceOnUse">
<stop stop-color="#2F66F4"/>
<stop offset="1" stop-color="#0D9AE9"/>
</linearGradient>
</defs>
</svg>
