<svg width="11" height="10" viewBox="0 0 11 10" fill="none" xmlns="http://www.w3.org/2000/svg">
<path d="M9.87465 3.34992L7.48398 0.959255C7.29639 0.771747 7.04199 0.666441 6.77675 0.666504C6.51151 0.666566 6.25716 0.771992 6.06965 0.959588C5.88214 1.14718 5.77684 1.40159 5.7769 1.66682C5.77696 1.93206 5.88239 2.18641 6.06998 2.37392L7.69598 3.99992H1.83398C1.56877 3.99992 1.31441 4.10528 1.12688 4.29281C0.939341 4.48035 0.833984 4.7347 0.833984 4.99992C0.833984 5.26514 0.939341 5.51949 1.12688 5.70703C1.31441 5.89456 1.56877 5.99992 1.83398 5.99992H7.69598L6.06998 7.62592C5.88239 7.81343 5.77696 8.06778 5.7769 8.33302C5.77684 8.59826 5.88214 8.85266 6.06965 9.04025C6.25716 9.22785 6.51151 9.33328 6.77675 9.33334C7.04199 9.3334 7.29639 9.2281 7.48398 9.04059L9.87465 6.64992C10.3115 6.2119 10.5568 5.61853 10.5568 4.99992C10.5568 4.38131 10.3115 3.78795 9.87465 3.34992Z" fill="white"/>
</svg>
