<svg width="18" height="12" viewBox="0 0 18 12" fill="none" xmlns="http://www.w3.org/2000/svg">
<path d="M14.25 12.0002H3.75C2.7558 11.9991 1.80267 11.6036 1.09966 10.9006C0.396661 10.1976 0.00119089 9.24444 0 8.25024L0 3.75024C0.00119089 2.75605 0.396661 1.80291 1.09966 1.09991C1.80267 0.396906 2.7558 0.00143503 3.75 0.000244141H14.25C15.2442 0.00143503 16.1973 0.396906 16.9003 1.09991C17.6033 1.80291 17.9988 2.75605 18 3.75024V8.25024C17.9988 9.24444 17.6033 10.1976 16.9003 10.9006C16.1973 11.6036 15.2442 11.9991 14.25 12.0002ZM3.75 1.50024C3.15326 1.50024 2.58097 1.7373 2.15901 2.15925C1.73705 2.58121 1.5 3.15351 1.5 3.75024V8.25024C1.5 8.84698 1.73705 9.41928 2.15901 9.84123C2.58097 10.2632 3.15326 10.5002 3.75 10.5002H14.25C14.8467 10.5002 15.419 10.2632 15.841 9.84123C16.2629 9.41928 16.5 8.84698 16.5 8.25024V3.75024C16.5 3.15351 16.2629 2.58121 15.841 2.15925C15.419 1.7373 14.8467 1.50024 14.25 1.50024H3.75ZM9 9.00024C8.40666 9.00024 7.82664 8.8243 7.33329 8.49465C6.83994 8.16501 6.45542 7.69647 6.22836 7.14829C6.0013 6.60012 5.94189 5.99692 6.05764 5.41497C6.1734 4.83303 6.45912 4.29848 6.87868 3.87892C7.29824 3.45937 7.83279 3.17364 8.41473 3.05789C8.99667 2.94213 9.59987 3.00154 10.1481 3.22861C10.6962 3.45567 11.1648 3.84019 11.4944 4.33353C11.8241 4.82688 12 5.4069 12 6.00024C12 6.79589 11.6839 7.55896 11.1213 8.12156C10.5587 8.68417 9.79565 9.00024 9 9.00024ZM9 4.50024C8.70333 4.50024 8.41332 4.58822 8.16665 4.75304C7.91997 4.91786 7.72771 5.15213 7.61418 5.42622C7.50065 5.70031 7.47094 6.00191 7.52882 6.29288C7.5867 6.58385 7.72956 6.85113 7.93934 7.0609C8.14912 7.27068 8.41639 7.41354 8.70737 7.47142C8.99834 7.5293 9.29994 7.4996 9.57403 7.38606C9.84811 7.27253 10.0824 7.08027 10.2472 6.8336C10.412 6.58693 10.5 6.29692 10.5 6.00024C10.5 5.60242 10.342 5.22089 10.0607 4.93958C9.77936 4.65828 9.39782 4.50024 9 4.50024ZM3.75 3.00024C3.60166 3.00024 3.45666 3.04423 3.33332 3.12664C3.20999 3.20905 3.11386 3.32619 3.05709 3.46323C3.00032 3.60028 2.98547 3.75108 3.01441 3.89656C3.04335 4.04205 3.11478 4.17568 3.21967 4.28057C3.32456 4.38546 3.4582 4.45689 3.60368 4.48583C3.74917 4.51477 3.89997 4.49992 4.03701 4.44315C4.17406 4.38639 4.29119 4.29026 4.3736 4.16692C4.45601 4.04359 4.5 3.89858 4.5 3.75024C4.5 3.55133 4.42098 3.36057 4.28033 3.21991C4.13968 3.07926 3.94891 3.00024 3.75 3.00024ZM13.5 3.75024C13.5 3.89858 13.544 4.04359 13.6264 4.16692C13.7088 4.29026 13.8259 4.38639 13.963 4.44315C14.1 4.49992 14.2508 4.51477 14.3963 4.48583C14.5418 4.45689 14.6754 4.38546 14.7803 4.28057C14.8852 4.17568 14.9566 4.04205 14.9856 3.89656C15.0145 3.75108 14.9997 3.60028 14.9429 3.46323C14.8861 3.32619 14.79 3.20905 14.6667 3.12664C14.5433 3.04423 14.3983 3.00024 14.25 3.00024C14.0511 3.00024 13.8603 3.07926 13.7197 3.21991C13.579 3.36057 13.5 3.55133 13.5 3.75024ZM3.75 7.50024C3.60166 7.50024 3.45666 7.54423 3.33332 7.62664C3.20999 7.70905 3.11386 7.82619 3.05709 7.96323C3.00032 8.10028 2.98547 8.25108 3.01441 8.39656C3.04335 8.54205 3.11478 8.67568 3.21967 8.78057C3.32456 8.88546 3.4582 8.95689 3.60368 8.98583C3.74917 9.01477 3.89997 8.99992 4.03701 8.94315C4.17406 8.88639 4.29119 8.79026 4.3736 8.66692C4.45601 8.54358 4.5 8.39858 4.5 8.25024C4.5 8.05133 4.42098 7.86057 4.28033 7.71991C4.13968 7.57926 3.94891 7.50024 3.75 7.50024ZM13.5 8.25024C13.5 8.39858 13.544 8.54358 13.6264 8.66692C13.7088 8.79026 13.8259 8.88639 13.963 8.94315C14.1 8.99992 14.2508 9.01477 14.3963 8.98583C14.5418 8.95689 14.6754 8.88546 14.7803 8.78057C14.8852 8.67568 14.9566 8.54205 14.9856 8.39656C15.0145 8.25108 14.9997 8.10028 14.9429 7.96323C14.8861 7.82619 14.79 7.70905 14.6667 7.62664C14.5433 7.54423 14.3983 7.50024 14.25 7.50024C14.0511 7.50024 13.8603 7.57926 13.7197 7.71991C13.579 7.86057 13.5 8.05133 13.5 8.25024Z" fill="url(#paint0_linear_1073_863)"/>
<defs>
<linearGradient id="paint0_linear_1073_863" x1="4.41176" y1="6.00024" x2="14.8676" y2="6.00992" gradientUnits="userSpaceOnUse">
<stop stop-color="#2F66F4"/>
<stop offset="1" stop-color="#0D9AE9"/>
</linearGradient>
</defs>
</svg>
