<svg width="13" height="10" viewBox="0 0 13 10" fill="none" xmlns="http://www.w3.org/2000/svg">
<path fill-rule="evenodd" clip-rule="evenodd" d="M12.1558 1.09483C12.2964 1.23548 12.3754 1.42621 12.3754 1.62508C12.3754 1.82396 12.2964 2.01469 12.1558 2.15533L5.0308 9.28033C4.89015 9.42094 4.69942 9.49992 4.50055 9.49992C4.30168 9.49992 4.11095 9.42094 3.9703 9.28033L0.5953 5.90533C0.458681 5.76388 0.383085 5.57443 0.384794 5.37778C0.386503 5.18114 0.46538 4.99303 0.604436 4.85397C0.743492 4.71491 0.931601 4.63604 1.12825 4.63433C1.3249 4.63262 1.51435 4.70822 1.6558 4.84483L4.50055 7.68958L11.0953 1.09483C11.2359 0.954231 11.4267 0.875244 11.6255 0.875244C11.8244 0.875244 12.0152 0.954231 12.1558 1.09483Z" fill="white"/>
</svg>
