<svg xmlns="http://www.w3.org/2000/svg" width="42" height="40" fill="none" viewBox="0 0 42 40"><g clip-path="url(#clip0_2202_7562)"><path fill="url(#paint0_linear_2202_7562)" fill-rule="evenodd" d="M33.0159 0.147949C37.8486 0.147949 41.7721 4.07147 41.7721 8.90411C41.7721 13.7367 37.8486 17.6603 33.0159 17.6603C28.1833 17.6603 24.2598 13.7367 24.2598 8.90411C24.2598 4.07147 28.1833 0.147949 33.0159 0.147949Z" clip-rule="evenodd"/><path fill="#fff" d="M33.0168 16.5879C28.7794 16.5879 25.332 13.1405 25.332 8.90306C25.332 4.66562 28.7794 1.21826 33.0168 1.21826C37.2543 1.21826 40.7016 4.66562 40.7016 8.90306C40.7016 13.1405 37.2543 16.5879 33.0168 16.5879Z"/><path fill="#24285B" d="M40.2735 9.17471H39.3049C39.1551 9.17471 39.0332 9.05279 39.0332 8.90303C39.0332 8.75327 39.1551 8.63135 39.3049 8.63135H40.2735C40.4233 8.63135 40.5442 8.75327 40.5442 8.90303C40.5442 9.05279 40.4233 9.17471 40.2735 9.17471Z"/><path fill="#24285B" d="M26.7726 9.17471H25.8039C25.6542 9.17471 25.5332 9.05279 25.5332 8.90303C25.5332 8.75327 25.6551 8.63135 25.8039 8.63135H26.7726C26.9223 8.63135 27.0442 8.75327 27.0442 8.90303C27.0442 9.05279 26.9223 9.17471 26.7726 9.17471Z"/><path fill="#24285B" d="M33.0373 2.90995C32.8875 2.90995 32.7656 2.78803 32.7656 2.63827V1.66963C32.7656 1.51987 32.8875 1.39795 33.0373 1.39795C33.1871 1.39795 33.309 1.51987 33.309 1.66963V2.63827C33.309 2.78803 33.1871 2.90995 33.0373 2.90995Z"/><path fill="#24285B" d="M33.0373 16.4095C32.8875 16.4095 32.7656 16.2875 32.7656 16.1378V15.1691C32.7656 15.0194 32.8875 14.8975 33.0373 14.8975C33.1871 14.8975 33.309 15.0194 33.309 15.1691V16.1378C33.309 16.2875 33.1871 16.4095 33.0373 16.4095Z"/><path fill="#000" d="M35.7594 1.74365C37.6103 3.14813 38.8084 5.37053 38.8084 7.86845C38.8084 12.1059 35.361 15.5533 31.1236 15.5533C30.1578 15.5533 29.2333 15.3737 28.3809 15.0464C29.6701 16.0246 31.2762 16.6064 33.0157 16.6064C37.2532 16.6064 40.7005 13.159 40.7005 8.92157C40.7005 5.64989 38.6452 2.85053 35.7585 1.74365H35.7594Z" opacity=".09"/><path fill="url(#paint1_linear_2202_7562)" d="M29.9903 8.1321L29.3125 7.58586C29.7455 6.99546 30.1659 6.67578 30.9503 6.67578C31.8853 6.67578 32.4632 7.2153 32.4632 8.03802C32.4632 8.77242 32.0869 9.14298 31.3083 9.7449L30.5931 10.2969H32.5074V11.1321H29.2559V10.366L30.7179 9.16698C31.2642 8.71482 31.4773 8.47674 31.4773 8.1129C31.4773 7.74906 31.2325 7.5417 30.8869 7.5417C30.5413 7.5417 30.3157 7.72986 29.9893 8.1321H29.9903ZM36.1851 6.70746V9.40026H36.7755V10.1846H36.1851V11.1321H35.2626V10.1846H33.116L32.9595 9.5001L35.3701 6.70746H36.1861H36.1851ZM35.2626 8.03226L34.0952 9.40026H35.2626V8.03226Z"/><path fill="url(#paint2_linear_2202_7562)" d="M27.9789 38.4226V39.852H0.282934C-0.399626 33.3202 5.69637 29.3362 11.6609 29.3506C14.7405 29.3842 19.0653 29.0386 21.8973 30.4095C25.1517 31.7352 28.0068 34.7535 27.9789 38.4226Z"/><path fill="#000" d="M27.9799 38.4222C28.0077 34.7531 25.1517 31.7348 21.8983 30.4091C19.0663 29.0382 14.7415 29.3847 11.6618 29.3502C9.8071 29.3454 7.9399 29.7284 6.26758 30.4532C6.7207 30.4091 7.17478 30.3841 7.62982 30.3851C10.7095 30.4187 15.0343 30.0731 17.8663 31.4439C21.1207 32.7697 23.9757 35.7879 23.9479 39.4571V39.8516H27.9809V38.4222H27.9799Z" opacity=".09"/><path fill="#000" d="M13.8451 34.0412L11.0803 35.7183C10.9219 35.8143 10.7146 35.7624 10.6214 35.6012L7.63296 30.4728C7.53792 30.3096 7.5984 30.0994 7.76544 30.0111L10.5168 28.5701C10.6714 28.4895 10.8624 28.5413 10.9536 28.6901L13.9555 33.5823C14.0515 33.7388 14.0026 33.9442 13.8451 34.0402V34.0412Z" opacity=".09"/><path fill="#000" d="M14.4193 34.0412L17.1841 35.7183C17.3425 35.8143 17.5498 35.7624 17.6429 35.6012L20.6314 30.4728C20.7265 30.3096 20.666 30.0994 20.4989 30.0111L17.7476 28.5701C17.593 28.4895 17.402 28.5413 17.3108 28.6901L14.3089 33.5823C14.2129 33.7388 14.2618 33.9442 14.4193 34.0402V34.0412Z" opacity=".09"/><path fill="#141B30" d="M16.7005 33.6859L14.1325 32.7432L11.5645 33.6859L13.3414 36.8155L12.6752 39.851H15.5907L14.9245 36.8155L16.7014 33.6859H16.7005Z"/><path fill="#FFBEB3" d="M14.1318 33.224C12.4422 33.224 11.0723 31.854 11.0723 30.1644V22.0304C11.1404 18.0118 17.1231 18.007 17.1913 22.0304V30.1644C17.1913 31.8636 15.8089 33.2259 14.1318 33.224Z"/><path fill="#F9A498" d="M17.044 31.1044C16.1752 33.9153 12.0626 33.8817 11.2188 31.1006C12.4562 32.8823 15.7547 32.9438 17.044 31.1044Z"/><path fill="url(#paint3_linear_2202_7562)" d="M13.8709 33.3822L11.3375 34.9192C11.1916 35.0075 11.0024 34.9595 10.917 34.8126L8.17812 30.1134C8.09076 29.9637 8.14644 29.7707 8.30004 29.691L10.821 28.371C10.9631 28.2971 11.1378 28.3451 11.2213 28.4814L13.9727 32.9637C14.061 33.1077 14.0149 33.2958 13.8709 33.3832V33.3822Z"/><path fill="url(#paint4_linear_2202_7562)" d="M14.3967 33.3822L16.9301 34.9192C17.076 35.0075 17.2652 34.9595 17.3506 34.8126L20.0895 30.1134C20.1768 29.9637 20.1212 29.7707 19.9676 29.691L17.4466 28.371C17.3045 28.2971 17.1298 28.3451 17.0463 28.4814L14.2949 32.9637C14.2066 33.1077 14.2527 33.2958 14.3967 33.3832V33.3822Z"/><path fill="#FFBEB3" d="M8.04089 19.0245C7.89689 18.2997 7.20665 17.6248 6.25913 17.8312C5.31257 18.0385 5.30969 18.9217 5.45369 19.6475C5.46137 19.6849 5.92697 21.6462 6.20153 22.0581C6.47513 22.4709 6.87161 23.2552 7.53785 23.0325C7.97849 22.8846 8.23769 22.1003 8.34137 21.5349C8.44505 20.9685 8.04089 19.0254 8.04089 19.0254V19.0245Z"/><path fill="#FFBEB3" d="M20.0909 18.9947C20.2349 18.2699 20.9252 17.595 21.8717 17.8014C22.8183 18.0087 22.9114 18.9169 22.7684 19.6417C22.7607 19.6801 22.2567 21.4945 22.0205 22.0532C21.8266 22.5131 21.2976 23.3233 20.6103 23.0401C20.1802 22.8625 19.8941 22.0695 19.7904 21.5031C19.6868 20.9367 20.0909 18.9937 20.0909 18.9937V18.9947Z"/><path fill="#FFD44D" d="M4.7518 22.4567C5.28215 22.4 5.61665 21.4624 5.49893 20.3627C5.38121 19.263 4.85585 18.4176 4.32551 18.4744C3.79516 18.5311 3.46066 19.4686 3.57838 20.5683C3.6961 21.668 4.22146 22.5135 4.7518 22.4567Z"/><path fill="#FFD44D" d="M4.32227 18.4756C4.34339 18.4736 4.36355 18.4736 4.38371 18.4736C4.36355 18.4736 4.34243 18.4736 4.32227 18.4756Z"/><path fill="#F9BB0D" d="M4.61833 21.2442C4.14601 21.2951 3.70249 20.8449 3.55273 20.2065C3.55465 20.3245 3.56233 20.4455 3.57481 20.5684C3.69289 21.6676 4.21801 22.5133 4.74793 22.4567C5.27785 22.4001 5.61289 21.4631 5.49481 20.3629C5.48137 20.2401 5.46313 20.1201 5.44009 20.0039C5.42857 20.6596 5.08969 21.1933 4.61737 21.2433L4.61833 21.2442Z"/><path fill="#FFD44D" d="M4.3222 18.4756C4.30204 18.4775 4.28092 18.4813 4.26172 18.4861C4.28188 18.4823 4.30204 18.4775 4.3222 18.4756Z"/><path fill="url(#paint5_linear_2202_7562)" d="M6.33143 17.3649L5.08574 17.4983C4.61339 17.5489 4.27146 17.9728 4.32202 18.4451L4.78112 22.7339C4.83168 23.2062 5.25559 23.5482 5.72794 23.4976L6.97363 23.3643C7.44598 23.3137 7.78791 22.8898 7.73735 22.4174L7.27825 18.1287C7.22769 17.6563 6.80378 17.3144 6.33143 17.3649Z"/><path fill="#0086F4" d="M6.58138 17.3764C6.58522 17.3985 6.58906 17.4206 6.59194 17.4427L7.05082 21.731C7.1017 22.2033 6.75898 22.6276 6.28666 22.6776L5.04154 22.811C4.95514 22.8206 4.87066 22.8158 4.78906 22.8004C4.87066 23.2382 5.27578 23.5464 5.72506 23.4974L6.97018 23.364C7.4425 23.3131 7.78426 22.8897 7.73434 22.4174L7.27546 18.1291C7.23418 17.7432 6.9433 17.4446 6.58138 17.3755V17.3764Z"/><path fill="#FFD44D" d="M24.6376 20.5708C24.7553 19.4711 24.4208 18.5336 23.8905 18.4769C23.3601 18.4201 22.8348 19.2656 22.7171 20.3653C22.5993 21.465 22.9338 22.4025 23.4642 22.4592C23.9945 22.516 24.5199 21.6705 24.6376 20.5708Z"/><path fill="#FFD44D" d="M23.8876 18.4756C23.8665 18.4736 23.8463 18.4736 23.8262 18.4736C23.8463 18.4736 23.8675 18.4736 23.8876 18.4756Z"/><path fill="#F9BB0D" d="M23.5916 21.2442C24.0639 21.2951 24.5074 20.8449 24.6572 20.2065C24.6552 20.3245 24.6476 20.4455 24.6351 20.5684C24.517 21.6676 23.9919 22.5133 23.462 22.4567C22.932 22.4001 22.597 21.4631 22.7151 20.3629C22.7285 20.2401 22.7468 20.1201 22.7698 20.0039C22.7813 20.6596 23.1202 21.1933 23.5925 21.2433L23.5916 21.2442Z"/><path fill="#FFD44D" d="M23.8887 18.4756C23.9088 18.4775 23.93 18.4813 23.9492 18.4861C23.929 18.4823 23.9088 18.4775 23.8887 18.4756Z"/><path fill="url(#paint6_linear_2202_7562)" d="M21.2428 23.3635L22.4885 23.4968C22.9608 23.5474 23.3847 23.2055 23.4353 22.7331L23.8944 18.4443C23.945 17.972 23.603 17.5481 23.1307 17.4975L21.885 17.3642C21.4126 17.3136 20.9887 17.6555 20.9382 18.1279L20.4791 22.4167C20.4285 22.889 20.7704 23.3129 21.2428 23.3635Z"/><path fill="#0086F4" d="M21.6305 17.3764C21.6266 17.3985 21.6228 17.4206 21.6199 17.4427L21.161 21.731C21.1101 22.2033 21.4529 22.6276 21.9252 22.6776L23.1703 22.811C23.2567 22.8206 23.3412 22.8158 23.4228 22.8004C23.3412 23.2382 22.9361 23.5464 22.4868 23.4974L21.2417 23.364C20.7693 23.3131 20.4276 22.8897 20.4775 22.4174L20.9364 18.1291C20.9777 17.7432 21.2685 17.4446 21.6305 17.3755V17.3764Z"/><path fill="#FFBEB3" d="M21.0167 13.57C21.0167 10.424 19.0679 7.2666 13.907 7.2666C8.74602 7.2666 6.87306 10.7207 6.87306 13.8676C6.87306 14.0327 6.85674 22.5882 7.85898 24.5524C8.86122 26.5165 11.6193 28.521 14.0827 28.5306C16.7764 28.5412 19.1966 26.8112 20.3284 24.5524C21.4593 22.2935 21.0177 13.569 21.0177 13.569L21.0167 13.57Z"/><path fill="#F9A498" d="M8.85846 14.2784C8.90262 14.3101 8.94294 14.337 8.99478 14.3754C9.1359 14.5079 8.42742 16.088 8.63382 16.0957C9.65622 16.3108 10.8821 14.097 11.8815 14.4071C13.6402 14.9543 16.9474 19.3866 20.1932 19.2992C21.0466 18.4765 21.0178 13.57 21.0178 13.57C21.0178 10.424 19.069 7.2666 13.9081 7.2666C9.63222 7.2666 7.61814 9.63876 7.05078 12.2413C7.84854 12.5821 8.5167 13.2416 8.85942 14.2784H8.85846Z"/><g style="mix-blend-mode:multiply"><path fill="#EFE8E4" d="M20.0942 24.9679C20.1048 24.9496 20.1182 24.9343 20.1288 24.916C20.0712 24.9583 20.0107 24.9957 19.9512 25.037C19.9992 25.0159 20.0462 24.9909 20.0942 24.9679Z"/></g><path fill="#F9A498" d="M15.252 27.867C12.7886 27.8574 10.0305 25.8529 9.02926 23.8888C8.02702 21.9246 8.04334 13.3691 8.04334 13.2039C8.04334 11.7937 8.43598 10.3326 9.31726 9.13931C9.40942 8.88203 9.51598 8.62955 9.64078 8.38379C7.67278 9.65579 6.87502 11.8235 6.87502 13.8673C6.87502 14.0324 6.8587 22.588 7.86094 24.5521C8.86318 26.5163 11.6213 28.5207 14.0846 28.5303C15.4814 28.5361 16.7966 28.0619 17.9045 27.2996C17.0808 27.6616 16.1841 27.8708 15.2539 27.866L15.252 27.867Z"/><path fill="#F5A64B" d="M22.1714 12.819C21.5368 9.35536 18.7077 6.844 14.0824 6.8728C9.47059 6.9016 6.43987 9.72784 5.83411 12.9342C5.57395 14.307 5.34547 15.8997 5.45299 17.4549C6.69331 17.283 6.58387 17.7477 6.96211 17.8984C7.22035 20.7275 7.83667 20.6853 7.83667 20.6853C7.83667 20.6853 7.89331 18.7643 8.01907 17.4942C8.14483 16.2251 10.2232 15.9947 11.262 13.7992C14.5528 13.6562 16.6303 17.8706 20.2389 18.101C19.8818 20.187 20.6719 21.0165 20.6719 21.0165C20.6719 21.0165 20.7554 19.2933 21.0463 18.4763C21.2997 17.764 22.1042 17.14 22.4786 17.4491C22.6581 16.1531 22.5228 14.7333 22.1724 12.819H22.1714Z"/><g style="mix-blend-mode:soft-light" opacity=".5"><path fill="#fff" d="M22.1711 12.819C21.5365 9.35536 18.7074 6.844 14.0821 6.8728C10.0348 6.89776 7.20566 9.07888 6.16406 11.7803C7.46102 9.55888 10.0626 7.8904 13.5973 7.86832C18.2226 7.83952 21.0508 10.3509 21.6863 13.8146C21.9445 15.2219 22.1058 16.204 22.077 17.403C22.2277 17.4309 22.3689 17.3589 22.4773 17.4482C22.6569 16.1522 22.5215 14.7323 22.1711 12.8181V12.819Z"/></g><g style="mix-blend-mode:multiply" opacity=".1"><path fill="#AFAAA8" d="M11.2608 12.1538C10.2221 14.3493 6.8736 16.4181 5.48064 16.828C5.47584 16.757 5.47488 16.6735 5.47104 16.5976C5.44512 17.284 5.41632 16.9231 5.4528 17.4549C6.23328 16.8127 6.33984 17.2812 6.71808 17.4319C6.97632 20.261 7.83552 20.6853 7.83552 20.6853C7.83552 20.6853 7.89216 18.7644 8.01792 17.4943C8.14368 16.2252 10.2221 15.9948 11.2608 13.7992C14.5373 13.6562 16.6128 17.8312 20.1926 18.0952C17.5526 17.1784 14.5517 12.0108 11.2608 12.1538Z"/></g><path fill="#141B30" d="M4.99563 17.5136C5.02443 17.5078 5.05323 17.503 5.08203 17.5002L6.10155 17.3907C6.09867 17.3475 6.09579 17.3034 6.09291 17.2621C6.06891 16.809 6.03147 16.3626 6.02955 15.9123C6.03147 15.1914 6.13131 14.4694 6.32907 13.7763C7.26891 10.3597 10.5617 7.93088 14.1032 8.03168C17.6446 7.92992 20.9374 10.3597 21.8772 13.7754C22.075 14.4685 22.1748 15.1904 22.1768 15.9114C22.1758 16.3616 22.1374 16.808 22.1134 17.2611C22.1105 17.3024 22.1076 17.3466 22.1048 17.3898L23.1243 17.4992C23.154 17.5021 23.1828 17.5069 23.2107 17.5126C23.2155 17.4349 23.2193 17.3706 23.2222 17.3274C23.2491 16.8598 23.2894 16.3827 23.2923 15.9104C23.2923 15.0867 23.1809 14.264 22.9572 13.4701C21.8974 9.56576 18.1447 6.77792 14.1022 6.87296C10.0596 6.77792 6.30699 9.56672 5.24715 13.4701C5.02347 14.264 4.91211 15.0867 4.91211 15.9104C4.91403 16.3837 4.95435 16.8598 4.98219 17.3274C4.98507 17.3706 4.98891 17.4339 4.99371 17.5126L4.99563 17.5136Z"/><path fill="#24285B" d="M21.5578 23.4004L21.4541 23.9485C21.336 24.5754 20.7878 25.0295 20.1504 25.0295H16.6166C16.4093 24.8394 16.0541 24.7146 15.6499 24.7146C15.0096 24.7146 14.4902 25.0295 14.4902 25.4173C14.4902 25.8052 15.0096 26.1201 15.6499 26.1201C16.0608 26.1201 16.4208 25.9905 16.6272 25.7956H20.1514C21.1565 25.7956 22.0214 25.0785 22.2067 24.0906L22.321 23.4849L21.5587 23.4013L21.5578 23.4004Z"/></g><defs><linearGradient id="paint0_linear_2202_7562" x1="28.552" x2="38.725" y1="8.904" y2="8.91" gradientUnits="userSpaceOnUse"><stop stop-color="#2F66F4"/><stop offset="1" stop-color="#0D9AE9"/></linearGradient><linearGradient id="paint1_linear_2202_7562" x1="31.099" x2="35.467" y1="8.904" y2="8.908" gradientUnits="userSpaceOnUse"><stop stop-color="#2F66F4"/><stop offset="1" stop-color="#0D9AE9"/></linearGradient><linearGradient id="paint2_linear_2202_7562" x1="19.674" x2="9.11" y1="44.807" y2="35.013" gradientUnits="userSpaceOnUse"><stop stop-color="#F98D3D"/><stop offset="1" stop-color="#F9AE3D"/></linearGradient><linearGradient id="paint3_linear_2202_7562" x1="12.257" x2="8.463" y1="38.086" y2="36.903" gradientUnits="userSpaceOnUse"><stop stop-color="#F98D3D"/><stop offset="1" stop-color="#F9AE3D"/></linearGradient><linearGradient id="paint4_linear_2202_7562" x1="18.371" x2="14.576" y1="38.086" y2="36.903" gradientUnits="userSpaceOnUse"><stop stop-color="#F98D3D"/><stop offset="1" stop-color="#F9AE3D"/></linearGradient><linearGradient id="paint5_linear_2202_7562" x1="5.276" x2="6.993" y1="20.512" y2="20.329" gradientUnits="userSpaceOnUse"><stop stop-color="#2F66F4"/><stop offset="1" stop-color="#0D9AE9"/></linearGradient><linearGradient id="paint6_linear_2202_7562" x1="22.94" x2="21.223" y1="20.511" y2="20.327" gradientUnits="userSpaceOnUse"><stop stop-color="#2F66F4"/><stop offset="1" stop-color="#0D9AE9"/></linearGradient><clipPath id="clip0_2202_7562"><rect width="42" height="40" fill="#fff"/></clipPath></defs></svg>