<svg width="125" height="109" viewBox="0 0 125 109" fill="none" xmlns="http://www.w3.org/2000/svg">
<g clip-path="url(#clip0_2250_4878)">
<path d="M79.6282 21.817C73.5979 21.817 68.7094 16.9442 68.7094 10.9334C68.7094 4.92255 73.5979 0.0498047 79.6282 0.0498047C85.6584 0.0498047 90.5469 4.92255 90.5469 10.9334C90.5469 16.9442 85.6584 21.817 79.6282 21.817Z" fill="#C7C9C9"/>
<path d="M79.6315 18.5821C75.3938 18.5821 71.9584 15.1577 71.9584 10.9336C71.9584 6.70949 75.3938 3.28516 79.6315 3.28516C83.8693 3.28516 87.3047 6.70949 87.3047 10.9336C87.3047 15.1577 83.8693 18.5821 79.6315 18.5821Z" fill="#E6E6E6"/>
<path d="M79.6289 5.80811V10.9333L76.536 13.5106" stroke="#898989" stroke-width="2.03" stroke-linecap="round" stroke-linejoin="round"/>
<mask id="mask0_2250_4878" style="mask-type:luminance" maskUnits="userSpaceOnUse" x="-6" y="-2" width="145" height="111">
<path d="M85.2475 3.649C118.412 9.35835 141.885 39.6429 138.236 72.9908C137.285 81.464 134.823 88.9259 129.863 93.7368C110.02 112.883 27.4231 116.746 6.96466 87.2911C-13.4938 57.8362 -7.6429 5.93667 21.0551 -0.415773C35.1898 -3.55272 61.8538 -0.376498 85.2475 3.649Z" fill="white"/>
</mask>
<g mask="url(#mask0_2250_4878)">
<path d="M13.6946 98.3213C13.6946 98.3213 13.4581 105.606 18.7377 107.32C24.0173 109.033 42.0773 111.895 51.1098 106.466C60.1422 101.036 54.6065 93.8883 46.9088 94.4627C39.211 95.0371 13.6946 98.3213 13.6946 98.3213Z" fill="url(#paint0_linear_2250_4878)"/>
<path d="M21.412 40.1676C21.412 40.1676 23.0127 30.747 16.1324 28.5968C9.25222 26.4466 -0.637175 28.7342 0.219776 39.0238C1.07673 49.3134 13.6946 98.3214 13.6946 98.3214L28.0312 97.3396C28.0312 97.3396 16.8022 61.601 21.412 40.1676Z" fill="url(#paint1_linear_2250_4878)"/>
<path d="M36.1567 53L21.9875 56.3333L26.6071 76.1516C26.8584 77.2142 27.3237 78.2149 27.9749 79.0928C28.6261 79.9708 29.4495 80.7076 30.3951 81.2585C31.3408 81.8095 32.3889 82.1631 33.4759 82.2978C34.5628 82.4326 35.6659 82.3458 36.7181 82.0425L62.6236 74.6003C62.6236 74.6003 66.1598 78.0367 69.2182 76.6965C72.2766 75.3563 66.2632 70.506 63.3082 70.5993C60.3532 70.6926 36.7132 72.887 36.7132 72.887L36.1567 53Z" fill="#F4A28C"/>
<path opacity="0.08" d="M36.1567 53L21.9875 56.3333L26.6071 76.1516C26.8584 77.2142 27.3237 78.2149 27.9749 79.0928C28.6261 79.9708 29.4495 80.7076 30.3951 81.2585C31.3408 81.8095 32.3889 82.1631 33.4759 82.2978C34.5628 82.4326 35.6659 82.3458 36.7181 82.0425L62.6236 74.6003C62.6236 74.6003 66.1598 78.0367 69.2182 76.6965C72.2766 75.3563 66.2632 70.506 63.3082 70.5993C60.3532 70.6926 36.7132 72.887 36.7132 72.887L36.1567 53Z" fill="#FCCDAA"/>
<path d="M36.4458 21.0806L32.9786 33.2651L39.2383 36.1173L38.9723 25.6019L36.4458 21.0806Z" fill="#FCCDAA"/>
<path opacity="0.31" d="M39.0586 27.6541C38.1234 27.2961 37.3137 26.6732 36.7291 25.8623C36.7291 25.8623 36.5321 28.4396 39.0537 31.3066L39.0586 27.6541Z" fill="#CE8172"/>
<path d="M44.3754 21.4785C44.3754 21.4785 43.9912 25.7642 42.7747 28.4495C42.6573 28.7088 42.4895 28.9423 42.2811 29.1367C42.0727 29.331 41.8277 29.4823 41.5603 29.5818C41.2929 29.6812 41.0084 29.727 40.7232 29.7163C40.438 29.7057 40.1577 29.6388 39.8986 29.5197C38.5491 28.8913 36.914 27.6542 36.8401 25.3322L36.2294 21.4048C36.2294 21.4048 35.929 18.9503 38.6328 17.6346C41.3367 16.319 44.7398 18.8766 44.3754 21.4785Z" fill="#FCCDAA"/>
<path d="M43.993 24.1685L44.8893 25.9996C44.9376 26.1039 44.959 26.2185 44.9517 26.3332C44.9444 26.4478 44.9086 26.5588 44.8476 26.6562C44.7865 26.7536 44.7021 26.8344 44.6019 26.8911C44.5017 26.9479 44.3889 26.9789 44.2737 26.9814H42.5943L43.993 24.1685Z" fill="#FCCDAA"/>
<path opacity="0.08" d="M19.5259 41.1641C19.5259 41.1641 14.8028 42.8675 14.6698 53C14.5369 63.1325 20.8359 80.9822 20.7424 90.2654C20.6488 99.5486 32.1388 110.525 49.4354 100.462C66.732 90.3979 35.1184 86.9566 35.1184 86.9566L19.5259 41.1641Z" fill="black"/>
<path d="M24.1083 81.3701C24.1083 81.3701 22.0054 94.1781 28.0483 97.32C34.0913 100.462 49.4524 100.462 49.4524 100.462L47.2558 117.182H69.4873L70.0586 84.6053L45.7094 81.3701H24.1083Z" fill="#141B30"/>
<path d="M56.6933 78.1396H125.215V84.605H56.6933V78.1396Z" fill="#E6E6E6"/>
<path d="M104.002 48.0269L117.477 78.1396H96.831V75.4592L111.453 74.0306L101.992 50.0249L104.002 48.0269Z" fill="#E6E6E6"/>
<path d="M95.7497 68.6602L98.8673 68.6406L109.461 35.3271L107.102 32.9756L95.7497 68.6602Z" fill="#141B30"/>
<path d="M66.3531 75.7441H87.9492V78.1398H66.3531V75.7441Z" fill="url(#paint2_linear_2250_4878)"/>
<path d="M44.6342 21.1091C44.6342 21.1091 45.0729 20.1859 40.2269 22.544L35.0744 25.9298C35.0744 25.9298 33.3901 22.1596 34.3209 18.8704C35.2517 15.5813 43.3783 14.3934 44.6342 21.1091Z" fill="#141B30"/>
<path d="M35.7394 17.4223C34.3033 17.4223 33.139 16.2619 33.139 14.8303C33.139 13.3988 34.3033 12.2383 35.7394 12.2383C37.1756 12.2383 38.3398 13.3988 38.3398 14.8303C38.3398 16.2619 37.1756 17.4223 35.7394 17.4223Z" fill="#141B30"/>
<path d="M37.3087 24.1685C37.3087 24.1685 37.2052 29.8287 41.4062 30.4031" stroke="#24285B" stroke-width="1.015" stroke-miterlimit="10"/>
<path d="M41.9148 31.3406C41.3953 31.3406 40.9741 30.9208 40.9741 30.403C40.9741 29.8851 41.3953 29.4653 41.9148 29.4653C42.4343 29.4653 42.8555 29.8851 42.8555 30.403C42.8555 30.9208 42.4343 31.3406 41.9148 31.3406Z" fill="#24285B"/>
<path d="M39.2077 24.3059C39.2077 24.3059 39.4687 22.6712 38.2227 22.5779C36.9767 22.4846 36.5827 24.8459 38.2227 25.3663L39.2077 24.3059Z" fill="#FCCDAA"/>
<path d="M39.24 36.1174L32.9804 33.2652C32.9804 33.2652 22.7758 33.167 19.5253 41.164C16.2748 49.161 24.1104 81.37 24.1104 81.37H45.7115C46.1948 73.953 47.1522 66.5743 48.5778 59.2788C50.868 47.8355 48.8241 43.6382 39.24 36.1174Z" fill="url(#paint3_linear_2250_4878)"/>
<path opacity="0.08" d="M33.5002 39.3037C35.314 40.631 36.7901 42.364 37.8097 44.3634C38.8293 46.3628 39.364 48.5728 39.3708 50.8157C39.3412 58.4543 37.6372 72.8381 42.8675 72.7498L46.2461 75.062L45.724 81.3702H31.4415C31.4415 81.3702 25.0981 80.9088 24.054 63.5942C23.0099 46.2796 33.5002 39.3037 33.5002 39.3037Z" fill="black"/>
<path d="M35.5813 48.9058L21.412 52.2391L26.0514 72.0524C26.3027 73.1151 26.768 74.1158 27.4192 74.9937C28.0704 75.8716 28.8938 76.6084 29.8394 77.1594C30.7851 77.7103 31.8332 78.0639 32.9201 78.1987C34.0071 78.3335 35.1102 78.2466 36.1624 77.9434L62.0679 70.506C62.0679 70.506 65.6041 73.9424 68.6576 72.6022C71.7111 71.262 65.7026 66.4069 62.7476 66.5051C59.7926 66.6032 36.1526 68.7927 36.1526 68.7927L35.5813 48.9058Z" fill="#FCCDAA"/>
<path d="M60.4278 65.8867H62.3633V71.817H60.4278V65.8867Z" fill="url(#paint4_linear_2250_4878)"/>
<path d="M40.6969 37.2909L40.9727 33.2752L32.9794 31.3115L31.9451 33.3194C31.9451 33.3194 33.6787 37.016 40.6969 37.2909Z" fill="url(#paint5_linear_2250_4878)"/>
<path d="M64.0117 84.605H118.625V117.182H64.0117V84.605Z" fill="#C7C9C9"/>
<path d="M35.5781 48.9057C35.5781 48.9057 35.2531 38.0467 30.9339 36.9863C26.6146 35.9259 18.3259 36.5788 21.4089 52.239L35.5781 48.9057Z" fill="#F98D3D"/>
<path d="M35.5781 48.9057C35.5781 48.9057 35.2531 38.0467 30.9339 36.9863C26.6146 35.9259 18.3259 36.5788 21.4089 52.239L35.5781 48.9057Z" fill="url(#paint6_linear_2250_4878)"/>
</g>
<path opacity="0.08" d="M118.625 84.605V94.7718L64.0068 88.2525V84.605H118.625Z" fill="black"/>
</g>
<defs>
<linearGradient id="paint0_linear_2250_4878" x1="45.4655" y1="102.026" x2="21.0172" y2="102.068" gradientUnits="userSpaceOnUse">
<stop stop-color="#2F66F4"/>
<stop offset="1" stop-color="#0D9AE9"/>
</linearGradient>
<linearGradient id="paint1_linear_2250_4878" x1="21.2019" y1="63.0906" x2="5.01644" y2="63.0946" gradientUnits="userSpaceOnUse">
<stop stop-color="#2F66F4"/>
<stop offset="1" stop-color="#0D9AE9"/>
</linearGradient>
<linearGradient id="paint2_linear_2250_4878" x1="82.6561" y1="76.942" x2="70.1116" y2="77.0118" gradientUnits="userSpaceOnUse">
<stop stop-color="#2F66F4"/>
<stop offset="1" stop-color="#0D9AE9"/>
</linearGradient>
<linearGradient id="paint3_linear_2250_4878" x1="27.9238" y1="104.035" x2="48.6156" y2="99.3948" gradientUnits="userSpaceOnUse">
<stop stop-color="#F98D3D"/>
<stop offset="1" stop-color="#F9AE3D"/>
</linearGradient>
<linearGradient id="paint4_linear_2250_4878" x1="61.8889" y1="68.8518" x2="60.7646" y2="68.8521" gradientUnits="userSpaceOnUse">
<stop stop-color="#2F66F4"/>
<stop offset="1" stop-color="#0D9AE9"/>
</linearGradient>
<linearGradient id="paint5_linear_2250_4878" x1="34.6471" y1="40.1081" x2="39.6344" y2="37.4622" gradientUnits="userSpaceOnUse">
<stop stop-color="#F98D3D"/>
<stop offset="1" stop-color="#F9AE3D"/>
</linearGradient>
<linearGradient id="paint6_linear_2250_4878" x1="25.1793" y1="59.5802" x2="34.6273" y2="56.418" gradientUnits="userSpaceOnUse">
<stop stop-color="#F98D3D"/>
<stop offset="1" stop-color="#F9AE3D"/>
</linearGradient>
<clipPath id="clip0_2250_4878">
<rect width="125" height="109" fill="white" transform="matrix(-1 0 0 1 125 0)"/>
</clipPath>
</defs>
</svg>
