<svg xmlns="http://www.w3.org/2000/svg" width="226" height="171" fill="none" viewBox="0 0 226 171"><path fill="#FEF4E4" d="M222.502 171H139.502H4.5C4.5 109.771 52.4425 74.3945 113.672 74.3945C174.9 74.3945 222.502 109.771 222.502 171Z"/><path fill="url(#paint0_linear_625_6)" d="M126.236 109.262L133.704 104.264L139.446 111.494C139.446 111.494 173.066 104.561 185.503 115.391C202.759 130.416 188.5 171 188.5 171H48.9998C48.4345 169.334 51.0012 157 57.4193 142.971C68.9334 130.178 94.8179 123.781 94.8179 123.781L126.236 109.262Z"/><path fill="#FCCDAA" d="M98.7715 96.5858L101.479 139.102L131.35 125.684L128.851 81.918L98.7715 96.5858Z"/><path fill="#FAB989" d="M107.997 124.642C116.179 119.941 122.963 113.753 130.341 108.159L128.824 81.918L98.7441 96.5858L100.827 128.956C103.148 127.498 105.528 126.041 107.997 124.642Z"/><path fill="#FCCDAA" d="M111.659 21.4331C133.973 25.8364 133.468 39.6415 133.468 39.6415C133.468 39.6415 132.843 50.2928 132.516 62.9673C134.568 60.4086 138.049 59.3077 141.62 60.6466C149.236 63.5028 143.792 85.0733 132.248 83.2881C131.802 89.2981 131.177 93.9989 130.344 95.6055C127.16 101.764 109.428 117.176 96.8128 118.723C84.1978 120.27 73.8738 102.121 73.7845 88.7031C73.6953 75.2848 71.0176 36.2498 71.0176 36.2498C71.0176 36.2498 74.7068 14.114 111.659 21.4331Z"/><path fill="#141B30" d="M94.7012 52.6733C94.7012 52.6733 94.7606 50.9179 96.0697 48.8352C96.7242 47.7939 97.6169 46.6634 98.9557 45.741C99.5805 45.2352 100.384 44.8782 101.217 44.5212C102.11 44.2534 102.972 43.9261 103.984 43.9559C104.966 43.8964 105.947 43.9856 106.87 44.2831C107.822 44.4616 108.595 45.0269 109.369 45.4137C110.083 45.8898 110.619 46.5146 111.154 47.0204C111.66 47.5857 111.957 48.2104 112.255 48.746C112.909 49.7873 113.028 50.8882 113.177 51.5725C113.296 52.2865 113.296 52.7031 113.296 52.7031C113.296 52.7031 112.88 52.5543 112.225 52.2568C111.571 51.989 110.797 51.4832 109.845 51.1262C109.369 50.9477 108.923 50.6799 108.417 50.5311C107.971 50.3824 107.465 50.2336 106.989 50.0551C106.513 50.0253 106.067 49.7874 105.62 49.8469C105.174 49.8171 104.757 49.7576 104.281 49.8171C103.835 49.7576 103.359 49.9658 102.883 49.9658C102.407 50.1146 101.871 50.1741 101.366 50.3526C100.324 50.6204 99.2531 51.0667 98.2713 51.394C96.3374 52.1378 94.7012 52.6733 94.7012 52.6733Z"/><path fill="#141B30" d="M73.8913 52.8203C73.8913 52.8203 73.7724 51.4814 74.546 49.9045C75.26 48.3574 77.0451 46.3937 79.9014 45.9772C80.6154 45.8879 81.2998 45.8582 82.0138 46.0368C82.7279 46.0963 83.323 46.4235 83.918 46.6913C84.5131 46.9591 84.8998 47.4053 85.3163 47.7624C85.7328 48.1194 85.9411 48.5954 86.2088 48.9822C86.7146 49.726 86.804 50.5293 86.8933 51.0351C86.9528 51.5707 86.9526 51.8682 86.9526 51.8682C86.9526 51.8682 86.6255 51.8086 86.1197 51.7194C85.6139 51.6301 84.9889 51.3921 84.3046 51.3029C83.9476 51.2731 83.6204 51.1244 83.2932 51.1244C82.9659 51.1244 82.6386 51.0054 82.3411 51.0351C81.746 51.0351 81.2403 51.0352 80.7047 51.1542C79.6337 51.2434 78.0865 51.7491 76.6287 52.1062C75.1708 52.5525 73.8913 52.8203 73.8913 52.8203Z"/><path fill="#fff" d="M109.52 97.6602L83.9629 98.0767C83.9629 98.0767 89.6159 111.197 109.52 97.6602Z"/><path fill="#141B30" d="M111.329 61.9851C111.329 64.5438 110.139 66.6265 108.681 66.6265C107.223 66.6265 106.033 64.5438 106.033 61.9851C106.033 59.4264 107.223 57.3438 108.681 57.3438C110.139 57.3438 111.329 59.4264 111.329 61.9851Z"/><path fill="#141B30" d="M87.087 63.1169C87.087 65.6756 85.8969 67.7583 84.439 67.7583C82.9812 67.7583 81.791 65.6756 81.791 63.1169C81.791 60.5582 82.9812 58.4756 84.439 58.4756C85.8969 58.4756 87.087 60.5582 87.087 63.1169Z"/><path fill="#141B30" d="M113.53 32.5023C118.023 38.8693 116.684 49.3124 119.362 52.0496C122.04 54.7868 127.365 55.6496 126.026 70.734C125.848 72.7572 125.669 74.8993 125.461 77.1307C126.562 76.863 127.692 76.6547 128.942 76.5952C130.192 76.5357 131.352 76.6249 132.483 76.7439C132.602 71.091 133.167 67.5208 133.167 67.5208C133.167 67.5208 138.998 36.3998 138.046 32.056C137.094 27.7419 128.347 12.4195 114.78 9.35498L118.38 13.6988C117.041 12.1815 110.972 6.43928 97.3155 8.90872L100.707 9.62274C100.707 9.62274 83.8377 11.1699 71.8475 6.70703L76.1615 11.5567C76.1615 11.5567 64.4689 10.9319 59.9168 7.09383C59.9168 7.09383 53.4604 25.927 69.4374 34.2874C85.4144 42.6478 109.038 26.1055 113.53 32.5023Z"/><path fill="#141B30" d="M94.0668 89.7759C94.0668 89.7759 110.907 85.4619 116.619 96.7083C116.619 96.7083 99.8089 99.862 94.0072 95.3992C94.0072 95.3992 86.4204 99.4752 79.3691 97.3033C79.3691 97.2735 83.1774 87.6933 94.0668 89.7759Z"/><path fill="#7F6654" d="M88.9719 62.374C88.8826 66.6286 88.4066 70.8236 87.7223 74.989C87.038 79.1543 86.205 83.2601 85.1637 87.3362L84.5388 86.3544C87.8116 87.366 91.0546 88.4965 94.2679 89.7461C90.8464 89.2998 87.4842 88.7048 84.1222 88.0205L83.4082 87.8718L83.4975 87.0387C84.0033 82.8436 84.7174 78.708 85.5802 74.6022C86.4431 70.4666 87.514 66.3906 88.9719 62.374Z"/><path fill="#96CDFF" stroke="#20242E" stroke-miterlimit="10" stroke-width="4" d="M65.7873 69.4835L83.9065 68.3232C83.9065 68.3232 85.4239 80.2539 78.7297 82.1283C64.3593 86.1746 65.7873 69.4835 65.7873 69.4835Z"/><path fill="#96CDFF" stroke="#20242E" stroke-miterlimit="10" stroke-width="4" d="M91.4006 68.3225L109.52 67.1621C109.52 67.1621 111.037 79.0928 104.343 80.9672C89.9726 85.0135 91.4006 68.3225 91.4006 68.3225Z"/><path stroke="#20242E" stroke-miterlimit="10" stroke-width="4" d="M84.1074 72.3703C84.1074 72.3703 87.0825 67.5802 91.5751 72.1918"/><path fill="#FAB989" d="M145.141 145.949L161.267 135.863C161.267 135.863 187.449 148.538 182.837 163.503C182.025 166.15 179.526 168.722 176.148 171H142.247C141.82 161.126 145.141 145.949 145.141 145.949Z"/><path fill="#A07E67" d="M120.233 63.5659H125.588V63.7146C125.737 63.6551 125.916 63.6254 126.094 63.5659C126.421 61.87 126.868 60.2336 127.641 58.6865C124.071 58.746 116.752 59.7873 116.752 59.7873L111.396 65.946C116.484 70.2601 120.233 63.5659 120.233 63.5659Z"/><path fill="#A07E67" d="M121.901 65.9137H125.947V66.0625C126.066 66.003 126.185 65.9732 126.304 65.9434C126.542 64.4558 126.899 63.0278 127.464 61.6592C124.787 61.7187 119.283 62.6112 119.283 62.6112L115.236 68.0261C119.074 71.8047 121.901 65.9137 121.901 65.9137Z"/><path stroke="#20242E" stroke-miterlimit="10" stroke-width="4" d="M110.029 68.7995L131.897 62.7598"/><path fill="url(#paint1_linear_625_6)" d="M93.127 124.705L103.51 148.001L108.955 135.059L108.42 134.375L99.7617 119.796L93.127 124.705Z"/><path fill="#2F66F4" d="M135.73 102.838L109.459 135.089L117.016 149.162L145.4 110.871L135.73 102.838Z"/><path fill="#FCCDAA" d="M137.335 103.639L128.855 86.1149C127.695 90.786 119.751 82.0685 115.467 84.657C115.806 90.9282 113.691 149.431 132.539 171H163.054C165.647 165.982 166.049 159.159 163.517 151.986C156.912 133.272 137.335 103.639 137.335 103.639Z"/><path fill="#FCCDAA" d="M108.006 63.2964L113.361 57.1377C113.361 57.1377 122.763 55.7989 125.441 56.0667C128.118 56.3344 129.993 61.1543 129.993 61.1543L131.867 61.6898L133.742 66.7775L135.884 68.3841C135.884 68.3841 132.938 88.2586 125.679 90.133C118.419 92.0074 111.189 88.2586 116.545 78.0536C121.9 67.8485 122.168 66.5097 122.168 66.5097V60.8865H116.813C116.872 60.8865 113.094 67.6105 108.006 63.2964Z"/><defs><linearGradient id="paint0_linear_625_6" x1="203.805" x2="31.611" y1="99.314" y2="285.34" gradientUnits="userSpaceOnUse"><stop stop-color="#2F66F4"/><stop offset="1" stop-color="#0D9AE9"/></linearGradient><linearGradient id="paint1_linear_625_6" x1="97.006" x2="106.201" y1="133.899" y2="133.902" gradientUnits="userSpaceOnUse"><stop stop-color="#2F66F4"/><stop offset="1" stop-color="#0D9AE9"/></linearGradient></defs></svg>