<svg width="14" height="8" viewBox="0 0 14 8" fill="none" xmlns="http://www.w3.org/2000/svg">
<path d="M0.935937 0.766601C1.1026 0.599934 1.29994 0.516601 1.52794 0.516601C1.75549 0.516601 1.9526 0.599934 2.11927 0.766601L7.0026 5.64993L11.9026 0.749935C12.0582 0.594379 12.2526 0.516602 12.4859 0.516602C12.7193 0.516602 12.9193 0.599935 13.0859 0.766602C13.2526 0.933268 13.3359 1.1306 13.3359 1.3586C13.3359 1.58616 13.2526 1.78327 13.0859 1.94993L7.46927 7.54994C7.4026 7.6166 7.33038 7.66394 7.2526 7.69194C7.17483 7.71949 7.09149 7.73327 7.0026 7.73327C6.91371 7.73327 6.83038 7.71949 6.7526 7.69194C6.67483 7.66394 6.6026 7.6166 6.53594 7.54994L0.91927 1.93327C0.763715 1.77771 0.685937 1.58616 0.685937 1.3586C0.685937 1.1306 0.76927 0.933268 0.935937 0.766601Z" fill="#141B30"/>
</svg>
