<svg width="106" height="90" viewBox="0 0 106 90" fill="none" xmlns="http://www.w3.org/2000/svg">
<g clip-path="url(#clip0_2202_6920)">
<path opacity="0.27" d="M99.224 5.65039H0.146484V69.939H99.224V5.65039Z" fill="#C9C9C9"/>
<path d="M42.2001 62.5967L38.4336 86.4704H63.5343L57.7636 62.5967H42.2001Z" fill="#C9C9C9"/>
<path d="M99.224 55.2549H0.146484V69.9385H99.224V55.2549Z" fill="#E6E6E6"/>
<path d="M50.2421 65.6992C52.4404 65.6992 54.2225 63.9195 54.2225 61.7241C54.2225 59.5287 52.4404 57.749 50.2421 57.749C48.0438 57.749 46.2617 59.5287 46.2617 61.7241C46.2617 63.9195 48.0438 65.6992 50.2421 65.6992Z" fill="#A5A5A5"/>
<path d="M68.0091 82.2861H32.7109V89.9577H68.0091V82.2861Z" fill="#E6E6E6"/>
<path d="M8.20515 13.7953C9.16306 13.7953 9.9396 13.0198 9.9396 12.0632C9.9396 11.1066 9.16306 10.3311 8.20515 10.3311C7.24724 10.3311 6.4707 11.1066 6.4707 12.0632C6.4707 13.0198 7.24724 13.7953 8.20515 13.7953Z" fill="#24285B"/>
<path d="M13.3614 13.7953C14.3193 13.7953 15.0958 13.0198 15.0958 12.0632C15.0958 11.1066 14.3193 10.3311 13.3614 10.3311C12.4035 10.3311 11.627 11.1066 11.627 12.0632C11.627 13.0198 12.4035 13.7953 13.3614 13.7953Z" fill="#2F66F4"/>
<path d="M18.2208 13.7953C19.1787 13.7953 19.9552 13.0198 19.9552 12.0632C19.9552 11.1066 19.1787 10.3311 18.2208 10.3311C17.2629 10.3311 16.4863 11.1066 16.4863 12.0632C16.4863 13.0198 17.2629 13.7953 18.2208 13.7953Z" fill="#F98D3D"/>
<path d="M54.9563 26.2219H52.5383V20.5704C52.5627 20.0979 52.4906 19.6254 52.3264 19.1816C52.1622 18.7378 51.9092 18.332 51.583 17.9889C51.2567 17.6458 50.864 17.3726 50.4287 17.186C49.9934 16.9993 49.5245 16.903 49.0508 16.903C48.577 16.903 48.1082 16.9993 47.6729 17.186C47.2375 17.3726 46.8448 17.6458 46.5186 17.9889C46.1923 18.332 45.9394 18.7378 45.7751 19.1816C45.6109 19.6254 45.5388 20.0979 45.5633 20.5704V26.2219H43.1406V20.5704C43.1838 19.0331 43.8257 17.5732 44.9297 16.501C46.0338 15.4289 47.5131 14.8291 49.0531 14.8291C50.5931 14.8291 52.0724 15.4289 53.1764 16.501C54.2805 17.5732 54.9224 19.0331 54.9656 20.5704L54.9563 26.2219Z" fill="#2F66F4"/>
<path opacity="0.46" d="M54.9563 26.2219H52.5383V20.5704C52.5627 20.0979 52.4906 19.6254 52.3264 19.1816C52.1622 18.7378 51.9092 18.332 51.583 17.9889C51.2567 17.6458 50.864 17.3726 50.4287 17.186C49.9934 16.9993 49.5245 16.903 49.0508 16.903C48.577 16.903 48.1082 16.9993 47.6729 17.186C47.2375 17.3726 46.8448 17.6458 46.5186 17.9889C46.1923 18.332 45.9394 18.7378 45.7751 19.1816C45.6109 19.6254 45.5388 20.0979 45.5633 20.5704V26.2219H43.1406V20.5704C43.1838 19.0331 43.8257 17.5732 44.9297 16.501C46.0338 15.4289 47.5131 14.8291 49.0531 14.8291C50.5931 14.8291 52.0724 15.4289 53.1764 16.501C54.2805 17.5732 54.9224 19.0331 54.9656 20.5704L54.9563 26.2219Z" fill="white"/>
<path d="M58.0905 21.9033H40.002V36.3037H58.0905V21.9033Z" fill="#2F66F4"/>
<path d="M50.6872 27.1365C50.6999 26.8783 50.66 26.6201 50.5699 26.3777C50.4797 26.1353 50.3411 25.9138 50.1626 25.7265C49.9841 25.5392 49.7694 25.3901 49.5314 25.2882C49.2935 25.1863 49.0373 25.1338 48.7783 25.1338C48.5194 25.1338 48.2632 25.1863 48.0253 25.2882C47.7873 25.3901 47.5725 25.5392 47.394 25.7265C47.2155 25.9138 47.077 26.1353 46.9868 26.3777C46.8967 26.6201 46.8567 26.8783 46.8695 27.1365C46.8681 27.3992 46.9225 27.6592 47.0291 27.8993C47.1357 28.1395 47.2921 28.3543 47.488 28.5296V32.579H50.1106V28.5018C50.2925 28.3238 50.4372 28.1114 50.5362 27.877C50.6352 27.6426 50.6865 27.3909 50.6872 27.1365Z" fill="#24285B"/>
<path d="M66.1726 41.8154H31.916V49.0783H66.1726V41.8154Z" fill="white"/>
<path d="M66.1718 41.8154H55.5977V49.0783H66.1718V41.8154Z" fill="#F98D3D"/>
<path d="M36.3044 46.5056C36.8566 46.5056 37.3042 46.0586 37.3042 45.5072C37.3042 44.9558 36.8566 44.5088 36.3044 44.5088C35.7523 44.5088 35.3047 44.9558 35.3047 45.5072C35.3047 46.0586 35.7523 46.5056 36.3044 46.5056Z" fill="#24285B"/>
<path d="M40.0193 46.5056C40.5714 46.5056 41.019 46.0586 41.019 45.5072C41.019 44.9558 40.5714 44.5088 40.0193 44.5088C39.4671 44.5088 39.0195 44.9558 39.0195 45.5072C39.0195 46.0586 39.4671 46.5056 40.0193 46.5056Z" fill="#24285B"/>
<path d="M43.6462 46.5056C44.1984 46.5056 44.646 46.0586 44.646 45.5072C44.646 44.9558 44.1984 44.5088 43.6462 44.5088C43.0941 44.5088 42.6465 44.9558 42.6465 45.5072C42.6465 46.0586 43.0941 46.5056 43.6462 46.5056Z" fill="#24285B"/>
<path d="M47.363 46.5056C47.9152 46.5056 48.3628 46.0586 48.3628 45.5072C48.3628 44.9558 47.9152 44.5088 47.363 44.5088C46.8109 44.5088 46.3633 44.9558 46.3633 45.5072C46.3633 46.0586 46.8109 46.5056 47.363 46.5056Z" fill="#24285B"/>
<path d="M51.1619 46.5056C51.714 46.5056 52.1616 46.0586 52.1616 45.5072C52.1616 44.9558 51.714 44.5088 51.1619 44.5088C50.6097 44.5088 50.1621 44.9558 50.1621 45.5072C50.1621 46.0586 50.6097 46.5056 51.1619 46.5056Z" fill="#24285B"/>
<path opacity="0.4" d="M99.2278 23.4912H84.4688V31.46H99.2278V23.4912Z" fill="#A5A5A5"/>
<path d="M105.599 -0.457031H80.875V24.234H105.599V-0.457031Z" fill="#24285B"/>
<path d="M88.3945 11.6542L91.2682 16.428L98.1595 7.34473" stroke="white" stroke-width="5.075" stroke-linecap="round" stroke-linejoin="round"/>
</g>
<defs>
<clipPath id="clip0_2202_6920">
<rect width="106" height="90" fill="white"/>
</clipPath>
</defs>
</svg>
