<svg width="81" height="88" viewBox="0 0 81 88" fill="none" xmlns="http://www.w3.org/2000/svg">
<g clip-path="url(#clip0_2202_7339)">
<path d="M0.779782 6.25825L0.329782 3.57148C0.251373 3.10263 0.276511 2.62241 0.403449 2.1642C0.530387 1.70599 0.756079 1.28078 1.06484 0.918139C1.3736 0.555494 1.75802 0.264111 2.19138 0.0642408C2.62474 -0.13563 3.09664 -0.239192 3.57428 -0.239246H78.0718C78.5358 -0.240488 78.9946 -0.140838 79.4159 0.0527309C79.8372 0.2463 80.2109 0.529117 80.5109 0.881404C80.811 1.23369 81.03 1.64694 81.1528 2.09226C81.2756 2.53758 81.2991 3.00422 81.2218 3.45953L80.6008 7.13144L0.779782 6.25825Z" fill="#2F66F4"/>
<path d="M30.1924 55.3809C30.1924 55.3809 26.0569 58.896 29.3374 62.8322C32.6179 66.7683 33.7654 72.4373 38.8864 69.1774C44.0074 65.9175 40.8979 59.2677 40.8979 59.2677L30.1924 55.3809Z" fill="#F4A28C"/>
<path opacity="0.09" d="M30.1924 55.3809C30.1924 55.3809 26.0569 58.896 29.3374 62.8322C32.6179 66.7683 33.7654 72.4373 38.8864 69.1774C44.0074 65.9175 40.8979 59.2677 40.8979 59.2677L30.1924 55.3809Z" fill="black"/>
<path d="M7.20157 40.483L0.780068 6.25813C0.710689 5.88843 0.723978 5.50805 0.81899 5.14404C0.914002 4.78002 1.08841 4.44129 1.32981 4.15191C1.57122 3.86253 1.8737 3.62961 2.21578 3.46968C2.55785 3.30975 2.93112 3.22675 3.30907 3.22656H77.2846C77.7713 3.22653 78.2522 3.33195 78.6938 3.53552C79.1355 3.73908 79.5273 4.0359 79.8421 4.40535C80.1568 4.7748 80.3869 5.20802 80.5164 5.67491C80.646 6.14179 80.6718 6.63113 80.5921 7.10894L74.8996 41.0965L7.20157 40.483Z" fill="#24285B"/>
<path d="M6.55469 8.25098L11.0862 35.7814H70.1082L74.2527 8.25098H6.55469Z" fill="white"/>
<path d="M7.20111 40.4834L5.06361 76.1592C5.02252 76.8495 5.12367 77.5409 5.36086 78.1909C5.59805 78.8409 5.96628 79.4357 6.44292 79.939C6.91955 80.4422 7.49453 80.8432 8.13256 81.1172C8.77058 81.3913 9.45818 81.5327 10.1531 81.5327H71.4701C72.2883 81.533 73.0978 81.3654 73.848 81.0403C74.5982 80.7152 75.2729 80.2396 75.8299 79.6432C76.387 79.0469 76.8145 78.3426 77.0856 77.5743C77.3567 76.8061 77.4656 75.9905 77.4056 75.1785L74.8991 41.0969L7.20111 40.4834Z" fill="#E6E6E6"/>
<path opacity="0.5" d="M12.8942 45.3594L10.8242 65.9579H71.5337L69.3332 45.3594H12.8942Z" fill="white"/>
<path opacity="0.09" d="M27.7444 26.3955H22.4434L11.7559 62.7653L29.1034 65.9581C29.1034 65.9581 26.6914 76.4544 31.9789 81.5414H42.4324L45.0694 63.8759L27.7444 26.3955Z" fill="black"/>
<path d="M47.0585 65.648L58.582 22.7324L30.719 15.3239L19.1955 58.2395L47.0585 65.648Z" fill="#F98D3D"/>
<path d="M43.1165 60.83L48.3125 41.54L43.69 40.3071L38.494 59.597L43.1165 60.83Z" fill="white"/>
<path opacity="0.46" d="M36.544 30.7634L38.4242 23.7833C38.671 22.8669 38.1246 21.9249 37.2037 21.6793L35.916 21.3358C34.9951 21.0902 34.0485 21.6339 33.8016 22.5503L31.9214 29.5305C31.6746 30.4469 32.221 31.3889 33.1419 31.6345L34.4296 31.978C35.3505 32.2236 36.2971 31.6798 36.544 30.7634Z" fill="white"/>
<path opacity="0.46" d="M30.1455 55.5918L35.3102 36.3577C35.5552 35.445 35.0104 34.5074 34.0932 34.2635L32.8107 33.9225C31.8935 33.6786 30.9513 34.2208 30.7062 35.1335L25.5415 54.3677C25.2964 55.2804 25.8413 56.2179 26.7585 56.4618L28.041 56.8028C28.9582 57.0467 29.9004 56.5045 30.1455 55.5918Z" fill="white"/>
<path opacity="0.3" d="M49.4787 31.5984C51.2209 31.5984 52.6332 30.193 52.6332 28.4594C52.6332 26.7257 51.2209 25.3203 49.4787 25.3203C47.7365 25.3203 46.3242 26.7257 46.3242 28.4594C46.3242 30.193 47.7365 31.5984 49.4787 31.5984Z" fill="white"/>
<path opacity="0.09" d="M34.3288 53.9707C34.3288 53.9707 30.0538 54.7454 31.1788 61.4265L36.2053 62.7699L34.3288 53.9707Z" fill="black"/>
<path opacity="0.3" d="M48.5764 35.781C50.3186 35.781 51.7309 34.3756 51.7309 32.642C51.7309 30.9083 50.3186 29.5029 48.5764 29.5029C46.8342 29.5029 45.4219 30.9083 45.4219 32.642C45.4219 34.3756 46.8342 35.781 48.5764 35.781Z" fill="white"/>
<path d="M37.9999 88.0298L38.2609 81.5905C38.2609 81.5905 34.0039 78.2903 35.2684 69.2493C36.5329 60.2083 32.6899 60.1546 34.0984 54.6423C35.5069 49.1299 41.4199 53.4019 42.8599 59.8994C44.2999 66.3969 49.7134 56.7648 49.7134 56.7648C49.7134 56.7648 55.8784 59.2904 53.8444 71.7256C51.8104 84.1609 52.5169 88.0208 52.5169 88.0208L37.9999 88.0298Z" fill="#FCCDAA"/>
<path d="M64.4916 13.3418H16.5801V26.395H64.4916V13.3418Z" fill="white"/>
<path d="M63.6861 26.3957H17.3856L16.5801 24.5508H64.4916L63.6861 26.3957Z" fill="#E6E6E6"/>
<path opacity="0.09" d="M27.7444 26.3955L26.5879 30.6943L56.7604 29.5032L57.5929 26.3955H27.7444Z" fill="black"/>
<path d="M27.1094 14.4883L28.3784 19.0603H51.3284L52.9709 14.4883H27.1094Z" fill="#2F66F4"/>
</g>
<defs>
<clipPath id="clip0_2202_7339">
<rect width="81" height="88" fill="white"/>
</clipPath>
</defs>
</svg>
