<svg width="153" height="109" viewBox="0 0 153 109" fill="none" xmlns="http://www.w3.org/2000/svg">
<g clip-path="url(#clip0_2202_7367)">
<path d="M129.44 32.8031C129.44 32.8031 147.085 36.6053 150.753 23.9196C154.422 11.2338 138.002 1.70081 126.653 3.53447C115.304 5.36813 124.044 28.6461 101.058 34.8366C101.058 34.8366 83.6704 46.6129 72.6583 43.3304C61.6462 40.0478 72.8359 14.5214 58.6819 11.6685C44.5278 8.8156 39.2852 10.0997 39.2852 10.0997" stroke="#E6E6E6" stroke-width="2.03" stroke-linecap="round" stroke-linejoin="round" stroke-dasharray="3.05 10.15"/>
<path d="M94.7433 29.8046L52.0781 21.1211L38.9916 85.5824L81.6567 94.2659L94.7433 29.8046Z" fill="#C1C1C1"/>
<path d="M95.5851 25.665L52.9199 16.9814L39.8334 81.4427L82.4985 90.1262L95.5851 25.665Z" fill="#E6E6E6"/>
<path d="M91.4066 29.8543L55.1406 22.4731L45.6884 69.0325L81.9544 76.4137L91.4066 29.8543Z" fill="white"/>
<path d="M77.2418 55.8034L58.1367 51.915L56.5238 59.8597L75.6289 63.7481L77.2418 55.8034Z" fill="#24285B"/>
<path d="M66.3945 91.1617L74.3973 102.434V107.443L102.595 104.918L101.163 91.1617C101.163 91.1617 104.619 74.7723 100.302 64.1065C98.3779 59.1621 97.5252 53.8648 97.8003 48.5656C98.0155 43.6838 91.0148 42.566 89.7303 47.2862C89.199 49.3062 88.8291 53.3463 88.8695 57.4403C88.8834 59.1656 88.5208 60.873 87.8069 62.4433C86.0921 66.2545 83.2138 73.7354 84.9421 77.9303L81.6199 94.2793L66.3945 91.1617Z" fill="#FCCDAA"/>
<path opacity="0.42" d="M62.8378 82.3812C64.6725 82.3812 66.1599 80.892 66.1599 79.0549C66.1599 77.2178 64.6725 75.7285 62.8378 75.7285C61.003 75.7285 59.5156 77.2178 59.5156 79.0549C59.5156 80.892 61.003 82.3812 62.8378 82.3812Z" fill="white"/>
<path opacity="0.09" d="M81.6468 94.2658L84.4982 106.534L74.3973 107.443V102.433L66.3945 91.1616L81.6468 94.2658Z" fill="black"/>
<path d="M33.9463 109.207L37.0196 102.144C37.0196 102.144 42.3996 99.4505 48.7279 96.7571C55.0561 94.0637 58.0016 89.7206 57.1543 86.3942C56.3069 83.0679 50.0527 79.0547 50.0527 79.0547C50.0527 79.0547 62.346 61.2716 62.8302 57.6961C63.3144 54.1206 60.2276 52.7739 56.1993 55.272C52.1711 57.7702 44.3028 67.1836 44.3028 67.1836C44.3028 67.1836 30.8528 60.8406 25.6947 65.2578C20.5367 69.675 18.8621 83.8692 11.5117 96.1107L33.9463 109.207Z" fill="#FCCDAA"/>
<path d="M80.3257 37.7539L62.2539 34.1514L59.7957 46.5138L77.8675 50.1164L80.3257 37.7539Z" fill="#FFD200"/>
<path opacity="0.72" d="M80.3257 37.7539L62.2539 34.1514L59.7957 46.5138L77.8675 50.1164L80.3257 37.7539Z" fill="white"/>
<path d="M62.2598 34.1416L69.5631 44.6324L80.3298 37.744L62.2598 34.1416Z" fill="#F98D3D"/>
<path d="M22.092 9.25439L22.5157 16.237L19.0859 14.7422L22.092 9.25439Z" fill="#FFD200"/>
<path d="M24.2234 5.35578L-0.242188 0.0161133L16.7384 19.0382L24.2234 5.35578Z" fill="#F98D3D"/>
<path opacity="0.09" d="M22.092 9.25439L22.5157 16.237L19.0859 14.7422L22.092 9.25439Z" fill="#F98D3D"/>
<path opacity="0.09" d="M-0.242188 0.0161133L22.0915 9.25447L19.61 13.7861L-0.242188 0.0161133Z" fill="black"/>
</g>
<defs>
<clipPath id="clip0_2202_7367">
<rect width="153" height="109" fill="white"/>
</clipPath>
</defs>
</svg>
