<svg xmlns="http://www.w3.org/2000/svg" width="19" height="16" fill="none" viewBox="0 0 19 16"><path fill="#2F66F4" d="M13.1286 0C12.2841 0.0131362 11.458 0.24889 10.7337 0.683453C10.0094 1.11802 9.41265 1.736 9.00363 2.475C8.59461 1.736 7.99783 1.11802 7.27356 0.683453C6.54929 0.24889 5.72317 0.0131362 4.87863 0C3.53234 0.058493 2.26391 0.647441 1.35047 1.63817C0.437025 2.62891 -0.0471821 3.94089 0.00363083 5.2875C0.00363083 8.69775 3.59313 12.4223 6.60363 14.9475C7.27579 15.5123 8.12565 15.822 9.00363 15.822C9.88161 15.822 10.7315 15.5123 11.4036 14.9475C14.4141 12.4223 18.0036 8.69775 18.0036 5.2875C18.0544 3.94089 17.5702 2.62891 16.6568 1.63817C15.7434 0.647441 14.4749 0.058493 13.1286 0ZM10.4399 13.8C10.0379 14.1385 9.5292 14.3242 9.00363 14.3242C8.47807 14.3242 7.96939 14.1385 7.56738 13.8C3.71388 10.5667 1.50363 7.46475 1.50363 5.2875C1.45236 4.33854 1.77841 3.4078 2.41065 2.69827C3.0429 1.98875 3.93006 1.55801 4.87863 1.5C5.82721 1.55801 6.71436 1.98875 7.34661 2.69827C7.97886 3.4078 8.3049 4.33854 8.25363 5.2875C8.25363 5.48641 8.33265 5.67718 8.4733 5.81783C8.61395 5.95848 8.80472 6.0375 9.00363 6.0375C9.20254 6.0375 9.39331 5.95848 9.53396 5.81783C9.67461 5.67718 9.75363 5.48641 9.75363 5.2875C9.70236 4.33854 10.0284 3.4078 10.6607 2.69827C11.2929 1.98875 12.1801 1.55801 13.1286 1.5C14.0772 1.55801 14.9644 1.98875 15.5966 2.69827C16.2289 3.4078 16.5549 4.33854 16.5036 5.2875C16.5036 7.46475 14.2934 10.5667 10.4399 13.797V13.8Z"/><path fill="#2F66F4" stroke="#2F66F4" d="M1.5 3.5L3 2H7L9 6L11 2L13.5 1L15.5 2L17 5L16 8.5L10 14.5H8L2.5 9L1 6.5L1.5 3.5Z"/></svg>