<svg width="40" height="35" viewBox="0 0 40 35" fill="none" xmlns="http://www.w3.org/2000/svg">
<path d="M29.163 0C27.287 0.0290587 25.4519 0.550571 23.8431 1.51187C22.2342 2.47317 20.9086 3.84022 20 5.47496C19.0914 3.84022 17.7658 2.47317 16.1569 1.51187C14.5481 0.550571 12.713 0.0290587 10.837 0C7.84647 0.129393 5.02888 1.43221 2.99983 3.62382C0.970776 5.81543 -0.104807 8.71768 0.00806525 11.6965C0.00806525 19.2404 7.98152 27.4793 14.6688 33.0655C16.1619 34.315 18.0497 35 20 35C21.9503 35 23.8381 34.315 25.3312 33.0655C32.0185 27.4793 39.9919 19.2404 39.9919 11.6965C40.1048 8.71768 39.0292 5.81543 37.0002 3.62382C34.9711 1.43221 32.1535 0.129393 29.163 0ZM23.1904 30.5271C22.2974 31.2759 21.1675 31.6866 20 31.6866C18.8325 31.6866 17.7026 31.2759 16.8096 30.5271C8.24974 23.3748 3.34005 16.5128 3.34005 11.6965C3.22617 9.59731 3.95042 7.53841 5.35485 5.96887C6.75928 4.39933 8.72994 3.44649 10.837 3.31816C12.9441 3.44649 14.9148 4.39933 16.3192 5.96887C17.7236 7.53841 18.4479 9.59731 18.334 11.6965C18.334 12.1365 18.5095 12.5585 18.822 12.8697C19.1344 13.1808 19.5582 13.3556 20 13.3556C20.4418 13.3556 20.8656 13.1808 21.178 12.8697C21.4905 12.5585 21.666 12.1365 21.666 11.6965C21.5521 9.59731 22.2764 7.53841 23.6808 5.96887C25.0852 4.39933 27.0559 3.44649 29.163 3.31816C31.2701 3.44649 33.2407 4.39933 34.6452 5.96887C36.0496 7.53841 36.7738 9.59731 36.6599 11.6965C36.6599 16.5128 31.7503 23.3748 23.1904 30.5204V30.5271Z" fill="#F98D3D"/>
</svg>
