<svg xmlns="http://www.w3.org/2000/svg" width="101" height="105" fill="none" viewBox="0 0 101 105"><g clip-path="url(#clip0_2250_4766)"><path fill="#E6E6E6" d="M101.329 -0.078125H65.0625V39.4233H101.329V-0.078125Z"/><path fill="#A8A8A8" d="M76.9523 4.83691H70.6445V11.1466H76.9523V4.83691Z"/><path stroke="#fff" stroke-linecap="round" stroke-linejoin="round" stroke-width="2.03" d="M72.4766 8.05604L73.3743 9.41256L75.0121 6.97656"/><path fill="#fff" d="M94.9904 6.90479H80.3789V9.41243H94.9904V6.90479Z"/><path fill="#A8A8A8" d="M76.9523 16.3096H70.6445V22.6193H76.9523V16.3096Z"/><path stroke="#fff" stroke-linecap="round" stroke-linejoin="round" stroke-width="2.03" d="M72.4766 19.5292L73.3743 20.8857L75.0121 18.4497"/><path fill="#fff" d="M94.9904 18.3779H80.3789V20.8856H94.9904V18.3779Z"/><path fill="#A8A8A8" d="M76.9523 27.0283H70.6445V33.338H76.9523V27.0283Z"/><path stroke="#fff" stroke-linecap="round" stroke-linejoin="round" stroke-width="2.03" d="M72.4766 30.2426L73.3743 31.6039L75.0121 29.1631"/><path fill="#fff" d="M94.9904 29.0918H80.3789V31.5994H94.9904V29.0918Z"/><path fill="#E6E6E6" d="M101.329 61.3472H65.0625V86.0081H101.329V61.3472Z"/><path fill="#000" d="M65.0625 19.4624C65.0625 19.4624 78.0935 28.5377 78.3752 39.4185H70.6445L65.0625 19.4624Z" opacity=".08"/><path fill="#F98D3D" d="M44.1942 20.2119L32.3522 29.6311C32.3522 29.6311 21.2455 40.7746 28.217 48.0683C35.1885 55.362 45.345 44.7009 45.345 44.7009L44.1942 20.2119Z"/><path fill="url(#paint0_linear_2250_4766)" d="M44.1942 20.2119L32.3522 29.6311C32.3522 29.6311 21.2455 40.7746 28.217 48.0683C35.1885 55.362 45.345 44.7009 45.345 44.7009L44.1942 20.2119Z" opacity=".08"/><path fill="#24285B" d="M31.23 23.6604L30.1562 24.5044L35.6172 31.4562L36.691 30.6121L31.23 23.6604Z"/><path fill="#F4A28C" d="M32.3546 29.6316C32.3546 29.6316 34.1977 27.4536 35.8546 28.17C37.5116 28.8865 37.0723 32.1823 34.1882 32.2396C31.3041 32.2969 32.3546 29.6316 32.3546 29.6316Z"/><path fill="#E6E6E6" d="M75.0143 98.2727C75.029 94.7695 58.8917 91.8619 38.9708 91.7784C19.0499 91.695 2.88889 94.4672 2.87422 97.9704C2.85955 101.474 18.9968 104.381 38.9177 104.465C58.8386 104.548 74.9996 101.776 75.0143 98.2727Z" opacity=".45"/><path fill="#F98D3D" d="M43.8651 95.3746C43.8651 95.3746 43.125 96.7741 41.7737 96.6977C40.4223 96.6213 39.8637 97.8727 41.0383 98.3838C42.213 98.8949 45.5029 97.8011 45.5029 97.8011L45.7465 95.3364L43.8651 95.3746Z"/><path fill="#F4A28C" d="M49.7715 5.62003C49.7715 5.62003 49.5184 8.43337 49.9863 10.3057C50.082 10.6697 50.3168 10.9813 50.6403 11.1735C50.9637 11.3656 51.3497 11.4228 51.7149 11.3327C52.3098 11.2208 52.8596 10.9388 53.2978 10.5209C53.7359 10.103 54.0436 9.56704 54.1836 8.97788L55.0335 6.51323C55.1518 6.00263 55.1088 5.46787 54.9104 4.98277C54.712 4.49766 54.3679 4.08613 53.9257 3.80497C52.3213 2.66817 49.8383 3.9005 49.7715 5.62003Z"/><path fill="#F4A28C" d="M54.8695 6.9624L56.302 16.1046L51.207 16.5344L52.2146 9.70887L54.8695 6.9624Z"/><path fill="#F4A28C" d="M52.7539 8.04647C52.7539 8.04647 52.7778 6.95743 53.5943 7.04341C54.4108 7.12939 54.387 8.70085 53.2744 8.84414L52.7539 8.04647Z"/><path fill="#F4A28C" d="M49.7079 7.40186L48.9343 8.48611C48.8953 8.54938 48.8716 8.62088 48.8651 8.69492C48.8586 8.76896 48.8695 8.8435 48.8968 8.9126C48.9242 8.98171 48.9673 9.04347 49.0227 9.09298C49.0781 9.1425 49.1443 9.17839 49.216 9.19781L50.2952 9.4032L49.7079 7.40186Z"/><path fill="#CE8172" d="M51.9263 11.1944C52.5632 11.0362 53.1394 10.694 53.5832 10.2104C53.5832 10.2104 53.5068 11.9061 51.6445 13.554L51.9263 11.1944Z" opacity=".31"/><path fill="url(#paint1_linear_2250_4766)" d="M57.0488 16.1094L50.7076 16.6443C50.7076 16.6443 38.1494 20.3413 38.6555 32.1583C39.1617 43.9753 40.3029 58.4528 40.3029 58.4528L57.2064 60.6643C57.2064 60.6643 85.312 22.4048 57.0488 16.1094Z"/><path fill="url(#paint2_linear_2250_4766)" d="M59.7304 23.6846C59.7304 23.6846 53.7568 26.6317 54.1866 33.8155C54.6163 40.9993 53.4178 43.5786 46.007 42.7475C38.5962 41.9164 39.3793 45.1357 39.3793 45.1357L40.3343 58.4477L57.2378 60.6592L58.761 58.4477C58.761 58.4477 72.2838 33.6626 59.7304 23.6846Z"/><path fill="#24285B" d="M40.3034 58.4526L35.7624 62.2308C34.5388 63.2502 33.5811 64.5516 32.9715 66.0231C32.362 67.4946 32.1189 69.0922 32.2631 70.6785C32.4073 72.2648 32.9345 73.7923 33.7994 75.1297C34.6643 76.4671 35.841 77.5743 37.2283 78.3562L45.9331 83.2616L48.8268 81.1552L42.3137 75.7482C41.8938 75.3995 41.5627 74.956 41.3476 74.4543C41.1325 73.9526 41.0395 73.407 41.0763 72.8623C41.1132 72.3176 41.2787 71.7895 41.5594 71.3213C41.8401 70.8532 42.2279 70.4583 42.6909 70.1693L45.0115 68.7364C46.2996 67.9271 47.7479 67.4072 49.2565 67.2127C51.7682 66.8927 55.9415 65.6126 57.2069 60.6785L40.3034 58.4526Z"/><path fill="#141B30" d="M49.7057 1.99937C49.7057 1.99937 48.1061 5.9113 51.2051 6.22655C54.304 6.5418 52.3463 8.66732 54.1703 8.9778C55.9944 9.28827 58.0811 4.8557 56.3 2.63464C54.5189 0.413584 50.5939 0.203418 49.7057 1.99937Z"/><path fill="#24285B" d="M57.2078 60.6641L45.7478 95.3365L42.8828 95.3078C42.8828 95.3078 46.7935 72.1706 46.3686 62.4505L57.2078 60.6641Z"/><path fill="#F98D3D" d="M57.6914 25.9967C57.5795 25.0419 57.7647 24.0758 58.222 23.2303C58.6792 22.3847 59.3861 21.7008 60.2462 21.2719C61.1063 20.843 62.0778 20.69 63.028 20.8338C63.9782 20.9776 64.861 21.4111 65.5558 22.0753C68.8363 25.1704 72.3029 30.157 73.1958 37.7707C75.039 53.194 69.6146 68.364 45.7539 43.856L48.1796 41.0426C48.1796 41.0426 60.0359 49.2343 63.5456 47.83C66.2387 46.7601 58.7706 35.6739 57.6914 25.9967Z"/><path fill="url(#paint3_linear_2250_4766)" d="M57.6914 25.9967C57.5795 25.0419 57.7647 24.0758 58.222 23.2303C58.6792 22.3847 59.3861 21.7008 60.2462 21.2719C61.1063 20.843 62.0778 20.69 63.028 20.8338C63.9782 20.9776 64.861 21.4111 65.5558 22.0753C68.8363 25.1704 72.3029 30.157 73.1958 37.7707C75.039 53.194 69.6146 68.364 45.7539 43.856L48.1796 41.0426C48.1796 41.0426 60.0359 49.2343 63.5456 47.83C66.2387 46.7601 58.7706 35.6739 57.6914 25.9967Z"/><path fill="#F98D3D" d="M24.7316 93.034C24.7316 93.034 28.8619 91.9211 29.774 88.0856C29.774 88.0856 23.3898 86.7673 23.1797 93.3397L24.7316 93.034Z" opacity=".58"/><path fill="#F98D3D" d="M24.2314 92.6235C24.2314 92.6235 27.1299 88.0763 24.6134 83.8062C24.6134 83.8062 19.7382 86.8726 21.8726 92.6235H24.2314Z" opacity=".73"/><path fill="#F98D3D" d="M23.4851 92.6234C23.4851 92.6234 21.981 87.8039 17.3827 86.8916C17.3827 86.8916 16.5089 90.0106 20.3384 92.6234H23.4851Z"/><path fill="#24285B" d="M26.4737 92.5278L25.6189 98.2453H20.3521L19.5977 92.5278H26.4737Z"/><path fill="#141B30" d="M44.9108 29.2398L32.3477 30.8296L34.6675 49.1731L47.2307 47.5833L44.9108 29.2398Z"/><path fill="#F4A28C" d="M46.3982 43.1297C46.3982 43.1297 41.4895 40.7415 42.6832 38.9742C43.877 37.2069 48.1983 41.0424 48.1983 41.0424L46.3982 43.1297Z"/><path fill="#E6E6E6" d="M9.64983 20.7904C14.9426 20.7904 19.2333 16.4985 19.2333 11.2041C19.2333 5.90964 14.9426 1.61768 9.64983 1.61768C4.35705 1.61768 0.0664062 5.90964 0.0664062 11.2041C0.0664062 16.4985 4.35705 20.7904 9.64983 20.7904Z"/><path fill="#fff" d="M9.64682 17.9814C13.3889 17.9814 16.4225 14.9469 16.4225 11.2036C16.4225 7.46031 13.3889 4.42578 9.64682 4.42578C5.90469 4.42578 2.87109 7.46031 2.87109 11.2036C2.87109 14.9469 5.90469 17.9814 9.64682 17.9814Z"/><path stroke="#C1C1C1" stroke-linecap="round" stroke-linejoin="round" stroke-width="2.03" d="M9.64844 7.31104V11.863L13.3825 11.328"/><path fill="#E6E6E6" d="M9.64983 46.7504C14.9426 46.7504 19.2333 42.4584 19.2333 37.164C19.2333 31.8696 14.9426 27.5776 9.64983 27.5776C4.35705 27.5776 0.0664062 31.8696 0.0664062 37.164C0.0664062 42.4584 4.35705 46.7504 9.64983 46.7504Z"/><path fill="#fff" d="M9.64682 43.9419C13.3889 43.9419 16.4225 40.9073 16.4225 37.164C16.4225 33.4208 13.3889 30.3862 9.64682 30.3862C5.90469 30.3862 2.87109 33.4208 2.87109 37.164C2.87109 40.9073 5.90469 43.9419 9.64682 43.9419Z"/><path stroke="#C1C1C1" stroke-linecap="round" stroke-linejoin="round" stroke-width="2.03" d="M9.64844 33.271V37.823L13.3825 37.2832"/><path fill="#000" d="M69.8887 68.4023C70.7247 68.4023 71.4023 67.7244 71.4023 66.8882C71.4023 66.0519 70.7247 65.374 69.8887 65.374C69.0527 65.374 68.375 66.0519 68.375 66.8882C68.375 67.7244 69.0527 68.4023 69.8887 68.4023Z" opacity=".08"/><path fill="#000" d="M69.8887 74.917C70.7247 74.917 71.4023 74.239 71.4023 73.4028C71.4023 72.5666 70.7247 71.8887 69.8887 71.8887C69.0527 71.8887 68.375 72.5666 68.375 73.4028C68.375 74.239 69.0527 74.917 69.8887 74.917Z" opacity=".08"/><path fill="#000" d="M69.8887 81.4321C70.7247 81.4321 71.4023 80.7542 71.4023 79.9179C71.4023 79.0817 70.7247 78.4038 69.8887 78.4038C69.0527 78.4038 68.375 79.0817 68.375 79.9179C68.375 80.7542 69.0527 81.4321 69.8887 81.4321Z" opacity=".08"/><path stroke="#fff" stroke-linecap="round" stroke-linejoin="bevel" stroke-width="2.03" d="M75.4883 66.8882H93.3754"/><path stroke="#fff" stroke-linecap="round" stroke-linejoin="bevel" stroke-width="2.03" d="M75.4883 73.4028H93.3754"/><path stroke="#fff" stroke-linecap="round" stroke-linejoin="bevel" stroke-width="2.03" d="M75.4883 79.918H93.3754"/><path fill="#E6E6E6" d="M18.18 59.7852H1.10938V73.2978H18.18V59.7852Z"/><path fill="#C1C1C1" d="M18.18 57.2441H1.10938V61.7101H18.18V57.2441Z"/><path fill="#E6E6E6" d="M5.06966 54.9229H3.61328V58.6246H5.06966V54.9229Z"/><path fill="#E6E6E6" d="M15.6322 54.8848H14.1758V58.5865H15.6322V54.8848Z"/></g><defs><linearGradient id="paint0_linear_2250_4766" x1="39.53" x2="26.437" y1="64.947" y2="62.007" gradientUnits="userSpaceOnUse"><stop stop-color="#F98D3D"/><stop offset="1" stop-color="#F9AE3D"/></linearGradient><linearGradient id="paint1_linear_2250_4766" x1="60.37" x2="39.655" y1="81.656" y2="76.59" gradientUnits="userSpaceOnUse"><stop stop-color="#F98D3D"/><stop offset="1" stop-color="#F9AE3D"/></linearGradient><linearGradient id="paint2_linear_2250_4766" x1="57.373" x2="40.195" y1="78.08" y2="73.882" gradientUnits="userSpaceOnUse"><stop stop-color="#F98D3D"/><stop offset="1" stop-color="#F9AE3D"/></linearGradient><linearGradient id="paint3_linear_2250_4766" x1="65.214" x2="46.899" y1="73.726" y2="68.76" gradientUnits="userSpaceOnUse"><stop stop-color="#F98D3D"/><stop offset="1" stop-color="#F9AE3D"/></linearGradient><clipPath id="clip0_2250_4766"><rect width="101" height="105" fill="#fff"/></clipPath></defs></svg>