<svg width="84" height="268" viewBox="0 0 84 268" fill="none" xmlns="http://www.w3.org/2000/svg">
<path d="M38.2726 267.177C40.4304 267.471 42.6499 265.956 43.2299 263.793L52.6814 228.535C53.2614 226.371 51.9822 224.378 49.8244 224.084C47.6665 223.79 45.4471 225.305 44.8671 227.469L36.4657 258.809L5.20848 254.545C3.05061 254.25 0.83114 255.766 0.251155 257.929C-0.328837 260.093 0.950283 262.085 3.10814 262.38L38.2726 267.177ZM76.5186 0.201384C60.6029 30.0755 39.4834 79.0389 27.752 129.069C16.0666 178.903 13.4532 230.814 35.8174 265.653L42.8281 260.866C22.072 228.533 24.0541 179.249 35.6306 129.879C47.161 80.7061 67.9699 32.4555 83.5997 3.11802L76.5186 0.201384Z" fill="url(#paint0_linear_1012_4699)"/>
<defs>
<linearGradient id="paint0_linear_1012_4699" x1="11.3092" y1="386.292" x2="-8.88378" y2="382.344" gradientUnits="userSpaceOnUse">
<stop stop-color="#F98D3D"/>
<stop offset="1" stop-color="#F9AE3D"/>
</linearGradient>
</defs>
</svg>
