<svg width="214" height="135" viewBox="0 0 214 135" fill="none" xmlns="http://www.w3.org/2000/svg">
<g clip-path="url(#clip0_2202_5529)">
<path d="M107.926 43.6183C107.926 43.6183 127.426 69.7539 144.712 67.233C161.998 64.7121 173.598 37.6123 173.598 37.6123L166.641 33.2007C166.641 33.2007 141.866 69.9493 120.044 28.7891L107.926 43.6183Z" fill="#2F66F4"/>
<path opacity="0.08" d="M107.926 43.6183C107.926 43.6183 127.426 69.7539 144.712 67.233C161.998 64.7121 173.598 37.6123 173.598 37.6123L166.641 33.2007C166.641 33.2007 141.866 69.9493 120.044 28.7891L107.926 43.6183Z" fill="url(#paint0_linear_2202_5529)"/>
<path d="M123.191 31.9023C123.191 31.9023 128.65 35.148 130.086 40.6625C131.521 46.177 131.218 60.1492 119.909 67.1321C108.6 74.1151 96.4177 77.2158 98.3152 85.4088L91.832 82.2576L99.8964 64.9263L118.302 54.5528L123.191 31.9023Z" fill="url(#paint1_linear_2202_5529)"/>
<path opacity="0.45" d="M103.637 134.617C160.869 134.617 207.265 128.771 207.265 121.559C207.265 114.347 160.869 108.5 103.637 108.5C46.404 108.5 0.0078125 114.347 0.0078125 121.559C0.0078125 128.771 46.404 134.617 103.637 134.617Z" fill="#B5CDF8"/>
<path d="M114.538 115.225C114.538 115.225 116.783 117.116 119.054 116.057C121.324 114.998 123.114 116.782 121.483 118.446C119.851 120.109 113.387 120.506 113.387 120.506L111.559 116.983L114.538 115.225Z" fill="url(#paint2_linear_2202_5529)"/>
<path d="M41.2194 100.742C41.2194 100.742 38.2846 100.642 37.1587 102.873C36.0329 105.104 33.5219 104.807 33.7622 102.494C34.0026 100.182 38.8222 95.8896 38.8222 95.8896L42.4464 97.5219L41.2194 100.742Z" fill="url(#paint3_linear_2202_5529)"/>
<path d="M130.559 18.9954C130.559 18.9954 131.191 23.2873 130.597 26.1863C130.545 26.4704 130.437 26.7414 130.279 26.9834C130.121 27.2253 129.916 27.4334 129.677 27.5955C129.437 27.7575 129.167 27.8702 128.883 27.9269C128.599 27.9836 128.306 27.9832 128.022 27.9258C126.561 27.6232 124.67 26.7787 124.063 24.5225L122.558 20.8168C122.335 20.0438 122.359 19.2208 122.626 18.462C122.893 17.7031 123.391 17.046 124.05 16.5816C126.397 14.6909 130.318 16.3674 130.559 18.9954Z" fill="#FCCDAA"/>
<path d="M125.549 20.6909L114.266 29.344L119.496 35.1988L125.455 26.7663L125.549 20.6909Z" fill="#FCCDAA"/>
<path d="M129.489 19.2351C128.151 19.361 126.803 19.3314 125.472 19.1469C125.892 19.7135 126.136 20.3903 126.175 21.0937C126.213 21.7971 126.043 22.4962 125.687 23.1047C125.354 23.7001 124.824 24.1615 124.187 24.4098C123.55 24.6582 122.846 24.6781 122.196 24.466L121.962 18.9074C121.902 18.1138 122.058 17.3187 122.414 16.6064C122.77 15.8941 123.314 15.2911 123.986 14.8613C124.57 14.4891 125.176 14.1524 125.801 13.853C127.37 13.1282 129.78 14.0673 131.158 12.9076C131.298 12.7932 131.464 12.7166 131.642 12.6851C131.82 12.6536 132.003 12.6683 132.173 12.7279C132.344 12.7875 132.496 12.8898 132.615 13.0251C132.734 13.1604 132.816 13.3239 132.854 13.5001C133.195 15.1765 133.037 17.8486 130.798 18.9011C130.383 19.0842 129.941 19.1971 129.489 19.2351Z" fill="#24285B"/>
<path d="M126.151 22.9469C126.151 22.9469 126.025 21.2831 124.779 21.4847C123.533 21.6864 123.697 24.0813 125.411 24.2136L126.151 22.9469Z" fill="#EEB598"/>
<path d="M130.807 21.7183L132.104 23.319C132.177 23.4097 132.227 23.5174 132.248 23.6322C132.268 23.747 132.26 23.8651 132.223 23.9757C132.185 24.0863 132.121 24.1858 132.035 24.2649C131.949 24.344 131.844 24.4002 131.73 24.4282L130.086 24.8253L130.807 21.7183Z" fill="#FCCDAA"/>
<path opacity="0.31" d="M125.283 27.0058C124.775 26.187 124.502 25.2456 124.492 24.2832C124.492 24.2832 121.854 25.947 123.575 29.4196L125.283 27.0058Z" fill="#CE8172"/>
<path d="M121.158 32.8418C121.158 32.8418 118.185 26.9114 106.168 26.8546C94.1501 26.7979 64.7199 42.4654 66.7439 76.586L91.8289 82.2581C91.8289 82.2581 96.4651 70.7816 111.259 65.8721C126.446 60.8177 128.628 37.8395 121.158 32.8418Z" fill="white"/>
<path d="M116.094 27.9256C116.094 27.9256 88.2645 11.6531 66.6456 14.174C45.0268 16.6949 33.4141 41.589 33.4141 41.589L39.6505 46.0006C39.6505 46.0006 61.1555 21.1507 74.7543 29.955C88.353 38.7592 111.888 56.8216 116.094 27.9256Z" fill="url(#paint4_linear_2202_5529)"/>
<path d="M84.7152 33.1C84.7152 33.1 60.6802 45.3894 61.6289 75.4829L76.8089 80.6823C76.8089 80.6823 78.8646 49.9586 107.485 46.965C107.485 46.965 118.073 41.1669 119.06 31.6252C119.06 31.6252 120.496 28.0834 109.718 24.6045L84.7152 33.1Z" fill="url(#paint5_linear_2202_5529)"/>
<path d="M121.545 30.2451L120.957 33.8311H122.994L123.19 29.9741L121.545 30.2451Z" fill="white"/>
<path opacity="0.08" d="M118.483 40.5303C118.483 40.5303 112.936 60.7543 97.275 62.6513C81.6143 64.5483 63.3477 60.6031 63.3477 60.6031C64.3911 56.6826 65.9996 52.9336 68.123 49.4732C71.6967 43.6121 88.42 49.2589 88.42 49.2589L118.483 40.5303Z" fill="url(#paint6_linear_2202_5529)"/>
<path d="M119.162 30.2073C119.162 30.2073 117.638 34.1777 119.162 34.8017C119.934 35.1231 120.889 34.6378 121.641 34.0832C122.02 33.7985 122.29 33.3929 122.405 32.9341C122.52 32.4754 122.474 31.9912 122.274 31.5623L121.641 30.1758L119.162 30.2073Z" fill="#FFD200"/>
<path d="M120.957 32.8418C120.957 32.8418 122.033 44.4443 105.429 53.5826C88.8263 62.721 70.7241 53.5826 70.7241 53.5826L65.2656 44.98L76.8088 42.5536C76.8088 42.5536 103.431 53.7654 118.819 32.0981L120.957 32.8418Z" fill="url(#paint7_linear_2202_5529)"/>
<path d="M63.7146 76.1948C63.7146 76.1948 59.7867 85.1945 68.218 89.8204C73.1894 92.543 81.9622 93.9736 88.3315 94.6857C90.7847 94.9623 93.144 95.7858 95.2343 97.095C97.3245 98.4042 99.0921 100.166 100.406 102.248L110.33 117.891L116.092 114.267L110.57 100.181C109.096 96.4112 106.883 92.9716 104.059 90.064C101.236 87.1563 97.8584 84.8388 94.1252 83.2471L91.8545 82.2828L63.7146 76.1948Z" fill="#24285B"/>
<path d="M82.7793 89.0582C82.7793 89.0582 83.2031 104.398 69.9206 106.705C56.6381 109.011 39.9844 101.247 39.9844 101.247L42.9318 95.9908C42.9318 95.9908 70.3444 104.398 68.4469 87.3818L82.7793 89.0582Z" fill="#24285B"/>
<path d="M116.094 27.3839L118.301 26.2495L121.546 30.2452L119.06 33.3963L116.094 27.3839Z" fill="white"/>
<path opacity="0.26" d="M33.411 41.6079L32.2852 44.1225L38.1864 48.5341L39.6475 46.0195L33.411 41.6079Z" fill="url(#paint8_linear_2202_5529)"/>
<path d="M40.2934 59.532L38.4275 59.2106L39.1802 54.925C39.3071 54.1841 39.135 53.4232 38.7014 52.8082C38.2678 52.1932 37.6078 51.7738 36.8652 51.6415L30.1291 50.4693C29.386 50.3392 28.6215 50.5085 28.0036 50.9398C27.3857 51.3712 26.9649 52.0293 26.8338 52.7696L26.0811 57.0552L24.1836 56.7338L24.9363 52.4482C25.154 51.2136 25.8542 50.1155 26.8835 49.3948C27.9127 48.6741 29.1869 48.3896 30.4264 48.6038L37.1751 49.7823C37.789 49.889 38.3758 50.1151 38.902 50.4477C39.4282 50.7804 39.8834 51.2131 40.2417 51.7211C40.6 52.2291 40.8543 52.8024 40.9902 53.4084C41.126 54.0144 41.1407 54.6411 41.0334 55.2527L40.2934 59.532Z" fill="#2F66F4"/>
<path opacity="0.3" d="M40.2934 59.532L38.4275 59.2106L39.1802 54.925C39.3071 54.1841 39.135 53.4232 38.7014 52.8082C38.2678 52.1932 37.6078 51.7738 36.8652 51.6415L30.1291 50.4693C29.386 50.3392 28.6215 50.5085 28.0036 50.9398C27.3857 51.3712 26.9649 52.0293 26.8338 52.7696L26.0811 57.0552L24.1836 56.7338L24.9363 52.4482C25.154 51.2136 25.8542 50.1155 26.8835 49.3948C27.9127 48.6741 29.1869 48.3896 30.4264 48.6038L37.1751 49.7823C37.789 49.889 38.3758 50.1151 38.902 50.4477C39.4282 50.7804 39.8834 51.2131 40.2417 51.7211C40.6 52.2291 40.8543 52.8024 40.9902 53.4084C41.126 54.0144 41.1407 54.6411 41.0334 55.2527L40.2934 59.532Z" fill="#4B5570"/>
<path d="M32.9049 44.583C32.9049 44.583 26.9088 50.9735 31.1022 52.6436C35.2957 54.3137 36.9782 54.257 38.1862 48.5345L32.9049 44.583Z" fill="#FCCDAA"/>
<path d="M49.7748 59.1567L15.0391 53.1099L10.8558 76.9682L45.5916 83.015L49.7748 59.1567Z" fill="url(#paint9_linear_2202_5529)"/>
<path opacity="0.08" d="M45.4289 58.4102C45.4289 58.4102 51.9879 82.2958 11.5901 72.7416L10.8438 76.9704L45.5807 83.0206L49.7678 59.1601L45.4289 58.4102Z" fill="black"/>
<path opacity="0.4" d="M167.738 33.913L168.75 31.7954L174.234 35.6776L173.602 37.6124L167.738 33.913Z" fill="url(#paint10_linear_2202_5529)"/>
<path d="M169.715 32.4824C169.715 32.4824 174.547 26.4889 178.342 28.2725C182.137 30.056 181.188 33.0559 174.231 35.6777L169.715 32.4824Z" fill="#FCCDAA"/>
<path d="M192.098 18.6644C198.792 16.541 203.8 13.5102 203.284 11.895C202.768 10.2798 196.923 10.6918 190.23 12.8153C183.536 14.9388 178.528 17.9695 179.044 19.5847C179.56 21.1999 185.405 20.7879 192.098 18.6644Z" fill="#FFD200"/>
<path d="M179.047 19.5818C179.047 19.5818 183.474 37.7765 196.978 33.9132C210.482 30.0499 203.303 11.8867 203.303 11.8867L179.047 19.5818Z" fill="url(#paint11_linear_2202_5529)"/>
<path opacity="0.08" d="M192.098 18.6644C198.792 16.541 203.8 13.5102 203.284 11.895C202.768 10.2798 196.923 10.6918 190.23 12.8153C183.536 14.9388 178.528 17.9695 179.044 19.5847C179.56 21.1999 185.405 20.7879 192.098 18.6644Z" fill="url(#paint12_linear_2202_5529)"/>
<path d="M197.409 30.6313L194.348 31.6025L198.149 43.499L201.21 42.5277L197.409 30.6313Z" fill="url(#paint13_linear_2202_5529)"/>
<path d="M205.552 38.5072L192.793 42.5547L196.032 52.6916L208.791 48.6441L205.552 38.5072Z" fill="#24285B"/>
<path d="M202.331 42.5377L195.836 44.5815L197.472 49.7425L203.967 47.6987L202.331 42.5377Z" fill="#FFD200"/>
<path opacity="0.3" d="M202.331 42.5377L195.836 44.5815L197.472 49.7425L203.967 47.6987L202.331 42.5377Z" fill="url(#paint14_linear_2202_5529)"/>
<path d="M190.785 33.5979L183.448 35.9234C181.745 36.445 179.904 36.276 178.326 35.4531C176.748 34.6303 175.559 33.2201 175.018 31.5289C174.478 29.8378 174.628 28.0023 175.438 26.4213C176.248 24.8404 177.651 23.6417 179.343 23.0857L182.024 22.2349L182.657 24.2705L179.975 25.1213C179.397 25.3046 178.861 25.5996 178.397 25.9894C177.933 26.3792 177.551 26.8562 177.273 27.3931C176.71 28.4775 176.602 29.7403 176.974 30.9037C177.345 32.067 178.166 33.0356 179.254 33.5964C180.342 34.1573 181.61 34.2643 182.777 33.8941L190.114 31.5622L190.785 33.5979Z" fill="url(#paint15_linear_2202_5529)"/>
<path d="M201.57 30.1378L208.907 27.8122C210.617 27.2698 212.04 26.0731 212.864 24.4852C213.687 22.8973 213.844 21.0483 213.3 19.3451C212.756 17.6419 211.555 16.2239 209.961 15.403C208.367 14.5822 206.512 14.4258 204.802 14.9682L202.121 15.819L202.804 17.842L205.486 16.9912C206.064 16.8079 206.672 16.7398 207.277 16.7909C207.881 16.842 208.47 17.0112 209.009 17.2889C209.548 17.5665 210.026 17.9473 210.418 18.4093C210.809 18.8713 211.105 19.4056 211.289 19.9816C211.473 20.5577 211.541 21.1642 211.49 21.7665C211.439 22.3688 211.269 22.9552 210.99 23.4922C210.711 24.0291 210.329 24.5061 209.866 24.8959C209.402 25.2857 208.866 25.5807 208.288 25.764L200.906 28.1084L201.57 30.1378Z" fill="url(#paint16_linear_2202_5529)"/>
<path opacity="0.3" d="M198.065 22.1152C198.236 24.6361 198.065 28.6884 195.484 31.2346C195.484 31.2346 202.075 31.8648 203.391 22.2286C203.448 21.7918 203.394 21.3477 203.233 20.9374C203.072 20.5272 202.809 20.1641 202.47 19.8818C202.13 19.5996 201.725 19.4073 201.291 19.3229C200.857 19.2385 200.409 19.2646 199.988 19.3989H199.893C199.324 19.5782 198.834 19.9447 198.502 20.4382C198.17 20.9317 198.016 21.523 198.065 22.1152Z" fill="white"/>
<path d="M175.604 6.40049L175.141 7.57324L181.326 10.0008L181.789 8.82809L175.604 6.40049Z" fill="#E9F0FD"/>
<path d="M182.474 -0.119405L181.336 0.430176L184.234 6.3911L185.373 5.84152L182.474 -0.119405Z" fill="#E9F0FD"/>
<path d="M191.217 0.900177L189.023 7.12646L190.213 7.54242L192.406 1.31613L191.217 0.900177Z" fill="#E9F0FD"/>
</g>
<defs>
<linearGradient id="paint0_linear_2202_5529" x1="124.022" y1="48.0967" x2="162.17" y2="48.1367" gradientUnits="userSpaceOnUse">
<stop stop-color="#2F66F4"/>
<stop offset="1" stop-color="#0D9AE9"/>
</linearGradient>
<linearGradient id="paint1_linear_2202_5529" x1="101.356" y1="58.6555" x2="123.929" y2="58.6657" gradientUnits="userSpaceOnUse">
<stop stop-color="#2F66F4"/>
<stop offset="1" stop-color="#0D9AE9"/>
</linearGradient>
<linearGradient id="paint2_linear_2202_5529" x1="114.146" y1="117.866" x2="120.277" y2="117.873" gradientUnits="userSpaceOnUse">
<stop stop-color="#2F66F4"/>
<stop offset="1" stop-color="#0D9AE9"/>
</linearGradient>
<linearGradient id="paint3_linear_2202_5529" x1="35.8785" y1="100.143" x2="40.9324" y2="100.146" gradientUnits="userSpaceOnUse">
<stop stop-color="#2F66F4"/>
<stop offset="1" stop-color="#0D9AE9"/>
</linearGradient>
<linearGradient id="paint4_linear_2202_5529" x1="53.6789" y1="29.9546" x2="101.706" y2="30.031" gradientUnits="userSpaceOnUse">
<stop stop-color="#2F66F4"/>
<stop offset="1" stop-color="#0D9AE9"/>
</linearGradient>
<linearGradient id="paint5_linear_2202_5529" x1="75.7001" y1="52.6434" x2="109.114" y2="52.6645" gradientUnits="userSpaceOnUse">
<stop stop-color="#2F66F4"/>
<stop offset="1" stop-color="#0D9AE9"/>
</linearGradient>
<linearGradient id="paint6_linear_2202_5529" x1="76.8611" y1="51.8487" x2="108.888" y2="51.8969" gradientUnits="userSpaceOnUse">
<stop stop-color="#2F66F4"/>
<stop offset="1" stop-color="#0D9AE9"/>
</linearGradient>
<linearGradient id="paint7_linear_2202_5529" x1="104.298" y1="69.6802" x2="79.4509" y2="50.6409" gradientUnits="userSpaceOnUse">
<stop stop-color="#F98D3D"/>
<stop offset="1" stop-color="#F9AE3D"/>
</linearGradient>
<linearGradient id="paint8_linear_2202_5529" x1="34.0896" y1="45.071" x2="38.3663" y2="45.0738" gradientUnits="userSpaceOnUse">
<stop stop-color="#2F66F4"/>
<stop offset="1" stop-color="#0D9AE9"/>
</linearGradient>
<linearGradient id="paint9_linear_2202_5529" x1="21.4611" y1="66.5211" x2="41.6309" y2="70.0763" gradientUnits="userSpaceOnUse">
<stop stop-color="#2F66F4"/>
<stop offset="1" stop-color="#0D9AE9"/>
</linearGradient>
<linearGradient id="paint10_linear_2202_5529" x1="169.33" y1="34.7039" x2="173.104" y2="34.7065" gradientUnits="userSpaceOnUse">
<stop stop-color="#2F66F4"/>
<stop offset="1" stop-color="#0D9AE9"/>
</linearGradient>
<linearGradient id="paint11_linear_2202_5529" x1="197.379" y1="45.0831" x2="181.494" y2="38.6113" gradientUnits="userSpaceOnUse">
<stop stop-color="#F98D3D"/>
<stop offset="1" stop-color="#F9AE3D"/>
</linearGradient>
<linearGradient id="paint12_linear_2202_5529" x1="197.844" y1="19.877" x2="189.787" y2="13.6125" gradientUnits="userSpaceOnUse">
<stop stop-color="#F98D3D"/>
<stop offset="1" stop-color="#F9AE3D"/>
</linearGradient>
<linearGradient id="paint13_linear_2202_5529" x1="202.085" y1="48.4235" x2="199.874" y2="48.9159" gradientUnits="userSpaceOnUse">
<stop stop-color="#F98D3D"/>
<stop offset="1" stop-color="#F9AE3D"/>
</linearGradient>
<linearGradient id="paint14_linear_2202_5529" x1="202.794" y1="50.742" x2="198.407" y2="50.2594" gradientUnits="userSpaceOnUse">
<stop stop-color="#F98D3D"/>
<stop offset="1" stop-color="#F9AE3D"/>
</linearGradient>
<linearGradient id="paint15_linear_2202_5529" x1="185.97" y1="42.8104" x2="176.181" y2="38.8545" gradientUnits="userSpaceOnUse">
<stop stop-color="#F98D3D"/>
<stop offset="1" stop-color="#F9AE3D"/>
</linearGradient>
<linearGradient id="paint16_linear_2202_5529" x1="209.814" y1="37.4347" x2="201.505" y2="35.0382" gradientUnits="userSpaceOnUse">
<stop stop-color="#F98D3D"/>
<stop offset="1" stop-color="#F9AE3D"/>
</linearGradient>
<clipPath id="clip0_2202_5529">
<rect width="214" height="135" fill="white"/>
</clipPath>
</defs>
</svg>
