<svg width="204" height="126" viewBox="0 0 204 126" fill="none" xmlns="http://www.w3.org/2000/svg">
<g clip-path="url(#clip0_2202_5573)">
<path opacity="0.3" d="M160.435 8.87018C181.671 15.7421 198.135 35.0444 202.419 59.1838C206.02 79.5329 200.04 104.55 165.148 116.161C129.534 128.013 29.9475 133.715 11.429 100.74C-7.08949 67.7655 -3.1895 25.4225 34.7835 10.4175C61.401 -0.108127 118.959 -4.54202 160.435 8.87018Z" fill="#B5CDF8"/>
<path d="M151.282 52.247C158.064 52.247 163.561 46.7486 163.561 39.966C163.561 33.1834 158.064 27.6851 151.282 27.6851C144.501 27.6851 139.004 33.1834 139.004 39.966C139.004 46.7486 144.501 52.247 151.282 52.247Z" fill="url(#paint0_linear_2202_5573)"/>
<path d="M78.6713 17.803C78.6696 19.0491 78.1739 20.2437 77.293 21.1248C76.412 22.0059 75.2177 22.5017 73.9718 22.5034H22.9143C21.668 22.5034 20.4726 22.0082 19.5913 21.1267C18.71 20.2452 18.2148 19.0496 18.2148 17.803C18.2148 16.5564 18.71 15.3608 19.5913 14.4793C20.4726 13.5978 21.668 13.1025 22.9143 13.1025H73.9718C75.2182 13.1025 76.4136 13.5978 77.2949 14.4793C78.1762 15.3608 78.6713 16.5564 78.6713 17.803Z" fill="#E6E6E6"/>
<path d="M78.6713 17.803C78.6696 19.0491 78.1739 20.2437 77.293 21.1248C76.412 22.0059 75.2177 22.5017 73.9718 22.5034H22.9143C21.668 22.5034 20.4726 22.0082 19.5913 21.1267C18.71 20.2452 18.2148 19.0496 18.2148 17.803C18.2148 16.5564 18.71 15.3608 19.5913 14.4793C20.4726 13.5978 21.668 13.1025 22.9143 13.1025H73.9718C75.2182 13.1025 76.4136 13.5978 77.2949 14.4793C78.1762 15.3608 78.6713 16.5564 78.6713 17.803Z" fill="#C1D1EE"/>
<path d="M59.7498 17.8031C59.7481 19.0492 59.2524 20.2437 58.3715 21.1249C57.4905 22.006 56.2962 22.5018 55.0503 22.5035H22.9143C21.668 22.5035 20.4726 22.0083 19.5913 21.1268C18.71 20.2453 18.2148 19.0497 18.2148 17.8031C18.2148 16.5564 18.71 15.3608 19.5913 14.4793C20.4726 13.5978 21.668 13.1026 22.9143 13.1026H55.0243C55.6437 13.0992 56.2576 13.2182 56.8307 13.4529C57.4039 13.6876 57.9251 14.0333 58.3642 14.4701C58.8034 14.9069 59.1518 15.4263 59.3896 15.9982C59.6274 16.5702 59.7499 17.1836 59.7498 17.8031Z" fill="#8EACF9"/>
<path d="M193.786 67.7004C193.784 68.9465 193.289 70.1411 192.408 71.0223C191.527 71.9034 190.332 72.3992 189.086 72.4009H138.035C136.789 72.4009 135.594 71.9057 134.712 71.0242C133.831 70.1427 133.336 68.9471 133.336 67.7004C133.336 66.4538 133.831 65.2582 134.712 64.3767C135.594 63.4952 136.789 63 138.035 63H189.099C190.344 63.0034 191.536 63.5002 192.414 64.3813C193.293 65.2625 193.786 66.4561 193.786 67.7004Z" fill="#E6E6E6"/>
<path d="M193.786 67.7004C193.784 68.9465 193.289 70.1411 192.408 71.0223C191.527 71.9034 190.332 72.3992 189.086 72.4009H138.035C136.789 72.4009 135.594 71.9057 134.712 71.0242C133.831 70.1427 133.336 68.9471 133.336 67.7004C133.336 66.4538 133.831 65.2582 134.712 64.3767C135.594 63.4952 136.789 63 138.035 63H189.099C190.344 63.0034 191.536 63.5002 192.414 64.3813C193.293 65.2625 193.786 66.4561 193.786 67.7004Z" fill="#C1D1EE"/>
<path d="M161.565 67.7004C161.564 68.9465 161.068 70.1411 160.187 71.0223C159.306 71.9034 158.112 72.3992 156.866 72.4009H138.016C136.77 72.4009 135.574 71.9057 134.693 71.0242C133.812 70.1427 133.316 68.9471 133.316 67.7004C133.316 66.4538 133.812 65.2582 134.693 64.3767C135.574 63.4952 136.77 63 138.016 63H156.866C158.112 63 159.308 63.4952 160.189 64.3767C161.07 65.2582 161.565 66.4538 161.565 67.7004Z" fill="#8EACF9"/>
<path d="M21.4001 116.395C21.4001 116.395 18.7611 117.046 18.3126 119.308C17.8641 121.571 15.5566 121.909 15.1926 119.809C14.8286 117.709 18.0721 112.657 18.0721 112.657L22.2581 113.307L21.4001 116.395Z" fill="#2F66F4"/>
<path d="M135.918 39.0752L125.564 49.8739C122.405 53.1661 118.309 55.4059 113.833 56.2887C109.357 57.1715 104.717 56.6547 100.545 54.8084L89.0857 49.7373L77.5742 69.5013L94.2337 71.9978C101.407 73.0736 108.739 72.0796 115.367 69.1327C121.996 66.1857 127.646 61.4081 131.654 55.361L139.701 43.223C138.401 41.8794 137.14 40.4968 135.918 39.0752Z" fill="#2F66F4"/>
<path opacity="0.46" d="M135.918 39.0752L125.564 49.8739C122.405 53.1661 118.309 55.4059 113.833 56.2887C109.357 57.1715 104.717 56.6547 100.545 54.8084L89.0857 49.7373L77.5742 69.5013L94.2337 71.9978C101.407 73.0736 108.739 72.0796 115.367 69.1327C121.996 66.1857 127.646 61.4081 131.654 55.361L139.701 43.223C138.401 41.8794 137.14 40.4968 135.918 39.0752Z" fill="white"/>
<path d="M56.0776 114.003C56.0776 114.003 54.0366 115.797 54.6996 118.02C55.3626 120.244 53.4841 121.629 52.1776 119.912C50.8711 118.196 51.3846 112.234 51.3846 112.234L55.3886 110.856L56.0776 114.003Z" fill="#2F66F4"/>
<path d="M79.4073 92.5682L61.2073 105.571C51.8077 112.274 40.6692 116.112 29.1363 116.623L21.5898 116.961V112.846L33.7838 108.73C38.4496 107.161 42.6804 104.515 46.1338 101.007L58.1913 88.7324L79.4073 92.5682Z" fill="#24285B"/>
<path opacity="0.08" d="M79.4073 92.5682L61.2073 105.571C51.8077 112.274 40.6692 116.112 29.1363 116.623L21.5898 116.961V112.846L33.7838 108.73C38.4496 107.161 42.6804 104.515 46.1338 101.007L58.1913 88.7324L79.4073 92.5682Z" fill="black"/>
<path d="M91.8842 35.3955C92.5867 36.8928 93.083 38.4784 93.3597 40.109C93.3997 40.5046 93.2812 40.8999 93.0302 41.2083C92.7792 41.5166 92.4162 41.7128 92.0207 41.7538C91.3977 41.8501 90.7601 41.7652 90.1839 41.5094C89.6077 41.2535 89.1172 40.8373 88.7707 40.3105L87.0352 38.1781C86.7349 37.7147 86.5855 37.1695 86.6076 36.6177C86.6297 36.0658 86.8223 35.5344 87.1587 35.0965C88.2897 33.3866 91.1952 33.7442 91.8842 35.3955Z" fill="#FCCDAA"/>
<path d="M88.2661 38.5293L86.1211 48.0407L91.4446 48.8469L90.8661 41.6044L88.2661 38.5293Z" fill="#FCCDAA"/>
<path d="M91.2347 35.766C90.3861 36.1206 89.4978 36.3716 88.5892 36.5136C88.9774 36.802 89.2732 37.1971 89.4406 37.6508C89.608 38.1046 89.6396 38.5972 89.5317 39.0687C89.4337 39.5277 89.179 39.9384 88.8113 40.2302C88.4437 40.5221 87.9859 40.6768 87.5167 40.668L86.2167 37.0662C86.0174 36.5564 85.9593 36.0023 86.0485 35.4622C86.1377 34.9222 86.371 34.4162 86.7237 33.9976C87.0311 33.6368 87.3611 33.2959 87.7117 32.9769C88.5892 32.1838 90.3572 32.3268 91.0267 31.2736C91.0944 31.1697 91.1881 31.0852 91.2984 31.0285C91.4086 30.9717 91.5318 30.9446 91.6557 30.9499C91.7796 30.9551 91.9001 30.9925 92.0051 31.0584C92.1102 31.1243 92.1964 31.2163 92.2552 31.3256C92.8142 32.3528 93.2497 34.1472 91.9952 35.2849C91.7694 35.4855 91.5126 35.648 91.2347 35.766Z" fill="#24285B"/>
<path d="M89.7987 38.8802C89.7987 38.8802 89.3827 37.814 88.6027 38.1911C87.8227 38.5682 88.4207 40.1415 89.5712 39.8554L89.7987 38.8802Z" fill="#FCCDAA"/>
<path d="M92.5938 37.1313L93.7702 37.9245C93.8373 37.9682 93.8924 38.028 93.9305 38.0984C93.9687 38.1687 93.9887 38.2475 93.9887 38.3276C93.9887 38.4076 93.9687 38.4864 93.9305 38.5568C93.8924 38.6272 93.8373 38.687 93.7702 38.7307L92.7757 39.3223L92.5938 37.1313Z" fill="#FCCDAA"/>
<path opacity="0.31" d="M90.7691 41.8251C90.0843 41.7533 89.4357 41.482 88.9036 41.0449C88.9036 41.0449 88.7801 42.8393 90.9706 44.2956L90.7691 41.8251Z" fill="#CE8172"/>
<path d="M91.4435 48.8466L86.12 48.0469C86.12 48.0469 58.9825 40.3949 55.0305 56.6807C51.0785 72.9664 51.54 83.7196 51.54 83.7196L69.8505 92.6394C69.8505 92.6394 120.258 72.1018 91.4435 48.8466Z" fill="#2F66F4"/>
<path opacity="0.08" d="M79.6267 59.0277C79.6267 59.0277 82.5777 66.3807 71.4562 68.7797C60.3347 71.1787 60.3412 78.6487 67.6277 79.1038C74.9142 79.5589 85.6782 75.5996 85.4832 84.1293C85.4832 84.1293 77.0331 89.9414 69.8507 92.659L51.5402 83.7392V82.608L50.5977 66.7058L60.1137 57.5649L79.6267 59.0277Z" fill="black"/>
<path d="M80.6987 54.2819C80.3219 51.842 79.0095 49.6449 77.04 48.1568C75.0704 46.6687 72.5986 46.0067 70.1492 46.3113C63.1617 47.1045 52.5992 50.2121 47.6787 61.4268C40.0152 78.9284 44.7147 89.8506 81.2772 79.0779L80.2892 74.9756C80.2892 74.9756 55.5892 77.9272 57.0647 70.1516C58.3127 63.5918 82.3042 66.0298 80.6987 54.2819Z" fill="#2F66F4"/>
<path opacity="0.46" d="M80.6987 54.2819C80.3219 51.842 79.0095 49.6449 77.04 48.1568C75.0704 46.6687 72.5986 46.0067 70.1492 46.3113C63.1617 47.1045 52.5992 50.2121 47.6787 61.4268C40.0152 78.9284 44.7147 89.8506 81.2772 79.0779L80.2892 74.9756C80.2892 74.9756 55.5892 77.9272 57.0647 70.1516C58.3127 63.5918 82.3042 66.0298 80.6987 54.2819Z" fill="white"/>
<path d="M80.2852 74.9756C80.2852 74.9756 83.6912 71.6274 86.0377 72.1215C88.3842 72.6156 87.0322 77.4916 81.2732 79.0779L80.2852 74.9756Z" fill="#FCCDAA"/>
<path d="M51.5405 83.7134C51.5405 83.7134 87.0436 88.1798 85.4901 97.0801C83.9366 105.98 55.7721 114.874 55.7721 114.874L53.5425 110.46L71.827 97.3596C71.827 97.3596 40.9 104.7 51.5405 83.7134Z" fill="#24285B"/>
<path d="M139.701 43.2232C139.701 43.2232 142.333 39.0299 142.164 37.7036C141.995 36.3773 140.507 38.0027 140.507 38.0027C140.507 38.0027 142.275 35.1031 141.391 33.3347C140.507 31.5664 138.089 36.8129 135.918 39.0754L139.701 43.2232Z" fill="#FCCDAA"/>
</g>
<defs>
<linearGradient id="paint0_linear_2202_5573" x1="156.211" y1="63.8195" x2="140.736" y2="58.3828" gradientUnits="userSpaceOnUse">
<stop stop-color="#F98D3D"/>
<stop offset="1" stop-color="#F9AE3D"/>
</linearGradient>
<clipPath id="clip0_2202_5573">
<rect width="204" height="126" fill="white"/>
</clipPath>
</defs>
</svg>
