<svg width="207" height="127" viewBox="0 0 207 127" fill="none" xmlns="http://www.w3.org/2000/svg">
<g clip-path="url(#clip0_2202_5602)">
<path opacity="0.45" d="M103.629 127.117C160.861 127.117 207.258 121.27 207.258 114.058C207.258 106.846 160.861 101 103.629 101C46.3962 101 0 106.846 0 114.058C0 121.27 46.3962 127.117 103.629 127.117Z" fill="#B5CDF8"/>
<path d="M22.45 65.9027L15.2422 62.417L14.2771 64.3982L21.485 67.8839L22.45 65.9027Z" fill="#24285B"/>
<path d="M29.0452 71.0294L7.12109 60.4268L-0.237582 75.5333L21.6865 86.136L29.0452 71.0294Z" fill="url(#paint0_linear_2202_5602)"/>
<path d="M76.9141 20.2188C76.9141 20.2188 124.459 29.4117 135.446 35.9736L132.876 42.3754C132.876 42.3754 104.831 35.1285 83.7503 37.574L76.9141 20.2188Z" fill="#2F66F4"/>
<path opacity="0.08" d="M76.9141 20.2188C76.9141 20.2188 124.459 29.4117 135.446 35.9736L132.876 42.3754C132.876 42.3754 104.831 35.1285 83.7503 37.574L76.9141 20.2188Z" fill="black"/>
<path d="M133.465 40.9346C133.465 40.9346 139.003 44.5709 139.209 43.4954C139.414 42.4199 138.142 41.0627 138.142 41.0627C138.142 41.0627 144.413 40.8194 144.567 39.3278C144.721 37.8362 135.412 35.9604 135.412 35.9604L133.465 40.9346Z" fill="#FCCDAA"/>
<path d="M95.7902 109.248C95.7902 109.248 96.8568 111.207 98.765 111.079C100.673 110.951 101.444 112.705 99.8251 113.441C98.206 114.178 93.5158 112.68 93.5158 112.68L93.1367 109.229L95.7902 109.248Z" fill="url(#paint1_linear_2202_5602)"/>
<path d="M23.9001 99.2869C23.9001 99.2869 21.7991 100.049 21.6449 101.944C21.4907 103.839 19.6339 104.344 19.1391 102.641C18.6444 100.939 20.8353 96.5342 20.8353 96.5342L24.3177 96.6814L23.9001 99.2869Z" fill="url(#paint2_linear_2202_5602)"/>
<path d="M74.2649 7.17825C74.4773 8.99482 74.4427 10.8316 74.1621 12.639C74.1179 12.8539 74.0312 13.0578 73.9071 13.239C73.7829 13.4201 73.6238 13.5748 73.4389 13.694C73.2541 13.8132 73.0473 13.8945 72.8306 13.9332C72.6139 13.9719 72.3917 13.9672 72.1768 13.9193C71.4811 13.8048 70.8333 13.4926 70.3113 13.0202C69.7893 12.5478 69.4153 11.9353 69.2342 11.2562L68.1676 8.4138C68.0112 7.82068 68.044 7.19373 68.2616 6.62008C68.4793 6.04644 68.8708 5.55459 69.3819 5.2129C71.1938 3.8045 74.1621 5.18089 74.2649 7.17825Z" fill="#FCCDAA"/>
<path d="M68.3473 8.90039L66.9531 19.585L72.922 19.9243L71.5406 12.0117L68.3473 8.90039Z" fill="#FCCDAA"/>
<path d="M70.8399 10.0908C70.8399 10.0908 70.7757 8.81041 69.8248 8.95125C68.8739 9.09209 68.951 10.8718 70.2553 11.0382L70.8399 10.0908Z" fill="#EEB598"/>
<path d="M74.3939 9.25244L75.3512 10.488C75.405 10.5589 75.44 10.6421 75.4531 10.73C75.4663 10.8179 75.4571 10.9076 75.4264 10.9911C75.3957 11.0745 75.3445 11.1489 75.2775 11.2075C75.2105 11.2662 75.1298 11.3071 75.0428 11.3266L73.7578 11.5955L74.3939 9.25244Z" fill="#FCCDAA"/>
<path opacity="0.31" d="M71.9128 13.7334C71.1659 13.5679 70.4844 13.1872 69.9531 12.6387C69.9531 12.6387 70.0945 14.6104 72.3175 16.4798L71.9128 13.7334Z" fill="#CE8172"/>
<path d="M51.6733 71.5352C51.6733 71.5352 48.4608 81.5668 55.252 84.1531C58.4131 85.3502 66.1745 85.3438 73.5697 84.9917C78.0678 84.7847 82.4693 86.3356 85.8368 89.3143C89.2042 92.2929 91.2715 96.4638 91.5982 100.939L92.1958 108.947L95.7167 109.248L96.9438 94.9081C97.3703 89.9181 95.8083 84.9613 92.5956 81.1097C89.383 77.2582 84.7779 74.8214 79.7762 74.3263L51.6733 71.5352Z" fill="#24285B"/>
<path d="M68.1311 10.5709L67.3601 6.08968C67.3601 6.08968 65.5868 4.7325 67.0646 3.47135C68.5423 2.2102 69.5639 3.42014 70.8425 1.55081C71.0182 1.18919 71.3034 0.891597 71.6578 0.699922C72.0122 0.508246 72.418 0.432143 72.8181 0.482326C73.2181 0.53251 73.5923 0.70645 73.888 0.979663C74.1837 1.25288 74.3859 1.6116 74.4662 2.00534C74.7874 3.34971 77.8329 3.18327 77.0362 5.05259C76.2395 6.92192 73.5474 6.78748 72.7828 6.74267C69.429 6.54421 71.9412 11.2559 68.1311 10.5709Z" fill="#24285B"/>
<path d="M67.9286 19.4057L69.1493 19.2905C71.9243 19.0101 74.7267 19.3779 77.3342 20.3647C79.9417 21.3515 82.2825 22.9301 84.171 24.9753C85.7825 26.7708 87.0052 28.8782 87.7626 31.1658C91.1293 41.2806 75.8635 73.9362 75.8635 73.9362L51.6733 71.5355C51.6733 71.5355 39.6008 19.9563 67.9286 19.4057Z" fill="#2F66F4"/>
<path opacity="0.08" d="M75.087 29.0915C74.8169 32.2974 73.7429 35.3843 71.9635 38.0689C70.1842 40.7535 67.7565 42.9496 64.9033 44.4558C54.9639 49.8333 63.7918 72.8926 63.7918 72.8926L51.6743 71.5354C51.6743 71.5354 48.6995 56.9777 49.1043 49.4044C49.509 41.8311 54.1543 27.0557 75.087 29.0915Z" fill="black"/>
<path d="M70.5519 20.9101C72.5498 21.7719 74.2009 23.275 75.2421 25.1801C76.4115 27.3823 76.9191 30.5384 74.2848 34.3282C69.0228 41.908 45.1796 17.0434 22.3002 60.9789L17.1602 58.8407C17.1602 58.8407 34.861 4.95678 70.5519 20.9101Z" fill="#2F66F4"/>
<path opacity="0.46" d="M70.5519 20.9101C72.5498 21.7719 74.2009 23.275 75.2421 25.1801C76.4115 27.3823 76.9191 30.5384 74.2848 34.3282C69.0228 41.908 45.1796 17.0434 22.3002 60.9789L17.1602 58.8407C17.1602 58.8407 34.861 4.95678 70.5519 20.9101Z" fill="url(#paint3_linear_2202_5602)"/>
<path d="M18.3043 59.3081C18.3043 59.3081 15.8499 63.2452 17.4819 64.628C19.1138 66.0108 21.9023 66.747 22.3006 60.979L18.3043 59.3081Z" fill="#FCCDAA"/>
<path d="M51.4488 72.8735C51.0569 73.6161 41.8113 95.7728 36.4914 97.2004C31.1715 98.628 23.6414 96.3169 23.6414 96.3169L23.2109 100.158C23.2109 100.158 35.1422 105.836 43.2826 103.724C51.4231 101.611 65.8087 81.9065 65.8087 81.9065L52.5925 73.0848" fill="#24285B"/>
<path d="M182.56 58.9109C182.56 58.9109 190.013 72.9949 191.78 87.9751C193.546 102.955 188.92 113.339 163.426 111.623C137.932 109.908 131.764 99.5111 136.441 85.6832C141.118 71.8553 161.499 55.1851 161.499 55.1851L182.56 58.9109Z" fill="#24285B"/>
<path d="M182.558 58.9111C182.558 58.9111 195.627 50.7296 192.196 44.7887C188.765 38.8479 180.406 40.3075 176.075 38.1757C171.745 36.0439 148.506 32.3052 161.497 55.1852L182.558 58.9111Z" fill="#24285B"/>
<path d="M180.773 55.6011C180.773 55.6011 167.628 53.1172 156.57 53.5013" stroke="url(#paint4_linear_2202_5602)" stroke-width="3.045" stroke-linecap="round" stroke-linejoin="round"/>
<path d="M160.824 55.0955C160.824 55.0955 155.427 39.5776 146.927 46.8436C138.427 54.1096 160.297 55.0955 160.297 55.0955C160.297 55.0955 138.774 60.217 148.899 68.7954C159.025 77.3738 160.824 55.0955 160.824 55.0955Z" stroke="url(#paint5_linear_2202_5602)" stroke-width="3.045" stroke-linecap="round" stroke-linejoin="round"/>
<path d="M159.698 99.2743C166.784 99.2743 172.529 93.5506 172.529 86.49C172.529 79.4293 166.784 73.7056 159.698 73.7056C152.612 73.7056 146.867 79.4293 146.867 86.49C146.867 93.5506 152.612 99.2743 159.698 99.2743Z" fill="url(#paint6_linear_2202_5602)"/>
<path d="M162.827 80.146C163.225 80.2677 163.309 80.4405 163.187 80.8374L162.923 81.6824C163.602 81.9689 164.189 82.4345 164.622 83.029C165.054 83.6236 165.315 84.3245 165.378 85.0562C165.461 85.5363 165.3 85.7284 164.774 85.7988L163.803 85.9204C163.347 85.9845 163.161 85.8436 163.084 85.3571C163.037 84.8746 162.837 84.4197 162.512 84.0591C162.187 83.6984 161.755 83.4511 161.278 83.3533C159.801 82.9052 158.998 83.1293 158.708 84.1151C158.649 84.427 158.7 84.7499 158.854 85.028C159.007 85.3062 159.254 85.5222 159.55 85.6388C159.934 85.8531 160.331 86.0433 160.739 86.2085C161.513 86.4823 162.243 86.8684 162.904 87.3544C163.239 87.5887 163.528 87.8815 163.758 88.2187C163.966 88.6349 164.089 89.0882 164.118 89.5521C164.148 90.0159 164.085 90.4811 163.932 90.9202C163.354 92.8024 161.696 93.6922 159.364 93.3401L159.087 94.2364C158.965 94.6333 158.805 94.7357 158.4 94.6141L157.449 94.326C157.051 94.2044 156.954 94.0251 157.076 93.6282L157.346 92.7448C156.585 92.457 155.928 91.9504 155.456 91.2892C154.985 90.6281 154.721 89.8424 154.699 89.0317C154.699 88.6092 154.892 88.3915 155.342 88.3915L156.286 88.3339C156.762 88.3339 156.929 88.4748 156.98 88.9741C157.014 89.4914 157.218 89.9831 157.56 90.3732C157.903 90.7632 158.365 91.0298 158.875 91.1315C160.469 91.618 161.445 91.362 161.735 90.3441C161.815 90.1145 161.817 89.8651 161.742 89.6339C161.666 89.4028 161.517 89.2025 161.317 89.0637C160.824 88.7031 160.281 88.4163 159.704 88.2123C158.922 87.9252 158.19 87.5192 157.533 87.0087C157.207 86.7665 156.927 86.4697 156.704 86.1317C156.487 85.731 156.355 85.2897 156.317 84.8357C156.28 84.3818 156.337 83.925 156.485 83.4942C157.057 81.6312 158.618 80.7478 160.925 81.1319L161.188 80.2805C161.311 79.8836 161.49 79.7875 161.889 79.9092L162.827 80.146Z" fill="white"/>
<path d="M192.21 44.5328C192.21 44.5328 194.697 49.2381 189.403 49.8783C184.108 50.5184 179.765 45.6659 175.557 46.7414C171.348 47.8169 159.115 49.795 157.567 44.0014C156.018 38.2078 163.491 35.4614 168.444 36.172C173.398 36.8826 190.855 39.0144 192.21 44.5328Z" fill="url(#paint7_linear_2202_5602)"/>
</g>
<defs>
<linearGradient id="paint0_linear_2202_5602" x1="11.6574" y1="90.08" x2="2.4066" y2="77.8365" gradientUnits="userSpaceOnUse">
<stop stop-color="#F98D3D"/>
<stop offset="1" stop-color="#F9AE3D"/>
</linearGradient>
<linearGradient id="paint1_linear_2202_5602" x1="94.9915" y1="111.437" x2="99.3875" y2="111.442" gradientUnits="userSpaceOnUse">
<stop stop-color="#2F66F4"/>
<stop offset="1" stop-color="#0D9AE9"/>
</linearGradient>
<linearGradient id="paint2_linear_2202_5602" x1="20.3535" y1="100.107" x2="23.4039" y2="100.108" gradientUnits="userSpaceOnUse">
<stop stop-color="#2F66F4"/>
<stop offset="1" stop-color="#0D9AE9"/>
</linearGradient>
<linearGradient id="paint3_linear_2202_5602" x1="31.6295" y1="39.468" x2="65.9217" y2="39.497" gradientUnits="userSpaceOnUse">
<stop stop-color="#2F66F4"/>
<stop offset="1" stop-color="#0D9AE9"/>
</linearGradient>
<linearGradient id="paint4_linear_2202_5602" x1="173.529" y1="56.6094" x2="172.509" y2="52.5545" gradientUnits="userSpaceOnUse">
<stop stop-color="#F98D3D"/>
<stop offset="1" stop-color="#F9AE3D"/>
</linearGradient>
<linearGradient id="paint5_linear_2202_5602" x1="156.077" y1="82.9423" x2="145.348" y2="80.6297" gradientUnits="userSpaceOnUse">
<stop stop-color="#F98D3D"/>
<stop offset="1" stop-color="#F9AE3D"/>
</linearGradient>
<linearGradient id="paint6_linear_2202_5602" x1="153.157" y1="86.49" x2="168.063" y2="86.4992" gradientUnits="userSpaceOnUse">
<stop stop-color="#2F66F4"/>
<stop offset="1" stop-color="#0D9AE9"/>
</linearGradient>
<linearGradient id="paint7_linear_2202_5602" x1="177.865" y1="39.948" x2="156.37" y2="54.8088" gradientUnits="userSpaceOnUse">
<stop stop-color="#2F66F4"/>
<stop offset="1" stop-color="#0D9AE9"/>
</linearGradient>
<clipPath id="clip0_2202_5602">
<rect width="207" height="127" fill="white"/>
</clipPath>
</defs>
</svg>
