<svg width="53" height="26" viewBox="0 0 53 26" fill="none" xmlns="http://www.w3.org/2000/svg">
<g clip-path="url(#clip0_1845_4345)">
<path fill-rule="evenodd" clip-rule="evenodd" d="M52.3917 5.42218H50.0539C49.9313 5.42206 49.8138 5.37419 49.7272 5.28909C49.6405 5.204 49.5918 5.08864 49.5918 4.96836L49.5928 2.64633C49.5928 2.39578 49.8 2.19298 50.0549 2.19298L52.3931 2.19393C52.648 2.19393 52.8547 2.3972 52.8547 2.64727L52.8538 4.96978C52.8538 5.21985 52.6471 5.42218 52.3917 5.42218ZM49.2763 2.19345L47.6882 2.19298C47.647 2.19298 47.6062 2.18502 47.5682 2.16955C47.5302 2.15408 47.4956 2.1314 47.4666 2.10282C47.4375 2.07423 47.4144 2.0403 47.3987 2.00297C47.383 1.96564 47.3749 1.92563 47.375 1.88524V0.307273C47.375 0.137091 47.5157 0 47.6887 0H49.2772C49.4502 0 49.5904 0.138036 49.5904 0.308218L49.5899 1.88524C49.5899 2.05542 49.4492 2.19345 49.2763 2.19345Z" fill="black"/>
<mask id="mask0_1845_4345" style="mask-type:luminance" maskUnits="userSpaceOnUse" x="0" y="6" width="48" height="20">
<g opacity="0.963">
<path d="M0 6.45703H47.3695V25.8753H0V6.45703Z" fill="black"/>
</g>
</mask>
<g mask="url(#mask0_1845_4345)">
<path opacity="0.963" fill-rule="evenodd" clip-rule="evenodd" d="M47.3695 7.9603V15.8241C47.3695 17.0891 47.0789 18.1603 46.5167 19.0235C45.4316 20.6965 43.3299 21.5876 40.3422 21.5876H40.32C37.3318 21.5876 35.2301 20.6965 34.145 19.0235C33.5827 18.1603 33.2922 17.0891 33.2922 15.8241V7.9603C33.2922 6.69009 33.8207 6.45987 35.2426 6.45987H35.6902C37.1116 6.45987 37.6401 6.69009 37.6401 7.9603V10.9333L37.6411 10.9522V11.6036C37.6411 11.6263 37.643 11.6471 37.643 11.6703V15.8241C37.643 16.3318 37.7427 16.736 37.9485 17.0499C38.3363 17.6351 39.1034 17.9013 40.3311 17.9032C41.5587 17.9013 42.3258 17.6351 42.7137 17.049C42.9194 16.7355 43.0187 16.3314 43.0187 15.8241V11.6703C43.0187 11.6471 43.0201 11.6263 43.0206 11.6036V10.9522L43.0215 10.9333V7.9603C43.0215 6.69009 43.5506 6.45987 44.9719 6.45987H45.4196C46.8409 6.45987 47.3695 6.69009 47.3695 7.9603ZM31.8337 10.9905L29.191 21.3626C28.4162 24.4032 27.0926 25.7084 24.6224 25.8667C24.5623 25.8721 24.502 25.8749 24.4417 25.8753C23.9093 25.8753 23.7411 25.5869 23.6423 25.1217L23.597 24.9203C23.5518 24.7086 23.5233 24.4712 23.6491 24.3048C23.771 24.1451 23.9892 24.0983 24.3246 24.0704C25.9792 23.904 26.5405 23.1533 27.0922 21.4515C26.8305 21.5375 26.5169 21.5838 26.1772 21.5838C24.3593 21.5838 23.8722 20.3415 23.4626 18.8401L21.28 10.9962C21.2077 10.7295 21.1595 10.4587 21.3012 10.2776C21.4428 10.0961 21.7184 10.071 21.9955 10.071H22.1795C22.8661 10.071 23.1297 10.2696 23.3084 10.921L25.4684 18.6974C25.7479 19.6679 26.0283 19.8319 26.7289 19.8319C27.3008 19.8319 27.6352 19.657 27.8732 18.7011L29.7802 10.9248C29.932 10.2786 30.2013 10.071 30.8874 10.071H31.0941C31.3697 10.071 31.6444 10.0956 31.7894 10.2743C31.9344 10.4535 31.8968 10.7243 31.8337 10.9905ZM18.4956 16.2496H15.953C13.9086 16.2496 13.1122 16.7592 13.1122 18.0672C13.1122 19.2599 13.9062 19.8399 15.5391 19.8399C18.0108 19.8399 18.4951 19.0992 18.4951 17.8195L18.4956 16.2496ZM15.5396 9.74107C18.8849 9.74107 20.511 10.9456 20.511 13.4236V17.8871C20.511 20.4493 18.9851 21.5919 15.5627 21.5919C12.6829 21.5919 11.0972 20.3401 11.0972 18.0672C11.0972 15.7239 12.6328 14.6328 15.9304 14.6328H18.4956V13.4236C18.4956 12.0683 17.6659 11.5157 15.6316 11.5157C14.4994 11.5157 13.4634 11.6797 13.1401 11.7591C13.0023 11.7927 12.8872 11.8092 12.7884 11.8092C12.5846 11.8092 12.4343 11.7379 12.3403 11.597C12.2603 11.4764 12.2228 11.3044 12.2228 11.0567V10.8761C12.2228 10.2431 12.4603 10.0904 13.0274 9.96987C13.3473 9.90652 14.192 9.74107 15.5396 9.74107ZM9.07553 11.2443C9.07553 13.1102 8.58985 14.1214 6.02803 14.1214H2.08435V9.30569C2.08435 8.63772 2.33778 8.38954 3.01811 8.38954H6.02803C7.95819 8.38954 9.07553 8.8566 9.07553 11.2443ZM6.02803 6.45703H2.62784C0.810418 6.45703 0 7.25216 0 9.03529V20.4866C0 21.1754 0.225491 21.3966 0.9275 21.3966H1.15733C1.85934 21.3966 2.08435 21.1754 2.08435 20.4866V16.0316H6.02803C9.5294 16.0316 11.1604 14.5104 11.1604 11.2443C11.1604 7.9778 9.5294 6.45703 6.02803 6.45703Z" fill="black"/>
</g>
<path opacity="0.921" fill-rule="evenodd" clip-rule="evenodd" d="M48.9729 9.76759L45.8247 9.76665C45.6598 9.76665 45.5017 9.7024 45.3852 9.58804C45.2686 9.47367 45.2031 9.31857 45.2031 9.15683L45.2046 6.02974C45.2046 5.69269 45.4831 5.41992 45.8261 5.41992L48.9743 5.42087C49.3179 5.42087 49.5959 5.6941 49.5959 6.03069L49.5949 9.15825C49.5949 9.23837 49.5788 9.31771 49.5475 9.39173C49.5163 9.46574 49.4704 9.53299 49.4127 9.58962C49.3549 9.64626 49.2863 9.69117 49.2109 9.72178C49.1354 9.7524 49.0545 9.76766 48.9729 9.76759Z" fill="black"/>
</g>
<defs>
<clipPath id="clip0_1845_4345">
<rect width="53" height="26" fill="white"/>
</clipPath>
</defs>
</svg>
