<svg width="53" height="26" viewBox="0 0 53 26" fill="none" xmlns="http://www.w3.org/2000/svg">
<path fill-rule="evenodd" clip-rule="evenodd" d="M52.3936 5.42218H50.0559C49.9333 5.42206 49.8157 5.37419 49.7291 5.28909C49.6425 5.204 49.5938 5.08864 49.5938 4.96836L49.5948 2.64633C49.5948 2.39578 49.8019 2.19298 50.0568 2.19298L52.3951 2.19393C52.65 2.19393 52.8567 2.3972 52.8567 2.64727L52.8557 4.96978C52.8557 5.21985 52.649 5.42218 52.3936 5.42218ZM49.2782 2.19345L47.6901 2.19298C47.649 2.19298 47.6082 2.18502 47.5702 2.16955C47.5321 2.15408 47.4976 2.1314 47.4685 2.10282C47.4394 2.07423 47.4164 2.0403 47.4007 2.00297C47.3849 1.96564 47.3769 1.92563 47.377 1.88524V0.307273C47.377 0.137091 47.5176 0 47.6906 0H49.2792C49.4521 0 49.5924 0.138036 49.5924 0.308218L49.5919 1.88524C49.5919 2.05542 49.4512 2.19345 49.2782 2.19345Z" fill="black"/>
<path opacity="0.963" fill-rule="evenodd" clip-rule="evenodd" d="M47.3695 7.96128V15.8251C47.3695 17.0901 47.0789 18.1613 46.5167 19.0245C45.4316 20.6975 43.3299 21.5886 40.3422 21.5886H40.32C37.3318 21.5886 35.2301 20.6975 34.145 19.0245C33.5827 18.1613 33.2922 17.0901 33.2922 15.8251V7.96128C33.2922 6.69106 33.8207 6.46084 35.2426 6.46084H35.6902C37.1116 6.46084 37.6401 6.69106 37.6401 7.96128V10.9343L37.6411 10.9532V11.6046C37.6411 11.6273 37.643 11.6481 37.643 11.6712V15.8251C37.643 16.3328 37.7427 16.737 37.9485 17.0509C38.3363 17.6361 39.1034 17.9023 40.3311 17.9042C41.5587 17.9023 42.3258 17.6361 42.7137 17.0499C42.9194 16.7365 43.0187 16.3323 43.0187 15.8251V11.6712C43.0187 11.6481 43.0201 11.6273 43.0206 11.6046V10.9532L43.0215 10.9343V7.96128C43.0215 6.69106 43.5506 6.46084 44.9719 6.46084H45.4196C46.8409 6.46084 47.3695 6.69106 47.3695 7.96128ZM31.8337 10.9915L29.191 21.3636C28.4162 24.4042 27.0926 25.7094 24.6224 25.8677C24.5623 25.873 24.502 25.8759 24.4417 25.8762C23.9093 25.8762 23.7411 25.5879 23.6423 25.1227L23.597 24.9213C23.5518 24.7095 23.5233 24.4722 23.6491 24.3058C23.771 24.146 23.9892 24.0992 24.3246 24.0714C25.9792 23.905 26.5405 23.1543 27.0922 21.4524C26.8305 21.5385 26.5169 21.5848 26.1772 21.5848C24.3593 21.5848 23.8722 20.3425 23.4626 18.8411L21.28 10.9971C21.2077 10.7305 21.1595 10.4596 21.3012 10.2786C21.4428 10.0971 21.7184 10.072 21.9955 10.072H22.1795C22.8661 10.072 23.1297 10.2706 23.3084 10.922L25.4684 18.6983C25.7479 19.6688 26.0283 19.8329 26.7289 19.8329C27.3008 19.8329 27.6352 19.658 27.8732 18.7021L29.7802 10.9258C29.932 10.2795 30.2013 10.072 30.8874 10.072H31.0941C31.3697 10.072 31.6444 10.0966 31.7894 10.2753C31.9344 10.4544 31.8968 10.7253 31.8337 10.9915ZM18.4956 16.2506H15.953C13.9086 16.2506 13.1122 16.7602 13.1122 18.0682C13.1122 19.2609 13.9062 19.8409 15.5391 19.8409C18.0108 19.8409 18.4951 19.1002 18.4951 17.8205L18.4956 16.2506ZM15.5396 9.74204C18.8849 9.74204 20.511 10.9466 20.511 13.4246V17.8881C20.511 20.4503 18.9851 21.5928 15.5627 21.5928C12.6829 21.5928 11.0972 20.3411 11.0972 18.0682C11.0972 15.7249 12.6328 14.6338 15.9304 14.6338H18.4956V13.4246C18.4956 12.0693 17.6659 11.5167 15.6316 11.5167C14.4994 11.5167 13.4634 11.6807 13.1401 11.7601C13.0023 11.7937 12.8872 11.8102 12.7884 11.8102C12.5846 11.8102 12.4343 11.7388 12.3403 11.598C12.2603 11.4774 12.2228 11.3054 12.2228 11.0576V10.8771C12.2228 10.2441 12.4603 10.0914 13.0274 9.97084C13.3473 9.9075 14.192 9.74204 15.5396 9.74204ZM9.07553 11.2453C9.07553 13.1112 8.58985 14.1223 6.02803 14.1223H2.08435V9.30666C2.08435 8.6387 2.33778 8.39052 3.01811 8.39052H6.02803C7.95819 8.39052 9.07553 8.85757 9.07553 11.2453ZM6.02803 6.45801H2.62784C0.810418 6.45801 0 7.25314 0 9.03626V20.4876C0 21.1764 0.225491 21.3976 0.9275 21.3976H1.15733C1.85934 21.3976 2.08435 21.1764 2.08435 20.4876V16.0326H6.02803C9.5294 16.0326 11.1604 14.5114 11.1604 11.2453C11.1604 7.97877 9.5294 6.45801 6.02803 6.45801Z" fill="black"/>
<path opacity="0.921" fill-rule="evenodd" clip-rule="evenodd" d="M48.969 9.76759L45.8208 9.76665C45.6559 9.76665 45.4978 9.7024 45.3813 9.58804C45.2647 9.47367 45.1992 9.31857 45.1992 9.15683L45.2007 6.02974C45.2007 5.69269 45.4792 5.41992 45.8222 5.41992L48.9704 5.42087C49.3139 5.42087 49.592 5.6941 49.592 6.03069L49.591 9.15825C49.591 9.23837 49.5749 9.31771 49.5436 9.39173C49.5124 9.46574 49.4665 9.53299 49.4088 9.58962C49.351 9.64626 49.2824 9.69117 49.207 9.72178C49.1315 9.7524 49.0506 9.76766 48.969 9.76759Z" fill="black"/>
</svg>
