<svg width="18" height="16" viewBox="0 0 18 16" fill="none" xmlns="http://www.w3.org/2000/svg">
<path d="M17.7364 5.42429L13.6114 9.54929C13.4824 9.67829 13.3074 9.75077 13.125 9.75077C12.9426 9.75077 12.7676 9.67829 12.6386 9.54929C12.5096 9.42029 12.4371 9.24532 12.4371 9.06288C12.4371 8.88044 12.5096 8.70548 12.6386 8.57648L15.5905 5.62538H12.1797C10.5028 5.62492 8.87323 6.18184 7.54735 7.20856C6.22148 8.23528 5.27447 9.67357 4.85523 11.2973C4.80965 11.4739 4.69576 11.6252 4.53863 11.7179C4.38149 11.8105 4.19398 11.837 4.01734 11.7914C3.84071 11.7458 3.68941 11.6319 3.59674 11.4748C3.50407 11.3177 3.47762 11.1301 3.5232 10.9535C4.01787 9.03412 5.1369 7.33378 6.70409 6.12023C8.27127 4.90669 10.1976 4.24888 12.1797 4.25038H15.5923L12.6386 1.29929C12.5747 1.23541 12.524 1.15958 12.4895 1.07612C12.4549 0.992666 12.4371 0.903216 12.4371 0.812882C12.4371 0.722548 12.4549 0.633099 12.4895 0.549641C12.524 0.466183 12.5747 0.390352 12.6386 0.326476C12.7676 0.197473 12.9426 0.125 13.125 0.125C13.2153 0.125 13.3048 0.142793 13.3882 0.177362C13.4717 0.211931 13.5475 0.2626 13.6114 0.326476L17.7364 4.45148C17.8003 4.51533 17.851 4.59115 17.8856 4.67461C17.9202 4.75807 17.938 4.84753 17.938 4.93788C17.938 5.02823 17.9202 5.11769 17.8856 5.20115C17.851 5.28461 17.8003 5.36044 17.7364 5.42429ZM14.5 13.8754H1.4375V3.56288C1.4375 3.38055 1.36507 3.20568 1.23614 3.07675C1.1072 2.94782 0.932336 2.87538 0.75 2.87538C0.567664 2.87538 0.392795 2.94782 0.263864 3.07675C0.134933 3.20568 0.0625 3.38055 0.0625 3.56288V13.8754C0.0625 14.2401 0.207366 14.5898 0.465228 14.8477C0.723091 15.1055 1.07283 15.2504 1.4375 15.2504H14.5C14.6823 15.2504 14.8572 15.178 14.9861 15.049C15.1151 14.9201 15.1875 14.7452 15.1875 14.5629C15.1875 14.3805 15.1151 14.2057 14.9861 14.0767C14.8572 13.9478 14.6823 13.8754 14.5 13.8754Z" fill="white"/>
</svg>
