<svg width="19" height="18" viewBox="0 0 19 18" fill="none" xmlns="http://www.w3.org/2000/svg">
<g clip-path="url(#clip0_2335_5387)">
<path d="M7.9094 13.5915C8.11835 13.8006 8.36645 13.9664 8.63953 14.0796C8.91261 14.1928 9.20531 14.251 9.5009 14.251C9.7965 14.251 10.0892 14.1928 10.3623 14.0796C10.6353 13.9664 10.8835 13.8006 11.0924 13.5915L13.5007 11.1833C13.6298 11.0404 13.699 10.8535 13.6941 10.661C13.6891 10.4685 13.6104 10.2853 13.4741 10.1494C13.3378 10.0134 13.1545 9.93499 12.962 9.93046C12.7695 9.92592 12.5827 9.99558 12.4402 10.125L10.2457 12.3203L10.2509 0.75C10.2509 0.551088 10.1719 0.360322 10.0312 0.21967C9.89058 0.0790177 9.69981 0 9.5009 0V0C9.30199 0 9.11122 0.0790177 8.97057 0.21967C8.82992 0.360322 8.7509 0.551088 8.7509 0.75L8.74415 12.306L6.56165 10.125C6.42092 9.98437 6.23009 9.9054 6.03114 9.90547C5.83218 9.90555 5.64141 9.98465 5.50078 10.1254C5.36015 10.2661 5.28118 10.4569 5.28125 10.6559C5.28132 10.8548 5.36042 11.0456 5.50115 11.1863L7.9094 13.5915Z" fill="white"/>
<path d="M17.75 12C17.5511 12 17.3603 12.079 17.2197 12.2197C17.079 12.3603 17 12.5511 17 12.75V15.75C17 15.9489 16.921 16.1397 16.7803 16.2803C16.6397 16.421 16.4489 16.5 16.25 16.5H2.75C2.55109 16.5 2.36032 16.421 2.21967 16.2803C2.07902 16.1397 2 15.9489 2 15.75V12.75C2 12.5511 1.92098 12.3603 1.78033 12.2197C1.63968 12.079 1.44891 12 1.25 12C1.05109 12 0.860322 12.079 0.71967 12.2197C0.579018 12.3603 0.5 12.5511 0.5 12.75L0.5 15.75C0.5 16.3467 0.737053 16.919 1.15901 17.341C1.58097 17.7629 2.15326 18 2.75 18H16.25C16.8467 18 17.419 17.7629 17.841 17.341C18.2629 16.919 18.5 16.3467 18.5 15.75V12.75C18.5 12.5511 18.421 12.3603 18.2803 12.2197C18.1397 12.079 17.9489 12 17.75 12Z" fill="white"/>
</g>
<defs>
<clipPath id="clip0_2335_5387">
<rect width="18" height="18" fill="white" transform="translate(0.5)"/>
</clipPath>
</defs>
</svg>
