<svg xmlns="http://www.w3.org/2000/svg" width="211" height="749" fill="none" viewBox="0 0 211 749"><path fill="#76809F" d="M74.0425 688.868L76.123 733.186L93.0004 735.153L92.9494 687.261L74.0425 688.868Z"/><path fill="url(#paint0_linear_19_1978)" d="M101.95 710.382C101.95 710.382 111.425 723.156 126.032 727.817C140.677 732.479 150.245 736.165 149 745L95.2313 745L91.5 745L82 745L72.398 745L72.398 716.361L91.7221 718.042L90.3537 714.957L101.95 710.382Z"/><path fill="#76809F" d="M17.0094 692.99L20.7686 737.191L37.7296 738.54L35.8196 690.652L17.0094 692.99Z"/><path fill="url(#paint1_linear_19_1978)" d="M43.6081 714.865C43.6081 714.865 53.0832 727.639 67.691 732.3C82.3352 736.962 83.1469 736.165 81.9016 745C73.3485 745 68.5531 745 60 745L38 745L34 745L14 745L14.0564 720.845L33.3806 722.525L32.0122 719.44L43.6081 714.865Z"/><path fill="#141B30" d="M154.333 341.383C154.333 341.383 155.91 459.46 129.419 526.977C129.419 526.977 112.746 655.128 105.562 704.098C105.562 704.098 86.4327 712.261 70.2105 708.228C64.293 683.561 92.4391 466.861 88.5865 428.088C88.5865 428.088 34.8738 658.527 43.0815 706.85C43.0815 706.85 32.9071 719.905 13.1755 710.126C13.1755 710.126 -7.60009 602.106 18.1147 528.89C18.1147 528.89 14.6324 362.634 29.8769 317.557C45.122 272.443 154.333 341.383 154.333 341.383Z"/><path fill="#333030" d="M21.249 374.192C23.081 350.314 25.8073 329.55 29.8781 317.484C45.1226 272.406 154.333 341.346 154.333 341.346C154.333 341.346 154.59 360.303 153.178 387.322C131.702 402.697 111.858 405.782 111.858 405.782L106.727 375.698L104.332 404.741C45.9886 397.943 26.6744 380.845 21.249 374.192Z" opacity=".2"/><path fill="#FCCDAA" d="M179.196 247.851L180.703 283.12C180.703 283.12 190.007 316.41 189.097 326.964C188.223 337.519 193.569 395.415 194.128 403.187C194.687 410.96 194.529 420.105 194.529 420.105L203.202 447.735L201.551 461.119L196.559 465.261L194.337 471.565L180.139 476.97C180.139 476.97 173.824 475.44 188.118 464.423C188.118 464.423 188.621 443.621 185.664 443.935C180.004 444.53 183.686 459.354 180.405 463.598C178.244 466.367 174.381 445.162 174.381 445.162C174.381 445.162 173.263 427.503 180.453 420.592C180.453 420.592 169.084 384.424 159.876 345.487C150.669 306.549 150.473 235.329 150.473 235.329L179.196 247.851Z"/><path fill="#897160" d="M150.747 250.897C150.509 241.417 150.467 235.402 150.467 235.402L179.154 247.887L179.357 253.029C169.897 252.137 160.324 251.426 150.747 250.897Z" opacity=".5"/><path fill="url(#paint2_linear_19_1978)" d="M89.6137 126.948L80.5736 120.669L73.3892 129.402C73.3892 129.402 32.3629 120.205 16.9047 133.205C-4.54442 151.242 32.7585 277.332 32.7585 277.332L19.5732 361.625C19.5732 361.625 31.3573 386.356 104.541 394.904L106.935 365.861L112.067 395.945C112.067 395.945 138.452 391.843 163.291 369.564C163.291 369.564 154.733 280.123 158.09 248.144C158.09 248.144 184.87 248.604 185.597 246.576C186.325 244.547 187.011 185.589 173.18 169.679C159.348 153.769 127.784 145.39 127.784 145.39L89.6137 126.948Z"/><path fill="#FCCDAA" d="M123.505 112.004L119.294 164.013L82.9951 146.952L86.9776 93.4075L123.505 112.004Z"/><path fill="#FAB989" d="M111.62 146.169C101.699 140.24 93.522 132.518 84.6037 125.513L87.0147 93.4085L123.542 112.005L120.31 151.603C117.499 149.769 114.615 147.933 111.62 146.169Z"/><path fill="#FCCDAA" d="M109.31 19.6966C81.89 24.6191 82.2186 41.5359 82.2186 41.5359C82.2186 41.5359 82.7595 54.593 82.8933 70.1215C80.4331 66.9448 76.1934 65.5234 71.7929 67.0878C62.4052 70.4252 68.6185 96.9558 82.7931 95.0128C83.2131 102.382 83.8793 108.152 84.8657 110.137C88.6346 117.747 110.026 136.994 125.442 139.154C140.858 141.314 153.883 119.306 154.275 102.875C154.667 86.4448 158.769 38.6976 158.769 38.6976C158.769 38.6976 154.717 11.5117 109.31 19.6966Z"/><path fill="#141B30" d="M129.429 58.3124C129.429 58.3124 129.393 56.1614 127.834 53.5834C127.054 52.2943 125.985 50.8911 124.365 49.7334C123.61 49.1008 122.634 48.6466 121.621 48.1919C120.534 47.8451 119.484 47.4262 118.245 47.4413C117.044 47.3477 115.839 47.4363 114.704 47.7813C113.534 47.9798 112.575 48.6558 111.619 49.1132C110.735 49.6811 110.066 50.435 109.399 51.0432C108.768 51.7248 108.39 52.4836 108.015 53.1332C107.191 54.3947 107.022 55.7403 106.826 56.5752C106.665 57.4472 106.656 57.9573 106.656 57.9573C106.656 57.9573 107.169 57.7839 107.977 57.4333C108.784 57.1192 109.742 56.516 110.916 56.0989C111.503 55.8903 112.055 55.5717 112.677 55.4002C113.227 55.2274 113.849 55.0559 114.436 54.8473C115.02 54.8209 115.571 54.5389 116.117 54.6211C116.664 54.5941 117.175 54.53 117.757 54.6129C118.305 54.5494 118.883 54.8144 119.466 54.8244C120.046 55.0167 120.701 55.1008 121.316 55.3301C122.586 55.6799 123.888 56.2491 125.084 56.6705C127.436 57.6222 129.429 58.3124 129.429 58.3124Z"/><path fill="#141B30" d="M154.895 58.9313C154.895 58.9313 155.069 57.2941 154.154 55.3466C153.312 53.4368 151.168 50.9943 147.678 50.424C146.806 50.2997 145.968 50.2489 145.09 50.4525C144.214 50.5103 143.479 50.8986 142.744 51.214C142.01 51.5294 141.527 52.0678 141.009 52.4962C140.492 52.9247 140.227 53.5034 139.89 53.9714C139.255 54.8717 139.129 55.8536 139.009 56.4712C138.925 57.1258 138.919 57.4902 138.919 57.4902C138.919 57.4902 139.321 57.4241 139.942 57.3255C140.563 57.2268 141.334 56.9485 142.174 56.8536C142.611 56.8247 143.015 56.6494 143.416 56.6563C143.817 56.6632 144.22 56.5243 144.584 56.567C145.313 56.5796 145.932 56.5903 146.586 56.7473C147.895 56.8792 149.779 57.5311 151.557 57.9991C153.333 58.5763 154.895 58.9313 154.895 58.9313Z"/><path fill="#fff" d="M110.33 113.092L141.62 114.14C141.62 114.14 134.42 130.089 110.33 113.092Z"/><path fill="#3F3838" d="M108.857 69.3657C108.803 72.4993 110.216 75.0749 112.002 75.1056C113.787 75.1364 115.288 72.6108 115.342 69.4772C115.396 66.3436 113.983 63.7679 112.197 63.7372C110.412 63.7065 108.91 66.232 108.857 69.3657Z"/><path fill="#3F3838" d="M138.533 71.2621C138.479 74.3957 139.893 76.9714 141.678 77.0021C143.464 77.0328 144.965 74.5073 145.019 71.3737C145.073 68.2401 143.659 65.6644 141.874 65.6337C140.088 65.603 138.587 68.1285 138.533 71.2621Z"/><path fill="#141B30" d="M106.785 33.2127C101.149 40.9154 102.569 53.7325 99.2319 57.0282C95.8951 60.3239 89.3549 61.2684 90.6769 79.7695C90.8529 82.2509 91.0264 84.878 91.2344 87.615C89.8919 87.2639 88.5118 86.9851 86.9828 86.8859C85.4537 86.7867 84.0309 86.8715 82.6438 86.9935C82.6171 80.0682 81.9999 75.6841 81.9999 75.6841C81.9999 75.6841 75.5139 37.4494 76.7713 32.1499C78.0281 26.8868 89.0629 8.30657 105.742 4.83943L101.242 10.0832C102.914 8.25322 110.467 1.34896 127.139 4.66074L122.971 5.46373C122.971 5.46373 143.597 7.71369 158.375 2.50086L152.989 8.34904C152.989 8.34904 167.322 7.83015 172.977 3.22581C172.977 3.22581 180.487 26.4256 160.745 36.3275C141.003 46.2295 112.422 25.4737 106.785 33.2127Z"/><path fill="#141B30" d="M129.41 103.761C129.41 103.761 108.878 98.1236 101.646 111.776C101.646 111.776 122.166 115.992 129.364 110.649C129.364 110.649 138.57 115.8 147.251 113.289C147.251 113.253 142.789 101.44 129.41 103.761Z"/><path fill="#7F6654" d="M136.216 70.3106C136.236 75.5227 136.731 80.6702 137.481 85.7856C138.231 90.901 139.165 95.9466 140.354 100.96L141.14 99.7711C137.111 100.941 133.116 102.257 129.154 103.72C133.354 103.245 137.484 102.587 141.615 101.82L142.493 101.653L142.401 100.631C141.87 95.483 141.083 90.4033 140.112 85.357C139.143 80.2743 137.917 75.2601 136.216 70.3106Z"/><path fill="#B9D1E7" stroke="#20242E" stroke-miterlimit="10" stroke-width="4" d="M164.482 79.5051L142.317 77.7025C142.317 77.7025 140.207 92.2812 148.366 94.7177C165.879 99.9756 164.482 79.5051 164.482 79.5051Z"/><path fill="#B9D1E7" stroke="#20242E" stroke-miterlimit="10" stroke-width="4" d="M133.139 77.5462L110.974 75.7435C110.974 75.7435 108.864 90.3224 117.023 92.7588C134.536 98.0167 133.139 77.5462 133.139 77.5462Z"/><path stroke="#20242E" stroke-miterlimit="10" stroke-width="4" d="M141.987 82.6557C141.987 82.6557 138.444 76.7266 132.845 82.2798"/><path fill="#FAB989" d="M65.6974 171.477L46.1615 158.785C46.1615 158.785 13.8311 173.755 19.1635 192.18C23.1186 205.915 63.8287 218.679 67.5327 208.866C71.2368 199.052 65.6974 171.477 65.6974 171.477Z"/><path fill="#A07E67" d="M97.9324 71.1128L91.3735 71L91.3704 71.1821C91.1895 71.1061 90.9715 71.066 90.7542 70.9894C90.3891 68.9055 89.8769 66.8921 88.9621 64.9811C93.3333 65.1292 102.275 66.5586 102.275 66.5586L108.704 74.2139C102.382 79.3901 97.9324 71.1128 97.9324 71.1128Z"/><path fill="#A07E67" d="M95.8428 73.9539L90.8871 73.8687L90.884 74.0509C90.7395 73.9755 90.5944 73.9365 90.4492 73.8976C90.1891 72.0707 89.7821 70.3143 89.1186 68.6262C92.3967 68.7555 99.1188 69.9645 99.1188 69.9645L103.96 76.6813C99.1802 81.228 95.8428 73.9539 95.8428 73.9539Z"/><path stroke="#20242E" stroke-miterlimit="10" stroke-width="4" d="M110.319 77.7363L83.6655 69.8793"/><path fill="url(#paint3_linear_19_1978)" d="M129.837 146.555L116.63 174.865L110.235 158.901L110.905 158.074L121.815 140.403L129.837 146.555Z"/><path fill="#2F66F4" d="M78.1276 118.879L109.621 158.929L100.07 176.004L66.1168 128.513L78.1276 118.879Z"/><path fill="#FCCDAA" d="M76.1394 119.828L86.8925 98.5461C88.2151 104.291 98.1271 93.7825 103.319 97.0426C102.695 105.779 104.544 197.51 69.2984 210.316C48.0265 218.042 35.3008 199.308 43.0575 178.485C51.5404 155.706 76.1394 119.828 76.1394 119.828Z"/><path fill="#FCCDAA" d="M112.914 71.0398L106.485 63.3848C106.485 63.3848 94.9998 61.5472 91.7149 61.8187C88.4301 62.0903 86.033 67.9533 86.033 67.9533L83.7263 68.5697L81.3236 74.7608L78.6665 76.6831C78.6665 76.6831 81.8551 101.084 90.7059 103.533C99.5567 105.981 108.49 101.542 102.146 88.932C95.8026 76.3218 95.5028 74.6765 95.5028 74.6765L95.6213 67.7902L102.18 67.903C102.107 67.9018 106.593 76.2158 112.914 71.0398Z"/><path fill="#2B344E" d="M108.648 427.375C108.648 427.375 85.4161 676.233 82.6609 709.279C79.7794 709.412 76.7921 709.324 73.8471 708.909C71.9643 708.184 70.3838 706.845 69.6921 704.682C66.3158 667.886 92.2856 465.399 88.5908 428.051L108.648 427.375Z" opacity=".2"/><defs><linearGradient id="paint0_linear_19_1978" x1="130.453" x2="85.633" y1="728.435" y2="727.725" gradientUnits="userSpaceOnUse"><stop stop-color="#2F66F4"/><stop offset="1" stop-color="#0D9AE9"/></linearGradient><linearGradient id="paint1_linear_19_1978" x1="65.673" x2="25.837" y1="730.567" y2="729.937" gradientUnits="userSpaceOnUse"><stop stop-color="#2F66F4"/><stop offset="1" stop-color="#0D9AE9"/></linearGradient><linearGradient id="paint2_linear_19_1978" x1="142.185" x2="39.357" y1="259.096" y2="257.368" gradientUnits="userSpaceOnUse"><stop stop-color="#2F66F4"/><stop offset="1" stop-color="#0D9AE9"/></linearGradient><linearGradient id="paint3_linear_19_1978" x1="124.892" x2="113.632" y1="157.732" y2="157.542" gradientUnits="userSpaceOnUse"><stop stop-color="#2F66F4"/><stop offset="1" stop-color="#0D9AE9"/></linearGradient></defs></svg>