<svg width="345" height="749" viewBox="0 0 345 749" fill="none" xmlns="http://www.w3.org/2000/svg">
<path d="M166.693 141.003C166.693 141.003 201.243 306.642 249.421 336.466C287.964 360.317 305.184 314.666 242.094 203.397" stroke="#FDE3D0" stroke-width="1.5028" stroke-miterlimit="10"/>
<path d="M83.3826 579.74L50.7383 703.576L1.42401 709.254L67.9947 727.17L147.389 547.902L83.3826 579.74Z" fill="#FCCDAA"/>
<path d="M95.4701 665.105L147.386 547.901L83.3797 579.739L65.0609 649.204C75.1729 654.59 85.3215 659.866 95.4701 665.105Z" fill="#FCCDAA"/>
<path d="M1.42053 709.252L67.9912 727.168L66.3425 730.576L0.980896 712.074L1.42053 709.252Z" fill="#141B30"/>
<path d="M21.8642 705.736L21.5344 717.021L49.0493 723.286L47.0343 702.842L21.8642 705.736Z" fill="#141B30"/>
<path d="M204.246 600.478L278.73 704.676L251.618 746.223L307.894 706.398L220.586 530.866L204.246 600.478Z" fill="#FCCDAA"/>
<path d="M277.668 645.652L220.586 530.866L204.246 600.478L246.013 658.915C256.601 654.555 267.153 650.122 277.668 645.652Z" fill="#FCCDAA"/>
<path d="M251.616 746.224L307.891 706.399L309.467 709.843L253.484 748.385L251.616 746.224Z" fill="#141B30"/>
<path d="M261.95 728.272L270.414 735.709L292.799 718.526L275.8 707.022L261.95 728.272Z" fill="#141B30"/>
<path d="M153.285 146.059C149.657 159.359 85.2849 172.988 85.2849 172.988C85.2849 172.988 84.1124 170.716 82.2072 167.162C76.0887 152.8 62.3495 123.454 55.5715 108.945C52.5306 115.87 46.1924 121.255 36.7032 121.622C40.77 149.137 58.2094 205.412 66.3064 208.197C76.7115 211.787 141.121 195.264 162.957 188.266C184.793 181.231 195.784 160.348 195.784 160.348C195.784 160.348 156.912 132.76 153.285 146.059Z" fill="#FCCDAA"/>
<path d="M302.398 234.137C293.092 250.221 269.827 302.76 265.028 311.699C268.069 310.014 275.286 293.82 279.573 293.82C285.215 293.82 289.612 295.615 292.909 298.363C312.364 278.872 347.426 230.363 344.751 222.12C341.344 211.641 289.428 170.131 270.67 156.941C251.911 143.715 228.61 147.489 228.61 147.489C228.61 147.489 230.002 195.155 242.789 190.062C255.612 184.933 305.219 228.165 305.219 228.165C305.219 228.165 304.083 230.437 302.398 234.137Z" fill="#FCCDAA"/>
<path d="M40.1841 127.558C40.1841 127.558 37.2163 122.429 31.5741 111.877L23.3673 96.9657C23.3673 96.9657 -4.58722 68.1684 26.4083 91.7631C26.4083 91.7631 28.0936 91.5433 27.4707 89.8213C26.8479 88.0993 14.5743 65.8237 16.5894 64.9077C18.6045 63.9918 30.988 84.8386 32.3069 84.7653C33.6625 84.692 22.6345 58.8258 25.6022 58.3495C28.5698 57.8732 37.6193 82.6403 39.5244 81.9808C41.4296 81.2847 38.4255 58.6793 40.8803 57.8C43.2983 56.9207 47.4749 82.4937 50.0761 86.817C52.6041 91.0303 54.8392 90.5541 54.8392 90.5541C54.8392 90.5541 58.1 90.7739 58.2832 84.4722C58.4297 78.2438 59.6387 75.7524 63.449 76.5218C63.449 76.5218 64.145 82.4571 64.0351 85.1317C63.9618 86.6338 63.8153 104.403 56.3046 110.229L58.5761 123.711L40.1841 127.558Z" fill="#FCCDAA"/>
<path d="M122.106 362.516C122.106 362.516 152.368 554.901 229.271 650.525C229.271 650.525 271.661 650.269 277.413 624.659C259.314 551.274 205.383 327.051 205.383 327.051L122.106 362.516Z" fill="#1E2848"/>
<path d="M180.471 193.323C182.522 214.28 97.4864 300.232 122.62 378.6L54.2904 627.114C54.2904 627.114 79.7171 654.629 107.708 652.101C158.195 586.373 248.104 410.952 249.276 336.54C249.606 315.474 233.998 279.239 230.518 269.713C183.951 272.388 226.891 188.084 180.471 193.323Z" fill="#141B30"/>
<path d="M223.338 18.3405C223.338 18.3405 188.569 -22.4007 154.093 21.7478C139.145 40.9093 136.25 75.8983 136.324 125.323C136.36 153.241 184.722 141.333 184.722 141.333C184.722 141.333 199.487 53.2929 223.338 18.3405Z" fill="#C1724F"/>
<path d="M223.297 37.8326C223.297 37.8326 192.338 5.11511 163.907 38.7119C151.56 53.2937 149.985 80.5157 151.304 119.059C152.073 140.858 190.653 142.36 190.653 142.36C190.653 142.36 203.696 64.5049 223.297 37.8326Z" fill="#935133"/>
<path d="M217.478 143.276L220.996 78.9771L187.765 105.503L185.054 139.429L156 143.972C156 143.972 145.595 185.629 194.507 187.718C243.455 189.806 259.062 155.44 259.062 155.44L217.478 143.276Z" fill="#FCCDAA"/>
<path d="M188.198 135.545C198.126 134.629 208.092 133.86 218.021 133.2L220.988 78.9766L187.758 105.502L185.376 135.582C186.329 135.545 187.282 135.545 188.198 135.545Z" fill="#FCCDAA"/>
<path d="M225.902 32.8848C225.902 32.8848 173.437 -1.29815 157.5 52.4861C141.452 106.783 184.465 150.089 230.079 104.145C244.917 89.2337 257.997 36.7684 225.902 32.8848Z" fill="#FCCDAA"/>
<path d="M175.233 73.9573C174.427 76.4486 173.254 78.7568 171.789 80.8817C171.093 81.9442 170.25 82.9335 169.334 83.9227C168.858 84.399 168.345 84.8387 167.795 85.2783C167.502 85.4981 167.209 85.7179 166.843 85.9011C166.44 86.0843 166.037 86.3042 165.304 86.3042L166.513 84.6921C166.586 85.0218 166.733 85.5348 166.916 85.9378C167.099 86.3774 167.282 86.7804 167.502 87.1834C167.942 87.9895 168.528 88.7223 169.151 89.4184C169.81 90.0779 170.58 90.6641 171.459 91.1037C172.338 91.58 173.291 91.8365 174.317 92.1296C173.804 92.1662 173.254 92.2761 172.741 92.2028C172.228 92.1662 171.679 92.1295 171.129 91.983C170.067 91.7998 169.004 91.3601 168.088 90.7006C167.136 90.0778 166.33 89.2717 165.634 88.3924C165.304 87.9528 164.974 87.4766 164.718 86.9636C164.461 86.4507 164.241 85.9744 164.022 85.3149L165.23 83.7028C165.121 83.7028 165.67 83.4097 166.037 83.0434C166.44 82.7136 166.843 82.274 167.246 81.8344C168.088 80.9917 168.858 80.0757 169.737 79.1598C171.459 77.4012 173.218 75.606 175.233 73.9573Z" fill="#CF976E"/>
<path d="M173.912 99.3469L199.155 98.9073C199.155 98.8707 179.847 112.976 173.912 99.3469Z" fill="white"/>
<path d="M186.734 58.8263C186.734 58.8263 187.686 57.544 189.591 56.0785C190.581 55.3824 191.79 54.6496 193.218 54.1367C194.647 53.5505 196.333 53.2573 198.018 53.2573C198.861 53.3306 199.74 53.3673 200.546 53.6604C201.389 53.8069 202.121 54.21 202.818 54.613C203.55 54.9428 204.1 55.5289 204.649 55.9686C205.236 56.4082 205.602 56.9578 205.969 57.4708C206.775 58.4233 207.068 59.4125 207.361 60.0353C207.617 60.6582 207.764 61.0612 207.764 61.0612C207.764 61.0612 207.434 60.8048 206.958 60.3285C206.701 60.1087 206.445 59.8155 206.115 59.4858C205.822 59.156 205.346 58.8995 204.906 58.5332C204.466 58.2034 204.027 57.8005 203.477 57.544C202.927 57.2509 202.415 56.8845 201.792 56.7013C200.619 56.1884 199.264 55.9319 197.908 55.8952C195.16 55.7853 192.339 56.7013 190.214 57.4341C188.199 58.1668 186.734 58.8263 186.734 58.8263Z" fill="#BC6040"/>
<path d="M157.936 55.4917C157.936 55.4917 158.559 54.2093 160.098 52.6705C160.867 51.9011 161.856 51.0951 163.065 50.4357C163.688 50.1059 164.311 49.7762 165.044 49.5564C165.74 49.2999 166.546 49.2266 167.315 49.0801C168.121 49.1167 168.927 49.0434 169.697 49.2999C170.503 49.4098 171.199 49.7762 171.858 50.1426C172.555 50.4357 173.031 51.0219 173.507 51.4615C174.02 51.9012 174.313 52.4507 174.606 52.927C175.266 53.8429 175.412 54.7589 175.632 55.3451C175.815 55.9313 175.888 56.2977 175.888 56.2977C175.888 56.2977 175.595 56.0779 175.156 55.6383C174.753 55.1986 174.167 54.5758 173.36 54.0262C172.994 53.7331 172.628 53.3666 172.151 53.1468C171.675 52.8903 171.272 52.5972 170.759 52.4507L170.027 52.1576C169.77 52.121 169.477 52.0844 169.22 52.0477C168.707 51.8645 168.121 52.0111 167.572 51.9745C166.985 52.0844 166.436 52.0477 165.85 52.2675C165.264 52.4141 164.714 52.5607 164.164 52.7805C163.065 53.1469 162.003 53.6232 161.087 54.0262C159.218 54.8322 157.936 55.4917 157.936 55.4917Z" fill="#BC6040"/>
<path d="M180.762 15.3379C180.762 15.3379 174.936 44.0986 216.96 56.5554C248.395 65.8614 210.731 18.3788 180.762 15.3379Z" fill="#C1724F"/>
<path d="M167.204 141.517C167.204 141.517 162.917 168.776 190.212 169.289C217.508 169.765 231.796 139.759 231.796 139.759L252.936 147.416C252.936 147.416 246.964 155.989 246.232 166.394C245.645 174.528 245.938 182.735 249.529 194.092C247.074 225.894 243.96 262.825 242.458 265.975C239.747 271.618 176.07 280.741 126.39 250.038C126.39 250.038 128.075 206.806 152.915 143.789L167.204 141.517Z" fill="url(#paint0_linear_20_2020)"/>
<path d="M246.23 166.357C246.963 155.952 252.935 147.379 252.935 147.379L235.202 140.967C232.748 186.545 172.882 239.999 128.99 228.128C126.718 242.087 126.388 250.038 126.388 250.038C176.069 280.777 239.745 271.617 242.457 265.975C243.995 262.824 247.109 225.894 249.528 194.092C245.937 182.698 245.644 174.528 246.23 166.357Z" fill="url(#paint1_linear_20_2020)"/>
<path d="M182.26 19.3301C182.26 19.3301 225.895 32.8861 217.249 82.0906C210.361 121.366 205.708 133.823 211.497 152.472C211.497 152.472 248.208 151.153 250.333 139.832C254.473 117.629 250.076 109.496 253.374 67.472C256.232 31.1641 245.9 13.2848 232.307 5.18791C218.678 -2.94567 185.337 -1.5168 182.26 19.3301Z" fill="#C1724F"/>
<path d="M191.684 74.7643C191.684 74.7643 191.611 73.3353 192.16 71.247C192.27 70.734 192.49 70.1845 192.746 69.5983C193.039 69.0121 193.259 68.3892 193.772 67.803C194.175 67.2168 194.761 66.594 195.567 66.1177C196.41 65.6414 197.546 65.5315 198.535 65.788C198.975 65.9712 199.414 66.1909 199.817 66.4107L200.733 67.2535C201.393 67.7664 201.649 68.4625 202.052 69.0487C202.822 70.2211 203.151 71.4302 203.518 72.4194C204.031 74.5077 204.141 75.9 204.141 75.9C204.141 75.9 203.188 74.8009 202.089 73.1155C201.43 72.3461 200.843 71.3202 200.074 70.4409C199.671 70.0379 199.304 69.4884 198.901 69.1953L198.315 68.6824C198.095 68.6091 197.912 68.5358 197.766 68.4626C197.436 68.3526 197.143 68.3526 196.777 68.5358C196.41 68.719 195.97 68.9754 195.604 69.4151C194.835 70.1845 194.175 71.137 193.589 71.9431C192.453 73.5551 191.684 74.7643 191.684 74.7643Z" fill="#1E1B1B"/>
<path d="M162.34 71.1C162.34 71.1 162.266 69.671 162.816 67.5826C162.926 67.0697 163.146 66.5202 163.402 65.934C163.695 65.3845 163.915 64.7249 164.428 64.1387C164.831 63.5525 165.417 62.9297 166.223 62.4534C167.066 61.9771 168.202 61.8672 169.191 62.1237C169.631 62.3068 170.07 62.5266 170.473 62.7464L171.389 63.5891C172.049 64.1021 172.305 64.7982 172.708 65.3844C173.478 66.5568 173.807 67.7659 174.174 68.7551C174.687 70.8434 174.797 72.2357 174.797 72.2357C174.797 72.2357 173.844 71.1365 172.745 69.4512C172.085 68.6818 171.499 67.6559 170.73 66.7766C170.327 66.3736 169.96 65.824 169.557 65.5309L168.971 65.0181C168.751 64.9448 168.568 64.8715 168.422 64.7983C168.092 64.6883 167.799 64.6883 167.432 64.8715C167.066 65.0547 166.626 65.3111 166.26 65.7508C165.491 66.5202 164.831 67.4727 164.245 68.2788C163.109 69.8542 162.34 71.1 162.34 71.1Z" fill="#1E1B1B"/>
<path d="M166.693 141.003C177.611 190.757 191.827 240.218 214.579 286.199C222.566 302.356 231.908 320.785 248.029 330.713C264.223 340.679 281.699 337.308 283.568 316.901" stroke="#FDE3D0" stroke-width="1.482" stroke-miterlimit="10"/>
<path d="M230.108 311.662C230.108 311.662 269.567 296.054 279.642 297.886C289.754 299.718 298.914 356.616 261.287 363.028C223.66 369.44 230.108 311.662 230.108 311.662Z" fill="url(#paint2_linear_20_2020)"/>
<path d="M281.036 281.911C277.482 288.14 275.87 291.327 274.184 295.577C263.852 289.056 253.484 305.836 253.044 309.389C252.605 313.09 263.596 304.333 263.596 304.333C260.152 309.536 257.734 315.471 257.734 315.471C272.719 331.335 278.288 318.366 281.622 314.079C282.061 313.493 294.225 294.954 303.275 284.842C297.229 280.666 287.008 286.234 281.036 281.911Z" fill="#FCCDAA"/>
<path d="M264.999 299.756C264.999 299.756 237.008 342.439 259.943 315.803C259.943 315.803 241.148 346.103 263.167 319.467C263.167 319.467 250.784 346.543 269.139 320.859C269.139 320.859 256.279 349.767 281.34 314.008L264.999 299.756Z" fill="#FCCDAA"/>
<defs>
<linearGradient id="paint0_linear_20_2020" x1="134.203" y1="216.449" x2="112.995" y2="178.36" gradientUnits="userSpaceOnUse">
<stop stop-color="#F98D3D"/>
<stop offset="1" stop-color="#F9AE3D"/>
</linearGradient>
<linearGradient id="paint1_linear_20_2020" x1="215.058" y1="333.402" x2="134.752" y2="306.102" gradientUnits="userSpaceOnUse">
<stop stop-color="#F98D3D"/>
<stop offset="1" stop-color="#F9AE3D"/>
</linearGradient>
<linearGradient id="paint2_linear_20_2020" x1="270.924" y1="394.521" x2="233.008" y2="382.603" gradientUnits="userSpaceOnUse">
<stop stop-color="#F98D3D"/>
<stop offset="1" stop-color="#F9AE3D"/>
</linearGradient>
</defs>
</svg>
