<svg width="348" height="382" viewBox="0 0 348 382" fill="none" xmlns="http://www.w3.org/2000/svg">
<path d="M133.572 245.706L132.396 350.916L208.417 323.492L210.402 215.121L133.572 245.706Z" fill="#FCCDAA"/>
<path d="M151.07 316.508C172.098 306.435 189.963 292.466 209.226 280.041L210.402 215.121L133.572 245.706L132.69 325.845C138.645 322.683 144.748 319.595 151.07 316.508Z" fill="#FAB887"/>
<path d="M213.599 62.4463C265.137 84.8705 256.609 117.955 256.609 117.955C256.609 117.955 249.477 143.32 241.978 173.758C248.301 168.612 257.27 167.803 265.211 173.023C282.047 183.978 257.491 233.164 230.582 222.724C226.318 236.987 222.348 248.015 219.48 251.471C208.526 264.631 157.575 292.496 126.328 289.555C95.0816 286.614 79.789 237.354 86.6266 204.931C93.4641 172.508 107.654 76.8566 107.654 76.8566C107.654 76.8566 128.313 25.3179 213.599 62.4463Z" fill="#FCCDAA"/>
<path d="M157.763 115.276C157.763 115.276 162.028 114.835 167.027 114.026C169.6 113.806 172.394 113.291 175.041 113.144C176.364 112.923 177.688 113.144 178.938 112.997C180.114 113.217 181.364 112.997 182.393 113.364C183.496 113.438 184.525 113.806 185.555 114.1C186.657 114.247 187.613 115.055 188.716 115.349C189.819 116.011 190.922 116.599 191.951 117.261C193.054 117.923 194.01 118.805 195.039 119.467C197.171 120.864 198.715 122.481 200.185 123.437C201.582 124.466 202.538 125.054 202.538 125.054C202.538 125.054 202.759 124.025 202.832 122.26C202.832 120.496 203.126 117.849 202.097 114.982C201.656 113.511 201.288 111.821 200.333 110.203C199.303 108.659 198.347 106.895 196.877 105.351C195.186 103.954 193.642 102.189 191.436 101.307C189.304 100.13 187.025 99.3217 184.599 99.0276C182.173 98.5129 179.893 98.8072 177.614 98.9542C175.482 99.3953 173.277 99.8364 171.512 100.719C167.762 102.263 164.968 104.542 162.91 106.674C158.866 111.012 157.763 115.276 157.763 115.276Z" fill="#191615"/>
<path d="M102.103 109.688C102.103 109.688 102.985 109.394 104.602 108.953C105.926 108.512 107.837 107.924 110.117 107.189C112.175 106.6 114.381 105.792 116.219 105.497C117.175 105.203 117.983 105.277 118.719 105.13C119.38 105.203 120.042 105.056 120.483 105.203C120.998 104.983 121.586 105.497 122.248 105.277C122.909 105.645 123.718 105.498 124.6 105.865C125.483 106.233 126.512 106.453 127.468 106.821C128.423 107.262 129.453 107.703 130.482 108.071C132.614 108.806 134.379 109.762 135.923 110.276C137.393 110.791 138.422 111.085 138.422 111.085C138.422 111.085 138.643 110.129 138.643 108.512C138.643 106.894 138.717 104.542 137.834 101.969C137.393 100.719 136.805 99.3216 136.143 97.9247C135.334 96.5278 134.158 95.1309 132.908 93.8075C131.658 92.4106 129.673 91.3077 127.835 90.2784C125.703 89.5432 123.424 88.661 120.998 88.7345C118.498 88.661 116.219 89.1021 114.087 89.8373C112.102 90.646 110.19 91.6754 108.793 92.9253C105.779 95.278 104.235 98.1453 103.132 100.645C102.176 103.218 101.809 105.424 101.809 107.115C101.882 108.659 102.103 109.688 102.103 109.688Z" fill="#191615"/>
<path d="M212.02 89.77C219.519 107.562 210.696 132.045 215.769 140.059C220.769 148.073 233.194 152.999 222.019 188.657C220.548 193.435 218.931 198.582 217.24 203.802C220.034 203.802 222.901 203.802 225.915 204.317C229.003 204.831 231.723 205.64 234.37 206.522C237.679 192.921 240.84 184.613 240.84 184.613C240.84 184.613 271.352 112.562 271.352 101.607C271.352 90.6522 258.338 49.1125 227.239 34.4817L233.635 46.9068C231.209 42.569 219.592 25.512 185.331 24.1886L193.124 27.7177C193.124 27.7177 151.585 22.4976 125.043 5.44053L132.837 19.4097C132.837 19.4097 104.972 11.7635 96.0024 0C96.0024 0 70.4904 42.0545 104.604 70.7279C138.718 99.4014 204.52 71.9778 212.02 89.77Z" fill="#141B30"/>
<path d="M132.765 224.688C126.295 230.496 121.002 237.186 116.002 244.024L113.87 247.038L117.399 248.288C127.104 251.67 137.029 254.537 147.543 255.493C138.573 249.905 128.942 246.156 119.164 242.995L120.561 247.259C125.266 240.127 129.604 232.775 132.765 224.688Z" fill="#7F6654"/>
<path d="M134.751 217.695C134.751 217.695 177.688 216.224 185.555 246.368C185.555 246.368 143.28 245.045 131.663 231.223C131.663 231.223 111.151 237.031 95.2701 228.061C95.3436 228.061 109.533 206.961 134.751 217.695Z" fill="#141B30"/>
<path d="M136.953 148.883C131.365 157.779 126.587 167.043 122.322 176.527C118.058 186.011 114.161 195.643 110.706 205.495L110.044 207.48L111.735 208.215C119.455 211.67 127.322 214.832 135.336 217.699C128.278 212.994 120.999 208.583 113.647 204.392L114.676 207.112C119.381 197.775 123.572 188.291 127.395 178.659C131.071 169.028 134.453 159.176 136.953 148.883Z" fill="#7F6654"/>
<path d="M92.0264 127.27L136.434 134.107C136.434 134.107 133.787 163.736 116.656 164.692C79.7484 166.824 92.0264 127.27 92.0264 127.27Z" fill="#B9D1E7" stroke="#20242E" stroke-width="4" stroke-miterlimit="10"/>
<path d="M154.523 138L198.93 144.837C198.93 144.837 196.283 174.467 179.152 175.423C142.171 177.555 154.523 138 154.523 138Z" fill="#B9D1E7" stroke="#20242E" stroke-width="4" stroke-miterlimit="10"/>
<path d="M134.746 143.88C134.746 143.88 144.451 133.881 152.906 147.409" stroke="#20242E" stroke-width="4" stroke-miterlimit="10"/>
<path d="M199.889 152.559L251.207 161.896" stroke="#20242E" stroke-width="4" stroke-miterlimit="10"/>
<path d="M135.484 318.499C135.484 318.499 65.1975 325.557 45.8613 358.348V382H347.5C347.5 382 341.161 367 330.832 356.51C302.379 327.616 211.359 318.573 211.359 318.573L208.491 314.088L172.392 335.556L135.484 318.499Z" fill="url(#paint0_linear_53_1804)"/>
<path d="M168.568 150.933C167.907 156.447 164.745 160.565 161.657 160.197C158.496 159.83 156.511 155.051 157.172 149.537C157.834 144.022 160.922 139.905 164.083 140.273C167.245 140.64 169.23 145.419 168.568 150.933Z" fill="#3F3838"/>
<path d="M106.441 139.832C105.779 145.346 102.617 149.463 99.5296 149.096C96.3681 148.728 94.3831 143.949 95.0448 138.435C95.7064 132.921 98.7944 128.804 101.956 129.171C105.117 129.539 107.176 134.318 106.441 139.832Z" fill="#3F3838"/>
<path d="M221.281 316.653L214.664 296.729L172.463 335.548L190.035 359.296L221.281 316.653Z" fill="url(#paint1_linear_53_1804)"/>
<path d="M172.465 335.557L133.131 295.781L127.47 307.177L154.011 358.348L172.465 335.557Z" fill="url(#paint2_linear_53_1804)"/>
<path d="M78.6523 382H0.939865V381.206C0.939865 364.59 53.5814 338.27 78.6523 334.152V382Z" fill="url(#paint3_linear_53_1804)"/>
<defs>
<linearGradient id="paint0_linear_53_1804" x1="136.144" y1="413.997" x2="198.293" y2="316.998" gradientUnits="userSpaceOnUse">
<stop stop-color="#F98D3D"/>
<stop offset="1" stop-color="#F9AE3D"/>
</linearGradient>
<linearGradient id="paint1_linear_53_1804" x1="187.075" y1="388.774" x2="219.219" y2="379.961" gradientUnits="userSpaceOnUse">
<stop stop-color="#F98D3D"/>
<stop offset="1" stop-color="#F9AE3D"/>
</linearGradient>
<linearGradient id="paint2_linear_53_1804" x1="140.937" y1="387.827" x2="170.879" y2="380.261" gradientUnits="userSpaceOnUse">
<stop stop-color="#F98D3D"/>
<stop offset="1" stop-color="#F9AE3D"/>
</linearGradient>
<linearGradient id="paint3_linear_53_1804" x1="24.1998" y1="404.544" x2="65.6984" y2="380.859" gradientUnits="userSpaceOnUse">
<stop stop-color="#F98D3D"/>
<stop offset="1" stop-color="#F9AE3D"/>
</linearGradient>
</defs>
</svg>
