<svg xmlns="http://www.w3.org/2000/svg" width="18" height="18" fill="none" viewBox="0 0 18 18"><g clip-path="url(#clip0_1396_4813)"><path fill="#fff" d="M13.7993 5.53417C13.6637 5.49547 13.5398 5.42346 13.4391 5.32469C13.3384 5.22593 13.2639 5.10354 13.2226 4.96867C12.9929 4.1902 12.6077 3.46642 12.0902 2.84114C11.5727 2.21585 10.9338 1.70205 10.212 1.33084C9.49023 0.959619 8.70065 0.7387 7.89103 0.681449C7.08141 0.624199 6.26859 0.731805 5.50176 0.997758C4.73493 1.26371 4.03004 1.68248 3.42972 2.22873C2.82941 2.77497 2.34616 3.43733 2.00923 4.17573C1.67229 4.91413 1.48868 5.71322 1.46948 6.52463C1.45029 7.33604 1.59593 8.14291 1.89757 8.89642C1.96687 9.05499 1.98179 9.23203 1.94001 9.39996C1.89823 9.56789 1.80209 9.7173 1.66657 9.82492C1.06937 10.2682 0.603107 10.8646 0.317136 11.5512C0.0311653 12.2377 -0.0638755 12.9888 0.0420727 13.7249C0.207413 14.7201 0.724066 15.623 1.49826 16.2697C2.27245 16.9165 3.25287 17.2643 4.26157 17.2499H8.24932C8.44824 17.2499 8.639 17.1709 8.77965 17.0302C8.92031 16.8896 8.99932 16.6988 8.99932 16.4999C8.99932 16.301 8.92031 16.1102 8.77965 15.9696C8.639 15.8289 8.44824 15.7499 8.24932 15.7499H4.26157C3.61378 15.7656 2.98179 15.5488 2.48014 15.1386C1.97849 14.7285 1.64038 14.1522 1.52707 13.5142C1.45522 13.0452 1.51345 12.5655 1.69543 12.1274C1.8774 11.6893 2.17613 11.3095 2.55907 11.0294C2.96131 10.7288 3.25229 10.3031 3.38628 9.81909C3.52026 9.33512 3.48968 8.82036 3.29932 8.35567C2.92294 7.36169 2.90358 6.26783 3.24457 5.26117C3.51697 4.4726 4.00476 3.77607 4.65269 3.2505C5.30061 2.72492 6.08278 2.39129 6.91057 2.28742C7.10259 2.2627 7.29598 2.25017 7.48957 2.24992C8.45936 2.24672 9.4041 2.55774 10.1823 3.13641C10.9606 3.71508 11.5304 4.53027 11.8066 5.45992C11.9144 5.81419 12.1086 6.13609 12.3718 6.39663C12.6349 6.65717 12.9587 6.84817 13.3141 6.95242C14.1837 7.20961 14.954 7.72632 15.5218 8.43338C16.0897 9.14044 16.428 10.0041 16.4915 10.9087C16.5549 11.8134 16.3405 12.7158 15.877 13.4952C15.4134 14.2746 14.7228 14.8938 13.8976 15.2699C13.7754 15.3324 13.6734 15.428 13.6029 15.5458C13.5325 15.6636 13.4966 15.7987 13.4993 15.9359C13.4979 16.06 13.5276 16.1825 13.5858 16.2921C13.644 16.4017 13.7288 16.495 13.8324 16.5633C13.9361 16.6316 14.0552 16.6728 14.1789 16.6831C14.3026 16.6934 14.4268 16.6724 14.5403 16.6222C17.6408 15.1319 19.3253 11.2117 16.7003 7.42417C15.9775 6.48135 14.9538 5.81438 13.7993 5.53417Z"/><path fill="#fff" d="M14.0288 12.5301C14.1695 12.3895 14.2484 12.1987 14.2484 11.9999C14.2484 11.801 14.1695 11.6103 14.0288 11.4696L12.8393 10.2801C12.4174 9.8583 11.8452 9.62134 11.2486 9.62134C10.652 9.62134 10.0798 9.8583 9.65785 10.2801L8.46835 11.4696C8.33173 11.6111 8.25613 11.8005 8.25784 11.9972C8.25955 12.1938 8.33843 12.3819 8.47748 12.521C8.61654 12.66 8.80465 12.7389 9.0013 12.7406C9.19794 12.7423 9.38739 12.6667 9.52885 12.5301L10.4986 11.5604V17.2499C10.4986 17.4488 10.5776 17.6395 10.7183 17.7802C10.8589 17.9208 11.0497 17.9999 11.2486 17.9999C11.4475 17.9999 11.6383 17.9208 11.7789 17.7802C11.9196 17.6395 11.9986 17.4488 11.9986 17.2499V11.5604L12.9683 12.5301C13.109 12.6707 13.2997 12.7497 13.4986 12.7497C13.6975 12.7497 13.8882 12.6707 14.0288 12.5301Z"/></g><defs><clipPath id="clip0_1396_4813"><rect width="18" height="18" fill="#fff"/></clipPath></defs></svg>