<svg xmlns="http://www.w3.org/2000/svg" width="16" height="16" fill="none" className="mr-2" viewBox="0 0 16 16"><path fill="#171A23" d="M8.00033 7.99984C6.99199 7.99984 6.1288 7.64081 5.41074 6.92275C4.69269 6.2047 4.33366 5.3415 4.33366 4.33317C4.33366 3.32484 4.69269 2.46164 5.41074 1.74359C6.1288 1.02553 6.99199 0.666504 8.00033 0.666504C9.00866 0.666504 9.87185 1.02553 10.5899 1.74359C11.308 2.46164 11.667 3.32484 11.667 4.33317C11.667 5.3415 11.308 6.2047 10.5899 6.92275C9.87185 7.64081 9.00866 7.99984 8.00033 7.99984ZM0.666992 15.3332V12.7665C0.666992 12.2471 0.800826 11.7695 1.06849 11.3338C1.33616 10.898 1.69121 10.5659 2.13366 10.3373C3.08088 9.86373 4.04338 9.50837 5.02116 9.27125C5.99894 9.03414 6.99199 8.91589 8.00033 8.9165C9.00866 8.9165 10.0017 9.03506 10.9795 9.27217C11.9573 9.50928 12.9198 9.86434 13.867 10.3373C14.31 10.5665 14.6654 10.8989 14.9331 11.3347C15.2007 11.7704 15.3343 12.2477 15.3337 12.7665V15.3332H0.666992ZM2.50033 13.4998H13.5003V12.7665C13.5003 12.5984 13.4582 12.4457 13.3738 12.3082C13.2895 12.1707 13.1789 12.0637 13.042 11.9873C12.217 11.5748 11.3844 11.2656 10.5441 11.0597C9.7038 10.8537 8.85588 10.7504 8.00033 10.7498C7.14477 10.7498 6.29685 10.8531 5.45658 11.0597C4.6163 11.2662 3.78366 11.5754 2.95866 11.9873C2.82116 12.0637 2.71024 12.1707 2.62591 12.3082C2.54158 12.4457 2.49971 12.5984 2.50033 12.7665V13.4998ZM8.00033 6.1665C8.50449 6.1665 8.93624 5.98684 9.29558 5.6275C9.65491 5.26817 9.83427 4.83673 9.83366 4.33317C9.83366 3.829 9.65399 3.39725 9.29466 3.03792C8.93533 2.67859 8.50388 2.49923 8.00033 2.49984C7.49616 2.49984 7.06441 2.6795 6.70508 3.03884C6.34574 3.39817 6.16638 3.82962 6.16699 4.33317C6.16699 4.83734 6.34666 5.26909 6.70599 5.62842C7.06533 5.98775 7.49677 6.16712 8.00033 6.1665Z"/></svg>