<svg width="749" height="545" viewBox="0 0 749 545" fill="none" xmlns="http://www.w3.org/2000/svg">
<g clip-path="url(#clip0_18_1692)">
<path opacity="0.06" d="M162.456 39.0156C80.1407 58.7137 14.6678 106.622 3.04903 196.296C-6.74262 271.829 3.35355 405.636 141.046 429.414C408.981 475.705 618.377 497.678 700.903 368.936C776.66 250.794 770.897 74.1674 620.813 41.7827C514.674 18.8719 338.846 -3.19472 162.456 39.0156Z" fill="url(#paint0_linear_18_1692)"/>
<path d="M374.5 545.469C556.644 545.469 704.3 529.521 704.3 509.848C704.3 490.175 556.644 474.227 374.5 474.227C192.356 474.227 44.6992 490.175 44.6992 509.848C44.6992 529.521 192.356 545.469 374.5 545.469Z" fill="url(#paint1_linear_18_1692)"/>
<path opacity="0.58" d="M128.092 422.261C128.092 422.261 107.877 416.821 103.402 398.014C103.402 398.014 134.675 391.542 135.705 423.809L128.092 422.261Z" fill="#F98D3D"/>
<path opacity="0.73" d="M130.554 420.222C130.554 420.222 116.358 397.944 128.68 377.003C128.68 377.003 152.55 392.034 142.102 420.222H130.554Z" fill="#F98D3D"/>
<path d="M134.205 420.222C134.205 420.222 141.561 396.607 164.072 392.082C164.072 392.082 168.359 407.371 149.595 420.222H134.205Z" fill="#F98D3D"/>
<path d="M128.837 419.776C123.944 419.776 120.198 424.128 120.926 428.966L122.735 440.989C123.324 444.904 126.687 447.799 130.646 447.799H142.532C146.548 447.799 149.941 444.822 150.464 440.84L152.042 428.817C152.67 424.026 148.941 419.776 144.11 419.776H128.837Z" fill="#24285B"/>
<path opacity="0.58" d="M128.092 422.261C128.092 422.261 107.877 416.821 103.402 398.014C103.402 398.014 134.675 391.542 135.705 423.809L128.092 422.261Z" fill="#F98D3D"/>
<path opacity="0.73" d="M130.554 420.222C130.554 420.222 116.358 397.944 128.68 377.003C128.68 377.003 152.55 392.034 142.102 420.222H130.554Z" fill="#F98D3D"/>
<path d="M134.205 420.222C134.205 420.222 141.561 396.607 164.072 392.082C164.072 392.082 168.359 407.371 149.595 420.222H134.205Z" fill="#F98D3D"/>
<path d="M128.44 419.776C123.548 419.776 119.801 424.128 120.529 428.966L122.338 440.989C122.927 444.904 126.291 447.799 130.249 447.799H142.135C146.151 447.799 149.545 444.821 150.067 440.84L151.645 428.817C152.274 424.026 148.545 419.776 143.713 419.776H128.44Z" fill="#141B30"/>
<path d="M98.218 503.188H186.594C194.3 503.188 200.547 496.941 200.547 489.235C200.547 481.529 194.3 475.282 186.594 475.282H98.218C90.5121 475.282 84.2652 481.529 84.2652 489.235C84.2652 496.941 90.5121 503.188 98.218 503.188Z" fill="#FDF0DF"/>
<path opacity="0.43" d="M123.609 475.892H211.985C219.691 475.892 225.938 469.645 225.938 461.939C225.938 454.233 219.691 447.986 211.985 447.986H123.609C115.903 447.986 109.656 454.233 109.656 461.939C109.656 469.645 115.903 475.892 123.609 475.892Z" fill="#ECC799"/>
<path d="M565.026 -0.474609H192.5C179.245 -0.474609 168.5 10.2705 168.5 23.5254V479.212C168.5 492.466 179.245 503.212 192.5 503.212H565.026C578.28 503.212 589.026 492.466 589.026 479.212V23.5254C589.026 10.2706 578.28 -0.474609 565.026 -0.474609Z" fill="#FCDEB7"/>
<path opacity="0.12" d="M438.755 19.1997H360.094V30.6903H438.755V19.1997Z" fill="black"/>
<path d="M331.61 39.0153C338.687 39.0153 344.424 33.2724 344.424 26.1881C344.424 19.1038 338.687 13.3608 331.61 13.3608C324.534 13.3608 318.797 19.1038 318.797 26.1881C318.797 33.2724 324.534 39.0153 331.61 39.0153Z" fill="white"/>
<path d="M550.352 58.9948H207.176V454.036H550.352V58.9948Z" fill="#FEE9D5"/>
<g opacity="0.12">
<path d="M289.397 335.59H242.078V418.674H289.397V335.59Z" fill="url(#paint2_linear_18_1692)"/>
<path d="M366.535 305.198H319.217V418.674H366.535V305.198Z" fill="url(#paint3_linear_18_1692)"/>
<path d="M443.674 256.516H396.355V418.674H443.674V256.516Z" fill="url(#paint4_linear_18_1692)"/>
<path d="M520.787 212.218H473.469V418.674H520.787V212.218Z" fill="url(#paint5_linear_18_1692)"/>
</g>
<path opacity="0.12" d="M378.763 493.785C387.082 493.785 393.826 487.034 393.826 478.706C393.826 470.379 387.082 463.628 378.763 463.628C370.445 463.628 363.701 470.379 363.701 478.706C363.701 487.034 370.445 493.785 378.763 493.785Z" fill="#5C2C08"/>
<path opacity="0.46" d="M353.253 230.791H286.094V242.117H353.253V230.791Z" fill="white"/>
<path opacity="0.46" d="M353.253 260.62H286.094V271.946H353.253V260.62Z" fill="white"/>
<path d="M265.175 230.791H245.357V242.117H265.175V230.791Z" fill="#F98D3D"/>
<path d="M265.175 260.62H245.357V271.946H265.175V260.62Z" fill="#F98D3D"/>
<path d="M437.232 141.75C437.263 156.781 431.526 171.249 421.205 182.166C410.885 193.083 396.771 199.614 381.778 200.412C366.785 201.21 352.058 196.212 340.641 186.452C329.223 176.691 321.986 162.914 320.425 147.965C318.864 133.016 323.098 118.038 332.252 106.124C341.407 94.2108 354.783 86.2724 369.616 83.9487C384.45 81.625 399.609 85.0935 411.961 93.6378C424.313 102.182 432.916 115.149 435.991 129.861C436.295 131.456 436.553 133.05 436.787 134.551C437.08 136.94 437.229 139.344 437.232 141.75Z" fill="url(#paint6_linear_18_1692)"/>
<path d="M378.764 83.2425V141.868L436.014 129.955C436.014 129.955 428.026 82.8673 378.764 83.2425Z" fill="url(#paint7_linear_18_1692)"/>
<path opacity="0.46" d="M437.231 141.751C437.185 152.32 434.286 162.679 428.84 171.733C423.395 180.788 415.606 188.2 406.297 193.186C396.989 198.172 386.507 200.546 375.961 200.058C365.415 199.569 355.197 196.236 346.389 190.41L378.879 141.751L436.106 129.838C436.411 131.433 436.669 133.028 436.903 134.528C437.158 136.927 437.267 139.339 437.231 141.751Z" fill="white"/>
<path opacity="0.08" d="M294.433 87.2524H168.5V196.296H294.433V87.2524Z" fill="black"/>
<path d="M259.095 75.1055H174.252C160.997 75.1055 150.252 85.8507 150.252 99.1055V160.149C150.252 173.404 160.997 184.149 174.252 184.149H259.095C272.35 184.149 283.095 173.404 283.095 160.149V99.1055C283.095 85.8506 272.35 75.1055 259.095 75.1055Z" fill="url(#paint8_linear_18_1692)"/>
<path d="M219.11 101.546C220.6 101.546 221.062 102.075 221.062 103.607V106.871C227.022 107.728 230.445 110.791 232.982 116.116C233.762 117.72 233.443 118.595 231.687 119.38L228.512 120.857C227.022 121.586 226.312 121.258 225.461 119.653C224.798 117.998 223.635 116.606 222.143 115.683C220.651 114.76 218.91 114.355 217.177 114.529C211.66 114.529 209.141 116.189 209.141 119.999C209.262 121.163 209.775 122.247 210.591 123.063C211.408 123.879 212.476 124.376 213.611 124.467C215.149 124.818 216.707 125.062 218.277 125.196C221.22 125.379 224.123 125.993 226.897 127.02C228.284 127.487 229.576 128.21 230.711 129.153C231.86 130.396 232.756 131.862 233.347 133.465C233.938 135.068 234.211 136.776 234.152 138.489C234.152 145.783 229.416 150.67 221.062 151.928V155.392C221.062 156.924 220.6 157.471 219.11 157.471H215.563C214.073 157.471 213.558 156.924 213.558 155.392V152.001C210.656 151.798 207.878 150.717 205.574 148.893C203.269 147.069 201.542 144.585 200.609 141.753C200.467 141.455 200.393 141.128 200.395 140.797C200.396 140.465 200.471 140.138 200.616 139.842C200.76 139.545 200.969 139.287 201.226 139.087C201.483 138.887 201.782 138.751 202.099 138.69L205.274 137.486C206.889 136.884 207.598 137.286 208.308 138.945C209.75 142.677 212.665 144.543 217.053 144.543C223.013 144.543 225.922 142.61 225.922 138.69C225.974 137.779 225.728 136.877 225.223 136.127C224.718 135.377 223.984 134.822 223.137 134.55C221.097 133.778 218.957 133.323 216.787 133.201C213.811 133.008 210.881 132.357 208.095 131.268C206.724 130.768 205.45 130.021 204.334 129.062C203.159 127.879 202.236 126.458 201.626 124.888C201.015 123.318 200.729 121.634 200.787 119.945C200.787 112.76 205.203 107.965 213.487 106.834V103.607C213.487 102.075 214.002 101.546 215.492 101.546H219.11Z" fill="white"/>
<path opacity="0.46" d="M520.814 91.5903H461.432V102.893H520.814V91.5903Z" fill="white"/>
<path opacity="0.46" d="M520.814 116.307H461.432V127.61H520.814V116.307Z" fill="white"/>
<path opacity="0.46" d="M520.814 141.024H461.432V152.327H520.814V141.024Z" fill="white"/>
<path opacity="0.46" d="M520.812 165.74H486.705V177.043H520.812V165.74Z" fill="white"/>
</g>
<path d="M546.723 170.124C546.723 170.124 567.23 268.443 595.828 286.145C618.706 300.302 628.927 273.206 591.478 207.16" stroke="#FDE3D0" stroke-width="1.5028" stroke-miterlimit="10"/>
<path d="M497.271 430.546L477.895 504.051L448.623 507.422L488.137 518.056L535.263 411.648L497.271 430.546Z" fill="#FCCDAA"/>
<path d="M504.447 481.217L535.262 411.648L497.27 430.546L486.396 471.779C492.399 474.975 498.423 478.107 504.447 481.217Z" fill="#FCCDAA"/>
<path d="M448.622 507.421L488.137 518.056L487.158 520.078L448.361 509.096L448.622 507.421Z" fill="#141B30"/>
<path d="M460.756 505.334L460.561 512.032L476.893 515.751L475.697 503.616L460.756 505.334Z" fill="#141B30"/>
<path d="M569.014 442.855L613.226 504.704L597.133 529.365L630.536 505.726L578.713 401.536L569.014 442.855Z" fill="#FCCDAA"/>
<path d="M612.595 469.669L578.713 401.536L569.014 442.855L593.805 477.542C600.09 474.954 606.353 472.322 612.595 469.669Z" fill="#FCCDAA"/>
<path d="M597.131 529.365L630.534 505.726L631.47 507.77L598.24 530.648L597.131 529.365Z" fill="#141B30"/>
<path d="M603.266 518.709L608.289 523.124L621.577 512.924L611.486 506.096L603.266 518.709Z" fill="#141B30"/>
<path d="M538.764 173.125C536.611 181.02 498.401 189.11 498.401 189.11C498.401 189.11 497.705 187.761 496.574 185.652C492.943 177.127 484.787 159.707 480.764 151.096C478.959 155.206 475.197 158.403 469.564 158.62C471.978 174.952 482.33 208.356 487.136 210.008C493.312 212.14 531.544 202.332 544.505 198.178C557.466 194.003 563.99 181.607 563.99 181.607C563.99 181.607 540.917 165.231 538.764 173.125Z" fill="#FCCDAA"/>
<path d="M627.273 225.405C621.749 234.952 607.94 266.138 605.091 271.444C606.896 270.444 611.18 260.831 613.725 260.831C617.074 260.831 619.683 261.897 621.641 263.528C633.188 251.959 654 223.165 652.413 218.272C650.39 212.053 619.575 187.413 608.44 179.584C597.306 171.734 583.475 173.974 583.475 173.974C583.475 173.974 584.301 202.266 591.891 199.244C599.502 196.199 628.948 221.861 628.948 221.861C628.948 221.861 628.274 223.209 627.273 225.405Z" fill="#FCCDAA"/>
<path d="M471.631 162.144C471.631 162.144 469.869 159.099 466.52 152.836L461.649 143.985C461.649 143.985 445.056 126.892 463.454 140.897C463.454 140.897 464.454 140.766 464.084 139.744C463.715 138.722 456.43 125.5 457.626 124.956C458.822 124.412 466.172 136.787 466.955 136.743C467.76 136.7 461.214 121.346 462.975 121.063C464.737 120.781 470.108 135.482 471.239 135.09C472.37 134.677 470.587 121.259 472.044 120.737C473.479 120.215 475.958 135.395 477.502 137.961C479.003 140.462 480.33 140.179 480.33 140.179C480.33 140.179 482.265 140.31 482.374 136.569C482.461 132.872 483.178 131.393 485.44 131.85C485.44 131.85 485.853 135.373 485.788 136.961C485.745 137.852 485.658 148.4 481.199 151.857L482.548 159.86L471.631 162.144Z" fill="#FCCDAA"/>
<path d="M520.256 301.608C520.256 301.608 538.219 415.802 583.866 472.562C583.866 472.562 609.028 472.409 612.442 457.208C601.699 413.649 569.687 280.557 569.687 280.557L520.256 301.608Z" fill="#1E2848"/>
<path d="M554.901 201.18C556.119 213.619 505.644 264.638 520.562 311.155L480.004 458.665C480.004 458.665 495.096 474.997 511.711 473.497C541.679 434.482 595.046 330.357 595.742 286.189C595.938 273.684 586.673 252.177 584.607 246.522C556.967 248.11 582.454 198.07 554.901 201.18Z" fill="#141B30"/>
<path d="M580.345 97.3148C580.345 97.3148 559.707 73.1321 539.243 99.3373C530.371 110.711 528.653 131.48 528.696 160.816C528.718 177.388 557.424 170.32 557.424 170.32C557.424 170.32 566.188 118.062 580.345 97.3148Z" fill="#C1724F"/>
<path d="M580.321 108.885C580.321 108.885 561.945 89.4646 545.069 109.407C537.74 118.062 536.805 134.22 537.588 157.098C538.045 170.038 560.944 170.929 560.944 170.929C560.944 170.929 568.686 124.717 580.321 108.885Z" fill="#935133"/>
<path d="M576.868 171.473L578.956 133.307L559.231 149.052L557.622 169.19L540.376 171.886C540.376 171.886 534.2 196.613 563.233 197.852C592.287 199.092 601.551 178.693 601.551 178.693L576.868 171.473Z" fill="#FCCDAA"/>
<path d="M559.487 166.885C565.381 166.341 571.296 165.884 577.189 165.493L578.951 133.307L559.226 149.052L557.812 166.906C558.378 166.885 558.943 166.885 559.487 166.885Z" fill="#FCCDAA"/>
<path d="M581.867 105.949C581.867 105.949 550.725 85.6585 541.265 117.583C531.74 149.812 557.271 175.518 584.346 148.247C593.154 139.396 600.917 108.254 581.867 105.949Z" fill="#FCCDAA"/>
<path d="M551.791 130.327C551.313 131.806 550.617 133.176 549.747 134.437C549.334 135.068 548.834 135.655 548.29 136.242C548.007 136.525 547.703 136.786 547.377 137.047C547.203 137.177 547.029 137.308 546.811 137.417C546.572 137.525 546.333 137.656 545.898 137.656L546.616 136.699C546.659 136.895 546.746 137.199 546.855 137.438C546.963 137.699 547.072 137.939 547.203 138.178C547.464 138.656 547.812 139.091 548.181 139.504C548.573 139.896 549.029 140.244 549.551 140.505C550.073 140.787 550.639 140.94 551.248 141.114C550.943 141.135 550.617 141.201 550.313 141.157C550.008 141.135 549.682 141.114 549.356 141.027C548.725 140.918 548.094 140.657 547.551 140.265C546.985 139.896 546.507 139.417 546.094 138.895C545.898 138.634 545.702 138.352 545.55 138.047C545.398 137.743 545.267 137.46 545.137 137.069L545.854 136.112C545.789 136.112 546.115 135.938 546.333 135.72C546.572 135.525 546.811 135.264 547.05 135.003C547.551 134.503 548.007 133.959 548.529 133.415C549.551 132.371 550.595 131.306 551.791 130.327Z" fill="#CF976E"/>
<path d="M551.008 145.399L565.991 145.138C565.991 145.116 554.531 153.489 551.008 145.399Z" fill="white"/>
<path d="M558.617 121.346C558.617 121.346 559.183 120.585 560.313 119.715C560.901 119.302 561.618 118.867 562.466 118.562C563.314 118.214 564.315 118.04 565.315 118.04C565.815 118.084 566.337 118.106 566.816 118.28C567.316 118.367 567.751 118.606 568.164 118.845C568.599 119.041 568.925 119.389 569.251 119.65C569.599 119.911 569.817 120.237 570.034 120.541C570.513 121.107 570.687 121.694 570.861 122.064C571.013 122.433 571.1 122.673 571.1 122.673C571.1 122.673 570.904 122.52 570.621 122.238C570.469 122.107 570.317 121.933 570.121 121.737C569.947 121.542 569.665 121.39 569.404 121.172C569.143 120.976 568.882 120.737 568.555 120.585C568.229 120.411 567.925 120.193 567.555 120.085C566.859 119.78 566.055 119.628 565.25 119.606C563.619 119.541 561.944 120.085 560.683 120.52C559.487 120.955 558.617 121.346 558.617 121.346Z" fill="#BC6040"/>
<path d="M541.525 119.368C541.525 119.368 541.895 118.607 542.809 117.693C543.265 117.236 543.852 116.758 544.57 116.367C544.94 116.171 545.309 115.975 545.744 115.845C546.158 115.692 546.636 115.649 547.093 115.562C547.571 115.584 548.05 115.54 548.506 115.692C548.985 115.758 549.398 115.975 549.789 116.193C550.203 116.367 550.485 116.715 550.768 116.975C551.072 117.236 551.246 117.563 551.42 117.845C551.812 118.389 551.899 118.933 552.029 119.281C552.138 119.629 552.182 119.846 552.182 119.846C552.182 119.846 552.008 119.716 551.747 119.455C551.507 119.194 551.159 118.824 550.681 118.498C550.463 118.324 550.246 118.106 549.963 117.976C549.681 117.824 549.441 117.65 549.137 117.563L548.702 117.389C548.55 117.367 548.376 117.345 548.224 117.323C547.919 117.215 547.571 117.302 547.245 117.28C546.897 117.345 546.571 117.323 546.223 117.454C545.875 117.541 545.549 117.628 545.222 117.758C544.57 117.976 543.939 118.259 543.396 118.498C542.287 118.976 541.525 119.368 541.525 119.368Z" fill="#BC6040"/>
<path d="M555.073 95.5327C555.073 95.5327 551.615 112.604 576.559 119.998C595.218 125.522 572.862 97.3377 555.073 95.5327Z" fill="#C1724F"/>
<path d="M547.025 170.429C547.025 170.429 544.481 186.609 560.682 186.914C576.884 187.197 585.365 169.386 585.365 169.386L597.913 173.931C597.913 173.931 594.369 179.02 593.934 185.196C593.586 190.024 593.76 194.895 595.891 201.637C594.434 220.513 592.585 242.434 591.694 244.304C590.084 247.653 552.288 253.069 522.799 234.844C522.799 234.844 523.799 209.183 538.544 171.778L547.025 170.429Z" fill="url(#paint9_linear_18_1692)"/>
<path d="M593.934 185.174C594.369 178.998 597.913 173.909 597.913 173.909L587.388 170.103C585.931 197.157 550.396 228.886 524.343 221.84C522.995 230.125 522.799 234.845 522.799 234.845C552.288 253.09 590.084 247.654 591.694 244.305C592.607 242.434 594.455 220.513 595.891 201.637C593.76 194.873 593.586 190.024 593.934 185.174Z" fill="url(#paint10_linear_18_1692)"/>
<path d="M555.963 97.9026C555.963 97.9026 581.864 105.949 576.731 135.155C572.643 158.468 569.881 165.862 573.317 176.932C573.317 176.932 595.108 176.149 596.369 169.429C598.826 156.25 596.217 151.422 598.174 126.478C599.87 104.927 593.738 94.3143 585.669 89.5082C577.58 84.6804 557.79 85.5285 555.963 97.9026Z" fill="#C1724F"/>
<path d="M561.557 130.807C561.557 130.807 561.513 129.959 561.839 128.719C561.905 128.415 562.035 128.088 562.187 127.741C562.361 127.393 562.492 127.023 562.796 126.675C563.035 126.327 563.383 125.957 563.862 125.675C564.362 125.392 565.036 125.327 565.623 125.479C565.884 125.588 566.145 125.718 566.384 125.848L566.928 126.349C567.32 126.653 567.472 127.066 567.711 127.414C568.168 128.11 568.363 128.828 568.581 129.415C568.885 130.655 568.951 131.481 568.951 131.481C568.951 131.481 568.385 130.829 567.733 129.828C567.341 129.372 566.993 128.763 566.537 128.241C566.297 128.001 566.08 127.675 565.841 127.501L565.493 127.197C565.362 127.153 565.254 127.11 565.167 127.066C564.971 127.001 564.797 127.001 564.579 127.11C564.362 127.219 564.101 127.371 563.884 127.632C563.427 128.088 563.035 128.654 562.688 129.132C562.013 130.089 561.557 130.807 561.557 130.807Z" fill="#1E1B1B"/>
<path d="M544.139 128.632C544.139 128.632 544.095 127.783 544.421 126.544C544.487 126.239 544.617 125.913 544.769 125.565C544.943 125.239 545.074 124.848 545.378 124.5C545.617 124.152 545.965 123.782 546.444 123.499C546.944 123.216 547.618 123.151 548.205 123.303C548.466 123.412 548.727 123.543 548.967 123.673L549.51 124.173C549.902 124.478 550.054 124.891 550.293 125.239C550.75 125.935 550.945 126.653 551.163 127.24C551.467 128.479 551.533 129.306 551.533 129.306C551.533 129.306 550.967 128.653 550.315 127.653C549.923 127.196 549.575 126.587 549.119 126.065C548.879 125.826 548.662 125.5 548.423 125.326L548.075 125.022C547.944 124.978 547.836 124.935 547.749 124.891C547.553 124.826 547.379 124.826 547.162 124.935C546.944 125.043 546.683 125.195 546.466 125.456C546.009 125.913 545.617 126.479 545.27 126.957C544.595 127.892 544.139 128.632 544.139 128.632Z" fill="#1E1B1B"/>
<path d="M546.723 170.124C553.203 199.657 561.641 229.015 575.146 256.308C579.887 265.899 585.432 276.837 595.001 282.731C604.613 288.646 614.987 286.645 616.096 274.532" stroke="#FDE3D0" stroke-width="1.482" stroke-miterlimit="10"/>
<path d="M584.365 271.423C584.365 271.423 607.786 262.158 613.767 263.246C619.769 264.333 625.206 298.106 602.871 301.912C580.537 305.718 584.365 271.423 584.365 271.423Z" fill="url(#paint11_linear_18_1692)"/>
<path d="M614.593 253.763C612.484 257.46 611.527 259.352 610.526 261.875C604.394 258.004 598.239 267.964 597.978 270.074C597.717 272.27 604.242 267.073 604.242 267.073C602.197 270.161 600.762 273.684 600.762 273.684C609.656 283.1 612.962 275.402 614.941 272.857C615.202 272.509 622.422 261.505 627.794 255.503C624.205 253.024 618.138 256.329 614.593 253.763Z" fill="#FCCDAA"/>
<path d="M605.074 264.355C605.074 264.355 588.459 289.69 602.073 273.88C602.073 273.88 590.916 291.865 603.986 276.055C603.986 276.055 596.636 292.126 607.531 276.881C607.531 276.881 599.898 294.04 614.773 272.815L605.074 264.355Z" fill="#FCCDAA"/>
<defs>
<linearGradient id="paint0_linear_18_1692" x1="524.675" y1="677.878" x2="129.531" y2="447.218" gradientUnits="userSpaceOnUse">
<stop stop-color="#F98D3D"/>
<stop offset="1" stop-color="#F9AE3D"/>
</linearGradient>
<linearGradient id="paint1_linear_18_1692" x1="506.876" y1="579.034" x2="466.569" y2="447.896" gradientUnits="userSpaceOnUse">
<stop stop-color="#F98D3D"/>
<stop offset="1" stop-color="#F9AE3D"/>
</linearGradient>
<linearGradient id="paint2_linear_18_1692" x1="275.234" y1="457.819" x2="243.025" y2="451.373" gradientUnits="userSpaceOnUse">
<stop stop-color="#F98D3D"/>
<stop offset="1" stop-color="#F9AE3D"/>
</linearGradient>
<linearGradient id="paint3_linear_18_1692" x1="352.373" y1="472.138" x2="319.578" y2="467.333" gradientUnits="userSpaceOnUse">
<stop stop-color="#F98D3D"/>
<stop offset="1" stop-color="#F9AE3D"/>
</linearGradient>
<linearGradient id="paint4_linear_18_1692" x1="429.511" y1="495.075" x2="396.361" y2="491.676" gradientUnits="userSpaceOnUse">
<stop stop-color="#F98D3D"/>
<stop offset="1" stop-color="#F9AE3D"/>
</linearGradient>
<linearGradient id="paint5_linear_18_1692" x1="506.624" y1="515.946" x2="473.342" y2="513.265" gradientUnits="userSpaceOnUse">
<stop stop-color="#F98D3D"/>
<stop offset="1" stop-color="#F9AE3D"/>
</linearGradient>
<linearGradient id="paint6_linear_18_1692" x1="402.176" y1="255.738" x2="328.354" y2="229.825" gradientUnits="userSpaceOnUse">
<stop stop-color="#F98D3D"/>
<stop offset="1" stop-color="#F9AE3D"/>
</linearGradient>
<linearGradient id="paint7_linear_18_1692" x1="353.924" y1="97.3254" x2="362.716" y2="73.4321" gradientUnits="userSpaceOnUse">
<stop stop-color="#F98D3D"/>
<stop offset="1" stop-color="#F9AE3D"/>
</linearGradient>
<linearGradient id="paint8_linear_18_1692" x1="243.334" y1="235.525" x2="163.855" y2="201.501" gradientUnits="userSpaceOnUse">
<stop stop-color="#F98D3D"/>
<stop offset="1" stop-color="#F9AE3D"/>
</linearGradient>
<linearGradient id="paint9_linear_18_1692" x1="527.437" y1="214.907" x2="514.848" y2="192.298" gradientUnits="userSpaceOnUse">
<stop stop-color="#F98D3D"/>
<stop offset="1" stop-color="#F9AE3D"/>
</linearGradient>
<linearGradient id="paint10_linear_18_1692" x1="575.431" y1="284.327" x2="527.763" y2="268.122" gradientUnits="userSpaceOnUse">
<stop stop-color="#F98D3D"/>
<stop offset="1" stop-color="#F9AE3D"/>
</linearGradient>
<linearGradient id="paint11_linear_18_1692" x1="608.592" y1="320.605" x2="586.086" y2="313.531" gradientUnits="userSpaceOnUse">
<stop stop-color="#F98D3D"/>
<stop offset="1" stop-color="#F9AE3D"/>
</linearGradient>
<clipPath id="clip0_18_1692">
<rect width="749" height="545" fill="white"/>
</clipPath>
</defs>
</svg>
