<svg xmlns="http://www.w3.org/2000/svg" width="86" height="86" fill="none" viewBox="0 0 86 86"><g clip-path="url(#clip0_908_3383)" filter="url(#filter0_d_908_3383)"><path fill="#E6F0F2" d="M61.6203 31.3807V52.3941C61.6203 53.1109 61.0385 53.6927 60.3217 53.6927H51.1335C50.6488 55.1982 49.2349 56.2899 47.5701 56.2899H38.433C36.7682 56.2899 35.3545 55.1982 34.8696 53.6927H25.6814C24.9646 53.6927 24.3828 53.1109 24.3828 52.3941V31.3807C24.3828 30.6638 24.9646 30.082 25.6814 30.082H60.3217C61.0385 30.082 61.6203 30.6637 61.6203 31.3807Z"/><path fill="#CEDEE6" d="M61.6188 31.3807V52.3941C61.6188 53.1109 61.0369 53.6927 60.3201 53.6927H51.132C50.6472 55.1982 49.2333 56.2899 47.5685 56.2899H43V30.082H60.3201C61.0369 30.082 61.6188 30.6637 61.6188 31.3807Z"/><path fill="url(#paint0_linear_908_3383)" d="M61.7534 28.9941H24.2422C23.4659 28.9941 22.8359 29.6241 22.8359 30.4004V53.1554C22.8359 53.9316 23.4659 54.5616 24.2422 54.5616H34.1919C34.7169 56.192 36.2478 57.3741 38.0506 57.3741H47.945C49.7478 57.3741 51.2787 56.192 51.8037 54.5616H61.7534C62.5297 54.5616 63.1597 53.9316 63.1597 53.1554V30.4004C63.1597 29.6241 62.5297 28.9941 61.7534 28.9941ZM60.3472 51.7491H51.8037C50.5822 51.7491 49.5012 52.5376 49.1262 53.6991C48.9631 54.2073 48.4775 54.5616 47.945 54.5616H38.0506C37.5181 54.5616 37.0325 54.2073 36.8694 53.6991C36.4944 52.5376 35.4134 51.7491 34.1919 51.7491H25.6484V31.8066H60.3472V51.7491Z"/><path fill="url(#paint1_linear_908_3383)" d="M63.1619 30.4004V53.1554C63.1619 53.9316 62.5319 54.5616 61.7556 54.5616H51.8059C51.2809 56.192 49.75 57.3741 47.9472 57.3741H43V54.5616H47.9472C48.4797 54.5616 48.9653 54.2073 49.1284 53.6991C49.5034 52.5376 50.5844 51.7491 51.8059 51.7491H60.3494V31.8066H43V28.9941H61.7556C62.5319 28.9941 63.1619 29.6241 63.1619 30.4004Z"/><path fill="#FFE8C8" d="M55.3185 28.4052C55.3185 31.8391 53.8695 35.1419 51.3419 37.468C49.0633 39.5665 46.1015 40.7226 43.001 40.7226C39.9005 40.7226 36.9389 39.5665 34.6602 37.468C32.1326 35.142 30.6836 31.8391 30.6836 28.4052C30.6836 26.5117 31.1023 24.6949 31.9276 23.0064C33.187 20.4263 35.3218 18.3544 37.9381 17.1733C39.5335 16.4531 41.2367 16.0879 43.0009 16.0879C49.793 16.0879 55.3185 21.6133 55.3185 28.4052Z"/><path fill="url(#paint2_linear_908_3383)" d="M67 53.1562V56.7122C67 60.1791 64.1791 63 60.7122 63H25.2878C21.8209 63 19 60.1791 19 56.7122V53.1562C19 52.38 19.63 51.75 20.4062 51.75H35.4062C36.1825 51.75 36.8125 52.38 36.8125 53.1562V53.3222C36.8125 54.0056 37.3694 54.5625 38.0528 54.5625H47.9472C48.6306 54.5625 49.1875 54.0056 49.1875 53.3222V53.1562C49.1875 52.38 49.8175 51.75 50.5938 51.75H65.5938C66.37 51.75 67 52.38 67 53.1562Z"/><path fill="#FFE8C8" d="M51.3408 37.468C49.0622 39.5665 46.1005 40.7226 43 40.7226V16.0879C49.7919 16.0879 55.3173 21.6134 55.3173 28.4052C55.3173 31.839 53.8683 35.1419 51.3408 37.468Z"/><path fill="url(#paint3_linear_908_3383)" d="M67 53.1562V56.7122C67 60.1791 64.1791 63 60.7122 63H43V54.5625H47.9472C48.6306 54.5625 49.1875 54.0056 49.1875 53.3222V53.1562C49.1875 52.38 49.8175 51.75 50.5938 51.75H65.5938C66.37 51.75 67 52.38 67 53.1562Z"/><path fill="url(#paint4_linear_908_3383)" d="M44.4044 22.0312V28.4044C44.4044 28.7775 44.2562 29.1356 43.9928 29.3991C42.7296 30.6623 43.401 29.9911 40.7481 32.6428C40.1987 33.1923 39.3102 33.1933 38.7597 32.6428C38.2103 32.0934 38.2103 31.2037 38.7597 30.6544L41.5919 27.8222V22.0312C41.5919 21.255 42.2219 20.625 42.9981 20.625C43.7744 20.625 44.4044 21.255 44.4044 22.0312Z"/><path fill="url(#paint5_linear_908_3383)" d="M44.4062 22.0312V28.4044C44.4062 28.7775 44.2581 29.1356 43.9947 29.3991L43 30.3937V20.625C43.7763 20.625 44.4062 21.255 44.4062 22.0312Z"/><path fill="url(#paint6_linear_908_3383)" d="M42.9981 38.9963C37.1556 38.9963 32.4063 34.2562 32.4063 28.4044C32.4063 22.5412 37.1594 17.8125 42.9981 17.8125L44.3816 16.5494L42.9981 15C35.6284 15 29.5938 20.9672 29.5938 28.4044C29.5938 35.7787 35.5731 41.8088 42.9981 41.8088C42.9981 41.8088 43.9268 40.3219 44.3816 40.2752L42.9981 38.9963Z"/><path fill="url(#paint7_linear_908_3383)" d="M56.4044 28.4044C56.4044 35.8069 50.3987 41.8088 43 41.8088V38.9963C48.8594 38.9963 53.5919 34.2384 53.5919 28.4044C53.5919 22.5637 48.8406 17.8125 43 17.8125V15C50.3912 15 56.4044 21.0131 56.4044 28.4044Z"/></g><defs><filter id="filter0_d_908_3383" width="86" height="86" x="0" y="0" color-interpolation-filters="sRGB" filterUnits="userSpaceOnUse"><feFlood flood-opacity="0" result="BackgroundImageFix"/><feColorMatrix in="SourceAlpha" result="hardAlpha" type="matrix" values="0 0 0 0 0 0 0 0 0 0 0 0 0 0 0 0 0 0 127 0"/><feOffset dy="4"/><feGaussianBlur stdDeviation="9.5"/><feComposite in2="hardAlpha" operator="out"/><feColorMatrix type="matrix" values="0 0 0 0 0.2204 0 0 0 0 0.371488 0 0 0 0 0.76 0 0 0 0.15 0"/><feBlend in2="BackgroundImageFix" mode="normal" result="effect1_dropShadow_908_3383"/><feBlend in="SourceGraphic" in2="effect1_dropShadow_908_3383" mode="normal" result="shape"/></filter><linearGradient id="paint0_linear_908_3383" x1="32.719" x2="56.142" y1="43.184" y2="43.205" gradientUnits="userSpaceOnUse"><stop stop-color="#2F66F4"/><stop offset="1" stop-color="#0D9AE9"/></linearGradient><linearGradient id="paint1_linear_908_3383" x1="47.942" x2="59.653" y1="43.184" y2="43.189" gradientUnits="userSpaceOnUse"><stop stop-color="#2F66F4"/><stop offset="1" stop-color="#0D9AE9"/></linearGradient><linearGradient id="paint2_linear_908_3383" x1="30.765" x2="58.647" y1="57.375" y2="57.448" gradientUnits="userSpaceOnUse"><stop stop-color="#2F66F4"/><stop offset="1" stop-color="#0D9AE9"/></linearGradient><linearGradient id="paint3_linear_908_3383" x1="48.882" x2="62.824" y1="57.375" y2="57.393" gradientUnits="userSpaceOnUse"><stop stop-color="#2F66F4"/><stop offset="1" stop-color="#0D9AE9"/></linearGradient><linearGradient id="paint4_linear_908_3383" x1="42.592" x2="38.426" y1="38.912" y2="38.199" gradientUnits="userSpaceOnUse"><stop stop-color="#F98D3D"/><stop offset="1" stop-color="#F9AE3D"/></linearGradient><linearGradient id="paint5_linear_908_3383" x1="39" x2="37.839" y1="37" y2="36.67" gradientUnits="userSpaceOnUse"><stop stop-color="#F98D3D"/><stop offset="1" stop-color="#F9AE3D"/></linearGradient><linearGradient id="paint6_linear_908_3383" x1="39.956" x2="29.866" y1="54.44" y2="52.484" gradientUnits="userSpaceOnUse"><stop stop-color="#F98D3D"/><stop offset="1" stop-color="#F9AE3D"/></linearGradient><linearGradient id="paint7_linear_908_3383" x1="52.392" x2="43.187" y1="54.44" y2="52.822" gradientUnits="userSpaceOnUse"><stop stop-color="#F98D3D"/><stop offset="1" stop-color="#F9AE3D"/></linearGradient><clipPath id="clip0_908_3383"><rect width="48" height="48" fill="#fff" transform="translate(19 15)"/></clipPath></defs></svg>