<svg xmlns="http://www.w3.org/2000/svg" width="124" height="103" fill="none" viewBox="0 0 124 103"><g clip-path="url(#clip0_2250_4820)"><path fill="#E6E6E6" d="M63.0015 101.083C96.8254 101.083 124.245 98.1281 124.245 94.4828C124.245 90.8374 96.8254 87.8823 63.0015 87.8823C29.1775 87.8823 1.75781 90.8374 1.75781 94.4828C1.75781 98.1281 29.1775 101.083 63.0015 101.083Z" opacity=".45"/><path fill="#F98D3D" d="M17.2411 78.2529C17.2411 78.2529 13.4871 77.2448 12.6562 73.7599C12.6562 73.7599 18.4635 72.5606 18.6549 78.5397L17.2411 78.2529Z" opacity=".58"/><path fill="#F98D3D" d="M17.6999 77.875C17.6999 77.875 15.0638 73.747 17.3519 69.8667C17.3519 69.8667 21.7846 72.652 19.8445 77.875H17.6999Z" opacity=".73"/><path fill="#F98D3D" d="M18.3789 77.875C18.3789 77.875 19.7448 73.4993 23.9252 72.6606C23.9252 72.6606 24.7212 75.4938 21.2369 77.875H18.3789Z"/><path fill="#24285B" d="M15.6562 77.7925L16.4392 82.9851H21.2286L21.9115 77.7925H15.6562Z"/><path fill="#F98D3D" d="M17.2411 78.2529C17.2411 78.2529 13.4871 77.2448 12.6562 73.7599C12.6562 73.7599 18.4635 72.5606 18.6549 78.5397L17.2411 78.2529Z" opacity=".58"/><path fill="#F98D3D" d="M17.6999 77.875C17.6999 77.875 15.0638 73.747 17.3519 69.8667C17.3519 69.8667 21.7846 72.652 19.8445 77.875H17.6999Z" opacity=".73"/><path fill="#F98D3D" d="M18.3789 77.875C18.3789 77.875 19.7448 73.4993 23.9252 72.6606C23.9252 72.6606 24.7212 75.4938 21.2369 77.875H18.3789Z"/><path fill="#24285B" d="M15.6562 77.7925L16.4392 82.9851H21.2286L21.9115 77.7925H15.6562Z"/><path fill="#CCC" d="M9.10191 93.2485H30.6953V88.0777H9.10191V93.2485Z"/><path fill="#E6E6E6" d="M13.8207 88.1909H35.4141V83.0201H13.8207V88.1909Z" opacity=".43"/><path fill="#E6E6E6" d="M102.837 -0.0786133H24.7461V93.2533H102.837V-0.0786133Z"/><path fill="#000" d="M74.9315 3.56689H60.3242V5.69607H74.9315V3.56689Z" opacity=".12"/><path fill="#fff" d="M55.0357 7.23858C56.3498 7.23858 57.4152 6.17442 57.4152 4.86172C57.4152 3.54902 56.3498 2.48486 55.0357 2.48486C53.7216 2.48486 52.6562 3.54902 52.6562 4.86172C52.6562 6.17442 53.7216 7.23858 55.0357 7.23858Z"/><path fill="#000" d="M95.6572 10.9409H31.9297V84.1412H95.6572V10.9409Z" opacity=".08"/><g opacity=".12"><path fill="#000" d="M47.1972 62.1929H38.4102V77.5881H47.1972V62.1929Z"/><path fill="#000" d="M61.5214 56.5615H52.7344V77.5882H61.5214V56.5615Z"/><path fill="#000" d="M75.8456 47.5405H67.0586V77.588H75.8456V47.5405Z"/><path fill="#000" d="M90.1659 39.3325H81.3789V77.5882H90.1659V39.3325Z"/></g><path fill="#000" d="M63.7931 91.5065C65.3379 91.5065 66.5902 90.2555 66.5902 88.7125C66.5902 87.1694 65.3379 85.9185 63.7931 85.9185C62.2484 85.9185 60.9961 87.1694 60.9961 88.7125C60.9961 90.2555 62.2484 91.5065 63.7931 91.5065Z" opacity=".12"/><path fill="#000" d="M77.7893 62.2754C77.7893 62.2754 66.7273 64.7522 62.3816 72.4346C58.036 80.117 75.8666 93.3744 75.8666 93.3744L88.1989 93.4179L91.0438 80.5429L84.6145 71.3831L77.7893 62.2754Z" opacity=".08"/><path fill="url(#paint0_linear_2250_4820)" d="M100.35 60.9285C100.35 60.9285 114.801 59.399 114.27 67.038C113.739 74.6769 105.622 90.9369 105.622 90.9369H87.8569C87.8569 90.9369 74.3719 70.2969 80.9404 63.6574C87.5089 57.0178 88.9879 62.7144 100.35 60.9285Z"/><path fill="#141B30" d="M105.635 93.4182L94.8294 96.3296L85.2463 91.4672L83.7891 88.8774H93.4504H108.823L105.635 93.4182Z"/><path fill="#F98D3D" d="M107.316 69.1844C105.963 64.6609 108.521 59.7204 113.358 63.34C116.673 65.8211 120.61 73.7295 120.81 81.0513C121.28 97.8761 100.617 79.7738 98.0508 70.136L100.596 68.6369C100.596 68.6369 104.876 76.7103 109.548 78.4571C112.915 79.726 109.317 75.8717 107.316 69.1844Z"/><path fill="url(#paint1_linear_2250_4820)" d="M107.316 69.1844C105.963 64.6609 108.521 59.7204 113.358 63.34C116.673 65.8211 120.61 73.7295 120.81 81.0513C121.28 97.8761 100.617 79.7738 98.0508 70.136L100.596 68.6369C100.596 68.6369 104.876 76.7103 109.548 78.4571C112.915 79.726 109.317 75.8717 107.316 69.1844Z"/><path fill="#FCCDAA" d="M99.8391 61.0242C99.7386 61.6675 99.6747 62.3159 99.6477 62.9665C99.6173 63.8616 99.3302 65.1869 97.9077 65.4476C95.7327 65.8517 95.1498 62.4059 95.1498 62.4059C95.1498 62.4059 93.7796 59.1818 96.1373 58.7429C98.2731 58.3518 100.274 58.065 99.8391 61.0242Z"/><path fill="#000" d="M91.4473 65.8734C91.4473 65.8734 92.8002 68.7065 89.3854 74.5118C87.4323 77.8359 93.4483 83.3804 93.4483 83.3804L108.421 84.8796L105.628 90.9325H87.8542C87.8542 90.9325 80.0547 78.2617 79.4544 71.7395C78.8541 65.2173 91.4473 65.8734 91.4473 65.8734Z" opacity=".08"/><path fill="#FCCDAA" d="M95.3023 62.5537C95.3023 62.5537 95.1761 61.5065 94.2626 61.5543C93.3491 61.6021 93.7102 63.5358 95.3023 62.5537Z"/><path fill="#FCCDAA" d="M99.3121 61.9716C99.3121 61.9716 98.9946 60.9679 99.8428 60.6333C100.691 60.2987 101.174 62.2323 99.3121 61.9716Z"/><path fill="url(#paint2_linear_2250_4820)" d="M104.928 87.9562L106.181 76.5586H87.0195L88.9292 88.5385L88.6551 90.0767L105.133 90.2071L104.928 87.9562Z"/><path fill="url(#paint3_linear_2250_4820)" d="M97.2155 93.418C97.2155 93.418 93.5789 94.6868 94.8274 96.3293C96.0758 97.9718 98.0507 95.243 98.0507 95.243L97.2155 93.418Z"/><path fill="#000" d="M87.0195 76.5718L90.8388 81.5688C93.0564 84.4927 96.0512 86.7359 99.4823 88.0433L105.137 90.2159L89.9427 90.0942H88.6595L88.9335 88.556L87.0195 76.5718Z" opacity=".08"/><path fill="#141B30" d="M99.8872 60.894C100.081 60.9729 100.29 61.0042 100.499 60.9853C100.707 60.9664 100.907 60.8978 101.083 60.7854C101.253 60.6021 101.346 60.3613 101.344 60.1118C101.466 58.9082 101.214 57.1831 100.444 56.2011C99.674 55.2191 97.9471 55.2973 96.8509 55.4624C96.2852 55.525 95.7363 55.693 95.2327 55.9578C94.6584 56.3285 94.2049 56.8586 93.9277 57.483C93.2317 58.9517 93.1316 61.3068 94.976 61.8282C97.6513 62.58 99.0389 59.6556 99.0389 59.6556C99.2087 60.0623 99.4358 60.4427 99.7132 60.7854C99.765 60.8306 99.8237 60.8673 99.8872 60.894Z"/><path fill="#141B30" d="M97.1055 92.7836C97.1055 92.7836 111.804 85.2881 113.057 89.2727C114.31 93.2573 104.179 95.5776 97.6405 95.8166L97.1055 92.7836Z"/><path fill="#fff" d="M96.4134 84.3364C97.3191 84.3364 98.0533 83.603 98.0533 82.6982C98.0533 81.7935 97.3191 81.0601 96.4134 81.0601C95.5077 81.0601 94.7734 81.7935 94.7734 82.6982C94.7734 83.603 95.5077 84.3364 96.4134 84.3364Z"/><path fill="#141B30" d="M93.5339 93.3704C93.5339 93.3704 81.815 81.7686 79.4094 85.1883C77.0039 88.608 85.9344 93.8788 92.1027 96.0992L93.5339 93.3704Z"/><path fill="url(#paint4_linear_2250_4820)" d="M93.076 94.2437C93.076 94.2437 96.556 97.3331 94.5376 98.2456C92.5192 99.1581 92.1016 96.0991 92.1016 96.0991L93.076 94.2437Z"/><path fill="#F98D3D" d="M91.4481 65.8737C91.5784 64.57 91.1874 63.2678 90.3602 62.2511C89.5331 61.2344 88.337 60.5856 87.0329 60.4464C84.3837 60.164 80.8994 60.3378 77.8022 62.2758C71.7948 66.0388 65.148 69.0413 66.788 75.8591C68.4279 82.6768 80.3513 85.5403 80.3513 85.5403L81.939 82.9331C81.939 82.9331 71.4294 79.3874 73.3434 73.8429C75.066 68.8588 90.3171 77.2104 91.4481 65.8737Z"/><path fill="url(#paint5_linear_2250_4820)" d="M91.4481 65.8737C91.5784 64.57 91.1874 63.2678 90.3602 62.2511C89.5331 61.2344 88.337 60.5856 87.0329 60.4464C84.3837 60.164 80.8994 60.3378 77.8022 62.2758C71.7948 66.0388 65.148 69.0413 66.788 75.8591C68.4279 82.6768 80.3513 85.5403 80.3513 85.5403L81.939 82.9331C81.939 82.9331 71.4294 79.3874 73.3434 73.8429C75.066 68.8588 90.3171 77.2104 91.4481 65.8737Z"/><path fill="#FCCDAA" d="M81.6774 83.3804C81.6774 83.3804 84.9921 85.6225 83.7872 86.2396C82.5822 86.8566 80.5508 85.2141 80.5508 85.2141L81.6774 83.3804Z"/><path fill="#141B30" d="M98.4653 62.8318C98.4044 62.5109 98.2543 62.2136 98.0322 61.974C97.81 61.7344 97.5247 61.5621 97.209 61.477C96.8933 61.3919 96.5601 61.3974 96.2474 61.4928C95.9347 61.5882 95.6552 61.7697 95.441 62.0164C95.2268 62.2632 95.0865 62.5653 95.0363 62.888C94.986 63.2107 95.0278 63.541 95.1569 63.8411C95.286 64.1412 95.497 64.3989 95.766 64.5847C96.0349 64.7704 96.3508 64.8768 96.6774 64.8914L97.4343 68.85L98.2173 68.7022L97.4604 64.7437C97.8192 64.5849 98.1137 64.3096 98.2961 63.9625C98.4785 63.6155 98.5381 63.217 98.4653 62.8318ZM96.9341 64.1354C96.7448 64.1715 96.549 64.1507 96.3715 64.0757C96.194 64.0007 96.0428 63.8748 95.9369 63.7139C95.8311 63.553 95.7754 63.3644 95.7769 63.1718C95.7783 62.9793 95.8369 62.7916 95.9452 62.6323C96.0535 62.4731 96.2067 62.3495 96.3853 62.2772C96.5639 62.2049 96.76 62.1872 96.9487 62.2262C97.1375 62.2652 97.3104 62.3593 97.4456 62.4965C97.5808 62.6336 97.6722 62.8078 97.7084 62.9969C97.7492 63.2476 97.6908 63.5044 97.5455 63.7128C97.4001 63.9213 97.1793 64.065 96.9297 64.1136L96.9341 64.1354Z"/><path fill="#FCCDAA" d="M100.149 68.9109C100.149 68.9109 98.9619 65.9996 97.335 66.2386C95.7081 66.4775 98.2355 70.0537 98.2355 70.0537L100.149 68.9109Z"/><path fill="#fff" d="M59.0535 42.7739H46.582V44.8727H59.0535V42.7739Z" opacity=".46"/><path fill="#fff" d="M59.0535 48.3013H46.582V50.4H59.0535V48.3013Z" opacity=".46"/><path fill="#F98D3D" d="M42.6996 42.7739H39.0195V44.8727H42.6996V42.7739Z"/><path fill="#FFD200" d="M42.6996 48.3013H39.0195V50.4H42.6996V48.3013Z"/><path fill="url(#paint6_linear_2250_4820)" d="M74.6484 26.2752C74.6541 29.0603 73.5887 31.7412 71.6722 33.7641C69.7558 35.787 67.1348 36.9973 64.3506 37.1451C61.5664 37.2929 58.8317 36.3669 56.7114 34.5583C54.5912 32.7497 53.2473 30.1967 52.9574 27.4267C52.6675 24.6567 53.4538 21.8813 55.1538 19.6738C56.8537 17.4663 59.3376 15.9953 62.0922 15.5647C64.8468 15.1341 67.6617 15.7769 69.9556 17.3601C72.2494 18.9433 73.8468 21.3461 74.4179 24.0722C74.4744 24.3677 74.5223 24.6631 74.5658 24.9412C74.6202 25.3838 74.6478 25.8293 74.6484 26.2752Z"/><path fill="url(#paint7_linear_2250_4820)" d="M63.793 15.4335V26.2967L74.4244 24.0893C74.4244 24.0893 72.941 15.364 63.793 15.4335Z"/><path fill="#fff" d="M74.6505 26.2753C74.642 28.2336 74.1036 30.1532 73.0924 31.8309C72.0812 33.5087 70.6348 34.8821 68.9063 35.806C67.1777 36.73 65.2312 37.1699 63.2728 37.0794C61.3145 36.9888 59.417 36.3711 57.7812 35.2917L63.8147 26.2753L74.4417 24.0679C74.4983 24.3633 74.5461 24.6588 74.5896 24.9369C74.637 25.3814 74.6573 25.8283 74.6505 26.2753Z" opacity=".46"/><path fill="#000" d="M48.1317 16.1768H24.7461V36.3822H48.1317V16.1768Z" opacity=".08"/><path fill="#141B30" d="M46.0243 13.9258H21.3555V34.1312H46.0243V13.9258Z"/><path fill="#fff" d="M34.2069 17.3198C34.5723 17.3198 34.6854 17.4458 34.6854 17.8108V18.5886C36.147 18.7929 36.9865 19.5229 37.6086 20.7917C37.8 21.1741 37.7217 21.3826 37.291 21.5695L36.5124 21.9215C36.147 22.0953 35.973 22.0171 35.7642 21.6347C35.6017 21.2402 35.3165 20.9085 34.9506 20.6886C34.5847 20.4686 34.1577 20.3723 33.7327 20.4137C32.3799 20.4137 31.7622 20.8091 31.7622 21.7172C31.7918 21.9946 31.9176 22.2529 32.1178 22.4473C32.318 22.6417 32.58 22.7601 32.8584 22.7818C33.2354 22.8655 33.6176 22.9236 34.0024 22.9556C34.7242 22.9993 35.4361 23.1456 36.1165 23.3902C36.4565 23.5016 36.7734 23.6739 37.0518 23.8986C37.3335 24.1947 37.5532 24.544 37.6981 24.926C37.843 25.308 37.9102 25.7151 37.8957 26.1233C37.8957 27.8614 36.7342 29.026 34.6854 29.3258V30.1514C34.6854 30.5164 34.5723 30.6467 34.2069 30.6467H33.3369C32.9715 30.6467 32.8453 30.5164 32.8453 30.1514V29.3432C32.1337 29.2949 31.4524 29.0373 30.8873 28.6026C30.3221 28.168 29.8985 27.576 29.6698 26.9011C29.6349 26.8302 29.6169 26.7522 29.6172 26.6732C29.6175 26.5942 29.636 26.5163 29.6714 26.4456C29.7068 26.375 29.758 26.3134 29.8211 26.2658C29.8842 26.2182 29.9575 26.1858 30.0352 26.1711L30.8139 25.8843C31.2097 25.7409 31.3837 25.8365 31.5577 26.232C31.9115 27.1213 32.6264 27.566 33.7023 27.566C35.1639 27.566 35.8773 27.1054 35.8773 26.1711C35.89 25.9541 35.8297 25.7391 35.7059 25.5604C35.5822 25.3816 35.4021 25.2494 35.1943 25.1847C34.6942 25.0006 34.1693 24.8922 33.637 24.8632C32.9074 24.8173 32.1889 24.662 31.5055 24.4026C31.1693 24.2835 30.857 24.1054 30.5833 23.8768C30.2951 23.595 30.0689 23.2562 29.9191 22.8821C29.7693 22.508 29.6992 22.1069 29.7133 21.7042C29.7133 19.9922 30.7965 18.8494 32.8279 18.58V17.8108C32.8279 17.4458 32.9541 17.3198 33.3195 17.3198H34.2069Z"/><path fill="#fff" d="M90.1718 16.9805H79.1445V19.0749H90.1718V16.9805Z" opacity=".46"/><path fill="#fff" d="M90.1718 21.5605H79.1445V23.655H90.1718V21.5605Z" opacity=".46"/><path fill="#fff" d="M90.1718 26.1406H79.1445V28.235H90.1718V26.1406Z" opacity=".46"/><path fill="#fff" d="M90.1695 30.7202H83.8359V32.8146H90.1695V30.7202Z" opacity=".46"/></g><defs><linearGradient id="paint0_linear_2250_4820" x1="103.764" x2="82.369" y1="105.352" y2="96.715" gradientUnits="userSpaceOnUse"><stop stop-color="#F98D3D"/><stop offset="1" stop-color="#F9AE3D"/></linearGradient><linearGradient id="paint1_linear_2250_4820" x1="114.004" x2="99.295" y1="100.115" y2="95.562" gradientUnits="userSpaceOnUse"><stop stop-color="#F98D3D"/><stop offset="1" stop-color="#F9AE3D"/></linearGradient><linearGradient id="paint2_linear_2250_4820" x1="91.716" x2="102.847" y1="83.383" y2="83.392" gradientUnits="userSpaceOnUse"><stop stop-color="#2F66F4"/><stop offset="1" stop-color="#0D9AE9"/></linearGradient><linearGradient id="paint3_linear_2250_4820" x1="97.008" x2="94.819" y1="98.475" y2="97.695" gradientUnits="userSpaceOnUse"><stop stop-color="#F98D3D"/><stop offset="1" stop-color="#F9AE3D"/></linearGradient><linearGradient id="paint4_linear_2250_4820" x1="94.25" x2="92.215" y1="100.381" y2="99.856" gradientUnits="userSpaceOnUse"><stop stop-color="#F98D3D"/><stop offset="1" stop-color="#F9AE3D"/></linearGradient><linearGradient id="paint5_linear_2250_4820" x1="84.009" x2="68.259" y1="97.414" y2="91.937" gradientUnits="userSpaceOnUse"><stop stop-color="#F98D3D"/><stop offset="1" stop-color="#F9AE3D"/></linearGradient><linearGradient id="paint6_linear_2250_4820" x1="68.138" x2="54.436" y1="47.397" y2="42.577" gradientUnits="userSpaceOnUse"><stop stop-color="#F98D3D"/><stop offset="1" stop-color="#F9AE3D"/></linearGradient><linearGradient id="paint7_linear_2250_4820" x1="59.18" x2="60.807" y1="18.043" y2="13.613" gradientUnits="userSpaceOnUse"><stop stop-color="#F98D3D"/><stop offset="1" stop-color="#F9AE3D"/></linearGradient><clipPath id="clip0_2250_4820"><rect width="124" height="103" fill="#fff"/></clipPath></defs></svg>