<svg width="488" height="625" viewBox="0 0 488 625" fill="none" xmlns="http://www.w3.org/2000/svg">
<path d="M487.022 397C487.022 528.444 416.522 619 246.022 624.5C56.0225 612.5 11.0225 528.444 11.0225 397C11.0225 265.556 117.579 159 249.022 159C380.466 159 487.022 265.556 487.022 397Z" fill="#FEF4E4"/>
<mask id="mask0_44_1640" style="mask-type:alpha" maskUnits="userSpaceOnUse" x="0" y="0" width="487" height="625">
<path d="M480.027 318.5C513.527 518.5 412.534 625 247.027 625C81.5205 625 4.5221 540.5 0.527104 333.5C-2.82447 159.839 29.3065 0 203 0C376.694 0 480.027 318.5 480.027 318.5Z" fill="#D9D9D9"/>
</mask>
<g mask="url(#mask0_44_1640)">
<path d="M156.124 607.693C156.124 607.693 149.801 814.571 194.192 933.691C194.192 933.691 219.548 1158.77 230.662 1244.81C230.662 1244.81 263.939 1259.69 292.489 1253.11C303.603 1210.06 260.809 829.453 268.729 761.622C268.729 761.622 355.913 1167.08 340.073 1251.51C340.073 1251.51 357.51 1274.7 392.383 1258.16C392.383 1258.16 432.047 1069.48 389.19 940.397C389.19 940.397 400.303 649.146 374.946 569.69C349.59 490.171 156.124 607.693 156.124 607.693Z" fill="#141B30"/>
<path opacity="0.2" d="M388.36 669.201C385.869 627.301 381.717 590.831 374.946 569.562C349.59 490.107 156.124 607.629 156.124 607.629C156.124 607.629 155.103 640.842 156.763 688.234C193.936 715.827 228.618 721.83 228.618 721.83L238.518 669.265L241.84 720.234C344.289 710.078 378.651 680.697 388.36 669.201Z" fill="#333030"/>
<path d="M115.371 443.034L111.667 504.797C111.667 504.797 94.3577 562.855 95.6351 581.378C96.8486 599.901 85.7352 701.2 84.5216 714.805C83.3081 728.409 83.308 744.441 83.308 744.441L67.2764 792.599L69.7674 816.104L78.3899 823.513L82.0945 834.627L106.813 844.526C106.813 844.526 117.926 842.035 93.208 822.299C93.208 822.299 92.9526 785.829 98.1262 786.468C108.026 787.681 101.128 813.549 106.749 821.086C110.453 826.004 117.862 788.959 117.862 788.959C117.862 788.959 120.353 758.045 107.962 745.718C107.962 745.718 128.976 682.677 146.285 614.719C163.594 546.76 166.085 421.956 166.085 421.956L115.371 443.034Z" fill="#FCCDAA"/>
<path opacity="0.5" d="M165.133 449.229C165.836 432.623 166.091 422.084 166.091 422.084L115.441 443.097L114.931 452.103C131.537 450.826 148.335 449.868 165.133 449.229Z" fill="#897160"/>
<path d="M276.002 233.855L292.034 223.125L304.361 238.646C304.361 238.646 376.535 223.764 403.233 247.013C440.278 279.268 371.106 499.112 371.106 499.112L391.673 647.229C391.673 647.229 370.276 690.214 241.768 702.988L238.446 652.019L228.546 704.585C228.546 704.585 182.431 696.601 139.574 656.809C139.574 656.809 157.266 500.325 152.348 444.183C152.348 444.183 105.403 444.183 104.189 440.606C102.976 437.029 103.551 333.686 128.269 306.221C152.987 278.757 208.555 265.024 208.555 265.024L276.002 233.855Z" fill="url(#paint0_linear_44_1640)"/>
<path d="M217.062 206.645L222.874 297.916L287 269.11L281.635 175.156L217.062 206.645Z" fill="#FCCDAA"/>
<path d="M236.859 266.875C254.423 256.783 268.986 243.498 284.826 231.49L281.569 175.156L216.995 206.645L221.466 276.136C226.448 273.007 231.558 269.877 236.859 266.875Z" fill="#FAB989"/>
<path d="M244.719 45.3067C292.623 54.7596 291.537 84.3957 291.537 84.3957C291.537 84.3957 290.195 107.261 289.493 134.471C293.9 128.978 301.373 126.614 309.037 129.489C325.388 135.62 313.7 181.927 288.918 178.095C287.96 190.996 286.619 201.088 284.83 204.537C277.996 217.758 239.929 250.844 212.848 254.165C185.766 257.486 163.603 218.525 163.412 189.719C163.22 160.913 157.472 77.1145 157.472 77.1145C157.472 77.1145 165.392 29.5944 244.719 45.3067Z" fill="#FCCDAA"/>
<path d="M208.296 112.372C208.296 112.372 208.423 108.604 211.234 104.133C212.639 101.897 214.555 99.4701 217.429 97.4901C218.771 96.4043 220.495 95.6379 222.284 94.8714C224.2 94.2966 226.052 93.594 228.224 93.6578C230.331 93.5301 232.439 93.7216 234.419 94.3603C236.463 94.7436 238.124 95.9571 239.784 96.7875C241.317 97.8094 242.467 99.1507 243.616 100.237C244.702 101.45 245.341 102.791 245.98 103.941C247.385 106.176 247.64 108.54 247.96 110.009C248.215 111.542 248.215 112.436 248.215 112.436C248.215 112.436 247.321 112.117 245.916 111.478C244.51 110.903 242.85 109.817 240.806 109.051C239.784 108.668 238.826 108.093 237.74 107.773C236.782 107.454 235.697 107.135 234.675 106.751C233.653 106.687 232.695 106.177 231.736 106.304C230.778 106.241 229.884 106.113 228.862 106.24C227.904 106.113 226.882 106.56 225.86 106.56C224.838 106.879 223.689 107.007 222.603 107.39C220.367 107.965 218.068 108.923 215.96 109.626C211.808 111.222 208.296 112.372 208.296 112.372Z" fill="#141B30"/>
<path d="M163.654 112.689C163.654 112.689 163.398 109.815 165.059 106.43C166.592 103.109 170.424 98.8931 176.556 97.9989C178.089 97.8073 179.558 97.7435 181.091 98.1267C182.624 98.2545 183.901 98.9571 185.179 99.5319C186.456 100.107 187.286 101.065 188.18 101.831C189.075 102.598 189.522 103.62 190.096 104.45C191.182 106.047 191.374 107.771 191.566 108.857C191.693 110.007 191.693 110.645 191.693 110.645C191.693 110.645 190.991 110.518 189.905 110.326C188.819 110.134 187.478 109.623 186.009 109.432C185.242 109.368 184.54 109.049 183.837 109.049C183.135 109.049 182.432 108.793 181.793 108.857C180.516 108.857 179.43 108.857 178.28 109.113C175.981 109.304 172.66 110.39 169.53 111.156C166.4 112.114 163.654 112.689 163.654 112.689Z" fill="#141B30"/>
<path d="M240.118 208.947L185.253 209.841C185.253 209.841 197.389 238.008 240.118 208.947Z" fill="white"/>
<path d="M244.016 132.364C244.016 137.857 241.461 142.328 238.332 142.328C235.202 142.328 232.647 137.857 232.647 132.364C232.647 126.871 235.202 122.4 238.332 122.4C241.461 122.4 244.016 126.871 244.016 132.364Z" fill="#141B30"/>
<path d="M191.951 134.793C191.951 140.286 189.396 144.757 186.267 144.757C183.137 144.757 180.582 140.286 180.582 134.793C180.582 129.3 183.137 124.829 186.267 124.829C189.396 124.829 191.951 129.3 191.951 134.793Z" fill="#141B30"/>
<path d="M248.736 69.0696C258.381 82.738 255.507 105.157 261.255 111.033C267.004 116.909 278.436 118.761 275.562 151.144C275.179 155.487 274.796 160.086 274.349 164.876C276.712 164.301 279.139 163.854 281.821 163.726C284.504 163.599 286.995 163.79 289.422 164.046C289.678 151.91 290.891 144.246 290.891 144.246C290.891 144.246 303.41 77.4368 301.366 68.1116C299.322 58.8503 280.544 25.9567 251.419 19.378L259.147 28.7032C256.273 25.4458 243.244 13.1187 213.927 18.42L221.208 19.9528C221.208 19.9528 184.993 23.2741 159.253 13.6935L168.514 24.1045C168.514 24.1045 143.413 22.7632 133.641 14.5238C133.641 14.5238 119.781 54.9542 154.079 72.9019C188.378 90.8497 239.092 55.3374 248.736 69.0696Z" fill="#141B30"/>
<path d="M206.964 192.023C206.964 192.023 243.115 182.762 255.379 206.905C255.379 206.905 219.291 213.675 206.837 204.095C206.837 204.095 190.55 212.845 175.412 208.182C175.412 208.119 183.588 187.552 206.964 192.023Z" fill="#141B30"/>
<path d="M196.039 133.197C195.847 142.33 194.825 151.336 193.356 160.278C191.887 169.22 190.099 178.034 187.863 186.784L186.522 184.677C193.548 186.848 200.51 189.275 207.408 191.958C200.063 191 192.845 189.722 185.628 188.253L184.095 187.934L184.287 186.146C185.372 177.14 186.905 168.262 188.758 159.448C190.61 150.569 192.909 141.819 196.039 133.197Z" fill="#7F6654"/>
<path d="M146.23 148.459L185.127 145.968C185.127 145.968 188.385 171.58 174.014 175.604C143.164 184.29 146.23 148.459 146.23 148.459Z" fill="#96CDFF" stroke="#20242E" stroke-width="4" stroke-miterlimit="10"/>
<path d="M201.218 145.97L240.116 143.479C240.116 143.479 243.373 169.091 229.002 173.115C198.152 181.801 201.218 145.97 201.218 145.97Z" fill="#96CDFF" stroke="#20242E" stroke-width="4" stroke-miterlimit="10"/>
<path d="M185.558 154.657C185.558 154.657 191.944 144.374 201.589 154.274" stroke="#20242E" stroke-width="4" stroke-miterlimit="10"/>
<path d="M316.575 312.611L351.193 290.959C351.193 290.959 407.4 318.168 397.5 350.295C390.154 374.247 318.427 395.388 312.232 378.079C306.036 360.77 316.575 312.611 316.575 312.611Z" fill="#FAB989"/>
<path d="M263.107 135.755H274.604V136.074C274.924 135.947 275.307 135.883 275.69 135.755C276.393 132.114 277.351 128.602 279.011 125.28C271.347 125.408 255.634 127.644 255.634 127.644L244.138 140.865C255.06 150.126 263.107 135.755 263.107 135.755Z" fill="#A07E67"/>
<path d="M266.683 140.797H275.37V141.116C275.625 140.988 275.881 140.924 276.136 140.86C276.647 137.667 277.413 134.601 278.627 131.663C272.878 131.791 261.062 133.707 261.062 133.707L252.376 145.331C260.615 153.443 266.683 140.797 266.683 140.797Z" fill="#A07E67"/>
<path d="M241.202 146.99L288.148 134.025" stroke="#20242E" stroke-width="4" stroke-miterlimit="10"/>
<path d="M204.921 267.004L227.212 317.016L238.9 289.232L237.751 287.763L219.164 256.466L204.921 267.004Z" fill="url(#paint1_linear_44_1640)"/>
<path d="M296.374 220.062L239.976 289.299L256.199 319.509L317.132 237.308L296.374 220.062Z" fill="#2F66F4"/>
<path d="M299.831 221.785L281.628 184.165C279.137 194.193 262.083 175.479 252.886 181.036C253.716 196.365 247.712 357.064 309.092 380.569C346.137 394.748 369.003 362.301 356.038 325.576C341.858 285.401 299.831 221.785 299.831 221.785Z" fill="#FCCDAA"/>
<path d="M236.853 135.177L248.349 121.955C248.349 121.955 268.532 119.081 274.281 119.656C280.029 120.231 284.053 130.578 284.053 130.578L288.077 131.728L292.101 142.65L296.7 146.099C296.7 146.099 290.376 188.764 274.792 192.788C259.207 196.812 243.687 188.764 255.183 166.857C266.68 144.949 267.255 142.075 267.255 142.075V130.003H255.758C255.886 130.003 247.774 144.438 236.853 135.177Z" fill="#FCCDAA"/>
</g>
<defs>
<linearGradient id="paint0_linear_44_1640" x1="442.521" y1="212.5" x2="72.8619" y2="611.853" gradientUnits="userSpaceOnUse">
<stop stop-color="#2F66F4"/>
<stop offset="1" stop-color="#0D9AE9"/>
</linearGradient>
<linearGradient id="paint1_linear_44_1640" x1="213.249" y1="286.741" x2="232.987" y2="286.748" gradientUnits="userSpaceOnUse">
<stop stop-color="#2F66F4"/>
<stop offset="1" stop-color="#0D9AE9"/>
</linearGradient>
</defs>
</svg>
