<svg xmlns="http://www.w3.org/2000/svg" width="499" height="1793" fill="none" viewBox="0 0 499 1793"><path fill="#76809F" d="M175.192 1629.96L180.115 1734.83L220.05 1739.48L219.929 1626.16L175.192 1629.96Z"/><path fill="url(#paint0_linear_26_1596)" d="M241.223 1681.55C241.223 1681.55 263.643 1711.77 298.207 1722.8C332.858 1733.83 364.009 1747.73 361.062 1768.64C361.062 1768.64 308.813 1793.09 225.327 1763.46L225.174 1772.34L170.039 1768.97L171.3 1695.69L217.024 1699.67L213.786 1692.37L241.223 1681.55Z"/><path fill="#141B30" d="M262.969 1766.17C337.899 1786.86 357.409 1765.64 361.831 1764.25C362.317 1766.07 362.458 1767.88 362.169 1769.69C362.169 1769.69 309.919 1794.14 226.433 1764.51L226.28 1773.39L171.146 1770.02L171.398 1755.37C191.118 1757 207.779 1750.99 262.969 1766.17Z"/><path fill="#76809F" d="M40.2459 1639.71L49.1407 1744.3L89.273 1747.49L84.7538 1634.18L40.2459 1639.71Z"/><path fill="url(#paint1_linear_26_1596)" d="M103.184 1690.3C103.184 1690.3 125.603 1720.52 160.168 1731.55C194.818 1742.58 225.969 1756.48 223.022 1777.39C223.022 1777.39 170.773 1801.84 87.2868 1772.21L87.1341 1781.09L32 1777.72L33.2602 1704.44L78.9841 1708.42L75.7463 1701.12L103.184 1690.3Z"/><path fill="#141B30" d="M365.173 807.762C365.173 807.762 368.906 1087.15 306.223 1246.91C306.223 1246.91 266.772 1550.13 249.774 1666C249.774 1666 204.511 1685.32 166.127 1675.77C152.126 1617.41 218.723 1104.66 209.608 1012.92C209.608 1012.92 82.5153 1558.17 101.936 1672.51C101.936 1672.51 77.8617 1703.4 31.1737 1680.26C31.1737 1680.26 -17.9844 1424.67 42.8606 1251.43C42.8606 1251.43 34.621 858.045 70.6917 751.385C106.764 644.64 365.173 807.762 365.173 807.762Z"/><path fill="#333030" d="M50.2746 885.39C54.6095 828.893 61.0602 779.762 70.6925 751.211C106.763 644.551 365.173 807.673 365.173 807.673C365.173 807.673 365.781 852.527 362.439 916.458C311.623 952.839 264.67 960.138 264.67 960.138L252.528 888.955L246.861 957.676C108.812 941.59 63.112 901.134 50.2746 885.39Z" opacity=".2"/><path fill="#141B30" d="M123.832 1774.39C198.762 1795.09 218.271 1773.86 222.693 1772.47C223.179 1774.29 223.32 1776.1 223.031 1777.91C223.031 1777.91 170.781 1802.37 87.2951 1772.73L87.1424 1781.61L32.0082 1778.25L32.2603 1763.59C51.9822 1765.14 68.6433 1759.13 123.832 1774.39Z"/><path fill="#FCCDAA" d="M424.002 586.446L427.568 669.9C427.568 669.9 449.584 748.668 447.43 773.64C445.362 798.614 458.011 935.605 459.334 953.996C460.656 972.388 460.284 994.027 460.284 994.027L480.805 1059.4L476.897 1091.07L465.087 1100.87L459.828 1115.79L426.234 1128.58C426.234 1128.58 411.291 1124.96 445.114 1098.89C445.114 1098.89 446.305 1049.67 439.307 1050.41C425.916 1051.82 434.626 1086.89 426.865 1096.94C421.75 1103.49 412.61 1053.31 412.61 1053.31C412.61 1053.31 409.965 1011.53 426.976 995.179C426.976 995.179 400.076 909.599 378.29 817.467C356.504 725.336 356.039 556.819 356.039 556.819L424.002 586.446Z"/><path fill="#897160" d="M356.692 593.66C356.129 571.229 356.029 556.998 356.029 556.998L423.908 586.537L424.388 598.705C402.003 596.595 379.351 594.912 356.692 593.66Z" opacity=".5"/><path fill="url(#paint2_linear_26_1596)" d="M212.042 300.381L190.651 285.525L173.652 306.189C173.652 306.189 76.5778 284.426 40.0013 315.188C-10.7507 357.865 77.5138 656.214 77.5138 656.214L46.3153 855.663C46.3153 855.663 74.1984 914.181 247.361 934.406L253.028 865.686L265.17 936.868C265.17 936.868 327.601 927.163 386.373 874.447C386.373 874.447 366.125 662.816 374.066 587.149C374.066 587.149 437.433 588.239 439.154 583.439C440.875 578.64 442.498 439.134 409.771 401.489C377.045 363.844 302.359 344.018 302.359 344.018L212.042 300.381Z"/><path fill="#FCCDAA" d="M292.238 265.016L282.274 388.079L196.385 347.709L205.808 221.015L292.238 265.016Z"/><path fill="#FAB989" d="M264.117 345.857C240.642 331.828 221.294 313.558 200.192 296.982L205.897 221.018L292.327 265.02L284.679 358.715C278.027 354.375 271.203 350.032 264.117 345.857Z"/><path fill="#FCCDAA" d="M258.647 46.6049C193.769 58.2524 194.546 98.2801 194.546 98.2801C194.546 98.2801 195.826 129.175 196.143 165.918C190.321 158.401 180.289 155.038 169.877 158.74C147.665 166.637 162.366 229.412 195.906 224.815C196.899 242.252 198.476 255.904 200.809 260.601C209.727 278.606 260.342 324.148 296.819 329.26C333.296 334.371 364.116 282.296 365.043 243.419C365.971 204.541 375.675 91.5641 375.675 91.5641C375.675 91.5641 366.088 27.2381 258.647 46.6049Z"/><path fill="#141B30" d="M306.258 137.974C306.258 137.974 306.173 132.885 302.484 126.784C300.639 123.734 298.109 120.414 294.275 117.675C292.49 116.178 290.18 115.103 287.784 114.027C285.211 113.207 282.727 112.216 279.794 112.251C276.952 112.03 274.103 112.24 271.416 113.056C268.648 113.526 266.378 115.125 264.117 116.207C262.024 117.551 260.442 119.335 258.865 120.774C257.371 122.387 256.478 124.182 255.589 125.719C253.64 128.704 253.241 131.888 252.775 133.864C252.395 135.927 252.374 137.134 252.374 137.134C252.374 137.134 253.589 136.723 255.5 135.894C257.41 135.151 259.677 133.724 262.453 132.736C263.842 132.243 265.148 131.489 266.621 131.083C267.922 130.674 269.394 130.269 270.783 129.775C272.164 129.713 273.469 129.045 274.759 129.24C276.054 129.176 277.264 129.024 278.64 129.22C279.936 129.07 281.305 129.697 282.685 129.721C284.057 130.176 285.606 130.375 287.062 130.917C290.066 131.745 293.148 133.092 295.977 134.089C301.543 136.341 306.258 137.974 306.258 137.974Z"/><path fill="#141B30" d="M366.505 139.436C366.505 139.436 366.916 135.562 364.753 130.954C362.761 126.435 357.686 120.656 349.43 119.306C347.365 119.012 345.383 118.892 343.305 119.374C341.233 119.511 339.492 120.429 337.755 121.176C336.017 121.922 334.874 123.196 333.649 124.21C332.424 125.223 331.797 126.593 331.002 127.7C329.499 129.83 329.2 132.154 328.916 133.615C328.717 135.164 328.703 136.026 328.703 136.026C328.703 136.026 329.654 135.87 331.124 135.636C332.594 135.403 334.417 134.744 336.404 134.52C337.441 134.451 338.396 134.037 339.344 134.053C340.293 134.069 341.247 133.741 342.108 133.842C343.832 133.871 345.298 133.897 346.844 134.268C349.943 134.58 354.401 136.123 358.608 137.23C362.81 138.596 366.505 139.436 366.505 139.436Z"/><path fill="#fff" d="M261.059 267.591L335.094 270.072C335.094 270.072 318.06 307.81 261.059 267.591Z"/><path fill="#3F3838" d="M257.575 164.129C257.448 171.544 260.793 177.638 265.018 177.711C269.242 177.784 272.794 171.808 272.922 164.393C273.05 156.978 269.705 150.884 265.48 150.811C261.255 150.738 257.703 156.714 257.575 164.129Z"/><path fill="#3F3838" d="M327.797 168.617C327.67 176.032 331.015 182.127 335.24 182.199C339.464 182.272 343.017 176.296 343.145 168.881C343.272 161.466 339.927 155.372 335.702 155.299C331.478 155.226 327.925 161.202 327.797 168.617Z"/><path fill="#141B30" d="M252.673 78.586C239.338 96.8115 242.697 127.139 234.801 134.937C226.906 142.735 211.431 144.97 214.559 188.746C214.975 194.618 215.386 200.834 215.878 207.31C212.701 206.479 209.436 205.82 205.818 205.585C202.2 205.35 198.833 205.551 195.551 205.839C195.488 189.453 194.028 179.08 194.028 179.08C194.028 179.08 178.681 88.6107 181.656 76.0711C184.63 63.6177 210.74 19.6542 250.205 11.4504L239.558 23.8581C243.513 19.528 261.386 3.1914 300.834 11.0276L290.971 12.9276C290.971 12.9276 339.776 18.2513 374.742 5.91697L362 19.7547C362 19.7547 395.912 18.5269 409.294 7.63233C409.294 7.63233 427.064 62.5266 380.351 85.9561C333.638 109.386 266.01 60.2742 252.673 78.586Z"/><path fill="#141B30" d="M306.206 245.516C306.206 245.516 257.625 232.176 240.512 264.48C240.512 264.48 289.065 274.456 306.099 261.814C306.099 261.814 327.88 274.003 348.42 268.06C348.422 267.974 337.864 240.024 306.206 245.516Z"/><path fill="#7F6654" d="M322.314 166.364C322.36 178.697 323.531 190.877 325.306 202.981C327.081 215.084 329.291 227.023 332.105 238.886L333.964 236.072C324.431 238.841 314.977 241.955 305.604 245.416C315.54 244.293 325.312 242.736 335.088 240.921L337.165 240.526L336.948 238.107C335.691 225.926 333.828 213.907 331.532 201.966C329.238 189.94 326.338 178.076 322.314 166.364Z"/><path fill="#B9D1E7" stroke="#20242E" stroke-miterlimit="10" stroke-width="4" d="M389.195 188.116L336.749 183.851C336.749 183.851 331.757 218.347 351.062 224.112C392.501 236.553 389.195 188.116 389.195 188.116Z"/><path fill="#B9D1E7" stroke="#20242E" stroke-miterlimit="10" stroke-width="4" d="M315.03 183.483L262.584 179.218C262.584 179.218 257.592 213.714 276.897 219.479C318.336 231.92 315.03 183.483 315.03 183.483Z"/><path stroke="#20242E" stroke-miterlimit="10" stroke-width="4" d="M335.962 195.578C335.962 195.578 327.579 181.548 314.33 194.688"/><path fill="#FAB989" d="M155.447 405.737L109.223 375.707C109.223 375.707 32.724 411.129 45.3412 454.723C54.6996 487.223 151.026 517.425 159.79 494.205C168.555 470.985 155.447 405.737 155.447 405.737Z"/><path fill="#A07E67" d="M231.719 168.261L216.2 167.994L216.192 168.425C215.764 168.245 215.249 168.15 214.734 167.968C213.87 163.038 212.659 158.274 210.494 153.752C220.837 154.102 241.995 157.485 241.995 157.485L257.207 175.598C242.249 187.846 231.719 168.261 231.719 168.261Z"/><path fill="#A07E67" d="M226.775 174.985L215.05 174.783L215.042 175.214C214.7 175.036 214.357 174.944 214.014 174.852C213.398 170.529 212.435 166.373 210.865 162.379C218.622 162.685 234.527 165.545 234.527 165.545L245.983 181.438C234.672 192.197 226.775 174.985 226.775 174.985Z"/><path stroke="#20242E" stroke-miterlimit="10" stroke-width="4" d="M261.028 183.935L197.963 165.344"/><path fill="url(#paint3_linear_26_1596)" d="M307.206 346.77L275.957 413.757L260.825 375.983L262.41 374.026L288.225 332.214L307.206 346.77Z"/><path fill="url(#paint4_linear_26_1596)" d="M184.858 281.283L259.376 376.047L236.777 416.449L156.438 304.079L184.858 281.283Z"/><path fill="#FCCDAA" d="M180.157 283.529L205.6 233.172C208.73 246.765 232.183 221.901 244.469 229.615C242.992 250.287 247.366 467.337 163.97 497.638C113.638 515.917 83.5264 471.59 101.88 422.319C121.952 368.421 180.157 283.529 180.157 283.529Z"/><path fill="#FCCDAA" d="M267.17 168.088L251.959 149.975C251.959 149.975 224.783 145.627 217.01 146.269C209.238 146.912 203.566 160.785 203.566 160.785L198.108 162.243L192.423 176.892L186.136 181.441C186.136 181.441 193.68 239.177 214.623 244.971C235.565 250.764 256.702 240.261 241.692 210.423C226.682 180.586 225.973 176.693 225.973 176.693L226.253 160.399L241.771 160.666C241.599 160.663 252.213 180.335 267.17 168.088Z"/><path fill="#2B344E" d="M257.079 1011.23C257.079 1011.23 202.109 1600.07 195.59 1678.26C188.772 1678.57 181.703 1678.37 174.735 1677.38C170.28 1675.67 166.54 1672.5 164.903 1667.38C156.915 1580.32 218.363 1101.2 209.621 1012.83L257.079 1011.23Z" opacity=".2"/><defs><linearGradient id="paint0_linear_26_1596" x1="226.349" x2="317.956" y1="1821.79" y2="1759.68" gradientUnits="userSpaceOnUse"><stop stop-color="#F98D3D"/><stop offset="1" stop-color="#F9AE3D"/></linearGradient><linearGradient id="paint1_linear_26_1596" x1="88.309" x2="179.916" y1="1830.54" y2="1768.43" gradientUnits="userSpaceOnUse"><stop stop-color="#F98D3D"/><stop offset="1" stop-color="#F9AE3D"/></linearGradient><linearGradient id="paint2_linear_26_1596" x1="316.696" x2="477.884" y1="1031.65" y2="885.184" gradientUnits="userSpaceOnUse"><stop stop-color="#F98D3D"/><stop offset="1" stop-color="#F9AE3D"/></linearGradient><linearGradient id="paint3_linear_26_1596" x1="283.562" x2="313.511" y1="431.821" y2="431.43" gradientUnits="userSpaceOnUse"><stop stop-color="#F98D3D"/><stop offset="1" stop-color="#F9AE3D"/></linearGradient><linearGradient id="paint4_linear_26_1596" x1="251.62" x2="295.949" y1="423.538" y2="391.133" gradientUnits="userSpaceOnUse"><stop stop-color="#F98D3D"/><stop offset="1" stop-color="#F9AE3D"/></linearGradient></defs></svg>