<svg width="129" height="114" viewBox="0 0 129 114" fill="none" xmlns="http://www.w3.org/2000/svg">
<g clip-path="url(#clip0_2202_8020)">
<path d="M129.464 42.0596L129.23 41.919V41.669H128.804L68.0213 5.75684H61.5057L0.722898 41.669H0.296498V41.919L0.0625 42.0596H0.296498V114.379H129.23V42.0596H129.464Z" fill="#141B30"/>
<path d="M113.978 13.7148H15.5469V105.396H113.978V13.7148Z" fill="#F1F5FE"/>
<path d="M129.464 41.6689V114.274H0.0625V41.6689H0.239298L61.5057 77.8675H68.0213L129.288 41.6689H129.464Z" fill="#F98D3D"/>
<path opacity="0.46" d="M61.5057 77.9717H68.0213L129.464 114.269H0.0625L61.5057 77.9717Z" fill="white"/>
<path d="M51.8356 11.9302C48.2417 14.029 17.3873 29.0122 17.2194 28.5264C17.0516 28.0405 8.39258 24.8146 8.39258 17.3715C8.39258 9.92852 34.6756 -1.53722 43.0483 -0.410081C51.4209 0.71706 51.8356 11.9302 51.8356 11.9302Z" fill="url(#paint0_linear_2202_8020)"/>
<path d="M17.0786 28.5187L7.07617 34.5769C7.07617 34.5769 7.07617 37.2617 12.0823 36.2094C30.6089 32.2756 51.8357 11.3867 51.8357 11.3867L17.0786 28.5187Z" fill="#141B30"/>
</g>
<defs>
<linearGradient id="paint0_linear_2202_8020" x1="19.0404" y1="14.0253" x2="44.2757" y2="14.0486" gradientUnits="userSpaceOnUse">
<stop stop-color="#2F66F4"/>
<stop offset="1" stop-color="#0D9AE9"/>
</linearGradient>
<clipPath id="clip0_2202_8020">
<rect width="129" height="114" fill="white"/>
</clipPath>
</defs>
</svg>
