<svg width="153" height="150" viewBox="0 0 153 150" fill="none" xmlns="http://www.w3.org/2000/svg">
<g clip-path="url(#clip0_201_1614)">
<path opacity="0.56" d="M111.024 12.4443H24.0469C10.792 12.4443 0.046875 23.1895 0.046875 36.4443V98.7458C0.046875 112.001 10.792 122.746 24.0469 122.746H111.024C124.279 122.746 135.024 112.001 135.024 98.7458V36.4443C135.024 23.1895 124.279 12.4443 111.024 12.4443Z" fill="#FCDEB7"/>
<path d="M112.87 63.1006H20.3477V92.4856H112.87V63.1006Z" fill="#F98D3D"/>
<path opacity="0.44" d="M112.87 63.1006H20.3477V92.4856H112.87V63.1006Z" fill="white"/>
<path d="M112.87 58.9727H20.3477V88.3576H112.87V58.9727Z" fill="url(#paint0_linear_201_1614)"/>
<path opacity="0.08" d="M103.83 79.7861C103.83 79.7861 98.4499 81.6446 101.194 88.3579C103.937 95.0712 109.089 107.797 109.089 107.797L103.776 108.417C103.776 108.417 101.362 113.467 107.542 115.016C113.722 116.564 117.502 122.746 117.502 122.746H129.176L126.95 110.376C126.95 110.376 113.729 93.3339 112.868 92.4855C112.007 91.6371 103.83 79.7861 103.83 79.7861Z" fill="black"/>
<path d="M44.6588 72.3118H42.6413C42.6172 72.1182 42.5627 71.9296 42.4799 71.7529C42.3941 71.5922 42.2774 71.45 42.1366 71.3345C41.9958 71.219 41.8337 71.1323 41.6595 71.0796C41.4601 71.0129 41.2509 70.981 41.0408 70.9853C40.6742 70.9741 40.3129 71.0751 40.0051 71.2748C39.7027 71.4884 39.469 71.7855 39.3326 72.13C39.1667 72.5591 39.0867 73.0167 39.0972 73.4767C39.0841 73.9479 39.1641 74.417 39.3326 74.8571C39.4601 75.198 39.692 75.4897 39.9953 75.6905C40.2985 75.8913 40.6574 75.9908 41.0206 75.9748C41.2252 75.9772 41.429 75.95 41.6258 75.894C41.7984 75.8398 41.9601 75.7555 42.1033 75.6449C42.2432 75.5343 42.3598 75.397 42.4463 75.2409C42.5418 75.0769 42.6057 74.8965 42.6346 74.7089H44.6521C44.6146 75.0867 44.5074 75.4543 44.336 75.793C44.1489 76.1561 43.9036 76.4859 43.6097 76.7694C43.281 77.0626 42.9 77.2911 42.4866 77.4427C42.0023 77.6204 41.4893 77.7072 40.9735 77.6986C40.2693 77.7102 39.5741 77.5385 38.956 77.2003C38.3599 76.8662 37.8738 76.3655 37.5572 75.7593C37.2185 75.0342 37.043 74.2435 37.043 73.443C37.043 72.6425 37.2185 71.8518 37.5572 71.1267C37.8808 70.5194 38.3707 70.0171 38.9695 69.679C39.5876 69.3417 40.2832 69.1723 40.987 69.1875C41.4592 69.182 41.9292 69.2525 42.379 69.3962C42.7881 69.5257 43.1692 69.7313 43.5021 70.0022C43.8279 70.2708 44.0956 70.603 44.2889 70.9786C44.4984 71.3944 44.6241 71.8474 44.6588 72.3118Z" fill="white"/>
<path d="M47.774 69.3145V77.5967H45.7969V69.3145H47.774Z" fill="white"/>
<path d="M49.998 70.6621C49.7316 70.6662 49.4739 70.5673 49.2784 70.386C49.1846 70.3008 49.1096 70.1969 49.0583 70.0809C49.007 69.9649 48.9805 69.8395 48.9805 69.7127C48.9805 69.5858 49.007 69.4604 49.0583 69.3444C49.1096 69.2285 49.1846 69.1245 49.2784 69.0393C49.4749 68.8619 49.7301 68.7637 49.9946 68.7637C50.2592 68.7637 50.5144 68.8619 50.7109 69.0393C50.8047 69.1245 50.8797 69.2285 50.931 69.3444C50.9823 69.4604 51.0088 69.5858 51.0088 69.7127C51.0088 69.8395 50.9823 69.9649 50.931 70.0809C50.8797 70.1969 50.8047 70.3008 50.7109 70.386C50.5182 70.5675 50.2625 70.6665 49.998 70.6621ZM49.0027 77.5976V71.3826H50.9799V77.5976H49.0027Z" fill="white"/>
<path d="M55.1505 77.718C54.5636 77.7329 53.9833 77.5911 53.4692 77.3073C53.0078 77.0467 52.6335 76.6555 52.3932 76.1828C52.1322 75.6682 52.0028 75.0967 52.0166 74.5196C52.0044 73.9384 52.1337 73.363 52.3932 72.843C52.634 72.3689 53.0081 71.9757 53.4692 71.7118C53.9822 71.432 54.5598 71.2927 55.1438 71.3077C55.6634 71.2967 56.1788 71.4049 56.6502 71.6242C57.06 71.8154 57.4074 72.1189 57.6522 72.4996C57.8982 72.9056 58.0285 73.3714 58.0288 73.8463H56.1861C56.1627 73.5686 56.0494 73.3061 55.8633 73.0989C55.7757 73.0102 55.6708 72.9405 55.5551 72.8941C55.4394 72.8478 55.3154 72.8258 55.1908 72.8295C54.974 72.8246 54.7614 72.8909 54.5856 73.0181C54.4005 73.1647 54.2606 73.3608 54.1821 73.5837C53.9938 74.1888 53.9938 74.837 54.1821 75.4421C54.2606 75.665 54.4005 75.8611 54.5856 76.0077C54.7608 76.1369 54.9733 76.2054 55.1908 76.203C55.3601 76.206 55.5271 76.1642 55.675 76.0818C55.821 76.0019 55.9421 75.883 56.0247 75.7384C56.1233 75.5672 56.183 75.3764 56.1996 75.1795H58.0422C58.0396 75.6541 57.9095 76.1192 57.6656 76.5262C57.4276 76.9134 57.0816 77.2223 56.6703 77.415C56.1952 77.6363 55.674 77.7402 55.1505 77.718Z" fill="white"/>
<path d="M59.043 77.5967V69.3145H61.0201V77.5967H59.043ZM60.8251 75.9671V73.6104H61.1008L62.8493 71.3816H65.0887L62.4929 74.5733H61.9683L60.8251 75.9671ZM62.8964 77.5967L61.2757 75.0177L62.5736 73.6104L65.1829 77.5967H62.8964Z" fill="white"/>
<path d="M68.25 77.5967V69.3145H70.2675V72.6408H73.5359V69.3145H75.5534V77.5967H73.5359V74.2703H70.2742V77.5967H68.25Z" fill="white"/>
<path d="M79.6612 77.7178C79.077 77.7306 78.4989 77.5964 77.9799 77.3273C77.5189 77.0732 77.1425 76.6892 76.8972 76.223C76.6354 75.6918 76.5062 75.1049 76.5206 74.5127C76.508 73.9285 76.6397 73.3503 76.9039 72.8293C77.1465 72.3605 77.5174 71.9704 77.9732 71.7048C78.4695 71.4259 79.0318 71.2863 79.6007 71.3008C80.0134 71.2976 80.4233 71.3683 80.8112 71.5096C81.1708 71.6406 81.4969 71.8499 81.7661 72.1223C82.04 72.4073 82.2508 72.7469 82.3848 73.1189C82.5387 73.5509 82.6139 74.007 82.6067 74.4656V74.9639H77.2267V73.8461H80.7843C80.7824 73.6503 80.7315 73.4582 80.6363 73.2872C80.5389 73.1234 80.3997 72.9886 80.2328 72.8967C80.0558 72.7995 79.8563 72.7508 79.6545 72.7553C79.4479 72.7538 79.2443 72.8048 79.0627 72.9034C78.8913 72.9999 78.7477 73.1391 78.6457 73.3074C78.5431 73.4809 78.4874 73.6782 78.4843 73.8798V75.0446C78.4765 75.278 78.5274 75.5095 78.6323 75.718C78.7296 75.9026 78.8763 76.0565 79.0559 76.1624C79.261 76.2772 79.4937 76.3331 79.7284 76.324C79.8883 76.3251 80.0473 76.3001 80.1992 76.25C80.336 76.2043 80.4619 76.131 80.5691 76.0345C80.6737 75.9391 80.7524 75.8186 80.7977 75.6843L82.6135 75.7382C82.5439 76.1292 82.3748 76.4956 82.1225 76.8021C81.8457 77.1019 81.5025 77.3325 81.1205 77.4754C80.654 77.6489 80.1586 77.7312 79.6612 77.7178Z" fill="white"/>
<path d="M83.625 77.5974V71.3824H85.5416V72.5001H85.6089C85.6893 72.1414 85.8826 71.8181 86.1603 71.5776C86.4171 71.3817 86.7319 71.2774 87.0548 71.2814H87.3372C87.4286 71.2929 87.5187 71.3132 87.6062 71.342V73.059C87.4861 73.0192 87.3621 72.9922 87.2363 72.9782C87.0884 72.9782 86.9539 72.9782 86.8328 72.9782C86.6126 72.9772 86.3956 73.0304 86.2007 73.1331C86.0155 73.2356 85.862 73.387 85.7568 73.5707C85.6477 73.7779 85.5943 74.01 85.6022 74.2441V77.6108L83.625 77.5974Z" fill="white"/>
<path d="M91.0171 77.7183C90.4328 77.7319 89.8545 77.5976 89.3359 77.3277C88.8729 77.0762 88.4958 76.6916 88.2532 76.2234C88.0092 75.6959 87.8828 75.1214 87.8828 74.5401C87.8828 73.9587 88.0092 73.3843 88.2532 72.8567C88.4982 72.3873 88.8713 71.9974 89.3292 71.7322C89.8254 71.4533 90.3877 71.3137 90.9566 71.3282C91.3693 71.3256 91.7791 71.3962 92.1671 71.5369C92.5247 71.6681 92.8487 71.8774 93.1153 72.1497C93.3936 72.4324 93.607 72.7725 93.7408 73.1462C93.8946 73.5782 93.9698 74.0343 93.9627 74.4929V74.9912H88.5827V73.8465H92.1335C92.1381 73.6499 92.0868 73.4561 91.9855 73.2876C91.8925 73.1228 91.755 72.9874 91.5888 72.8971C91.4114 72.8008 91.2121 72.7521 91.0104 72.7557C90.8018 72.7551 90.5962 72.806 90.4119 72.9038C90.2424 73.0005 90.101 73.1398 90.0017 73.3078C89.8928 73.4786 89.8367 73.6777 89.8403 73.8802V75.0451C89.8325 75.2784 89.8833 75.5099 89.9882 75.7184C90.0855 75.9031 90.2322 76.0569 90.4119 76.1628C90.6168 76.2779 90.8496 76.3338 91.0844 76.3244C91.2465 76.3255 91.4077 76.3005 91.5618 76.2504C91.6979 76.2031 91.8235 76.1299 91.9317 76.0349C92.0341 75.9376 92.1124 75.8177 92.1604 75.6847L93.9761 75.7386C93.907 76.131 93.7353 76.4981 93.4785 76.8025C93.2029 77.1038 92.8594 77.3347 92.4765 77.4759C92.01 77.6496 91.5146 77.7319 91.0171 77.7183Z" fill="white"/>
<path d="M113.387 104.013C113.387 104.013 101.477 81.5572 104.228 77.5979C106.978 73.6386 118.653 96.1015 118.653 96.1015C118.653 96.1015 129.527 90.7147 132.843 94.499C136.158 98.2832 136.508 112.605 136.508 112.605L124.107 117.319C124.107 117.319 115.903 111.339 109.036 110.996C103.414 110.72 98.1014 103.784 113.387 104.013Z" fill="#FCCDAA"/>
<path d="M124.109 117.325L135.024 149.969L152.536 140.575L136.51 112.604L124.109 117.325Z" fill="url(#paint1_linear_201_1614)"/>
<path d="M135.436 0.34375H123.789C119.371 0.34375 115.789 3.92547 115.789 8.34375V20.0252C115.789 24.4434 119.371 28.0252 123.789 28.0252H135.436C139.854 28.0252 143.436 24.4434 143.436 20.0252V8.34375C143.436 3.92547 139.854 0.34375 135.436 0.34375Z" fill="#141B30"/>
<path d="M134 10L126 18" stroke="#E6E6E6" stroke-width="2.03" stroke-linecap="round" stroke-linejoin="round"/>
<path d="M134 18L126 10" stroke="#E6E6E6" stroke-width="2.03" stroke-linecap="round" stroke-linejoin="round"/>
<path opacity="0.12" d="M113.445 55.4847V51.2021" stroke="black" stroke-width="2.03" stroke-linecap="round" stroke-linejoin="round"/>
<path opacity="0.12" d="M117.117 59.1406H121.401" stroke="black" stroke-width="2.03" stroke-linecap="round" stroke-linejoin="round"/>
<path opacity="0.12" d="M115.93 56.7568L118.62 53.417" stroke="black" stroke-width="2.03" stroke-linecap="round" stroke-linejoin="round"/>
<path opacity="0.44" d="M84.9948 100.229H52.7148V108.942H84.9948V100.229Z" fill="#FA973E"/>
<path d="M95.6924 38.6846H42.1211V44.5292H95.6924V38.6846Z" fill="url(#paint2_linear_201_1614)"/>
</g>
<defs>
<linearGradient id="paint0_linear_201_1614" x1="85.1775" y1="102.202" x2="55.7279" y2="69.6191" gradientUnits="userSpaceOnUse">
<stop stop-color="#F98D3D"/>
<stop offset="1" stop-color="#F9AE3D"/>
</linearGradient>
<linearGradient id="paint1_linear_201_1614" x1="144.028" y1="167.573" x2="125.246" y2="162.552" gradientUnits="userSpaceOnUse">
<stop stop-color="#F98D3D"/>
<stop offset="1" stop-color="#F9AE3D"/>
</linearGradient>
<linearGradient id="paint2_linear_201_1614" x1="79.6581" y1="47.283" x2="76.3236" y2="36.5433" gradientUnits="userSpaceOnUse">
<stop stop-color="#F98D3D"/>
<stop offset="1" stop-color="#F9AE3D"/>
</linearGradient>
<clipPath id="clip0_201_1614">
<rect width="153" height="150" fill="white"/>
</clipPath>
</defs>
</svg>
