<svg width="158" height="155" viewBox="0 0 158 155" fill="none" xmlns="http://www.w3.org/2000/svg">
<g clip-path="url(#clip0_2202_8065)">
<path d="M139.714 12.873H0.220703V126.978H139.714V12.873Z" fill="#E6E6E6"/>
<path opacity="0.56" d="M139.714 12.873H0.220703V126.978H139.714V12.873Z" fill="white"/>
<path d="M116.821 65.2764H21.2031V95.6746H116.821V65.2764Z" fill="#F98D3D"/>
<path opacity="0.44" d="M116.821 65.2764H21.2031V95.6746H116.821V65.2764Z" fill="white"/>
<path d="M116.821 61.0059H21.2031V91.4041H116.821V61.0059Z" fill="#F98D3D"/>
<path opacity="0.08" d="M107.479 82.5371C107.479 82.5371 101.919 84.4596 104.755 91.4044C107.591 98.3492 112.914 111.514 112.914 111.514L107.424 112.155C107.424 112.155 104.929 117.379 111.316 118.982C117.703 120.584 121.609 126.978 121.609 126.978H133.674L131.373 114.182C131.373 114.182 117.71 96.5521 116.82 95.6744C115.931 94.7967 107.479 82.5371 107.479 82.5371Z" fill="black"/>
<path d="M46.3257 74.8053H44.2407C44.2158 74.605 44.1595 74.4099 44.0739 74.2272C43.9852 74.0609 43.8646 73.9138 43.7191 73.7943C43.5737 73.6748 43.4061 73.5852 43.226 73.5306C43.02 73.4616 42.8038 73.4287 42.5866 73.4331C42.2078 73.4214 41.8344 73.5259 41.5163 73.7326C41.2038 73.9535 40.9623 74.2609 40.8213 74.6172C40.6499 75.0611 40.5672 75.5345 40.5781 76.0104C40.5645 76.4978 40.6471 76.9831 40.8213 77.4383C40.953 77.791 41.1928 78.0928 41.5061 78.3005C41.8195 78.5082 42.1904 78.6112 42.5658 78.5946C42.7772 78.5971 42.9879 78.5689 43.1913 78.5111C43.3696 78.455 43.5367 78.3677 43.6847 78.2533C43.8293 78.1389 43.9498 77.9969 44.0392 77.8354C44.1379 77.6658 44.2039 77.4791 44.2338 77.2851H46.3188C46.28 77.6759 46.1693 78.0562 45.9921 78.4066C45.7988 78.7822 45.5452 79.1234 45.2415 79.4166C44.9018 79.7199 44.5081 79.9563 44.0809 80.1132C43.5803 80.297 43.0502 80.3867 42.5171 80.3779C41.7893 80.3898 41.0709 80.2122 40.4321 79.8624C39.816 79.5168 39.3137 78.9988 38.9865 78.3717C38.6365 77.6216 38.4551 76.8036 38.4551 75.9755C38.4551 75.1474 38.6365 74.3295 38.9865 73.5794C39.3209 72.9511 39.8272 72.4315 40.446 72.0817C41.0849 71.7328 41.8037 71.5575 42.531 71.5732C43.019 71.5676 43.5048 71.6405 43.9697 71.7892C44.3925 71.9231 44.7862 72.1358 45.1303 72.4161C45.467 72.6939 45.7437 73.0376 45.9435 73.4261C46.16 73.8563 46.2898 74.3249 46.3257 74.8053Z" fill="white"/>
<path d="M49.5453 71.7051V80.2729H47.502V71.7051H49.5453Z" fill="white"/>
<path d="M51.8446 73.0987C51.5692 73.1029 51.3029 73.0006 51.1009 72.8131C51.0039 72.7249 50.9264 72.6174 50.8734 72.4974C50.8204 72.3775 50.793 72.2477 50.793 72.1165C50.793 71.9853 50.8204 71.8555 50.8734 71.7355C50.9264 71.6156 51.0039 71.5081 51.1009 71.4199C51.3039 71.2364 51.5677 71.1348 51.8411 71.1348C52.1145 71.1348 52.3782 71.2364 52.5813 71.4199C52.6782 71.5081 52.7557 71.6156 52.8088 71.7355C52.8618 71.8555 52.8892 71.9853 52.8892 72.1165C52.8892 72.2477 52.8618 72.3775 52.8088 72.4974C52.7557 72.6174 52.6782 72.7249 52.5813 72.8131C52.3822 73.0008 52.1179 73.1033 51.8446 73.0987ZM50.816 80.2733V73.844H52.8593V80.2733H50.816Z" fill="white"/>
<path d="M57.1694 80.3981C56.5629 80.4135 55.9632 80.2668 55.4319 79.9732C54.9551 79.7036 54.5682 79.299 54.3199 78.8099C54.0501 78.2775 53.9164 77.6864 53.9307 77.0894C53.9181 76.4882 54.0517 75.8929 54.3199 75.3549C54.5688 74.8645 54.9553 74.4578 55.4319 74.1847C55.9621 73.8953 56.559 73.7512 57.1625 73.7668C57.6995 73.7553 58.2321 73.8673 58.7193 74.0942C59.1429 74.2919 59.5019 74.6059 59.7548 74.9997C60.0091 75.4197 60.1437 75.9015 60.144 76.3928H58.2397C58.2155 76.1056 58.0984 75.8341 57.9061 75.6196C57.8156 75.5279 57.7071 75.4558 57.5875 75.4079C57.468 75.3599 57.3398 75.3372 57.2111 75.341C56.987 75.336 56.7674 75.4045 56.5856 75.5361C56.3943 75.6878 56.2498 75.8906 56.1686 76.1212C55.9741 76.7472 55.9741 77.4177 56.1686 78.0437C56.2498 78.2743 56.3943 78.4771 56.5856 78.6288C56.7667 78.7624 56.9863 78.8333 57.2111 78.8308C57.386 78.8339 57.5586 78.7907 57.7115 78.7054C57.8624 78.6227 57.9875 78.4998 58.0729 78.3502C58.1748 78.1731 58.2364 77.9757 58.2536 77.772H60.1579C60.1552 78.263 60.0208 78.7442 59.7687 79.1652C59.5227 79.5657 59.1652 79.8853 58.7401 80.0847C58.2491 80.3136 57.7105 80.4211 57.1694 80.3981Z" fill="white"/>
<path d="M61.1934 80.2729V71.7051H63.2367V80.2729H61.1934ZM63.0351 78.5872V76.1492H63.3201L65.1271 73.8435H67.4414L64.7587 77.1453H64.2166L63.0351 78.5872ZM65.1757 80.2729L63.5008 77.605L64.8421 76.1492L67.5387 80.2729H65.1757Z" fill="white"/>
<path d="M70.707 80.2729V71.7051H72.792V75.1461H76.1697V71.7051H78.2547V80.2729H76.1697V76.8318H72.799V80.2729H70.707Z" fill="white"/>
<path d="M82.5007 80.3981C81.8969 80.4114 81.2995 80.2725 80.7632 79.9941C80.2867 79.7312 79.8977 79.3341 79.6442 78.8518C79.3737 78.3022 79.2401 77.6951 79.255 77.0825C79.242 76.4782 79.3781 75.88 79.6512 75.3411C79.9019 74.856 80.2852 74.4525 80.7562 74.1778C81.2691 73.8893 81.8502 73.7449 82.4381 73.7598C82.8646 73.7565 83.2883 73.8297 83.6891 73.9758C84.0608 74.1114 84.3979 74.3279 84.676 74.6097C84.9591 74.9045 85.1769 75.2557 85.3154 75.6406C85.4745 76.0875 85.5521 76.5593 85.5448 77.0337V77.5492H79.9848V76.3929H83.6613C83.6594 76.1904 83.6068 75.9916 83.5084 75.8147C83.4078 75.6452 83.2638 75.5058 83.0914 75.4107C82.9085 75.3102 82.7023 75.2598 82.4937 75.2644C82.2802 75.263 82.0698 75.3157 81.8821 75.4177C81.705 75.5175 81.5566 75.6615 81.4512 75.8356C81.3452 76.0151 81.2877 76.2192 81.2844 76.4277V77.6328C81.2764 77.8741 81.329 78.1136 81.4373 78.3293C81.5379 78.5203 81.6895 78.6795 81.8752 78.7891C82.0871 78.9078 82.3276 78.9656 82.5702 78.9562C82.7354 78.9573 82.8997 78.9315 83.0567 78.8796C83.198 78.8324 83.3282 78.7566 83.4389 78.6567C83.5471 78.558 83.6284 78.4334 83.6752 78.2945L85.5517 78.3502C85.4798 78.7547 85.3051 79.1338 85.0444 79.4508C84.7582 79.7609 84.4036 79.9995 84.0088 80.1474C83.5267 80.3268 83.0148 80.4119 82.5007 80.3981Z" fill="white"/>
<path d="M86.5957 80.2732V73.8439H88.5765V75.0002H88.646C88.7291 74.6291 88.9289 74.2946 89.2159 74.0459C89.4812 73.8431 89.8066 73.7352 90.1402 73.7394H90.4321C90.5266 73.7513 90.6196 73.7723 90.7101 73.8021V75.5783C90.5859 75.5372 90.4578 75.5092 90.3279 75.4947C90.1749 75.4947 90.036 75.4947 89.9109 75.4947C89.6833 75.4937 89.459 75.5487 89.2576 75.6549C89.0662 75.761 88.9076 75.9176 88.7989 76.1077C88.686 76.322 88.6309 76.5621 88.639 76.8043V80.2871L86.5957 80.2732Z" fill="white"/>
<path d="M94.2392 80.3986C93.6353 80.4127 93.0377 80.2738 92.5017 79.9946C92.0232 79.7344 91.6335 79.3365 91.3827 78.8522C91.1306 78.3065 91 77.7122 91 77.1108C91 76.5094 91.1306 75.9151 91.3827 75.3694C91.6359 74.8838 92.0216 74.4804 92.4947 74.2061C93.0076 73.9176 93.5887 73.7732 94.1766 73.7882C94.6031 73.7855 95.0266 73.8586 95.4276 74.0041C95.7972 74.1398 96.132 74.3563 96.4076 74.638C96.6952 74.9305 96.9157 75.2823 97.0539 75.6689C97.213 76.1158 97.2906 76.5877 97.2833 77.062V77.5775H91.7233V76.3933H95.3929C95.3976 76.19 95.3446 75.9895 95.24 75.8152C95.1438 75.6447 95.0017 75.5047 94.8299 75.4112C94.6466 75.3116 94.4407 75.2612 94.2322 75.2649C94.0166 75.2643 93.8042 75.317 93.6137 75.4181C93.4386 75.5182 93.2924 75.6622 93.1897 75.8361C93.0773 76.0127 93.0192 76.2187 93.0229 76.4282V77.6332C93.0149 77.8746 93.0675 78.1141 93.1758 78.3298C93.2764 78.5208 93.428 78.68 93.6137 78.7895C93.8255 78.9086 94.0661 78.9664 94.3087 78.9567C94.4762 78.9578 94.6428 78.932 94.8021 78.8801C94.9427 78.8312 95.0725 78.7555 95.1844 78.6572C95.2902 78.5565 95.3711 78.4325 95.4207 78.295L97.2972 78.3507C97.2257 78.7566 97.0483 79.1364 96.7829 79.4513C96.4981 79.763 96.143 80.0018 95.7473 80.1478C95.2653 80.3276 94.7533 80.4127 94.2392 80.3986Z" fill="white"/>
<path d="M117.355 107.6C117.355 107.6 105.047 84.369 107.89 80.2732C110.732 76.1774 122.797 99.4149 122.797 99.4149C122.797 99.4149 134.035 93.8424 137.462 97.7571C140.888 101.672 141.25 116.488 141.25 116.488L128.434 121.364C128.434 121.364 119.955 115.178 112.859 114.823C107.049 114.537 101.558 107.363 117.355 107.6Z" fill="#F4A28C"/>
<path d="M128.434 121.37L139.713 155.14L157.811 145.423L141.249 116.487L128.434 121.37Z" fill="#FFD200"/>
<path d="M148.407 0.355469H119.836V28.9914H148.407V0.355469Z" fill="#141B30"/>
<path d="M140.993 7.95508L128.379 20.5978" stroke="#E6E6E6" stroke-width="2.03" stroke-linecap="round" stroke-linejoin="round"/>
<path d="M141.034 20.8283L128.42 8.18555" stroke="#E6E6E6" stroke-width="2.03" stroke-linecap="round" stroke-linejoin="round"/>
<path opacity="0.12" d="M117.418 57.398V52.9678" stroke="black" stroke-width="2.03" stroke-linecap="round" stroke-linejoin="round"/>
<path opacity="0.12" d="M121.213 61.1797H125.64" stroke="black" stroke-width="2.03" stroke-linecap="round" stroke-linejoin="round"/>
<path opacity="0.12" d="M119.982 58.7138L122.762 55.2588" stroke="black" stroke-width="2.03" stroke-linecap="round" stroke-linejoin="round"/>
<path opacity="0.44" d="M88.0123 103.685H54.6523V112.698H88.0123V103.685Z" fill="#C7C9C9"/>
<path opacity="0.44" d="M99.0707 40.0186H43.707V46.0648H99.0707V40.0186Z" fill="#C7C9C9"/>
</g>
<defs>
<clipPath id="clip0_2202_8065">
<rect width="158" height="155" fill="white"/>
</clipPath>
</defs>
</svg>
