<svg width="161" height="145" viewBox="0 0 161 145" fill="none" xmlns="http://www.w3.org/2000/svg">
<g clip-path="url(#clip0_2202_8027)">
<path d="M89.0611 21.4132C89.0611 21.4132 52.3984 28.9154 50.5242 45.372C48.6499 61.8285 70.6373 64.8472 89.8834 58.3576C109.13 51.868 101.996 31.7049 94.0782 30.9725C87.7606 30.3356 82.8327 40.1752 72.9769 44.1046C72.5452 44.2819 72.0635 44.2953 71.6226 44.1424C71.1817 43.9895 70.8119 43.6807 70.5831 43.2743C70.3542 42.8679 70.282 42.392 70.38 41.9361C70.4781 41.4802 70.7397 41.0759 71.1154 40.7993L94.1292 23.4448L91.5346 20.9355L89.0611 21.4132Z" fill="#F98D3D"/>
<path opacity="0.09" d="M89.0611 21.4132C89.0611 21.4132 52.3984 28.9154 50.5242 45.372C48.6499 61.8285 70.6373 64.8472 89.8834 58.3576C109.13 51.868 101.996 31.7049 94.0782 30.9725C87.7606 30.3356 82.8327 40.1752 72.9769 44.1046C72.5452 44.2819 72.0635 44.2953 71.6226 44.1424C71.1817 43.9895 70.8119 43.6807 70.5831 43.2743C70.3542 42.8679 70.282 42.392 70.38 41.9361C70.4781 41.4802 70.7397 41.0759 71.1154 40.7993L94.1292 23.4448L91.5346 20.9355L89.0611 21.4132Z" fill="black"/>
<path d="M96.8451 11.1423L89.3809 18.8506L94.1277 23.438L101.592 15.7298L96.8451 11.1423Z" fill="#FFD200"/>
<path opacity="0.09" d="M96.8451 11.1423L89.3809 18.8506L94.1277 23.438L101.592 15.7298L96.8451 11.1423Z" fill="black"/>
<path d="M101.881 29.3931C101.881 29.3931 102.774 20.1905 114.631 20.0504C126.489 19.9102 149.611 23.0054 149.42 39.4237C149.229 55.842 147.635 80.2402 126.47 103.67L89.8965 94.2003C89.8965 94.2003 107.103 49.76 101.881 29.3931Z" fill="#FFD200"/>
<path opacity="0.09" d="M107.32 27.9793C107.32 27.9793 110.508 24.3747 124.794 28.5207C139.081 32.6666 142.886 39.7804 139.265 61.3063C135.644 82.8323 123.934 99.2443 123.934 99.2443L109.392 96.544L107.32 27.9793Z" fill="black"/>
<path d="M107.461 29.1957C107.461 29.1957 135.077 31.0107 138.896 43.3149C142.715 55.6191 115.583 98.7538 115.583 98.7538H80.0293C80.0293 98.7538 86.5254 72.7698 81.5593 61.128C76.5932 49.4861 83.7077 23.9607 107.461 29.1957Z" fill="#F98D3D"/>
<path d="M105.712 13.8535L107.459 29.1955L98.0625 34.0675L101.078 18.2479L105.712 13.8535Z" fill="#F4A28C"/>
<path opacity="0.31" d="M100.505 20.7003C101.577 20.4821 102.561 19.9552 103.336 19.1846C103.336 19.1846 103.087 21.9995 99.8613 24.6489L100.505 20.7003Z" fill="#CE8172"/>
<path d="M98.9042 12.2999C98.9042 12.2999 97.6292 16.8407 97.865 20.0569C97.886 20.3692 97.9688 20.6742 98.1088 20.9542C98.2487 21.2343 98.4429 21.4837 98.6802 21.6882C98.9174 21.8926 99.1929 22.0479 99.4908 22.145C99.7886 22.2422 100.103 22.2792 100.415 22.2541C102.034 22.1267 104.183 21.4771 105.152 19.1271L107.262 15.325C107.608 14.5203 107.695 13.6282 107.513 12.7717C107.33 11.9151 106.886 11.1362 106.242 10.5422C103.979 8.18578 99.5226 9.49135 98.9042 12.2999Z" fill="#F4A28C"/>
<path d="M98.2614 15.2041L96.6422 16.7517C96.5435 16.8384 96.4693 16.9493 96.4269 17.0736C96.3845 17.1978 96.3755 17.331 96.4006 17.4598C96.4258 17.5886 96.4843 17.7086 96.5703 17.8079C96.6563 17.9071 96.7668 17.9821 96.8908 18.0254L98.6057 18.6623L98.2614 15.2041Z" fill="#F4A28C"/>
<path d="M100.403 7.2428C100.241 7.11895 100.052 7.03785 99.8506 7.00707C99.6496 6.97628 99.4441 6.99681 99.2532 7.06674C99.0623 7.13666 98.8922 7.25371 98.7588 7.40699C98.6254 7.56026 98.5329 7.74478 98.4901 7.94334C98.0757 9.71382 97.9355 12.2867 100.313 13.0382C104.055 14.2483 102.474 20.1456 106.803 20.0437L109.264 14.6877C109.264 14.6877 110.265 10.8029 106.637 9.14701C103.475 7.73318 102.978 9.0897 100.403 7.2428Z" fill="#24285B"/>
<path d="M101.137 28.5521C103.687 28.7049 108.009 29.0361 111.662 29.6538C111.662 29.6538 96.6551 52.9439 93.8119 78.9088C93.8119 78.9088 87.3094 46.3014 93.8119 29.2845L96.9994 28.7559C98.367 28.5385 99.7543 28.4702 101.137 28.5521Z" fill="#24285B"/>
<path opacity="0.09" d="M123.513 39.4238C123.513 39.4238 116.086 47.2127 117.998 56.1224C119.911 65.0321 122.333 79.0494 115.448 81.202C108.563 83.3546 94.551 77.1261 94.551 77.1261L91.0957 83.1126L92.511 91.6402C92.511 91.6402 107.811 89.0928 102.889 98.7667H115.576C115.576 98.7667 127.746 77.7502 129.69 73.6297C131.634 69.5092 123.513 39.4238 123.513 39.4238Z" fill="black"/>
<path d="M108.198 57.7855L87.1641 59.6904L89.7357 88.0292L110.77 86.1243L108.198 57.7855Z" fill="#FFD200"/>
<path d="M122.83 41.0672C123.162 39.914 123.774 38.8608 124.613 38.0022C125.452 37.1435 126.491 36.5061 127.636 36.147C128.782 35.7879 130 35.7183 131.179 35.9446C132.358 36.1709 133.463 36.6859 134.395 37.4434C136.904 39.4425 138.986 41.9236 140.519 44.7403C142.052 47.557 143.004 50.6521 143.32 53.8426C145.034 68.9809 148.26 91.7041 139.291 94.5637C130.321 97.4232 107.639 80.438 107.639 80.438L111.661 74.5534C111.661 74.5534 126.088 83.1129 130.85 81.5589C134.771 80.3361 119.018 54.7661 122.83 41.0672Z" fill="#F98D3D"/>
<path opacity="0.46" d="M122.83 41.0672C123.162 39.914 123.774 38.8608 124.613 38.0022C125.452 37.1435 126.491 36.5061 127.636 36.147C128.782 35.7879 130 35.7183 131.179 35.9446C132.358 36.1709 133.463 36.6859 134.395 37.4434C136.904 39.4425 138.986 41.9236 140.519 44.7403C142.052 47.557 143.004 50.6521 143.32 53.8426C145.034 68.9809 148.26 91.7041 139.291 94.5637C130.321 97.4232 107.639 80.438 107.639 80.438L111.661 74.5534C111.661 74.5534 126.088 83.1129 130.85 81.5589C134.771 80.3361 119.018 54.7661 122.83 41.0672Z" fill="white"/>
<path d="M111.662 74.5531C111.662 74.5531 102.903 69.9677 101.596 72.6425C100.289 75.3173 108.385 79.3359 108.385 79.3359L111.662 74.5531Z" fill="#F4A28C"/>
<path d="M96.998 28.756L98.6045 25.387L102.162 27.4823L107.957 25.0049L108.785 29.3356C108.785 29.3356 99.956 33.3414 96.998 28.756Z" fill="#24285B"/>
<path d="M99.8604 30.9529L101.881 29.3926L103.335 31.6853L101.594 34.6149L99.2676 34.0672L99.8604 30.9529Z" fill="white"/>
<path d="M99.2679 34.0674C99.2679 34.0674 93.0906 46.1678 91.1016 56.6633L91.2673 59.319L98.2798 58.6821L99.2552 55.7971C99.2552 55.7971 101.047 41.7416 101.582 34.6151L99.2679 34.0674Z" fill="white"/>
<path d="M55.567 94.5059L160.627 113.688L118.826 145.366L-0.246094 117.528L55.567 94.5059Z" fill="#F98D3D"/>
<path d="M-0.246094 109.72V117.528L160.627 113.688V105.88L-0.246094 109.72Z" fill="#F98D3D"/>
<path d="M55.567 86.6982L160.627 105.881L118.826 137.552L-0.246094 109.721L55.567 86.6982Z" fill="#24285B"/>
<path d="M44.4434 108.72L61.777 98.1992L94.9844 106.619L78.3137 118.069L44.4434 108.72Z" fill="white"/>
<path d="M103.105 17.1718C103.105 17.1718 103.462 15.3886 104.782 15.777C106.102 16.1655 105.592 18.7321 103.724 18.6366L103.105 17.1718Z" fill="#F4A28C"/>
<path d="M113.159 103.689L91.6621 118.235L111.839 124.012L132.016 108.689L113.159 103.689Z" fill="#FFD200"/>
<path d="M44.4442 108.72L35.7168 84.6914L72.4559 92.8496L78.3145 118.069L44.4442 108.72Z" fill="#F98D3D"/>
<path d="M116.231 108.6L94.7285 123.146L114.912 128.922L135.089 113.599L116.231 108.6Z" fill="white"/>
<path d="M89.0623 21.4128C89.0623 21.4128 88.8583 16.1396 92.8873 15.2225C96.9163 14.3054 95.6859 21.1199 89.0623 21.4128Z" fill="#F4A28C"/>
<path d="M56.7707 104.061C58.1 103.526 58.614 101.694 57.9187 99.9675C57.2235 98.2414 55.5821 97.2753 54.2528 97.8097C52.9234 98.3441 52.4094 100.177 53.1047 101.903C53.7999 103.629 55.4413 104.595 56.7707 104.061Z" fill="white"/>
<path d="M80.775 -0.432617H59.6992V14.3362H80.775V-0.432617Z" fill="#E6E6E6"/>
<path d="M72.9268 12.1582L70.3258 19.4184L68.0117 12.1582H72.9268Z" fill="#E6E6E6"/>
<path d="M64.4226 8.3753C65.2676 8.3753 65.9526 7.69098 65.9526 6.84683C65.9526 6.00268 65.2676 5.31836 64.4226 5.31836C63.5776 5.31836 62.8926 6.00268 62.8926 6.84683C62.8926 7.69098 63.5776 8.3753 64.4226 8.3753Z" fill="#C1C1C1"/>
<path d="M70.073 8.3753C70.918 8.3753 71.603 7.69098 71.603 6.84683C71.603 6.00268 70.918 5.31836 70.073 5.31836C69.228 5.31836 68.543 6.00268 68.543 6.84683C68.543 7.69098 69.228 8.3753 70.073 8.3753Z" fill="#C1C1C1"/>
<path d="M75.8796 8.3753C76.7246 8.3753 77.4096 7.69098 77.4096 6.84683C77.4096 6.00268 76.7246 5.31836 75.8796 5.31836C75.0346 5.31836 74.3496 6.00268 74.3496 6.84683C74.3496 7.69098 75.0346 8.3753 75.8796 8.3753Z" fill="#C1C1C1"/>
<path opacity="0.09" d="M118.826 137.551V145.365L160.627 113.688V105.88L118.826 137.551Z" fill="black"/>
</g>
<defs>
<clipPath id="clip0_2202_8027">
<rect width="161" height="145" fill="white"/>
</clipPath>
</defs>
</svg>
