<svg width="476" height="632" viewBox="0 0 476 632" fill="none" xmlns="http://www.w3.org/2000/svg">
<mask id="mask0_23_2062" style="mask-type:alpha" maskUnits="userSpaceOnUse" x="0" y="0" width="476" height="632">
<path d="M474.5 365C482 533.5 415.691 632 241.998 632C68.9999 627 -24.5003 563.5 7.00006 340C108.5 37.5 68.3041 0 241.998 0C286.998 68 457.5 230.5 474.5 365Z" fill="#D9D9D9"/>
</mask>
<g mask="url(#mask0_23_2062)">
<path d="M477.998 410C477.998 541.444 407.498 632 236.998 637.5C46.998 625.5 1.99805 541.444 1.99805 410C1.99805 278.556 108.554 172 239.998 172C371.442 172 477.998 278.556 477.998 410Z" fill="url(#paint0_linear_23_2062)"/>
<path d="M147.102 620.694C147.102 620.694 140.779 827.572 185.169 946.691C185.169 946.691 210.526 1171.77 221.64 1257.81C221.64 1257.81 254.916 1272.69 283.467 1266.11C294.58 1223.06 251.786 842.453 259.706 774.622C259.706 774.622 346.891 1180.08 331.051 1264.51C331.051 1264.51 348.487 1287.7 383.361 1271.16C383.361 1271.16 423.025 1082.48 380.167 953.397C380.167 953.397 391.281 662.146 365.924 582.69C340.567 503.171 147.102 620.694 147.102 620.694Z" fill="#141B30"/>
<path opacity="0.2" d="M379.337 682.201C376.846 640.301 372.694 603.831 365.924 582.562C340.567 503.107 147.102 620.629 147.102 620.629C147.102 620.629 146.08 653.842 147.741 701.234C184.914 728.827 219.596 734.831 219.596 734.831L229.496 682.265L232.817 733.234C335.266 723.078 369.629 693.698 379.337 682.201Z" fill="#333030"/>
<path d="M106.349 456.034L102.644 517.797C102.644 517.797 85.3352 575.856 86.6126 594.378C87.8262 612.901 76.7127 714.2 75.4991 727.805C74.2856 741.409 74.2856 757.441 74.2856 757.441L58.2539 805.599L60.745 829.104L69.3674 836.513L73.072 847.627L97.7901 857.527C97.7901 857.527 108.904 855.036 84.1855 835.299C84.1855 835.299 83.9301 798.829 89.1037 799.468C99.0037 800.681 92.1055 826.549 97.7261 834.086C101.431 839.004 108.84 801.959 108.84 801.959C108.84 801.959 111.331 771.045 98.9397 758.718C98.9397 758.718 119.953 695.677 137.262 627.719C154.571 559.76 157.062 434.956 157.062 434.956L106.349 456.034Z" fill="#FCCDAA"/>
<path opacity="0.5" d="M156.111 462.229C156.813 445.623 157.069 435.084 157.069 435.084L106.419 456.098L105.908 465.103C122.515 463.826 139.313 462.868 156.111 462.229Z" fill="#897160"/>
<path d="M266.98 246.856L283.011 236.125L295.339 251.646C295.339 251.646 367.513 236.764 394.211 260.013C431.256 292.268 362.084 512.112 362.084 512.112L382.65 660.229C382.65 660.229 361.253 703.214 232.745 715.988L229.424 665.019L219.524 717.585C219.524 717.585 173.409 709.601 130.552 669.809C130.552 669.809 148.244 513.325 143.326 457.183C143.326 457.183 96.3803 457.183 95.1667 453.606C93.9532 450.029 94.5282 346.686 119.246 319.221C143.964 291.757 199.532 278.024 199.532 278.024L266.98 246.856Z" fill="url(#paint1_linear_23_2062)"/>
<path d="M208.039 219.645L213.851 310.916L277.978 282.11L272.613 188.156L208.039 219.645Z" fill="#FCCDAA"/>
<path d="M227.836 279.875C245.401 269.783 259.964 256.498 275.804 244.49L272.546 188.156L207.973 219.645L212.444 289.136C217.426 286.007 222.535 282.877 227.836 279.875Z" fill="#FAB989"/>
<path d="M235.697 58.3067C283.6 67.7596 282.514 97.3957 282.514 97.3957C282.514 97.3957 281.173 120.261 280.47 147.471C284.878 141.978 292.35 139.614 300.015 142.489C316.366 148.62 304.678 194.927 279.896 191.095C278.938 203.996 277.596 214.088 275.808 217.537C268.974 230.758 230.907 263.844 203.825 267.165C176.744 270.486 154.581 231.525 154.389 202.719C154.198 173.913 148.449 90.1145 148.449 90.1145C148.449 90.1145 156.369 42.5944 235.697 58.3067Z" fill="#FCCDAA"/>
<path d="M199.273 125.372C199.273 125.372 199.401 121.604 202.211 117.133C203.616 114.897 205.533 112.47 208.407 110.49C209.748 109.404 211.473 108.638 213.261 107.871C215.177 107.297 217.03 106.594 219.201 106.658C221.309 106.53 223.416 106.722 225.396 107.36C227.44 107.744 229.101 108.957 230.762 109.788C232.295 110.809 233.444 112.151 234.594 113.237C235.68 114.45 236.318 115.791 236.957 116.941C238.362 119.177 238.618 121.54 238.937 123.009C239.193 124.542 239.193 125.436 239.193 125.436C239.193 125.436 238.298 125.117 236.893 124.478C235.488 123.903 233.827 122.817 231.784 122.051C230.762 121.668 229.804 121.093 228.718 120.773C227.76 120.454 226.674 120.135 225.652 119.751C224.63 119.687 223.672 119.177 222.714 119.304C221.756 119.241 220.862 119.113 219.84 119.24C218.882 119.113 217.86 119.56 216.838 119.56C215.816 119.879 214.666 120.007 213.58 120.39C211.345 120.965 209.045 121.923 206.938 122.626C202.786 124.222 199.273 125.372 199.273 125.372Z" fill="#141B30"/>
<path d="M154.631 125.689C154.631 125.689 154.376 122.815 156.037 119.43C157.57 116.109 161.402 111.893 167.533 110.999C169.066 110.807 170.535 110.743 172.068 111.127C173.601 111.254 174.879 111.957 176.156 112.532C177.434 113.107 178.264 114.065 179.158 114.831C180.052 115.598 180.499 116.62 181.074 117.45C182.16 119.047 182.352 120.771 182.543 121.857C182.671 123.007 182.671 123.645 182.671 123.645C182.671 123.645 181.968 123.518 180.883 123.326C179.797 123.134 178.455 122.623 176.986 122.432C176.22 122.368 175.517 122.049 174.815 122.049C174.112 122.049 173.41 121.793 172.771 121.857C171.493 121.857 170.408 121.857 169.258 122.113C166.959 122.304 163.637 123.39 160.508 124.156C157.378 125.114 154.631 125.689 154.631 125.689Z" fill="#141B30"/>
<path d="M231.096 221.947L176.23 222.841C176.23 222.841 188.366 251.008 231.096 221.947Z" fill="white"/>
<path d="M234.994 145.364C234.994 150.857 232.439 155.328 229.309 155.328C226.18 155.328 223.625 150.857 223.625 145.364C223.625 139.871 226.18 135.4 229.309 135.4C232.439 135.4 234.994 139.871 234.994 145.364Z" fill="#141B30"/>
<path d="M182.929 147.793C182.929 153.286 180.374 157.757 177.244 157.757C174.115 157.757 171.56 153.286 171.56 147.793C171.56 142.3 174.115 137.829 177.244 137.829C180.374 137.829 182.929 142.3 182.929 147.793Z" fill="#141B30"/>
<path d="M239.714 82.0696C249.358 95.738 246.484 118.157 252.233 124.033C257.981 129.909 269.414 131.761 266.54 164.144C266.157 168.487 265.773 173.086 265.326 177.876C267.689 177.301 270.116 176.854 272.799 176.726C275.482 176.599 277.973 176.79 280.4 177.046C280.655 164.91 281.869 157.246 281.869 157.246C281.869 157.246 294.388 90.4368 292.344 81.1116C290.3 71.8503 271.522 38.9567 242.397 32.378L250.125 41.7032C247.251 38.4458 234.221 26.1187 204.904 31.42L212.185 32.9528C212.185 32.9528 175.971 36.2741 150.231 26.6935L159.492 37.1045C159.492 37.1045 134.391 35.7632 124.619 27.5239C124.619 27.5239 110.758 67.9542 145.057 85.9019C179.356 103.85 230.069 68.3374 239.714 82.0696Z" fill="#141B30"/>
<path d="M197.942 205.023C197.942 205.023 234.093 195.762 246.356 219.905C246.356 219.905 210.269 226.675 197.814 217.095C197.814 217.095 181.527 225.845 166.39 221.182C166.39 221.118 174.565 200.552 197.942 205.023Z" fill="#141B30"/>
<path d="M187.016 146.197C186.824 155.33 185.803 164.336 184.334 173.278C182.865 182.22 181.076 191.034 178.841 199.784L177.499 197.677C184.525 199.848 191.487 202.275 198.385 204.958C191.04 204 183.823 202.722 176.605 201.253L175.072 200.934L175.264 199.146C176.35 190.14 177.883 181.262 179.735 172.448C181.587 163.57 183.886 154.819 187.016 146.197Z" fill="#7F6654"/>
<path d="M137.207 161.459L176.105 158.968C176.105 158.968 179.362 184.58 164.991 188.604C134.142 197.29 137.207 161.459 137.207 161.459Z" fill="#96CDFF" stroke="#20242E" stroke-width="4" stroke-miterlimit="10"/>
<path d="M192.196 158.97L231.093 156.479C231.093 156.479 234.351 182.091 219.98 186.115C189.13 194.801 192.196 158.97 192.196 158.97Z" fill="#96CDFF" stroke="#20242E" stroke-width="4" stroke-miterlimit="10"/>
<path d="M176.535 167.657C176.535 167.657 182.922 157.374 192.566 167.274" stroke="#20242E" stroke-width="4" stroke-miterlimit="10"/>
<path d="M307.552 325.611L342.171 303.959C342.171 303.959 398.377 331.168 388.477 363.295C381.132 387.247 309.405 408.388 303.209 391.079C297.014 373.77 307.552 325.611 307.552 325.611Z" fill="#FAB989"/>
<path d="M254.085 148.755H265.582V149.074C265.901 148.947 266.284 148.883 266.668 148.755C267.37 145.115 268.328 141.602 269.989 138.28C262.324 138.408 246.612 140.644 246.612 140.644L235.115 153.865C246.037 163.126 254.085 148.755 254.085 148.755Z" fill="#A07E67"/>
<path d="M257.661 153.797H266.347V154.116C266.603 153.988 266.858 153.924 267.114 153.86C267.625 150.667 268.391 147.601 269.604 144.663C263.856 144.791 252.04 146.707 252.04 146.707L243.354 158.332C251.593 166.443 257.661 153.797 257.661 153.797Z" fill="#A07E67"/>
<path d="M232.18 159.99L279.125 147.025" stroke="#20242E" stroke-width="4" stroke-miterlimit="10"/>
<path d="M195.898 280.005L218.189 330.016L229.878 302.232L228.728 300.763L210.142 269.466L195.898 280.005Z" fill="url(#paint2_linear_23_2062)"/>
<path d="M287.351 233.063L230.953 302.299L247.177 332.51L308.109 250.308L287.351 233.063Z" fill="#2F66F4"/>
<path d="M290.808 234.785L272.605 197.165C270.114 207.193 253.061 188.479 243.863 194.036C244.694 209.365 238.69 370.064 300.07 393.569C337.115 407.748 359.981 375.301 347.015 338.576C332.836 298.401 290.808 234.785 290.808 234.785Z" fill="#FCCDAA"/>
<path d="M227.83 148.177L239.327 134.955C239.327 134.955 259.51 132.081 265.258 132.656C271.007 133.231 275.031 143.578 275.031 143.578L279.055 144.728L283.079 155.65L287.677 159.099C287.677 159.099 281.354 201.764 265.769 205.788C250.185 209.812 234.664 201.765 246.161 179.857C257.658 157.949 258.233 155.075 258.233 155.075V143.003H246.736C246.864 143.003 238.752 157.438 227.83 148.177Z" fill="#FCCDAA"/>
</g>
<defs>
<linearGradient id="paint0_linear_23_2062" x1="285.498" y1="638" x2="199.859" y2="507.435" gradientUnits="userSpaceOnUse">
<stop stop-color="#F98D3D"/>
<stop offset="1" stop-color="#F9AE3D"/>
</linearGradient>
<linearGradient id="paint1_linear_23_2062" x1="433.498" y1="225.5" x2="63.8394" y2="624.853" gradientUnits="userSpaceOnUse">
<stop stop-color="#2F66F4"/>
<stop offset="1" stop-color="#0D9AE9"/>
</linearGradient>
<linearGradient id="paint2_linear_23_2062" x1="204.227" y1="299.741" x2="223.965" y2="299.748" gradientUnits="userSpaceOnUse">
<stop stop-color="#2F66F4"/>
<stop offset="1" stop-color="#0D9AE9"/>
</linearGradient>
</defs>
</svg>
