<svg xmlns="http://www.w3.org/2000/svg" width="171" height="183" fill="none" viewBox="0 0 171 183"><path fill="url(#paint0_linear_206_1614)" d="M92.8233 124.28L101.873 118.223L108.832 126.985C108.832 126.985 149.574 118.584 164.645 131.708C172.301 138.374 171.92 159.233 168.361 183H0.996369C0.996369 183 0.989974 183 0.998851 183C1.00773 183 5.95007 169 9.42825 165.131C23.3815 149.627 54.7494 141.875 54.7494 141.875L92.8233 124.28Z"/><path fill="#FCCDAA" d="M59.5625 108.921L62.8434 160.443L99.0427 144.182L96.014 91.1455L59.5625 108.921Z"/><path fill="#FAB989" d="M70.7287 142.92C80.6438 137.224 88.8644 129.724 97.806 122.946L95.9672 91.1455L59.5156 108.921L62.0395 148.148C64.8518 146.382 67.7361 144.615 70.7287 142.92Z"/><path fill="#FCCDAA" d="M75.1768 17.8446C102.218 23.1807 101.605 39.9102 101.605 39.9102C101.605 39.9102 100.848 52.8179 100.451 68.1773C102.939 65.0766 107.158 63.7425 111.484 65.365C120.714 68.8263 114.116 94.9662 100.127 92.8029C99.5862 100.086 98.8289 105.783 97.8194 107.73C93.9615 115.193 72.4727 133.87 57.1854 135.744C41.8981 137.619 29.387 115.626 29.2789 99.3649C29.1707 83.1041 25.9258 35.8 25.9258 35.8C25.9258 35.8 30.3965 8.97506 75.1768 17.8446Z"/><path fill="#141B30" d="M54.6113 55.7043C54.6113 55.7043 54.6833 53.577 56.2697 51.0532C57.0629 49.7913 58.1447 48.4213 59.7672 47.3036C60.5243 46.6906 61.4978 46.2579 62.5074 45.8253C63.589 45.5008 64.6346 45.1042 65.8605 45.1402C67.0503 45.0681 68.24 45.1762 69.3577 45.5368C70.5114 45.7531 71.449 46.4382 72.3864 46.9069C73.2517 47.4838 73.9006 48.241 74.5496 48.8539C75.1625 49.5389 75.5231 50.296 75.8836 50.945C76.6768 52.207 76.821 53.541 77.0013 54.3703C77.1455 55.2356 77.1457 55.7404 77.1457 55.7404C77.1457 55.7404 76.6407 55.5602 75.8475 55.1996C75.0543 54.8751 74.1169 54.2622 72.9632 53.8295C72.3863 53.6132 71.8456 53.2886 71.2326 53.1084C70.6918 52.9281 70.0789 52.7478 69.502 52.5315C68.9252 52.4954 68.3843 52.207 67.8434 52.2792C67.3026 52.2431 66.7978 52.171 66.2209 52.2431C65.6801 52.171 65.1033 52.4233 64.5264 52.4233C63.9496 52.6036 63.3005 52.6757 62.6876 52.892C61.4257 53.2165 60.1276 53.7574 58.9377 54.154C56.5942 55.0554 54.6113 55.7043 54.6113 55.7043Z"/><path fill="#141B30" d="M29.4142 55.8821C29.4142 55.8821 29.2701 54.2596 30.2075 52.3487C31.0729 50.4738 33.2361 48.0942 36.6974 47.5894C37.5627 47.4812 38.3921 47.4452 39.2574 47.6616C40.1227 47.7337 40.8438 48.1303 41.5649 48.4548C42.286 48.7793 42.7547 49.3201 43.2594 49.7527C43.7642 50.1854 44.0165 50.7623 44.341 51.231C44.954 52.1324 45.0623 53.1059 45.1704 53.7188C45.2426 54.3678 45.2424 54.7283 45.2424 54.7283C45.2424 54.7283 44.8459 54.6561 44.233 54.548C43.62 54.4398 42.8627 54.1514 42.0335 54.0433C41.6008 54.0072 41.2043 53.8269 40.8077 53.8269C40.4111 53.8269 40.0145 53.6827 39.6539 53.7188C38.9328 53.7188 38.3199 53.7188 37.6709 53.863C36.373 53.9712 34.4981 54.5841 32.7314 55.0167C30.9647 55.5575 29.4142 55.8821 29.4142 55.8821Z"/><path fill="#fff" d="M72.5807 110.22L41.6094 110.725C41.6094 110.725 48.4599 126.625 72.5807 110.22Z"/><path fill="#141B30" d="M74.7829 66.9883C74.7829 70.0891 73.3407 72.6129 71.574 72.6129C69.8073 72.6129 68.3652 70.0891 68.3652 66.9883C68.3652 63.8876 69.8073 61.3638 71.574 61.3638C73.3407 61.3638 74.7829 63.8876 74.7829 66.9883Z"/><path fill="#141B30" d="M45.3925 68.3604C45.3925 71.4611 43.9502 73.985 42.1836 73.985C40.4169 73.985 38.9746 71.4611 38.9746 68.3604C38.9746 65.2597 40.4169 62.7358 42.1836 62.7358C43.9502 62.7358 45.3925 65.2597 45.3925 68.3604Z"/><path fill="#141B30" d="M77.4403 31.2597C82.8846 38.9754 81.2622 51.6307 84.5071 54.9478C87.7521 58.2649 94.2059 59.3104 92.5834 77.5903C92.3671 80.0421 92.1507 82.638 91.8983 85.3421C93.2324 85.0176 94.6024 84.7653 96.1167 84.6932C97.631 84.621 99.0372 84.7292 100.407 84.8734C100.551 78.0229 101.237 73.6964 101.237 73.6964C101.237 73.6964 108.304 35.9829 107.15 30.7189C105.996 25.4909 95.3958 6.92255 78.9547 3.20889L83.3172 8.47294C81.6948 6.63414 74.3397 -0.324475 57.7905 2.66809L61.9006 3.53337C61.9006 3.53337 41.4576 5.40825 26.9274 0L32.1552 5.87698C32.1552 5.87698 17.9858 5.11982 12.4693 0.468732C12.4693 0.468732 4.64524 23.2915 24.0068 33.423C43.3683 43.5544 71.996 23.5078 77.4403 31.2597Z"/><path fill="#141B30" d="M53.8639 100.666C53.8639 100.666 74.2711 95.438 81.1936 109.067C81.1936 109.067 60.8224 112.889 53.7917 107.48C53.7917 107.48 44.5978 112.42 36.0527 109.788C36.0527 109.752 40.6678 98.1421 53.8639 100.666Z"/><path fill="#7F6654" d="M47.6895 67.4604C47.5814 72.6163 47.0045 77.7 46.1753 82.7477C45.346 87.7954 44.3365 92.771 43.0746 97.7105L42.3174 96.5207C46.2834 97.7466 50.2135 99.1166 54.1074 100.631C49.9611 100.09 45.8868 99.3691 41.8125 98.5398L40.9473 98.3596L41.0555 97.35C41.6685 92.2663 42.5338 87.2546 43.5794 82.279C44.625 77.2673 45.9228 72.3279 47.6895 67.4604Z"/><path fill="#96CDFF" stroke="#20242E" stroke-miterlimit="10" stroke-width="4" d="M19.5632 76.0741L41.5208 74.668C41.5208 74.668 43.3596 89.126 35.2472 91.3974C17.8327 96.3009 19.5632 76.0741 19.5632 76.0741Z"/><path fill="#96CDFF" stroke="#20242E" stroke-miterlimit="10" stroke-width="4" d="M50.612 74.6694L72.5696 73.2632C72.5696 73.2632 74.4084 87.7213 66.2961 89.9927C48.8815 94.8962 50.612 74.6694 50.612 74.6694Z"/><path stroke="#20242E" stroke-miterlimit="10" stroke-width="4" d="M41.7656 79.5739C41.7656 79.5739 45.3709 73.7691 50.8152 79.3576"/><path fill="#FAB989" d="M115.734 168.738L135.275 156.516C135.275 156.516 159.177 168.086 161.836 183H113.999C110.502 173.229 115.734 168.738 115.734 168.738Z"/><path fill="#A07E67" d="M85.5383 68.9037H92.0284V69.0839C92.2086 69.0118 92.4249 68.9758 92.6412 68.9037C93.0379 66.8485 93.5787 64.8656 94.5162 62.9907C90.1896 63.0628 81.3199 64.3247 81.3199 64.3247L74.8301 71.788C80.9955 77.016 85.5383 68.9037 85.5383 68.9037Z"/><path fill="#A07E67" d="M87.5665 71.7496H92.4702V71.9298C92.6144 71.8577 92.7586 71.8216 92.9028 71.7856C93.1912 69.9828 93.6237 68.2523 94.3088 66.5938C91.0638 66.6659 84.3937 67.7474 84.3937 67.7474L79.4902 74.3095C84.1413 78.8884 87.5665 71.7496 87.5665 71.7496Z"/><path stroke="#20242E" stroke-miterlimit="10" stroke-width="4" d="M73.1777 75.2449L99.6783 67.9258"/><path fill="url(#paint1_linear_206_1614)" d="M52.6875 142.993L65.2706 171.225L71.8688 155.541L71.2198 154.711L60.7277 137.044L52.6875 142.993Z"/><path fill="#2F66F4" d="M104.325 116.494L72.4883 155.577L81.6464 172.631L116.043 126.228L104.325 116.494Z"/><path fill="#FCCDAA" d="M106.276 117.467L96.0001 96.2309C94.594 101.891 84.9673 91.3273 79.7754 94.4641C80.1192 100.811 78.3877 151.299 91.1097 183H139.734C139.407 180.74 138.837 178.414 138.004 176.056C130 153.378 106.276 117.467 106.276 117.467Z"/><path fill="#FCCDAA" d="M70.7285 68.5772L77.2184 61.1138C77.2184 61.1138 88.6117 59.4914 91.8567 59.8159C95.1016 60.1404 97.3732 65.9812 97.3732 65.9812L99.6447 66.6302L101.916 72.7957L104.512 74.7426C104.512 74.7426 100.943 98.8273 92.1452 101.099C83.3478 103.37 74.5864 98.8273 81.0763 86.4604C87.5662 74.0936 87.8907 72.4711 87.8907 72.4711V65.6567H81.4009C81.473 65.6567 76.8939 73.8052 70.7285 68.5772Z"/><defs><linearGradient id="paint0_linear_206_1614" x1="186.814" x2="-21.858" y1="112.225" y2="337.659" gradientUnits="userSpaceOnUse"><stop stop-color="#2F66F4"/><stop offset="1" stop-color="#0D9AE9"/></linearGradient><linearGradient id="paint1_linear_206_1614" x1="57.389" x2="68.531" y1="154.135" y2="154.138" gradientUnits="userSpaceOnUse"><stop stop-color="#2F66F4"/><stop offset="1" stop-color="#0D9AE9"/></linearGradient></defs></svg>